<?xml version="1.0" encoding="UTF-8" standalone="no"?>
<!DOCTYPE svg PUBLIC "-//W3C//DTD SVG 1.1//EN" "http://www.w3.org/Graphics/SVG/1.1/DTD/svg11.dtd">
<svg width="100%" height="100%" viewBox="0 0 149 514" version="1.1" xmlns="http://www.w3.org/2000/svg" xmlns:xlink="http://www.w3.org/1999/xlink" xml:space="preserve" style="fill-rule:evenodd;clip-rule:evenodd;stroke-linecap:round;stroke-linejoin:round;stroke-miterlimit:1.41421;">
    <g transform="matrix(1,0,0,1,-43,-39)">
        <g transform="matrix(1,0,0,1,0,-162)">
            <g id="Female-1" transform="matrix(1,0,0,1,-505.535,-45.8085)">
                <path d="M583.577,265.03C582.378,266.23 581.228,267.479 580.179,268.729C580.129,268.779 580.079,268.779 580.029,268.829C573.631,276.276 569.383,284.622 567.334,293.869C566.334,298.217 565.834,302.815 565.834,307.663C566.084,307.613 566.384,307.563 566.634,307.513L567.684,307.513C571.182,307.513 574.181,308.763 576.63,311.212C577.28,311.861 578.079,313.461 578.929,315.96C579.279,315.86 579.679,315.76 580.029,315.61C590.574,311.861 595.423,300.466 594.673,281.424C594.723,281.873 594.773,282.323 594.923,282.773C596.172,287.821 599.821,292.519 605.968,296.767C613.865,302.215 624.311,304.914 637.356,304.814L686.886,304.814C686.186,289.37 680.288,276.126 669.243,265.03C657.398,253.185 643.103,247.287 626.36,247.287C618.763,247.287 611.666,248.537 605.119,250.986C599.971,252.835 595.173,255.484 590.724,258.833C588.225,260.682 585.826,262.731 583.577,265.03Z" style="fill:rgb(133,36,3);fill-rule:nonzero;"/>
                <path d="M594.923,282.773C594.773,282.323 594.723,281.873 594.673,281.424C595.423,300.466 590.575,311.861 580.029,315.61C579.679,315.76 579.279,315.86 578.929,315.96C578.08,313.461 577.28,311.861 576.63,311.212C574.181,308.763 571.182,307.513 567.684,307.513L566.634,307.513C566.384,307.563 566.084,307.613 565.835,307.663C565.635,307.663 565.435,307.663 565.285,307.713C562.786,308.163 560.587,309.312 558.687,311.212C556.188,313.711 554.939,316.71 554.939,320.258C554.939,323.507 556.038,326.356 558.238,328.755C558.388,328.905 558.538,329.055 558.687,329.205C560.936,331.454 563.585,332.653 566.634,332.903C566.884,332.903 567.084,332.903 567.334,332.953C567.434,332.903 567.534,332.903 567.684,332.953C568.783,332.903 569.833,332.753 570.883,332.503L570.932,332.503C573.082,337.201 575.98,341.6 579.629,345.748C579.779,345.898 579.879,346.098 580.029,346.248C580.779,346.997 581.528,347.797 582.328,348.547C585.627,351.845 589.325,354.644 593.374,356.993C593.873,357.293 594.373,357.593 594.923,357.893C600.371,361.042 606.218,363.191 612.466,364.341L612.466,374.736C612.466,375.486 612.566,376.186 612.716,376.886C613.066,378.635 613.965,380.134 615.365,381.484C617.214,383.433 619.463,384.383 622.112,384.383L622.162,384.383C624.811,384.383 627.11,383.433 629.009,381.484C630.359,380.134 631.208,378.635 631.608,376.886C631.758,376.186 631.808,375.486 631.808,374.736L631.808,370.138C631.808,369.788 631.808,369.439 631.808,369.089C631.758,368.839 631.758,368.589 631.708,368.339L631.708,366.99L631.708,364.641C633.607,364.391 635.507,363.991 637.356,363.541C642.804,362.192 647.952,359.992 652.75,356.994C656.698,354.545 660.447,351.496 663.945,347.897C664.595,347.198 665.295,346.498 665.945,345.748C669.493,341.8 672.392,337.551 674.691,333.053C675.891,330.604 676.94,328.155 677.79,325.606C678.29,324.157 678.74,322.707 679.089,321.258C679.939,317.809 680.489,314.261 680.739,310.612C680.839,309.063 680.889,307.564 680.889,306.014C680.889,305.614 680.889,305.214 680.889,304.815L637.806,304.815C637.656,304.815 637.506,304.815 637.356,304.815C624.311,304.915 613.866,302.216 605.969,296.768C599.821,292.52 596.173,287.821 594.923,282.773ZM566.634,315.86C566.884,315.81 567.084,315.76 567.334,315.71C567.584,315.66 567.834,315.66 568.084,315.66C569.583,315.66 570.882,316.16 571.932,317.209C572.982,318.309 573.531,319.608 573.531,321.158C573.531,322.657 572.982,323.907 571.932,324.956C571.682,325.206 571.382,325.406 571.132,325.606C570.383,326.156 569.583,326.456 568.633,326.556L568.583,326.556C568.433,326.556 568.234,326.556 568.084,326.556C567.834,326.556 567.584,326.556 567.334,326.506C567.084,326.456 566.884,326.406 566.634,326.356C566.234,326.256 565.835,326.106 565.485,325.956C565.335,325.856 565.185,325.756 565.035,325.656C564.735,325.406 564.435,325.206 564.185,324.956C563.136,323.907 562.636,322.657 562.636,321.158C562.636,319.608 563.136,318.309 564.185,317.209C564.735,316.66 565.335,316.31 565.985,316.06C566.084,316.01 566.184,315.96 566.284,315.91C566.384,315.86 566.484,315.86 566.634,315.86ZM608.717,311.062C608.967,310.812 609.317,310.662 609.667,310.712L616.564,310.712C616.914,310.662 617.214,310.812 617.514,311.062C617.764,311.312 617.864,311.661 617.864,312.011C617.864,312.361 617.764,312.661 617.514,312.911C617.214,313.161 616.914,313.311 616.564,313.361L609.667,313.361C609.317,313.311 608.967,313.161 608.717,312.911C608.467,312.661 608.317,312.361 608.367,312.011C608.317,311.662 608.467,311.312 608.717,311.062ZM637.356,311.711C637.956,312.361 638.255,313.111 638.255,314.01L638.255,319.608C638.255,320.508 637.956,321.258 637.356,321.907L637.306,321.957C636.656,322.607 635.906,322.907 634.957,322.957C634.057,322.907 633.307,322.607 632.658,321.957C632.008,321.308 631.658,320.558 631.658,319.608L631.658,314.01C631.658,313.061 632.008,312.311 632.658,311.661C633.307,311.012 634.057,310.712 634.957,310.712C635.906,310.712 636.656,311.012 637.306,311.661L637.356,311.711ZM646.952,311.062C647.202,310.812 647.502,310.662 647.852,310.712L654.749,310.712C655.099,310.662 655.399,310.812 655.698,311.062C655.948,311.312 656.048,311.661 656.048,312.011C656.048,312.361 655.948,312.661 655.698,312.911C655.399,313.161 655.099,313.311 654.749,313.361L647.852,313.361C647.502,313.311 647.202,313.161 646.952,312.911C646.652,312.661 646.502,312.361 646.552,312.011C646.502,311.662 646.652,311.312 646.952,311.062ZM606.518,327.705L654.199,327.705C653.549,332.953 651.3,337.501 647.402,341.45C645.603,343.199 643.703,344.648 641.654,345.748C640.255,346.498 638.805,347.097 637.356,347.547C635.107,348.197 632.808,348.497 630.359,348.497C626.21,348.497 622.462,347.597 619.063,345.748C617.014,344.648 615.115,343.199 613.365,341.45C609.417,337.501 607.168,332.953 606.518,327.705Z" style="fill:rgb(255,189,145);fill-rule:nonzero;"/>
                <path d="M567.334,315.71C567.084,315.76 566.884,315.81 566.634,315.86C566.484,315.86 566.384,315.86 566.284,315.91C566.184,315.96 566.084,316.01 565.984,316.06C565.335,316.31 564.735,316.659 564.185,317.209C563.136,318.309 562.636,319.608 562.636,321.158C562.636,322.657 563.136,323.907 564.185,324.956C564.435,325.206 564.735,325.406 565.035,325.656C565.185,325.756 565.335,325.856 565.485,325.956C565.835,326.106 566.234,326.256 566.634,326.356C566.884,326.406 567.084,326.456 567.334,326.506C567.584,326.556 567.834,326.556 568.084,326.556L568.633,326.556C569.583,326.456 570.383,326.156 571.132,325.606C571.382,325.406 571.682,325.206 571.932,324.956C572.982,323.907 573.532,322.657 573.532,321.158C573.532,319.609 572.982,318.309 571.932,317.209C570.883,316.16 569.583,315.66 568.084,315.66C567.834,315.66 567.584,315.66 567.334,315.71Z" style="fill:rgb(234,152,133);fill-rule:nonzero;"/>
                <path d="M609.667,310.712C609.317,310.662 608.967,310.812 608.717,311.062C608.467,311.312 608.317,311.661 608.367,312.011C608.317,312.361 608.467,312.661 608.717,312.911C608.967,313.161 609.317,313.311 609.667,313.361L616.564,313.361C616.914,313.311 617.214,313.161 617.514,312.911C617.764,312.661 617.864,312.361 617.864,312.011C617.864,311.662 617.764,311.312 617.514,311.062C617.214,310.812 616.914,310.662 616.564,310.712L609.667,310.712Z" style="fill:rgb(75,28,2);fill-rule:nonzero;"/>
                <path d="M638.255,314.01C638.255,313.111 637.956,312.361 637.356,311.711L637.306,311.661C636.656,311.012 635.906,310.712 634.957,310.712C634.057,310.712 633.307,311.012 632.658,311.661C632.008,312.311 631.658,313.061 631.658,314.01L631.658,319.608C631.658,320.558 632.008,321.308 632.658,321.957C633.307,322.607 634.057,322.907 634.957,322.957C635.906,322.907 636.656,322.607 637.306,321.957L637.356,321.907C637.956,321.258 638.255,320.508 638.255,319.608L638.255,314.01Z" style="fill:rgb(234,152,133);fill-rule:nonzero;"/>
                <path d="M647.852,310.712C647.502,310.662 647.202,310.812 646.952,311.062C646.652,311.312 646.502,311.661 646.552,312.011C646.502,312.361 646.652,312.661 646.952,312.911C647.202,313.161 647.502,313.311 647.852,313.361L654.749,313.361C655.099,313.311 655.399,313.161 655.699,312.911C655.948,312.661 656.048,312.361 656.048,312.011C656.048,311.662 655.948,311.312 655.699,311.062C655.399,310.812 655.099,310.662 654.749,310.712L647.852,310.712Z" style="fill:rgb(75,28,2);fill-rule:nonzero;"/>
                <path d="M654.199,327.705L606.518,327.705C607.168,332.953 609.417,337.501 613.365,341.45C615.115,343.199 617.014,344.648 619.063,345.748C622.462,347.597 626.21,348.497 630.359,348.497C632.808,348.497 635.107,348.197 637.356,347.547C638.805,347.097 640.255,346.498 641.654,345.748C643.703,344.648 645.603,343.199 647.402,341.45C651.3,337.501 653.549,332.953 654.199,327.705Z" style="fill:white;fill-rule:nonzero;"/>
                <path d="M567.334,332.953C567.084,332.903 566.884,332.903 566.634,332.903L566.634,346.348L548.591,346.348C548.591,351.995 550.641,356.843 554.739,360.892C557.738,363.941 561.186,365.84 565.135,366.639C565.185,366.639 565.285,366.639 565.335,366.639C565.785,366.739 566.184,366.789 566.634,366.839C566.884,366.889 567.084,366.889 567.334,366.939C567.634,366.939 567.934,366.939 568.234,366.989L612.466,366.989L612.466,364.34C606.218,363.191 600.371,361.042 594.923,357.893C594.373,357.593 593.873,357.293 593.374,356.993C589.325,354.644 585.627,351.846 582.328,348.547C581.528,347.797 580.779,346.997 580.029,346.248C579.879,346.098 579.779,345.898 579.629,345.748C575.98,341.6 573.082,337.201 570.932,332.503L570.883,332.503C569.833,332.753 568.783,332.903 567.684,332.953C567.534,332.903 567.434,332.903 567.334,332.953Z" style="fill:rgb(91,19,2);fill-rule:nonzero;"/>
                <path d="M684.187,313.011C683.137,311.961 681.988,311.162 680.738,310.612C680.489,314.26 679.939,317.809 679.089,321.258C678.739,322.707 678.289,324.156 677.79,325.606C676.94,328.155 675.89,330.604 674.691,333.053C675.041,333.103 675.441,333.103 675.84,333.103C676.99,333.053 678.04,332.903 679.089,332.653C680.339,332.303 681.488,331.804 682.538,331.054C682.788,330.854 683.088,330.654 683.337,330.404C683.587,330.154 683.887,329.904 684.187,329.654C684.737,329.005 685.237,328.405 685.686,327.755C686.936,325.856 687.586,323.707 687.586,321.358C687.586,319.458 687.186,317.709 686.386,316.11C685.836,315.01 685.137,313.961 684.187,313.011Z" style="fill:rgb(234,152,133);fill-rule:nonzero;"/>
                <path d="M675.84,333.103C675.441,333.103 675.041,333.103 674.691,333.053C672.392,337.551 669.493,341.799 665.944,345.748C665.295,346.498 664.595,347.197 663.945,347.897C660.447,351.496 656.698,354.544 652.75,356.993C647.952,359.992 642.804,362.191 637.356,363.541C635.507,363.991 633.607,364.39 631.708,364.64L631.708,366.989L677.49,366.989C678.04,366.939 678.539,366.889 679.089,366.839C679.589,366.79 680.089,366.69 680.589,366.64C684.537,365.84 687.986,363.941 691.034,360.892C695.083,356.844 697.082,351.995 697.132,346.348L679.089,346.348L679.089,332.653C678.04,332.903 676.99,333.053 675.841,333.103L675.84,333.103Z" style="fill:rgb(91,19,2);fill-rule:nonzero;"/>
                <path d="M635.956,373.437C635.357,372.487 634.657,371.637 633.857,370.838C633.208,370.188 632.508,369.588 631.808,369.088L631.808,374.736C631.808,375.486 631.758,376.186 631.608,376.885C631.208,378.635 630.359,380.134 629.009,381.484C627.11,383.433 624.811,384.382 622.162,384.382L622.112,384.382C619.463,384.382 617.214,383.433 615.365,381.484C613.965,380.134 613.066,378.635 612.716,376.886C612.566,376.186 612.466,375.486 612.466,374.736L612.466,369.688C612.016,370.038 611.566,370.388 611.166,370.838C610.317,371.638 609.617,372.487 609.067,373.437C608.817,373.787 608.567,374.187 608.367,374.587C607.918,375.336 607.568,376.086 607.318,376.886C607.018,377.635 606.818,378.435 606.668,379.235C606.518,380.184 606.418,381.134 606.418,382.184L606.418,394.729L623.112,384.633L638.505,393.379L638.505,382.184C638.505,381.084 638.405,380.035 638.205,378.985C638.006,377.935 637.706,376.986 637.356,376.036C637.106,375.536 636.906,375.037 636.656,374.587C636.406,374.187 636.206,373.787 635.956,373.437ZM633.357,378.885C633.357,378.935 633.357,378.984 633.357,379.034L633.357,378.885Z" style="fill:rgb(227,137,2);fill-rule:nonzero;"/>
                <path d="M633.357,379.034C633.357,378.984 633.357,378.935 633.357,378.885L633.357,379.034Z" style="fill:rgb(255,189,145);fill-rule:nonzero;"/>
                <path d="M638.205,378.984C638.405,380.034 638.505,381.084 638.505,382.183L638.505,393.379L623.112,384.632L606.418,394.728L606.418,382.183C606.418,381.134 606.518,380.184 606.668,379.234L598.421,379.534L598.471,460.002L598.471,478.045L645.902,478.045L645.902,427.815C649.351,427.715 652.35,426.416 654.849,423.917C655.299,423.417 655.748,422.917 656.098,422.367C657.748,420.118 658.597,417.569 658.647,414.62C658.647,410.972 657.398,407.873 654.849,405.324C652.35,402.875 649.351,401.576 645.902,401.526L645.852,385.482C645.752,381.734 643.603,379.535 639.355,378.985L638.205,378.985L638.205,378.984ZM626.41,424.216C623.961,426.665 621.062,427.865 617.614,427.865C614.165,427.865 611.216,426.665 608.767,424.216C607.768,423.217 606.968,422.117 606.418,420.968L628.809,420.968C628.209,422.117 627.41,423.217 626.41,424.216Z" style="fill:rgb(250,163,26);fill-rule:nonzero;"/>
                <path d="M617.614,427.865C621.062,427.865 623.961,426.665 626.41,424.216C627.41,423.217 628.209,422.117 628.809,420.968L606.418,420.968C606.968,422.117 607.768,423.217 608.767,424.216C611.216,426.666 614.165,427.865 617.614,427.865Z" style="fill:rgb(227,137,2);fill-rule:nonzero;"/>
                <path d="M598.421,379.534C588.875,379.534 584.127,384.282 584.127,393.829L584.127,460.002L598.471,460.002L598.421,379.534Z" style="fill:rgb(227,137,2);fill-rule:nonzero;"/>
                <path d="M598.421,379.534L598.471,379.534L598.421,379.534Z" style="fill:rgb(33,126,140);fill-rule:nonzero;"/>
                <path d="M598.471,478.045L598.471,460.002L584.127,460.002L584.127,535.522C582.528,535.922 581.178,536.521 580.029,537.271C578.679,538.171 577.73,539.37 577.08,540.87C577.03,541.17 576.93,541.47 576.88,541.819C576.63,542.919 576.43,544.019 576.23,545.118C576.23,545.168 576.23,545.268 576.23,545.318C576.18,545.468 576.18,545.618 576.23,545.768L576.18,564.71C576.18,565.76 576.43,566.66 576.88,567.459C577.08,567.809 577.33,568.159 577.68,568.459C578.329,569.159 579.129,569.658 580.029,569.908C580.479,570.008 581.028,570.058 581.578,570.108L581.678,570.108C583.127,570.058 584.377,569.508 585.377,568.459C586.176,567.709 586.676,566.86 586.926,565.81C586.876,565.66 586.876,565.46 586.926,565.31L586.976,565.36C586.976,565.51 586.976,565.66 586.926,565.81C587.026,567.11 587.526,568.209 588.425,569.109C589.475,570.158 590.774,570.658 592.274,570.658L592.774,570.658C594.123,570.608 595.223,570.058 596.122,569.109C596.872,568.359 597.372,567.459 597.622,566.46C597.672,566.21 597.722,565.91 597.722,565.66C597.722,567.16 598.221,568.409 599.271,569.409C600.321,570.458 601.62,571.008 603.12,571.008L603.269,571.008C604.769,571.008 606.018,570.458 607.018,569.409C608.068,568.409 608.617,567.16 608.617,565.66L608.617,559.313C608.517,559.213 608.417,559.113 608.367,559.063L608.617,559.063L608.617,546.718C608.567,546.268 608.517,545.818 608.467,545.418C608.417,545.218 608.367,545.019 608.317,544.869C608.168,544.469 608.068,544.119 607.918,543.769L607.818,543.669C607.818,543.519 607.818,543.369 607.768,543.269L607.018,542.37L607.668,543.069C605.918,538.471 603.32,535.922 599.771,535.422C599.371,535.223 598.921,535.073 598.471,534.923L598.471,478.045ZM586.976,545.418L586.976,546.418L586.926,546.368C586.926,546.018 586.926,545.718 586.976,545.418Z" style="fill:rgb(255,189,145);fill-rule:nonzero;"/>
                <path d="M586.976,545.768C586.976,545.668 586.976,545.568 586.976,545.418C586.926,545.718 586.926,546.018 586.926,546.368L586.976,546.418L586.976,545.768Z" style="fill:rgb(77,95,109);fill-rule:nonzero;"/>
                <path d="M584.127,535.522L584.127,515.18C583.128,518.329 582.178,521.378 581.328,524.376C581.278,524.426 581.278,524.426 581.278,524.476C580.978,525.476 580.679,526.476 580.429,527.475C580.279,527.875 580.179,528.275 580.029,528.725C578.879,532.873 577.93,536.921 577.08,540.87C577.73,539.37 578.679,538.171 580.029,537.271C581.178,536.522 582.528,535.922 584.127,535.522Z" style="fill:rgb(77,95,109);fill-rule:nonzero;"/>
                <path d="M598.471,534.922C598.921,535.072 599.371,535.222 599.771,535.422C603.319,535.922 605.918,538.471 607.668,543.069L617.964,553.265C619.013,554.314 619.463,555.614 619.413,557.113C619.463,558.563 619.013,559.812 617.964,560.862L617.864,560.962C616.814,562.011 615.515,562.511 614.015,562.561C612.666,562.511 611.516,562.061 610.517,561.212L608.617,559.312L608.617,565.66C608.617,567.159 608.068,568.409 607.018,569.408C606.019,570.458 604.769,571.008 603.27,571.008L603.12,571.008C601.62,571.008 600.321,570.458 599.271,569.408C598.222,568.409 597.722,567.159 597.722,565.66C597.722,565.91 597.672,566.21 597.622,566.46C597.372,567.459 596.872,568.359 596.122,569.109C595.223,570.058 594.123,570.608 592.774,570.658C592.624,570.658 592.524,570.658 592.424,570.658L592.274,570.658C590.775,570.658 589.475,570.158 588.425,569.109C587.526,568.209 587.026,567.109 586.926,565.81C586.676,566.859 586.176,567.709 585.377,568.459C584.377,569.508 583.128,570.058 581.678,570.108L581.578,570.108C581.028,570.058 580.479,570.008 580.029,569.908C579.129,569.658 578.329,569.159 577.68,568.459C577.33,568.159 577.08,567.809 576.88,567.459C576.43,566.66 576.18,565.76 576.18,564.71L576.23,545.768C576.18,545.618 576.18,545.468 576.23,545.318C576.23,545.268 576.23,545.168 576.23,545.118C573.581,558.763 572.832,570.908 573.881,581.554C574.081,583.603 574.331,585.602 574.581,587.651L669.643,587.651C672.692,542.919 664.795,506.384 645.902,478.045L598.471,478.045L598.471,534.923L598.471,534.922Z" style="fill:rgb(77,95,109);fill-rule:nonzero;"/>
                <path d="M608.467,545.418C608.517,545.818 608.567,546.268 608.617,546.717L608.617,559.312L610.517,561.212C611.516,562.061 612.666,562.511 614.015,562.561C615.515,562.511 616.814,562.011 617.864,560.962L617.964,560.862C619.013,559.812 619.463,558.563 619.413,557.113C619.463,555.614 619.013,554.314 617.964,553.265L607.668,543.069L607.018,542.369L607.768,543.269C607.818,543.369 607.818,543.519 607.818,543.669L607.918,543.769C608.068,544.119 608.168,544.469 608.318,544.868C608.368,545.018 608.418,545.218 608.468,545.418L608.467,545.418Z" style="fill:rgb(234,152,133);fill-rule:nonzero;"/>
                <path d="M608.617,559.312L608.617,559.062L608.367,559.062C608.417,559.112 608.517,559.212 608.617,559.312Z" style="fill:rgb(77,95,109);fill-rule:nonzero;"/>
                <path d="M586.926,565.81C586.976,565.66 586.976,565.51 586.976,565.36L586.926,565.31C586.876,565.46 586.876,565.66 586.926,565.81Z" style="fill:rgb(77,95,109);fill-rule:nonzero;"/>
                <path d="M601.22,587.651L601.22,587.701L619.463,596.697L619.463,587.651L601.22,587.651Z" style="fill:rgb(234,152,133);fill-rule:nonzero;"/>
                <path d="M640.355,587.651L622.062,587.651L622.062,745.788C624.011,744.838 626.16,744.388 628.459,744.438C632.308,744.438 635.707,745.738 638.655,748.387C639.205,747.837 639.805,747.337 640.355,746.937L640.355,587.651Z" style="fill:rgb(234,152,133);fill-rule:nonzero;"/>
                <path d="M619.463,596.697L601.22,587.701L601.22,756.334L613.066,756.334C613.116,756.084 613.215,755.834 613.315,755.634C613.415,755.234 613.565,754.834 613.765,754.434C614.515,752.685 615.565,751.136 616.914,749.686C617.164,749.436 617.364,749.186 617.614,748.937C618.164,748.337 618.813,747.787 619.463,747.337L619.463,596.697Z" style="fill:rgb(255,189,145);fill-rule:nonzero;"/>
                <path d="M665.045,756.933C664.345,754.084 662.996,751.535 660.946,749.286C657.698,745.738 653.849,743.988 649.351,743.988C646.002,743.988 643.004,744.988 640.355,746.937C639.805,747.337 639.205,747.837 638.655,748.387C639.105,748.737 639.555,749.186 640.005,749.686C642.054,751.935 643.403,754.484 644.153,757.383C644.403,758.233 644.553,759.083 644.653,759.982L665.595,759.982C665.495,758.933 665.295,757.883 665.045,756.933Z" style="fill:rgb(64,64,64);fill-rule:nonzero;"/>
                <path d="M644.153,757.383C643.403,754.484 642.054,751.935 640.005,749.686C639.555,749.186 639.105,748.737 638.655,748.387C635.707,745.738 632.308,744.438 628.459,744.438C626.16,744.388 624.011,744.838 622.062,745.788C621.212,746.138 620.413,746.637 619.613,747.187C619.563,747.237 619.513,747.287 619.463,747.337C618.813,747.787 618.164,748.337 617.614,748.937C617.364,749.186 617.164,749.436 616.914,749.686C615.565,751.136 614.515,752.685 613.765,754.434C613.565,754.834 613.415,755.234 613.315,755.634C613.216,755.834 613.116,756.084 613.066,756.334L601.22,756.334L601.27,760.432L644.703,760.432C644.653,760.282 644.653,760.132 644.653,759.982C644.553,759.083 644.403,758.233 644.153,757.383Z" style="fill:rgb(102,102,102);fill-rule:nonzero;"/>
                <path d="M654.199,327.705C653.549,332.953 651.3,337.501 647.402,341.45C645.603,343.199 643.703,344.648 641.654,345.748C640.255,346.498 638.805,347.097 637.356,347.547C635.107,348.197 632.808,348.497 630.359,348.497C626.21,348.497 622.462,347.597 619.063,345.748C617.014,344.648 615.115,343.199 613.365,341.45C609.417,337.501 607.168,332.953 606.518,327.705L654.199,327.705Z" style="fill:none;stroke:rgb(234,152,133);stroke-width:3px;"/>
            </g>
        </g>
    </g>
</svg>
