<?xml version="1.0" encoding="UTF-8" standalone="no"?>
<!DOCTYPE svg PUBLIC "-//W3C//DTD SVG 1.1//EN" "http://www.w3.org/Graphics/SVG/1.1/DTD/svg11.dtd">
<svg width="100%" height="100%" viewBox="0 0 120 498" version="1.1" xmlns="http://www.w3.org/2000/svg" xmlns:xlink="http://www.w3.org/1999/xlink" xml:space="preserve" style="fill-rule:evenodd;clip-rule:evenodd;stroke-linejoin:round;stroke-miterlimit:1.41421;">
    <g transform="matrix(1,0,0,1,-1395,-74)">
        <g transform="matrix(1,0,0,1,0,-162)">
            <g id="Female-3" transform="matrix(1,0,0,1,827.959,-25.4185)">
                <path d="M584.777,275.676C573.431,284.772 567.734,295.768 567.734,308.613L567.734,404.174L598.471,404.174C599.221,404.024 600.071,403.974 600.92,403.925C601.27,403.875 601.67,403.875 602.07,403.875L602.12,403.875L602.07,403.925L615.515,403.925L615.515,403.975L644.103,403.925C644.353,403.975 644.553,404.075 644.753,404.175L686.486,404.175L686.436,324.507C686.436,324.207 686.436,323.907 686.436,323.607C686.486,322.857 686.486,322.157 686.486,321.408C686.486,320.708 686.486,320.008 686.436,319.309C686.386,318.309 686.336,317.309 686.286,316.36L686.436,316.36L686.436,308.613C686.436,295.768 680.738,284.772 669.293,275.676L669.193,275.726C669.093,275.576 668.993,275.476 668.893,275.376C657.598,266.48 643.953,262.032 628.01,262.082L626.16,262.082C610.017,262.032 596.222,266.58 584.777,275.676ZM571.632,333.953L572.232,333.953L571.632,333.953ZM586.876,324.906L586.876,318.509C586.876,306.164 591.224,295.618 599.971,286.921C608.717,278.175 619.213,273.827 631.558,273.827C643.903,273.827 654.399,278.175 663.096,286.921C671.842,295.618 676.19,306.164 676.19,318.509L676.19,344.448C676.19,355.494 672.692,365.04 665.744,373.137C664.045,374.886 662.296,376.536 660.447,377.985C658.597,379.434 656.748,380.784 654.849,382.033C650.151,384.932 645.153,387.031 639.855,388.381C637.206,388.831 634.407,389.08 631.558,389.08C619.213,389.08 608.717,384.732 599.971,375.986C591.224,367.289 586.876,356.793 586.876,344.448L586.876,324.906ZM597.122,382.183L597.122,382.133L597.172,382.033L597.222,382.033C597.672,382.333 598.172,382.633 598.671,382.883C599.021,383.133 599.421,383.333 599.771,383.533C599.371,383.333 598.971,383.133 598.621,382.983C598.122,382.733 597.622,382.433 597.122,382.183ZM572.232,358.643L572.032,358.793L571.882,358.643L571.932,358.643C572.032,358.593 572.132,358.593 572.232,358.643Z" style="fill:rgb(29,31,28);fill-rule:nonzero;"/>
                <path d="M571.882,333.953C571.782,333.953 571.682,333.953 571.632,333.953L572.232,333.953C572.082,333.953 571.982,333.953 571.882,333.953Z" style="fill:rgb(120,63,46);fill-rule:nonzero;"/>
                <path d="M586.876,318.509L586.876,324.906L676.19,324.906L676.19,318.509C676.19,306.164 671.842,295.618 663.096,286.921C654.399,278.175 643.903,273.827 631.558,273.827C619.213,273.827 608.717,278.175 599.971,286.921C591.224,295.618 586.876,306.164 586.876,318.509ZM598.421,308.663C598.471,309.062 598.571,309.462 598.671,309.912L598.471,309.962C598.471,309.512 598.471,309.112 598.421,308.663Z" style="fill:rgb(0,102,153);fill-rule:nonzero;"/>
                <path d="M598.671,309.912C598.571,309.462 598.471,309.062 598.421,308.663C598.471,309.112 598.471,309.512 598.471,309.962L598.671,309.912Z" style="fill:rgb(255,189,145);fill-rule:nonzero;"/>
                <path d="M676.19,324.906L586.876,324.906L586.876,344.448C586.876,356.793 591.224,367.289 599.971,375.986C608.717,384.732 619.213,389.08 631.558,389.08C634.407,389.08 637.206,388.831 639.855,388.381C645.153,387.031 650.151,384.932 654.849,382.033C656.748,380.784 658.597,379.434 660.447,377.985C662.296,376.536 664.045,374.886 665.745,373.137C672.692,365.04 676.19,355.494 676.19,344.448L676.19,324.906ZM619.113,336.701C619.563,336.202 620.163,335.902 620.912,335.852C621.562,335.852 622.162,336.102 622.712,336.601C623.211,337.051 623.461,337.601 623.511,338.301C623.561,339.051 623.311,339.65 622.862,340.2C622.412,340.75 621.812,341 621.162,341C620.413,341.05 619.763,340.8 619.263,340.35C618.713,339.9 618.413,339.301 618.413,338.601C618.363,337.851 618.613,337.251 619.113,336.702L619.113,336.701ZM646.702,338.601C646.652,337.851 646.902,337.251 647.402,336.751C647.852,336.202 648.451,335.902 649.201,335.852C649.901,335.852 650.501,336.102 651.05,336.601C651.55,337.051 651.8,337.601 651.85,338.301C651.85,339.051 651.6,339.65 651.15,340.15C650.7,340.7 650.101,340.95 649.451,341C648.701,341.05 648.102,340.8 647.552,340.3C647.002,339.85 646.752,339.301 646.702,338.601ZM637.606,337.051C638.455,337.051 639.205,337.351 639.855,338.001L639.855,338.051C640.455,338.651 640.754,339.4 640.804,340.25L640.804,345.748C640.754,346.597 640.455,347.347 639.855,347.997C639.205,348.647 638.455,348.947 637.606,348.947C636.706,348.947 635.956,348.647 635.307,347.997C634.657,347.347 634.357,346.597 634.357,345.748L634.357,340.25C634.357,339.35 634.657,338.601 635.307,338.001C635.956,337.351 636.706,337.051 637.606,337.051ZM643.703,357.293C643.703,358.793 643.503,360.192 643.054,361.541C642.354,363.591 641.104,365.44 639.305,367.089C638.705,367.639 638.056,368.189 637.406,368.639C635.507,369.938 633.407,370.738 631.058,371.088C630.309,371.188 629.559,371.238 628.809,371.238C625.96,371.238 623.461,370.588 621.212,369.338C620.163,368.689 619.163,367.939 618.213,367.089C616.464,365.44 615.215,363.591 614.565,361.542C614.115,360.192 613.865,358.793 613.865,357.293C613.865,356.943 613.915,356.594 613.965,356.244L643.653,356.244C643.653,356.594 643.653,356.943 643.703,357.293Z" style="fill:rgb(206,153,101);fill-rule:nonzero;"/>
                <path d="M620.912,335.852C620.163,335.902 619.563,336.202 619.113,336.701C618.613,337.251 618.363,337.851 618.413,338.601C618.413,339.3 618.713,339.9 619.263,340.35C619.763,340.8 620.413,341.05 621.162,341C621.812,341 622.412,340.75 622.862,340.2C623.311,339.65 623.561,339.051 623.511,338.301C623.461,337.601 623.211,337.051 622.712,336.602C622.162,336.102 621.562,335.852 620.912,335.852Z" style="fill-rule:nonzero;"/>
                <path d="M647.402,336.751C646.902,337.251 646.652,337.851 646.702,338.601C646.752,339.3 647.002,339.85 647.552,340.3C648.102,340.8 648.701,341.05 649.451,341C650.101,340.95 650.7,340.7 651.15,340.15C651.6,339.65 651.85,339.05 651.85,338.301C651.8,337.601 651.55,337.051 651.05,336.601C650.501,336.102 649.901,335.852 649.201,335.852C648.451,335.902 647.852,336.202 647.402,336.751Z" style="fill-rule:nonzero;"/>
                <path d="M639.855,338.001C639.205,337.351 638.455,337.051 637.606,337.051C636.706,337.051 635.956,337.351 635.307,338.001C634.657,338.601 634.357,339.35 634.357,340.25L634.357,345.748C634.357,346.597 634.657,347.347 635.307,347.997C635.956,348.647 636.706,348.947 637.606,348.947C638.455,348.947 639.205,348.647 639.855,347.997C640.455,347.347 640.754,346.597 640.804,345.748L640.804,340.25C640.754,339.4 640.455,338.651 639.855,338.051L639.855,338.001Z" style="fill:rgb(168,109,53);fill-rule:nonzero;"/>
                <path d="M643.054,361.541C643.503,360.192 643.703,358.793 643.703,357.293C643.653,356.943 643.653,356.593 643.653,356.244L613.965,356.244C613.915,356.594 613.865,356.943 613.865,357.293C613.865,358.793 614.115,360.192 614.565,361.542L643.054,361.542L643.054,361.541Z" style="fill:white;fill-rule:nonzero;"/>
                <path d="M631.058,364.09C632.708,364.34 634.107,364.94 635.357,365.99C636.306,366.739 637.006,367.639 637.406,368.639C638.056,368.189 638.705,367.639 639.305,367.089C641.104,365.44 642.354,363.591 643.054,361.542L614.565,361.542C615.215,363.591 616.464,365.44 618.213,367.089C619.163,367.939 620.163,368.689 621.212,369.338C621.562,368.089 622.312,366.939 623.461,365.99C625.111,364.64 627.11,363.941 629.459,363.941C630.009,363.941 630.509,363.991 631.058,364.091L631.058,364.09Z" style="fill:rgb(79,32,32);fill-rule:nonzero;"/>
                <path d="M635.357,365.99C634.107,364.94 632.708,364.34 631.058,364.09C630.509,363.991 630.009,363.941 629.459,363.941C627.11,363.941 625.111,364.64 623.461,365.99C622.312,366.939 621.562,368.089 621.212,369.338C623.461,370.588 625.96,371.238 628.809,371.238C629.559,371.238 630.309,371.188 631.058,371.088C633.407,370.738 635.507,369.938 637.406,368.639C637.006,367.639 636.306,366.739 635.357,365.99Z" style="fill:rgb(255,153,153);fill-rule:nonzero;"/>
                <path d="M597.122,382.133L597.122,382.183L597.172,382.033L597.122,382.133Z" style="fill:rgb(255,189,145);fill-rule:nonzero;"/>
                <path d="M597.172,382.033L597.122,382.183C597.622,382.433 598.122,382.733 598.621,382.983C598.971,383.133 599.371,383.333 599.771,383.533C599.421,383.333 599.021,383.133 598.671,382.883C598.172,382.633 597.672,382.333 597.222,382.033L597.172,382.033Z" style="fill:rgb(91,19,2);fill-rule:nonzero;"/>
                <path d="M571.932,358.643C571.982,358.693 571.982,358.743 572.032,358.793L572.232,358.643C572.132,358.593 572.032,358.593 571.932,358.643Z" style="fill:rgb(91,19,2);fill-rule:nonzero;"/>
                <path d="M654.849,404.174L644.753,404.174C644.553,404.074 644.353,403.974 644.103,403.925L615.514,403.975L615.514,403.925L602.07,403.925L602.07,404.174L610.466,404.174L610.516,498.437L656.598,498.437L656.648,448.707C658.147,448.057 659.497,447.107 660.746,445.858C661.196,445.408 661.646,444.908 662.046,444.408C663.645,442.209 664.445,439.71 664.495,436.861C664.495,436.462 664.495,436.062 664.445,435.662C664.195,432.663 662.946,430.064 660.746,427.865C659.497,426.616 658.147,425.666 656.648,425.066L656.648,417.219L656.598,418.519L656.548,408.523C656.498,406.674 655.898,405.224 654.849,404.175L654.849,404.174ZM655.898,448.956L655.748,456.204L655.748,449.007C655.798,449.007 655.848,449.007 655.898,448.957L655.898,448.956ZM640.005,443.009C639.405,444.158 638.605,445.208 637.656,446.158C635.307,448.507 632.458,449.706 629.109,449.706C625.761,449.706 622.912,448.507 620.563,446.158C619.613,445.208 618.813,444.158 618.264,443.009L640.005,443.009Z" style="fill:rgb(204,51,0);fill-rule:nonzero;"/>
                <path d="M637.656,446.158C638.605,445.208 639.405,444.158 640.005,443.009L618.263,443.009C618.813,444.158 619.613,445.208 620.562,446.158C622.912,448.507 625.76,449.706 629.109,449.706C632.458,449.706 635.307,448.507 637.656,446.158Z" style="fill:rgb(152,31,1);fill-rule:nonzero;"/>
                <path d="M600.92,403.925C600.071,403.975 599.221,404.024 598.471,404.174L602.07,404.174L602.07,403.925L602.07,403.875C601.67,403.875 601.27,403.875 600.92,403.925Z" style="fill:rgb(152,31,1);fill-rule:nonzero;"/>
                <path d="M602.12,403.875L602.07,403.875L602.07,403.925L602.12,403.875Z" style="fill:rgb(33,126,140);fill-rule:nonzero;"/>
                <path d="M610.467,404.174L603.07,404.174C598.721,406.174 596.572,410.322 596.622,416.669L596.622,537.871L610.517,537.871L610.517,498.437L610.467,404.174Z" style="fill:rgb(152,31,1);fill-rule:nonzero;"/>
                <path d="M596.622,537.871L596.622,547.067C595.073,547.417 593.723,547.967 592.674,548.717C591.324,549.616 590.375,550.766 589.775,552.215C589.425,553.565 589.175,554.964 588.925,556.314C588.925,556.364 588.925,556.464 588.925,556.514C588.875,556.664 588.875,556.813 588.925,556.963L588.875,575.356C588.875,576.806 589.375,578.055 590.325,579.005C591.024,579.704 591.824,580.154 592.674,580.404C593.123,580.504 593.573,580.554 594.073,580.604L594.223,580.604C595.672,580.554 596.872,580.054 597.822,579.005C598.571,578.255 599.071,577.405 599.321,576.406C599.271,576.256 599.271,576.106 599.271,575.956C599.321,575.956 599.371,575.956 599.421,576.006C599.371,576.156 599.371,576.256 599.321,576.406C599.421,577.655 599.921,578.755 600.771,579.605C601.57,580.404 602.52,580.904 603.569,581.104C603.819,581.154 604.069,581.154 604.369,581.154L605.019,581.154C606.318,581.054 607.418,580.554 608.268,579.605C608.717,579.205 609.067,578.755 609.317,578.255C609.567,577.655 609.767,577.006 609.817,576.306C609.817,577.755 610.317,579.005 611.266,579.954C612.316,581.004 613.565,581.504 615.065,581.504L615.165,581.504C616.614,581.504 617.814,581.004 618.763,579.954C619.813,579.005 620.363,577.755 620.363,576.306L620.363,570.108C620.263,570.008 620.163,569.908 620.113,569.859L620.363,569.859L620.363,557.863C620.363,557.414 620.313,557.014 620.263,556.664C620.213,556.464 620.113,556.264 620.063,556.114C619.913,555.714 619.813,555.364 619.663,555.015L619.663,554.915C619.613,554.765 619.613,554.665 619.563,554.565L619.413,554.365L618.764,553.665L619.463,554.365C617.814,549.917 615.265,547.418 611.816,546.918C611.416,546.718 610.967,546.568 610.517,546.468L610.517,537.872L596.622,537.872L596.622,537.871ZM599.421,557.613L599.321,557.563C599.321,557.213 599.371,556.913 599.421,556.663L599.421,557.613Z" style="fill:rgb(206,153,101);fill-rule:nonzero;"/>
                <path d="M599.321,557.563L599.421,557.613L599.421,556.963C599.421,556.863 599.421,556.763 599.421,556.663C599.371,556.913 599.321,557.213 599.321,557.563Z" style="fill:rgb(77,95,109);fill-rule:nonzero;"/>
                <path d="M610.517,537.871L610.517,546.467C610.966,546.567 611.416,546.717 611.816,546.917C615.265,547.417 617.814,549.916 619.463,554.364L619.913,554.814L629.409,564.26C630.459,565.31 630.958,566.51 630.908,567.959C630.958,569.408 630.459,570.608 629.409,571.658L629.359,571.708C628.309,572.757 627.01,573.257 625.561,573.307C624.311,573.257 623.162,572.807 622.212,571.958L620.363,570.108L620.363,576.306C620.363,577.755 619.813,579.005 618.763,579.954C617.814,581.004 616.614,581.504 615.165,581.504L615.065,581.504C613.565,581.504 612.316,581.004 611.266,579.954C610.317,579.005 609.817,577.755 609.817,576.306C609.767,577.006 609.567,577.655 609.317,578.255C609.067,578.755 608.717,579.205 608.268,579.605C607.418,580.554 606.318,581.054 605.019,581.154C604.869,581.154 604.769,581.154 604.669,581.154L604.369,581.154L603.569,581.154L603.569,709.003L656.548,709.003L656.548,498.437L610.517,498.437L610.517,537.871Z" style="fill:rgb(0,51,102);fill-rule:nonzero;"/>
                <path d="M599.321,576.405C599.371,576.256 599.371,576.156 599.421,576.006C599.371,575.956 599.321,575.956 599.271,575.956C599.271,576.106 599.271,576.256 599.321,576.405Z" style="fill:rgb(77,95,109);fill-rule:nonzero;"/>
                <path d="M603.569,581.104L603.569,581.154L604.369,581.154C604.069,581.154 603.819,581.154 603.569,581.104Z" style="fill:rgb(58,150,173);fill-rule:nonzero;"/>
                <rect x="599.471" y="671.517" width="4.098" height="0.05" style="fill:rgb(58,150,173);fill-rule:nonzero;"/>
                <path d="M619.663,555.014L619.913,554.814L619.463,554.364L619.413,554.364L619.563,554.564C619.613,554.664 619.613,554.764 619.663,554.914L619.663,555.014Z" style="fill:rgb(103,43,33);fill-rule:nonzero;"/>
                <path d="M619.913,554.814L619.663,555.014C619.813,555.364 619.913,555.714 620.063,556.114C620.113,556.264 620.213,556.464 620.263,556.663C620.313,557.013 620.363,557.413 620.363,557.863L620.363,570.108L622.212,571.957C623.162,572.807 624.311,573.257 625.561,573.307C627.01,573.257 628.309,572.757 629.359,571.708L629.409,571.658C630.459,570.608 630.958,569.408 630.908,567.959C630.958,566.51 630.459,565.31 629.409,564.261L619.913,554.814Z" style="fill:rgb(181,119,57);fill-rule:nonzero;"/>
                <path d="M619.413,554.364L619.463,554.364L618.763,553.665L619.413,554.364Z" style="fill:rgb(234,152,133);fill-rule:nonzero;"/>
                <path d="M620.363,570.108L620.363,569.858L620.113,569.858C620.163,569.908 620.263,570.008 620.363,570.108Z" style="fill:rgb(77,95,109);fill-rule:nonzero;"/>
                <path d="M647.102,709.002L629.309,709.002L629.309,744.988C631.208,744.138 633.257,743.689 635.507,743.689C639.255,743.689 642.554,744.988 645.403,747.537C645.952,746.987 646.502,746.537 647.102,746.138L647.102,709.003L647.102,709.002Z" style="fill:rgb(181,119,57);fill-rule:nonzero;"/>
                <path d="M626.76,709.002L609.067,709.002L609.067,755.284L620.563,755.284C620.613,755.034 620.713,754.834 620.812,754.584C620.962,754.184 621.112,753.785 621.262,753.435C622.012,751.785 623.012,750.236 624.311,748.787C624.561,748.537 624.761,748.287 625.011,748.037C625.561,747.487 626.16,746.937 626.76,746.488L626.76,709.003L626.76,709.002Z" style="fill:rgb(206,153,101);fill-rule:nonzero;"/>
                <path d="M671.042,755.834C670.343,753.035 668.993,750.536 667.044,748.387C663.895,744.988 660.147,743.289 655.798,743.289C652.55,743.289 649.651,744.238 647.102,746.138C646.502,746.537 645.952,746.987 645.403,747.537C645.852,747.937 646.302,748.337 646.752,748.787C648.701,750.986 650.051,753.485 650.8,756.284C651,757.083 651.15,757.933 651.25,758.833L671.642,758.833C671.492,757.783 671.292,756.783 671.042,755.834Z" style="fill:rgb(81,81,81);fill-rule:nonzero;"/>
                <path d="M651.3,759.282C651.25,759.132 651.25,758.982 651.25,758.832L651.25,759.282L651.3,759.282Z" style="fill:rgb(153,102,153);fill-rule:nonzero;"/>
                <path d="M651.25,759.282L651.25,758.832C651.15,757.933 651,757.083 650.8,756.284C650.051,753.485 648.701,750.986 646.752,748.787C646.302,748.337 645.852,747.937 645.403,747.537C642.554,744.988 639.255,743.689 635.507,743.689C633.258,743.689 631.208,744.138 629.309,744.988C628.459,745.388 627.71,745.838 626.96,746.388C626.91,746.438 626.81,746.438 626.76,746.488C626.16,746.937 625.561,747.487 625.011,748.037C624.761,748.287 624.561,748.537 624.311,748.787C623.012,750.236 622.012,751.785 621.262,753.435C621.112,753.785 620.962,754.185 620.812,754.584C620.713,754.834 620.613,755.034 620.563,755.284L609.067,755.284L609.117,759.283L651.25,759.283L651.25,759.282Z" style="fill:rgb(115,115,117);fill-rule:nonzero;"/>
            </g>
        </g>
    </g>
</svg>
