<?xml version="1.0" encoding="UTF-8" standalone="no"?>
<!DOCTYPE svg PUBLIC "-//W3C//DTD SVG 1.1//EN" "http://www.w3.org/Graphics/SVG/1.1/DTD/svg11.dtd">
<svg width="100%" height="100%" viewBox="0 0 213 498" version="1.1" xmlns="http://www.w3.org/2000/svg" xmlns:xlink="http://www.w3.org/1999/xlink" xml:space="preserve" style="fill-rule:evenodd;clip-rule:evenodd;stroke-linejoin:round;stroke-miterlimit:1.41421;">
    <g transform="matrix(1,0,0,1,-1576,-74)">
        <g transform="matrix(1,0,0,1,0,-162)">
            <g id="Female-3-Laptop" transform="matrix(1,0,0,1,1255.29,-25.4185)">
                <path d="M338.675,275.676C327.28,284.772 321.582,295.768 321.582,308.613L321.582,404.174L352.32,404.174C353.07,404.024 353.919,403.974 354.819,403.925C355.169,403.875 355.569,403.875 355.968,403.875L356.018,403.875L355.968,403.925L369.363,403.925L369.363,403.975L398.002,403.925C398.201,403.975 398.401,404.075 398.601,404.175L440.385,404.175L440.285,324.507C440.285,324.207 440.285,323.907 440.285,323.607C440.335,322.857 440.335,322.157 440.335,321.408C440.335,320.708 440.335,320.008 440.285,319.309C440.235,318.309 440.235,317.309 440.185,316.36L440.285,316.36L440.285,308.613C440.285,295.768 434.587,284.772 423.142,275.676L423.092,275.726C422.942,275.576 422.842,275.476 422.792,275.376C411.446,266.48 397.802,262.032 381.858,262.082L380.009,262.082C363.865,262.032 350.121,266.58 338.675,275.676ZM325.481,333.953L326.08,333.953L325.481,333.953ZM340.774,324.906L340.774,318.509C340.774,306.164 345.123,295.618 353.819,286.921C362.566,278.175 373.062,273.827 385.407,273.827C397.752,273.827 408.297,278.175 416.994,286.921C425.74,295.618 430.089,306.164 430.089,318.509L430.089,344.448C430.089,355.494 426.59,365.04 419.593,373.137C417.894,374.886 416.144,376.536 414.345,377.985C412.496,379.434 410.647,380.784 408.697,382.033C404.049,384.932 399.051,387.031 393.753,388.381C391.054,388.831 388.255,389.08 385.407,389.08C373.062,389.08 362.566,384.732 353.819,375.986C345.123,367.289 340.774,356.793 340.774,344.448L340.774,324.906ZM351.07,382.033C351.52,382.333 352.02,382.633 352.52,382.883C352.87,383.133 353.269,383.333 353.669,383.533C353.269,383.333 352.87,383.133 352.52,382.983C351.97,382.733 351.47,382.433 351.02,382.183L350.97,382.133L351.07,382.033ZM325.78,358.643C325.88,358.593 325.98,358.593 326.08,358.643L325.93,358.793L325.78,358.643Z" style="fill:rgb(29,31,28);fill-rule:nonzero;"/>
                <path d="M325.78,333.953C325.681,333.953 325.581,333.953 325.481,333.953L326.08,333.953C325.98,333.953 325.88,333.953 325.78,333.953Z" style="fill:rgb(120,63,46);fill-rule:nonzero;"/>
                <path d="M340.774,318.509L340.774,324.906L430.089,324.906L430.089,318.509C430.089,306.164 425.74,295.618 416.994,286.921C408.297,278.175 397.752,273.827 385.407,273.827C373.062,273.827 362.566,278.175 353.819,286.921C345.123,295.618 340.774,306.164 340.774,318.509ZM352.27,308.663C352.32,309.062 352.42,309.462 352.52,309.912L352.32,309.962C352.32,309.512 352.32,309.112 352.27,308.663Z" style="fill:rgb(0,102,153);fill-rule:nonzero;"/>
                <path d="M352.52,309.912C352.42,309.462 352.32,309.062 352.27,308.663C352.32,309.112 352.32,309.512 352.32,309.962L352.52,309.912Z" style="fill:rgb(255,189,145);fill-rule:nonzero;"/>
                <path d="M430.089,324.906L340.774,324.906L340.774,344.448C340.774,356.793 345.123,367.289 353.819,375.986C362.566,384.732 373.062,389.08 385.407,389.08C388.255,389.08 391.054,388.831 393.753,388.381C399.051,387.031 404.049,384.932 408.697,382.033C410.647,380.784 412.496,379.434 414.345,377.985C416.144,376.536 417.894,374.886 419.593,373.137C426.59,365.04 430.089,355.494 430.089,344.448L430.089,324.906ZM372.262,338.601C372.212,337.851 372.462,337.251 372.962,336.701C373.411,336.202 374.011,335.902 374.761,335.852C375.461,335.852 376.06,336.102 376.56,336.601C377.06,337.051 377.31,337.601 377.36,338.301C377.41,339.051 377.16,339.65 376.71,340.2C376.26,340.75 375.711,341 375.011,341C374.261,341.05 373.661,340.8 373.112,340.35C372.562,339.9 372.312,339.301 372.262,338.601ZM389.155,338.001C389.805,337.351 390.555,337.051 391.454,337.051C392.304,337.051 393.054,337.351 393.703,338.001L393.753,338.051C394.353,338.651 394.653,339.4 394.653,340.25L394.653,345.748C394.653,346.597 394.353,347.347 393.753,347.997L393.703,347.997C393.054,348.647 392.304,348.947 391.454,348.947C390.555,348.947 389.805,348.647 389.155,347.997C388.505,347.347 388.205,346.597 388.205,345.748L388.205,340.25C388.205,339.35 388.505,338.601 389.155,338.001ZM401.25,336.751C401.7,336.202 402.3,335.902 403.05,335.852C403.749,335.852 404.349,336.102 404.899,336.601C405.399,337.051 405.649,337.601 405.698,338.301C405.698,339.051 405.499,339.65 405.049,340.15C404.599,340.7 403.999,340.95 403.299,341C402.55,341.05 401.95,340.8 401.45,340.3C400.9,339.85 400.601,339.301 400.551,338.601C400.501,337.851 400.75,337.251 401.25,336.752L401.25,336.751ZM397.552,357.293C397.552,358.793 397.352,360.192 396.902,361.541C396.202,363.591 394.953,365.44 393.154,367.089C392.554,367.639 391.904,368.189 391.254,368.639C389.355,369.938 387.256,370.738 384.907,371.088C384.157,371.188 383.407,371.238 382.658,371.238C379.859,371.238 377.31,370.588 375.061,369.338C374.011,368.689 373.012,367.939 372.062,367.089C370.313,365.44 369.113,363.591 368.463,361.542C368.014,360.192 367.764,358.793 367.764,357.293C367.764,356.943 367.764,356.594 367.814,356.244L397.502,356.244C397.552,356.594 397.552,356.943 397.552,357.293Z" style="fill:rgb(206,153,101);fill-rule:nonzero;"/>
                <path d="M372.962,336.701C372.462,337.251 372.212,337.851 372.262,338.601C372.312,339.3 372.562,339.9 373.112,340.35C373.661,340.8 374.261,341.05 375.011,341C375.711,341 376.26,340.75 376.71,340.2C377.16,339.65 377.41,339.051 377.36,338.301C377.31,337.601 377.06,337.051 376.56,336.602C376.06,336.102 375.461,335.852 374.761,335.852C374.011,335.902 373.411,336.202 372.962,336.702L372.962,336.701Z" style="fill-rule:nonzero;"/>
                <path d="M391.454,337.051C390.555,337.051 389.805,337.351 389.155,338.001C388.505,338.601 388.205,339.35 388.205,340.25L388.205,345.748C388.205,346.597 388.505,347.347 389.155,347.997C389.805,348.647 390.555,348.947 391.454,348.947C392.304,348.947 393.054,348.647 393.703,347.997L393.753,347.997C394.353,347.347 394.653,346.597 394.653,345.748L394.653,340.25C394.653,339.4 394.353,338.651 393.753,338.051L393.703,338.001C393.054,337.351 392.304,337.051 391.454,337.051Z" style="fill:rgb(168,109,53);fill-rule:nonzero;"/>
                <path d="M403.05,335.852C402.3,335.902 401.7,336.202 401.25,336.751C400.75,337.251 400.501,337.851 400.551,338.601C400.601,339.3 400.9,339.85 401.45,340.3C401.95,340.8 402.55,341.05 403.299,341C403.999,340.95 404.599,340.7 405.049,340.15C405.499,339.65 405.698,339.05 405.698,338.301C405.649,337.601 405.399,337.051 404.899,336.601C404.349,336.102 403.749,335.852 403.05,335.852Z" style="fill-rule:nonzero;"/>
                <path d="M396.902,361.541C397.352,360.192 397.552,358.793 397.552,357.293C397.552,356.943 397.552,356.593 397.502,356.244L367.814,356.244C367.764,356.594 367.764,356.943 367.764,357.293C367.764,358.793 368.014,360.192 368.463,361.542L396.902,361.542L396.902,361.541Z" style="fill:white;fill-rule:nonzero;"/>
                <path d="M391.254,368.639C391.904,368.189 392.554,367.639 393.154,367.089C394.953,365.44 396.202,363.591 396.902,361.541L368.463,361.541C369.113,363.591 370.313,365.44 372.062,367.089C373.012,367.939 374.011,368.689 375.061,369.338C375.411,368.089 376.16,366.939 377.36,365.99C379.009,364.64 380.958,363.941 383.307,363.941C383.857,363.941 384.357,363.991 384.907,364.09C386.556,364.34 388.006,364.94 389.255,365.99C390.205,366.739 390.854,367.639 391.254,368.639Z" style="fill:rgb(79,32,32);fill-rule:nonzero;"/>
                <path d="M384.907,371.088C387.256,370.738 389.355,369.938 391.254,368.639C390.854,367.639 390.205,366.739 389.255,365.99C388.006,364.94 386.556,364.34 384.907,364.09C384.357,363.991 383.857,363.941 383.307,363.941C380.958,363.941 379.009,364.64 377.36,365.99C376.16,366.939 375.411,368.089 375.061,369.338C377.31,370.588 379.859,371.238 382.658,371.238C383.407,371.238 384.157,371.188 384.907,371.088Z" style="fill:rgb(255,153,153);fill-rule:nonzero;"/>
                <path d="M351.07,382.033L351.02,382.183C351.47,382.433 351.97,382.733 352.52,382.983C352.87,383.133 353.269,383.333 353.669,383.533C353.269,383.333 352.87,383.133 352.52,382.883C352.02,382.633 351.52,382.333 351.07,382.033Z" style="fill:rgb(91,19,2);fill-rule:nonzero;"/>
                <path d="M351.02,382.183L351.07,382.033L350.97,382.133L351.02,382.183Z" style="fill:rgb(255,189,145);fill-rule:nonzero;"/>
                <path d="M326.08,358.643C325.98,358.593 325.88,358.593 325.78,358.643C325.83,358.693 325.88,358.743 325.93,358.793L326.08,358.643Z" style="fill:rgb(91,19,2);fill-rule:nonzero;"/>
                <path d="M410.447,408.523C410.397,406.673 409.797,405.224 408.697,404.174L398.601,404.174C398.401,404.074 398.201,403.975 398.002,403.925L369.363,403.975L369.363,403.925L355.968,403.925L355.968,404.174L364.315,404.174L364.415,498.437L410.447,498.437L410.497,448.707C411.996,448.057 413.395,447.107 414.645,445.858C415.095,445.408 415.495,444.908 415.894,444.408C417.544,442.209 418.343,439.71 418.343,436.861C418.343,436.462 418.343,436.062 418.293,435.662C418.044,432.663 416.794,430.064 414.645,427.865C413.395,426.616 411.996,425.666 410.497,425.066L410.497,417.219L410.447,418.519L410.447,408.523ZM409.747,448.956L409.597,456.204L409.597,449.007C409.647,449.007 409.697,449.007 409.747,448.957L409.747,448.956ZM382.958,449.706C379.609,449.706 376.76,448.507 374.411,446.158C373.461,445.208 372.662,444.158 372.112,443.009L393.853,443.009C393.254,444.158 392.454,445.208 391.504,446.158C389.155,448.507 386.306,449.706 382.958,449.706Z" style="fill:rgb(204,51,0);fill-rule:nonzero;"/>
                <path d="M374.411,446.158C376.76,448.507 379.609,449.706 382.958,449.706C386.306,449.706 389.155,448.507 391.504,446.158C392.454,445.208 393.254,444.158 393.853,443.009L372.112,443.009C372.662,444.158 373.461,445.208 374.411,446.158Z" style="fill:rgb(152,31,1);fill-rule:nonzero;"/>
                <path d="M355.968,403.875C355.569,403.875 355.169,403.875 354.819,403.925C353.919,403.975 353.07,404.024 352.32,404.174L355.968,404.174L355.968,403.925L355.968,403.875Z" style="fill:rgb(152,31,1);fill-rule:nonzero;"/>
                <path d="M356.018,403.875L355.968,403.875L355.968,403.925L356.018,403.875Z" style="fill:rgb(33,126,140);fill-rule:nonzero;"/>
                <path d="M364.315,404.174L356.968,404.174C352.62,406.174 350.421,410.322 350.471,416.669L350.471,537.871L364.415,537.871L364.415,498.437L364.315,404.174Z" style="fill:rgb(152,31,1);fill-rule:nonzero;"/>
                <path d="M410.447,498.437L364.415,498.437L364.415,546.467C364.865,546.567 365.265,546.717 365.665,546.917C369.113,547.417 371.662,549.916 373.311,554.364L373.761,554.814L383.257,564.26C384.307,565.31 384.807,566.51 384.757,567.959C384.807,569.408 384.307,570.608 383.258,571.658L383.208,571.708C382.158,572.757 380.908,573.257 379.459,573.307C378.21,573.257 377.06,572.807 376.11,571.958L374.211,570.108L374.261,576.306C374.211,577.755 373.711,579.005 372.662,579.954C371.712,581.004 370.463,581.504 369.013,581.504L368.913,581.504C367.464,581.504 366.214,581.004 365.165,579.954C364.165,579.005 363.665,577.755 363.715,576.306C363.665,577.006 363.465,577.655 363.166,578.255C362.916,578.755 362.566,579.205 362.116,579.605C361.266,580.554 360.167,581.054 358.867,581.154C358.767,581.154 358.667,581.154 358.517,581.154L358.218,581.154L357.418,581.154L357.418,709.003L410.447,709.003L410.447,498.437Z" style="fill:rgb(0,51,102);fill-rule:nonzero;"/>
                <path d="M373.511,554.914L373.561,555.014L373.761,554.814L373.311,554.364L373.411,554.564C373.461,554.664 373.461,554.764 373.511,554.914Z" style="fill:rgb(103,43,33);fill-rule:nonzero;"/>
                <path d="M373.561,555.014L373.511,554.914C373.461,554.764 373.461,554.664 373.411,554.564L373.311,554.364L372.662,553.665L373.311,554.364C371.662,549.916 369.113,547.417 365.665,546.917C365.265,546.717 364.865,546.568 364.415,546.468L364.415,537.871L350.471,537.871L350.471,547.067C348.921,547.417 347.572,547.967 346.522,548.717C345.173,549.616 344.223,550.766 343.623,552.215C343.273,553.565 343.024,554.964 342.774,556.314C342.774,556.364 342.774,556.464 342.774,556.514C342.724,556.664 342.724,556.814 342.774,556.963L342.724,575.356C342.724,576.806 343.223,578.055 344.223,579.005C344.873,579.704 345.673,580.154 346.522,580.404C346.972,580.504 347.422,580.554 347.972,580.604L348.072,580.604C349.521,580.554 350.77,580.054 351.72,579.005C352.47,578.255 352.97,577.405 353.17,576.406C353.12,576.256 353.12,576.106 353.17,575.956C353.219,575.956 353.219,575.956 353.269,576.006C353.219,576.156 353.219,576.256 353.17,576.406C353.269,577.655 353.769,578.755 354.619,579.605C355.419,580.404 356.368,580.904 357.418,581.104C357.668,581.154 357.968,581.154 358.217,581.154L358.867,581.154C360.167,581.054 361.266,580.554 362.116,579.605C362.566,579.205 362.916,578.755 363.166,578.255C363.465,577.655 363.665,577.006 363.715,576.306C363.665,577.755 364.165,579.005 365.165,579.954C366.214,581.004 367.464,581.504 368.913,581.504L369.013,581.504C370.463,581.504 371.712,581.004 372.662,579.954C373.711,579.005 374.211,577.755 374.261,576.306L374.211,570.108C374.111,570.008 374.011,569.908 373.961,569.859L374.211,569.859L374.211,557.863C374.211,557.414 374.161,557.014 374.111,556.664C374.061,556.464 373.961,556.264 373.911,556.114C373.811,555.714 373.711,555.364 373.561,555.015L373.561,555.014ZM353.269,556.663L353.269,557.613L353.17,557.563C353.17,557.213 353.219,556.913 353.269,556.663Z" style="fill:rgb(206,153,101);fill-rule:nonzero;"/>
                <path d="M353.269,556.963C353.269,556.863 353.269,556.763 353.269,556.663C353.219,556.913 353.17,557.213 353.17,557.563L353.269,557.613L353.269,556.963Z" style="fill:rgb(77,95,109);fill-rule:nonzero;"/>
                <path d="M373.311,554.364L372.662,553.665L373.311,554.364Z" style="fill:rgb(234,152,133);fill-rule:nonzero;"/>
                <path d="M373.761,554.814L373.561,555.014C373.711,555.364 373.811,555.714 373.911,556.114C373.961,556.264 374.061,556.464 374.111,556.663C374.161,557.013 374.211,557.413 374.211,557.863L374.211,570.108L376.11,571.957C377.06,572.807 378.21,573.257 379.459,573.307C380.908,573.257 382.158,572.757 383.208,571.708L383.258,571.658C384.307,570.608 384.807,569.408 384.757,567.959C384.807,566.51 384.307,565.31 383.258,564.261L373.761,554.814Z" style="fill:rgb(181,119,57);fill-rule:nonzero;"/>
                <path d="M374.211,570.108L374.211,569.858L373.961,569.858C374.011,569.908 374.111,570.008 374.211,570.108Z" style="fill:rgb(77,95,109);fill-rule:nonzero;"/>
                <path d="M353.17,575.956C353.12,576.106 353.12,576.256 353.17,576.405C353.219,576.256 353.219,576.156 353.269,576.006C353.219,575.956 353.219,575.956 353.17,575.956Z" style="fill:rgb(77,95,109);fill-rule:nonzero;"/>
                <path d="M357.418,581.104L357.418,581.154L358.217,581.154C357.968,581.154 357.668,581.154 357.418,581.104Z" style="fill:rgb(58,150,173);fill-rule:nonzero;"/>
                <rect x="353.319" y="671.517" width="4.099" height="0.05" style="fill:rgb(58,150,173);fill-rule:nonzero;"/>
                <path d="M400.95,709.002L383.207,709.002L383.207,744.988C385.057,744.138 387.106,743.689 389.355,743.689C393.104,743.689 396.402,744.988 399.251,747.537C399.801,746.987 400.401,746.537 400.95,746.138L400.95,709.003L400.95,709.002Z" style="fill:rgb(181,119,57);fill-rule:nonzero;"/>
                <path d="M380.659,709.002L362.916,709.002L362.916,755.284L374.411,755.284C374.461,755.034 374.561,754.834 374.661,754.584C374.811,754.184 374.961,753.785 375.111,753.435C375.86,751.785 376.86,750.236 378.16,748.787C378.409,748.537 378.609,748.287 378.859,748.037C379.409,747.487 380.009,746.937 380.659,746.488L380.659,709.003L380.659,709.002Z" style="fill:rgb(206,153,101);fill-rule:nonzero;"/>
                <path d="M424.941,755.834C424.241,753.035 422.892,750.536 420.942,748.387C417.794,744.988 414.045,743.289 409.697,743.289C406.398,743.289 403.499,744.238 400.95,746.138C400.401,746.537 399.801,746.987 399.251,747.537C399.701,747.937 400.151,748.337 400.601,748.787C402.55,750.986 403.899,753.485 404.649,756.284C404.849,757.083 404.999,757.933 405.099,758.833L425.491,758.833C425.341,757.783 425.191,756.783 424.941,755.834Z" style="fill:rgb(81,81,81);fill-rule:nonzero;"/>
                <path d="M405.149,759.282C405.099,759.132 405.099,758.982 405.099,758.832L405.099,759.282L405.149,759.282Z" style="fill:rgb(153,102,153);fill-rule:nonzero;"/>
                <path d="M405.099,759.282L405.099,758.832C404.999,757.933 404.849,757.083 404.649,756.284C403.899,753.485 402.55,750.986 400.601,748.787C400.151,748.337 399.701,747.937 399.251,747.537C396.402,744.988 393.104,743.689 389.355,743.689C387.106,743.689 385.057,744.138 383.207,744.988C382.358,745.388 381.558,745.838 380.808,746.388C380.758,746.438 380.708,746.438 380.658,746.488C380.009,746.937 379.409,747.487 378.859,748.037C378.609,748.287 378.409,748.537 378.159,748.787C376.86,750.236 375.86,751.785 375.111,753.435C374.961,753.785 374.811,754.185 374.661,754.584C374.561,754.834 374.461,755.034 374.411,755.284L362.916,755.284L362.966,759.283L405.099,759.283L405.099,759.282Z" style="fill:rgb(115,115,117);fill-rule:nonzero;"/>
                <path d="M473.257,394.278L467.181,394.278C466.154,394.481 465.213,394.804 464.357,395.33C462.26,396.544 460.635,398.73 459.479,401.886L446.13,455.219C446.002,455.664 446.087,456.109 446.301,456.514C446.515,456.959 446.857,457.242 447.242,457.364C447.285,457.404 447.328,457.404 447.371,457.404L447.756,457.404C447.884,457.364 448.055,457.323 448.226,457.242C448.312,457.283 448.398,457.323 448.526,457.364C448.569,457.404 448.611,457.404 448.654,457.404L449.039,457.404C449.253,457.364 449.424,457.283 449.638,457.161C450.023,456.959 450.323,456.635 450.451,456.19L463.843,402.574C465.683,397.151 468.849,394.4 473.256,394.278L473.257,394.278Z" style="fill:rgb(115,115,117);fill-rule:nonzero;"/>
                <path d="M527.809,394.278L473.257,394.278C468.85,394.4 465.683,397.151 463.844,402.574L450.451,456.19C450.323,456.635 450.024,456.959 449.638,457.161C449.425,457.283 449.253,457.364 449.039,457.404L516.77,457.404C517.412,457.404 518.011,457.526 518.567,457.809C518.567,457.647 518.567,457.485 518.61,457.323L533.157,399.296C533.5,396.099 531.703,394.44 527.809,394.278ZM498.886,421.188C497.816,422.038 496.532,422.483 495.035,422.483C493.537,422.483 492.254,422.038 491.184,421.188C490.114,420.298 489.558,419.205 489.558,417.951C489.558,416.696 490.114,415.685 491.184,414.835C492.254,413.944 493.537,413.499 495.035,413.499C496.532,413.499 497.816,413.944 498.886,414.835C499.955,415.685 500.469,416.696 500.469,417.951C500.469,419.205 499.955,420.298 498.886,421.188Z" style="fill:rgb(36,35,77);fill-rule:nonzero;"/>
                <path d="M495.035,422.483C496.532,422.483 497.816,422.038 498.886,421.188C499.955,420.298 500.469,419.205 500.469,417.951C500.469,416.696 499.955,415.685 498.886,414.835C497.816,413.944 496.532,413.499 495.035,413.499C493.537,413.499 492.254,413.944 491.184,414.835C490.114,415.685 489.558,416.696 489.558,417.951C489.558,419.205 490.114,420.298 491.184,421.188C492.254,422.038 493.537,422.483 495.035,422.483Z" style="fill:rgb(204,204,204);fill-rule:nonzero;"/>
                <path d="M520.364,467.197C521.348,466.104 521.819,464.769 521.819,463.191L521.819,463.11C521.862,461.694 521.434,460.439 520.621,459.428C520.535,459.306 520.45,459.185 520.364,459.063C519.808,458.456 519.209,458.052 518.567,457.809C518.011,457.526 517.412,457.404 516.77,457.404L449.039,457.404L448.654,457.404L447.756,457.404L447.371,457.404L444.204,457.404C443.776,457.404 443.349,457.404 442.964,457.445C444.076,457.607 445.06,458.133 445.916,459.063C446.9,460.156 447.371,461.532 447.371,463.11L447.371,463.191C447.371,464.769 446.9,466.104 445.916,467.197C445.188,467.966 444.376,468.451 443.477,468.694L517.925,468.694C518.824,468.492 519.637,467.966 520.364,467.197Z" style="fill:rgb(22,15,66);fill-rule:nonzero;"/>
                <path d="M386.657,457.404C385.245,457.404 384.047,457.971 383.063,459.063C382.079,460.156 381.608,461.532 381.608,463.11L381.608,463.191C381.608,464.769 382.079,466.104 383.063,467.197C383.79,467.966 384.603,468.492 385.502,468.694L443.477,468.694C444.376,468.451 445.189,467.966 445.916,467.197C446.9,466.104 447.371,464.769 447.371,463.191L447.371,463.11C447.371,461.532 446.9,460.156 445.916,459.063C445.06,458.133 444.076,457.607 442.964,457.445C442.75,457.404 442.579,457.404 442.365,457.404C442.322,457.404 442.322,457.404 442.279,457.404L386.657,457.404Z" style="fill:rgb(115,115,117);fill-rule:nonzero;"/>
                <path d="M447.756,457.404L448.654,457.404C448.612,457.404 448.569,457.404 448.526,457.364C448.398,457.323 448.312,457.283 448.226,457.242C448.055,457.323 447.884,457.364 447.756,457.404Z" style="fill:rgb(36,35,77);fill-rule:nonzero;"/>
                <path d="M411.096,483.04L444.045,483.04L453.555,468.44L411.096,468.44L411.096,483.04Z" style="fill:rgb(206,153,101);fill-rule:nonzero;"/>
                <path d="M453.555,468.44L444.045,483.04L482.085,483.04C489.861,483.04 493.777,479.628 493.777,472.747L493.832,472.747C494.504,471.069 494.839,469.279 494.839,467.377C494.839,463.181 493.161,459.545 489.805,456.58C486.392,453.616 482.365,452.105 477.61,452.105C472.855,452.105 468.771,453.616 465.359,456.58C462.002,459.545 460.324,463.181 460.324,467.377L460.324,467.489C460.324,467.824 460.324,468.16 460.38,468.44L453.555,468.44Z" style="fill:rgb(227,186,142);fill-rule:nonzero;"/>
            </g>
        </g>
    </g>
</svg>
