<?xml version="1.0" encoding="UTF-8" standalone="no"?>
<!DOCTYPE svg PUBLIC "-//W3C//DTD SVG 1.1//EN" "http://www.w3.org/Graphics/SVG/1.1/DTD/svg11.dtd">
<svg width="100%" height="100%" viewBox="0 0 212 169" version="1.1" xmlns="http://www.w3.org/2000/svg" xmlns:xlink="http://www.w3.org/1999/xlink" xml:space="preserve" style="fill-rule:evenodd;clip-rule:evenodd;stroke-linejoin:round;stroke-miterlimit:1.41421;">
    <g transform="matrix(1,0,0,1,-730,-328)">
        <g transform="matrix(1,0,0,1,0,-162)">
            <g id="Ninja-Male-1-Laptop-Sitting" transform="matrix(1,0,0,1,248.187,348.721)">
                <path d="M610.961,198.785C612.068,197.934 612.834,196.828 613.089,195.381C613.344,193.934 613.004,192.657 612.238,191.55C611.387,190.359 610.28,189.678 608.833,189.422L583.127,185.166C583.382,188.486 583.297,191.976 582.872,195.551L607.131,199.637C608.578,199.892 609.854,199.552 610.961,198.786L610.961,198.785Z" style="fill:rgb(255,51,0);fill-rule:nonzero;"/>
                <path d="M547.717,141.926C546.526,141.755 545.504,142.011 544.568,142.692C543.717,143.288 543.206,144.054 542.951,144.99C544.398,145.075 545.845,145.331 547.292,145.586C548.569,145.841 549.845,146.097 551.122,146.437C551.207,145.416 551.037,144.479 550.441,143.713C549.76,142.777 548.824,142.181 547.717,141.926Z" style="fill:rgb(236,96,2);fill-rule:nonzero;"/>
                <path d="M551.122,146.437C549.845,146.097 548.569,145.841 547.292,145.586C545.845,145.331 544.398,145.075 542.951,144.99C532.821,144.224 523.373,147.118 514.776,153.502C511.967,155.63 509.584,157.928 507.456,160.397C502.349,166.185 498.944,173.079 497.327,181.166L498.689,181.421L509.158,183.209C507.796,182.953 506.69,182.272 505.924,181.166C505.158,179.974 504.902,178.697 505.158,177.25C505.413,175.803 506.094,174.697 507.2,173.931C507.881,173.42 508.648,173.079 509.414,172.994L509.499,172.824C510.265,168.313 512.478,164.653 516.223,161.844C516.479,161.673 516.734,161.503 516.989,161.333C521.16,158.524 525.927,157.503 531.119,158.439C536.226,159.29 540.312,161.759 543.376,165.759C543.547,166.015 543.717,166.27 543.972,166.525C546.611,170.356 547.547,174.526 546.781,179.038L583.127,185.166C582.701,180.825 581.765,176.569 580.148,172.569C578.871,169.504 577.254,166.525 575.296,163.716C569.167,154.779 561.081,148.991 551.122,146.437Z" style="fill:rgb(255,102,0);fill-rule:nonzero;"/>
                <path d="M546.696,179.208C546.611,179.123 546.526,179.038 546.441,178.953L511.116,173.079C510.52,172.994 509.924,172.909 509.414,172.994C508.647,173.079 507.881,173.42 507.2,173.931C506.094,174.697 505.413,175.803 505.158,177.25C504.902,178.697 505.158,179.974 505.924,181.166C506.69,182.272 507.796,182.953 509.158,183.209L544.738,189.167L546.696,179.208ZM508.733,176.91C508.903,176.825 509.073,176.74 509.243,176.74C509.499,176.654 509.754,176.569 510.095,176.654C510.52,176.74 510.946,176.91 511.201,177.335C511.456,177.761 511.542,178.187 511.456,178.612C511.371,179.038 511.116,179.463 510.776,179.719C510.435,179.889 510.095,179.974 509.754,179.974C509.669,179.974 509.499,179.974 509.414,179.974C508.988,179.889 508.648,179.634 508.392,179.293C508.137,178.868 508.052,178.442 508.137,178.016C508.222,177.591 508.392,177.165 508.733,176.91ZM518.692,181.506C518.266,181.421 517.84,181.251 517.585,180.825C517.33,180.4 517.245,180.059 517.33,179.634C517.415,179.123 517.585,178.697 518.011,178.442C518.436,178.187 518.862,178.102 519.373,178.187C519.798,178.272 520.139,178.442 520.394,178.868C520.649,179.293 520.734,179.719 520.649,180.145C520.564,180.57 520.394,180.996 519.968,181.251C519.543,181.506 519.117,181.592 518.692,181.506ZM527.799,182.528C527.544,182.187 527.459,181.762 527.544,181.336C527.629,180.825 527.799,180.4 528.225,180.144C528.651,179.889 529.076,179.804 529.502,179.889C529.927,179.974 530.353,180.229 530.608,180.57C530.864,180.996 530.949,181.421 530.864,181.847C530.779,182.272 530.523,182.698 530.183,182.953C529.757,183.209 529.332,183.379 528.906,183.294C528.48,183.209 528.055,182.953 527.799,182.528ZM538.184,184.826C537.673,184.741 537.333,184.485 537.077,184.145C536.822,183.719 536.737,183.294 536.822,182.868C536.907,182.357 537.077,181.932 537.418,181.677C537.843,181.421 538.269,181.421 538.78,181.506C539.205,181.591 539.631,181.762 539.886,182.187C540.142,182.528 540.227,182.953 540.142,183.464C540.057,183.89 539.886,184.23 539.461,184.486C539.035,184.741 538.609,184.911 538.184,184.826Z" style="fill:rgb(255,51,0);fill-rule:nonzero;"/>
                <path d="M509.243,176.74C509.073,176.74 508.903,176.825 508.733,176.91C508.392,177.165 508.222,177.591 508.137,178.016C508.052,178.442 508.137,178.868 508.392,179.293C508.648,179.634 508.988,179.889 509.414,179.974C509.499,179.974 509.669,179.974 509.754,179.974C510.095,179.974 510.435,179.889 510.776,179.719C511.116,179.463 511.371,179.038 511.456,178.612C511.542,178.187 511.456,177.761 511.201,177.335C510.946,176.91 510.52,176.74 510.095,176.655C509.754,176.569 509.499,176.655 509.243,176.74Z" style="fill:rgb(255,102,0);fill-rule:nonzero;"/>
                <path d="M517.585,180.825C517.84,181.251 518.266,181.421 518.692,181.506C519.117,181.591 519.543,181.506 519.968,181.251C520.394,180.996 520.564,180.57 520.649,180.144C520.734,179.719 520.649,179.293 520.394,178.868C520.139,178.442 519.798,178.272 519.373,178.187C518.862,178.102 518.436,178.187 518.011,178.442C517.585,178.698 517.415,179.123 517.33,179.634C517.245,180.059 517.33,180.4 517.585,180.826L517.585,180.825Z" style="fill:rgb(255,102,0);fill-rule:nonzero;"/>
                <path d="M527.544,181.336C527.459,181.762 527.544,182.187 527.799,182.528C528.055,182.953 528.48,183.209 528.906,183.294C529.332,183.379 529.757,183.209 530.183,182.953C530.523,182.698 530.779,182.272 530.864,181.847C530.949,181.421 530.864,180.996 530.608,180.57C530.353,180.23 529.927,179.974 529.502,179.889C529.076,179.804 528.651,179.889 528.225,180.144C527.799,180.4 527.629,180.825 527.544,181.336Z" style="fill:rgb(255,102,0);fill-rule:nonzero;"/>
                <path d="M537.077,184.145C537.333,184.485 537.673,184.741 538.184,184.826C538.609,184.911 539.035,184.741 539.461,184.485C539.886,184.23 540.056,183.89 540.142,183.464C540.227,182.953 540.142,182.528 539.886,182.187C539.631,181.762 539.205,181.591 538.78,181.506C538.269,181.421 537.843,181.421 537.418,181.677C537.077,181.932 536.907,182.358 536.822,182.868C536.737,183.294 536.822,183.719 537.077,184.145Z" style="fill:rgb(255,102,0);fill-rule:nonzero;"/>
                <path d="M546.441,178.953C546.526,179.038 546.611,179.123 546.696,179.208C546.696,179.123 546.696,179.123 546.781,179.038L546.441,178.953Z" style="fill:rgb(255,181,162);fill-rule:nonzero;"/>
                <path d="M546.441,178.953L546.781,179.038C547.547,174.526 546.611,170.356 543.972,166.525C543.717,166.27 543.547,166.015 543.376,165.759C540.312,161.759 536.226,159.29 531.119,158.439C525.927,157.503 521.16,158.524 516.989,161.333C516.734,161.503 516.479,161.673 516.223,161.844C512.478,164.653 510.265,168.313 509.499,172.824L509.414,172.994C509.924,172.909 510.52,172.994 511.116,173.079L546.441,178.953Z" style="fill:rgb(102,51,51);fill-rule:nonzero;"/>
                <path d="M546.781,179.038C546.696,179.123 546.696,179.123 546.696,179.208L544.738,189.167L557.336,191.21L568.061,193.083L581.425,195.381L582.872,195.551C583.297,191.976 583.382,188.486 583.127,185.166L546.781,179.038Z" style="fill:rgb(236,96,2);fill-rule:nonzero;"/>
                <path d="M509.158,183.209L498.689,181.421L496.986,191.635C496.475,191.465 495.965,191.295 495.369,191.21C492.305,190.699 489.496,191.38 486.942,193.168C484.388,194.955 482.856,197.424 482.346,200.573C482.261,200.743 482.261,200.914 482.261,201.084C481.92,203.893 482.601,206.532 484.303,208.915C485.24,210.277 486.346,211.383 487.623,212.149C488.815,212.83 490.177,213.341 491.624,213.596C492.219,213.682 492.73,213.682 493.326,213.767L492.815,216.746C492.645,217.512 492.56,218.363 492.475,219.129C491.368,228.833 493.667,237.77 499.455,245.857C500.05,246.623 500.646,247.304 501.242,248.07C501.668,248.496 502.008,249.006 502.434,249.432C503.2,250.368 504.051,251.219 504.902,251.985C505.498,252.581 506.094,253.092 506.775,253.603C507.03,253.858 507.286,254.028 507.541,254.284C508.052,254.709 508.562,255.05 509.158,255.475C509.839,255.901 510.52,256.327 511.286,256.752C512.223,257.348 513.329,257.944 514.436,258.455C514.521,258.54 514.691,258.625 514.946,258.71C517.926,260.072 521.245,261.008 524.735,261.604L530.693,262.625C531.63,262.796 532.566,262.881 533.502,262.966C533.758,262.966 534.013,262.966 534.268,263.051C536.311,263.221 538.354,263.221 540.312,263.136C540.908,263.051 541.504,262.966 542.099,262.881L542.185,262.881C542.525,262.881 542.865,262.881 543.206,262.796C543.972,262.626 544.823,262.455 545.674,262.285C546.27,262.2 546.781,262.03 547.377,261.859C547.973,261.689 548.654,261.519 549.249,261.349C552.058,260.412 554.697,259.136 557.336,257.518C558.102,257.008 558.953,256.497 559.719,255.901C562.443,253.943 564.826,251.815 566.869,249.432C571.38,244.24 574.274,237.941 575.551,230.621L578.786,211.128C576.062,210.022 573.764,208.405 571.891,206.106C571.636,205.681 571.295,205.34 571.04,205C570.189,203.723 569.508,202.446 568.997,201.084C568.571,199.893 568.231,198.616 568.146,197.254C567.976,196.062 567.891,194.871 567.976,193.594C567.976,193.424 567.976,193.253 568.061,193.083L566.358,202.872C564.911,202.446 563.635,201.85 562.528,201.084C561.421,200.318 560.4,199.297 559.549,198.19C558.953,197.339 558.527,196.488 558.187,195.552C557.676,194.36 557.421,193.168 557.336,191.892L557.336,191.806C557.251,191.636 557.251,191.466 557.336,191.211L544.738,189.168L509.158,183.209ZM535.205,206.191C534.949,205.85 534.864,205.51 534.864,205.169C534.779,204.829 534.779,204.488 534.864,204.148C534.949,203.893 535.035,203.722 535.12,203.552C535.29,203.127 535.545,202.871 535.971,202.701C536.567,202.275 537.163,202.105 537.929,202.19C538.61,202.36 539.12,202.786 539.546,203.382C539.971,203.978 540.057,204.659 539.886,205.425C539.801,206.021 539.376,206.531 538.78,206.872C538.184,207.297 537.503,207.468 536.822,207.297C536.056,207.212 535.545,206.787 535.205,206.191ZM513.159,214.362C513.925,212.234 515.031,210.277 516.564,208.404C516.904,207.978 517.245,207.638 517.67,207.297L554.101,237.345C553.761,237.77 553.42,238.196 553.08,238.621C551.548,240.494 549.845,242.026 547.973,243.218C544.993,245.005 541.674,246.027 537.843,246.282C536.482,246.367 535.205,246.282 533.928,246.197C529.076,245.772 524.65,243.984 520.649,240.664C517.159,237.855 514.776,234.536 513.329,230.705C513.244,230.45 513.159,230.195 513.074,229.939C512.478,228.322 512.137,226.705 511.967,225.002C511.712,222.96 511.627,221.002 511.882,219.129C512.137,217.512 512.563,215.895 513.159,214.362ZM497.071,201.084C497.327,201.765 497.412,202.446 497.327,203.212C497.071,204.318 496.475,205.255 495.539,205.936C494.518,206.702 493.411,206.957 492.305,206.702C491.113,206.531 490.177,205.936 489.411,204.914C488.73,203.978 488.474,202.871 488.73,201.765C488.73,201.509 488.815,201.339 488.9,201.084C489.155,200.233 489.666,199.552 490.432,198.956C491.368,198.275 492.475,198.019 493.667,198.19C494.858,198.445 495.794,199.041 496.475,199.977C496.731,200.318 496.901,200.658 497.071,201.084ZM545.845,204.659C545.93,204.574 546.1,204.574 546.27,204.488C547.036,204.063 547.802,203.893 548.739,204.063C549.675,204.233 550.441,204.744 551.037,205.51L551.122,205.595C551.718,206.361 551.973,207.297 551.803,208.404L550.697,214.618C550.526,215.554 550.016,216.405 549.164,217.001C548.313,217.597 547.377,217.767 546.441,217.682C545.419,217.427 544.568,216.916 543.972,216.15C543.376,215.299 543.121,214.362 543.376,213.426L544.398,207.127C544.568,206.106 545.079,205.255 545.845,204.659ZM556.485,206.616C557.08,206.191 557.676,206.106 558.442,206.191C559.123,206.446 559.634,206.872 560.06,207.468C560.485,208.064 560.57,208.659 560.485,209.425C560.315,210.106 559.889,210.617 559.294,211.043C558.698,211.383 558.017,211.468 557.336,211.213C556.655,211.128 556.144,210.787 555.719,210.192C555.378,209.596 555.293,209 555.463,208.234C555.548,207.553 555.889,207.042 556.485,206.617L556.485,206.616Z" style="fill:rgb(255,181,162);fill-rule:nonzero;"/>
                <path d="M534.864,205.169C534.864,205.51 534.949,205.85 535.205,206.191C535.545,206.787 536.056,207.212 536.822,207.297C537.503,207.468 538.184,207.297 538.78,206.872C539.376,206.531 539.801,206.021 539.886,205.425C540.057,204.659 539.971,203.978 539.546,203.382C539.12,202.786 538.61,202.361 537.929,202.19C537.163,202.105 536.567,202.275 535.971,202.701C535.545,202.871 535.29,203.127 535.12,203.552C535.035,203.722 534.949,203.893 534.864,204.148C534.779,204.489 534.779,204.829 534.864,205.17L534.864,205.169Z" style="fill-rule:nonzero;"/>
                <path d="M516.564,208.404C515.031,210.277 513.925,212.234 513.159,214.362L547.973,243.218C549.845,242.026 551.548,240.494 553.08,238.621C553.42,238.196 553.761,237.77 554.101,237.345L517.67,207.297C517.245,207.638 516.904,207.978 516.564,208.404Z" style="fill:white;fill-rule:nonzero;"/>
                <path d="M513.159,214.362C512.563,215.895 512.137,217.512 511.882,219.129C511.627,221.002 511.712,222.959 511.967,225.002C512.137,226.705 512.478,228.322 513.074,229.939C513.159,230.195 513.244,230.45 513.329,230.705C513.414,230.62 513.499,230.535 513.67,230.535C515.287,229.429 517.245,228.918 519.543,228.918C522.862,228.918 526.012,230.11 528.821,232.408C530.608,233.855 532.055,235.557 532.992,237.515C533.502,238.622 533.843,239.728 534.098,240.92C534.524,242.878 534.439,244.58 533.928,246.197C535.205,246.282 536.482,246.367 537.844,246.282C541.674,246.027 544.994,245.005 547.973,243.218L513.159,214.362Z" style="fill:rgb(175,74,62);fill-rule:nonzero;"/>
                <path d="M533.928,246.197C534.439,244.58 534.524,242.877 534.098,240.92C533.843,239.728 533.502,238.621 532.992,237.515C532.055,235.557 530.608,233.855 528.821,232.408C526.012,230.11 522.862,228.918 519.543,228.918C517.245,228.918 515.287,229.429 513.67,230.535C513.499,230.535 513.414,230.62 513.329,230.705C514.776,234.536 517.159,237.855 520.649,240.664C524.65,243.984 529.076,245.772 533.928,246.197Z" style="fill:rgb(227,121,96);fill-rule:nonzero;"/>
                <path d="M497.327,203.212C497.412,202.446 497.327,201.765 497.071,201.084C496.901,200.658 496.731,200.318 496.475,199.977C495.794,199.041 494.858,198.445 493.667,198.19C492.475,198.019 491.368,198.275 490.432,198.956C489.666,199.552 489.155,200.233 488.9,201.084C488.815,201.339 488.73,201.509 488.73,201.765C488.474,202.871 488.73,203.978 489.411,204.914C490.177,205.936 491.113,206.531 492.305,206.702C493.411,206.957 494.518,206.702 495.539,205.936C496.475,205.255 497.071,204.318 497.327,203.212Z" style="fill:rgb(255,157,138);fill-rule:nonzero;"/>
                <path d="M546.27,204.488C546.1,204.574 545.93,204.574 545.845,204.659C545.079,205.255 544.568,206.106 544.398,207.127L543.376,213.426C543.121,214.362 543.376,215.299 543.972,216.15C544.568,216.916 545.419,217.427 546.441,217.682C547.377,217.767 548.313,217.597 549.164,217.001C550.016,216.405 550.526,215.554 550.697,214.618L551.803,208.404C551.973,207.298 551.718,206.361 551.122,205.595L551.037,205.51C550.441,204.744 549.675,204.233 548.739,204.063C547.802,203.893 547.036,204.063 546.27,204.489L546.27,204.488Z" style="fill:rgb(231,140,118);fill-rule:nonzero;"/>
                <path d="M558.442,206.191C557.676,206.106 557.08,206.191 556.485,206.616C555.889,207.042 555.548,207.553 555.463,208.234C555.293,209 555.378,209.596 555.719,210.192C556.144,210.787 556.655,211.128 557.336,211.213C558.017,211.468 558.698,211.383 559.294,211.043C559.889,210.617 560.315,210.106 560.485,209.425C560.57,208.659 560.485,208.064 560.06,207.468C559.634,206.872 559.123,206.446 558.442,206.191Z" style="fill-rule:nonzero;"/>
                <path d="M506.775,253.602C506.094,253.092 505.498,252.581 504.902,251.985L502.604,252.241C502.604,252.326 502.604,252.326 502.604,252.411C502.689,256.752 504.221,260.838 507.03,264.498C509.414,267.562 512.308,269.775 515.627,271.222L514.01,283.99C513.755,285.522 514.18,286.884 515.117,288.161C515.542,288.757 516.053,289.182 516.649,289.608L521.075,290.119C521.756,289.949 522.352,289.608 522.948,289.182C524.224,288.246 524.905,286.969 525.161,285.437L526.778,272.754C530.438,272.329 533.928,270.797 537.077,268.328C539.12,266.711 540.823,264.923 542.185,262.881L542.099,262.881C541.504,262.966 540.908,263.051 540.312,263.136C538.354,263.221 536.311,263.221 534.268,263.051C533.928,263.306 533.587,263.562 533.332,263.817C531.545,265.264 529.587,266.2 527.544,266.626C525.756,267.051 523.969,267.137 522.096,266.881C519.968,266.626 518.096,265.945 516.393,265.009C514.691,264.072 513.244,262.71 511.967,261.093C510.605,259.306 509.669,257.433 509.158,255.475C508.562,255.05 508.052,254.709 507.541,254.284C507.286,254.028 507.03,253.858 506.775,253.603L506.775,253.602ZM518.096,281.096C518.777,280.67 519.543,280.5 520.394,280.585C521.16,280.67 521.841,281.011 522.352,281.607C522.862,282.288 523.033,283.054 522.948,283.99C522.862,284.756 522.437,285.437 521.841,285.863C521.16,286.459 520.394,286.629 519.628,286.544C518.777,286.459 518.096,286.033 517.585,285.352C517.074,284.756 516.904,283.99 516.989,283.224C517.074,282.373 517.415,281.692 518.096,281.096Z" style="fill:rgb(255,102,0);fill-rule:nonzero;"/>
                <path d="M520.394,280.585C519.543,280.5 518.777,280.67 518.096,281.096C517.415,281.692 517.074,282.373 516.989,283.224C516.904,283.99 517.074,284.756 517.585,285.352C518.096,286.033 518.777,286.459 519.628,286.544C520.394,286.629 521.16,286.459 521.841,285.863C522.437,285.437 522.862,284.756 522.948,283.99C523.033,283.054 522.862,282.288 522.352,281.607C521.841,281.011 521.16,280.67 520.394,280.585Z" style="fill:rgb(255,153,0);fill-rule:nonzero;"/>
                <path d="M501.157,252.751C497.156,254.028 493.581,256.156 490.347,259.135C484.899,264.327 482.175,270.456 482.175,277.691L482.175,285.012L497.071,285.012L497.071,301.525L589.341,301.525L589.341,300.418L562.273,300.418C562.188,300.248 562.188,300.078 562.273,299.907C562.188,299.822 562.188,299.652 562.273,299.567C562.358,295.056 563.975,291.14 567.125,287.991C567.891,287.225 568.657,286.629 569.423,286.118L555.719,286.118L555.378,277.691C555.378,271.478 553.335,266.03 549.25,261.348C548.654,261.519 547.973,261.689 547.377,261.859C546.781,262.029 546.27,262.2 545.675,262.285C544.823,262.455 543.972,262.625 543.206,262.796C542.866,262.881 542.525,262.881 542.185,262.881C540.823,264.924 539.12,266.711 537.077,268.328C533.928,270.797 530.438,272.329 526.778,272.755L525.161,285.437C524.905,286.969 524.224,288.246 522.948,289.183C522.352,289.608 521.756,289.949 521.075,290.119L516.649,289.608C516.053,289.183 515.542,288.757 515.117,288.161C514.18,286.884 513.755,285.522 514.01,283.99L515.627,271.222C512.308,269.775 509.414,267.562 507.03,264.498C504.221,260.838 502.689,256.752 502.604,252.411C502.093,252.496 501.583,252.666 501.157,252.752L501.157,252.751ZM543.802,284.416C545.589,285.182 547.292,286.373 548.909,287.991C552.143,291.14 553.761,295.056 553.846,299.567L553.846,300.418L520.224,300.418L520.224,299.567C520.309,295.056 522.011,291.14 525.161,287.991C527.459,285.693 530.608,284.075 534.439,283.139C534.864,283.054 535.715,283.054 537.077,283.139C539.461,283.054 541.674,283.48 543.802,284.416Z" style="fill:rgb(255,153,0);fill-rule:nonzero;"/>
                <path d="M548.909,287.991C547.292,286.373 545.589,285.182 543.802,284.416C541.674,283.479 539.461,283.054 537.077,283.139C535.715,283.054 534.864,283.054 534.439,283.139C530.608,284.075 527.459,285.693 525.161,287.991C522.011,291.14 520.309,295.056 520.224,299.567L520.224,300.418L553.846,300.418L553.846,299.567C553.761,295.056 552.144,291.14 548.909,287.991Z" style="fill:rgb(255,181,162);fill-rule:nonzero;"/>
                <path d="M516.393,265.008C518.096,265.945 519.968,266.626 522.096,266.881C523.969,267.136 525.757,267.051 527.544,266.626C529.587,266.2 531.545,265.264 533.332,263.817C533.588,263.561 533.928,263.306 534.268,263.051C534.013,262.966 533.758,262.966 533.502,262.966C532.566,262.88 531.63,262.795 530.693,262.625L524.735,261.604C521.245,261.008 517.925,260.072 514.946,258.71C514.691,258.625 514.521,258.539 514.436,258.454C513.329,257.944 512.222,257.348 511.286,256.752C510.52,256.326 509.839,255.901 509.158,255.475C509.669,257.433 510.605,259.306 511.967,261.093C513.244,262.71 514.691,264.072 516.393,265.009L516.393,265.008Z" style="fill:rgb(255,157,138);fill-rule:nonzero;"/>
                <path d="M580.488,201.084C580.744,199.126 581.084,197.253 581.425,195.381L568.061,193.083C567.976,193.253 567.976,193.423 567.976,193.593C567.891,194.87 567.976,196.062 568.146,197.253C568.231,198.615 568.572,199.892 568.997,201.084C569.508,202.446 570.189,203.723 571.04,204.999C571.295,205.34 571.636,205.68 571.891,206.106C573.764,208.404 576.062,210.021 578.786,211.128C579.382,207.808 579.893,204.404 580.488,201.084Z" style="fill:rgb(102,51,51);fill-rule:nonzero;"/>
                <path d="M566.359,202.871L568.061,193.083L557.336,191.21C557.251,191.465 557.251,191.636 557.336,191.806L557.336,191.891C557.421,193.168 557.676,194.359 558.187,195.551C558.528,196.487 558.953,197.339 559.549,198.19C560.4,199.296 561.422,200.318 562.528,201.084C563.635,201.85 564.911,202.446 566.359,202.871Z" style="fill:rgb(102,51,51);fill-rule:nonzero;"/>
                <path d="M590.873,287.991C590.362,287.48 589.851,286.969 589.341,286.544C589.085,286.373 588.915,286.203 588.66,286.118C586.787,284.756 584.744,283.905 582.616,283.479L578.445,283.139C575.041,283.224 572.062,284.16 569.423,286.118C568.657,286.629 567.891,287.225 567.125,287.991C563.975,291.14 562.358,295.056 562.273,299.567C562.188,299.652 562.188,299.822 562.273,299.908C562.188,300.078 562.188,300.248 562.273,300.418L595.81,300.418C595.81,300.248 595.81,300.078 595.895,299.908C595.895,299.822 595.895,299.652 595.895,299.567C595.81,295.056 594.107,291.14 590.873,287.991Z" style="fill:rgb(234,152,133);fill-rule:nonzero;"/>
                <path d="M589.341,309.866L589.341,301.525L497.071,301.525L497.071,285.012L482.175,285.012L482.175,309.951L589.341,309.866Z" style="fill:rgb(255,181,162);fill-rule:nonzero;"/>
                <path d="M618.032,211.202L610.414,211.202C609.126,211.47 607.946,211.899 606.873,212.597C604.244,214.206 602.205,217.103 600.756,221.288L584.017,292.001C583.856,292.592 583.963,293.182 584.231,293.718C584.499,294.308 584.929,294.684 585.412,294.845C585.465,294.899 585.519,294.899 585.572,294.899L586.055,294.899C586.216,294.845 586.431,294.791 586.645,294.684C586.753,294.738 586.86,294.791 587.021,294.845C587.075,294.899 587.128,294.899 587.182,294.899L587.665,294.899C587.933,294.845 588.148,294.738 588.416,294.577C588.899,294.308 589.274,293.879 589.435,293.289L606.228,222.2C608.535,215.011 612.506,211.362 618.032,211.201L618.032,211.202Z" style="fill:rgb(115,115,117);fill-rule:nonzero;"/>
                <path d="M686.439,211.202L618.032,211.202C612.506,211.363 608.536,215.011 606.229,222.2L589.436,293.289C589.275,293.879 588.899,294.309 588.416,294.577C588.148,294.738 587.933,294.845 587.665,294.899L672.596,294.899C673.401,294.899 674.152,295.06 674.85,295.435C674.85,295.221 674.85,295.006 674.903,294.791L693.145,217.854C693.574,213.616 691.321,211.416 686.438,211.202L686.439,211.202ZM650.17,246.88C648.828,248.007 647.219,248.597 645.341,248.597C643.463,248.597 641.854,248.007 640.512,246.88C639.171,245.7 638.474,244.251 638.474,242.588C638.474,240.925 639.171,239.584 640.512,238.457C641.854,237.276 643.463,236.686 645.341,236.686C647.219,236.686 648.828,237.276 650.17,238.457C651.511,239.583 652.155,240.925 652.155,242.588C652.155,244.251 651.511,245.7 650.17,246.88Z" style="fill:rgb(36,35,77);fill-rule:nonzero;"/>
                <path d="M645.341,248.597C647.219,248.597 648.828,248.007 650.17,246.88C651.511,245.7 652.155,244.251 652.155,242.588C652.155,240.925 651.511,239.584 650.17,238.457C648.828,237.276 647.219,236.686 645.341,236.686C643.463,236.686 641.854,237.276 640.512,238.457C639.171,239.583 638.474,240.925 638.474,242.588C638.474,244.251 639.171,245.7 640.512,246.88C641.854,248.007 643.463,248.597 645.341,248.597Z" style="fill:rgb(204,204,204);fill-rule:nonzero;"/>
                <path d="M677.103,307.883C678.337,306.434 678.927,304.663 678.927,302.571L678.927,302.464C678.981,300.586 678.444,298.923 677.425,297.581C677.318,297.42 677.21,297.259 677.103,297.099C676.405,296.294 675.654,295.757 674.85,295.435C674.152,295.06 673.401,294.899 672.596,294.899L587.665,294.899L587.182,294.899L586.055,294.899L585.573,294.899L581.602,294.899C581.066,294.899 580.529,294.899 580.046,294.952C581.441,295.167 582.675,295.865 583.748,297.099C584.982,298.547 585.572,300.371 585.572,302.464L585.572,302.571C585.572,304.663 584.982,306.434 583.748,307.883C582.836,308.902 581.817,309.546 580.69,309.868L674.045,309.868C675.171,309.599 676.191,308.902 677.103,307.883Z" style="fill:rgb(22,15,66);fill-rule:nonzero;"/>
                <path d="M509.44,294.899C507.67,294.899 506.168,295.65 504.934,297.099C503.7,298.547 503.109,300.371 503.109,302.464L503.109,302.571C503.109,304.663 503.7,306.434 504.934,307.883C505.846,308.902 506.865,309.599 507.992,309.868L580.69,309.868C581.817,309.546 582.836,308.902 583.748,307.883C584.982,306.434 585.573,304.663 585.573,302.571L585.572,302.464C585.572,300.371 584.982,298.547 583.748,297.099C582.675,295.865 581.441,295.167 580.046,294.952C579.778,294.899 579.563,294.899 579.295,294.899C579.242,294.899 579.242,294.899 579.188,294.899L509.44,294.899Z" style="fill:rgb(115,115,117);fill-rule:nonzero;"/>
                <path d="M586.056,294.899L587.182,294.899C587.129,294.899 587.075,294.899 587.021,294.845C586.86,294.791 586.753,294.738 586.646,294.684C586.431,294.791 586.216,294.845 586.055,294.899L586.056,294.899Z" style="fill:rgb(36,35,77);fill-rule:nonzero;"/>
            </g>
        </g>
    </g>
</svg>
