<?xml version="1.0" encoding="UTF-8" standalone="no"?>
<!DOCTYPE svg PUBLIC "-//W3C//DTD SVG 1.1//EN" "http://www.w3.org/Graphics/SVG/1.1/DTD/svg11.dtd">
<svg width="100%" height="100%" viewBox="0 0 129 396" version="1.1" xmlns="http://www.w3.org/2000/svg" xmlns:xlink="http://www.w3.org/1999/xlink" xml:space="preserve" style="fill-rule:evenodd;clip-rule:evenodd;stroke-linejoin:round;stroke-miterlimit:1.41421;">
    <g transform="matrix(1,0,0,1,-2804,-102)">
        <g transform="matrix(1,0,0,1,0,-162)">
            <g id="Ninja-Female-2" transform="matrix(1,0,0,1,2750.1,-98.537)">
                <path d="M160.297,387.531C157.948,382.933 154.549,378.685 150.101,374.836C140.655,366.689 129.309,362.591 115.964,362.591L115.914,362.591C104.619,362.591 94.723,365.54 86.226,371.438C84.677,372.487 83.178,373.587 81.728,374.836C72.332,383.033 67.634,392.929 67.634,404.524L67.634,413.171L67.684,413.171L67.784,433.763C69.133,432.963 70.583,432.463 72.132,432.213L72.132,426.566C74.531,426.816 76.73,426.816 78.779,426.666L81.628,426.216C88.475,424.766 92.774,420.468 94.523,413.271L94.523,427.016C100.87,427.465 106.368,427.265 110.966,426.516C125.86,424.067 135.157,413.571 138.855,395.078C139.855,409.323 147.002,419.769 160.297,426.366C160.347,426.416 160.397,426.416 160.447,426.466L160.397,426.516L160.397,430.614C162.246,430.864 163.895,431.514 165.395,432.563L165.395,418.969L164.295,418.969L164.295,404.525C164.245,400.076 163.545,395.928 162.196,391.98C161.646,390.43 161.046,388.981 160.297,387.531ZM94.523,369.938L94.573,369.888L95.173,369.588C94.873,369.738 94.673,369.888 94.523,369.938ZM91.824,413.471L91.774,413.471L91.824,413.471Z" style="fill:rgb(75,28,2);fill-rule:nonzero;"/>
                <path d="M164.295,418.968L165.395,418.969L165.395,432.563C165.795,432.813 166.194,433.113 166.544,433.463C166.794,433.663 166.994,433.863 167.244,434.063C169.643,436.462 170.842,439.36 170.842,442.759C170.842,446.158 169.643,449.057 167.244,451.506C166.994,451.706 166.794,451.905 166.544,452.105C164.745,453.655 162.696,454.554 160.347,454.904C160.347,455.604 160.347,456.304 160.297,457.003C160.197,458.453 159.997,459.902 159.697,461.302C158.947,464.8 157.598,468.099 155.599,471.148C155.249,471.698 154.849,472.247 154.499,472.797L154.499,474.447C154.449,478.595 154.799,482.443 155.599,485.942C155.898,487.391 156.298,488.741 156.748,490.09C157.098,491.09 157.448,492.09 157.898,493.039C158.597,494.589 159.397,496.038 160.297,497.387C164.945,504.585 172.492,509.533 182.888,512.182L182.888,423.067C182.888,417.919 181.088,413.571 177.49,409.922C173.841,406.274 169.443,404.475 164.295,404.525L164.295,418.969L164.295,418.968Z" style="fill:rgb(57,18,2);fill-rule:nonzero;"/>
                <path d="M160.447,426.465C160.397,426.416 160.347,426.416 160.297,426.366C147.002,419.768 139.855,409.322 138.855,395.078C135.157,413.571 125.86,424.067 110.966,426.516C106.368,427.265 100.87,427.465 94.523,427.015L94.523,413.271C92.774,420.468 88.475,424.766 81.628,426.216L78.779,426.666C76.73,426.816 74.531,426.816 72.132,426.566L72.132,456.554C72.182,458.153 72.332,459.752 72.632,461.302C73.881,467.749 77.33,473.497 83.028,478.545C83.078,478.545 83.078,478.545 83.128,478.595C83.477,478.845 83.827,479.145 84.177,479.445C84.677,479.894 85.227,480.294 85.777,480.694C86.026,480.894 86.326,481.094 86.676,481.344C89.275,483.193 92.074,484.742 95.023,485.992C96.372,486.542 97.822,487.042 99.321,487.491C100.471,487.841 101.62,488.091 102.82,488.341C103.07,488.391 103.32,488.491 103.569,488.541C104.819,488.791 106.118,488.941 107.468,489.091C109.317,489.291 111.216,489.391 113.166,489.391L119.563,489.391C123.112,489.341 126.46,489.041 129.709,488.391C130.359,488.241 131.008,488.091 131.658,487.941C132.308,487.791 133.008,487.592 133.657,487.442C133.707,487.442 133.707,487.442 133.757,487.442C134.757,487.092 135.757,486.742 136.756,486.392C137.056,486.292 137.356,486.192 137.656,486.042L137.656,485.842L137.706,485.842C137.906,485.742 138.106,485.642 138.356,485.592C140.705,484.493 143.004,483.193 145.153,481.694C146.003,481.094 146.802,480.495 147.602,479.845C150.351,477.596 152.65,475.247 154.499,472.798C154.849,472.248 155.249,471.698 155.599,471.148C157.598,468.1 158.947,464.801 159.697,461.302C159.997,459.903 160.197,458.453 160.297,457.004C160.347,456.304 160.347,455.605 160.347,454.905L160.347,453.605L160.347,430.615L160.397,430.615L160.397,426.516L160.447,426.466L160.447,426.465ZM135.657,436.861C136.056,436.861 136.406,437.011 136.756,437.311C137.056,437.661 137.206,438.011 137.256,438.461C137.206,438.861 137.056,439.21 136.756,439.51C136.406,439.86 136.056,440.01 135.657,440.06L127.21,440.06C126.76,440.01 126.41,439.86 126.11,439.51C125.761,439.21 125.561,438.861 125.611,438.461C125.561,438.011 125.761,437.661 126.11,437.311C126.41,437.011 126.76,436.861 127.21,436.861L135.657,436.861ZM104.519,436.861C104.969,436.861 105.369,437.011 105.719,437.311C105.968,437.661 106.118,438.011 106.118,438.461C106.118,438.861 105.968,439.21 105.719,439.51C105.369,439.86 104.969,440.01 104.519,440.06L96.172,440.06C95.723,440.01 95.323,439.86 95.023,439.51C94.673,439.21 94.523,438.861 94.523,438.461C94.523,438.011 94.673,437.661 95.023,437.311C95.323,437.011 95.723,436.861 96.172,436.861L104.519,436.861ZM115.715,435.962C116.664,435.912 117.464,436.262 118.164,436.911C118.813,437.561 119.113,438.361 119.063,439.31L119.063,445.108C119.113,446.058 118.813,446.857 118.164,447.507C117.464,448.157 116.664,448.457 115.715,448.507C114.765,448.457 114.015,448.157 113.365,447.507C112.666,446.857 112.316,446.058 112.316,445.108L112.316,439.31C112.316,438.361 112.666,437.561 113.365,436.911C114.015,436.262 114.765,435.912 115.715,435.962ZM100.521,461.302C98.322,458.653 97.022,455.604 96.622,452.255L133.308,452.255C132.858,455.604 131.558,458.653 129.409,461.302C128.959,461.801 128.509,462.301 128.06,462.801C124.411,466.4 120.063,468.199 114.965,468.249C110.317,468.199 106.268,466.699 102.82,463.651C102.47,463.351 102.17,463.051 101.92,462.801C101.42,462.301 100.97,461.801 100.521,461.302Z" style="fill:rgb(194,131,98);fill-rule:nonzero;"/>
                <path d="M136.756,437.311C136.406,437.011 136.056,436.861 135.657,436.861L127.21,436.861C126.76,436.861 126.41,437.011 126.11,437.311C125.761,437.661 125.561,438.011 125.611,438.461C125.561,438.861 125.761,439.21 126.11,439.51C126.41,439.86 126.76,440.01 127.21,440.06L135.657,440.06C136.056,440.01 136.406,439.86 136.756,439.51C137.056,439.211 137.206,438.861 137.256,438.461C137.206,438.011 137.056,437.661 136.756,437.311Z" style="fill:rgb(75,28,2);fill-rule:nonzero;"/>
                <path d="M105.719,437.311C105.369,437.011 104.969,436.861 104.519,436.861L96.172,436.861C95.723,436.861 95.323,437.011 95.023,437.311C94.673,437.661 94.523,438.011 94.523,438.461C94.523,438.861 94.673,439.21 95.023,439.51C95.323,439.86 95.723,440.01 96.172,440.06L104.519,440.06C104.969,440.01 105.369,439.86 105.719,439.51C105.969,439.211 106.118,438.861 106.118,438.461C106.118,438.011 105.969,437.661 105.719,437.311Z" style="fill:rgb(75,28,2);fill-rule:nonzero;"/>
                <path d="M118.164,436.911C117.464,436.262 116.664,435.912 115.715,435.962C114.765,435.912 114.015,436.262 113.365,436.911C112.666,437.561 112.316,438.361 112.316,439.31L112.316,445.108C112.316,446.058 112.666,446.857 113.365,447.507C114.015,448.157 114.765,448.457 115.715,448.507C116.664,448.457 117.464,448.157 118.164,447.507C118.813,446.857 119.113,446.058 119.063,445.108L119.063,439.31C119.113,438.361 118.813,437.561 118.164,436.911Z" style="fill:rgb(140,80,55);fill-rule:nonzero;"/>
                <path d="M96.622,452.255C97.022,455.604 98.322,458.653 100.521,461.302C100.97,461.801 101.42,462.301 101.92,462.801C102.17,463.051 102.47,463.351 102.82,463.651C106.268,466.699 110.317,468.199 114.965,468.249C120.063,468.199 124.411,466.4 128.06,462.801C128.509,462.301 128.959,461.801 129.409,461.302C131.558,458.653 132.858,455.604 133.308,452.255L96.622,452.255Z" style="fill:white;fill-rule:nonzero;"/>
                <path d="M160.397,430.614L160.347,430.614L160.347,454.904C162.696,454.554 164.745,453.655 166.544,452.105C166.794,451.905 166.994,451.705 167.244,451.506C169.643,449.057 170.842,446.158 170.842,442.759C170.842,439.36 169.643,436.462 167.244,434.063C166.994,433.863 166.794,433.663 166.544,433.463C166.194,433.113 165.795,432.813 165.395,432.563C163.895,431.514 162.246,430.864 160.397,430.614Z" style="fill:rgb(140,80,55);fill-rule:nonzero;"/>
                <path d="M160.347,453.605L160.347,454.904L160.347,453.605Z" style="fill:rgb(75,28,2);fill-rule:nonzero;"/>
                <path d="M136.756,486.391C135.757,486.741 134.757,487.091 133.757,487.441L133.757,487.741L133.657,487.441C133.008,487.591 132.308,487.791 131.658,487.941C131.008,488.091 130.359,488.241 129.709,488.391L129.709,524.077C131.009,521.927 132.358,520.528 133.807,519.978C136.306,518.979 139.005,520.378 141.904,524.176L141.904,501.136C141.904,500.736 141.904,500.336 141.854,499.936C141.804,498.987 141.704,498.037 141.554,497.137C141.155,494.588 140.355,492.239 139.205,490.09C138.506,488.791 137.706,487.541 136.756,486.392L136.756,486.391ZM133.757,501.485L133.807,502.085L133.807,505.484L133.757,505.484L133.757,502.085L133.757,501.486L133.757,501.485Z" style="fill:rgb(31,88,48);fill-rule:nonzero;"/>
                <path d="M133.807,502.085L133.757,501.485L133.757,502.085L133.807,502.085Z" style="fill:rgb(75,28,2);fill-rule:nonzero;"/>
                <rect x="133.757" y="502.085" width="0.05" height="3.399" style="fill:rgb(44,130,69);fill-rule:nonzero;"/>
                <path d="M133.657,487.441L133.757,487.741L133.757,487.441C133.707,487.441 133.707,487.441 133.657,487.441Z" style="fill:rgb(140,80,55);fill-rule:nonzero;"/>
                <path d="M149.501,505.634C148.351,503.685 146.952,501.885 145.303,500.236C145.203,500.086 145.103,499.986 145.003,499.936C143.853,498.887 142.704,497.937 141.554,497.137C141.704,498.037 141.804,498.987 141.854,499.936C141.904,500.336 141.904,500.736 141.904,501.136L141.904,524.176C139.005,520.378 136.306,518.979 133.807,519.978C132.358,520.528 131.008,521.927 129.709,524.077L129.709,613.741L152.9,613.741L152.9,607.493C152.8,607.493 152.7,607.493 152.65,607.543L152.65,590.3C152.7,590.25 152.8,590.25 152.85,590.2L152.85,542.719L152.8,542.719L152.8,542.519C152.75,542.419 152.65,542.319 152.6,542.219L152.5,542.219L152.5,520.028C152.45,518.779 152.35,517.579 152.15,516.43C152.35,516.58 152.55,516.78 152.75,516.929C152.5,512.781 151.45,509.033 149.501,505.634ZM147.902,570.458L147.902,569.958L148.002,570.458L147.902,570.458ZM130.159,546.817C130.159,546.717 130.159,546.667 130.159,546.617L130.309,546.717C130.259,546.767 130.209,546.767 130.159,546.817Z" style="fill:rgb(44,130,69);fill-rule:nonzero;"/>
                <path d="M147.902,569.958L147.902,570.458L148.002,570.458L147.902,569.958Z" style="fill:rgb(255,189,145);fill-rule:nonzero;"/>
                <path d="M152.15,516.429C152.35,517.579 152.45,518.779 152.5,520.028L152.5,542.219L152.6,542.219C152.65,542.319 152.75,542.419 152.8,542.519C156.448,548.767 159.297,556.014 161.346,564.26C163.395,572.507 163.046,579.154 160.197,584.152C159.847,584.602 159.497,585.052 159.147,585.502C157.498,587.351 155.399,588.901 152.85,590.2C152.8,590.25 152.7,590.25 152.65,590.3L152.65,607.543C152.7,607.493 152.8,607.493 152.9,607.493C154.749,606.893 156.498,606.244 158.148,605.544C159.597,604.894 161.046,604.195 162.396,603.445C163.695,602.695 164.895,601.945 166.044,601.096C169.193,598.747 171.742,595.948 173.641,592.799C174.091,592.099 174.541,591.4 174.991,590.65C179.339,582.803 179.939,572.757 176.84,560.412C176.29,558.063 175.641,555.864 174.991,553.715C171.842,543.569 167.594,534.872 162.296,527.525C161.346,526.276 160.397,525.126 159.447,523.977C159.397,523.827 159.297,523.727 159.247,523.677C157.598,521.728 155.899,519.878 154.099,518.129C153.649,517.679 153.2,517.279 152.75,516.93C152.55,516.78 152.35,516.58 152.15,516.43L152.15,516.429Z" style="fill:rgb(31,88,48);fill-rule:nonzero;"/>
                <path d="M148.401,633.533C148.451,633.283 148.501,633.083 148.551,632.833L148.551,613.741L129.709,613.741L129.709,606.294L102.82,606.294L102.82,613.741L83.427,613.741L83.427,632.833C83.477,633.083 83.527,633.283 83.577,633.533C83.877,635.282 84.527,636.831 85.577,638.231C85.926,638.731 86.376,639.231 86.826,639.68C89.225,642.029 92.074,643.229 95.423,643.229L99.671,643.229L99.671,693.259L112.916,693.259L112.916,643.229L120.663,643.229L120.663,693.259L133.857,693.259L133.857,643.229L136.556,643.229C139.855,643.229 142.654,642.029 145.003,639.68C146.802,637.931 147.952,635.882 148.401,633.533Z" style="fill:rgb(42,34,75);fill-rule:nonzero;"/>
                <path d="M131.608,702.405L136.056,702.405L136.056,693.259L133.857,693.259L120.663,693.259L118.264,693.259L118.264,702.405L131.608,702.405Z" style="fill:rgb(167,156,209);fill-rule:nonzero;"/>
                <path d="M166.644,758.483C166.494,757.433 166.294,756.383 166.044,755.384C165.944,754.934 165.844,754.534 165.745,754.084L120.213,754.084L120.213,758.483L166.644,758.483Z" style="fill:rgb(255,102,0);fill-rule:nonzero;"/>
                <path d="M165.745,754.084C164.895,751.435 163.495,749.086 161.596,746.987C161.146,746.487 160.747,746.038 160.297,745.588C157.148,742.739 153.449,741.34 149.251,741.34C144.803,741.34 140.954,742.939 137.706,746.188L131.608,746.188L122.662,746.188L120.213,746.188L120.213,754.084L165.745,754.084Z" style="fill:rgb(42,34,75);fill-rule:nonzero;"/>
                <rect x="122.662" y="702.405" width="8.946" height="43.783" style="fill:rgb(194,131,98);fill-rule:nonzero;"/>
                <path d="M67.784,433.763C67.134,434.112 66.534,434.562 65.984,435.062C65.735,435.262 65.535,435.462 65.335,435.712C62.886,438.061 61.686,440.96 61.686,444.408C61.686,447.807 62.886,450.706 65.285,453.105C65.485,453.305 65.735,453.505 65.984,453.755C67.734,455.304 69.783,456.204 72.132,456.554L72.132,432.213C70.583,432.463 69.133,432.963 67.784,433.763Z" style="fill:rgb(140,80,55);fill-rule:nonzero;"/>
                <path d="M89.625,501.136C89.575,500.936 89.575,500.736 89.625,500.586C89.125,500.986 88.625,501.386 88.176,501.835C84.277,505.784 81.928,510.332 81.078,515.53L81.128,515.58C81.078,515.78 81.028,515.98 80.978,516.18C80.928,516.43 80.878,516.68 80.829,516.929C80.579,518.079 80.479,519.328 80.479,520.578L80.479,542.719L80.379,542.719L80.329,590.85L80.329,613.741L102.82,613.741L102.82,606.294L102.82,547.617L102.82,543.169L102.82,524.477C101.67,523.127 100.571,522.078 99.471,521.428C96.172,519.429 92.874,520.428 89.625,524.477L89.625,501.136Z" style="fill:rgb(44,130,69);fill-rule:nonzero;"/>
                <path d="M89.625,500.586C89.575,500.736 89.575,500.936 89.625,501.136L89.625,524.476C92.874,520.428 96.172,519.428 99.471,521.428C100.571,522.077 101.67,523.127 102.82,524.476L102.82,511.731L102.82,488.341C101.62,488.091 100.471,487.841 99.321,487.491C97.822,487.041 96.372,486.542 95.023,485.992C93.923,487.241 92.974,488.641 92.224,490.09C90.625,493.039 89.775,496.338 89.625,499.936C89.625,500.136 89.625,500.336 89.625,500.586Z" style="fill:rgb(31,88,48);fill-rule:nonzero;"/>
                <path d="M80.479,520.578C80.479,519.328 80.579,518.079 80.829,516.929C80.179,517.479 79.529,518.029 78.879,518.629C77.08,520.378 75.381,522.227 73.731,524.176C73.681,524.276 73.581,524.376 73.531,524.476C72.532,525.626 71.582,526.825 70.733,528.075C65.385,535.422 61.136,544.119 57.988,554.214C57.338,556.364 56.688,558.613 56.138,560.912C52.99,573.257 53.639,583.353 57.988,591.15C58.388,591.899 58.837,592.649 59.337,593.349C61.237,596.498 63.785,599.247 66.934,601.596C68.084,602.445 69.283,603.245 70.583,603.995C71.932,604.744 73.332,605.444 74.831,606.094C76.58,606.844 78.38,607.493 80.329,608.093C80.329,602.345 80.329,596.598 80.329,590.85C77.68,589.501 75.481,587.901 73.832,586.052C73.482,585.602 73.132,585.152 72.782,584.703C69.933,579.705 69.533,573.057 71.632,564.76C73.682,556.364 76.63,549.017 80.379,542.719L80.479,542.719L80.479,520.578Z" style="fill:rgb(31,88,48);fill-rule:nonzero;"/>
                <path d="M129.709,511.881L129.709,488.391C126.46,489.04 123.112,489.34 119.563,489.39L113.166,489.39C111.216,489.39 109.317,489.29 107.468,489.09C106.118,488.941 104.819,488.791 103.569,488.541C103.32,488.491 103.07,488.391 102.82,488.341L102.82,511.731C103.17,512.081 103.569,512.481 104.019,512.831C107.418,515.58 111.516,516.929 116.314,516.929C121.112,516.929 125.211,515.58 128.659,512.831C129.009,512.481 129.359,512.181 129.709,511.881Z" style="fill:rgb(140,80,55);fill-rule:nonzero;"/>
                <path d="M128.659,512.831C125.211,515.58 121.112,516.929 116.314,516.929C111.516,516.929 107.418,515.58 104.019,512.831C103.569,512.481 103.17,512.081 102.82,511.731L102.82,543.169C102.97,543.719 103.12,544.219 103.27,544.768C103.369,545.118 103.469,545.468 103.569,545.868C103.819,546.668 104.019,547.467 104.269,548.267C103.769,548.067 103.27,547.867 102.82,547.617L102.82,606.294L129.709,606.294L129.709,524.077L129.709,511.882C129.359,512.181 129.009,512.481 128.659,512.831Z" style="fill:white;fill-rule:nonzero;"/>
                <path d="M110.866,702.405L115.215,702.405L115.215,693.259L112.916,693.259L99.671,693.259L97.422,693.259L97.422,702.405L110.867,702.405L110.866,702.405Z" style="fill:rgb(167,156,209);fill-rule:nonzero;"/>
                <rect x="101.92" y="702.405" width="8.946" height="43.783" style="fill:rgb(194,131,98);fill-rule:nonzero;"/>
                <path d="M113.316,758.483L113.316,754.084L67.784,754.084C67.634,754.534 67.484,755.034 67.384,755.484C67.134,756.433 66.984,757.433 66.934,758.483L113.316,758.483Z" style="fill:rgb(255,102,0);fill-rule:nonzero;"/>
                <path d="M113.316,754.084L113.316,746.188L110.866,746.188L101.92,746.188L95.823,746.188C92.574,742.939 88.725,741.34 84.277,741.34C79.429,741.34 75.331,743.239 71.932,746.987C69.983,749.086 68.633,751.435 67.784,754.084L113.316,754.084Z" style="fill:rgb(42,34,75);fill-rule:nonzero;"/>
            </g>
        </g>
    </g>
</svg>
