<?xml version="1.0" encoding="UTF-8" standalone="no"?>
<!DOCTYPE svg PUBLIC "-//W3C//DTD SVG 1.1//EN" "http://www.w3.org/Graphics/SVG/1.1/DTD/svg11.dtd">
<svg width="100%" height="100%" viewBox="0 0 233 284" version="1.1" xmlns="http://www.w3.org/2000/svg" xmlns:xlink="http://www.w3.org/1999/xlink" xml:space="preserve" style="fill-rule:evenodd;clip-rule:evenodd;stroke-linejoin:round;stroke-miterlimit:1.41421;">
    <g transform="matrix(1,0,0,1,-2021,-158)">
        <g transform="matrix(1,0,0,1,0,-162)">
            <g id="Ninja-Male-2-Laptop" transform="matrix(1,0,0,1,1551.22,-154.683)">
                <path d="M672.342,480.294C671.792,479.994 671.192,479.694 670.642,479.444C663.345,476.046 655.199,474.546 646.252,474.946C645.802,474.946 645.403,474.946 644.953,474.996C644.553,475.046 644.153,475.046 643.803,475.096C639.155,475.246 634.757,475.896 630.659,477.045C628.36,477.695 626.16,478.495 624.011,479.444C623.561,479.644 623.162,479.844 622.712,480.044C618.563,482.093 614.715,484.692 611.216,487.941C602.42,495.988 598.272,505.534 598.721,516.48L598.721,541.87L599.371,541.87C599.421,541.82 599.521,541.82 599.621,541.87L598.871,541.87C600.121,541.87 600.97,541.87 601.42,541.87C601.57,541.87 601.67,541.87 601.82,541.92C601.87,541.92 601.97,541.92 602.02,541.92C602.52,541.97 603.02,542.069 603.569,542.219C604.119,542.369 604.669,542.569 605.219,542.819C606.818,543.469 608.318,544.469 609.667,545.818C609.767,545.918 609.867,546.018 609.967,546.068L609.967,546.118L637.856,507.433L635.907,533.423C645.753,530.274 653.899,524.627 660.297,516.58C661.296,515.28 662.246,513.931 663.196,512.581L678.29,535.023C678.34,534.973 678.44,534.873 678.539,534.823C681.338,532.474 683.787,529.875 685.887,527.126C686.336,526.476 686.836,525.776 687.286,525.077C687.336,525.027 687.336,524.927 687.386,524.877C687.936,524.027 688.435,523.227 688.935,522.378C694.883,512.831 694.883,503.585 688.935,494.739C688.435,493.989 687.936,493.289 687.386,492.59C686.886,491.94 686.386,491.34 685.886,490.74C684.087,488.741 682.038,486.842 679.739,485.093C679.339,484.743 678.939,484.443 678.539,484.143C677.24,483.193 675.89,482.344 674.541,481.544C673.791,481.094 673.092,480.644 672.342,480.295L672.342,480.294ZM599.721,541.869C599.771,541.819 599.821,541.819 599.871,541.819L600.321,541.819L599.721,541.869Z" style="fill:rgb(117,76,36);fill-rule:nonzero;"/>
                <path d="M599.871,541.819C599.821,541.819 599.771,541.819 599.721,541.869L600.321,541.819L599.871,541.819Z" style="fill:rgb(248,156,118);fill-rule:nonzero;"/>
                <path d="M687.386,524.876C687.336,524.926 687.336,525.026 687.286,525.076C686.836,525.776 686.336,526.476 685.886,527.125C683.787,529.874 681.338,532.473 678.539,534.822C678.439,534.872 678.339,534.972 678.289,535.022L663.195,512.581C662.246,513.931 661.296,515.28 660.297,516.58C653.899,524.626 645.753,530.274 635.906,533.423L637.856,507.433L609.967,546.118L609.967,546.068C609.867,546.018 609.767,545.918 609.667,545.818C608.317,544.469 606.818,543.469 605.219,542.819C604.669,542.569 604.119,542.369 603.569,542.219C603.02,542.07 602.52,541.97 602.02,541.92C601.97,541.92 601.87,541.92 601.82,541.92C601.67,541.87 601.57,541.87 601.42,541.87L598.721,541.87C595.373,542.12 592.524,543.419 590.075,545.818C589.975,545.918 589.875,546.018 589.825,546.068C587.476,548.517 586.226,551.416 586.076,554.765L593.623,554.765C593.823,553.915 594.223,553.115 594.873,552.466C595.822,551.416 597.072,550.866 598.571,550.816C600.021,550.766 601.27,551.216 602.32,552.166C603.069,552.915 603.619,553.765 603.869,554.765L687.536,554.765L687.036,537.222C687.286,537.172 687.486,537.172 687.736,537.122L687.786,537.122L687.386,524.877L687.386,524.876ZM644.903,546.967C644.853,547.317 644.703,547.667 644.403,547.917C644.153,548.217 643.803,548.367 643.453,548.367L636.106,548.367C635.757,548.367 635.407,548.217 635.157,547.917C634.857,547.667 634.707,547.317 634.707,546.967C634.707,546.618 634.857,546.268 635.157,545.968C635.407,545.718 635.757,545.568 636.106,545.568L643.453,545.568C643.803,545.568 644.153,545.718 644.403,545.968C644.703,546.268 644.853,546.618 644.903,546.967ZM656.898,546.967C656.948,546.617 657.098,546.268 657.348,545.968C657.648,545.718 657.998,545.568 658.397,545.568L665.694,545.568C666.044,545.568 666.394,545.718 666.644,545.968C666.944,546.268 667.094,546.618 667.094,546.967C667.094,547.317 666.944,547.667 666.644,547.917C666.394,548.217 666.044,548.367 665.694,548.367L658.397,548.367C657.998,548.367 657.648,548.217 657.348,547.917C657.098,547.667 656.948,547.317 656.898,546.967ZM669.143,551.116L669.143,551.166C669.093,551.016 669.093,550.916 669.193,550.866C669.193,550.916 669.193,551.016 669.143,551.116Z" style="fill:rgb(248,156,118);fill-rule:nonzero;"/>
                <path d="M603.869,554.764C603.919,555.014 603.919,555.264 603.969,555.514C603.969,555.614 603.969,555.714 603.969,555.864C604.019,557.313 603.569,558.563 602.62,559.612C601.67,560.662 600.421,561.212 598.971,561.262C597.522,561.312 596.222,560.862 595.173,559.912C595.023,559.812 594.923,559.712 594.873,559.612C594.023,558.663 593.573,557.563 593.523,556.264C593.473,555.714 593.523,555.214 593.623,554.764L586.076,554.764C586.026,555.064 586.026,555.364 586.026,555.664C586.026,559.412 587.276,562.611 589.825,565.26C589.875,565.26 589.875,565.26 589.925,565.31C589.975,565.36 590.025,565.41 590.075,565.46C592.774,568.159 596.022,569.508 599.871,569.508C601.37,569.508 602.82,569.309 604.169,568.909C604.419,570.258 604.769,571.608 605.219,572.907C605.469,573.757 605.718,574.556 606.068,575.356C606.118,575.406 606.118,575.506 606.168,575.556C606.218,575.606 606.218,575.606 606.218,575.656C607.268,578.355 608.667,580.904 610.317,583.353C611.066,584.453 611.916,585.552 612.816,586.602C613.965,587.951 615.215,589.301 616.564,590.6C618.513,592.449 620.563,594.099 622.712,595.498C624.261,596.448 625.81,597.347 627.41,598.147C627.86,598.397 628.309,598.597 628.809,598.797C629.459,599.097 630.159,599.397 630.908,599.647C631.408,599.846 631.908,600.046 632.458,600.196L634.407,600.696L637.956,601.546C639.155,601.746 640.405,601.896 641.654,602.046L649.101,602.046C651.95,601.846 654.649,601.396 657.298,600.746C658.447,600.396 659.547,600.047 660.697,599.647C661.346,599.397 661.946,599.147 662.596,598.897C663.595,598.447 664.595,597.947 665.595,597.448C665.695,597.398 665.795,597.398 665.845,597.348C668.094,596.098 670.293,594.649 672.342,592.949C673.092,592.3 673.791,591.65 674.541,591C674.741,590.8 674.941,590.6 675.091,590.45C675.641,589.901 676.24,589.351 676.79,588.801C677.39,588.151 677.99,587.452 678.539,586.802C679.789,585.303 680.938,583.753 681.988,582.204C683.088,580.454 684.037,578.655 684.887,576.806C684.937,576.756 684.987,576.656 685.037,576.606C685.337,575.906 685.637,575.207 685.886,574.507C686.236,573.457 686.586,572.358 686.886,571.258C687.536,568.809 688.036,566.26 688.286,563.611L687.786,563.511L687.536,554.765L603.869,554.765L603.869,554.764ZM635.906,574.006C634.557,572.657 633.457,571.208 632.608,569.658C632.458,569.408 632.358,569.208 632.258,569.008C632.208,568.959 632.208,568.909 632.208,568.859C631.158,566.659 630.559,564.26 630.459,561.711L667.444,561.711C667.394,563.961 666.944,566.11 666.094,568.109C665.894,568.509 665.695,568.909 665.495,569.308C665.445,569.408 665.395,569.508 665.345,569.658C664.495,571.208 663.395,572.657 662.046,574.007C661.396,574.606 660.797,575.156 660.147,575.656C659.697,576.006 659.197,576.356 658.697,576.706C655.849,578.455 652.65,579.354 649.101,579.404C649.051,579.404 649.051,579.404 649.001,579.404C646.352,579.405 643.903,578.905 641.654,577.955C640.805,577.605 640.005,577.155 639.255,576.706C638.755,576.356 638.306,576.006 637.856,575.656C637.206,575.156 636.556,574.607 635.907,574.007L635.906,574.006Z" style="fill:rgb(248,156,118);fill-rule:nonzero;"/>
                <path d="M603.969,555.864C603.969,555.714 603.969,555.614 603.969,555.514C603.819,554.164 603.269,553.065 602.32,552.165C601.27,551.216 600.021,550.766 598.571,550.816C597.072,550.866 595.822,551.416 594.873,552.465C593.923,553.515 593.473,554.814 593.523,556.264C593.573,557.563 594.023,558.663 594.873,559.612C594.923,559.712 595.023,559.812 595.173,559.912C596.222,560.862 597.522,561.312 598.971,561.262C600.421,561.212 601.67,560.662 602.62,559.612C603.569,558.563 604.019,557.313 603.969,555.864Z" style="fill:rgb(217,115,72);fill-rule:nonzero;"/>
                <path d="M656.898,546.967C656.948,547.317 657.098,547.667 657.348,547.917C657.648,548.217 657.998,548.367 658.397,548.367L665.694,548.367C666.044,548.367 666.394,548.217 666.644,547.917C666.944,547.667 667.094,547.317 667.094,546.967C667.094,546.618 666.944,546.268 666.644,545.968C666.394,545.718 666.044,545.568 665.694,545.568L658.397,545.568C657.998,545.568 657.648,545.718 657.348,545.968C657.098,546.268 656.948,546.618 656.898,546.967Z" style="fill:rgb(75,28,2);fill-rule:nonzero;"/>
                <path d="M665.345,569.658C665.395,569.508 665.445,569.408 665.495,569.308C665.694,568.909 665.894,568.509 666.094,568.109C666.944,566.11 667.394,563.961 667.444,561.711L630.459,561.711C630.558,564.26 631.158,566.659 632.208,568.859C632.208,568.909 632.208,568.959 632.258,569.008C632.358,569.208 632.458,569.408 632.608,569.658L665.345,569.658Z" style="fill:white;fill-rule:nonzero;"/>
                <path d="M658.697,576.705C659.197,576.356 659.697,576.006 660.147,575.656C660.796,575.156 661.396,574.606 662.046,574.006C663.395,572.657 664.495,571.208 665.345,569.658L632.608,569.658C633.457,571.208 634.557,572.657 635.906,574.006C636.556,574.606 637.206,575.156 637.856,575.656C638.305,576.006 638.755,576.356 639.255,576.705C640.005,577.155 640.804,577.605 641.654,577.955C643.903,578.905 646.352,579.404 649.001,579.404C649.051,579.404 649.051,579.404 649.101,579.404C652.65,579.354 655.848,578.455 658.697,576.705Z" style="fill:rgb(204,51,0);fill-rule:nonzero;"/>
                <path d="M644.403,545.968C644.153,545.718 643.803,545.568 643.453,545.568L636.106,545.568C635.757,545.568 635.407,545.718 635.157,545.968C634.857,546.268 634.707,546.617 634.707,546.967C634.707,547.317 634.857,547.667 635.157,547.917C635.407,548.217 635.757,548.367 636.106,548.367L643.453,548.367C643.803,548.367 644.153,548.217 644.403,547.917C644.703,547.667 644.853,547.317 644.903,546.967C644.853,546.618 644.703,546.268 644.403,545.968Z" style="fill:rgb(75,28,2);fill-rule:nonzero;"/>
                <path d="M598.871,541.869L599.621,541.869C599.521,541.819 599.421,541.819 599.371,541.869L598.871,541.869Z" style="fill:rgb(248,156,118);fill-rule:nonzero;"/>
                <path d="M608.667,592.249C608.667,598.697 610.966,604.144 615.515,608.693C617.364,610.542 619.313,611.991 621.462,613.091C617.114,618.139 615.065,624.136 615.315,630.984L617.364,683.513C617.364,684.762 617.414,685.962 617.564,687.161L676.34,687.161C676.54,687.161 676.74,687.161 676.94,687.211C677.04,686.312 677.09,685.412 677.14,684.462L677.14,683.513L677.14,674.316L677.14,634.033C677.59,634.782 678.09,635.482 678.539,636.232C684.787,646.178 688.235,654.374 688.835,660.822C689.035,666.32 686.636,670.268 681.688,672.717L684.887,681.264C688.235,679.914 690.984,678.165 693.084,676.016C693.283,675.766 693.483,675.566 693.683,675.316C696.982,671.468 698.331,666.37 697.732,660.122C697.482,655.874 696.132,650.926 693.683,645.378C693.483,644.928 693.283,644.428 693.084,643.979C691.584,640.78 689.735,637.381 687.586,633.733C686.136,631.334 684.487,628.835 682.738,626.236C681.388,624.287 679.989,622.337 678.539,620.288C676.89,618.039 675.191,615.79 673.341,613.441C673.191,613.291 673.092,613.191 672.992,613.041C672.842,612.791 672.692,612.591 672.542,612.391C674.241,611.392 675.84,610.142 677.29,608.693C677.74,608.243 678.139,607.843 678.539,607.393C682.288,603.095 684.137,598.047 684.137,592.249L684.137,592.2C684.137,588.551 683.437,585.252 681.988,582.204C680.938,583.753 679.789,585.302 678.539,586.802C677.99,587.451 677.39,588.151 676.79,588.801C676.24,589.351 675.64,589.9 675.091,590.45C675.141,590.9 675.141,591.35 675.191,591.8C675.141,595.948 673.691,599.497 670.742,602.445C669.393,603.745 667.994,604.744 666.444,605.494C664.495,606.394 662.396,606.844 660.047,606.844L657.298,606.844L634.407,606.844L631.608,606.844C630.009,606.844 628.509,606.644 627.16,606.244C624.811,605.544 622.762,604.295 620.912,602.445C617.964,599.497 616.464,595.948 616.514,591.8C616.514,591.35 616.514,590.95 616.564,590.6C615.215,589.301 613.965,587.951 612.816,586.602C611.916,585.552 611.066,584.453 610.317,583.353C609.217,586.052 608.667,589.001 608.667,592.2L608.667,592.25L608.667,592.249ZM649.301,612.941C649.301,612.591 649.401,612.341 649.651,612.091C649.901,611.891 650.151,611.791 650.451,611.791C650.7,611.791 650.95,611.891 651.2,612.091C651.45,612.341 651.55,612.591 651.55,612.941L651.55,639.13C651.55,639.28 651.55,639.38 651.5,639.48C651.55,639.48 651.55,639.48 651.6,639.48C651.85,639.58 652.05,639.73 652.3,639.93C652.75,640.38 652.95,640.88 653,641.53C653.05,642.079 652.9,642.529 652.55,642.979C652.5,643.029 652.5,643.029 652.45,643.079C652,643.529 651.5,643.729 650.9,643.779C650.301,643.829 649.751,643.629 649.301,643.229C649.201,643.129 649.151,643.029 649.101,642.979C648.801,642.629 648.651,642.179 648.651,641.68C648.602,641.08 648.751,640.58 649.151,640.13C649.251,639.98 649.351,639.88 649.501,639.83C649.351,639.58 649.301,639.381 649.301,639.131L649.301,612.941ZM642.904,612.941C642.854,612.591 642.954,612.341 643.203,612.091C643.453,611.891 643.703,611.791 644.003,611.791C644.253,611.791 644.503,611.891 644.753,612.091C645.003,612.341 645.103,612.591 645.103,612.941L645.103,639.13C645.103,639.33 645.053,639.53 644.953,639.68C645.103,639.73 645.203,639.83 645.353,639.93C645.802,640.38 646.002,640.88 646.052,641.53C646.052,642.079 645.902,642.529 645.553,642.979C645.503,643.029 645.503,643.029 645.453,643.079C645.003,643.529 644.503,643.729 643.903,643.779C643.453,643.829 643.103,643.729 642.754,643.529C642.604,643.429 642.454,643.329 642.304,643.229C642.204,643.129 642.154,643.029 642.104,642.979C641.854,642.679 641.704,642.329 641.654,641.979C641.604,641.88 641.604,641.78 641.604,641.68C641.604,641.53 641.604,641.33 641.654,641.18C641.704,640.78 641.904,640.43 642.204,640.13C642.354,639.88 642.554,639.73 642.754,639.63C642.804,639.581 642.854,639.581 642.904,639.581L642.954,639.481C642.904,639.381 642.854,639.281 642.904,639.131L642.904,612.941ZM657.548,651.026C661.046,651.026 664.045,652.775 666.594,656.274C669.093,659.772 670.343,663.97 670.343,668.868L670.343,670.618L625.061,670.618L625.061,668.869C625.061,665.32 625.71,662.171 627.01,659.422C627.51,658.323 628.11,657.273 628.809,656.274C631.358,652.775 634.357,651.026 637.906,651.026L657.548,651.026Z" style="fill:rgb(0,147,213);fill-rule:nonzero;"/>
                <path d="M649.651,612.091C649.401,612.341 649.301,612.591 649.301,612.941L649.301,639.13C649.301,639.38 649.351,639.58 649.501,639.83C649.651,639.68 649.751,639.63 649.901,639.58C650.151,639.43 650.451,639.38 650.75,639.43C651,639.38 651.25,639.43 651.5,639.48C651.55,639.38 651.55,639.28 651.55,639.13L651.55,612.941C651.55,612.591 651.45,612.341 651.2,612.091C650.95,611.891 650.701,611.791 650.451,611.791C650.151,611.792 649.901,611.891 649.651,612.091Z" style="fill:white;fill-rule:nonzero;"/>
                <path d="M651.6,639.48C651.55,639.48 651.55,639.48 651.5,639.48C651.25,639.43 651,639.38 650.75,639.43C650.451,639.38 650.151,639.43 649.901,639.58C649.751,639.63 649.651,639.68 649.501,639.83C649.351,639.88 649.251,639.98 649.151,640.13C648.751,640.58 648.601,641.08 648.651,641.679C648.651,642.179 648.801,642.629 649.101,642.979C649.151,643.029 649.201,643.129 649.301,643.229C649.751,643.629 650.301,643.829 650.9,643.779C651.5,643.729 652,643.529 652.45,643.079C652.5,643.029 652.5,643.029 652.55,642.979C652.9,642.529 653.05,642.079 653,641.53C652.95,640.88 652.75,640.38 652.3,639.93C652.05,639.73 651.85,639.58 651.6,639.48Z" style="fill:rgb(1,78,109);fill-rule:nonzero;"/>
                <path d="M643.203,612.091C642.954,612.341 642.854,612.591 642.904,612.941L642.904,639.13C642.854,639.28 642.904,639.38 642.954,639.48C643.203,639.43 643.453,639.38 643.753,639.43C644.103,639.38 644.403,639.38 644.703,639.48C644.753,639.53 644.853,639.63 644.953,639.68C645.053,639.53 645.103,639.33 645.103,639.13L645.103,612.941C645.103,612.591 645.003,612.341 644.753,612.091C644.503,611.891 644.253,611.791 644.003,611.791C643.703,611.792 643.453,611.891 643.204,612.091L643.203,612.091Z" style="fill:white;fill-rule:nonzero;"/>
                <path d="M642.954,639.48L642.904,639.58C642.854,639.58 642.804,639.58 642.754,639.63C642.554,639.73 642.354,639.88 642.204,640.13C641.904,640.43 641.704,640.78 641.654,641.18C641.604,641.33 641.604,641.529 641.604,641.679C641.604,641.779 641.604,641.879 641.654,641.979C641.704,642.329 641.854,642.679 642.104,642.979C642.154,643.029 642.204,643.129 642.304,643.229C642.454,643.329 642.604,643.429 642.754,643.529C643.104,643.729 643.454,643.829 643.903,643.779C644.503,643.729 645.003,643.529 645.453,643.079C645.503,643.029 645.503,643.029 645.553,642.979C645.903,642.529 646.052,642.079 646.052,641.53C646.003,640.88 645.803,640.38 645.353,639.93C645.203,639.83 645.103,639.73 644.953,639.68C644.853,639.63 644.753,639.53 644.703,639.48C644.403,639.381 644.103,639.381 643.753,639.431C643.454,639.381 643.204,639.431 642.954,639.481L642.954,639.48Z" style="fill:rgb(1,78,109);fill-rule:nonzero;"/>
                <path d="M666.594,656.274C664.045,652.775 661.046,651.026 657.548,651.026L637.906,651.026C634.357,651.026 631.358,652.775 628.809,656.274C628.11,657.273 627.51,658.323 627.01,659.422C625.71,662.171 625.061,665.32 625.061,668.869L625.061,670.618L670.343,670.618L670.343,668.869C670.343,663.97 669.093,659.772 666.594,656.274Z" style="fill:rgb(1,119,169);fill-rule:nonzero;"/>
                <path d="M615.814,687.611C615.515,687.761 615.265,687.961 615.015,688.211C614.315,688.861 613.965,689.71 613.965,690.66L613.965,690.71C613.965,691.659 614.315,692.509 615.015,693.209C615.665,693.859 616.514,694.208 617.464,694.258L676.34,694.258C677.19,694.208 677.89,693.959 678.539,693.459C678.639,693.359 678.739,693.259 678.839,693.209C679.489,692.509 679.789,691.66 679.789,690.71L679.789,690.66C679.789,689.71 679.489,688.861 678.839,688.211C678.739,688.111 678.639,688.011 678.539,687.961C678.19,687.661 677.84,687.461 677.44,687.361C677.34,687.311 677.24,687.311 677.14,687.261C677.09,687.211 676.99,687.211 676.94,687.211C676.74,687.161 676.54,687.161 676.34,687.161L617.564,687.161L617.464,687.161C616.814,687.161 616.264,687.311 615.815,687.611L615.814,687.611Z" style="fill:rgb(1,119,169);fill-rule:nonzero;"/>
                <path d="M699.531,542.969C698.981,542.169 698.331,541.42 697.582,540.72C697.282,540.42 696.982,540.12 696.632,539.87C695.682,539.17 694.733,538.621 693.683,538.171C693.483,538.071 693.283,537.971 693.084,537.921C691.634,537.371 690.085,537.121 688.485,537.121L687.786,537.121L687.736,537.121C687.486,537.171 687.286,537.171 687.036,537.221L687.786,563.511L688.935,563.511C690.385,563.461 691.784,563.261 693.084,562.811C693.283,562.711 693.483,562.611 693.683,562.561C695.333,561.862 696.832,560.812 698.181,559.363C698.681,558.813 699.131,558.213 699.531,557.613C701.08,555.364 701.83,552.815 701.78,549.966C701.68,547.367 700.93,545.018 699.531,542.969Z" style="fill:rgb(217,115,72);fill-rule:nonzero;"/>
                <path d="M649.101,602.045C649.051,602.045 649.051,602.045 649.001,602.045L641.654,602.045C640.405,601.895 639.155,601.745 637.956,601.545L634.407,600.696L634.407,606.843L657.298,606.843L657.298,600.746C654.649,601.396 651.95,601.845 649.101,602.045Z" style="fill:rgb(217,115,72);fill-rule:nonzero;"/>
                <path d="M616.564,590.6C616.514,590.95 616.514,591.35 616.514,591.799C616.464,595.948 617.964,599.496 620.912,602.445C622.762,604.294 624.811,605.544 627.16,606.244C628.509,606.643 630.009,606.843 631.608,606.843L634.407,606.843L634.407,600.696L632.458,600.196C631.908,600.046 631.408,599.846 630.908,599.646C630.159,599.396 629.459,599.097 628.809,598.797C628.31,598.597 627.86,598.397 627.41,598.147C625.811,597.347 624.261,596.448 622.712,595.498C620.563,594.099 618.513,592.449 616.564,590.6Z" style="fill:rgb(1,78,109);fill-rule:nonzero;"/>
                <path d="M675.091,590.45C674.941,590.6 674.741,590.8 674.541,591C673.791,591.649 673.092,592.299 672.342,592.949C670.293,594.648 668.093,596.098 665.844,597.347C665.794,597.397 665.694,597.397 665.594,597.447C664.595,597.947 663.595,598.447 662.596,598.897C661.946,599.146 661.346,599.396 660.696,599.646C659.547,600.046 658.447,600.396 657.298,600.746L657.298,606.843L660.047,606.843C662.396,606.843 664.495,606.394 666.444,605.494C667.993,604.744 669.393,603.745 670.742,602.445C673.691,599.496 675.141,595.948 675.191,591.799C675.141,591.35 675.141,590.9 675.091,590.45Z" style="fill:rgb(1,78,109);fill-rule:nonzero;"/>
                <path d="M678.539,673.916C678.09,674.066 677.59,674.166 677.14,674.316L677.14,683.513C677.59,683.413 678.09,683.313 678.539,683.213C680.888,682.663 682.988,682.013 684.887,681.264L681.688,672.717C680.738,673.167 679.689,673.567 678.539,673.916Z" style="fill:rgb(1,119,169);fill-rule:nonzero;"/>
                <path d="M645.153,703.805L650.8,703.805L650.8,743.539L660.347,743.539L660.347,703.805L662.346,703.805C664.695,703.755 666.744,702.905 668.443,701.206C670.193,699.506 671.042,697.457 671.092,695.058C671.042,694.758 671.042,694.508 671.042,694.258L623.811,694.258C623.761,694.508 623.761,694.758 623.761,695.058C623.761,697.457 624.611,699.506 626.31,701.206C628.009,702.905 630.059,703.755 632.458,703.805L635.606,703.805L635.606,743.539L645.153,743.539L645.153,703.805Z" style="fill:rgb(42,34,75);fill-rule:nonzero;"/>
                <path d="M684.087,758.483C684.037,757.833 683.887,757.183 683.737,756.533C683.188,754.134 682.138,751.985 680.489,750.136C679.839,749.486 679.189,748.886 678.539,748.387C676.49,746.887 674.191,746.138 671.592,746.088C671.542,746.088 671.492,746.088 671.442,746.088C668.244,746.088 665.495,747.237 663.146,749.586C662.946,749.736 662.746,749.936 662.596,750.136C661.546,751.286 660.697,752.585 660.097,753.935C659.897,754.384 659.747,754.834 659.597,755.334L650.501,755.334L650.501,758.483L684.087,758.483Z" style="fill:rgb(129,130,134);fill-rule:nonzero;"/>
                <path d="M659.597,755.334C659.747,754.834 659.897,754.384 660.097,753.934C660.696,752.585 661.546,751.286 662.596,750.136C662.746,749.936 662.946,749.736 663.145,749.586L658.697,749.586L652.25,749.586L650.501,749.586L650.501,755.334L659.597,755.334Z" style="fill:rgb(0,23,54);fill-rule:nonzero;"/>
                <rect x="652.25" y="743.539" width="6.447" height="6.047" style="fill:rgb(248,156,118);fill-rule:nonzero;"/>
                <rect x="637.206" y="743.539" width="6.447" height="6.047" style="fill:rgb(248,156,118);fill-rule:nonzero;"/>
                <path d="M643.653,749.586L637.206,749.586L632.808,749.586C632.958,749.736 633.158,749.936 633.307,750.136C634.357,751.286 635.157,752.485 635.806,753.834C636.006,754.284 636.206,754.784 636.356,755.334L645.453,755.334L645.453,749.586L643.653,749.586Z" style="fill:rgb(0,23,54);fill-rule:nonzero;"/>
                <path d="M645.453,755.334L636.356,755.334C636.206,754.784 636.006,754.284 635.806,753.835C635.157,752.485 634.357,751.286 633.307,750.136C633.158,749.936 632.958,749.736 632.808,749.586C630.459,747.237 627.66,746.088 624.461,746.088C620.962,746.088 617.964,747.437 615.515,750.136C613.965,751.885 612.866,753.835 612.316,756.084C612.116,756.833 611.966,757.633 611.866,758.483L645.453,758.483L645.453,755.334Z" style="fill:rgb(129,130,134);fill-rule:nonzero;"/>
                <path d="M542.637,554.064L550.007,554.064C551.252,554.31 552.394,554.702 553.432,555.341C555.975,556.813 557.947,559.463 559.348,563.292L575.54,627.979C575.695,628.519 575.591,629.059 575.332,629.55C575.072,630.09 574.657,630.433 574.19,630.581C574.138,630.63 574.086,630.63 574.034,630.63L573.567,630.63C573.412,630.581 573.204,630.532 572.997,630.433C572.893,630.483 572.789,630.532 572.633,630.581C572.581,630.63 572.529,630.63 572.478,630.63L572.011,630.63C571.751,630.581 571.543,630.483 571.284,630.335C570.817,630.09 570.454,629.697 570.298,629.157L554.054,564.126C551.823,557.549 547.982,554.212 542.637,554.065L542.637,554.064Z" style="fill:rgb(115,115,117);fill-rule:nonzero;"/>
                <path d="M476.47,554.064L542.637,554.064C547.983,554.212 551.823,557.549 554.055,564.126L570.298,629.157C570.454,629.697 570.817,630.09 571.284,630.335C571.543,630.483 571.751,630.581 572.011,630.63L489.859,630.63C489.08,630.63 488.354,630.777 487.679,631.121C487.679,630.924 487.679,630.728 487.627,630.532L469.982,560.15C469.567,556.273 471.747,554.261 476.469,554.064L476.47,554.064ZM511.552,586.703C512.849,587.734 514.406,588.273 516.222,588.273C518.039,588.273 519.596,587.734 520.893,586.703C522.19,585.623 522.865,584.298 522.865,582.776C522.865,581.255 522.19,580.028 520.893,578.997C519.596,577.917 518.039,577.378 516.222,577.378C514.406,577.378 512.849,577.917 511.552,578.997C510.254,580.028 509.631,581.255 509.631,582.776C509.631,584.298 510.254,585.623 511.552,586.703Z" style="fill:rgb(36,35,77);fill-rule:nonzero;"/>
                <path d="M516.222,588.273C514.406,588.273 512.849,587.734 511.552,586.703C510.254,585.623 509.631,584.298 509.631,582.776C509.631,581.255 510.254,580.028 511.552,578.997C512.849,577.917 514.406,577.378 516.222,577.378C518.039,577.378 519.595,577.917 520.893,578.997C522.19,580.028 522.865,581.255 522.865,582.776C522.865,584.298 522.19,585.623 520.893,586.703C519.595,587.734 518.038,588.273 516.222,588.273Z" style="fill:rgb(204,204,204);fill-rule:nonzero;"/>
                <path d="M485.5,642.507C484.306,641.182 483.735,639.562 483.735,637.648L483.735,637.55C483.683,635.832 484.202,634.311 485.188,633.084C485.292,632.937 485.396,632.789 485.5,632.642C486.174,631.906 486.901,631.415 487.679,631.121C488.354,630.777 489.081,630.63 489.859,630.63L577.875,630.63C578.394,630.63 578.913,630.63 579.38,630.679C578.031,630.875 576.837,631.513 575.799,632.642C574.605,633.967 574.034,635.636 574.034,637.55L574.034,637.648C574.034,639.563 574.605,641.182 575.799,642.507C576.681,643.44 577.667,644.029 578.757,644.323L488.458,644.323C487.368,644.078 486.382,643.44 485.499,642.507L485.5,642.507Z" style="fill:rgb(22,15,66);fill-rule:nonzero;"/>
                <path d="M647.675,630.63C649.388,630.63 650.841,631.317 652.035,632.642C653.228,633.967 653.799,635.636 653.799,637.55L653.799,637.648C653.799,639.562 653.228,641.182 652.035,642.507C651.152,643.44 650.166,644.078 649.077,644.323L578.757,644.323C577.667,644.029 576.681,643.44 575.799,642.507C574.605,641.182 574.034,639.562 574.034,637.648L574.034,637.55C574.034,635.636 574.605,633.967 575.799,632.642C576.837,631.513 578.03,630.875 579.38,630.679C579.639,630.63 579.847,630.63 580.106,630.63L647.675,630.63Z" style="fill:rgb(115,115,117);fill-rule:nonzero;"/>
                <path d="M573.568,630.63L572.478,630.63C572.53,630.63 572.582,630.63 572.634,630.581C572.789,630.532 572.893,630.483 572.997,630.433C573.204,630.532 573.412,630.581 573.568,630.63Z" style="fill:rgb(36,35,77);fill-rule:nonzero;"/>
                <path d="M552.191,634.86C554.925,632.461 558.216,631.234 562.066,631.234C565.971,631.234 569.263,632.461 571.996,634.86C574.73,637.259 576.125,640.216 576.125,643.619L576.125,643.73C576.125,644.009 576.125,644.233 576.069,644.512L581.592,644.512L589.291,656.339L558.439,656.339C552.135,656.283 548.955,653.494 548.955,647.97C548.397,646.576 548.118,645.125 548.118,643.619C548.118,640.216 549.457,637.259 552.191,634.86Z" style="fill:rgb(248,156,118);fill-rule:nonzero;"/>
                <path d="M589.291,656.339L581.592,644.512L616.014,644.512L616.014,656.339L589.291,656.339Z" style="fill:rgb(217,115,72);fill-rule:nonzero;"/>
            </g>
        </g>
    </g>
</svg>
