<?xml version="1.0" encoding="UTF-8" standalone="no"?>
<!DOCTYPE svg PUBLIC "-//W3C//DTD SVG 1.1//EN" "http://www.w3.org/Graphics/SVG/1.1/DTD/svg11.dtd">
<svg width="100%" height="100%" viewBox="0 0 154 394" version="1.1" xmlns="http://www.w3.org/2000/svg" xmlns:xlink="http://www.w3.org/1999/xlink" xml:space="preserve" style="fill-rule:evenodd;clip-rule:evenodd;stroke-linejoin:round;stroke-miterlimit:1.41421;">
    <g transform="matrix(1,0,0,1,-31,-103)">
        <g transform="matrix(1,0,0,1,0,-162)">
            <g id="Ninja-Male-1" transform="matrix(1,0,0,1,-339.411,-99.3615)">
                <path d="M489.415,404.824C488.215,400.176 486.366,395.878 483.917,391.829C482.018,388.781 479.769,385.882 477.12,383.133C468.873,374.536 459.177,369.788 447.932,368.839C446.482,368.689 445.033,368.639 443.583,368.689C441.934,368.639 440.335,368.689 438.785,368.839C427.69,369.888 418.094,374.636 409.947,383.133C407.348,385.882 405.099,388.781 403.249,391.829C398.801,399.027 396.402,407.123 396.102,416.12L409.347,416.12C407.798,416.07 406.498,415.52 405.449,414.47C404.349,413.371 403.799,412.021 403.849,410.472C403.799,408.873 404.349,407.523 405.449,406.474C406.098,405.824 406.898,405.324 407.748,405.074L407.748,404.874C407.748,399.826 409.497,395.478 413.046,391.83C413.246,391.58 413.495,391.33 413.745,391.08C417.794,387.331 422.692,385.432 428.439,385.432C434.137,385.432 438.985,387.331 443.034,391.08C443.284,391.33 443.533,391.58 443.783,391.83C447.332,395.478 449.081,399.776 449.081,404.824L489.415,404.824Z" style="fill:rgb(255,102,0);fill-rule:nonzero;"/>
                <path d="M464.375,420.668C464.925,421.517 465.575,422.367 466.374,423.117C468.673,425.416 471.422,426.715 474.571,427.065L474.571,416.12L462.626,416.12C462.676,416.32 462.726,416.52 462.776,416.719C462.726,416.769 462.726,416.769 462.776,416.819C463.076,418.169 463.625,419.468 464.375,420.668Z" style="fill:rgb(102,51,51);fill-rule:nonzero;"/>
                <path d="M466.374,423.117C465.575,422.367 464.925,421.517 464.375,420.668C463.625,419.468 463.076,418.169 462.776,416.819C462.726,416.769 462.726,416.769 462.776,416.719C462.726,416.52 462.676,416.32 462.626,416.12L448.781,416.12L409.347,416.12L397.652,416.12L397.652,455.304C397.652,464.101 400.001,471.947 404.649,478.845C406.198,481.144 408.048,483.343 410.147,485.442C410.896,486.192 411.696,486.891 412.446,487.591C416.244,490.94 420.393,493.439 424.891,495.138C426.09,495.588 427.29,496.038 428.539,496.388C428.739,496.438 428.939,496.488 429.139,496.538C432.688,497.437 436.386,497.887 440.285,497.887L446.882,497.887C451.23,497.887 455.329,497.337 459.227,496.188C459.627,496.088 460.027,495.988 460.427,495.838C461.926,495.338 463.375,494.738 464.825,494.089C468.323,492.439 471.622,490.29 474.721,487.591C475.471,486.892 476.27,486.192 477.02,485.442C483.168,479.195 487.066,472.048 488.665,463.951C489.215,461.202 489.465,458.303 489.465,455.304L489.465,449.507L489.465,433.663C486.366,433.013 483.567,431.614 481.118,429.465C480.719,429.115 480.369,428.815 480.019,428.465C477.87,426.316 476.32,423.717 475.421,420.668C475.071,419.419 474.771,418.119 474.621,416.72C474.571,416.52 474.571,416.32 474.571,416.12L474.571,427.066C471.422,426.716 468.673,425.416 466.374,423.117ZM455.928,428.515C456.728,428.565 457.378,428.915 457.928,429.514C458.477,430.064 458.727,430.764 458.727,431.613C458.677,432.363 458.377,432.963 457.778,433.513C457.178,434.063 456.478,434.262 455.678,434.212C454.879,434.213 454.229,433.913 453.779,433.313C453.229,432.763 452.98,432.063 453.03,431.214C453.08,430.464 453.379,429.864 453.929,429.364C454.479,428.815 455.179,428.515 455.928,428.515ZM469.973,449.906C469.973,452.505 469.573,454.954 468.823,457.253C468.024,459.652 466.824,461.901 465.225,463.951C464.375,465 463.425,466.05 462.376,466.999C461.326,467.999 460.227,468.899 459.077,469.698C454.729,472.647 449.731,474.146 444.083,474.146C439.235,474.146 434.837,473.097 430.938,470.948C429.089,469.898 427.39,468.549 425.74,466.999C424.691,466.05 423.791,465 422.942,463.951C421.342,461.901 420.143,459.652 419.393,457.253C418.593,454.954 418.193,452.505 418.193,449.906C418.193,449.307 418.193,448.707 418.243,448.157L469.973,448.157C469.973,448.707 469.973,449.307 469.973,449.906ZM430.139,430.614C430.189,429.864 430.489,429.214 431.038,428.715C431.588,428.165 432.288,427.915 433.038,427.965C433.837,428.015 434.487,428.315 435.037,428.915C435.587,429.464 435.836,430.164 435.836,431.014C435.786,431.763 435.437,432.363 434.837,432.813C434.287,433.363 433.587,433.663 432.788,433.613C432.038,433.563 431.388,433.263 430.888,432.663C430.339,432.113 430.089,431.414 430.139,430.614ZM445.083,428.015C446.182,427.965 447.132,428.365 447.932,429.164C448.731,429.964 449.131,430.914 449.131,432.063L449.131,439.011C449.131,440.11 448.731,441.06 447.932,441.859C447.132,442.659 446.182,443.059 445.083,443.109C443.933,443.059 442.934,442.659 442.134,441.859C441.334,441.06 440.934,440.11 440.934,439.011L440.934,432.063C440.934,430.914 441.334,429.964 442.134,429.165C442.934,428.365 443.933,427.965 445.083,428.015Z" style="fill:rgb(255,181,162);fill-rule:nonzero;"/>
                <path d="M457.928,429.514C457.378,428.915 456.728,428.565 455.928,428.515C455.179,428.515 454.479,428.815 453.929,429.364C453.379,429.864 453.08,430.464 453.03,431.214C452.98,432.063 453.229,432.763 453.779,433.313C454.229,433.913 454.879,434.212 455.678,434.212C456.478,434.262 457.178,434.063 457.778,433.513C458.377,432.963 458.677,432.363 458.727,431.614C458.727,430.764 458.477,430.064 457.928,429.514Z" style="fill-rule:nonzero;"/>
                <path d="M468.823,457.253C469.573,454.954 469.973,452.505 469.973,449.906C469.973,449.306 469.973,448.707 469.973,448.157L418.243,448.157C418.193,448.707 418.193,449.306 418.193,449.906C418.193,452.505 418.593,454.954 419.393,457.253L468.823,457.253Z" style="fill:white;fill-rule:nonzero;"/>
                <path d="M455.579,465.05C457.228,466.45 458.427,467.999 459.077,469.698C460.227,468.899 461.326,467.999 462.376,466.999C463.425,466.05 464.375,465 465.225,463.951C466.824,461.901 468.024,459.652 468.823,457.253L419.393,457.253C420.143,459.652 421.342,461.901 422.942,463.951C423.791,465 424.691,466.05 425.74,466.999C427.39,468.549 429.089,469.898 430.938,470.948C431.488,468.749 432.788,466.8 434.837,465.05C435.337,464.65 435.836,464.301 436.386,463.951C438.935,462.301 441.884,461.502 445.233,461.502C448.581,461.502 451.48,462.301 454.029,463.951C454.579,464.301 455.079,464.65 455.579,465.05Z" style="fill:rgb(175,74,62);fill-rule:nonzero;"/>
                <path d="M459.077,469.698C458.427,467.999 457.228,466.449 455.579,465.05C455.079,464.65 454.579,464.3 454.029,463.951C451.48,462.301 448.581,461.502 445.233,461.502C441.884,461.502 438.935,462.301 436.386,463.951C435.836,464.3 435.337,464.65 434.837,465.05C432.788,466.799 431.488,468.749 430.938,470.948C434.837,473.097 439.235,474.146 444.083,474.146C449.731,474.146 454.729,472.647 459.077,469.698Z" style="fill:rgb(227,121,96);fill-rule:nonzero;"/>
                <path d="M431.038,428.715C430.489,429.214 430.189,429.864 430.139,430.614C430.089,431.414 430.339,432.113 430.888,432.663C431.388,433.263 432.038,433.563 432.788,433.613C433.587,433.663 434.287,433.363 434.837,432.813C435.437,432.363 435.786,431.763 435.836,431.014C435.836,430.164 435.587,429.464 435.037,428.915C434.487,428.315 433.837,428.015 433.038,427.965C432.288,427.915 431.588,428.165 431.038,428.715Z" style="fill-rule:nonzero;"/>
                <path d="M447.932,429.164C447.132,428.365 446.182,427.965 445.083,428.015C443.933,427.965 442.934,428.365 442.134,429.164C441.334,429.964 440.934,430.914 440.934,432.063L440.934,439.011C440.934,440.11 441.334,441.06 442.134,441.859C442.934,442.659 443.933,443.059 445.083,443.109C446.182,443.059 447.132,442.659 447.932,441.859C448.731,441.06 449.131,440.11 449.131,439.011L449.131,432.063C449.131,430.914 448.731,429.964 447.932,429.165L447.932,429.164Z" style="fill:rgb(231,140,118);fill-rule:nonzero;"/>
                <path d="M489.465,416.12L490.964,416.12C490.814,412.171 490.315,408.423 489.415,404.824L449.081,404.824L449.081,405.024L448.781,416.12L489.465,416.12Z" style="fill:rgb(236,96,2);fill-rule:nonzero;"/>
                <path d="M474.571,416.12C474.571,416.32 474.571,416.519 474.621,416.719C474.771,418.119 475.071,419.418 475.421,420.668C476.32,423.717 477.87,426.316 480.019,428.465C480.369,428.815 480.718,429.114 481.118,429.464C483.567,431.614 486.366,433.013 489.465,433.663L489.465,428.165L489.465,416.12L474.571,416.12Z" style="fill:rgb(102,51,51);fill-rule:nonzero;"/>
                <path d="M489.465,428.165L489.465,449.506C490.215,449.656 490.964,449.756 491.764,449.756C492.114,449.756 492.514,449.756 492.914,449.706C493.263,449.656 493.663,449.606 494.063,449.506C496.112,449.057 497.912,448.057 499.461,446.508C501.56,444.358 502.61,441.809 502.66,438.811C502.61,435.762 501.56,433.213 499.461,431.064C497.912,429.514 496.112,428.515 494.063,428.165C493.663,428.065 493.263,428.015 492.914,428.015C492.514,427.965 492.114,427.915 491.764,427.965C490.964,427.915 490.215,428.015 489.465,428.165Z" style="fill:rgb(234,152,133);fill-rule:nonzero;"/>
                <path d="M489.415,404.824C490.315,408.423 490.814,412.171 490.964,416.12L517.954,416.12C519.503,416.12 520.852,415.57 521.952,414.47C523.002,413.371 523.551,412.021 523.601,410.472C523.551,408.873 523.002,407.523 521.952,406.474C520.852,405.374 519.503,404.824 517.954,404.824L489.415,404.824Z" style="fill:rgb(255,51,0);fill-rule:nonzero;"/>
                <path d="M475.371,511.931C475.321,511.881 475.271,511.781 475.271,511.731L475.271,511.881C474.771,511.282 474.271,510.682 473.771,510.132L473.771,510.282C473.371,509.832 472.972,509.382 472.572,508.983C470.672,507.083 468.673,505.484 466.524,504.135C465.824,508.783 463.725,512.881 460.227,516.33C457.278,519.279 453.879,521.278 450.081,522.227L450.081,535.672C450.081,537.271 449.531,538.671 448.381,539.82C447.232,540.97 445.832,541.52 444.183,541.52C442.584,541.52 441.234,540.97 440.085,539.82C438.935,538.671 438.335,537.271 438.335,535.672L438.335,522.127C434.687,521.128 431.388,519.179 428.539,516.33C424.891,512.681 422.792,508.433 422.242,503.535C419.693,504.984 417.344,506.784 415.145,508.983C414.745,509.333 414.345,509.733 413.995,510.132C411.896,512.431 410.197,514.88 408.897,517.529L408.897,517.33C408.847,517.38 408.847,517.479 408.797,517.529C408.198,518.329 407.598,519.179 407.048,520.028C406.198,521.278 405.399,522.527 404.649,523.777C401.1,529.625 398.052,535.872 395.403,542.619C393.553,547.268 391.904,552.116 390.555,557.264C389.855,559.713 389.205,562.262 388.655,564.911C388.505,565.46 388.405,566.06 388.306,566.61L399.151,569.559C400.051,565.31 401.1,561.212 402.35,557.264C403.3,554.115 404.299,551.116 405.449,548.217L405.449,606.344L405.599,606.544L405.449,606.644L405.449,612.791L416.494,612.792C416.444,612.742 416.444,612.642 416.444,612.542L472.372,612.542C472.322,612.642 472.322,612.742 472.322,612.792L482.318,612.792L482.318,606.644L482.168,606.544L482.318,606.394L482.318,606.344L482.368,569.259C482.418,569.309 482.468,569.359 482.518,569.409L482.518,548.717C483.567,551.466 484.517,554.315 485.417,557.264C486.616,561.212 487.666,565.311 488.615,569.559L499.461,566.61C499.311,566.06 499.211,565.461 499.111,564.911C498.511,562.262 497.862,559.713 497.212,557.264C495.812,552.116 494.213,547.268 492.364,542.62C489.715,535.873 486.666,529.625 483.118,523.777C482.318,522.528 481.518,521.278 480.719,520.029C480.469,519.679 480.219,519.279 479.969,518.929C479.019,517.38 478.07,515.881 477.12,514.431C476.52,513.582 475.92,512.732 475.371,511.932L475.371,511.931Z" style="fill:rgb(255,153,0);fill-rule:nonzero;"/>
                <path d="M460.427,495.838C460.027,495.988 459.627,496.088 459.227,496.188C455.329,497.337 451.23,497.887 446.882,497.887L440.285,497.887C436.386,497.887 432.688,497.437 429.139,496.538C428.939,496.488 428.739,496.438 428.539,496.388L428.539,500.886C428.539,505.234 430.089,508.983 433.187,512.081C434.737,513.631 436.486,514.83 438.335,515.63C440.185,516.38 442.234,516.78 444.483,516.78C446.482,516.78 448.331,516.48 450.081,515.83C452.13,515.03 454.029,513.781 455.728,512.081C458.777,509.083 460.327,505.434 460.427,501.186C460.427,501.086 460.427,500.986 460.427,500.886L460.427,495.838Z" style="fill:rgb(255,157,138);fill-rule:nonzero;"/>
                <path d="M460.427,501.186C460.327,505.434 458.777,509.082 455.728,512.081C454.029,513.781 452.13,515.03 450.081,515.83C448.331,516.479 446.482,516.779 444.483,516.779C442.234,516.779 440.185,516.38 438.335,515.63C436.486,514.83 434.737,513.631 433.187,512.081C430.089,508.983 428.539,505.234 428.539,500.886L428.539,500.786C426.34,501.436 424.241,502.385 422.242,503.535C422.792,508.433 424.891,512.681 428.539,516.33C431.388,519.179 434.687,521.128 438.335,522.127L438.335,535.672C438.335,537.271 438.935,538.671 440.085,539.82C441.234,540.97 442.584,541.52 444.183,541.52C445.832,541.52 447.232,540.97 448.381,539.82C449.531,538.671 450.081,537.271 450.081,535.672L450.081,522.227C453.879,521.278 457.278,519.279 460.227,516.33C463.725,512.881 465.824,508.783 466.524,504.135C464.575,502.935 462.576,501.936 460.427,501.186Z" style="fill:rgb(255,102,0);fill-rule:nonzero;"/>
                <path d="M501.96,581.354C501.91,581.104 501.91,580.854 501.86,580.604C501.81,580.354 501.81,580.154 501.76,579.904C501.36,577.055 500.91,574.256 500.411,571.507C500.111,569.858 499.811,568.209 499.461,566.609L488.615,569.558C489.315,572.907 489.915,576.356 490.465,579.904C490.515,580.154 490.515,580.354 490.565,580.604C491.164,584.702 491.664,588.951 492.014,593.299C492.164,595.198 492.264,597.147 492.414,599.096C492.564,601.845 492.664,604.694 492.764,607.643C492.814,608.193 492.814,608.693 492.814,609.242C492.814,609.392 492.814,609.592 492.864,609.792C492.864,610.242 492.864,610.692 492.914,611.142C492.964,613.091 493.014,615.04 493.064,617.089C493.064,617.289 493.064,617.489 493.114,617.689L491.664,617.889C490.914,618.139 490.315,618.439 489.765,618.839C487.516,619.538 485.816,621.138 484.717,623.587L484.617,623.787C484.167,624.736 483.867,625.886 483.617,627.135L484.117,626.436L483.567,627.335C483.517,627.435 483.517,627.535 483.517,627.685L483.517,627.735L483.467,627.885C483.417,628.185 483.317,628.535 483.267,628.885C483.217,629.085 483.217,629.285 483.217,629.485C483.167,629.834 483.217,630.234 483.267,630.684L485.167,642.229L485.417,642.13L485.467,642.13L485.417,642.229L486.616,649.726L487.266,649.627C487.566,650.576 488.116,651.376 488.965,651.976C490.015,652.675 491.164,652.925 492.464,652.725L492.564,652.725C493.813,652.525 494.763,651.926 495.513,650.926C496.162,650.026 496.412,649.027 496.362,647.977L496.412,647.977C496.462,647.577 496.412,647.178 496.362,646.778C496.462,647.128 496.612,647.477 496.762,647.827C496.762,647.877 496.762,647.877 496.812,647.877L496.862,647.877L496.912,648.177C497.262,648.727 497.712,649.227 498.361,649.677C498.611,649.827 498.861,650.027 499.111,650.176C500.011,650.626 501.01,650.726 502.06,650.576L502.21,650.526C503.609,650.276 504.709,649.577 505.559,648.427C505.609,648.277 505.708,648.177 505.758,648.077C506.108,647.528 506.308,646.978 506.408,646.328C506.458,645.978 506.508,645.578 506.458,645.229C506.408,645.079 506.358,644.929 506.308,644.779C506.358,644.779 506.358,644.779 506.408,644.779C506.458,644.929 506.458,645.079 506.458,645.229C506.608,645.628 506.808,645.978 507.058,646.328C507.408,646.778 507.808,647.128 508.257,647.478C509.357,648.327 510.607,648.627 512.006,648.377L512.156,648.377C512.356,648.327 512.556,648.277 512.706,648.227C513.855,647.878 514.755,647.228 515.455,646.228C516.254,645.179 516.554,643.929 516.304,642.58L513.355,624.837C513.305,624.687 513.305,624.537 513.305,624.387C513.155,623.637 512.956,622.888 512.706,622.238C511.756,619.739 510.107,618.04 507.708,617.19C507.108,616.94 506.458,616.79 505.758,616.69C505.309,616.64 504.909,616.59 504.459,616.54C504.409,614.691 504.309,612.892 504.259,611.142C504.209,610.493 504.209,609.893 504.159,609.243C504.109,608.693 504.109,608.194 504.109,607.694C504.059,607.394 504.059,607.094 504.009,606.794L504.059,606.744C504.009,603.795 503.859,600.996 503.659,598.248C503.509,595.899 503.259,593.599 503.01,591.4C502.71,587.952 502.36,584.603 501.96,581.354ZM503.259,626.186C503.309,626.435 503.359,626.735 503.409,627.035L503.409,627.135L503.309,626.436C503.259,626.386 503.259,626.286 503.259,626.186Z" style="fill:rgb(255,181,162);fill-rule:nonzero;"/>
                <path d="M503.409,627.035C503.359,626.735 503.309,626.435 503.259,626.186C503.259,626.286 503.259,626.386 503.309,626.436L503.409,627.135L503.409,627.035Z" style="fill:white;fill-rule:nonzero;"/>
                <path d="M482.518,606.244L483.068,605.344L482.318,606.344L482.318,606.394L482.168,606.543L482.318,606.643L482.468,606.793L482.468,606.544C482.468,606.444 482.468,606.344 482.518,606.244Z" style="fill:rgb(244,166,150);fill-rule:nonzero;"/>
                <path d="M492.764,607.643C492.714,607.943 492.714,608.243 492.764,608.543C492.764,608.743 492.764,608.943 492.764,609.142L492.814,609.792L492.864,609.792C492.814,609.592 492.814,609.392 492.814,609.242C492.814,608.693 492.814,608.193 492.764,607.643Z" style="fill:rgb(255,153,0);fill-rule:nonzero;"/>
                <path d="M472.322,612.791C472.322,612.741 472.322,612.641 472.372,612.541L416.444,612.541C416.444,612.641 416.444,612.741 416.494,612.791C416.544,613.041 416.594,613.241 416.644,613.441C417.144,615.49 418.144,617.339 419.643,618.988C419.993,619.438 420.393,619.788 420.792,620.138C422.592,621.637 424.591,622.487 426.84,622.737L426.84,622.787L428.539,622.787L428.539,721.547L441.334,721.547L441.334,622.787L448.831,622.787L448.831,721.547L461.676,721.547L461.676,622.787L461.826,622.787C462.376,622.737 462.926,622.687 463.425,622.637L463.575,622.637C468.573,621.887 471.472,618.589 472.322,612.791Z" style="fill:rgb(0,102,153);fill-rule:nonzero;"/>
                <path d="M484.367,621.038C484.317,621.088 484.317,621.188 484.267,621.288L484.617,623.787L484.717,623.587C484.617,622.837 484.517,621.987 484.367,621.038Z" style="fill:rgb(253,219,218);fill-rule:nonzero;"/>
                <path d="M483.467,627.885L483.217,627.685L475.621,638.281C474.771,639.43 474.521,640.73 474.771,642.079C474.921,643.429 475.621,644.478 476.77,645.328L476.82,645.478C477.47,645.928 478.12,646.178 478.869,646.328C478.919,646.328 478.919,646.328 478.969,646.328C479.419,646.378 479.969,646.378 480.519,646.328C480.569,646.328 480.619,646.328 480.718,646.278C480.968,646.228 481.218,646.178 481.468,646.078C482.318,645.828 483.118,645.278 483.767,644.528L485.217,642.429L485.167,642.229L483.267,630.684C483.217,630.234 483.167,629.834 483.217,629.484C483.217,629.285 483.217,629.085 483.267,628.885C483.317,628.535 483.417,628.185 483.467,627.885Z" style="fill:rgb(255,157,138);fill-rule:nonzero;"/>
                <path d="M504.009,606.793C504.059,607.093 504.059,607.393 504.109,607.693C504.059,607.343 504.059,607.043 504.059,606.743L504.009,606.793Z" style="fill:rgb(255,153,0);fill-rule:nonzero;"/>
                <path d="M506.458,645.228C506.458,645.078 506.458,644.928 506.408,644.778C506.358,644.778 506.358,644.778 506.308,644.778C506.358,644.928 506.408,645.078 506.458,645.228Z" style="fill:white;fill-rule:nonzero;"/>
                <path d="M443.583,368.689C445.033,368.639 446.482,368.689 447.932,368.839C447.832,367.739 447.382,366.789 446.632,366.04C445.732,365.14 444.633,364.69 443.383,364.69C442.134,364.69 441.034,365.14 440.185,366.04C439.335,366.789 438.885,367.739 438.785,368.839C440.335,368.689 441.934,368.639 443.583,368.689Z" style="fill:rgb(236,96,2);fill-rule:nonzero;"/>
                <path d="M407.748,405.074C406.898,405.324 406.098,405.824 405.449,406.474C404.349,407.523 403.799,408.873 403.849,410.472C403.799,412.021 404.349,413.371 405.449,414.47C406.498,415.52 407.798,416.07 409.347,416.12L448.781,416.12L449.081,405.024C448.981,404.974 448.881,404.874 448.781,404.824L409.497,404.824C408.847,404.824 408.298,404.924 407.748,405.074ZM407.198,410.822C407.198,410.272 407.348,409.822 407.698,409.422C407.848,409.272 407.998,409.172 408.197,409.122C408.447,408.973 408.697,408.923 409.047,408.923C409.547,408.923 409.997,409.072 410.347,409.422C410.697,409.822 410.896,410.272 410.896,410.822C410.896,411.322 410.697,411.721 410.347,412.071C410.047,412.321 409.697,412.521 409.347,412.621C409.247,412.621 409.147,412.621 409.047,412.621C408.497,412.621 408.048,412.421 407.698,412.071C407.348,411.722 407.198,411.322 407.198,410.822ZM442.134,409.422C442.534,409.822 442.734,410.272 442.784,410.822C442.734,411.322 442.534,411.721 442.134,412.071C441.784,412.421 441.384,412.621 440.884,412.621C440.335,412.621 439.885,412.421 439.535,412.071C439.185,411.721 439.035,411.322 439.035,410.822C439.035,410.272 439.185,409.822 439.535,409.422C439.885,409.072 440.335,408.922 440.884,408.922C441.384,408.922 441.784,409.072 442.134,409.422ZM417.994,409.422C418.343,409.072 418.793,408.922 419.293,408.922C419.793,408.922 420.243,409.072 420.593,409.422C420.942,409.822 421.142,410.272 421.142,410.822C421.142,411.322 420.942,411.721 420.593,412.071C420.243,412.421 419.793,412.621 419.293,412.621C418.793,412.621 418.343,412.421 417.994,412.071C417.644,411.721 417.444,411.322 417.444,410.822C417.444,410.272 417.644,409.822 417.994,409.422ZM432.488,410.822C432.438,411.322 432.238,411.721 431.888,412.071C431.538,412.421 431.088,412.621 430.589,412.621C430.039,412.621 429.589,412.421 429.239,412.071C428.889,411.721 428.739,411.322 428.789,410.822C428.739,410.272 428.889,409.822 429.239,409.422C429.589,409.072 430.039,408.922 430.589,408.922C431.088,408.922 431.538,409.072 431.888,409.422C432.238,409.822 432.438,410.272 432.488,410.822Z" style="fill:rgb(255,51,0);fill-rule:nonzero;"/>
                <path d="M407.698,409.422C407.348,409.822 407.198,410.272 407.198,410.822C407.198,411.322 407.348,411.721 407.698,412.071C408.048,412.421 408.497,412.621 409.047,412.621C409.147,412.621 409.247,412.621 409.347,412.621C409.697,412.521 410.047,412.321 410.347,412.071C410.697,411.721 410.896,411.322 410.896,410.822C410.896,410.272 410.697,409.822 410.347,409.422C409.997,409.072 409.547,408.922 409.047,408.922C408.697,408.922 408.447,408.972 408.198,409.122C407.998,409.172 407.848,409.272 407.698,409.422Z" style="fill:rgb(255,102,0);fill-rule:nonzero;"/>
                <path d="M442.784,410.822C442.734,410.272 442.534,409.822 442.134,409.422C441.784,409.072 441.384,408.922 440.884,408.922C440.335,408.922 439.885,409.072 439.535,409.422C439.185,409.822 439.035,410.272 439.035,410.822C439.035,411.322 439.185,411.721 439.535,412.071C439.885,412.421 440.335,412.621 440.884,412.621C441.384,412.621 441.784,412.421 442.134,412.071C442.534,411.721 442.734,411.322 442.784,410.822Z" style="fill:rgb(255,102,0);fill-rule:nonzero;"/>
                <path d="M419.293,408.922C418.793,408.922 418.343,409.072 417.994,409.422C417.644,409.822 417.444,410.272 417.444,410.822C417.444,411.322 417.644,411.721 417.994,412.071C418.343,412.421 418.793,412.621 419.293,412.621C419.793,412.621 420.243,412.421 420.593,412.071C420.942,411.721 421.142,411.322 421.142,410.822C421.142,410.272 420.942,409.822 420.593,409.422C420.243,409.072 419.793,408.922 419.293,408.922Z" style="fill:rgb(255,102,0);fill-rule:nonzero;"/>
                <path d="M431.888,412.071C432.238,411.721 432.438,411.322 432.488,410.822C432.438,410.272 432.238,409.822 431.888,409.422C431.538,409.072 431.088,408.922 430.589,408.922C430.039,408.922 429.589,409.072 429.239,409.422C428.889,409.822 428.739,410.272 428.789,410.822C428.739,411.322 428.889,411.721 429.239,412.071C429.589,412.421 430.039,412.621 430.589,412.621C431.088,412.621 431.538,412.421 431.888,412.071Z" style="fill:rgb(255,102,0);fill-rule:nonzero;"/>
                <path d="M407.748,404.874L407.748,405.074C408.297,404.924 408.847,404.824 409.497,404.824L449.081,404.824C449.081,399.776 447.332,395.478 443.783,391.829C443.533,391.58 443.283,391.33 443.034,391.08C438.985,387.331 434.137,385.432 428.439,385.432C422.692,385.432 417.794,387.331 413.745,391.08C413.495,391.33 413.245,391.58 413.046,391.83C409.497,395.478 407.748,399.826 407.748,404.874Z" style="fill:rgb(102,51,51);fill-rule:nonzero;"/>
                <path d="M387.706,431.064C387.556,431.214 387.456,431.364 387.306,431.513C385.407,433.563 384.457,435.962 384.507,438.811C384.457,441.659 385.407,444.108 387.306,446.158C387.456,446.258 387.556,446.358 387.706,446.508C389.855,448.657 392.404,449.706 395.403,449.756C396.152,449.756 396.902,449.656 397.652,449.506L397.652,428.165C396.902,428.015 396.152,427.915 395.403,427.965C392.404,427.915 389.855,428.965 387.706,431.064Z" style="fill:rgb(234,152,133);fill-rule:nonzero;"/>
                <path d="M448.781,404.824C448.881,404.874 448.981,404.974 449.081,405.024C449.081,404.974 449.081,404.924 449.081,404.874L449.081,404.824L448.781,404.824Z" style="fill:rgb(255,181,162);fill-rule:nonzero;"/>
                <path d="M428.539,500.886L428.539,500.786L428.539,500.886Z" style="fill:rgb(255,153,0);fill-rule:nonzero;"/>
                <path d="M388.305,566.609C387.956,568.209 387.606,569.858 387.306,571.507C386.806,574.256 386.356,577.055 386.006,579.904C385.956,580.154 385.956,580.354 385.906,580.604C385.856,580.854 385.856,581.104 385.806,581.354C385.357,584.602 385.007,587.951 384.757,591.4C384.507,593.599 384.257,595.898 384.107,598.247C383.907,600.996 383.757,603.795 383.707,606.743L383.707,606.793C383.707,607.093 383.707,607.393 383.657,607.693C383.607,608.193 383.607,608.693 383.607,609.242C383.557,609.892 383.557,610.492 383.507,611.142C383.407,612.891 383.357,614.69 383.307,616.54C382.858,616.59 382.408,616.64 382.008,616.69C381.308,616.79 380.659,616.939 380.059,617.189C377.66,618.039 376.01,619.738 375.061,622.237C374.811,622.887 374.611,623.637 374.461,624.386C374.411,624.536 374.411,624.686 374.411,624.836L371.462,642.579C371.212,643.929 371.512,645.178 372.312,646.228C373.012,647.227 373.911,647.877 375.061,648.227C375.211,648.277 375.411,648.327 375.611,648.377L375.761,648.377C377.16,648.627 378.409,648.327 379.509,647.477C379.959,647.128 380.359,646.778 380.709,646.328C380.958,645.978 381.158,645.628 381.308,645.228C381.308,645.078 381.308,644.928 381.358,644.778C381.408,644.779 381.408,644.779 381.458,644.779C381.408,644.928 381.358,645.078 381.308,645.228C381.258,645.578 381.308,645.978 381.358,646.328C381.408,646.978 381.658,647.527 382.008,648.077C382.058,648.177 382.158,648.277 382.208,648.427C383.058,649.577 384.157,650.276 385.557,650.526L385.707,650.576C386.756,650.726 387.756,650.626 388.655,650.176C388.905,650.027 389.155,649.827 389.405,649.677C390.005,649.227 390.505,648.727 390.855,648.177L390.904,647.877L390.954,647.877L391.004,647.827C391.154,647.478 391.304,647.128 391.404,646.778C391.354,647.178 391.304,647.578 391.354,647.977L391.404,647.977C391.304,649.027 391.604,650.027 392.254,650.926C392.954,651.926 393.953,652.526 395.203,652.726L395.303,652.726C396.552,652.926 397.752,652.676 398.801,651.976C399.651,651.376 400.201,650.576 400.501,649.627L401.15,649.727L402.35,642.23L402.3,642.13L402.35,642.13L402.6,642.23L404.499,630.685C404.549,630.235 404.549,629.835 404.549,629.485C404.499,629.285 404.499,629.085 404.499,628.885C404.449,628.535 404.349,628.186 404.299,627.886L404.249,627.736L404.249,627.686C404.199,627.536 404.199,627.436 404.199,627.336L403.65,626.436L404.149,627.136C403.899,625.887 403.6,624.737 403.15,623.787L403.05,623.587C401.95,621.138 400.251,619.539 398.002,618.839C397.452,618.44 396.802,618.14 396.103,617.89L394.653,617.69C394.653,617.49 394.653,617.29 394.703,617.09C394.753,615.041 394.803,613.092 394.853,611.143C394.853,610.693 394.853,610.243 394.903,609.793C394.903,609.593 394.903,609.393 394.953,609.243C394.953,608.694 394.953,608.194 395.003,607.644C395.053,604.695 395.203,601.846 395.353,599.097C395.453,597.148 395.603,595.199 395.753,593.3C396.103,588.952 396.552,584.703 397.202,580.605C397.252,580.355 397.252,580.155 397.302,579.905C397.852,576.357 398.452,572.908 399.151,569.559L388.306,566.61L388.305,566.609ZM384.457,626.435L384.357,627.135L384.357,627.035C384.357,626.735 384.407,626.435 384.507,626.186C384.457,626.286 384.457,626.386 384.457,626.436L384.457,626.435Z" style="fill:rgb(255,181,162);fill-rule:nonzero;"/>
                <path d="M384.357,627.135L384.457,626.435C384.457,626.385 384.457,626.286 384.507,626.186C384.407,626.435 384.357,626.735 384.357,627.035L384.357,627.135Z" style="fill:white;fill-rule:nonzero;"/>
                <path d="M395.003,609.142L395.003,607.643C394.953,608.193 394.953,608.693 394.953,609.242C394.903,609.392 394.903,609.592 394.903,609.792L394.953,609.792L395.003,609.142Z" style="fill:rgb(255,153,0);fill-rule:nonzero;"/>
                <path d="M405.599,606.543L405.449,606.344L404.699,605.344L405.249,606.244C405.299,606.344 405.299,606.444 405.299,606.543L405.299,606.793L405.449,606.643L405.599,606.544L405.599,606.543Z" style="fill:rgb(244,166,150);fill-rule:nonzero;"/>
                <path d="M383.657,607.693C383.707,607.393 383.707,607.093 383.707,606.793L383.707,606.743C383.657,607.043 383.657,607.343 383.657,607.693Z" style="fill:rgb(255,153,0);fill-rule:nonzero;"/>
                <path d="M403.499,621.288C403.449,621.188 403.449,621.088 403.399,621.038C403.25,621.987 403.15,622.837 403.05,623.587L403.15,623.787L403.499,621.288Z" style="fill:rgb(253,219,218);fill-rule:nonzero;"/>
                <path d="M404.549,627.685L404.299,627.885C404.349,628.185 404.449,628.535 404.499,628.885C404.499,629.084 404.499,629.284 404.549,629.484C404.549,629.834 404.549,630.234 404.499,630.684L402.6,642.229L402.55,642.429L403.999,644.528C404.649,645.278 405.399,645.828 406.298,646.078C406.548,646.178 406.798,646.228 407.048,646.278C407.098,646.328 407.198,646.328 407.248,646.328C407.798,646.378 408.297,646.378 408.797,646.328C408.847,646.328 408.847,646.328 408.897,646.328C409.597,646.178 410.247,645.928 410.896,645.478L410.996,645.328C412.146,644.478 412.846,643.429 412.996,642.079C413.246,640.73 412.996,639.431 412.146,638.281L404.549,627.685Z" style="fill:rgb(255,157,138);fill-rule:nonzero;"/>
                <path d="M381.308,645.228C381.358,645.078 381.408,644.928 381.458,644.778C381.408,644.778 381.408,644.778 381.358,644.778C381.308,644.928 381.308,645.078 381.308,645.228Z" style="fill:white;fill-rule:nonzero;"/>
                <path d="M480.768,615.44C480.718,615.54 480.619,615.64 480.569,615.74L480.968,618.189L481.068,617.939C480.968,617.189 480.868,616.39 480.768,615.44Z" style="fill:rgb(253,219,218);fill-rule:nonzero;"/>
                <path d="M441.334,721.597L428.539,721.597L428.539,741.19L441.334,741.19L441.334,721.597Z" style="fill:rgb(0,102,153);fill-rule:nonzero;"/>
                <rect x="430.788" y="741.19" width="8.647" height="3.898" style="fill:rgb(234,152,133);fill-rule:nonzero;"/>
                <path d="M441.734,745.088L439.435,745.088L430.788,745.088L424.841,745.088C421.692,741.739 417.994,740.04 413.695,740.04C409.047,740.04 405.049,741.989 401.7,745.938C399.851,748.137 398.551,750.636 397.752,753.385L441.734,753.385L441.734,745.088Z" style="fill:rgb(42,34,75);fill-rule:nonzero;"/>
                <path d="M441.734,758.033L441.734,753.385L397.752,753.385C397.602,753.885 397.452,754.384 397.302,754.884C397.102,755.884 396.952,756.933 396.852,758.033L441.734,758.033Z" style="fill:rgb(255,204,0);fill-rule:nonzero;"/>
                <path d="M450.83,745.088L448.431,745.088L448.431,753.385L492.464,753.385C491.764,750.936 490.664,748.737 489.165,746.687C488.915,746.438 488.715,746.188 488.515,745.938C485.217,741.989 481.218,740.04 476.57,740.04C472.222,740.04 468.523,741.739 465.375,745.088L459.477,745.088L450.83,745.088Z" style="fill:rgb(42,34,75);fill-rule:nonzero;"/>
                <rect x="450.83" y="741.19" width="8.647" height="3.898" style="fill:rgb(234,152,133);fill-rule:nonzero;"/>
                <path d="M448.831,741.19L461.676,741.19L461.676,721.597L448.831,721.597L448.831,741.19Z" style="fill:rgb(0,102,153);fill-rule:nonzero;"/>
                <path d="M448.431,753.385L448.431,758.033L493.363,758.033C493.263,756.933 493.064,755.884 492.814,754.834C492.714,754.334 492.614,753.835 492.464,753.385L448.431,753.385Z" style="fill:rgb(177,142,1);fill-rule:nonzero;"/>
            </g>
        </g>
    </g>
</svg>
