<?xml version="1.0" encoding="UTF-8" standalone="no"?>
<!DOCTYPE svg PUBLIC "-//W3C//DTD SVG 1.1//EN" "http://www.w3.org/Graphics/SVG/1.1/DTD/svg11.dtd">
<svg width="100%" height="100%" viewBox="0 0 221 322" version="1.1" xmlns="http://www.w3.org/2000/svg" xmlns:xlink="http://www.w3.org/1999/xlink" xml:space="preserve" style="fill-rule:evenodd;clip-rule:evenodd;stroke-linecap:round;stroke-linejoin:round;stroke-miterlimit:1.41421;">
    <g transform="matrix(1,0,0,1,-1139,-139)">
        <g transform="matrix(1,0,0,1,0,-162)">
            <g id="Ninja-Female-1-Laptop" transform="matrix(1,0,0,1,657.493,-135.042)">
                <path d="M669.793,444.758C667.544,443.609 665.245,442.559 662.896,441.659C659.147,440.21 655.249,439.06 651.2,438.261C637.256,435.512 625.311,437.261 615.465,443.509C610.217,446.857 606.368,450.956 603.919,455.804C601.77,460.102 600.67,464.95 600.67,470.398C600.62,473.047 600.87,475.646 601.42,478.245C601.82,474.596 602.67,471.098 603.919,467.849C604.469,466.35 605.119,464.9 605.868,463.451C605.918,463.351 605.918,463.251 605.968,463.151C606.018,463.051 606.118,462.951 606.168,462.851C606.218,462.901 606.318,463.001 606.368,463.101C606.418,463.251 606.468,463.351 606.518,463.451C608.817,467.399 611.816,471.198 615.464,474.946C625.31,485.092 637.256,491.59 651.2,494.339C655.249,495.138 659.147,495.538 662.895,495.588C663.645,495.588 664.395,495.588 665.145,495.538C666.044,495.488 666.944,495.438 667.794,495.388C670.542,495.138 673.241,494.639 675.84,493.939C675.84,493.939 675.89,493.939 675.94,493.939C677.29,493.539 678.589,493.089 679.889,492.589L679.889,573.257C682.937,575.056 684.487,578.405 684.487,583.353L684.487,607.394L701.73,607.394L701.73,517.58C701.13,517.73 701.08,509.783 701.58,493.839C701.63,493.839 701.68,493.839 701.73,493.889L701.73,487.392C701.58,485.992 701.43,484.593 701.18,483.243C700.73,480.694 700.031,478.145 699.081,475.696C696.632,469.449 692.584,463.401 686.936,457.604C681.788,452.306 676.04,448.008 669.793,444.759L669.793,444.758ZM690.335,481.344L690.285,481.344L690.335,480.944L690.335,481.344ZM689.935,486.941C690.035,486.841 690.135,486.741 690.285,486.691L690.285,486.392L690.385,486.541C690.335,486.591 690.335,486.641 690.285,486.691L690.285,486.941L689.935,486.941ZM685.936,496.487C686.386,496.438 686.836,496.388 687.336,496.438C690.385,496.388 692.934,497.437 695.083,499.586C697.232,501.735 698.281,504.284 698.281,507.333C698.281,510.382 697.232,512.931 695.083,515.08C692.934,517.229 690.385,518.279 687.336,518.329C686.836,518.279 686.386,518.279 685.936,518.229L685.936,496.488L685.936,496.487Z" style="fill:rgb(254,207,5);fill-rule:nonzero;"/>
                <path d="M690.285,486.691C690.135,486.741 690.035,486.841 689.935,486.941L690.285,486.941L690.285,486.691Z" style="fill:rgb(140,80,55);fill-rule:nonzero;"/>
                <path d="M690.285,486.691C690.335,486.641 690.335,486.591 690.385,486.541L690.285,486.392L690.285,486.691Z" style="fill:white;fill-rule:nonzero;"/>
                <path d="M687.336,496.437C686.836,496.388 686.386,496.437 685.936,496.487L685.936,518.229C686.386,518.279 686.836,518.279 687.336,518.329C690.385,518.279 692.934,517.229 695.083,515.08C697.232,512.931 698.281,510.382 698.281,507.333C698.281,504.284 697.232,501.736 695.083,499.586C692.934,497.437 690.385,496.388 687.336,496.438L687.336,496.437Z" style="fill:rgb(253,219,218);fill-rule:nonzero;"/>
                <path d="M675.94,493.938L675.84,493.938C673.242,494.638 670.543,495.138 667.794,495.388C666.944,495.438 666.044,495.488 665.145,495.538C664.395,495.588 663.645,495.588 662.896,495.588C659.147,495.538 655.249,495.138 651.2,494.338C637.256,491.589 625.311,485.092 615.465,474.946C611.816,471.198 608.817,467.399 606.518,463.451L606.168,463.251L605.869,463.451C605.119,464.9 604.469,466.35 603.919,467.849C602.67,471.098 601.82,474.596 601.42,478.245C601.17,480.044 601.07,481.893 601.12,483.843C601.07,484.292 601.07,484.792 601.12,485.242L601.22,485.242L601.12,517.079C601.07,524.626 603.569,531.324 608.667,537.171C609.417,538.071 610.267,538.971 611.216,539.82C611.566,540.17 611.966,540.47 612.316,540.82C612.766,541.27 613.266,541.67 613.765,542.069C615.515,543.519 617.364,544.818 619.313,545.968C623.362,548.367 627.76,550.116 632.508,551.166L632.408,561.162L665.145,560.512L665.145,550.516C669.843,549.417 674.241,547.667 678.29,545.318C678.839,544.968 679.339,544.669 679.889,544.319L679.889,492.589C678.589,493.089 677.29,493.539 675.94,493.939L675.94,493.938Z" style="fill:rgb(253,219,218);fill-rule:nonzero;"/>
                <path d="M675.84,493.938L675.94,493.938C675.89,493.938 675.84,493.938 675.84,493.938Z" style="fill:rgb(194,131,98);fill-rule:nonzero;"/>
                <path d="M606.168,462.851C606.118,462.951 606.018,463.051 605.968,463.151C605.918,463.251 605.918,463.351 605.868,463.451L606.168,463.251L606.518,463.451C606.468,463.351 606.418,463.251 606.368,463.101C606.318,463.001 606.218,462.901 606.168,462.851Z" style="fill:rgb(194,131,98);fill-rule:nonzero;"/>
                <path d="M613.765,542.069C613.266,541.669 612.766,541.27 612.316,540.82C611.966,540.47 611.566,540.17 611.216,539.82C610.267,538.971 609.417,538.071 608.667,537.171L608.667,606.893L613.266,606.943L613.316,594.948C613.316,592.349 613.615,589.85 614.165,587.451C615.515,581.703 618.413,576.556 622.962,572.107C625.861,569.258 629.009,567.109 632.408,565.56L632.408,561.162L632.508,551.166C627.76,550.116 623.362,548.367 619.313,545.968C617.364,544.818 615.515,543.519 613.765,542.069Z" style="fill:rgb(253,175,23);fill-rule:nonzero;"/>
                <path d="M614.165,587.451C613.615,589.85 613.315,592.349 613.315,594.948L613.265,606.943L613.215,613.491L613.166,613.491L613.116,624.836L613.166,624.836C613.415,624.786 613.715,624.736 614.065,624.736L625.761,624.736C626.61,624.736 627.36,625.036 627.91,625.586C628.509,626.186 628.809,626.935 628.809,627.785C628.809,628.435 628.659,628.985 628.359,629.484C628.21,629.634 628.06,629.834 627.91,629.984C627.36,630.584 626.61,630.884 625.761,630.884L614.065,630.884C613.715,630.834 613.415,630.784 613.116,630.734L613.066,648.877C613.316,648.777 613.565,648.727 613.815,648.727L639.655,648.727L639.805,568.659L639.655,648.727L672.142,648.727C672.342,648.677 672.542,648.577 672.742,648.527L672.742,638.981L672.742,630.884L658.647,630.884C657.798,630.884 657.048,630.584 656.398,629.984C656.248,629.834 656.148,629.635 656.049,629.485C655.699,628.985 655.549,628.435 655.599,627.785C655.549,626.936 655.849,626.186 656.398,625.586C657.048,625.036 657.798,624.737 658.647,624.737L672.742,624.737L672.742,572.258C673.142,571.808 673.542,571.608 673.991,571.658C671.792,569.559 669.443,567.809 666.944,566.46L666.994,560.512L665.145,560.512L632.408,561.162L632.408,565.56C629.009,567.11 625.861,569.259 622.962,572.108C618.414,576.556 615.515,581.704 614.165,587.452L614.165,587.451ZM641.404,568.809C641.354,568.809 641.354,568.809 641.354,568.859L641.354,566.31C641.604,566.759 641.704,567.209 641.704,567.759C641.654,568.109 641.554,568.459 641.404,568.809Z" style="fill:rgb(240,110,170);fill-rule:nonzero;"/>
                <path d="M641.354,568.859C641.354,568.809 641.354,568.809 641.404,568.809C641.554,568.459 641.654,568.109 641.704,567.759C641.704,567.209 641.604,566.759 641.354,566.31L641.354,568.859Z" style="fill:rgb(205,94,145);fill-rule:nonzero;"/>
                <path d="M613.166,624.836L613.116,624.836C612.666,624.986 612.216,625.236 611.816,625.586C611.266,626.186 610.966,626.935 611.016,627.785C610.966,628.635 611.266,629.384 611.816,629.984C612.166,630.334 612.616,630.584 613.116,630.734C613.415,630.784 613.715,630.834 614.065,630.884L625.761,630.884C626.61,630.884 627.36,630.584 627.91,629.984C628.06,629.834 628.21,629.634 628.359,629.484C628.659,628.985 628.809,628.435 628.809,627.785C628.809,626.935 628.509,626.186 627.91,625.586C627.36,625.036 626.61,624.736 625.761,624.736L614.065,624.736C613.715,624.736 613.415,624.786 613.166,624.836Z" style="fill:rgb(249,193,222);fill-rule:nonzero;"/>
                <path d="M612.216,652.675C612.666,653.125 613.166,653.325 613.815,653.325L666.044,653.325C667.394,650.726 669.293,649.276 671.642,648.926C671.792,648.876 671.992,648.777 672.142,648.727L639.655,648.727L613.815,648.727C613.565,648.727 613.315,648.777 613.066,648.877C612.716,648.927 612.466,649.126 612.216,649.376C611.766,649.826 611.516,650.326 611.516,650.976L611.516,651.026C611.516,651.675 611.766,652.225 612.216,652.675Z" style="fill:rgb(205,94,145);fill-rule:nonzero;"/>
                <path d="M679.889,544.318C679.339,544.668 678.839,544.968 678.289,545.318C674.241,547.667 669.843,549.416 665.145,550.516L665.145,560.512L666.994,560.512L666.944,566.46C669.443,567.809 671.792,569.558 673.991,571.658C676.34,571.807 678.29,572.307 679.889,573.257L679.889,544.318Z" style="fill:rgb(253,175,23);fill-rule:nonzero;"/>
                <path d="M673.991,571.657C673.541,571.607 673.141,571.807 672.742,572.257L672.742,638.98L684.487,638.98L684.487,607.393L684.487,583.353C684.487,578.405 682.938,575.056 679.889,573.257C678.289,572.307 676.34,571.807 673.991,571.657Z" style="fill:rgb(205,94,145);fill-rule:nonzero;"/>
                <path d="M656.048,629.484C656.148,629.634 656.248,629.834 656.398,629.984C657.048,630.584 657.798,630.884 658.647,630.884L672.742,630.884L672.742,624.736L658.647,624.736C657.798,624.736 657.048,625.036 656.398,625.586C655.848,626.186 655.549,626.935 655.599,627.785C655.549,628.435 655.698,628.985 656.048,629.484Z" style="fill:rgb(249,193,222);fill-rule:nonzero;"/>
                <path d="M685.037,649.176C684.887,649.026 684.687,648.926 684.487,648.876L684.487,648.976C684.637,649.026 684.837,649.126 685.037,649.176Z" style="fill:rgb(249,193,222);fill-rule:nonzero;"/>
                <path d="M684.487,648.976L684.487,648.877L684.487,638.98L672.742,638.98L672.742,648.527C672.542,648.577 672.342,648.677 672.142,648.727C671.992,648.777 671.792,648.877 671.642,648.927C669.293,649.276 667.394,650.726 666.044,653.325C665.744,653.875 665.445,654.524 665.195,655.224L665.744,654.574L665.245,655.224L665.145,655.324C665.095,655.424 665.095,655.524 665.095,655.674L664.995,655.774C664.895,656.024 664.795,656.324 664.695,656.624C664.645,656.774 664.595,656.973 664.595,657.123C664.495,657.473 664.445,657.823 664.445,658.173L664.445,668.269L664.645,668.269C664.595,668.319 664.495,668.419 664.445,668.469L664.445,673.667C664.445,674.916 664.895,675.916 665.744,676.716C666.594,677.565 667.594,678.015 668.843,678.015L668.893,678.015C670.143,678.015 671.192,677.565 672.092,676.716C672.892,675.916 673.291,674.916 673.341,673.667C673.391,674.817 673.841,675.766 674.641,676.516C674.791,676.666 674.991,676.816 675.191,676.966C675.89,677.515 676.74,677.765 677.69,677.765L677.79,677.765C679.039,677.765 680.089,677.365 680.988,676.516C681.688,675.766 682.088,674.817 682.188,673.767C682.138,673.617 682.138,673.517 682.088,673.417C682.138,673.367 682.188,673.367 682.238,673.367C682.188,673.517 682.188,673.617 682.188,673.767C682.338,674.617 682.788,675.316 683.437,675.966C684.237,676.816 685.237,677.266 686.486,677.316L686.636,677.316C687.836,677.266 688.885,676.816 689.735,675.966C690.535,675.116 690.934,674.117 690.934,672.867L690.934,657.374L690.934,656.824C690.685,655.674 690.485,654.525 690.235,653.375C689.335,651.326 687.586,649.927 685.037,649.177C684.837,649.127 684.637,649.027 684.487,648.977L684.487,648.976ZM682.088,657.873L682.088,657.373C682.088,657.323 682.088,657.223 682.088,657.123C682.138,657.373 682.138,657.623 682.188,657.873L682.088,657.873Z" style="fill:rgb(253,219,218);fill-rule:nonzero;"/>
                <path d="M682.088,657.373L682.088,657.873L682.188,657.873C682.138,657.623 682.138,657.373 682.088,657.123C682.088,657.223 682.088,657.323 682.088,657.373Z" style="fill:white;fill-rule:nonzero;"/>
                <path d="M665.744,654.574L665.195,655.224L665.245,655.224L665.744,654.574Z" style="fill:rgb(234,152,133);fill-rule:nonzero;"/>
                <path d="M665.145,655.324L665.245,655.224L665.195,655.224L656.798,663.521C655.948,664.37 655.549,665.42 655.599,666.669C655.549,667.819 655.948,668.869 656.798,669.768L656.848,669.818C657.748,670.668 658.797,671.118 660.047,671.118C661.096,671.118 662.046,670.768 662.896,670.018L664.445,668.469L664.445,668.269L664.445,658.173C664.445,657.823 664.495,657.473 664.595,657.123C664.595,656.973 664.645,656.774 664.695,656.624C664.795,656.324 664.895,656.024 664.995,655.774L665.095,655.674C665.095,655.524 665.095,655.424 665.145,655.324Z" style="fill:rgb(247,172,167);fill-rule:nonzero;"/>
                <path d="M665.195,655.224C665.445,654.524 665.744,653.875 666.044,653.325L621.062,653.325L621.062,685.912L675.191,685.912L675.191,676.965C674.991,676.815 674.791,676.666 674.641,676.516C673.841,675.766 673.391,674.816 673.341,673.667C673.291,674.916 672.892,675.916 672.092,676.716C671.192,677.565 670.143,678.015 668.893,678.015L668.843,678.015C667.594,678.015 666.594,677.565 665.745,676.716C664.895,675.916 664.445,674.916 664.445,673.667L664.445,668.469L662.896,670.018C662.046,670.768 661.096,671.118 660.047,671.118C658.797,671.118 657.748,670.668 656.848,669.818L656.798,669.768C655.949,668.869 655.549,667.819 655.599,666.67C655.549,665.42 655.949,664.371 656.798,663.521L665.195,655.224Z" style="fill:rgb(153,102,153);fill-rule:nonzero;"/>
                <path d="M664.445,668.269L664.445,668.469C664.495,668.419 664.595,668.319 664.645,668.269L664.445,668.269Z" style="fill:rgb(153,102,153);fill-rule:nonzero;"/>
                <path d="M682.088,673.417C682.138,673.517 682.138,673.617 682.188,673.767C682.188,673.617 682.188,673.517 682.238,673.367C682.188,673.367 682.138,673.367 682.088,673.417Z" style="fill:white;fill-rule:nonzero;"/>
                <path d="M647.702,685.912L635.457,685.912L635.457,748.037C635.856,748.337 636.256,748.687 636.656,749.036C638.605,747.287 640.854,746.388 643.453,746.388C645.003,746.338 646.402,746.637 647.702,747.287L647.702,685.912Z" style="fill:rgb(247,172,167);fill-rule:nonzero;"/>
                <path d="M661.596,685.912L649.451,685.912L649.451,748.337C649.851,748.637 650.251,748.986 650.65,749.386C650.8,749.536 650.95,749.736 651.1,749.886C652,750.836 652.7,751.885 653.249,753.035C653.349,753.285 653.449,753.585 653.549,753.885C655.598,753.985 658.297,754.134 661.546,754.334L661.596,754.334L661.596,685.912Z" style="fill:rgb(253,219,218);fill-rule:nonzero;"/>
                <path d="M661.546,757.083L661.546,754.334L653.699,754.334C653.649,754.184 653.599,754.034 653.549,753.884C653.449,753.585 653.35,753.285 653.25,753.035C652.7,751.885 652,750.836 651.1,749.886C650.95,749.736 650.801,749.536 650.651,749.386C650.251,748.986 649.851,748.637 649.451,748.337C649.401,748.287 649.401,748.287 649.351,748.287C648.801,747.887 648.252,747.537 647.702,747.287C646.402,746.637 645.003,746.338 643.454,746.388C640.855,746.388 638.605,747.287 636.656,749.036C636.306,749.286 636.007,749.536 635.757,749.886C634.407,751.386 633.458,753.085 633.008,754.984C632.858,755.534 632.708,756.134 632.658,756.783C632.608,756.883 632.608,756.983 632.608,757.083L661.546,757.083Z" style="fill:rgb(102,102,102);fill-rule:nonzero;"/>
                <path d="M653.549,753.884C653.599,754.034 653.649,754.184 653.699,754.334L661.546,754.334C658.297,754.134 655.599,753.984 653.549,753.884Z" style="fill:white;fill-rule:nonzero;"/>
                <path d="M618.663,756.783L632.658,756.783C632.708,756.134 632.858,755.534 633.008,754.984C633.457,753.085 634.407,751.385 635.756,749.886C636.006,749.536 636.306,749.286 636.656,749.036C636.256,748.687 635.856,748.337 635.457,748.037C633.707,746.737 631.758,746.088 629.509,746.138C626.51,746.138 623.961,747.287 621.812,749.636C620.463,751.086 619.513,752.785 619.063,754.734C618.863,755.384 618.713,756.034 618.663,756.783Z" style="fill:rgb(64,64,64);fill-rule:nonzero;"/>
                <path d="M594.673,499.586C592.524,501.735 591.474,504.284 591.474,507.333C591.474,509.282 591.924,511.082 592.824,512.731C593.274,513.581 593.923,514.33 594.673,515.08C596.472,516.879 598.621,517.929 601.07,518.229L601.07,496.488C598.621,496.737 596.472,497.787 594.673,499.586Z" style="fill:rgb(247,172,167);fill-rule:nonzero;"/>
                <path d="M639.805,568.659L639.655,648.727" style="fill:none;stroke:rgb(205,94,145);stroke-width:3px;"/>
                <path d="M644.428,506.245C644.146,505.521 643.743,504.877 643.18,504.314C642.134,503.308 640.887,502.785 639.438,502.785C637.989,502.785 636.742,503.308 635.736,504.314C635.133,504.877 634.73,505.521 634.489,506.245" style="fill:none;stroke:rgb(140,80,55);stroke-width:2.41px;"/>
                <path d="M626.185,506.245C625.903,505.521 625.501,504.877 624.937,504.314C623.891,503.308 622.644,502.785 621.195,502.785C619.747,502.785 618.499,503.308 617.493,504.314C616.89,504.877 616.488,505.521 616.246,506.245" style="fill:none;stroke:rgb(140,80,55);stroke-width:2.41px;"/>
                <path d="M636.645,514.219C636.302,515.1 635.813,515.883 635.127,516.569C633.855,517.792 632.337,518.429 630.575,518.429C628.813,518.429 627.295,517.792 626.071,516.569C625.337,515.883 624.848,515.1 624.554,514.219" style="fill:none;stroke:rgb(231,140,118);stroke-width:2.94px;"/>
                <path d="M552.963,522.977L560.165,522.977C561.382,523.217 562.498,523.6 563.512,524.224C565.997,525.663 567.924,528.253 569.294,531.994L585.117,595.211C585.269,595.739 585.167,596.266 584.914,596.746C584.66,597.274 584.255,597.609 583.798,597.753C583.747,597.801 583.697,597.801 583.646,597.801L583.19,597.801C583.037,597.753 582.835,597.705 582.632,597.609C582.53,597.657 582.429,597.705 582.277,597.753C582.226,597.801 582.175,597.801 582.125,597.801L581.668,597.801C581.415,597.753 581.212,597.657 580.958,597.513C580.502,597.273 580.147,596.89 579.995,596.362L564.121,532.809C561.94,526.382 558.187,523.121 552.963,522.977Z" style="fill:rgb(115,115,117);fill-rule:nonzero;"/>
                <path d="M488.301,522.977L552.963,522.977C558.187,523.121 561.94,526.382 564.121,532.81L579.995,596.362C580.147,596.89 580.502,597.274 580.958,597.513C581.212,597.657 581.415,597.753 581.668,597.801L501.385,597.801C500.625,597.801 499.915,597.945 499.255,598.281C499.255,598.089 499.255,597.897 499.205,597.705L481.961,528.924C481.555,525.135 483.686,523.169 488.301,522.977ZM522.584,554.873C523.852,555.88 525.374,556.408 527.149,556.408C528.924,556.408 530.445,555.88 531.713,554.873C532.981,553.818 533.64,552.523 533.64,551.036C533.64,549.549 532.981,548.35 531.713,547.343C530.445,546.287 528.924,545.76 527.149,545.76C525.374,545.76 523.852,546.287 522.584,547.343C521.316,548.35 520.708,549.549 520.708,551.036C520.708,552.523 521.316,553.818 522.584,554.873Z" style="fill:rgb(36,35,77);fill-rule:nonzero;"/>
                <path d="M527.149,556.408C525.374,556.408 523.852,555.88 522.584,554.873C521.316,553.818 520.708,552.523 520.708,551.036C520.708,549.549 521.316,548.35 522.584,547.343C523.852,546.287 525.374,545.76 527.149,545.76C528.924,545.76 530.445,546.287 531.713,547.343C532.981,548.35 533.64,549.549 533.64,551.036C533.64,552.523 532.981,553.818 531.713,554.873C530.445,555.88 528.924,556.408 527.149,556.408Z" style="fill:rgb(204,204,204);fill-rule:nonzero;"/>
                <path d="M497.125,609.409C495.959,608.113 495.401,606.531 495.401,604.66L495.401,604.564C495.35,602.885 495.857,601.398 496.821,600.199C496.922,600.055 497.024,599.912 497.125,599.768C497.784,599.048 498.494,598.569 499.255,598.281C499.915,597.945 500.625,597.801 501.385,597.801L587.399,597.801C587.906,597.801 588.413,597.801 588.87,597.849C587.551,598.041 586.385,598.664 585.371,599.768C584.204,601.063 583.646,602.693 583.646,604.564L583.646,604.66C583.646,606.531 584.204,608.113 585.371,609.408C586.233,610.32 587.196,610.895 588.261,611.183L500.016,611.183C498.951,610.943 497.987,610.32 497.125,609.408L497.125,609.409Z" style="fill:rgb(22,15,66);fill-rule:nonzero;"/>
                <path d="M655.612,597.801C657.285,597.801 658.705,598.473 659.872,599.768C661.038,601.063 661.596,602.694 661.596,604.564L661.596,604.66C661.596,606.531 661.038,608.113 659.872,609.409C659.01,610.32 658.046,610.943 656.981,611.183L588.261,611.183C587.196,610.895 586.233,610.32 585.37,609.408C584.204,608.113 583.646,606.531 583.646,604.66L583.646,604.564C583.646,602.693 584.204,601.063 585.37,599.768C586.385,598.664 587.551,598.041 588.87,597.849C589.124,597.801 589.326,597.801 589.58,597.801L655.612,597.801Z" style="fill:rgb(115,115,117);fill-rule:nonzero;"/>
                <path d="M583.19,597.801L582.125,597.801C582.175,597.801 582.226,597.801 582.277,597.753C582.429,597.705 582.53,597.657 582.632,597.609C582.835,597.705 583.037,597.753 583.19,597.801Z" style="fill:rgb(36,35,77);fill-rule:nonzero;"/>
                <path d="M561.93,598.497C565.657,598.497 568.798,599.668 571.407,601.957C574.016,604.247 575.347,607.069 575.347,610.316L575.347,610.423C575.347,610.689 575.347,610.902 575.294,611.168L580.565,611.168L587.912,622.456L558.469,622.456C552.453,622.402 549.418,619.74 549.418,614.469C548.886,613.138 548.619,611.754 548.619,610.316C548.619,607.069 549.897,604.247 552.506,601.957C555.115,599.668 558.256,598.497 561.93,598.497Z" style="fill:rgb(253,219,218);fill-rule:nonzero;"/>
                <path d="M613.415,622.456L587.912,622.456L580.565,611.168L613.415,611.168L613.415,622.456Z" style="fill:rgb(247,172,167);fill-rule:nonzero;"/>
            </g>
        </g>
    </g>
</svg>
