<?xml version="1.0" encoding="UTF-8" standalone="no"?>
<!DOCTYPE svg PUBLIC "-//W3C//DTD SVG 1.1//EN" "http://www.w3.org/Graphics/SVG/1.1/DTD/svg11.dtd">
<svg width="100%" height="100%" viewBox="0 0 217 394" version="1.1" xmlns="http://www.w3.org/2000/svg" xmlns:xlink="http://www.w3.org/1999/xlink" xml:space="preserve" style="fill-rule:evenodd;clip-rule:evenodd;stroke-linejoin:round;stroke-miterlimit:1.41421;">
    <g transform="matrix(1,0,0,1,-469,-103)">
        <g transform="matrix(1,0,0,1,0,-162)">
            <g id="Ninja-Male-1-OK-Hand" transform="matrix(1,0,0,1,-98.9922,-99.3615)">
                <path d="M784.697,433.513C784.797,431.763 784.347,430.414 783.347,429.464C782.498,428.615 781.348,428.165 779.999,428.115C779.699,428.115 779.399,428.115 779.149,428.165C778.149,428.265 777.25,428.615 776.5,429.214C775.451,430.014 774.901,431.064 774.951,432.413C774.951,435.262 774.651,438.661 774.051,442.659C774.001,442.809 773.951,442.959 773.951,443.109C773.901,443.159 773.901,443.209 773.901,443.259C773.751,443.159 773.651,443.059 773.551,443.009C773.551,442.859 773.551,442.759 773.601,442.609C774.451,436.162 773.851,430.064 771.752,424.417C771.102,422.767 770.153,421.668 768.903,421.068C767.804,420.518 766.654,420.468 765.455,420.918C764.255,421.268 763.355,421.918 762.706,422.917C761.956,424.017 761.756,425.216 762.056,426.516C763.106,430.864 763.605,435.012 763.555,438.961C763.555,439.011 763.555,439.061 763.555,439.111C763.405,439.061 763.305,439.011 763.206,438.961C762.806,432.364 760.707,426.866 756.958,422.467C755.809,421.118 754.609,420.418 753.26,420.368C752.11,420.318 751.01,420.768 750.061,421.618C750.011,421.668 750.011,421.668 749.961,421.718C749.011,422.567 748.461,423.667 748.212,424.917C747.962,426.266 748.262,427.416 749.061,428.465C749.411,428.965 749.711,429.415 750.061,429.865C751.31,431.664 752.16,433.213 752.71,434.463C753.16,435.512 753.459,436.662 753.709,437.911C753.709,437.961 753.709,438.011 753.709,438.061C753.559,438.061 753.409,438.061 753.259,438.061C752.11,438.061 751.06,438.111 750.061,438.261C745.513,438.811 742.264,440.61 740.415,443.609C738.115,447.258 737.566,450.556 738.765,453.555C739.565,455.604 741.464,456.604 744.513,456.604C743.263,456.654 742.214,457.354 741.314,458.803C740.215,460.452 740.165,462.202 741.214,464.001C742.964,467 745.563,469.249 748.961,470.798C749.311,470.948 749.711,471.098 750.061,471.248C751.61,471.798 753.21,472.198 754.909,472.448C755.159,472.448 755.459,472.448 755.759,472.498C755.359,480.145 754.159,486.892 752.21,492.69C750.96,496.388 749.361,499.737 747.412,502.686C745.163,506.084 742.514,508.933 739.365,511.282C731.518,516.38 719.723,518.08 703.979,516.33L701.93,531.024C721.472,533.024 736.516,530.175 747.162,522.478C754.209,517.83 759.657,511.232 763.406,502.686C764.705,499.587 765.805,496.238 766.754,492.69C768.453,485.942 769.403,478.295 769.553,469.799C770.603,469.249 771.652,468.649 772.652,467.95C775.451,465.9 777.6,463.551 779.149,460.902C779.799,459.753 780.299,458.553 780.699,457.304C780.749,457.204 780.749,457.104 780.799,456.954C781.798,454.205 782.698,450.607 783.447,446.158C784.147,441.71 784.547,437.462 784.697,433.514L784.697,433.513ZM759.357,452.455C759.757,454.004 759.707,455.504 759.157,456.953C758.507,458.553 757.358,459.702 755.708,460.352C753.459,461.302 751.56,460.802 750.061,458.903C749.961,458.753 749.861,458.653 749.811,458.553C748.861,457.203 747.162,456.554 744.763,456.603C747.212,456.504 748.411,454.904 748.411,451.855C748.411,450.056 748.961,448.757 750.061,448.007C750.61,447.657 751.36,447.407 752.21,447.307C753.859,447.107 755.309,447.507 756.658,448.457C758.007,449.406 758.907,450.756 759.357,452.455Z" style="fill:rgb(255,181,162);fill-rule:nonzero;"/>
                <path d="M720.922,410.472C720.872,408.873 720.323,407.523 719.223,406.474C718.123,405.374 716.824,404.824 715.275,404.824L686.736,404.824C687.636,408.423 688.136,412.171 688.285,416.12L715.275,416.12C716.824,416.12 718.124,415.57 719.223,414.47C720.323,413.371 720.872,412.021 720.922,410.472Z" style="fill:rgb(255,51,0);fill-rule:nonzero;"/>
                <path d="M640.854,368.689C642.304,368.639 643.753,368.689 645.203,368.839C645.153,367.739 644.703,366.789 643.903,366.04C643.004,365.14 641.904,364.69 640.654,364.69C639.405,364.69 638.305,365.14 637.456,366.04C636.656,366.789 636.206,367.739 636.106,368.839C637.656,368.689 639.255,368.639 640.854,368.689Z" style="fill:rgb(236,96,2);fill-rule:nonzero;"/>
                <path d="M645.203,368.839C643.753,368.689 642.304,368.639 640.854,368.689C639.255,368.639 637.656,368.689 636.106,368.839C625.011,369.888 615.415,374.636 607.268,383.133C604.619,385.882 602.37,388.781 600.521,391.829C596.072,399.027 593.723,407.123 593.423,416.12L606.618,416.12C605.119,416.07 603.819,415.52 602.77,414.47C601.67,413.371 601.12,412.021 601.17,410.472C601.12,408.873 601.67,407.523 602.77,406.474C603.419,405.824 604.169,405.324 605.019,405.074L605.019,404.874C605.069,399.826 606.818,395.478 610.367,391.83C610.567,391.58 610.816,391.33 611.066,391.08C615.115,387.331 620.013,385.432 625.761,385.432C631.458,385.432 636.306,387.331 640.305,391.08C640.555,391.33 640.805,391.58 641.054,391.83C644.603,395.478 646.352,399.776 646.402,404.824L686.736,404.824C685.537,400.176 683.687,395.878 681.238,391.83C679.339,388.781 677.09,385.882 674.441,383.133C666.194,374.537 656.448,369.788 645.203,368.839Z" style="fill:rgb(255,102,0);fill-rule:nonzero;"/>
                <path d="M641.054,391.829C640.804,391.579 640.555,391.33 640.305,391.08C636.306,387.331 631.458,385.432 625.761,385.432C620.013,385.432 615.115,387.331 611.066,391.08C610.817,391.33 610.567,391.58 610.367,391.829C606.818,395.478 605.069,399.826 605.019,404.874L605.019,405.074C605.569,404.924 606.168,404.824 606.818,404.824L646.402,404.824C646.352,399.776 644.603,395.478 641.054,391.83L641.054,391.829Z" style="fill:rgb(102,51,51);fill-rule:nonzero;"/>
                <path d="M646.402,404.874C646.402,404.924 646.402,404.974 646.402,405.024L646.102,416.12L688.285,416.12C688.135,412.171 687.636,408.423 686.736,404.824L646.402,404.824L646.402,404.874Z" style="fill:rgb(236,96,2);fill-rule:nonzero;"/>
                <path d="M646.402,405.024C646.402,404.974 646.402,404.924 646.402,404.874L646.402,404.824L646.102,404.824C646.202,404.874 646.302,404.974 646.402,405.024Z" style="fill:rgb(255,181,162);fill-rule:nonzero;"/>
                <path d="M646.402,405.024C646.302,404.974 646.202,404.874 646.102,404.824L606.818,404.824C606.168,404.824 605.568,404.924 605.019,405.074C604.169,405.324 603.419,405.824 602.77,406.474C601.67,407.523 601.12,408.873 601.17,410.472C601.12,412.021 601.67,413.371 602.77,414.47C603.819,415.52 605.119,416.07 606.618,416.12L646.102,416.12L646.402,405.024ZM640.105,410.822C640.055,411.322 639.855,411.721 639.455,412.071C639.105,412.421 638.655,412.621 638.156,412.621C637.656,412.621 637.206,412.421 636.856,412.071C636.506,411.721 636.306,411.322 636.356,410.822C636.306,410.272 636.506,409.822 636.856,409.422C637.206,409.072 637.656,408.922 638.156,408.922C638.655,408.922 639.105,409.072 639.455,409.422C639.855,409.822 640.055,410.272 640.105,410.822ZM617.914,412.071C617.564,412.421 617.114,412.621 616.614,412.621C616.064,412.621 615.615,412.421 615.265,412.071C614.915,411.721 614.765,411.322 614.765,410.822C614.765,410.272 614.915,409.822 615.265,409.422C615.615,409.072 616.064,408.922 616.614,408.922C617.114,408.922 617.564,409.072 617.914,409.422C618.263,409.822 618.463,410.272 618.463,410.822C618.463,411.322 618.264,411.721 617.914,412.071ZM629.809,410.822C629.759,411.322 629.559,411.721 629.159,412.071C628.809,412.421 628.409,412.621 627.91,412.621C627.36,412.621 626.91,412.421 626.56,412.071C626.21,411.721 626.06,411.322 626.06,410.822C626.06,410.272 626.21,409.822 626.56,409.422C626.91,409.072 627.36,408.922 627.91,408.922C628.409,408.922 628.809,409.072 629.159,409.422C629.559,409.822 629.759,410.272 629.809,410.822ZM605.019,409.422C605.169,409.272 605.319,409.172 605.519,409.122C605.769,408.973 606.018,408.923 606.368,408.923C606.868,408.923 607.318,409.072 607.668,409.422C608.018,409.822 608.218,410.272 608.218,410.822C608.218,411.322 608.018,411.721 607.668,412.071C607.368,412.321 607.018,412.521 606.668,412.621C606.568,412.621 606.468,412.621 606.368,412.621C605.818,412.621 605.369,412.421 605.019,412.071C604.669,411.722 604.469,411.322 604.519,410.822C604.469,410.272 604.669,409.822 605.019,409.422Z" style="fill:rgb(255,51,0);fill-rule:nonzero;"/>
                <path d="M639.455,412.071C639.855,411.721 640.055,411.322 640.105,410.822C640.055,410.272 639.855,409.822 639.455,409.422C639.105,409.072 638.655,408.922 638.156,408.922C637.656,408.922 637.206,409.072 636.856,409.422C636.506,409.822 636.306,410.272 636.356,410.822C636.306,411.322 636.506,411.721 636.856,412.071C637.206,412.421 637.656,412.621 638.156,412.621C638.655,412.621 639.105,412.421 639.455,412.071Z" style="fill:rgb(255,102,0);fill-rule:nonzero;"/>
                <path d="M616.614,412.621C617.114,412.621 617.564,412.421 617.914,412.071C618.263,411.721 618.463,411.322 618.463,410.822C618.463,410.272 618.264,409.822 617.914,409.422C617.564,409.072 617.114,408.922 616.614,408.922C616.064,408.922 615.615,409.072 615.265,409.422C614.915,409.822 614.765,410.272 614.765,410.822C614.765,411.322 614.915,411.721 615.265,412.071C615.615,412.421 616.064,412.621 616.614,412.621Z" style="fill:rgb(255,102,0);fill-rule:nonzero;"/>
                <path d="M629.159,412.071C629.559,411.721 629.759,411.322 629.809,410.822C629.759,410.272 629.559,409.822 629.159,409.422C628.809,409.072 628.409,408.922 627.91,408.922C627.36,408.922 626.91,409.072 626.56,409.422C626.21,409.822 626.06,410.272 626.06,410.822C626.06,411.322 626.21,411.721 626.56,412.071C626.91,412.421 627.36,412.621 627.91,412.621C628.409,412.621 628.809,412.421 629.159,412.071Z" style="fill:rgb(255,102,0);fill-rule:nonzero;"/>
                <path d="M605.519,409.122C605.319,409.172 605.169,409.272 605.019,409.422C604.669,409.822 604.469,410.272 604.519,410.822C604.469,411.322 604.669,411.721 605.019,412.071C605.369,412.421 605.819,412.621 606.368,412.621C606.468,412.621 606.568,412.621 606.668,412.621C607.018,412.521 607.368,412.321 607.668,412.071C608.018,411.722 608.218,411.322 608.218,410.822C608.218,410.272 608.018,409.822 607.668,409.422C607.318,409.073 606.868,408.923 606.368,408.923C606.018,408.923 605.769,408.973 605.519,409.123L605.519,409.122Z" style="fill:rgb(255,102,0);fill-rule:nonzero;"/>
                <path d="M671.892,416.12C671.892,416.32 671.892,416.519 671.942,416.719C672.092,418.119 672.392,419.418 672.742,420.668C673.641,423.717 675.191,426.316 677.34,428.465C677.69,428.815 678.039,429.114 678.439,429.464C680.888,431.614 683.687,433.013 686.786,433.663L686.786,428.165L686.786,416.12L671.892,416.12Z" style="fill:rgb(102,51,51);fill-rule:nonzero;"/>
                <path d="M671.942,416.719C671.892,416.519 671.892,416.32 671.892,416.12L671.892,427.065C668.743,426.715 665.994,425.416 663.695,423.117C662.896,422.367 662.246,421.518 661.696,420.668C660.946,419.468 660.397,418.169 660.097,416.819C660.047,416.769 660.047,416.769 660.097,416.719C660.047,416.52 659.997,416.32 659.947,416.12L646.102,416.12L606.618,416.12L594.973,416.12L594.973,455.304C594.973,464.101 597.322,471.947 601.97,478.845C603.519,481.144 605.369,483.343 607.468,485.442C608.217,486.192 609.017,486.891 609.767,487.591C613.565,490.94 617.714,493.439 622.212,495.138C623.411,495.588 624.611,496.038 625.86,496.388C626.06,496.438 626.26,496.488 626.46,496.538C629.959,497.437 633.657,497.887 637.606,497.887L644.203,497.887C648.551,497.887 652.65,497.337 656.548,496.188C656.948,496.088 657.348,495.988 657.748,495.838C659.197,495.338 660.647,494.738 662.096,494.089C665.645,492.439 668.943,490.29 671.992,487.591C672.792,486.892 673.591,486.192 674.341,485.442C680.489,479.195 684.387,472.048 685.986,463.951C686.536,461.202 686.786,458.303 686.786,455.304L686.786,449.507L686.786,433.663C683.687,433.013 680.889,431.614 678.44,429.465C678.04,429.115 677.69,428.815 677.34,428.465C675.191,426.316 673.641,423.717 672.742,420.668C672.392,419.419 672.092,418.119 671.942,416.72L671.942,416.719ZM632.358,428.914C632.908,429.464 633.157,430.164 633.157,431.014C633.107,431.763 632.758,432.363 632.158,432.813C631.608,433.363 630.908,433.663 630.109,433.613C629.359,433.563 628.709,433.263 628.209,432.663C627.66,432.113 627.41,431.414 627.46,430.614C627.51,429.864 627.81,429.215 628.359,428.715C628.909,428.165 629.609,427.915 630.359,427.965C631.158,428.015 631.808,428.315 632.358,428.915L632.358,428.914ZM639.405,429.164C640.255,428.365 641.254,427.965 642.404,428.015C643.503,427.965 644.453,428.365 645.203,429.164C646.002,429.964 646.402,430.914 646.452,432.063L646.452,439.011C646.402,440.11 646.002,441.06 645.203,441.859C644.453,442.659 643.503,443.059 642.404,443.109C641.254,443.059 640.255,442.659 639.405,441.859C638.655,441.06 638.256,440.11 638.256,439.011L638.256,432.063C638.256,430.914 638.655,429.964 639.405,429.165L639.405,429.164ZM656.048,431.613C655.998,432.363 655.698,432.963 655.099,433.513C654.499,434.062 653.799,434.262 652.95,434.212C652.2,434.212 651.55,433.913 651.1,433.313C650.55,432.763 650.301,432.063 650.351,431.214C650.4,430.464 650.7,429.864 651.25,429.364C651.8,428.815 652.5,428.515 653.249,428.515C654.049,428.565 654.699,428.915 655.249,429.514C655.798,430.064 656.048,430.764 656.048,431.614L656.048,431.613ZM667.294,449.906C667.294,452.505 666.894,454.954 666.144,457.253C665.345,459.652 664.145,461.901 662.496,463.951C661.646,465 660.747,466.05 659.697,466.999C658.647,467.999 657.548,468.899 656.398,469.698C652.05,472.647 647.052,474.146 641.404,474.146C636.506,474.146 632.108,473.097 628.26,470.948C626.41,469.898 624.661,468.549 623.062,466.999C622.012,466.05 621.112,465 620.263,463.951C618.663,461.901 617.464,459.652 616.714,457.253C615.915,454.954 615.515,452.505 615.465,449.906C615.465,449.307 615.515,448.707 615.565,448.157L667.294,448.157C667.294,448.707 667.294,449.307 667.294,449.906Z" style="fill:rgb(255,181,162);fill-rule:nonzero;"/>
                <path d="M633.158,431.014C633.158,430.164 632.908,429.464 632.358,428.915C631.808,428.315 631.158,428.015 630.359,427.965C629.609,427.915 628.909,428.165 628.359,428.715C627.81,429.214 627.51,429.864 627.46,430.614C627.41,431.414 627.66,432.113 628.21,432.663C628.709,433.263 629.359,433.563 630.109,433.613C630.908,433.663 631.608,433.363 632.158,432.813C632.758,432.363 633.108,431.763 633.158,431.014Z" style="fill-rule:nonzero;"/>
                <path d="M642.404,428.015C641.254,427.965 640.255,428.365 639.405,429.164C638.655,429.964 638.256,430.914 638.256,432.063L638.256,439.011C638.256,440.11 638.655,441.06 639.405,441.859C640.255,442.659 641.254,443.059 642.404,443.109C643.503,443.059 644.453,442.659 645.203,441.859C646.002,441.06 646.402,440.11 646.452,439.011L646.452,432.063C646.402,430.914 646.002,429.964 645.203,429.165C644.453,428.365 643.503,427.965 642.404,428.015Z" style="fill:rgb(231,140,118);fill-rule:nonzero;"/>
                <path d="M655.099,433.513C655.698,432.963 655.998,432.363 656.048,431.613C656.048,430.764 655.798,430.064 655.249,429.514C654.699,428.915 654.049,428.565 653.249,428.515C652.5,428.515 651.8,428.815 651.25,429.364C650.701,429.864 650.401,430.464 650.351,431.214C650.301,432.063 650.551,432.763 651.1,433.313C651.55,433.913 652.2,434.212 652.95,434.212C653.799,434.262 654.499,434.063 655.099,433.513Z" style="fill-rule:nonzero;"/>
                <path d="M666.144,457.253C666.894,454.954 667.294,452.505 667.294,449.906C667.294,449.306 667.294,448.707 667.294,448.157L615.565,448.157C615.515,448.707 615.465,449.306 615.465,449.906C615.515,452.505 615.914,454.954 616.714,457.253L666.144,457.253Z" style="fill:white;fill-rule:nonzero;"/>
                <path d="M659.697,466.999C660.747,466.05 661.646,465 662.496,463.951C664.145,461.901 665.345,459.652 666.144,457.253L616.714,457.253C617.464,459.652 618.663,461.901 620.263,463.951C621.112,465 622.012,466.05 623.062,466.999C624.661,468.549 626.41,469.898 628.26,470.948C628.809,468.749 630.109,466.799 632.158,465.05C632.658,464.65 633.158,464.3 633.707,463.951C636.256,462.301 639.155,461.502 642.504,461.502C645.853,461.502 648.801,462.301 651.35,463.951C651.9,464.3 652.4,464.65 652.9,465.05C654.549,466.45 655.699,467.999 656.398,469.698C657.548,468.899 658.647,467.999 659.697,466.999Z" style="fill:rgb(175,74,62);fill-rule:nonzero;"/>
                <path d="M633.707,463.95C633.158,464.3 632.658,464.65 632.158,465.05C630.109,466.799 628.809,468.749 628.259,470.948C632.108,473.097 636.506,474.146 641.404,474.146C647.052,474.146 652.05,472.647 656.398,469.698C655.698,467.999 654.549,466.45 652.9,465.05C652.4,464.65 651.9,464.3 651.35,463.951C648.801,462.301 645.852,461.502 642.504,461.502C639.155,461.502 636.256,462.301 633.707,463.951L633.707,463.95Z" style="fill:rgb(227,121,96);fill-rule:nonzero;"/>
                <path d="M659.947,416.12C659.997,416.32 660.047,416.519 660.097,416.719C660.047,416.769 660.047,416.769 660.097,416.819C660.397,418.169 660.946,419.468 661.696,420.668C662.246,421.518 662.896,422.367 663.695,423.117C665.994,425.416 668.743,426.715 671.892,427.065L671.892,416.12L659.947,416.12Z" style="fill:rgb(102,51,51);fill-rule:nonzero;"/>
                <path d="M686.786,428.165L686.786,449.506C687.536,449.656 688.285,449.756 689.085,449.756C689.435,449.756 689.835,449.756 690.185,449.706C690.585,449.656 690.984,449.606 691.384,449.506C693.433,449.057 695.233,448.057 696.782,446.508C698.881,444.358 699.931,441.809 699.931,438.811C699.931,435.762 698.881,433.213 696.782,431.064C695.233,429.514 693.434,428.515 691.384,428.165C690.985,428.065 690.585,428.015 690.185,428.015C689.835,427.965 689.435,427.915 689.085,427.965C688.286,427.915 687.536,428.015 686.786,428.165Z" style="fill:rgb(234,152,133);fill-rule:nonzero;"/>
                <path d="M644.203,497.887L637.606,497.887C633.657,497.887 629.959,497.437 626.46,496.537C626.26,496.488 626.06,496.438 625.86,496.388L625.86,500.886C625.86,505.234 627.41,508.983 630.509,512.081C632.058,513.631 633.807,514.83 635.657,515.63C637.506,516.38 639.555,516.779 641.754,516.779C643.803,516.779 645.653,516.48 647.402,515.83C649.451,515.03 651.35,513.781 653.05,512.081C656.098,509.083 657.648,505.434 657.748,501.186C657.748,501.086 657.748,500.986 657.748,500.886L657.748,495.838C657.348,495.988 656.948,496.088 656.548,496.188C652.65,497.337 648.551,497.887 644.203,497.887Z" style="fill:rgb(255,157,138);fill-rule:nonzero;"/>
                <path d="M630.509,512.081C627.41,508.982 625.86,505.234 625.86,500.886L625.86,500.786C623.661,501.436 621.562,502.385 619.563,503.535C620.113,508.433 622.212,512.681 625.86,516.33C628.709,519.178 632.008,521.128 635.657,522.127L635.657,535.672C635.657,537.271 636.256,538.671 637.406,539.82C638.555,540.97 639.905,541.52 641.504,541.52C643.154,541.52 644.553,540.97 645.703,539.82C646.852,538.671 647.402,537.271 647.402,535.672L647.402,522.227C651.2,521.278 654.599,519.279 657.548,516.33C661.046,512.881 663.146,508.783 663.845,504.135C661.896,502.935 659.897,501.936 657.748,501.186C657.648,505.434 656.098,509.083 653.05,512.081C651.35,513.781 649.451,515.03 647.402,515.83C645.653,516.48 643.803,516.78 641.754,516.78C639.555,516.78 637.506,516.38 635.657,515.63C633.807,514.83 632.058,513.631 630.509,512.082L630.509,512.081Z" style="fill:rgb(255,102,0);fill-rule:nonzero;"/>
                <path d="M625.86,500.786L625.86,500.886L625.86,500.786Z" style="fill:rgb(255,153,0);fill-rule:nonzero;"/>
                <path d="M635.657,535.672L635.657,522.127C632.008,521.128 628.709,519.178 625.86,516.33C622.212,512.681 620.113,508.433 619.563,503.535C617.014,504.984 614.665,506.783 612.416,508.983C612.016,509.332 611.666,509.732 611.316,510.132C609.217,512.431 607.518,514.88 606.218,517.529L606.218,517.329C606.168,517.379 606.168,517.479 606.118,517.529C605.469,518.329 604.869,519.179 604.319,520.028C603.519,521.278 602.72,522.527 601.97,523.777C598.421,529.624 595.323,535.872 592.724,542.619C590.874,547.267 589.225,552.115 587.876,557.263C587.176,559.712 586.526,562.261 585.976,564.91C585.826,565.46 585.727,566.06 585.577,566.61L596.472,569.559C597.372,565.31 598.421,561.212 599.621,557.263C600.571,554.115 601.62,551.116 602.77,548.217L602.77,606.344L602.92,606.544L602.77,606.644L602.77,612.791L613.815,612.791C613.765,612.741 613.765,612.641 613.765,612.541L669.643,612.541C669.643,612.641 669.643,612.741 669.643,612.791L679.639,612.791L679.639,606.644L679.489,606.544L679.589,606.394L679.639,606.344L679.689,569.259C679.739,569.309 679.789,569.359 679.839,569.409L679.839,527.076C679.989,527.076 680.089,527.126 680.239,527.176C687.986,529.025 695.233,530.275 701.93,531.024L703.979,516.33C696.832,515.53 688.935,514.031 680.239,511.832C676.94,510.982 673.541,510.083 670.043,509.033C670.393,509.383 670.743,509.783 671.092,510.183L671.092,510.283C670.693,509.833 670.293,509.383 669.843,508.983C667.944,507.084 665.944,505.485 663.845,504.135C663.146,508.783 661.046,512.882 657.548,516.33C654.599,519.279 651.2,521.278 647.402,522.228L647.402,535.673C647.402,537.272 646.852,538.671 645.703,539.821C644.553,540.97 643.154,541.52 641.504,541.52C639.905,541.52 638.555,540.971 637.406,539.821C636.256,538.671 635.657,537.272 635.657,535.673L635.657,535.672Z" style="fill:rgb(255,153,0);fill-rule:nonzero;"/>
                <path d="M594.973,428.165C594.223,428.015 593.473,427.915 592.724,427.965C589.675,427.915 587.126,428.965 585.027,431.064C584.877,431.214 584.777,431.364 584.627,431.514C582.728,433.563 581.778,435.962 581.778,438.811C581.778,441.659 582.728,444.108 584.627,446.158C584.777,446.258 584.877,446.358 585.027,446.508C587.126,448.657 589.675,449.706 592.724,449.756C593.473,449.756 594.223,449.656 594.973,449.506L594.973,428.165Z" style="fill:rgb(234,152,133);fill-rule:nonzero;"/>
                <path d="M585.577,566.609C585.227,568.209 584.927,569.858 584.627,571.507C584.127,574.256 583.677,577.055 583.327,579.904C583.277,580.154 583.227,580.354 583.227,580.604C583.177,580.854 583.177,581.104 583.127,581.354C582.678,584.602 582.328,587.951 582.078,591.4C581.828,593.599 581.578,595.898 581.428,598.247C581.178,600.996 581.078,603.795 581.028,606.743L581.028,606.793C581.028,607.093 581.028,607.393 580.978,607.693C580.928,608.193 580.928,608.693 580.878,609.242C580.828,609.892 580.828,610.492 580.828,611.142C580.728,612.891 580.678,614.69 580.628,616.54C580.179,616.59 579.729,616.64 579.279,616.69C578.629,616.79 577.98,616.939 577.38,617.189C574.981,618.039 573.331,619.738 572.382,622.237C572.132,622.887 571.932,623.637 571.782,624.386C571.732,624.536 571.732,624.686 571.682,624.836L568.783,642.579C568.533,643.929 568.833,645.178 569.633,646.228C570.333,647.227 571.232,647.877 572.382,648.227C572.532,648.277 572.732,648.327 572.932,648.377L573.082,648.377C574.481,648.627 575.731,648.327 576.83,647.477C577.28,647.128 577.68,646.778 577.98,646.328C578.23,645.978 578.479,645.628 578.629,645.228C578.629,645.078 578.629,644.928 578.679,644.778C578.729,644.779 578.729,644.779 578.779,644.779C578.729,644.928 578.679,645.078 578.629,645.228C578.579,645.578 578.629,645.978 578.679,646.328C578.729,646.978 578.929,647.527 579.279,648.077C579.329,648.177 579.429,648.277 579.529,648.427C580.379,649.577 581.478,650.276 582.878,650.526L583.028,650.576C584.077,650.726 585.077,650.626 585.976,650.176C586.226,650.027 586.476,649.827 586.726,649.677C587.326,649.227 587.826,648.727 588.176,648.177L588.226,647.877L588.276,647.877L588.276,647.827C588.426,647.478 588.575,647.128 588.725,646.778C588.675,647.178 588.625,647.578 588.675,647.977L588.725,647.977C588.625,649.027 588.925,650.027 589.575,650.926C590.275,651.926 591.274,652.526 592.524,652.726L592.624,652.726C593.873,652.926 595.073,652.676 596.122,651.976C596.922,651.376 597.472,650.576 597.822,649.627L598.472,649.727L599.621,642.23L599.621,642.13L599.921,642.23L601.77,630.685C601.82,630.235 601.87,629.835 601.87,629.485C601.82,629.285 601.82,629.085 601.77,628.885C601.72,628.535 601.62,628.186 601.57,627.886L601.57,627.736L601.57,627.686C601.52,627.536 601.52,627.436 601.52,627.336L600.971,626.436L601.47,627.136C601.22,625.887 600.871,624.737 600.471,623.787L600.371,623.587C599.221,621.138 597.522,619.539 595.273,618.839C594.723,618.44 594.123,618.14 593.424,617.89L591.974,617.69C591.974,617.49 591.974,617.29 592.024,617.09C592.074,615.041 592.124,613.092 592.174,611.143C592.174,610.693 592.174,610.243 592.224,609.793C592.224,609.593 592.224,609.393 592.224,609.243C592.274,608.694 592.274,608.194 592.324,607.644C592.374,604.695 592.524,601.846 592.674,599.097C592.774,597.148 592.924,595.199 593.074,593.3C593.424,588.952 593.873,584.703 594.523,580.605C594.573,580.355 594.573,580.155 594.623,579.905C595.173,576.357 595.773,572.908 596.472,569.559L585.577,566.61L585.577,566.609ZM581.628,627.035C581.678,626.735 581.728,626.435 581.778,626.186C581.778,626.286 581.778,626.386 581.778,626.436L581.678,627.135L581.628,627.035Z" style="fill:rgb(255,181,162);fill-rule:nonzero;"/>
                <path d="M581.778,626.186C581.728,626.435 581.678,626.735 581.628,627.035L581.678,627.135L581.778,626.436C581.778,626.386 581.778,626.286 581.778,626.186Z" style="fill:white;fill-rule:nonzero;"/>
                <path d="M602.92,606.543L602.77,606.344L602.02,605.344L602.57,606.244C602.62,606.344 602.62,606.444 602.62,606.543L602.62,606.793L602.77,606.643L602.92,606.544L602.92,606.543Z" style="fill:rgb(244,166,150);fill-rule:nonzero;"/>
                <path d="M580.978,607.693C581.028,607.393 581.028,607.093 581.028,606.793L581.028,606.743C580.978,607.043 580.978,607.343 580.978,607.693Z" style="fill:rgb(255,153,0);fill-rule:nonzero;"/>
                <path d="M592.224,609.792L592.274,609.792L592.324,609.142L592.324,607.643C592.274,608.193 592.274,608.693 592.224,609.242C592.224,609.392 592.224,609.592 592.224,609.792Z" style="fill:rgb(255,153,0);fill-rule:nonzero;"/>
                <path d="M613.765,612.541C613.765,612.641 613.765,612.741 613.815,612.791C613.865,613.041 613.915,613.241 613.965,613.441C614.465,615.49 615.465,617.339 616.914,618.988C617.314,619.438 617.714,619.788 618.114,620.138C619.863,621.637 621.912,622.487 624.161,622.737L624.161,622.787L625.86,622.787L625.86,721.547L638.655,721.547L638.655,622.787L646.152,622.787L646.152,721.547L658.997,721.547L658.997,622.787L659.147,622.787C659.697,622.737 660.247,622.687 660.746,622.637L660.846,622.637C665.894,621.887 668.793,618.589 669.643,612.791C669.643,612.741 669.643,612.641 669.643,612.541L613.765,612.541Z" style="fill:rgb(0,102,153);fill-rule:nonzero;"/>
                <path d="M600.82,621.288C600.77,621.188 600.72,621.088 600.67,621.038C600.52,621.987 600.421,622.837 600.371,623.587L600.47,623.787L600.82,621.288Z" style="fill:rgb(253,219,218);fill-rule:nonzero;"/>
                <path d="M601.87,627.685L601.57,627.885C601.62,628.185 601.72,628.535 601.77,628.885C601.82,629.084 601.82,629.284 601.87,629.484C601.87,629.834 601.82,630.234 601.77,630.684L599.921,642.229L599.821,642.429L601.32,644.528C601.97,645.278 602.72,645.828 603.619,646.078C603.819,646.178 604.069,646.228 604.319,646.278L604.369,646.278C604.419,646.328 604.519,646.328 604.569,646.328C605.119,646.378 605.618,646.378 606.118,646.328C606.168,646.328 606.168,646.328 606.218,646.328C606.918,646.178 607.568,645.928 608.217,645.478L608.317,645.328C609.467,644.478 610.167,643.429 610.317,642.079C610.567,640.73 610.317,639.431 609.467,638.281L601.87,627.685Z" style="fill:rgb(255,157,138);fill-rule:nonzero;"/>
                <path d="M578.779,644.778C578.729,644.778 578.729,644.778 578.679,644.778C578.629,644.928 578.629,645.078 578.629,645.228C578.679,645.078 578.729,644.928 578.779,644.778Z" style="fill:white;fill-rule:nonzero;"/>
                <path d="M680.389,605.344L679.639,606.344L679.589,606.394L679.489,606.543L679.639,606.643L679.789,606.793L679.789,606.544C679.789,606.444 679.789,606.344 679.839,606.244L680.389,605.344Z" style="fill:rgb(244,166,150);fill-rule:nonzero;"/>
                <path d="M701.38,606.743L701.33,606.793C701.33,607.093 701.33,607.393 701.38,607.693C701.38,607.343 701.38,607.043 701.38,606.743Z" style="fill:rgb(255,153,0);fill-rule:nonzero;"/>
                <path d="M700.581,626.186C700.581,626.286 700.581,626.385 700.63,626.435L700.73,627.135L700.73,627.035C700.68,626.735 700.63,626.435 700.581,626.186Z" style="fill:white;fill-rule:nonzero;"/>
                <path d="M690.035,608.543C690.035,608.743 690.035,608.942 690.085,609.142L690.135,609.792L690.185,609.792C690.135,609.592 690.135,609.392 690.135,609.242C690.135,608.693 690.135,608.193 690.085,607.643L690.035,607.643C690.035,607.943 690.035,608.243 690.035,608.543Z" style="fill:rgb(255,153,0);fill-rule:nonzero;"/>
                <path d="M682.038,623.587C681.938,622.837 681.838,621.987 681.688,621.038C681.638,621.088 681.588,621.188 681.538,621.288L681.888,623.787L682.038,623.587Z" style="fill:rgb(253,219,218);fill-rule:nonzero;"/>
                <path d="M678.389,617.939C678.289,617.189 678.189,616.389 678.09,615.44C678.04,615.54 677.94,615.64 677.89,615.74L678.289,618.189L678.389,617.939Z" style="fill:rgb(253,219,218);fill-rule:nonzero;"/>
                <path d="M638.655,721.597L625.86,721.597L625.86,741.19L638.655,741.19L638.655,721.597Z" style="fill:rgb(0,102,153);fill-rule:nonzero;"/>
                <rect x="628.06" y="741.19" width="8.646" height="3.898" style="fill:rgb(234,152,133);fill-rule:nonzero;"/>
                <path d="M639.055,745.088L636.706,745.088L628.06,745.088L622.162,745.088C619.013,741.739 615.315,740.04 611.017,740.04C606.368,740.04 602.37,741.989 599.021,745.938C597.172,748.137 595.873,750.636 595.073,753.385L639.055,753.385L639.055,745.088Z" style="fill:rgb(42,34,75);fill-rule:nonzero;"/>
                <path d="M639.055,758.033L639.055,753.385L595.073,753.385C594.873,753.885 594.723,754.384 594.623,754.884C594.373,755.884 594.223,756.933 594.173,758.033L639.055,758.033Z" style="fill:rgb(255,204,0);fill-rule:nonzero;"/>
                <path d="M658.997,721.597L646.152,721.597L646.152,741.19L658.997,741.19L658.997,721.597Z" style="fill:rgb(0,102,153);fill-rule:nonzero;"/>
                <path d="M690.684,758.033C690.585,756.933 690.385,755.884 690.135,754.834C690.035,754.334 689.935,753.834 689.785,753.385L645.753,753.385L645.753,758.033L690.685,758.033L690.684,758.033Z" style="fill:rgb(177,142,1);fill-rule:nonzero;"/>
                <path d="M689.785,753.385C689.085,750.936 687.986,748.737 686.436,746.687C686.236,746.438 686.036,746.188 685.836,745.938C682.538,741.989 678.539,740.04 673.891,740.04C669.543,740.04 665.794,741.739 662.646,745.088L656.798,745.088L648.152,745.088L645.753,745.088L645.753,753.385L689.785,753.385Z" style="fill:rgb(42,34,75);fill-rule:nonzero;"/>
                <rect x="648.151" y="741.19" width="8.647" height="3.898" style="fill:rgb(234,152,133);fill-rule:nonzero;"/>
                <path d="M703.729,645.228C703.729,645.078 703.729,644.928 703.729,644.778C703.679,644.778 703.629,644.778 703.629,644.778C703.679,644.928 703.679,645.078 703.729,645.228Z" style="fill:white;fill-rule:nonzero;"/>
            </g>
        </g>
    </g>
</svg>
