<?xml version="1.0" encoding="UTF-8" standalone="no"?>
<!DOCTYPE svg PUBLIC "-//W3C//DTD SVG 1.1//EN" "http://www.w3.org/Graphics/SVG/1.1/DTD/svg11.dtd">
<svg width="100%" height="100%" viewBox="0 0 190 206" version="1.1" xmlns="http://www.w3.org/2000/svg" xmlns:xlink="http://www.w3.org/1999/xlink" xml:space="preserve" style="fill-rule:evenodd;clip-rule:evenodd;stroke-linecap:round;stroke-linejoin:round;stroke-miterlimit:1.41421;">
    <g transform="matrix(1,0,0,1,-1599,-38)">
        <g transform="matrix(1,0,0,1,0,-162)">
            <g id="Ninja-Female-1-Tablet" transform="matrix(1,0,0,1,1449.74,-8.60535)">
                <path d="M283.884,361.034L296.992,361.034C296.275,370.034 292.623,377.859 285.971,384.511C278.601,391.881 269.667,395.598 259.298,395.598C248.929,395.598 239.994,391.881 232.56,384.511C225.19,377.077 221.473,368.142 221.473,357.773L221.473,329.079C221.473,327.318 222.125,325.753 223.364,324.514C224.669,323.209 226.234,322.557 227.995,322.557C229.755,322.557 231.321,323.209 232.56,324.514C233.864,325.753 234.516,327.318 234.516,329.079L234.516,357.773C234.516,364.621 236.929,370.425 241.755,375.316C246.646,380.142 252.45,382.555 259.298,382.555C266.145,382.555 271.949,380.142 276.775,375.316C280.884,371.207 283.232,366.447 283.884,361.034Z" style="fill:rgb(135,44,89);fill-rule:nonzero;"/>
                <path d="M150.203,258.19C150.333,256.82 150.529,255.451 150.725,254.146C151.181,251.603 151.899,249.19 152.812,246.777C155.225,240.647 159.137,234.778 164.616,229.104C169.637,223.887 175.246,219.713 181.376,216.517C183.528,215.409 185.81,214.365 188.093,213.518C191.745,212.083 195.527,210.974 199.505,210.192C213.135,207.518 224.809,209.213 234.461,215.344C239.613,218.604 243.33,222.582 245.678,227.343C247.83,231.517 248.873,236.278 248.873,241.56C248.873,244.103 248.612,246.647 248.156,249.19C247.764,245.603 246.917,242.277 245.678,239.082C245.156,237.582 244.504,236.147 243.786,234.778C243.721,234.712 243.721,234.582 243.656,234.517C243.591,234.386 243.525,234.256 243.46,234.191C243.395,234.256 243.33,234.386 243.265,234.451C243.265,234.582 243.199,234.712 243.134,234.778C240.917,238.625 238.047,242.342 234.461,245.995C224.809,255.907 213.135,262.233 199.505,264.972C195.527,265.689 191.745,266.081 188.093,266.146C187.375,266.146 186.593,266.146 185.876,266.146C185.028,266.081 184.18,266.015 183.332,265.95C180.658,265.689 178.05,265.233 175.506,264.581C175.441,264.516 175.441,264.516 175.376,264.516C174.072,264.124 172.767,263.668 171.528,263.211L171.528,371.598L171.919,373.359L150.203,373.359L150.203,287.602C150.79,287.797 150.79,280.037 150.333,264.45C150.268,264.45 150.268,264.45 150.203,264.515L150.203,258.19ZM161.355,251.864L161.355,252.255L161.355,251.864ZM161.42,257.212L161.29,257.342C161.355,257.407 161.355,257.407 161.42,257.472L161.42,257.733L161.746,257.733C161.616,257.668 161.485,257.538 161.42,257.472L161.42,257.212ZM164.289,266.994C161.355,266.929 158.811,267.972 156.725,270.059C154.638,272.146 153.594,274.689 153.594,277.624C153.594,280.558 154.638,283.102 156.725,285.189C158.811,287.276 161.355,288.319 164.289,288.319C164.746,288.319 165.137,288.319 165.594,288.254L165.594,266.994C165.137,266.928 164.746,266.928 164.289,266.994Z" style="fill:rgb(254,207,5);fill-rule:nonzero;"/>
                <path d="M161.29,257.342L161.42,257.212L161.42,257.472C161.355,257.407 161.355,257.407 161.29,257.342Z" style="fill:white;fill-rule:nonzero;"/>
                <path d="M161.42,257.472C161.485,257.538 161.616,257.668 161.746,257.733L161.42,257.733L161.42,257.472Z" style="fill:rgb(140,80,55);fill-rule:nonzero;"/>
                <path d="M156.725,270.059C158.811,267.972 161.355,266.929 164.289,266.994C164.746,266.929 165.137,266.929 165.594,266.994L165.594,288.254C165.137,288.319 164.746,288.319 164.289,288.319C161.355,288.319 158.811,287.276 156.725,285.189C154.638,283.102 153.594,280.558 153.594,277.624C153.594,274.689 154.638,272.146 156.725,270.059Z" style="fill:rgb(253,219,218);fill-rule:nonzero;"/>
                <path d="M188.093,266.146C191.745,266.081 195.527,265.69 199.506,264.972C213.135,262.233 224.809,255.907 234.461,245.995C238.048,242.343 240.917,238.625 243.134,234.778L243.46,234.582L243.786,234.778C244.504,236.147 245.156,237.582 245.678,239.082C246.917,242.277 247.765,245.603 248.156,249.19C248.351,250.951 248.482,252.777 248.417,254.668C248.417,255.125 248.417,255.581 248.417,256.038L248.351,256.038L248.417,287.145C248.482,294.514 246.004,301.036 241.047,306.71C240.33,307.623 239.482,308.536 238.569,309.383C238.243,309.71 237.852,310.036 237.46,310.362C237.004,310.753 236.547,311.144 236.091,311.536C234.33,312.905 232.504,314.209 230.613,315.318C226.7,317.666 222.396,319.361 217.766,320.405L217.896,330.187L185.875,329.535L185.875,319.818C181.31,318.709 177.071,317.014 173.093,314.731C172.572,314.405 172.05,314.079 171.528,313.753L171.528,263.211C172.767,263.668 174.072,264.124 175.376,264.516L175.376,264.581L175.506,264.581C178.05,265.233 180.658,265.689 183.332,265.95C184.18,266.015 185.028,266.081 185.875,266.146C186.593,266.146 187.375,266.146 188.093,266.146Z" style="fill:rgb(253,219,218);fill-rule:nonzero;"/>
                <path d="M175.506,264.581L175.376,264.581L175.376,264.516C175.441,264.516 175.441,264.516 175.506,264.581Z" style="fill:rgb(194,131,98);fill-rule:nonzero;"/>
                <path d="M243.786,234.778L243.46,234.582L243.134,234.778C243.199,234.712 243.265,234.582 243.265,234.452C243.33,234.386 243.395,234.256 243.46,234.191C243.526,234.256 243.591,234.386 243.656,234.517C243.721,234.582 243.721,234.712 243.786,234.778Z" style="fill:rgb(194,131,98);fill-rule:nonzero;"/>
                <path d="M238.569,309.383C239.482,308.536 240.33,307.623 241.047,306.71L241.047,374.794L236.548,374.859L236.482,363.186C236.548,360.642 236.287,358.164 235.7,355.882C234.395,350.208 231.526,345.252 227.091,340.882C224.287,338.078 221.222,335.991 217.896,334.491L217.896,330.187L217.766,320.405C222.396,319.361 226.7,317.666 230.613,315.318C232.504,314.209 234.33,312.905 236.091,311.536C236.548,311.144 237.004,310.753 237.461,310.362C237.852,310.036 238.243,309.71 238.569,309.383Z" style="fill:rgb(253,175,23);fill-rule:nonzero;"/>
                <path d="M217.896,330.187L217.896,334.491C221.222,335.991 224.287,338.078 227.091,340.882C231.526,345.252 234.395,350.208 235.7,355.882C236.287,358.164 236.548,360.642 236.482,363.186L236.548,374.859L236.613,381.25L236.678,381.25L236.678,403.749C236.678,403.489 236.678,403.228 236.743,402.967L236.743,412.162L210.788,412.162L210.657,337.491L210.788,412.162L178.506,412.162L178.441,361.49L178.441,335.078C179.941,335.209 181.832,335.274 184.18,335.339L184.115,329.535L185.875,329.535L217.896,330.187ZM208.831,336.578C208.896,336.969 208.962,337.295 209.092,337.622C209.157,337.622 209.157,337.622 209.157,337.687L209.157,335.209C208.962,335.6 208.831,336.056 208.831,336.578Z" style="fill:rgb(240,110,170);fill-rule:nonzero;"/>
                <path d="M209.092,337.622C208.962,337.295 208.896,336.969 208.831,336.578C208.831,336.056 208.962,335.6 209.157,335.209L209.157,337.687C209.157,337.622 209.157,337.622 209.092,337.622Z" style="fill:rgb(205,94,145);fill-rule:nonzero;"/>
                <path d="M185.876,319.818L185.876,329.535L184.115,329.535L184.18,335.339C181.832,335.274 179.941,335.209 178.441,335.078L178.441,361.49L178.376,358.034C178.311,362.273 178.376,367.425 178.441,373.359L171.92,373.359L171.528,371.598L171.528,313.753C172.05,314.079 172.572,314.405 173.093,314.731C177.072,317.014 181.311,318.709 185.876,319.818Z" style="fill:rgb(253,175,23);fill-rule:nonzero;"/>
                <path d="M248.482,266.994C250.895,267.255 252.917,268.298 254.677,270.059C256.764,272.146 257.808,274.689 257.808,277.624C257.873,279.58 257.416,281.341 256.503,282.906C256.047,283.689 255.395,284.471 254.677,285.189C252.917,286.949 250.895,287.993 248.482,288.254L248.482,266.994Z" style="fill:rgb(247,172,167);fill-rule:nonzero;"/>
                <path d="M210.657,337.491L210.788,412.162" style="fill:none;stroke:rgb(205,94,145);stroke-width:3.91px;"/>
                <path d="M206.248,276.505C206.523,275.798 206.915,275.169 207.465,274.619C208.486,273.638 209.704,273.127 211.118,273.127C212.532,273.127 213.75,273.638 214.732,274.62C215.321,275.169 215.714,275.798 215.949,276.505" style="fill:none;stroke:rgb(140,80,55);stroke-width:2.36px;"/>
                <path d="M223.941,276.505C224.216,275.798 224.608,275.169 225.158,274.619C226.179,273.638 227.397,273.127 228.811,273.127C230.225,273.127 231.443,273.638 232.425,274.62C233.014,275.169 233.407,275.798 233.642,276.505" style="fill:none;stroke:rgb(140,80,55);stroke-width:2.36px;"/>
                <path d="M213.783,284.361C214.118,285.221 214.595,285.986 215.264,286.655C216.507,287.849 217.988,288.471 219.708,288.471C221.429,288.471 222.91,287.849 224.105,286.655C224.821,285.986 225.299,285.221 225.586,284.361" style="fill:none;stroke:rgb(231,140,118);stroke-width:2.87px;"/>
                <path d="M249.446,304.414C243.12,304.61 239.99,307.936 239.925,314.392L239.925,366.108C239.99,372.564 243.12,375.955 249.446,376.151L245.794,376.151C239.142,376.085 235.816,372.76 235.751,366.108L235.751,314.392C235.816,307.74 239.142,304.414 245.794,304.414L249.446,304.414Z" style="fill:rgb(115,115,117);fill-rule:nonzero;"/>
                <path d="M239.925,314.392C239.99,307.936 243.12,304.61 249.446,304.414L328.747,304.414C335.399,304.414 338.725,307.74 338.725,314.392L338.725,366.108C338.725,372.759 335.399,376.085 328.747,376.151L249.446,376.151C243.12,375.955 239.99,372.564 239.925,366.107L239.925,314.392ZM294.575,344.326C295.683,343.413 296.205,342.304 296.14,341C296.205,339.761 295.683,338.652 294.575,337.804C293.531,336.891 292.292,336.435 290.858,336.435C289.423,336.435 288.184,336.891 287.075,337.804C286.032,338.652 285.51,339.761 285.51,341C285.51,342.304 286.032,343.413 287.075,344.326C288.184,345.239 289.423,345.695 290.858,345.695C292.292,345.695 293.531,345.239 294.575,344.326Z" style="fill:rgb(36,35,77);fill-rule:nonzero;"/>
                <path d="M296.14,341C296.205,342.304 295.683,343.413 294.575,344.326C293.531,345.239 292.292,345.695 290.858,345.695C289.423,345.695 288.184,345.239 287.075,344.326C286.032,343.413 285.51,342.304 285.51,341C285.51,339.761 286.032,338.652 287.075,337.804C288.184,336.891 289.423,336.435 290.858,336.435C292.292,336.435 293.531,336.891 294.575,337.804C295.683,338.652 296.205,339.761 296.14,341Z" style="fill:rgb(115,115,117);fill-rule:nonzero;"/>
                <path d="M171.37,337.537C171.37,335.776 172.022,334.211 173.261,332.972C174.566,331.668 176.131,331.015 177.892,331.015C179.652,331.016 181.218,331.668 182.457,332.972C183.761,334.211 184.413,335.776 184.413,337.537L184.413,357.623C184.413,364.471 186.826,370.275 191.652,375.166C196.543,379.992 202.347,382.405 209.195,382.405C216.042,382.405 221.846,379.992 226.672,375.166C230.781,371.058 233.129,366.297 233.781,360.884L246.889,360.884C246.172,369.884 242.52,377.71 235.868,384.361C228.498,391.731 219.564,395.448 209.195,395.448C198.826,395.448 189.891,391.731 182.457,384.361C175.087,376.927 171.37,367.992 171.37,357.623L171.37,337.537Z" style="fill:rgb(205,94,145);fill-rule:nonzero;"/>
                <path d="M233.781,336.689C233.846,336.494 233.911,336.298 233.976,336.102C234.042,335.907 234.107,335.776 234.172,335.646C234.498,333.298 235.933,331.472 238.476,330.168C239.063,329.842 239.65,329.581 240.302,329.32L239.715,329.907L240.302,329.385L240.433,329.255C240.498,329.19 240.628,329.19 240.759,329.19L240.824,329.124C241.15,329.059 241.411,328.929 241.737,328.863C241.933,328.798 242.063,328.733 242.193,328.733C242.52,328.668 242.846,328.603 243.172,328.603L253.019,328.603L253.019,328.798C253.084,328.733 253.15,328.668 253.215,328.603L258.302,328.603C259.541,328.603 260.519,329.059 261.301,329.907C262.149,330.69 262.606,331.668 262.606,332.907L262.606,332.972C262.606,334.146 262.149,335.189 261.301,336.037C260.519,336.82 259.541,337.211 258.302,337.276C259.41,337.341 260.388,337.733 261.106,338.581C261.301,338.711 261.432,338.907 261.562,339.102C262.084,339.754 262.345,340.537 262.345,341.515L262.345,341.646C262.345,342.82 261.954,343.863 261.106,344.711C260.388,345.428 259.475,345.82 258.432,345.885C258.367,345.82 258.236,345.82 258.106,345.82C258.106,345.885 258.106,345.885 258.041,345.95C258.236,345.885 258.367,345.885 258.432,345.885C259.28,346.08 259.997,346.472 260.584,347.124C261.432,347.907 261.888,348.885 261.888,350.124L261.888,350.254C261.888,351.428 261.432,352.472 260.584,353.319C259.801,354.102 258.823,354.493 257.584,354.493L247.019,354.493L247.019,357.624C247.019,358.732 246.954,359.776 246.889,360.884L233.781,360.885C233.911,359.841 233.976,358.732 233.976,357.624L233.781,336.69L233.781,336.689Z" style="fill:rgb(253,219,218);fill-rule:nonzero;"/>
            </g>
        </g>
    </g>
</svg>
