<?xml version="1.0" encoding="UTF-8" standalone="no"?>
<!DOCTYPE svg PUBLIC "-//W3C//DTD SVG 1.1//EN" "http://www.w3.org/Graphics/SVG/1.1/DTD/svg11.dtd">
<svg width="100%" height="100%" viewBox="0 0 233 186" version="1.1" xmlns="http://www.w3.org/2000/svg" xmlns:xlink="http://www.w3.org/1999/xlink" xml:space="preserve" style="fill-rule:evenodd;clip-rule:evenodd;stroke-linecap:round;stroke-linejoin:round;stroke-miterlimit:1.41421;">
    <g transform="matrix(1,0,0,1,-1578,-299)">
        <g transform="matrix(1,0,0,1,0,-162)">
            <g id="Ninja-Female-1-Laptop-Sitting" transform="matrix(1,0,0,1,1100.47,246.936)">
                <path d="M568.729,232.6C566.426,228.057 562.879,224.261 557.963,221.149C548.752,215.299 537.675,213.681 524.668,216.233C520.872,216.979 517.2,218.037 513.777,219.406C511.537,220.216 509.421,221.211 507.367,222.269C501.455,225.319 496.165,229.302 491.373,234.28C486.083,239.695 482.349,245.296 480.047,251.145C479.175,253.448 478.553,255.751 478.117,258.178C477.869,259.422 477.682,260.729 477.62,262.036L477.62,268.073C477.62,268.011 477.682,268.011 477.744,268.011C478.18,282.884 478.117,290.29 477.62,290.103L477.62,371.94L498.281,371.94L497.908,370.26L497.97,315.059L497.97,266.828C499.152,267.264 500.335,267.7 501.642,268.073C501.641,268.073 501.641,268.073 501.704,268.135C504.131,268.758 506.62,269.193 509.234,269.442C510.043,269.504 510.852,269.567 511.661,269.629C512.346,269.629 513.03,269.629 513.777,269.629C517.2,269.567 520.871,269.193 524.668,268.509C537.674,265.895 548.752,259.858 557.962,250.399C561.385,246.914 564.123,243.367 566.302,239.695C566.364,239.633 566.364,239.508 566.426,239.384C566.488,239.321 566.551,239.197 566.613,239.135C566.675,239.197 566.737,239.321 566.799,239.446C566.799,239.508 566.799,239.633 566.862,239.695C567.546,241.002 568.169,242.371 568.729,243.802C569.911,246.852 570.658,250.026 571.031,253.448C571.467,251.021 571.716,248.594 571.716,246.167C571.716,241.126 570.72,236.583 568.729,232.6ZM488.199,256.373L488.199,256L488.262,256.373L488.199,256.373ZM488.262,261.352C488.386,261.414 488.51,261.538 488.573,261.6L488.262,261.6L488.262,261.352C488.199,261.289 488.199,261.289 488.137,261.227L488.262,261.103L488.262,261.352ZM491,270.438C491.435,270.375 491.871,270.375 492.307,270.438L492.307,290.726C491.871,290.788 491.435,290.788 491,290.788C488.199,290.788 485.772,289.792 483.781,287.801C481.789,285.809 480.794,283.382 480.794,280.582C480.794,277.781 481.789,275.354 483.781,273.363C485.772,271.371 488.199,270.375 491,270.438Z" style="fill:rgb(254,207,5);fill-rule:nonzero;"/>
                <path d="M488.573,261.6C488.51,261.538 488.386,261.414 488.262,261.352L488.262,261.6L488.573,261.6Z" style="fill:rgb(140,80,55);fill-rule:nonzero;"/>
                <path d="M488.137,261.227C488.199,261.289 488.199,261.289 488.262,261.352L488.262,261.103L488.137,261.227Z" style="fill:white;fill-rule:nonzero;"/>
                <path d="M492.307,270.438C491.871,270.375 491.435,270.375 491,270.438C488.199,270.375 485.772,271.371 483.781,273.363C481.789,275.354 480.794,277.781 480.794,280.582C480.794,283.382 481.789,285.809 483.781,287.801C485.772,289.792 488.199,290.788 491,290.788C491.435,290.788 491.871,290.788 492.307,290.726L492.307,270.438Z" style="fill:rgb(253,219,218);fill-rule:nonzero;"/>
                <path d="M566.426,239.383C566.364,239.508 566.364,239.632 566.302,239.694L566.613,239.508L566.862,239.694C566.8,239.632 566.8,239.508 566.8,239.445C566.737,239.321 566.675,239.197 566.613,239.134C566.551,239.197 566.489,239.321 566.426,239.383Z" style="fill:rgb(194,131,98);fill-rule:nonzero;"/>
                <path d="M566.862,239.694L566.613,239.508L566.302,239.694C564.124,243.366 561.385,246.913 557.963,250.399C548.752,259.858 537.675,265.895 524.668,268.508C520.872,269.193 517.2,269.566 513.777,269.629C513.03,269.629 512.346,269.629 511.661,269.629C510.852,269.566 510.043,269.504 509.234,269.442C506.62,269.193 504.131,268.757 501.704,268.135L501.642,268.135L501.642,268.073C500.335,267.699 499.152,267.264 497.97,266.828L497.97,315.059C498.405,315.37 498.903,315.681 499.401,315.992C503.197,318.171 507.242,319.789 511.661,320.847L511.661,330.119L542.155,330.742L542.093,321.407C546.511,320.411 550.557,318.793 554.353,316.552C556.158,315.495 557.838,314.25 559.518,312.943C559.954,312.57 560.452,312.196 560.887,311.823C561.198,311.512 561.572,311.201 561.883,310.889C562.754,310.08 563.563,309.209 564.31,308.338C568.978,302.924 571.342,296.7 571.342,289.668L571.218,259.983L571.28,259.983C571.28,259.547 571.28,259.111 571.342,258.676C571.342,256.871 571.218,255.129 571.031,253.448C570.658,250.026 569.911,246.852 568.729,243.802C568.169,242.371 567.546,241.002 566.862,239.695L566.862,239.694Z" style="fill:rgb(253,219,218);fill-rule:nonzero;"/>
                <path d="M564.31,308.338C563.564,309.209 562.755,310.08 561.883,310.889C561.572,311.2 561.199,311.511 560.888,311.823C560.452,312.196 559.954,312.569 559.518,312.943C557.838,314.25 556.158,315.494 554.353,316.552C550.557,318.793 546.512,320.411 542.093,321.407L542.155,330.742L542.155,334.849C545.329,336.28 548.254,338.272 550.93,340.948C555.162,345.117 557.9,349.847 559.207,355.261C559.705,357.44 559.954,359.804 559.954,362.232L559.954,369.388C560.016,369.451 560.141,369.513 560.203,369.575C560.763,370.011 561.261,370.446 561.759,371.006C562.506,371.753 563.19,372.5 563.75,373.309L564.31,373.309L564.31,369.575L564.31,308.338Z" style="fill:rgb(253,175,23);fill-rule:nonzero;"/>
                <path d="M581.3,371.006C581.86,370.446 582.358,370.011 582.918,369.575L564.31,369.575L564.31,373.309L563.937,373.496C565.928,376.421 566.986,379.719 567.049,383.453L567.049,384.324L576.072,384.324C576.01,384.138 576.01,383.951 576.072,383.764C576.01,383.64 576.01,383.515 576.072,383.453C576.135,378.599 577.877,374.429 581.3,371.006Z" style="fill:rgb(240,110,170);fill-rule:nonzero;"/>
                <path d="M582.918,369.575C582.358,370.011 581.86,370.446 581.3,371.006C577.877,374.429 576.135,378.599 576.072,383.453C576.01,383.515 576.01,383.64 576.072,383.764C576.01,383.951 576.01,384.138 576.072,384.324L612.043,384.324C612.043,384.138 612.043,383.951 612.105,383.764C612.105,383.64 612.105,383.515 612.105,383.453C612.043,378.599 610.238,374.429 606.816,371.006C606.256,370.446 605.633,369.886 605.073,369.451C604.824,369.264 604.575,369.139 604.389,368.953C602.397,367.521 600.219,366.588 597.916,366.152L593.435,365.779C589.826,365.841 586.59,366.899 583.789,368.953C583.478,369.14 583.229,369.388 582.918,369.575Z" style="fill:rgb(247,172,167);fill-rule:nonzero;"/>
                <path d="M559.207,355.261C557.9,349.847 555.162,345.117 550.93,340.948C548.254,338.272 545.329,336.28 542.155,334.849L542.155,330.742L511.661,330.119L509.981,330.119C509.981,343.748 509.981,357.44 509.981,371.131L498.281,371.94L492.867,371.94L492.867,399.447L533.567,399.447L533.505,384.324L531.016,384.324L531.016,383.453C531.078,380.155 531.949,377.23 533.505,374.616L533.38,337.712C533.38,337.463 533.443,337.214 533.567,337.027C533.505,336.965 533.505,336.903 533.505,336.841C533.505,336.343 533.629,335.907 533.816,335.534L533.816,336.529C533.878,336.467 533.878,336.467 533.94,336.405C534.314,336.032 534.749,335.845 535.247,335.845C535.745,335.845 536.181,336.032 536.554,336.405C536.928,336.779 537.114,337.214 537.114,337.712L537.239,370.135C537.425,369.949 537.674,369.762 537.923,369.575C540.164,367.833 542.964,366.588 546.262,365.779C546.698,365.717 547.632,365.717 549.063,365.779C551.614,365.717 554.042,366.215 556.282,367.211C557.589,367.771 558.771,368.455 559.954,369.389L559.954,362.232C559.954,359.805 559.705,357.44 559.207,355.262L559.207,355.261Z" style="fill:rgb(240,110,170);fill-rule:nonzero;"/>
                <path d="M533.505,336.84C533.505,336.903 533.505,336.965 533.567,337.027C533.443,337.214 533.38,337.463 533.38,337.712L533.505,374.616C534.252,373.309 535.185,372.127 536.305,371.006C536.617,370.695 536.928,370.446 537.239,370.135L537.114,337.712C537.114,337.214 536.928,336.778 536.554,336.405C536.181,336.031 535.745,335.845 535.247,335.845C534.749,335.845 534.314,336.031 533.94,336.405C533.878,336.467 533.878,336.467 533.816,336.529L533.816,335.534C533.629,335.907 533.505,336.343 533.505,336.841L533.505,336.84Z" style="fill:rgb(205,94,145);fill-rule:nonzero;"/>
                <path d="M546.263,365.779C542.965,366.588 540.164,367.832 537.924,369.575C537.675,369.762 537.426,369.948 537.239,370.135C536.928,370.446 536.617,370.695 536.305,371.006C535.185,372.127 534.252,373.309 533.505,374.616C531.949,377.23 531.078,380.155 531.016,383.453L531.016,384.324L567.048,384.324L567.048,383.453C566.986,379.719 565.928,376.421 563.937,373.496C563.875,373.434 563.812,373.371 563.75,373.309C563.19,372.5 562.505,371.753 561.759,371.006C561.261,370.446 560.763,370.011 560.203,369.575C560.141,369.513 560.016,369.451 559.954,369.388C558.771,368.455 557.589,367.77 556.282,367.21C554.042,366.215 551.615,365.717 549.063,365.779C547.632,365.717 546.698,365.717 546.263,365.779Z" style="fill:rgb(253,219,218);fill-rule:nonzero;"/>
                <path d="M537.239,384.324L533.505,384.324L533.567,399.447L537.301,399.447L537.239,384.324Z" style="fill:rgb(205,94,145);fill-rule:nonzero;"/>
                <path d="M560.079,384.324L537.239,384.324L537.301,399.447L560.079,399.447L560.079,384.324Z" style="fill:rgb(240,110,170);fill-rule:nonzero;"/>
                <path d="M501.704,268.135L501.642,268.073L501.642,268.135L501.704,268.135Z" style="fill:rgb(194,131,98);fill-rule:nonzero;"/>
                <path d="M499.401,315.992C498.903,315.681 498.406,315.37 497.97,315.059L497.908,370.26L498.281,371.94L509.981,371.131C509.981,357.44 509.981,343.748 509.981,330.119L511.661,330.119L511.661,320.847C507.243,319.789 503.197,318.171 499.401,315.992Z" style="fill:rgb(253,175,23);fill-rule:nonzero;"/>
                <path d="M571.343,270.438L571.343,290.726C573.645,290.477 575.637,289.481 577.317,287.801C578.002,287.116 578.562,286.369 579.06,285.622C579.869,284.129 580.304,282.449 580.304,280.582C580.242,277.781 579.246,275.354 577.317,273.363C575.637,271.682 573.645,270.687 571.343,270.438Z" style="fill:rgb(247,172,167);fill-rule:nonzero;"/>
                <path d="M629.248,293.569L621.078,293.569C619.697,293.856 618.432,294.317 617.281,295.065C614.462,296.791 612.275,299.898 610.722,304.385L592.771,380.216C592.598,380.849 592.714,381.482 593.001,382.057C593.289,382.69 593.749,383.093 594.267,383.266C594.325,383.323 594.382,383.323 594.44,383.323L594.957,383.323C595.13,383.266 595.36,383.208 595.59,383.093C595.705,383.151 595.82,383.208 595.993,383.266C596.051,383.323 596.108,383.323 596.166,383.323L596.683,383.323C596.971,383.266 597.201,383.151 597.489,382.978C598.007,382.69 598.409,382.23 598.582,381.597L616.59,305.363C619.064,297.654 623.322,293.741 629.248,293.569Z" style="fill:rgb(115,115,117);fill-rule:nonzero;"/>
                <path d="M702.605,293.569L629.248,293.569C623.322,293.741 619.065,297.654 616.591,305.363L598.582,381.597C598.41,382.23 598.007,382.69 597.489,382.978C597.201,383.151 596.971,383.266 596.684,383.323L687.761,383.323C688.624,383.323 689.43,383.496 690.178,383.899C690.178,383.668 690.178,383.438 690.235,383.208L709.797,300.703C710.258,296.158 707.841,293.799 702.605,293.569ZM663.712,331.829C662.273,333.038 660.547,333.671 658.534,333.671C656.52,333.671 654.794,333.038 653.355,331.829C651.917,330.564 651.169,329.01 651.169,327.227C651.169,325.443 651.917,324.005 653.356,322.796C654.794,321.531 656.52,320.898 658.534,320.898C660.547,320.898 662.273,321.531 663.712,322.796C665.15,324.005 665.841,325.443 665.841,327.227C665.841,329.01 665.15,330.564 663.712,331.83L663.712,331.829Z" style="fill:rgb(36,35,77);fill-rule:nonzero;"/>
                <path d="M658.534,333.671C660.547,333.671 662.273,333.038 663.712,331.829C665.15,330.564 665.841,329.01 665.841,327.227C665.841,325.443 665.15,324.005 663.712,322.796C662.273,321.531 660.547,320.898 658.534,320.898C656.52,320.898 654.794,321.531 653.355,322.796C651.917,324.005 651.169,325.443 651.169,327.227C651.169,329.01 651.917,330.564 653.356,331.83C654.794,333.038 656.52,333.671 658.534,333.671Z" style="fill:rgb(204,204,204);fill-rule:nonzero;"/>
                <path d="M692.594,397.247C693.918,395.693 694.55,393.795 694.55,391.551L694.55,391.436C694.608,389.422 694.033,387.638 692.939,386.2C692.824,386.027 692.709,385.855 692.594,385.682C691.846,384.819 691.041,384.244 690.178,383.899C689.43,383.496 688.624,383.323 687.761,383.323L596.683,383.323L596.166,383.323L594.957,383.323L594.439,383.323L590.182,383.323C589.607,383.323 589.031,383.323 588.513,383.381C590.009,383.611 591.333,384.359 592.483,385.682C593.807,387.236 594.439,389.192 594.439,391.436L594.439,391.551C594.439,393.795 593.807,395.693 592.483,397.247C591.505,398.34 590.412,399.03 589.204,399.375L689.315,399.375C690.523,399.088 691.616,398.34 692.594,397.247Z" style="fill:rgb(22,15,66);fill-rule:nonzero;"/>
                <path d="M512.797,383.323C510.899,383.323 509.288,384.129 507.965,385.682C506.641,387.236 506.008,389.192 506.008,391.436L506.008,391.551C506.008,393.795 506.641,395.693 507.965,397.247C508.943,398.34 510.036,399.088 511.244,399.375L589.204,399.375C590.412,399.03 591.505,398.34 592.483,397.247C593.807,395.693 594.44,393.795 594.44,391.551L594.44,391.436C594.44,389.192 593.807,387.236 592.483,385.682C591.333,384.359 590.009,383.611 588.514,383.381C588.226,383.323 587.996,383.323 587.708,383.323C587.651,383.323 587.651,383.323 587.593,383.323L512.797,383.323Z" style="fill:rgb(115,115,117);fill-rule:nonzero;"/>
                <path d="M594.957,383.323L596.166,383.323C596.108,383.323 596.051,383.323 595.993,383.266C595.82,383.208 595.705,383.151 595.59,383.093C595.36,383.208 595.13,383.266 594.957,383.323Z" style="fill:rgb(36,35,77);fill-rule:nonzero;"/>
                <path d="M531.024,279.499C531.286,278.824 531.661,278.225 532.186,277.7C533.16,276.763 534.322,276.276 535.672,276.276C537.021,276.276 538.183,276.763 539.12,277.7C539.682,278.225 540.057,278.824 540.282,279.499" style="fill:none;stroke:rgb(140,80,55);stroke-width:2.25px;"/>
                <path d="M547.967,279.499C548.23,278.824 548.604,278.225 549.129,277.7C550.104,276.763 551.266,276.276 552.615,276.276C553.964,276.276 555.126,276.763 556.063,277.7C556.626,278.225 557.001,278.824 557.225,279.499" style="fill:none;stroke:rgb(140,80,55);stroke-width:2.25px;"/>
                <path d="M538.209,286.998C538.528,287.819 538.984,288.549 539.622,289.187C540.808,290.327 542.221,290.92 543.863,290.92C545.505,290.92 546.918,290.327 548.058,289.187C548.742,288.549 549.198,287.819 549.472,286.998" style="fill:none;stroke:rgb(231,140,118);stroke-width:2.74px;"/>
            </g>
        </g>
    </g>
</svg>
