<?xml version="1.0" encoding="UTF-8" standalone="no"?>
<!DOCTYPE svg PUBLIC "-//W3C//DTD SVG 1.1//EN" "http://www.w3.org/Graphics/SVG/1.1/DTD/svg11.dtd">
<svg width="100%" height="100%" viewBox="0 0 169 284" version="1.1" xmlns="http://www.w3.org/2000/svg" xmlns:xlink="http://www.w3.org/1999/xlink" xml:space="preserve" style="fill-rule:evenodd;clip-rule:evenodd;stroke-linejoin:round;stroke-miterlimit:1.41421;">
    <g transform="matrix(1,0,0,1,-2299,-158)">
        <g transform="matrix(1,0,0,1,0,-162)">
            <g id="Ninja-Male-2-OK-Hand" transform="matrix(1,0,0,1,2274.03,-154.684)">
                <path d="M137.106,474.996C136.706,475.046 136.306,475.046 135.906,475.096C131.258,475.246 126.91,475.896 122.762,477.045C120.463,477.695 118.264,478.495 116.114,479.444C115.665,479.644 115.265,479.844 114.815,480.044C110.667,482.093 106.818,484.692 103.32,487.941C94.523,495.988 90.375,505.534 90.874,516.48L90.874,541.869L91.474,541.869C91.524,541.819 91.624,541.819 91.724,541.869L91.024,541.869C92.224,541.869 93.074,541.869 93.523,541.869C93.673,541.869 93.823,541.869 93.973,541.919C94.023,541.919 94.073,541.919 94.123,541.919C94.673,541.969 95.173,542.069 95.673,542.219C96.222,542.369 96.772,542.569 97.322,542.819C98.971,543.469 100.421,544.469 101.77,545.818C101.87,545.918 101.97,546.018 102.07,546.068L102.07,546.118L129.959,507.433L128.01,533.423C137.856,530.274 146.002,524.627 152.4,516.58C153.4,515.28 154.349,513.931 155.299,512.581L170.393,535.022C170.493,534.972 170.593,534.873 170.643,534.823C173.492,532.473 175.941,529.875 177.99,527.126C178.49,526.476 178.939,525.776 179.389,525.076C179.439,525.027 179.489,524.927 179.539,524.877C180.039,524.027 180.539,523.227 181.039,522.378C186.986,512.831 186.986,503.585 181.039,494.739C180.539,493.989 180.039,493.289 179.489,492.59C179.039,491.94 178.54,491.34 177.99,490.74C176.24,488.741 174.191,486.842 171.892,485.093C171.442,484.743 171.043,484.443 170.643,484.143C169.343,483.193 168.044,482.344 166.694,481.544C165.945,481.094 165.195,480.644 164.445,480.295C163.895,479.995 163.296,479.695 162.746,479.445C155.449,476.046 147.302,474.547 138.356,474.947C137.906,474.947 137.506,474.947 137.106,474.997L137.106,474.996ZM91.824,541.869C91.874,541.819 91.924,541.819 91.974,541.819L92.424,541.819L91.824,541.869Z" style="fill:rgb(117,76,36);fill-rule:nonzero;"/>
                <path d="M91.974,541.819C91.924,541.819 91.874,541.819 91.824,541.869L92.424,541.819L91.974,541.819Z" style="fill:rgb(248,156,118);fill-rule:nonzero;"/>
                <path d="M179.539,524.876C179.489,524.926 179.439,525.026 179.389,525.076C178.939,525.776 178.489,526.476 177.99,527.125C175.94,529.874 173.491,532.473 170.643,534.822C170.593,534.872 170.493,534.972 170.393,535.022L155.299,512.581C154.349,513.931 153.399,515.28 152.4,516.58C146.002,524.626 137.856,530.274 128.01,533.423L129.959,507.433L102.07,546.118L102.07,546.068C101.97,546.018 101.87,545.918 101.77,545.818C100.421,544.469 98.971,543.469 97.322,542.819C96.772,542.569 96.222,542.369 95.673,542.219C95.173,542.07 94.673,541.97 94.123,541.92C94.073,541.92 94.023,541.92 93.973,541.92C93.823,541.87 93.673,541.87 93.523,541.87L90.875,541.87C87.526,542.12 84.627,543.419 82.178,545.818C82.128,545.918 82.028,546.018 81.978,546.068C79.629,548.517 78.38,551.416 78.18,554.765L85.777,554.765C85.977,553.915 86.376,553.115 86.976,552.466C87.976,551.416 89.225,550.866 90.675,550.816C92.124,550.766 93.374,551.216 94.423,552.166C95.173,552.915 95.723,553.765 95.973,554.765L179.639,554.765L179.189,537.222C179.389,537.172 179.589,537.172 179.839,537.122L179.889,537.122L179.539,524.877L179.539,524.876ZM137.006,546.967C137.006,547.317 136.856,547.667 136.556,547.917C136.306,548.217 135.956,548.367 135.607,548.367L128.26,548.367C127.91,548.367 127.56,548.217 127.26,547.917C127.01,547.667 126.86,547.317 126.86,546.967C126.86,546.618 127.01,546.268 127.26,545.968C127.56,545.718 127.91,545.568 128.26,545.568L135.607,545.568C135.956,545.568 136.306,545.718 136.556,545.968C136.856,546.268 137.006,546.618 137.006,546.967ZM149.001,546.967C149.051,546.617 149.201,546.268 149.451,545.968C149.751,545.718 150.101,545.568 150.501,545.568L157.798,545.568C158.148,545.568 158.497,545.718 158.747,545.968C159.047,546.268 159.197,546.618 159.197,546.967C159.197,547.317 159.047,547.667 158.747,547.917C158.497,548.217 158.148,548.367 157.798,548.367L150.501,548.367C150.101,548.367 149.751,548.217 149.451,547.917C149.201,547.667 149.051,547.317 149.001,546.967ZM161.296,550.866C161.296,550.916 161.296,551.016 161.296,551.116C161.246,551.116 161.246,551.116 161.246,551.166C161.196,551.016 161.196,550.916 161.296,550.866Z" style="fill:rgb(248,156,118);fill-rule:nonzero;"/>
                <path d="M95.972,554.764C96.022,555.014 96.072,555.264 96.122,555.514C96.072,555.614 96.072,555.714 96.122,555.864C96.172,557.313 95.673,558.563 94.723,559.612C93.773,560.662 92.524,561.212 91.074,561.262C89.625,561.312 88.326,560.862 87.276,559.912C87.176,559.812 87.076,559.712 86.976,559.612C86.126,558.663 85.677,557.563 85.627,556.264C85.577,555.714 85.627,555.214 85.777,554.764L78.18,554.764C78.18,555.064 78.18,555.364 78.18,555.664C78.13,559.412 79.429,562.611 81.978,565.26L82.178,565.46C84.877,568.159 88.176,569.508 92.024,569.508C93.524,569.508 94.923,569.309 96.272,568.909C96.522,570.258 96.872,571.608 97.322,572.907C97.572,573.757 97.872,574.556 98.222,575.356C98.222,575.406 98.222,575.506 98.272,575.556C98.322,575.606 98.322,575.606 98.372,575.656C99.421,578.355 100.821,580.904 102.47,583.353C103.22,584.453 104.069,585.552 104.919,586.602C106.069,587.951 107.318,589.301 108.667,590.6C110.617,592.449 112.666,594.099 114.815,595.498C116.364,596.448 117.914,597.347 119.513,598.147C119.963,598.397 120.463,598.597 120.913,598.797C121.562,599.097 122.262,599.397 123.012,599.647C123.512,599.846 124.011,600.046 124.561,600.196L126.51,600.696L130.109,601.546C131.308,601.746 132.508,601.896 133.757,602.046L141.204,602.046C144.053,601.846 146.802,601.396 149.401,600.746C150.551,600.396 151.7,600.047 152.8,599.647C153.45,599.397 154.049,599.147 154.699,598.897C155.749,598.447 156.748,597.947 157.748,597.448C157.798,597.398 157.898,597.398 157.948,597.348C160.197,596.098 162.396,594.649 164.445,592.949C165.195,592.3 165.945,591.65 166.694,591C166.844,590.8 167.044,590.6 167.194,590.45C167.744,589.901 168.344,589.351 168.894,588.801C169.493,588.151 170.093,587.452 170.643,586.802C171.892,585.303 173.092,583.753 174.141,582.204C175.241,580.454 176.191,578.655 177.04,576.806C177.09,576.756 177.09,576.656 177.14,576.606C177.44,575.906 177.74,575.207 177.99,574.507C178.39,573.457 178.74,572.358 179.04,571.258C179.689,568.809 180.139,566.26 180.389,563.611L179.889,563.511L179.639,554.765L95.973,554.765L95.972,554.764ZM128.01,574.006C126.66,572.657 125.561,571.208 124.711,569.658C124.611,569.408 124.511,569.208 124.411,569.008C124.361,568.959 124.361,568.909 124.361,568.859C123.312,566.659 122.712,564.26 122.612,561.711L159.547,561.711C159.497,563.961 159.047,566.11 158.198,568.109C158.048,568.509 157.848,568.909 157.598,569.308C157.548,569.408 157.498,569.508 157.448,569.658C156.598,571.208 155.499,572.657 154.149,574.007C153.549,574.606 152.9,575.156 152.25,575.656C151.8,576.006 151.3,576.356 150.801,576.706C147.952,578.455 144.753,579.354 141.204,579.404C141.154,579.404 141.154,579.404 141.104,579.404C138.455,579.405 136.006,578.905 133.757,577.955C132.908,577.605 132.108,577.155 131.358,576.706C130.858,576.356 130.409,576.006 129.959,575.656C129.309,575.156 128.659,574.607 128.01,574.007L128.01,574.006Z" style="fill:rgb(248,156,118);fill-rule:nonzero;"/>
                <path d="M157.798,548.367C158.148,548.367 158.497,548.217 158.747,547.917C159.047,547.667 159.197,547.317 159.197,546.967C159.197,546.617 159.047,546.268 158.747,545.968C158.497,545.718 158.148,545.568 157.798,545.568L150.501,545.568C150.101,545.568 149.751,545.718 149.451,545.968C149.201,546.268 149.051,546.618 149.001,546.967C149.051,547.317 149.201,547.667 149.451,547.917C149.751,548.217 150.101,548.367 150.501,548.367L157.798,548.367Z" style="fill:rgb(75,28,2);fill-rule:nonzero;"/>
                <path d="M137.006,546.967C137.006,546.617 136.856,546.268 136.556,545.968C136.306,545.718 135.956,545.568 135.607,545.568L128.26,545.568C127.91,545.568 127.56,545.718 127.26,545.968C127.01,546.268 126.86,546.618 126.86,546.967C126.86,547.317 127.01,547.667 127.26,547.917C127.56,548.217 127.91,548.367 128.26,548.367L135.607,548.367C135.956,548.367 136.306,548.217 136.556,547.917C136.856,547.667 137.006,547.317 137.006,546.967Z" style="fill:rgb(75,28,2);fill-rule:nonzero;"/>
                <path d="M131.358,576.705C132.108,577.155 132.908,577.605 133.757,577.955C136.006,578.904 138.455,579.404 141.104,579.404C141.154,579.404 141.154,579.404 141.204,579.404C144.753,579.354 147.952,578.455 150.801,576.705C151.3,576.356 151.8,576.006 152.25,575.656C152.9,575.156 153.549,574.606 154.149,574.006C155.499,572.657 156.598,571.208 157.448,569.658L124.711,569.658C125.561,571.208 126.66,572.657 128.01,574.006C128.659,574.606 129.309,575.156 129.959,575.656C130.409,576.006 130.858,576.356 131.358,576.705Z" style="fill:rgb(204,51,0);fill-rule:nonzero;"/>
                <path d="M157.448,569.658C157.498,569.508 157.548,569.408 157.598,569.308C157.848,568.909 158.048,568.509 158.198,568.109C159.047,566.11 159.497,563.961 159.547,561.711L122.612,561.711C122.712,564.26 123.312,566.659 124.361,568.859C124.361,568.909 124.361,568.959 124.411,569.008C124.511,569.208 124.611,569.408 124.711,569.658L157.448,569.658Z" style="fill:white;fill-rule:nonzero;"/>
                <path d="M91.074,561.262C92.524,561.212 93.773,560.662 94.723,559.612C95.673,558.563 96.172,557.313 96.122,555.864C96.072,555.714 96.072,555.614 96.122,555.514C95.972,554.164 95.373,553.065 94.423,552.165C93.373,551.216 92.124,550.766 90.675,550.816C89.225,550.866 87.976,551.416 86.976,552.465C86.026,553.515 85.577,554.814 85.627,556.264C85.677,557.563 86.126,558.663 86.976,559.612C87.076,559.712 87.176,559.812 87.276,559.912C88.326,560.862 89.625,561.312 91.074,561.262Z" style="fill:rgb(217,115,72);fill-rule:nonzero;"/>
                <path d="M193.883,549.966C193.783,547.367 193.034,545.018 191.684,542.969C191.134,542.169 190.485,541.42 189.735,540.72C189.385,540.42 189.085,540.12 188.785,539.87C187.836,539.17 186.886,538.621 185.836,538.171C185.587,538.071 185.387,537.971 185.187,537.921C183.737,537.371 182.238,537.121 180.589,537.121L179.889,537.121L179.839,537.121C179.589,537.171 179.389,537.171 179.189,537.221L179.889,563.511L181.039,563.511C182.488,563.461 183.887,563.261 185.187,562.811C185.387,562.711 185.587,562.611 185.837,562.561C187.486,561.862 188.935,560.812 190.285,559.363C190.785,558.813 191.234,558.213 191.684,557.613C193.234,555.364 193.933,552.815 193.883,549.966Z" style="fill:rgb(217,115,72);fill-rule:nonzero;"/>
                <path d="M166.694,591C165.944,591.649 165.195,592.299 164.445,592.949C162.396,594.648 160.197,596.098 157.948,597.347C157.898,597.397 157.798,597.397 157.748,597.447C156.748,597.947 155.749,598.447 154.699,598.897C154.049,599.146 153.449,599.396 152.8,599.646C151.7,600.046 150.551,600.396 149.401,600.746L149.401,606.843L152.2,606.843C154.499,606.843 156.598,606.394 158.547,605.494C160.097,604.744 161.546,603.745 162.896,602.445C165.844,599.496 167.294,595.948 167.294,591.799C167.294,591.35 167.244,590.9 167.194,590.45C167.044,590.6 166.844,590.8 166.694,591Z" style="fill:rgb(1,78,109);fill-rule:nonzero;"/>
                <path d="M168.893,588.801C168.343,589.35 167.744,589.9 167.194,590.45C167.244,590.9 167.294,591.35 167.294,591.799C167.294,595.948 165.844,599.496 162.896,602.445C161.546,603.745 160.097,604.744 158.547,605.494C156.598,606.394 154.499,606.843 152.2,606.843L149.401,606.843L126.51,606.843L123.711,606.843C122.162,606.843 120.663,606.643 119.263,606.244C116.914,605.544 114.865,604.294 113.016,602.445C110.067,599.496 108.617,595.948 108.617,591.799C108.617,591.35 108.617,590.95 108.667,590.6C107.318,589.301 106.068,587.951 104.919,586.602C104.069,585.552 103.22,584.452 102.47,583.353C101.37,586.052 100.821,589.001 100.821,592.199L100.821,592.249C100.821,598.697 103.12,604.145 107.668,608.693C108.118,609.143 108.568,609.542 109.017,609.992C110.367,611.142 111.866,612.141 113.416,612.991C113.466,613.041 113.516,613.041 113.566,613.091C113.416,613.241 113.316,613.391 113.216,613.541C108.768,614.391 104.619,615.04 100.721,615.49C86.127,617.14 75.181,615.59 67.934,610.842C64.985,608.693 62.486,605.994 60.437,602.845C58.188,599.447 56.439,595.498 55.139,590.95L43.144,595.848C43.844,598.297 44.693,600.646 45.643,602.845C49.091,610.792 54.139,616.89 60.687,621.188C70.533,628.335 84.477,630.984 102.62,629.135C104.669,628.885 106.818,628.635 109.018,628.285L109.018,685.162C109.018,685.612 109.018,686.062 109.068,686.512L109.617,686.512C109.617,686.762 109.617,686.962 109.667,687.162L168.444,687.162C168.644,687.162 168.844,687.162 169.093,687.212C169.143,686.762 169.143,686.262 169.193,685.812C169.193,685.362 169.193,684.913 169.243,684.463L169.243,683.513L169.243,674.317L169.243,634.033C169.693,634.783 170.193,635.483 170.643,636.232C176.89,646.178 180.339,654.375 180.989,660.822C181.189,666.32 178.79,670.269 173.792,672.718L177.04,681.264C180.389,679.915 183.138,678.166 185.187,676.016C185.387,675.767 185.587,675.567 185.837,675.317C189.135,671.468 190.485,666.37 189.885,660.123C189.635,655.874 188.286,650.926 185.837,645.379C185.587,644.929 185.387,644.429 185.187,643.979C183.688,640.781 181.838,637.382 179.689,633.733C178.24,631.334 176.59,628.835 174.841,626.236C173.492,624.287 172.092,622.338 170.643,620.289C168.994,618.04 167.294,615.791 165.495,613.442C165.345,613.292 165.245,613.192 165.095,613.042C164.945,612.792 164.845,612.592 164.695,612.392C166.345,611.392 167.944,610.143 169.443,608.693C169.843,608.244 170.243,607.844 170.643,607.394C170.843,607.144 171.043,606.894 171.243,606.644C174.591,602.546 176.241,597.748 176.241,592.25L176.241,592.2C176.241,588.552 175.541,585.253 174.142,582.204C173.092,583.754 171.892,585.303 170.643,586.802C170.093,587.452 169.493,588.152 168.894,588.802L168.893,588.801ZM135.007,612.941C134.957,612.591 135.057,612.341 135.307,612.091C135.557,611.891 135.807,611.791 136.106,611.791C136.406,611.791 136.656,611.891 136.906,612.091C137.106,612.341 137.206,612.591 137.256,612.941L137.256,639.13C137.206,639.33 137.156,639.53 137.106,639.68C137.206,639.73 137.306,639.83 137.456,639.93C137.906,640.38 138.106,640.88 138.156,641.53C138.206,642.079 138.056,642.529 137.706,642.979C137.656,643.029 137.606,643.029 137.556,643.079C137.106,643.529 136.606,643.729 136.006,643.779C135.557,643.829 135.207,643.729 134.857,643.529C134.707,643.429 134.607,643.329 134.457,643.229C134.357,643.129 134.257,643.029 134.207,642.979C133.957,642.679 133.807,642.329 133.757,641.979C133.707,641.88 133.707,641.78 133.707,641.68C133.707,641.53 133.707,641.33 133.757,641.18C133.807,640.78 134.007,640.43 134.307,640.13C134.457,639.88 134.657,639.73 134.857,639.63C134.907,639.581 134.957,639.581 135.007,639.581L135.057,639.481C135.007,639.381 134.957,639.281 135.007,639.131L135.007,612.941ZM141.454,612.941C141.454,612.591 141.554,612.341 141.804,612.091C142.004,611.891 142.254,611.791 142.554,611.791C142.854,611.791 143.104,611.891 143.304,612.091C143.553,612.341 143.653,612.591 143.703,612.941L143.703,639.13C143.653,639.28 143.653,639.38 143.603,639.48C143.653,639.48 143.703,639.48 143.753,639.48C144.003,639.58 144.203,639.73 144.403,639.93C144.853,640.38 145.053,640.88 145.103,641.53C145.153,642.079 145.003,642.529 144.703,642.979C144.653,643.029 144.603,643.029 144.553,643.079C144.153,643.529 143.653,643.729 143.054,643.779C142.404,643.829 141.904,643.629 141.454,643.229C141.354,643.129 141.254,643.029 141.204,642.979C140.904,642.629 140.755,642.179 140.755,641.68C140.705,641.08 140.904,640.58 141.254,640.13C141.354,639.98 141.454,639.88 141.604,639.83C141.454,639.58 141.404,639.381 141.454,639.131L141.454,612.941ZM162.446,668.868L162.446,670.618L117.214,670.618L117.214,668.869C117.164,665.32 117.814,662.171 119.113,659.422C119.613,658.323 120.213,657.273 120.962,656.274C123.461,652.775 126.46,651.026 130.009,651.026L149.651,651.026C153.15,651.026 156.148,652.775 158.697,656.274C160.547,658.873 161.746,661.871 162.246,665.32C162.396,666.47 162.446,667.619 162.446,668.869L162.446,668.868ZM115.815,671.318L115.815,669.568C115.815,668.319 115.914,667.169 116.064,666.02L116.064,671.318L115.815,671.318Z" style="fill:rgb(0,147,213);fill-rule:nonzero;"/>
                <path d="M135.307,612.091C135.057,612.341 134.957,612.591 135.007,612.941L135.007,639.13C134.957,639.28 135.007,639.38 135.057,639.48C135.307,639.43 135.557,639.38 135.906,639.43C136.206,639.38 136.506,639.38 136.806,639.48C136.906,639.53 137.006,639.63 137.106,639.68C137.156,639.53 137.206,639.33 137.256,639.13L137.256,612.941C137.206,612.591 137.106,612.341 136.906,612.091C136.656,611.891 136.406,611.791 136.106,611.791C135.807,611.792 135.557,611.891 135.307,612.091Z" style="fill:white;fill-rule:nonzero;"/>
                <path d="M136.806,639.48C136.506,639.38 136.206,639.38 135.906,639.43C135.557,639.38 135.307,639.43 135.057,639.48L135.007,639.58C134.957,639.58 134.907,639.58 134.857,639.63C134.657,639.73 134.457,639.88 134.307,640.13C134.007,640.43 133.807,640.78 133.757,641.18C133.707,641.33 133.707,641.53 133.707,641.679C133.707,641.779 133.707,641.879 133.757,641.979C133.807,642.329 133.957,642.679 134.207,642.979C134.257,643.029 134.357,643.129 134.457,643.229C134.607,643.329 134.707,643.429 134.857,643.529C135.207,643.729 135.557,643.829 136.006,643.779C136.606,643.729 137.106,643.529 137.556,643.079C137.606,643.029 137.656,643.029 137.706,642.979C138.056,642.529 138.206,642.079 138.156,641.53C138.106,640.88 137.906,640.38 137.456,639.93C137.306,639.83 137.206,639.73 137.106,639.68C137.006,639.63 136.906,639.531 136.806,639.481L136.806,639.48Z" style="fill:rgb(1,78,109);fill-rule:nonzero;"/>
                <path d="M141.804,612.091C141.554,612.341 141.454,612.591 141.454,612.941L141.454,639.13C141.404,639.38 141.454,639.58 141.604,639.83C141.754,639.68 141.854,639.63 142.004,639.58C142.254,639.43 142.554,639.38 142.854,639.43C143.104,639.38 143.353,639.43 143.603,639.48C143.653,639.38 143.653,639.28 143.703,639.13L143.703,612.941C143.653,612.591 143.553,612.341 143.304,612.091C143.104,611.891 142.854,611.791 142.554,611.791C142.254,611.792 142.004,611.891 141.804,612.091Z" style="fill:white;fill-rule:nonzero;"/>
                <path d="M141.604,639.83C141.454,639.88 141.354,639.98 141.254,640.13C140.904,640.58 140.705,641.08 140.755,641.679C140.755,642.179 140.904,642.629 141.204,642.979C141.254,643.029 141.354,643.129 141.454,643.229C141.904,643.629 142.404,643.829 143.054,643.779C143.653,643.729 144.153,643.529 144.553,643.079C144.603,643.029 144.653,643.029 144.703,642.979C145.003,642.529 145.153,642.079 145.103,641.53C145.053,640.88 144.853,640.38 144.403,639.93C144.203,639.73 144.003,639.58 143.753,639.48C143.703,639.48 143.653,639.48 143.603,639.48C143.353,639.43 143.104,639.38 142.854,639.43C142.554,639.38 142.254,639.43 142.004,639.58C141.854,639.63 141.754,639.68 141.604,639.83Z" style="fill:rgb(1,78,109);fill-rule:nonzero;"/>
                <path d="M162.446,670.618L162.446,668.869C162.446,667.619 162.396,666.469 162.246,665.32C161.746,661.871 160.547,658.873 158.697,656.274C156.148,652.775 153.15,651.026 149.651,651.026L130.009,651.026C126.46,651.026 123.461,652.775 120.962,656.274C120.213,657.273 119.613,658.323 119.113,659.422C117.814,662.171 117.164,665.32 117.214,668.869L117.214,670.618L162.446,670.618Z" style="fill:rgb(1,119,169);fill-rule:nonzero;"/>
                <path d="M115.815,669.568L115.815,671.318L116.064,671.318L116.064,666.02C115.914,667.169 115.815,668.319 115.815,669.568Z" style="fill:rgb(1,119,169);fill-rule:nonzero;"/>
                <path d="M149.401,606.843L149.401,600.746C146.802,601.395 144.053,601.845 141.204,602.045L141.154,602.045L133.757,602.045C132.508,601.895 131.308,601.745 130.109,601.545L126.51,600.696L126.51,606.843L149.401,606.843Z" style="fill:rgb(217,115,72);fill-rule:nonzero;"/>
                <path d="M177.04,681.264L173.791,672.717C172.842,673.167 171.792,673.567 170.643,673.916C170.193,674.066 169.693,674.166 169.243,674.316L169.243,683.513C169.693,683.413 170.193,683.313 170.643,683.213C172.992,682.663 175.091,682.013 177.04,681.264Z" style="fill:rgb(1,119,169);fill-rule:nonzero;"/>
                <path d="M169.093,687.211C168.843,687.161 168.643,687.161 168.443,687.161L109.667,687.161L109.617,687.161C108.967,687.161 108.417,687.311 107.918,687.611C107.668,687.761 107.418,687.961 107.168,688.211C106.468,688.861 106.118,689.71 106.068,690.66L106.068,690.71C106.118,691.659 106.468,692.509 107.168,693.209C107.818,693.859 108.617,694.208 109.617,694.258L168.443,694.258C169.293,694.208 169.993,693.959 170.643,693.459C170.743,693.359 170.842,693.259 170.942,693.209C171.592,692.509 171.892,691.66 171.892,690.71L171.892,690.66C171.892,689.71 171.592,688.861 170.942,688.211C170.842,688.111 170.743,688.011 170.643,687.961C170.293,687.661 169.943,687.461 169.593,687.361C169.443,687.311 169.343,687.311 169.243,687.261C169.193,687.211 169.143,687.211 169.093,687.211Z" style="fill:rgb(1,119,169);fill-rule:nonzero;"/>
                <path d="M163.196,695.058C163.196,694.758 163.196,694.508 163.146,694.258L115.914,694.258C115.864,694.508 115.864,694.758 115.914,695.058C115.864,697.457 116.714,699.506 118.413,701.206C120.113,702.905 122.162,703.755 124.561,703.805L127.71,703.805L127.71,743.539L137.256,743.539L137.256,703.805L142.904,703.805L142.904,743.539L152.5,743.539L152.5,703.805L154.449,703.805C156.848,703.755 158.897,702.905 160.547,701.206C162.296,699.506 163.146,697.457 163.196,695.058Z" style="fill:rgb(42,34,75);fill-rule:nonzero;"/>
                <path d="M176.24,758.483C176.14,757.833 175.99,757.183 175.84,756.533C175.291,754.134 174.241,751.985 172.592,750.136C171.942,749.486 171.292,748.886 170.643,748.387C168.593,746.887 166.294,746.138 163.745,746.088C163.695,746.088 163.645,746.088 163.595,746.088C160.347,746.088 157.598,747.237 155.299,749.586C155.099,749.736 154.899,749.936 154.699,750.136C153.649,751.286 152.8,752.585 152.2,753.935C152,754.384 151.85,754.834 151.7,755.334L142.604,755.334L142.604,758.483L176.24,758.483Z" style="fill:rgb(129,130,134);fill-rule:nonzero;"/>
                <path d="M155.299,749.586L150.801,749.586L144.353,749.586L142.604,749.586L142.604,755.334L151.7,755.334C151.85,754.834 152,754.384 152.2,753.934C152.8,752.585 153.649,751.286 154.699,750.136C154.899,749.936 155.099,749.736 155.299,749.586Z" style="fill:rgb(0,23,54);fill-rule:nonzero;"/>
                <rect x="144.353" y="743.539" width="6.448" height="6.047" style="fill:rgb(248,156,118);fill-rule:nonzero;"/>
                <path d="M137.556,758.483L137.556,755.334L128.459,755.334C128.31,754.784 128.11,754.284 127.91,753.835C127.31,752.485 126.46,751.286 125.411,750.136C125.261,749.936 125.061,749.736 124.911,749.586C122.562,747.237 119.813,746.088 116.564,746.088C113.116,746.088 110.117,747.437 107.668,750.136C106.069,751.885 104.969,753.835 104.419,756.084C104.219,756.833 104.069,757.633 103.969,758.483L137.556,758.483Z" style="fill:rgb(129,130,134);fill-rule:nonzero;"/>
                <path d="M137.556,749.586L135.807,749.586L129.309,749.586L124.911,749.586C125.061,749.736 125.261,749.936 125.411,750.136C126.46,751.286 127.31,752.485 127.91,753.834C128.11,754.284 128.31,754.784 128.46,755.334L137.556,755.334L137.556,749.586Z" style="fill:rgb(0,23,54);fill-rule:nonzero;"/>
                <rect x="129.309" y="743.539" width="6.498" height="6.047" style="fill:rgb(248,156,118);fill-rule:nonzero;"/>
                <path d="M46.842,532.223C47.092,531.074 46.892,529.974 46.242,528.974C45.643,528.025 44.793,527.375 43.743,527.025C42.594,526.675 41.544,526.725 40.495,527.175C39.345,527.725 38.445,528.775 37.896,530.324C35.946,535.572 35.347,541.17 36.196,547.167C36.196,547.317 36.196,547.417 36.246,547.567C36.096,547.617 35.997,547.717 35.897,547.767C35.847,547.717 35.847,547.667 35.847,547.617C35.797,547.467 35.797,547.367 35.797,547.217C35.197,543.469 34.897,540.32 34.947,537.721C34.947,536.472 34.447,535.522 33.498,534.772C32.548,534.073 31.498,533.723 30.249,533.723C28.999,533.773 27.95,534.173 27.15,534.972C26.2,535.872 25.801,537.121 25.851,538.771C26.001,542.419 26.4,546.318 27.05,550.466C27.75,554.615 28.55,557.913 29.499,560.462C29.499,560.562 29.549,560.662 29.599,560.762C30.849,564.661 33.348,567.959 37.046,570.658C37.996,571.308 38.945,571.908 39.895,572.407C40.095,581.254 41.194,589.101 43.144,595.848L55.139,590.95C53.79,586.202 52.99,580.854 52.69,574.906C52.94,574.857 53.24,574.857 53.49,574.807C55.439,574.557 57.288,574.007 59.037,573.257C62.136,571.858 64.535,569.759 66.185,566.96C67.134,565.31 67.084,563.711 66.085,562.212C65.235,560.862 64.285,560.212 63.136,560.162C65.985,560.112 67.734,559.163 68.484,557.314C69.583,554.515 69.083,551.416 66.984,548.067C64.835,544.669 60.837,542.969 55.039,542.969C54.889,542.919 54.789,542.919 54.639,542.969C54.639,542.919 54.639,542.869 54.639,542.819C54.839,541.67 55.139,540.62 55.539,539.621C56.089,538.121 57.238,536.272 58.938,534.073C59.637,533.123 59.887,532.024 59.687,530.774C59.487,529.625 58.938,528.625 58.088,527.776C57.138,526.926 56.139,526.526 55.039,526.576C53.79,526.626 52.64,527.276 51.591,528.525C48.092,532.624 46.143,537.722 45.793,543.819C45.693,543.819 45.593,543.819 45.493,543.869C45.443,543.819 45.443,543.819 45.493,543.819C45.443,540.171 45.893,536.272 46.842,532.224L46.842,532.223ZM49.391,556.314C49.791,554.714 50.641,553.465 51.89,552.565C53.14,551.715 54.489,551.366 55.988,551.515C58.338,551.815 59.537,553.215 59.537,555.714C59.487,558.563 60.637,560.012 62.936,560.162C60.687,560.112 59.087,560.712 58.238,561.961C56.788,563.961 54.989,564.51 52.74,563.611C51.19,562.961 50.141,561.911 49.541,560.462C49.041,559.162 48.991,557.763 49.391,556.314Z" style="fill:rgb(248,156,118);fill-rule:nonzero;"/>
                <path d="M91.474,541.869L91.024,541.869L91.724,541.869C91.624,541.819 91.524,541.819 91.474,541.869Z" style="fill:rgb(248,156,118);fill-rule:nonzero;"/>
                <path d="M119.513,598.147C117.914,597.347 116.364,596.447 114.815,595.498C112.666,594.098 110.617,592.449 108.667,590.6C108.617,590.95 108.617,591.35 108.617,591.799C108.617,595.948 110.067,599.496 113.016,602.445C114.865,604.294 116.914,605.544 119.263,606.244C120.663,606.643 122.162,606.843 123.711,606.843L126.51,606.843L126.51,600.696L124.561,600.196C124.011,600.046 123.512,599.846 123.012,599.646C122.262,599.396 121.562,599.097 120.913,598.797C120.463,598.597 119.963,598.397 119.513,598.147Z" style="fill:rgb(1,78,109);fill-rule:nonzero;"/>
                <path d="M109.017,675.016C108.517,674.866 108.068,674.766 107.618,674.666C106.468,674.316 105.419,673.867 104.469,673.417L101.27,681.963C103.17,682.713 105.269,683.363 107.618,683.913C108.068,684.012 108.517,684.112 109.017,684.212L109.017,675.016Z" style="fill:rgb(1,119,169);fill-rule:nonzero;"/>
            </g>
        </g>
    </g>
</svg>
