<?xml version="1.0" encoding="UTF-8" standalone="no"?>
<!DOCTYPE svg PUBLIC "-//W3C//DTD SVG 1.1//EN" "http://www.w3.org/Graphics/SVG/1.1/DTD/svg11.dtd">
<svg width="100%" height="100%" viewBox="0 0 195 459" version="1.1" xmlns="http://www.w3.org/2000/svg" xmlns:xlink="http://www.w3.org/1999/xlink" xml:space="preserve" style="fill-rule:evenodd;clip-rule:evenodd;stroke-linejoin:round;stroke-miterlimit:1.41421;">
    <g transform="matrix(1,0,0,1,-3860,-81)">
        <g transform="matrix(1,0,0,1,0,-162)">
            <g id="Youth-Mentor-Female-2-OK-Hand" transform="matrix(1,0,0,1,3750.98,-58.4585)">
                <path d="M197.732,312.311C188.286,305.364 176.94,301.915 163.645,301.915C150.301,301.915 138.905,305.364 129.509,312.311C120.063,319.258 115.365,327.605 115.365,337.451L115.365,362.091C117.314,360.842 119.463,360.192 121.912,360.242C122.212,360.192 122.512,360.192 122.762,360.242L122.762,384.632C122.512,384.632 122.212,384.632 121.912,384.632C119.463,384.632 117.314,384.033 115.365,382.783L115.365,420.118C126.71,419.468 133.807,413.621 136.656,402.525C137.006,400.726 137.206,398.827 137.306,396.827L137.306,351.945C137.256,351.796 137.206,351.196 137.106,350.246C148.002,350.246 158.897,350.246 169.843,350.246L177.29,337.701L177.29,350.246C186.886,350.246 196.482,350.246 206.128,350.246L206.128,351.746C206.178,352.995 206.178,354.295 206.128,355.644L206.128,382.683C205.779,391.43 202.78,399.077 197.032,405.624L197.032,422.367C206.478,418.919 211.426,411.122 211.976,399.077L211.876,337.451C211.876,327.605 207.178,319.259 197.732,312.312L197.732,312.311ZM129.959,350.546C129.909,350.446 129.909,350.346 129.859,350.246C129.959,350.246 130.059,350.246 130.209,350.246L129.959,350.546Z" style="fill-rule:nonzero;"/>
                <path d="M129.859,350.246C129.909,350.346 129.909,350.446 129.959,350.546L130.209,350.246C130.059,350.246 129.959,350.246 129.859,350.246Z" style="fill:rgb(255,204,153);fill-rule:nonzero;"/>
                <path d="M302.04,373.637C301.94,373.537 301.84,373.437 301.74,373.387C300.89,372.737 299.891,372.387 298.741,372.337C298.691,372.337 298.691,372.337 298.641,372.337C298.441,372.337 298.242,372.337 298.092,372.387C297.042,372.437 296.092,372.787 295.343,373.437C294.293,374.186 293.793,375.236 293.793,376.536C293.793,379.284 293.493,382.633 292.894,386.582C292.844,386.732 292.844,386.831 292.844,386.981C292.794,387.031 292.794,387.081 292.794,387.131C292.644,387.081 292.544,386.981 292.444,386.931C292.444,386.782 292.444,386.682 292.494,386.532C293.343,380.184 292.694,374.237 290.645,368.689C290.045,367.089 289.145,365.99 287.896,365.44C286.846,364.89 285.697,364.84 284.497,365.29C283.347,365.64 282.448,366.29 281.848,367.289C281.098,368.339 280.898,369.489 281.198,370.738C282.198,375.036 282.698,379.135 282.648,382.983C282.648,383.033 282.648,383.033 282.648,383.083C282.548,383.033 282.448,383.033 282.298,382.983C281.898,376.536 279.849,371.138 276.2,366.79C275.101,365.49 273.901,364.84 272.552,364.79C271.402,364.741 270.303,365.19 269.353,366.09C268.403,366.94 267.854,367.939 267.654,369.189C267.404,370.488 267.704,371.638 268.453,372.687C270.203,375.036 271.402,376.986 272.052,378.585C272.452,379.635 272.752,380.734 273.002,381.934C273.002,381.984 273.002,382.034 273.002,382.084C272.852,382.084 272.702,382.084 272.552,382.084C266.404,382.134 262.256,383.933 260.007,387.482C257.758,391.03 257.208,394.329 258.357,397.278C259.157,399.227 261.056,400.226 264.005,400.226C262.806,400.276 261.756,400.976 260.856,402.376C259.807,404.025 259.757,405.724 260.757,407.474C262.506,410.422 265.055,412.622 268.353,414.121C270.203,414.921 272.152,415.47 274.201,415.72C274.451,415.77 274.751,415.77 275.051,415.82C274.401,428.165 271.652,438.011 266.854,445.309C264.655,448.657 262.006,451.456 258.957,453.705C251.26,458.753 239.715,460.403 224.321,458.653L222.372,473.047C241.464,475.047 256.208,472.248 266.604,464.701C273.551,460.153 278.849,453.655 282.498,445.309C286.246,436.662 288.295,425.916 288.545,413.171C289.595,412.622 290.595,412.022 291.594,411.322C294.443,409.273 296.592,406.874 298.092,404.125C298.641,403.076 299.091,402.026 299.441,400.926C299.491,400.776 299.491,400.677 299.541,400.577C300.491,397.878 301.34,394.329 302.09,389.981C302.79,385.633 303.19,381.534 303.339,377.636C303.439,375.936 302.99,374.587 302.04,373.637ZM278.349,400.576C277.7,402.125 276.6,403.275 275.001,403.925C272.652,404.874 270.703,404.274 269.203,402.125C268.254,400.776 266.604,400.176 264.255,400.226C266.654,400.126 267.854,398.577 267.804,395.578C267.804,392.929 269.053,391.43 271.552,391.13C273.102,390.93 274.551,391.28 275.9,392.229C277.2,393.179 278.1,394.478 278.549,396.128C278.949,397.677 278.899,399.177 278.349,400.576Z" style="fill:rgb(255,204,153);fill-rule:nonzero;"/>
                <path d="M206.128,356.344C206.128,356.094 206.128,355.894 206.128,355.644C206.178,354.294 206.178,352.995 206.128,351.745L206.128,351.346C206.128,350.996 206.128,350.596 206.128,350.246C196.482,350.246 186.886,350.246 177.29,350.246L177.29,337.701L169.843,350.246C158.897,350.246 148.002,350.246 137.106,350.246C137.206,351.196 137.256,351.795 137.306,351.945L137.306,396.827C137.206,398.827 137.006,400.726 136.656,402.525C138.056,404.324 139.605,406.074 141.354,407.823C141.854,408.323 142.354,408.823 142.854,409.322C144.453,410.772 146.152,412.021 147.902,413.171C148.401,413.521 148.901,413.821 149.451,414.121C151.3,415.17 153.2,416.07 155.199,416.82C155.649,416.969 156.148,417.169 156.648,417.319C160.247,418.419 164.095,418.969 168.194,418.969C170.593,418.969 172.942,418.769 175.191,418.369C175.541,418.319 175.94,418.219 176.29,418.169C176.74,418.069 177.24,417.969 177.69,417.869C184.137,416.27 189.885,412.921 194.933,407.823C195.683,407.074 196.382,406.374 197.032,405.624C202.78,399.077 205.779,391.43 206.128,382.683C206.128,382.134 206.128,381.634 206.128,381.084L206.128,356.344ZM188.685,369.788C189.035,369.738 189.335,369.888 189.585,370.138C189.885,370.388 190.035,370.738 190.035,371.088C190.035,371.438 189.885,371.737 189.585,371.987C189.335,372.287 189.035,372.437 188.685,372.487L181.638,372.487C181.288,372.437 180.938,372.287 180.689,371.987C180.439,371.738 180.289,371.438 180.339,371.088C180.289,370.738 180.439,370.388 180.689,370.138C180.938,369.888 181.288,369.738 181.638,369.788L188.685,369.788ZM177.39,369.088C178.04,369.738 178.39,370.538 178.39,371.488L178.39,377.185C178.39,378.135 178.04,378.935 177.39,379.584C176.74,380.234 175.941,380.534 175.041,380.534C174.091,380.534 173.242,380.234 172.592,379.584C171.942,378.935 171.642,378.135 171.642,377.185L171.642,371.488C171.642,370.538 171.942,369.738 172.592,369.089C173.242,368.439 174.091,368.089 175.041,368.089C175.94,368.089 176.74,368.439 177.39,369.089L177.39,369.088ZM166.294,371.088C166.294,371.438 166.144,371.737 165.844,371.987C165.595,372.287 165.245,372.437 164.895,372.487L157.898,372.487C157.548,372.437 157.198,372.287 156.898,371.987C156.648,371.737 156.498,371.438 156.498,371.088C156.498,370.738 156.648,370.388 156.898,370.138C157.198,369.888 157.548,369.738 157.898,369.788L164.895,369.788C165.245,369.738 165.595,369.888 165.845,370.138C166.144,370.388 166.294,370.738 166.294,371.088ZM169.893,397.977C165.645,397.927 161.996,396.428 158.997,393.429C156.448,390.88 154.999,387.981 154.599,384.632L185.187,384.632C184.737,387.981 183.288,390.88 180.789,393.429C177.74,396.428 174.141,397.927 169.893,397.977Z" style="fill:rgb(255,203,153);fill-rule:nonzero;"/>
                <path d="M189.585,370.138C189.335,369.888 189.035,369.738 188.685,369.788L181.638,369.788C181.288,369.738 180.938,369.888 180.689,370.138C180.439,370.388 180.289,370.738 180.339,371.088C180.289,371.438 180.439,371.737 180.689,371.987C180.938,372.287 181.288,372.437 181.638,372.487L188.685,372.487C189.035,372.437 189.335,372.287 189.585,371.987C189.885,371.738 190.035,371.438 190.035,371.088C190.035,370.738 189.885,370.388 189.585,370.138Z" style="fill:rgb(75,28,2);fill-rule:nonzero;"/>
                <path d="M178.389,371.487C178.389,370.538 178.04,369.738 177.39,369.088C176.74,368.439 175.941,368.089 175.041,368.089C174.091,368.089 173.242,368.439 172.592,369.089C171.942,369.738 171.642,370.538 171.642,371.488L171.642,377.185C171.642,378.135 171.942,378.935 172.592,379.584C173.242,380.234 174.091,380.534 175.041,380.534C175.94,380.534 176.74,380.234 177.39,379.584C178.04,378.935 178.39,378.135 178.39,377.185L178.39,371.488L178.389,371.487Z" style="fill:rgb(234,152,133);fill-rule:nonzero;"/>
                <path d="M165.844,371.987C166.144,371.737 166.294,371.438 166.294,371.088C166.294,370.738 166.144,370.388 165.844,370.138C165.595,369.888 165.245,369.738 164.895,369.788L157.898,369.788C157.548,369.738 157.198,369.888 156.898,370.138C156.648,370.388 156.498,370.738 156.498,371.088C156.498,371.438 156.648,371.738 156.898,371.987C157.198,372.287 157.548,372.437 157.898,372.487L164.895,372.487C165.245,372.437 165.595,372.287 165.845,371.987L165.844,371.987Z" style="fill:rgb(75,28,2);fill-rule:nonzero;"/>
                <path d="M158.997,393.429C161.996,396.428 165.645,397.927 169.893,397.977C174.141,397.927 177.74,396.428 180.789,393.429C183.288,390.88 184.737,387.981 185.187,384.632L154.599,384.632C154.999,387.981 156.448,390.88 158.997,393.429Z" style="fill:white;fill-rule:nonzero;"/>
                <path d="M168.194,418.968C164.095,418.969 160.247,418.419 156.648,417.319L156.648,425.116L177.69,425.116L177.69,417.869C177.24,417.969 176.74,418.069 176.29,418.169C175.94,418.219 175.541,418.319 175.191,418.369C172.942,418.769 170.593,418.969 168.194,418.969L168.194,418.968Z" style="fill:rgb(234,152,133);fill-rule:nonzero;"/>
                <path d="M156.648,425.116L150.9,425.116L150.9,443.709L172.042,443.709L172.042,425.116L156.648,425.116Z" style="fill:rgb(219,94,1);fill-rule:nonzero;"/>
                <path d="M177.69,425.116L175.191,425.116L175.191,443.709L181.538,443.709L181.538,425.116L177.69,425.116Z" style="fill:rgb(219,94,1);fill-rule:nonzero;"/>
                <path d="M175.191,425.116L172.042,425.116L172.042,443.709L150.9,443.709L150.85,443.709L150.85,547.367L203.979,547.367L203.979,495.388C206.228,494.838 208.228,493.689 209.977,491.939C212.426,489.49 213.675,486.492 213.675,482.993C213.675,479.494 212.426,476.496 209.977,473.997L208.228,472.547C208.028,472.397 207.828,472.297 207.678,472.147C206.328,471.298 204.929,470.748 203.429,470.498L203.429,470.448C203.379,470.198 203.329,469.948 203.28,469.698C203.28,469.648 203.28,469.648 203.28,469.598C202.03,463.151 199.531,457.753 195.882,453.505C195.633,453.205 195.383,452.905 195.133,452.655C191.584,448.907 187.036,446.058 181.388,444.109C180.988,443.959 180.589,443.859 180.189,443.709L180.139,443.709L175.191,443.709L175.191,425.116ZM163.645,489.84C163.945,489.79 164.295,489.79 164.645,489.79C169.143,489.54 176.19,489.74 185.787,490.29C185.887,491.04 184.937,492.389 182.988,494.338C180.689,496.488 177.94,497.587 174.741,497.587C173.591,497.587 172.492,497.437 171.442,497.137C169.593,496.638 167.994,495.688 166.544,494.338C165.795,493.589 165.145,492.839 164.645,491.989C164.295,491.39 163.995,490.79 163.745,490.19C163.695,490.04 163.695,489.94 163.645,489.84Z" style="fill:rgb(255,116,0);fill-rule:nonzero;"/>
                <path d="M163.745,490.19L164.645,489.79C164.295,489.79 163.945,489.79 163.645,489.84C163.695,489.94 163.695,490.04 163.745,490.19Z" style="fill:rgb(15,21,28);fill-rule:nonzero;"/>
                <path d="M164.645,489.79L163.745,490.19C163.995,490.79 164.295,491.39 164.645,491.989C165.145,492.839 165.795,493.589 166.544,494.338C167.994,495.688 169.593,496.637 171.442,497.137C172.492,497.437 173.591,497.587 174.741,497.587C177.94,497.587 180.689,496.488 182.988,494.338C184.937,492.389 185.886,491.04 185.787,490.29C176.19,489.74 169.143,489.54 164.645,489.79Z" style="fill:rgb(219,94,1);fill-rule:nonzero;"/>
                <path d="M195.133,452.655C195.383,452.905 195.633,453.205 195.882,453.505L196.032,452.955C195.733,452.855 195.433,452.755 195.133,452.655Z" style="fill:rgb(15,21,28);fill-rule:nonzero;"/>
                <path d="M196.032,452.955L195.882,453.505C199.531,457.753 202.03,463.151 203.28,469.598C203.479,469.698 203.679,469.798 203.879,469.948C210.427,471.398 216.624,472.447 222.372,473.047L224.321,458.653C217.374,457.903 209.627,456.404 201.08,454.254C199.431,453.855 197.732,453.405 196.032,452.955Z" style="fill:rgb(219,94,1);fill-rule:nonzero;"/>
                <path d="M180.139,443.709L180.189,443.709L180.139,443.709Z" style="fill:rgb(38,55,73);fill-rule:nonzero;"/>
                <path d="M150.85,443.709C140.505,443.659 135.357,448.807 135.357,459.102L135.357,491.29L150.85,491.29L150.85,443.709Z" style="fill:rgb(219,94,1);fill-rule:nonzero;"/>
                <path d="M150.85,491.29L135.357,491.29L135.357,576.855L134.357,576.855L134.357,577.405C130.759,578.255 128.359,580.054 127.16,582.853C126.86,584.302 126.56,585.702 126.31,587.151C126.31,587.201 126.31,587.301 126.31,587.351C126.26,587.501 126.26,587.651 126.31,587.801L126.31,607.143C126.26,608.693 126.76,609.942 127.76,610.992C128.859,612.091 130.209,612.641 131.758,612.641L131.808,612.641C133.357,612.641 134.607,612.091 135.657,610.992C136.456,610.242 136.956,609.342 137.206,608.293C137.156,608.093 137.156,607.893 137.206,607.743C137.256,607.743 137.256,607.793 137.306,607.843C137.256,607.993 137.256,608.143 137.206,608.293C137.306,609.592 137.806,610.692 138.705,611.642C139.755,612.691 141.104,613.241 142.654,613.191L142.804,613.191C144.303,613.241 145.553,612.691 146.602,611.642L146.652,611.592C147.502,610.792 148.002,609.842 148.152,608.743C148.202,608.693 148.202,608.693 148.252,608.743C148.401,609.992 148.901,611.042 149.801,611.942C150.651,612.791 151.6,613.291 152.7,613.491C153.05,613.541 153.399,613.591 153.749,613.591L153.849,613.591C155.399,613.591 156.648,613.041 157.648,611.942C157.798,611.792 157.998,611.592 158.148,611.442C158.797,610.642 159.147,609.742 159.297,608.743C159.297,608.543 159.297,608.343 159.347,608.143L159.247,601.646C159.197,601.546 159.097,601.446 158.997,601.346L159.247,601.346L159.247,588.801C159.247,588.351 159.197,587.901 159.147,587.501C159.097,587.302 159.047,587.102 158.997,586.952C158.847,586.502 158.747,586.102 158.597,585.752L158.547,585.702C158.497,585.552 158.497,585.402 158.447,585.302L157.648,584.403L158.347,585.102C156.698,580.654 154.199,578.105 150.85,577.406L150.85,557.863L150.85,547.368L150.85,491.29ZM137.306,587.801L137.306,588.501L137.206,588.451C137.206,588.101 137.256,587.801 137.306,587.501C137.306,587.601 137.306,587.701 137.306,587.801Z" style="fill:rgb(255,204,153);fill-rule:nonzero;"/>
                <path d="M137.306,588.501L137.306,587.801C137.306,587.701 137.306,587.601 137.306,587.501C137.256,587.801 137.206,588.101 137.206,588.451L137.306,588.501Z" style="fill:rgb(77,95,109);fill-rule:nonzero;"/>
                <rect x="150.85" y="547.367" width="53.129" height="10.496" style="fill:rgb(219,94,1);fill-rule:nonzero;"/>
                <path d="M203.979,576.156L203.979,575.706L203.979,557.863L150.85,557.863L150.85,577.405C154.199,578.105 156.698,580.654 158.347,585.102L171.042,598.197C170.593,597.897 170.343,597.897 170.293,598.247L170.293,598.597C170.343,598.847 170.343,599.146 170.343,599.396C170.343,599.646 170.343,599.946 170.293,600.196C170.193,601.196 169.793,602.095 169.143,602.895C169.043,602.995 168.943,603.095 168.793,603.245L168.693,603.295C167.644,604.394 166.344,604.944 164.795,604.944C163.445,604.944 162.296,604.494 161.246,603.545L159.247,601.646L159.347,608.143C159.297,608.343 159.297,608.543 159.297,608.743C159.147,609.742 158.797,610.642 158.148,611.442C157.998,611.592 157.798,611.792 157.648,611.942C156.648,613.041 155.399,613.591 153.849,613.591L153.749,613.591C153.399,613.591 153.05,613.541 152.7,613.491C151.6,613.291 150.651,612.791 149.801,611.942C148.901,611.042 148.401,609.992 148.252,608.743C148.202,608.693 148.202,608.693 148.152,608.743C148.002,609.842 147.502,610.792 146.652,611.592C146.652,613.641 146.652,615.69 146.702,617.839L160.397,617.839L160.397,617.789L170.293,617.789L170.293,617.839L182.588,617.839L192.484,617.589L203.979,617.239L203.979,576.156Z" style="fill:rgb(204,133,201);fill-rule:nonzero;"/>
                <path d="M203.979,575.706L203.979,576.156L204.129,576.156L203.979,575.706Z" style="fill:rgb(38,55,73);fill-rule:nonzero;"/>
                <path d="M158.547,585.702L158.597,585.752C158.747,586.102 158.847,586.501 158.997,586.951C159.047,587.101 159.097,587.301 159.147,587.501C159.197,587.901 159.247,588.351 159.247,588.801L159.247,601.646L161.246,603.545C162.296,604.494 163.445,604.944 164.795,604.944C166.344,604.944 167.644,604.394 168.693,603.295L168.793,603.245C168.943,603.095 169.043,602.995 169.143,602.895C169.793,602.095 170.193,601.196 170.293,600.196C170.343,599.946 170.343,599.646 170.343,599.396C170.343,599.147 170.343,598.847 170.293,598.597L170.293,598.247C170.343,597.897 170.593,597.897 171.042,598.197L158.347,585.102L157.648,584.402L158.447,585.302C158.497,585.402 158.497,585.552 158.547,585.702Z" style="fill:rgb(234,152,133);fill-rule:nonzero;"/>
                <path d="M159.247,601.346L158.997,601.346C159.097,601.445 159.197,601.545 159.247,601.645L159.247,601.346Z" style="fill:rgb(77,95,109);fill-rule:nonzero;"/>
                <path d="M137.206,607.743C137.156,607.893 137.156,608.093 137.206,608.293C137.256,608.143 137.256,607.993 137.306,607.843C137.256,607.793 137.256,607.743 137.206,607.743Z" style="fill:rgb(77,95,109);fill-rule:nonzero;"/>
                <path d="M170.293,617.839L170.293,617.789L160.397,617.789L160.397,653.375L170.293,653.375L170.293,617.839Z" style="fill:rgb(255,189,145);fill-rule:nonzero;"/>
                <path d="M192.484,617.589L182.588,617.839L182.588,742.639C183.238,742.339 183.887,742.089 184.587,741.839C184.637,741.839 184.687,741.839 184.787,741.789L184.787,741.839L184.787,741.789C185.587,741.54 186.436,741.39 187.286,741.24C187.386,741.24 187.486,741.24 187.536,741.24C188.286,741.09 189.085,741.04 189.935,741.04C190.735,741.04 191.534,741.09 192.334,741.24C192.384,741.24 192.434,741.24 192.484,741.29L192.484,617.589Z" style="fill:rgb(234,152,133);fill-rule:nonzero;"/>
                <rect x="160.397" y="653.425" width="9.896" height="93.012" style="fill:rgb(255,189,145);fill-rule:nonzero;"/>
                <path d="M230.818,756.783C230.669,756.234 230.519,755.734 230.369,755.234L208.228,755.234C208.377,755.734 208.527,756.234 208.677,756.783C208.927,757.833 209.077,758.932 209.177,760.082L231.368,760.082C231.218,758.932 231.068,757.833 230.818,756.783Z" style="fill:rgb(219,175,2);fill-rule:nonzero;"/>
                <path d="M230.369,755.234C229.419,752.285 227.92,749.636 225.771,747.287C225.471,746.987 225.171,746.687 224.921,746.437C224.321,745.838 223.721,745.288 223.072,744.788C221.972,743.938 220.822,743.239 219.673,742.689C219.523,742.639 219.423,742.589 219.273,742.539C217.774,741.889 216.174,741.439 214.475,741.24C213.675,741.09 212.876,741.04 212.076,741.04C211.226,741.04 210.477,741.09 209.727,741.24C209.627,741.24 209.527,741.24 209.477,741.24C208.627,741.39 207.778,741.539 206.978,741.789L206.978,741.839L206.928,741.789C206.878,741.839 206.828,741.839 206.778,741.839C205.479,742.239 204.229,742.789 203.08,743.489C202.38,743.889 201.68,744.338 201.03,744.888C201.63,745.338 202.23,745.888 202.78,746.438C203.03,746.688 203.329,746.987 203.629,747.287C205.779,749.636 207.278,752.285 208.228,755.234L230.369,755.234Z" style="fill:rgb(30,24,52);fill-rule:nonzero;"/>
                <path d="M192.484,741.29C192.434,741.24 192.384,741.24 192.334,741.24C191.534,741.09 190.735,741.04 189.935,741.04C189.085,741.04 188.286,741.09 187.536,741.24C187.486,741.24 187.386,741.24 187.286,741.24C186.436,741.39 185.587,741.539 184.787,741.789L184.787,741.839L184.787,741.789C184.687,741.839 184.637,741.839 184.587,741.839C183.887,742.089 183.238,742.339 182.588,742.639C182.038,742.889 181.488,743.139 180.938,743.489C179.589,744.239 178.29,745.238 177.14,746.438L170.293,746.438L160.397,746.438L157.698,746.438L157.698,755.234L208.228,755.234C207.278,752.285 205.779,749.636 203.629,747.287C203.33,746.987 203.03,746.688 202.78,746.438C202.23,745.888 201.63,745.338 201.031,744.888C200.981,744.838 200.981,744.838 200.931,744.788C199.831,743.939 198.681,743.239 197.482,742.689C197.332,742.639 197.232,742.589 197.132,742.539C195.683,741.89 194.133,741.49 192.484,741.29Z" style="fill:rgb(42,34,75);fill-rule:nonzero;"/>
                <path d="M208.677,756.783C208.527,756.234 208.377,755.734 208.228,755.234L157.698,755.234L157.698,760.082L209.177,760.082C209.077,758.932 208.927,757.833 208.677,756.783Z" style="fill:rgb(255,255,0);fill-rule:nonzero;"/>
                <path d="M122.762,360.242C122.512,360.192 122.212,360.192 121.912,360.242C119.463,360.192 117.314,360.842 115.365,362.091C114.615,362.541 113.915,363.141 113.266,363.791C110.866,366.14 109.667,369.039 109.717,372.437C109.667,375.786 110.866,378.685 113.266,381.084C113.915,381.734 114.615,382.283 115.365,382.783C117.314,384.033 119.463,384.632 121.912,384.632C122.212,384.632 122.512,384.632 122.762,384.632L122.762,360.242Z" style="fill:rgb(255,203,153);fill-rule:nonzero;"/>
            </g>
        </g>
    </g>
</svg>
