<?xml version="1.0" encoding="UTF-8" standalone="no"?>
<!DOCTYPE svg PUBLIC "-//W3C//DTD SVG 1.1//EN" "http://www.w3.org/Graphics/SVG/1.1/DTD/svg11.dtd">
<svg width="100%" height="100%" viewBox="0 0 214 487" version="1.1" xmlns="http://www.w3.org/2000/svg" xmlns:xlink="http://www.w3.org/1999/xlink" xml:space="preserve" style="fill-rule:evenodd;clip-rule:evenodd;stroke-linejoin:round;stroke-miterlimit:1.41421;">
    <g transform="matrix(1,0,0,1,-3214,-53)">
        <g transform="matrix(1,0,0,1,0,-162)">
            <g id="Youth-Mentor-Female-1-OK-Hand" transform="matrix(1,0,0,1,3155.31,-56.4605)">
                <path d="M124.311,281.623C116.564,281.574 109.967,283.973 104.519,288.821C99.021,293.619 96.272,299.416 96.272,306.164C96.272,307.713 96.422,309.262 96.772,310.712C95.922,310.562 95.023,310.512 94.123,310.562C88.375,310.512 83.427,312.561 79.379,316.61C75.281,320.658 73.232,325.606 73.232,331.354C73.232,335.152 74.131,338.601 75.88,341.65C72.282,342.699 69.033,344.698 66.134,347.597C61.536,352.195 59.237,357.743 59.237,364.191C59.237,370.638 61.536,376.186 66.134,380.834C66.434,381.084 66.734,381.384 67.034,381.684C63.885,385.082 62.336,389.131 62.386,393.829C62.336,398.777 64.085,402.975 67.534,406.424C71.082,409.972 75.331,411.722 80.279,411.722C83.128,411.722 85.727,411.172 88.076,410.022C87.526,411.672 87.226,413.421 87.276,415.27C87.276,415.52 87.276,415.82 87.326,416.07C87.376,417.319 87.526,418.569 87.826,419.768C88.426,421.968 89.525,423.967 91.074,425.766C91.374,426.116 91.724,426.516 92.074,426.866C95.323,430.114 99.271,431.764 103.819,431.764C108.368,431.764 112.216,430.114 115.415,426.866C115.765,426.516 116.114,426.116 116.464,425.766C116.914,425.216 117.314,424.717 117.714,424.167C117.764,424.017 117.864,423.867 118.014,423.717L123.312,424.167L123.312,407.673C122.862,407.524 122.362,407.374 121.912,407.224C120.013,406.474 118.164,405.624 116.364,404.575C115.815,404.275 115.315,403.975 114.815,403.625C113.166,402.526 111.516,401.276 109.967,399.877C109.467,399.427 108.967,398.927 108.468,398.477C103.52,393.479 100.321,387.781 98.771,381.434C98.971,381.234 99.171,381.034 99.421,380.834C104.019,376.186 106.318,370.638 106.318,364.191C106.318,359.093 104.919,354.595 102.07,350.646C104.519,349.647 106.768,348.147 108.817,346.098C112.866,342 114.915,337.102 114.915,331.354C114.915,330.654 114.865,329.955 114.815,329.255C117.764,330.205 120.963,330.654 124.311,330.654C126.061,330.654 127.76,330.504 129.409,330.255C130.859,334.603 133.707,338.501 137.956,341.85C144.403,347.048 152.2,349.647 161.346,349.647C164.645,349.647 167.744,349.297 170.693,348.647C170.943,348.597 171.142,348.547 171.392,348.497L171.392,347.997C171.442,347.998 171.492,347.998 171.542,347.998C174.691,350.347 178.44,351.496 182.688,351.546C187.686,351.546 191.934,349.897 195.483,346.648C199.031,343.399 200.781,339.551 200.781,335.003C200.781,333.503 200.581,332.104 200.231,330.754C200.881,330.355 201.58,329.905 202.23,329.455C203.08,328.905 203.879,328.255 204.629,327.506C207.878,324.257 209.477,320.309 209.477,315.71C209.477,311.062 207.878,307.164 204.629,303.915C203.28,302.566 201.88,301.516 200.381,300.766C199.931,293.02 196.932,286.322 191.285,280.725C185.237,274.627 177.94,271.578 169.393,271.578C160.847,271.578 153.55,274.627 147.502,280.725C145.403,282.774 143.654,284.973 142.304,287.322C137.206,283.473 131.209,281.574 124.311,281.624L124.311,281.623ZM154.799,338.201L155.749,338.201C155.749,338.451 155.749,338.751 155.749,339.05C155.749,341.3 155.449,343.399 154.799,345.398L154.799,338.201ZM93.823,373.637C93.823,374.886 93.374,375.936 92.524,376.785C91.674,377.635 90.625,378.035 89.425,378.035C88.176,378.035 87.176,377.635 86.326,376.785C85.477,375.936 85.027,374.886 85.027,373.637C85.027,373.537 85.027,373.437 85.027,373.387C83.428,372.937 82.028,372.087 80.779,370.838C78.829,368.889 77.88,366.589 77.93,363.891C77.88,361.142 78.829,358.843 80.779,356.893C82.728,354.944 85.027,353.995 87.776,353.995C88.326,353.995 88.875,354.045 89.425,354.144L89.425,369.238C90.625,369.189 91.674,369.638 92.524,370.488C93.374,371.338 93.823,372.387 93.823,373.637Z" style="fill:rgb(255,102,0);fill-rule:nonzero;"/>
                <path d="M155.749,338.201L154.799,338.201L154.799,345.398C155.449,343.399 155.749,341.3 155.749,339.05C155.749,338.751 155.749,338.451 155.749,338.201Z" style="fill:rgb(219,88,2);fill-rule:nonzero;"/>
                <path d="M92.524,376.785C93.373,375.936 93.823,374.886 93.823,373.637C93.823,372.387 93.374,371.338 92.524,370.488C91.674,369.638 90.625,369.188 89.425,369.238C88.176,369.188 87.176,369.638 86.326,370.488C85.477,371.288 85.077,372.237 85.027,373.387C85.027,373.437 85.027,373.537 85.027,373.637C85.027,374.886 85.477,375.936 86.326,376.785C87.176,377.635 88.176,378.035 89.425,378.035C90.625,378.035 91.674,377.635 92.524,376.785Z" style="fill:rgb(255,255,153);fill-rule:nonzero;"/>
                <path d="M89.425,354.144C88.875,354.044 88.326,353.995 87.776,353.995C85.027,353.995 82.728,354.944 80.779,356.893C78.829,358.843 77.88,361.142 77.93,363.891C77.88,366.59 78.829,368.889 80.779,370.838C82.028,372.087 83.427,372.937 85.027,373.387C85.077,372.237 85.477,371.288 86.326,370.488C87.176,369.638 88.176,369.189 89.425,369.239L89.425,354.145L89.425,354.144Z" style="fill:rgb(255,204,153);fill-rule:nonzero;"/>
                <path d="M114.815,329.254C114.865,329.954 114.915,330.654 114.915,331.354C114.915,337.101 112.866,341.999 108.817,346.098C106.768,348.147 104.519,349.646 102.07,350.646C104.919,354.594 106.318,359.092 106.318,364.19C106.318,370.638 104.019,376.186 99.421,380.834C99.171,381.034 98.971,381.234 98.771,381.434C100.321,387.781 103.519,393.479 108.467,398.477C108.967,398.927 109.467,399.426 109.967,399.876C111.516,401.276 113.166,402.525 114.815,403.625C115.315,403.975 115.815,404.274 116.364,404.574C118.164,405.624 120.013,406.474 121.912,407.223C122.362,407.373 122.862,407.523 123.312,407.673C126.86,408.773 130.609,409.322 134.557,409.322C136.906,409.272 139.155,409.073 141.304,408.723C141.654,408.673 142.054,408.573 142.404,408.523C142.854,408.423 143.304,408.323 143.753,408.223C150.001,406.674 155.599,403.425 160.497,398.477C167.744,391.28 171.392,382.633 171.392,372.487L171.392,348.497C171.142,348.547 170.943,348.597 170.693,348.647C167.744,349.297 164.645,349.646 161.346,349.646C152.2,349.647 144.403,347.048 137.956,341.85C133.707,338.501 130.859,334.603 129.409,330.254C127.76,330.504 126.061,330.654 124.311,330.654C120.963,330.654 117.764,330.204 114.815,329.255L114.815,329.254ZM155.749,362.791C155.749,363.141 155.599,363.441 155.349,363.691C155.099,363.941 154.799,364.09 154.449,364.14L147.602,364.14C147.252,364.091 146.952,363.941 146.702,363.691C146.452,363.441 146.302,363.141 146.302,362.791C146.302,362.441 146.452,362.141 146.702,361.891C146.952,361.642 147.252,361.492 147.602,361.492L154.449,361.492C154.799,361.492 155.099,361.642 155.349,361.891C155.599,362.141 155.749,362.441 155.749,362.791ZM131.358,361.491C131.708,361.492 132.008,361.641 132.258,361.891C132.508,362.141 132.658,362.441 132.708,362.791C132.658,363.141 132.508,363.441 132.258,363.691C132.008,363.941 131.708,364.091 131.358,364.14L124.511,364.14C124.161,364.091 123.861,363.941 123.611,363.691C123.361,363.441 123.212,363.141 123.212,362.791C123.212,362.441 123.361,362.141 123.611,361.891C123.861,361.642 124.161,361.492 124.511,361.492L131.358,361.492L131.358,361.491ZM137.906,363.141C137.906,362.241 138.206,361.492 138.855,360.842C139.505,360.192 140.255,359.892 141.204,359.892C142.104,359.892 142.854,360.192 143.503,360.842C144.153,361.492 144.453,362.241 144.453,363.141L144.453,368.689C144.453,369.588 144.153,370.388 143.503,371.038C142.854,371.688 142.104,371.987 141.204,371.987C140.255,371.987 139.505,371.688 138.855,371.038C138.206,370.388 137.906,369.588 137.906,368.689L137.906,363.141ZM151.05,375.936C150.651,379.184 149.251,382.033 146.802,384.482C143.853,387.431 140.305,388.881 136.206,388.881C132.058,388.881 128.559,387.431 125.611,384.482C123.162,382.033 121.712,379.184 121.312,375.936L151.05,375.936Z" style="fill:rgb(255,204,153);fill-rule:nonzero;"/>
                <path d="M155.349,363.691C155.599,363.441 155.749,363.141 155.749,362.791C155.749,362.441 155.599,362.141 155.349,361.891C155.099,361.641 154.799,361.492 154.449,361.492L147.602,361.492C147.252,361.492 146.952,361.641 146.702,361.891C146.452,362.141 146.302,362.441 146.302,362.791C146.302,363.141 146.452,363.441 146.702,363.691C146.952,363.941 147.252,364.091 147.602,364.141L154.449,364.141C154.799,364.091 155.099,363.941 155.349,363.691Z" style="fill:rgb(75,28,2);fill-rule:nonzero;"/>
                <path d="M132.258,361.891C132.008,361.641 131.708,361.492 131.358,361.492L124.511,361.492C124.161,361.492 123.861,361.641 123.611,361.891C123.361,362.141 123.212,362.441 123.212,362.791C123.212,363.141 123.361,363.441 123.611,363.691C123.861,363.941 124.161,364.091 124.511,364.141L131.358,364.141C131.708,364.091 132.008,363.941 132.258,363.691C132.508,363.441 132.658,363.141 132.708,362.791C132.658,362.441 132.508,362.141 132.258,361.892L132.258,361.891Z" style="fill:rgb(75,28,2);fill-rule:nonzero;"/>
                <path d="M138.855,360.842C138.206,361.491 137.906,362.241 137.906,363.141L137.906,368.689C137.906,369.588 138.206,370.388 138.855,371.038C139.505,371.687 140.255,371.987 141.204,371.987C142.104,371.987 142.854,371.687 143.503,371.038C144.153,370.388 144.453,369.588 144.453,368.689L144.453,363.141C144.453,362.241 144.153,361.492 143.503,360.842C142.854,360.192 142.104,359.892 141.204,359.892C140.255,359.892 139.505,360.192 138.855,360.842Z" style="fill:rgb(234,152,133);fill-rule:nonzero;"/>
                <path d="M146.802,384.482C149.251,382.033 150.651,379.184 151.05,375.936L121.312,375.936C121.712,379.184 123.162,382.033 125.611,384.482C128.559,387.431 132.058,388.881 136.206,388.881C140.305,388.881 143.853,387.431 146.802,384.482Z" style="fill:white;fill-rule:nonzero;"/>
                <path d="M200.231,330.754C200.581,332.103 200.781,333.503 200.781,335.002C200.781,339.55 199.031,343.399 195.483,346.647C191.934,349.896 187.686,351.546 182.688,351.546C178.439,351.496 174.691,350.346 171.542,347.997C171.492,347.997 171.442,347.997 171.392,347.997L171.392,372.487C171.392,382.633 167.744,391.28 160.497,398.477C155.599,403.425 150.001,406.674 143.753,408.223L143.753,423.167C144.503,423.817 145.253,424.367 146.052,424.816C149.001,426.416 152.15,426.116 155.599,423.917C163.146,429.814 168.843,428.865 172.792,421.068C173.142,420.418 173.441,419.718 173.741,418.969C173.941,419.219 174.141,419.519 174.391,419.768C174.741,420.218 175.141,420.618 175.591,421.068C178.389,423.867 181.738,425.266 185.687,425.266C189.635,425.266 192.984,423.867 195.783,421.068C196.232,420.618 196.632,420.218 196.982,419.768C197.882,418.619 198.581,417.369 199.131,416.07C199.731,414.471 200.031,412.771 200.031,410.972C200.031,408.623 199.531,406.524 198.581,404.575C201.78,403.725 204.679,402.026 207.228,399.477C209.527,397.128 211.126,394.579 212.076,391.73L212.076,384.533L213.026,384.533C212.826,379.435 210.876,375.037 207.228,371.388C204.529,368.689 201.43,366.94 197.932,366.14C202.38,365.74 206.278,363.941 209.527,360.692C213.176,356.994 215.025,352.546 215.025,347.348C215.025,342.15 213.176,337.702 209.527,334.053C207.378,331.904 204.929,330.355 202.23,329.455C201.58,329.905 200.88,330.355 200.231,330.754Z" style="fill:rgb(219,88,2);fill-rule:nonzero;"/>
                <path d="M268.004,362.991C267.954,362.941 267.954,362.941 267.904,362.991C266.654,362.991 265.555,363.341 264.605,364.09C263.555,364.84 263.056,365.89 263.056,367.189C263.056,369.938 262.756,373.337 262.156,377.285C262.106,377.435 262.106,377.535 262.056,377.685C262.056,377.735 262.056,377.785 262.056,377.835C261.906,377.735 261.806,377.635 261.706,377.585C261.706,377.435 261.706,377.335 261.756,377.185C262.606,370.838 261.956,364.89 259.907,359.343C259.307,357.693 258.407,356.594 257.158,356.044C256.058,355.494 254.909,355.444 253.709,355.894C252.56,356.244 251.66,356.894 251.06,357.893C250.311,358.943 250.111,360.142 250.411,361.392C251.41,365.69 251.91,369.788 251.86,373.637C251.86,373.687 251.86,373.687 251.86,373.737C251.76,373.687 251.66,373.687 251.56,373.637C251.11,367.19 249.061,361.792 245.363,357.443C244.263,356.094 243.064,355.444 241.764,355.394C240.615,355.344 239.515,355.744 238.565,356.694C237.616,357.543 237.066,358.593 236.816,359.843C236.566,361.142 236.866,362.292 237.616,363.341C239.365,365.69 240.565,367.639 241.214,369.239C241.664,370.288 241.964,371.388 242.214,372.637C242.214,372.687 242.214,372.687 242.214,372.737C242.064,372.737 241.914,372.737 241.764,372.737C235.617,372.787 231.368,374.587 229.119,378.185C226.87,381.734 226.32,385.033 227.52,387.981C228.27,389.931 230.169,390.93 233.168,390.98C231.968,391.03 230.918,391.73 230.019,393.129C228.969,394.779 228.919,396.478 229.919,398.227C231.668,401.176 234.217,403.425 237.566,404.875C239.365,405.674 241.314,406.224 243.413,406.474C243.663,406.524 243.963,406.524 244.263,406.574C243.613,418.969 240.864,428.815 236.016,436.162C233.817,439.511 231.168,442.36 228.12,444.609C220.373,449.657 208.777,451.306 193.333,449.557L191.384,464.001C210.527,466 225.321,463.201 235.767,455.604C242.714,451.056 248.062,444.559 251.71,436.162C255.459,427.466 257.508,416.72 257.758,403.925C258.807,403.375 259.807,402.776 260.806,402.076C264.705,399.227 267.354,395.778 268.703,391.63C268.753,391.53 268.753,391.43 268.803,391.33C269.753,388.581 270.653,385.033 271.402,380.685C272.102,376.336 272.502,372.188 272.652,368.29C272.752,366.59 272.302,365.241 271.302,364.291C271.202,364.191 271.102,364.091 271.052,364.041C270.203,363.342 269.203,362.992 268.004,362.992L268.004,362.991ZM237.016,386.282C236.966,383.633 238.216,382.133 240.715,381.833C242.314,381.633 243.763,381.983 245.113,382.933C246.412,383.883 247.312,385.232 247.762,386.881C248.162,388.431 248.112,389.88 247.562,391.33C246.912,392.879 245.812,393.979 244.163,394.628C241.814,395.578 239.865,394.978 238.415,392.879C237.466,391.53 235.767,390.93 233.417,390.98C235.816,390.83 237.016,389.28 237.016,386.282Z" style="fill:rgb(255,204,153);fill-rule:nonzero;"/>
                <path d="M141.304,408.723C139.155,409.072 136.906,409.272 134.557,409.322C130.609,409.322 126.86,408.773 123.312,407.673L123.312,433.263L122.112,433.263C122.962,434.612 123.861,435.962 124.861,437.211C126.61,439.41 128.359,441.16 130.109,442.409C130.459,442.659 130.759,442.859 131.108,443.059C133.058,444.308 135.057,444.908 137.006,444.908C141.004,444.908 143.753,442.359 145.303,437.211C145.653,435.962 145.952,434.662 146.102,433.313L146.102,433.263L143.753,433.263L143.753,423.167L143.753,408.223C143.304,408.323 142.854,408.423 142.404,408.523C142.054,408.573 141.654,408.673 141.304,408.723Z" style="fill:rgb(234,152,133);fill-rule:nonzero;"/>
                <path d="M146.102,433.313C145.952,434.662 145.653,435.962 145.303,437.211C143.753,442.359 141.004,444.908 137.006,444.908C135.057,444.908 133.058,444.308 131.108,443.059C130.759,442.859 130.459,442.659 130.109,442.409C128.359,441.16 126.61,439.41 124.861,437.211C123.861,435.962 122.962,434.612 122.112,433.263L117.714,433.263L117.714,561.861L169.443,561.861L169.293,561.412L169.293,483.443C171.492,482.893 173.441,481.794 175.141,480.144C177.54,477.695 178.739,474.796 178.739,471.448C178.739,468.049 177.54,465.15 175.141,462.701L173.441,461.302C173.242,461.152 173.042,461.002 172.892,460.902C171.592,460.102 170.193,459.552 168.743,459.303L168.743,459.253C168.693,459.003 168.693,458.753 168.643,458.503C167.444,452.205 165.045,446.958 161.446,442.809C157.698,438.461 152.6,435.312 146.202,433.313C146.152,433.263 146.152,433.263 146.102,433.263L146.102,433.313ZM148.901,482.443C146.702,484.542 144.053,485.592 140.904,485.592C139.755,485.592 138.705,485.442 137.706,485.142C135.956,484.692 134.357,483.793 132.958,482.443C132.208,481.693 131.558,480.944 131.108,480.194C130.659,479.494 130.359,478.795 130.109,478.095C130.409,478.045 130.759,478.045 131.108,477.995C135.457,477.795 142.304,477.945 151.6,478.495C151.75,479.244 150.85,480.594 148.901,482.443Z" style="fill:rgb(38,55,73);fill-rule:nonzero;"/>
                <path d="M140.904,485.592C144.053,485.592 146.702,484.542 148.901,482.443C150.85,480.594 151.75,479.244 151.6,478.495C142.304,477.945 135.457,477.795 131.108,477.995C130.759,478.045 130.409,478.045 130.109,478.095C130.359,478.795 130.659,479.494 131.108,480.194C131.558,480.944 132.208,481.694 132.958,482.443C134.357,483.793 135.956,484.692 137.706,485.142C138.705,485.442 139.755,485.592 140.904,485.592Z" style="fill:rgb(15,21,28);fill-rule:nonzero;"/>
                <path d="M191.384,464L193.333,449.556C186.386,448.807 178.589,447.307 170.043,445.158C167.244,444.458 164.395,443.659 161.446,442.809C165.045,446.957 167.444,452.205 168.643,458.503C168.693,458.753 168.693,459.002 168.743,459.252L168.743,459.302C170.193,459.552 171.592,460.102 172.892,460.902C179.439,462.351 185.637,463.401 191.384,464.001L191.384,464Z" style="fill:rgb(15,21,28);fill-rule:nonzero;"/>
                <path d="M158.148,602.095L169.293,601.745L169.293,561.861L117.714,561.861L117.714,585.152C120.962,585.802 123.361,588.301 125.011,592.599L135.157,602.695L136.606,602.645L148.501,602.345L158.148,602.095Z" style="fill:rgb(228,81,99);fill-rule:nonzero;"/>
                <path d="M135.157,610.242L135.057,610.292C134.007,611.342 132.708,611.841 131.258,611.891C129.959,611.841 128.809,611.392 127.81,610.542L127.01,609.742L127.01,744.838L136.606,744.838L136.606,607.243C136.506,608.193 136.156,609.092 135.507,609.842C135.357,609.992 135.257,610.092 135.157,610.242Z" style="fill:rgb(255,189,145);fill-rule:nonzero;"/>
                <path d="M135.057,610.292L135.157,610.242C135.257,610.092 135.357,609.992 135.507,609.842C136.156,609.092 136.506,608.193 136.606,607.243C136.656,606.993 136.656,606.743 136.656,606.494C136.656,606.244 136.656,605.994 136.606,605.744C136.456,604.594 136.006,603.545 135.157,602.695L125.011,592.599L124.311,591.899L125.061,592.799C125.111,592.899 125.111,593.049 125.161,593.199L125.211,593.249C125.361,593.599 125.461,593.999 125.611,594.398C125.661,594.548 125.711,594.748 125.761,594.898C125.86,595.298 125.91,595.748 125.91,596.198L125.91,608.643L127.01,609.742L127.81,610.542C128.809,611.392 129.959,611.842 131.258,611.892C132.708,611.842 134.007,611.342 135.057,610.292Z" style="fill:rgb(234,152,133);fill-rule:nonzero;"/>
                <path d="M136.606,605.744L136.606,602.645L135.157,602.695C136.006,603.545 136.456,604.594 136.606,605.744Z" style="fill:rgb(255,189,145);fill-rule:nonzero;"/>
                <path d="M158.148,602.095L148.501,602.345L148.501,741.09C149.151,740.79 149.801,740.54 150.451,740.34C150.501,740.34 150.601,740.34 150.651,740.29L150.651,740.34L150.651,740.29C151.45,740.04 152.25,739.89 153.1,739.79C153.15,739.74 153.25,739.74 153.349,739.74C154.099,739.64 154.849,739.59 155.649,739.59C156.448,739.59 157.248,739.64 157.998,739.79C158.048,739.79 158.098,739.79 158.148,739.79L158.148,602.095Z" style="fill:rgb(234,152,133);fill-rule:nonzero;"/>
                <path d="M195.882,758.083C195.733,756.933 195.583,755.884 195.333,754.834C195.183,754.334 195.083,753.834 194.933,753.335L173.391,753.335C173.541,753.834 173.691,754.334 173.841,754.834C174.091,755.884 174.241,756.933 174.341,758.083L195.882,758.083Z" style="fill:rgb(177,71,1);fill-rule:nonzero;"/>
                <path d="M190.435,745.638C190.185,745.338 189.885,745.088 189.635,744.838C189.085,744.238 188.485,743.689 187.836,743.239C186.786,742.389 185.637,741.739 184.487,741.19C184.387,741.14 184.287,741.09 184.137,741.04C182.688,740.39 181.138,739.94 179.489,739.79C178.739,739.64 177.94,739.59 177.14,739.59C176.34,739.59 175.591,739.64 174.841,739.74C174.791,739.74 174.691,739.74 174.591,739.79C173.741,739.89 172.942,740.04 172.192,740.29L172.192,740.34L172.142,740.29C172.092,740.34 172.042,740.34 171.992,740.34C170.743,740.74 169.543,741.29 168.443,741.939C167.744,742.339 167.094,742.789 166.444,743.289C166.994,743.739 167.594,744.288 168.144,744.838C168.393,745.088 168.693,745.338 168.943,745.638C170.992,747.937 172.492,750.486 173.391,753.335L194.933,753.335C193.983,750.486 192.484,747.937 190.435,745.638Z" style="fill:rgb(30,24,52);fill-rule:nonzero;"/>
                <path d="M174.341,758.083C174.241,756.933 174.091,755.884 173.841,754.834C173.691,754.334 173.541,753.834 173.391,753.335L124.361,753.335L124.361,758.083L174.341,758.083Z" style="fill:rgb(255,102,0);fill-rule:nonzero;"/>
                <path d="M168.943,745.638C168.693,745.338 168.393,745.088 168.144,744.838C167.594,744.288 166.994,743.739 166.444,743.289C166.394,743.239 166.394,743.239 166.344,743.239C165.295,742.389 164.145,741.739 162.996,741.19C162.846,741.14 162.746,741.09 162.646,741.04C161.196,740.39 159.697,739.99 158.148,739.79C158.098,739.79 158.048,739.79 157.998,739.79C157.248,739.64 156.448,739.59 155.649,739.59C154.849,739.59 154.099,739.64 153.349,739.74C153.25,739.74 153.15,739.74 153.1,739.79C152.25,739.89 151.45,740.04 150.651,740.29L150.651,740.34L150.651,740.29C150.601,740.34 150.501,740.34 150.451,740.34C149.801,740.54 149.151,740.79 148.501,741.09C147.952,741.34 147.452,741.59 146.902,741.939C145.603,742.689 144.353,743.689 143.204,744.838L136.606,744.838L127.01,744.838L124.361,744.838L124.361,753.335L173.391,753.335C172.492,750.486 170.992,747.937 168.943,745.638Z" style="fill:rgb(42,34,75);fill-rule:nonzero;"/>
                <path d="M117.714,433.263C107.718,433.263 102.72,438.261 102.72,448.257L102.72,479.444L117.714,479.444L117.714,433.263Z" style="fill:rgb(15,21,28);fill-rule:nonzero;"/>
                <path d="M117.714,479.444L102.72,479.444L102.72,584.602L101.72,584.602L101.72,585.152C98.222,585.952 95.872,587.701 94.723,590.4C94.423,591.799 94.123,593.199 93.873,594.598L93.873,613.991C93.823,615.49 94.323,616.739 95.323,617.739C96.372,618.789 97.622,619.338 99.171,619.338L99.271,619.338C100.721,619.338 101.97,618.789 102.92,617.739C103.719,616.989 104.219,616.14 104.469,615.09C104.419,614.94 104.419,614.74 104.469,614.59C104.519,614.59 104.519,614.64 104.569,614.69C104.519,614.84 104.519,614.94 104.469,615.09C104.569,616.34 105.069,617.439 105.918,618.339C106.968,619.389 108.268,619.888 109.767,619.888L109.917,619.888C111.366,619.888 112.616,619.389 113.565,618.339C114.415,617.539 114.915,616.59 115.115,615.54C115.165,615.49 115.165,615.49 115.215,615.54C115.315,616.79 115.815,617.839 116.664,618.689C117.714,619.738 119.013,620.238 120.513,620.238L120.663,620.238C122.112,620.238 123.361,619.739 124.311,618.689C124.461,618.489 124.661,618.289 124.811,618.139C125.561,617.24 125.91,616.19 125.96,614.94L125.91,608.643C125.811,608.593 125.711,608.493 125.661,608.393L125.91,608.393L125.91,596.198C125.91,595.748 125.86,595.298 125.761,594.899C125.711,594.749 125.661,594.549 125.611,594.399C125.461,593.999 125.361,593.599 125.211,593.249L125.161,593.199C125.111,593.049 125.111,592.899 125.061,592.799L124.311,591.9L125.011,592.599C123.361,588.301 120.962,585.802 117.714,585.152L117.714,561.862L117.714,479.445L117.714,479.444ZM104.569,595.898L104.469,595.848C104.469,595.498 104.519,595.198 104.569,594.898L104.569,595.898Z" style="fill:rgb(255,204,153);fill-rule:nonzero;"/>
                <path d="M104.469,595.848L104.569,595.898L104.569,595.248C104.569,595.148 104.569,595.048 104.569,594.898C104.519,595.198 104.469,595.498 104.469,595.848Z" style="fill:rgb(77,95,109);fill-rule:nonzero;"/>
                <path d="M125.91,608.393L125.661,608.393C125.711,608.493 125.811,608.593 125.91,608.643L125.91,608.393Z" style="fill:rgb(77,95,109);fill-rule:nonzero;"/>
                <path d="M104.469,615.09C104.519,614.94 104.519,614.84 104.569,614.69C104.519,614.64 104.519,614.59 104.469,614.59C104.419,614.74 104.419,614.94 104.469,615.09Z" style="fill:rgb(77,95,109);fill-rule:nonzero;"/>
            </g>
        </g>
    </g>
</svg>
