<?xml version="1.0" encoding="UTF-8" standalone="no"?>
<!DOCTYPE svg PUBLIC "-//W3C//DTD SVG 1.1//EN" "http://www.w3.org/Graphics/SVG/1.1/DTD/svg11.dtd">
<svg width="100%" height="100%" viewBox="0 0 227 487" version="1.1" xmlns="http://www.w3.org/2000/svg" xmlns:xlink="http://www.w3.org/1999/xlink" xml:space="preserve" style="fill-rule:evenodd;clip-rule:evenodd;stroke-linejoin:round;stroke-miterlimit:1.41421;">
    <g transform="matrix(1,0,0,1,-2951,-53)">
        <g transform="matrix(1,0,0,1,0,-162)">
            <g id="Youth-Mentor-Female-1-Laptop" transform="matrix(1,0,0,1,2633.68,-56.4495)">
                <path d="M428.167,271.627C419.615,271.627 412.269,274.671 406.235,280.757C404.189,282.803 402.457,284.955 401.04,287.316C395.951,283.486 389.969,281.597 383.096,281.649C375.33,281.649 368.719,284.063 363.262,288.837C357.805,293.612 355.077,299.384 355.077,306.152C355.077,307.726 355.234,309.248 355.549,310.717C354.657,310.612 353.765,310.56 352.873,310.56C347.154,310.56 342.222,312.606 338.129,316.646C334.089,320.686 332.043,325.619 332.043,331.39C331.99,335.168 332.882,338.579 334.666,341.674C331.046,342.724 327.793,344.717 324.907,347.603C320.29,352.221 317.981,357.782 318.034,364.236C317.981,370.69 320.29,376.252 324.907,380.869C325.169,381.131 325.484,381.446 325.799,381.708C322.703,385.119 321.129,389.159 321.129,393.881C321.129,398.761 322.861,402.959 326.324,406.474C329.839,409.989 334.089,411.773 339.074,411.773C341.907,411.773 344.478,411.196 346.839,410.042C346.315,411.669 346.052,413.452 346.052,415.289C346,415.551 346,415.814 346.052,416.076C346.105,417.388 346.262,418.594 346.629,419.749C347.206,421.953 348.308,423.999 349.83,425.835C350.145,426.203 350.46,426.517 350.827,426.885C354.132,430.19 358.015,431.817 362.58,431.817C367.145,431.817 370.975,430.19 374.176,426.885C374.543,426.517 374.858,426.202 375.225,425.835C375.645,425.31 376.065,424.786 376.484,424.209C376.537,424.051 376.642,423.894 376.747,423.736L382.099,424.209L382.099,407.681C381.626,407.523 381.154,407.366 380.682,407.208C378.741,406.526 376.904,405.634 375.12,404.637C374.596,404.323 374.071,404.008 373.599,403.693C371.92,402.591 370.293,401.332 368.719,399.915C368.247,399.443 367.722,398.971 367.25,398.499C362.265,393.514 359.065,387.795 357.543,381.446C357.753,381.236 357.963,381.026 358.173,380.869C362.79,376.251 365.099,370.69 365.099,364.236C365.099,359.146 363.682,354.634 360.848,350.699C363.315,349.702 365.518,348.18 367.565,346.134C371.605,342.041 373.651,337.109 373.704,331.39C373.651,330.655 373.651,329.973 373.599,329.291C376.537,330.183 379.685,330.655 383.096,330.708C384.827,330.708 386.559,330.551 388.185,330.288C389.654,334.643 392.488,338.473 396.738,341.884C403.191,347.078 410.957,349.702 420.139,349.702C423.392,349.649 426.488,349.335 429.426,348.705C429.688,348.652 429.898,348.6 430.161,348.548L430.161,348.023C430.213,348.023 430.266,348.023 430.318,348.023C433.519,350.384 437.192,351.538 441.442,351.538C446.426,351.538 450.729,349.912 454.244,346.659C457.76,343.458 459.544,339.575 459.544,335.01C459.544,333.489 459.334,332.072 458.966,330.76C459.649,330.393 460.331,329.973 461.013,329.501C461.852,328.924 462.639,328.242 463.374,327.507C466.627,324.254 468.254,320.319 468.254,315.702C468.254,311.084 466.627,307.149 463.374,303.896C462.062,302.584 460.645,301.587 459.124,300.8C458.704,293.035 455.713,286.371 450.099,280.757C444.013,274.67 436.719,271.627 428.167,271.627ZM336.713,363.921C336.66,361.14 337.605,358.832 339.546,356.89C341.487,354.949 343.796,354.005 346.577,354.057C347.102,354.057 347.626,354.109 348.204,354.162L348.204,369.273C349.41,369.221 350.407,369.64 351.299,370.532C352.191,371.424 352.611,372.474 352.611,373.681C352.611,374.887 352.191,375.884 351.299,376.776C350.407,377.668 349.41,378.088 348.203,378.088C346.997,378.088 345.947,377.668 345.055,376.776C344.163,375.884 343.744,374.887 343.796,373.68C343.796,373.575 343.796,373.471 343.796,373.418C342.222,372.946 340.805,372.106 339.546,370.847C337.605,368.906 336.66,366.597 336.713,363.921Z" style="fill:rgb(255,102,0);fill-rule:nonzero;"/>
                <path d="M339.546,356.89C337.605,358.832 336.66,361.14 336.713,363.921C336.66,366.597 337.605,368.906 339.546,370.847C340.805,372.107 342.222,372.946 343.796,373.418C343.849,372.316 344.268,371.319 345.055,370.532C345.947,369.64 346.997,369.221 348.204,369.273L348.204,354.162C347.626,354.109 347.102,354.057 346.577,354.057C343.796,354.004 341.487,354.949 339.546,356.89Z" style="fill:rgb(255,204,153);fill-rule:nonzero;"/>
                <path d="M345.055,370.532C344.268,371.32 343.849,372.316 343.796,373.418C343.796,373.471 343.796,373.576 343.796,373.681C343.744,374.887 344.163,375.884 345.055,376.776C345.947,377.668 346.997,378.088 348.204,378.088C349.41,378.088 350.407,377.668 351.299,376.776C352.191,375.884 352.611,374.887 352.611,373.681C352.611,372.474 352.191,371.424 351.299,370.532C350.407,369.64 349.41,369.221 348.203,369.273C346.997,369.221 345.947,369.64 345.055,370.532Z" style="fill:rgb(255,255,153);fill-rule:nonzero;"/>
                <path d="M373.599,329.291C373.651,329.974 373.651,330.656 373.704,331.39C373.651,337.109 371.605,342.042 367.565,346.134C365.518,348.18 363.315,349.702 360.849,350.699C363.682,354.634 365.099,359.147 365.099,364.236C365.099,370.69 362.79,376.252 358.173,380.869C357.963,381.026 357.753,381.236 357.543,381.446C359.065,387.795 362.265,393.514 367.25,398.499C367.722,398.971 368.247,399.443 368.719,399.915C370.293,401.332 371.92,402.591 373.599,403.693C374.071,404.008 374.596,404.323 375.12,404.638C376.904,405.635 378.741,406.526 380.682,407.209C381.154,407.366 381.627,407.523 382.099,407.681C385.614,408.783 389.34,409.36 393.327,409.36C395.688,409.307 397.945,409.097 400.096,408.73C400.463,408.678 400.778,408.573 401.145,408.52C401.618,408.415 402.037,408.31 402.509,408.206C408.753,406.684 414.368,403.431 419.3,398.499C426.541,391.31 430.161,382.6 430.161,372.474L430.161,348.548C429.899,348.6 429.689,348.653 429.426,348.705C426.488,349.335 423.392,349.65 420.139,349.702C410.957,349.702 403.192,347.079 396.738,341.884C392.488,338.474 389.654,334.643 388.185,330.288C386.559,330.551 384.827,330.708 383.096,330.708C379.685,330.656 376.537,330.183 373.599,329.291ZM382.361,361.875C382.624,361.613 382.938,361.508 383.306,361.508L390.127,361.508C390.494,361.508 390.756,361.613 391.019,361.875C391.281,362.137 391.438,362.452 391.438,362.819C391.438,363.187 391.281,363.449 391.019,363.711C390.756,363.974 390.494,364.131 390.127,364.131L383.306,364.131C382.938,364.131 382.623,363.974 382.361,363.711C382.099,363.449 381.994,363.187 381.994,362.819C381.994,362.452 382.099,362.137 382.361,361.875ZM384.355,384.489C381.889,382.023 380.472,379.19 380.105,375.937L409.855,375.937C409.435,379.19 408.019,382.023 405.553,384.489C402.614,387.428 399.099,388.897 394.954,388.897C390.809,388.897 387.293,387.428 384.355,384.489ZM413.213,361.508C413.581,361.508 413.843,361.613 414.105,361.875C414.368,362.137 414.525,362.452 414.525,362.819C414.525,363.187 414.368,363.449 414.105,363.711C413.843,363.974 413.581,364.131 413.213,364.131L406.392,364.131C406.025,364.131 405.71,363.974 405.448,363.711C405.185,363.449 405.081,363.187 405.081,362.819C405.081,362.452 405.185,362.137 405.448,361.875C405.71,361.613 406.025,361.508 406.392,361.508L413.213,361.508ZM396.685,363.187C396.633,362.295 396.948,361.508 397.63,360.878C398.259,360.196 399.046,359.881 399.938,359.881C400.83,359.881 401.618,360.196 402.247,360.878C402.877,361.508 403.192,362.295 403.244,363.187L403.244,368.749C403.192,369.64 402.877,370.375 402.247,371.057C401.618,371.687 400.83,372.002 399.938,372.002C399.046,372.002 398.259,371.687 397.63,371.057C396.948,370.375 396.633,369.64 396.685,368.748L396.685,363.187Z" style="fill:rgb(255,204,153);fill-rule:nonzero;"/>
                <path d="M383.306,361.508C382.938,361.508 382.624,361.613 382.361,361.875C382.099,362.137 381.994,362.452 381.994,362.819C381.994,363.187 382.099,363.449 382.361,363.711C382.624,363.974 382.938,364.131 383.306,364.131L390.127,364.131C390.494,364.131 390.756,363.974 391.019,363.711C391.281,363.449 391.438,363.187 391.438,362.819C391.438,362.452 391.281,362.137 391.019,361.875C390.756,361.613 390.494,361.508 390.127,361.508L383.306,361.508Z" style="fill:rgb(75,28,2);fill-rule:nonzero;"/>
                <path d="M380.105,375.937C380.472,379.19 381.889,382.023 384.355,384.489C387.293,387.428 390.809,388.897 394.954,388.897C399.099,388.897 402.614,387.428 405.553,384.489C408.019,382.023 409.435,379.19 409.855,375.937L380.105,375.937Z" style="fill:white;fill-rule:nonzero;"/>
                <path d="M414.105,361.875C413.843,361.613 413.581,361.508 413.213,361.508L406.392,361.508C406.025,361.508 405.71,361.613 405.448,361.875C405.185,362.137 405.08,362.452 405.08,362.819C405.08,363.187 405.185,363.449 405.448,363.711C405.71,363.974 406.025,364.131 406.392,364.131L413.213,364.131C413.581,364.131 413.843,363.974 414.105,363.711C414.368,363.449 414.525,363.187 414.525,362.819C414.525,362.452 414.368,362.137 414.105,361.875Z" style="fill:rgb(75,28,2);fill-rule:nonzero;"/>
                <path d="M397.63,360.878C396.948,361.508 396.633,362.295 396.685,363.187L396.685,368.749C396.633,369.64 396.948,370.375 397.63,371.057C398.259,371.687 399.046,372.002 399.938,372.002C400.83,372.002 401.618,371.687 402.247,371.057C402.877,370.375 403.192,369.64 403.244,368.748L403.244,363.187C403.192,362.295 402.877,361.508 402.247,360.878C401.618,360.196 400.83,359.881 399.938,359.881C399.046,359.881 398.259,360.196 397.63,360.878Z" style="fill:rgb(234,152,133);fill-rule:nonzero;"/>
                <path d="M458.967,330.761C459.334,332.072 459.544,333.489 459.544,335.011C459.544,339.575 457.76,343.458 454.244,346.659C450.729,349.912 446.426,351.538 441.442,351.538C437.192,351.538 433.519,350.384 430.318,348.023C430.266,348.023 430.213,348.023 430.161,348.023L430.161,372.474C430.161,382.6 426.541,391.31 419.3,398.499C414.368,403.431 408.753,406.684 402.509,408.205L402.509,423.212C403.244,423.894 404.031,424.419 404.818,424.838C407.756,426.465 410.957,426.15 414.368,423.946C422.5,430.348 428.587,428.669 432.522,418.962C432.679,419.224 432.889,419.486 433.152,419.749C433.519,420.221 433.886,420.641 434.358,421.113C437.139,423.894 440.55,425.258 444.485,425.258C448.42,425.258 451.778,423.894 454.559,421.113C454.979,420.641 455.399,420.221 455.766,419.749C456.658,418.594 457.393,417.388 457.865,416.076C458.442,414.502 458.757,412.823 458.809,410.986C458.757,408.625 458.285,406.526 457.34,404.585C460.541,403.693 463.427,402.014 465.998,399.495C469.88,395.56 471.822,390.89 471.822,385.434C471.822,379.924 469.88,375.254 465.998,371.424C463.322,368.696 460.226,366.964 456.71,366.177C461.17,365.81 465.053,363.974 468.306,360.72C471.979,356.995 473.816,352.588 473.816,347.393C473.816,342.199 471.979,337.739 468.306,334.118C466.155,331.967 463.689,330.393 461.013,329.501C460.331,329.973 459.649,330.393 458.967,330.76L458.967,330.761Z" style="fill:rgb(219,88,2);fill-rule:nonzero;"/>
                <path d="M400.096,408.73C397.945,409.098 395.688,409.307 393.327,409.36C389.34,409.36 385.614,408.783 382.099,407.681L382.099,433.286L380.84,433.286C381.732,434.65 382.624,435.962 383.62,437.221C385.352,439.425 387.136,441.156 388.867,442.416C391.176,444.095 393.485,444.934 395.793,444.934C399.781,444.934 402.509,442.363 404.031,437.221C404.398,436.014 404.713,434.703 404.871,433.338L404.871,433.286L402.509,433.286L402.509,423.212L402.509,408.206C402.037,408.31 401.617,408.415 401.145,408.52C400.778,408.573 400.463,408.678 400.096,408.73Z" style="fill:rgb(234,152,133);fill-rule:nonzero;"/>
                <path d="M404.871,433.338C404.713,434.703 404.398,436.014 404.031,437.221C402.509,442.363 399.781,444.934 395.793,444.934C393.485,444.934 391.176,444.095 388.867,442.416C387.136,441.156 385.352,439.425 383.62,437.221C382.624,435.962 381.732,434.65 380.84,433.286L376.485,433.286L376.485,561.889L428.167,561.889L428.062,561.416L428.062,483.447C430.213,482.975 432.155,481.873 433.886,480.141C436.3,477.728 437.507,474.842 437.507,471.431C437.507,468.021 436.3,465.135 433.886,462.721C432.05,460.885 429.951,459.783 427.537,459.311C427.485,459.048 427.433,458.839 427.38,458.576C424.966,445.669 417.516,437.274 404.976,433.338C404.923,433.286 404.923,433.286 404.871,433.286L404.871,433.338ZM407.651,482.45C405.448,484.549 402.772,485.598 399.676,485.598C398.574,485.598 397.472,485.441 396.475,485.178C394.692,484.706 393.117,483.762 391.701,482.45C390.337,481.138 389.392,479.722 388.92,478.095C393.17,477.833 400.358,477.938 410.38,478.515C410.537,479.302 409.593,480.614 407.651,482.45Z" style="fill:rgb(38,55,73);fill-rule:nonzero;"/>
                <path d="M399.676,485.598C402.772,485.598 405.448,484.549 407.651,482.45C409.593,480.613 410.537,479.302 410.38,478.515C400.358,477.938 393.17,477.833 388.92,478.095C389.392,479.722 390.337,481.138 391.701,482.45C393.117,483.762 394.692,484.706 396.475,485.178C397.472,485.441 398.574,485.598 399.676,485.598Z" style="fill:rgb(15,21,28);fill-rule:nonzero;"/>
                <path d="M376.485,433.286C366.463,433.286 361.478,438.271 361.478,448.292L361.478,479.512L376.485,479.512L376.485,433.286Z" style="fill:rgb(15,21,28);fill-rule:nonzero;"/>
                <path d="M376.485,479.512L361.478,479.512L361.478,584.608L360.481,584.608L360.481,585.185C356.966,585.972 354.657,587.756 353.503,590.432C353.188,591.849 352.926,593.213 352.663,594.63C352.663,594.682 352.663,594.787 352.663,594.84C352.611,594.997 352.611,595.154 352.663,595.312L352.611,614.043C352.611,615.513 353.083,616.772 354.08,617.769C355.129,618.818 356.389,619.343 357.91,619.343L358.068,619.343C359.537,619.343 360.744,618.818 361.741,617.769C362.528,616.982 363,616.09 363.262,615.093C363.21,614.935 363.21,614.778 363.21,614.621C363.262,614.621 363.262,614.621 363.315,614.673C363.262,614.83 363.262,614.935 363.262,615.093C363.315,616.405 363.839,617.454 364.731,618.346C365.781,619.395 367.04,619.92 368.509,619.92L368.667,619.92C370.136,619.92 371.343,619.395 372.339,618.346C373.179,617.559 373.704,616.667 373.861,615.565C373.914,615.513 373.914,615.513 373.966,615.565C374.071,616.772 374.543,617.821 375.435,618.713C376.485,619.763 377.744,620.287 379.265,620.287L379.423,620.287C380.892,620.287 382.099,619.763 383.096,618.713C383.253,618.556 383.411,618.346 383.568,618.189C384.302,617.297 384.67,616.195 384.722,614.988L384.67,608.692C384.617,608.587 384.512,608.482 384.407,608.429L384.67,608.429L384.67,596.204C384.67,595.732 384.617,595.312 384.565,594.945C384.512,594.787 384.46,594.577 384.407,594.42C384.25,594.053 384.145,593.685 383.988,593.318L383.935,593.213C383.935,593.056 383.935,592.951 383.883,592.793L383.096,591.901L383.778,592.636C382.151,588.333 379.685,585.867 376.485,585.185L376.485,561.889L376.485,479.512ZM363.315,595.941L363.262,595.889C363.262,595.574 363.262,595.259 363.315,594.945L363.315,595.941Z" style="fill:rgb(255,204,153);fill-rule:nonzero;"/>
                <path d="M363.262,595.889L363.315,595.941L363.315,595.312C363.315,595.154 363.315,595.049 363.315,594.945C363.262,595.259 363.262,595.574 363.262,595.889Z" style="fill:rgb(77,95,109);fill-rule:nonzero;"/>
                <path d="M376.485,585.185C379.685,585.867 382.151,588.333 383.778,592.636L393.904,602.71L395.374,602.658L407.284,602.343L416.886,602.08L428.062,601.766L428.062,561.889L376.485,561.889L376.485,585.185Z" style="fill:rgb(228,81,99);fill-rule:nonzero;"/>
                <path d="M383.778,592.636L383.096,591.901L383.883,592.793C383.935,592.951 383.935,593.056 383.935,593.213L383.988,593.318C384.145,593.685 384.25,594.053 384.407,594.42C384.46,594.577 384.512,594.787 384.565,594.945C384.617,595.312 384.67,595.732 384.67,596.204L384.67,608.692L385.772,609.741L386.559,610.58C387.556,611.472 388.71,611.892 390.022,611.892C391.491,611.892 392.75,611.368 393.852,610.318L393.904,610.266C394.009,610.108 394.114,610.003 394.272,609.898C394.901,609.111 395.269,608.219 395.374,607.275C395.426,607.013 395.426,606.75 395.426,606.488C395.426,606.225 395.426,606.016 395.374,605.753C395.269,604.599 394.796,603.602 393.904,602.71L383.778,592.636Z" style="fill:rgb(234,152,133);fill-rule:nonzero;"/>
                <path d="M395.374,602.658L393.904,602.71C394.796,603.602 395.269,604.599 395.374,605.753L395.374,602.658Z" style="fill:rgb(255,189,145);fill-rule:nonzero;"/>
                <path d="M395.374,607.275C395.269,608.219 394.901,609.111 394.272,609.898C394.114,610.003 394.009,610.108 393.904,610.266L393.852,610.318C392.75,611.368 391.491,611.892 390.022,611.892C388.71,611.892 387.556,611.472 386.559,610.58L385.772,609.741L385.772,744.85L395.374,744.85L395.374,607.275Z" style="fill:rgb(255,189,145);fill-rule:nonzero;"/>
                <path d="M416.886,602.08L407.284,602.343L407.284,741.125C407.914,740.81 408.543,740.547 409.226,740.39C409.278,740.338 409.383,740.338 409.435,740.338C410.223,740.075 411.01,739.918 411.849,739.813C411.954,739.76 412.059,739.76 412.111,739.76C412.846,739.708 413.633,739.655 414.42,739.655C415.207,739.655 415.994,739.708 416.781,739.813C416.834,739.813 416.834,739.813 416.886,739.813L416.886,602.08Z" style="fill:rgb(234,152,133);fill-rule:nonzero;"/>
                <path d="M384.67,608.692L384.67,608.429L384.408,608.429C384.512,608.482 384.617,608.587 384.67,608.692Z" style="fill:rgb(77,95,109);fill-rule:nonzero;"/>
                <path d="M363.21,614.621C363.21,614.778 363.21,614.935 363.262,615.093C363.262,614.935 363.262,614.83 363.315,614.673C363.262,614.621 363.262,614.621 363.21,614.621Z" style="fill:rgb(77,95,109);fill-rule:nonzero;"/>
                <path d="M385.772,744.85L383.148,744.85L383.148,753.35L432.207,753.35C431.263,750.517 429.741,747.946 427.695,745.689C427.432,745.375 427.17,745.112 426.908,744.85C426.331,744.273 425.753,743.801 425.176,743.328L425.124,743.276C424.022,742.436 422.92,741.754 421.766,741.23C421.608,741.177 421.503,741.125 421.398,741.072C419.982,740.442 418.46,740.023 416.886,739.813C416.834,739.813 416.834,739.813 416.781,739.813C415.994,739.708 415.207,739.655 414.42,739.655C413.633,739.655 412.846,739.708 412.111,739.76C412.059,739.76 411.954,739.76 411.849,739.813C411.009,739.918 410.222,740.075 409.435,740.338C409.383,740.338 409.278,740.338 409.226,740.39C408.543,740.547 407.914,740.81 407.284,741.125C406.707,741.387 406.182,741.649 405.658,741.964C404.346,742.751 403.139,743.696 401.985,744.85L395.374,744.85L385.772,744.85Z" style="fill:rgb(42,34,75);fill-rule:nonzero;"/>
                <path d="M383.148,753.35L383.148,758.072L433.099,758.072C432.994,756.97 432.837,755.869 432.627,754.872C432.47,754.347 432.365,753.822 432.207,753.35L383.148,753.35Z" style="fill:rgb(255,102,0);fill-rule:nonzero;"/>
                <path d="M443.278,741.23C443.121,741.177 443.016,741.125 442.911,741.072C441.442,740.39 439.92,739.97 438.294,739.813C437.507,739.708 436.72,739.655 435.933,739.655C435.146,739.655 434.358,739.708 433.624,739.76C433.571,739.76 433.466,739.76 433.362,739.813C432.522,739.918 431.735,740.075 430.948,740.338C430.895,740.338 430.791,740.338 430.738,740.39C429.479,740.757 428.272,741.282 427.17,741.964C426.488,742.331 425.806,742.804 425.176,743.328C425.753,743.801 426.331,744.273 426.908,744.85C427.17,745.112 427.432,745.375 427.695,745.689C429.741,747.946 431.263,750.517 432.207,753.35L453.72,753.35C452.775,750.517 451.254,747.946 449.207,745.689C448.945,745.375 448.683,745.112 448.42,744.85C447.843,744.273 447.214,743.748 446.636,743.276C445.534,742.436 444.433,741.754 443.278,741.23Z" style="fill:rgb(30,24,52);fill-rule:nonzero;"/>
                <path d="M432.207,753.35C432.365,753.822 432.47,754.347 432.627,754.872C432.837,755.869 432.994,756.97 433.099,758.072L454.612,758.072C454.507,756.97 454.349,755.869 454.139,754.872C453.982,754.347 453.877,753.822 453.72,753.35L432.207,753.35Z" style="fill:rgb(177,71,1);fill-rule:nonzero;"/>
                <path d="M482.717,428.365L476.528,428.365C475.482,428.571 474.523,428.901 473.651,429.436C471.516,430.673 469.859,432.899 468.683,436.114L455.084,490.444C454.953,490.897 455.04,491.35 455.258,491.763C455.476,492.216 455.825,492.505 456.217,492.628C456.26,492.67 456.304,492.67 456.348,492.67L456.74,492.67C456.871,492.628 457.045,492.587 457.219,492.505C457.307,492.546 457.394,492.587 457.525,492.628C457.568,492.67 457.612,492.67 457.655,492.67L458.048,492.67C458.266,492.628 458.44,492.546 458.658,492.422C459.05,492.216 459.355,491.886 459.486,491.433L473.129,436.815C475.003,431.292 478.228,428.488 482.718,428.365L482.717,428.365Z" style="fill:rgb(115,115,117);fill-rule:nonzero;"/>
                <path d="M538.29,428.365L482.717,428.365C478.228,428.488 475.003,431.291 473.128,436.815L459.486,491.433C459.355,491.886 459.05,492.216 458.658,492.422C458.44,492.546 458.265,492.628 458.048,492.67L527.045,492.67C527.699,492.67 528.309,492.793 528.876,493.082C528.876,492.917 528.876,492.752 528.919,492.587L543.739,433.476C544.088,430.22 542.257,428.53 538.291,428.365L538.29,428.365ZM508.826,455.777C507.736,456.642 506.429,457.096 504.903,457.096C503.378,457.096 502.07,456.642 500.98,455.777C499.891,454.87 499.324,453.757 499.324,452.479C499.324,451.201 499.891,450.171 500.98,449.305C502.07,448.398 503.378,447.945 504.903,447.945C506.429,447.945 507.736,448.398 508.826,449.305C509.916,450.171 510.439,451.201 510.439,452.479C510.439,453.757 509.916,454.87 508.826,455.777Z" style="fill:rgb(36,35,77);fill-rule:nonzero;"/>
                <path d="M504.903,457.096C506.429,457.096 507.736,456.642 508.826,455.777C509.916,454.87 510.439,453.757 510.439,452.479C510.439,451.201 509.916,450.171 508.826,449.305C507.736,448.398 506.429,447.945 504.903,447.945C503.378,447.945 502.07,448.398 500.98,449.305C499.891,450.171 499.324,451.201 499.324,452.479C499.324,453.757 499.891,454.87 500.98,455.777C502.07,456.642 503.378,457.096 504.903,457.096Z" style="fill:rgb(204,204,204);fill-rule:nonzero;"/>
                <path d="M530.706,502.645C531.709,501.532 532.188,500.172 532.188,498.564L532.188,498.482C532.232,497.039 531.796,495.761 530.968,494.731C530.881,494.607 530.794,494.483 530.706,494.36C530.14,493.741 529.53,493.329 528.876,493.082C528.309,492.793 527.699,492.67 527.045,492.67L458.048,492.67L457.655,492.67L456.74,492.67L456.348,492.67L453.122,492.67C452.687,492.67 452.251,492.67 451.858,492.711C452.992,492.876 453.994,493.412 454.866,494.36C455.868,495.473 456.348,496.874 456.348,498.482L456.348,498.564C456.348,500.172 455.868,501.532 454.866,502.645C454.125,503.428 453.297,503.923 452.381,504.17L528.222,504.17C529.137,503.964 529.966,503.428 530.707,502.645L530.706,502.645Z" style="fill:rgb(22,15,66);fill-rule:nonzero;"/>
                <path d="M394.498,492.669C393.06,492.669 391.84,493.247 390.837,494.36C389.835,495.473 389.355,496.874 389.355,498.482L389.355,498.564C389.355,500.172 389.835,501.532 390.837,502.645C391.578,503.428 392.406,503.964 393.322,504.17L452.381,504.17C453.297,503.923 454.125,503.428 454.866,502.645C455.868,501.532 456.348,500.172 456.348,498.564L456.348,498.482C456.348,496.874 455.868,495.473 454.866,494.36C453.994,493.411 452.992,492.876 451.858,492.711C451.64,492.669 451.466,492.669 451.248,492.669C451.204,492.669 451.204,492.669 451.161,492.669L394.498,492.669Z" style="fill:rgb(115,115,117);fill-rule:nonzero;"/>
                <path d="M456.74,492.669L457.655,492.669C457.612,492.669 457.568,492.669 457.524,492.628C457.394,492.587 457.306,492.546 457.219,492.505C457.045,492.587 456.871,492.628 456.74,492.669Z" style="fill:rgb(36,35,77);fill-rule:nonzero;"/>
                <path d="M478.545,503.282L471.592,503.282L461.905,518.155L500.656,518.155C508.577,518.155 512.566,514.679 512.566,507.67L512.623,507.67C513.307,505.96 513.649,504.136 513.649,502.199C513.649,497.925 511.939,494.221 508.52,491.2C505.044,488.18 500.941,486.641 496.097,486.641C491.253,486.641 487.093,488.18 483.617,491.2C480.197,494.221 478.488,497.925 478.488,502.199L478.488,502.313C478.488,502.655 478.488,502.997 478.545,503.282Z" style="fill:rgb(255,204,153);fill-rule:nonzero;"/>
                <path d="M428.339,518.155L461.905,518.155L471.592,503.282L428.339,503.282L428.339,518.155Z" style="fill:rgb(234,152,133);fill-rule:nonzero;"/>
            </g>
        </g>
    </g>
</svg>
