<?xml version="1.0" encoding="UTF-8" standalone="no"?>
<!DOCTYPE svg PUBLIC "-//W3C//DTD SVG 1.1//EN" "http://www.w3.org/Graphics/SVG/1.1/DTD/svg11.dtd">
<svg width="100%" height="100%" viewBox="0 0 201 489" version="1.1" xmlns="http://www.w3.org/2000/svg" xmlns:xlink="http://www.w3.org/1999/xlink" xml:space="preserve" style="fill-rule:evenodd;clip-rule:evenodd;stroke-linejoin:round;stroke-miterlimit:1.41421;">
    <g transform="matrix(1,0,0,1,-4538,-51)">
        <g transform="matrix(1,0,0,1,0,-162)">
            <g id="Youth-Mentor-Male-1-OK-Hand" transform="matrix(1,0,0,1,4440.12,-58.0595)">
                <path d="M155.699,271.677C155.549,271.677 155.349,271.677 155.199,271.677L149.701,271.677C139.805,271.627 131.358,275.126 124.411,282.123C117.714,288.771 114.215,296.767 113.965,306.114L122.062,306.114L122.062,295.868L181.588,295.868L181.588,305.714L190.884,305.714C190.535,296.567 187.036,288.671 180.489,282.123C173.641,275.276 165.345,271.777 155.699,271.677Z" style="fill:rgb(31,31,31);fill-rule:nonzero;"/>
                <path d="M190.984,307.413C190.934,306.813 190.934,306.264 190.884,305.714L181.588,305.714L181.588,295.868L122.062,295.868L122.062,306.114L113.965,306.114C113.915,306.513 113.915,306.963 113.915,307.413L113.915,341.45C113.915,351.296 117.414,359.742 124.411,366.739C128.11,370.388 132.208,373.087 136.756,374.836C140.705,376.386 145.053,377.135 149.701,377.185L155.699,377.185C160.946,377.135 165.795,376.036 170.243,373.987C173.941,372.237 177.34,369.838 180.489,366.739C187.436,359.742 190.934,351.296 190.984,341.45L190.984,336.552L190.984,318.659L190.984,307.413ZM145.303,319.258C145.753,319.758 145.952,320.358 145.902,321.008C145.852,321.657 145.603,322.157 145.103,322.607C144.653,323.057 144.053,323.257 143.403,323.207C142.754,323.207 142.204,322.957 141.804,322.457C141.354,321.957 141.154,321.358 141.204,320.708C141.204,320.058 141.454,319.558 141.954,319.108C142.404,318.659 143.004,318.459 143.653,318.459C144.303,318.509 144.853,318.809 145.303,319.258ZM150.251,327.705L150.251,321.907C150.201,320.958 150.551,320.158 151.25,319.508C151.9,318.809 152.75,318.459 153.699,318.509C154.449,318.509 155.149,318.759 155.699,319.208C155.848,319.258 155.948,319.358 156.098,319.508C156.748,320.158 157.098,320.958 157.098,321.907L157.098,327.705C157.098,328.655 156.748,329.504 156.098,330.154C155.948,330.254 155.848,330.354 155.699,330.454C155.149,330.904 154.449,331.154 153.699,331.154C152.75,331.154 151.9,330.804 151.25,330.154C150.551,329.504 150.201,328.655 150.251,327.705ZM162.796,319.008C163.445,319.058 164.045,319.308 164.495,319.808C164.945,320.258 165.145,320.858 165.145,321.507C165.095,322.157 164.845,322.707 164.395,323.157C163.895,323.607 163.296,323.757 162.596,323.707C161.946,323.707 161.446,323.457 160.996,323.007C160.547,322.507 160.347,321.907 160.397,321.258C160.447,320.608 160.697,320.058 161.146,319.658C161.596,319.208 162.146,318.959 162.796,319.009L162.796,319.008ZM171.892,340.9C171.892,342.799 171.592,344.598 171.042,346.348C170.143,348.997 168.543,351.346 166.294,353.445C165.545,354.194 164.695,354.844 163.845,355.444C161.396,357.093 158.697,358.143 155.699,358.543C154.749,358.693 153.799,358.743 152.85,358.743C149.251,358.743 146.002,357.943 143.154,356.344C141.804,355.544 140.505,354.594 139.305,353.445C137.056,351.346 135.507,348.997 134.657,346.348C134.057,344.598 133.757,342.799 133.757,340.9C133.757,340.45 133.807,340 133.857,339.6L171.842,339.6C171.892,340 171.892,340.45 171.892,340.9Z" style="fill:rgb(120,63,46);fill-rule:nonzero;"/>
                <path d="M145.902,321.008C145.952,320.358 145.753,319.758 145.303,319.258C144.853,318.809 144.303,318.509 143.653,318.459C143.004,318.459 142.404,318.659 141.954,319.108C141.454,319.558 141.204,320.058 141.204,320.708C141.154,321.358 141.354,321.957 141.804,322.457C142.204,322.957 142.754,323.207 143.404,323.207C144.053,323.257 144.653,323.057 145.103,322.607C145.603,322.157 145.853,321.658 145.903,321.008L145.902,321.008Z" style="fill-rule:nonzero;"/>
                <path d="M150.251,321.907L150.251,327.705C150.201,328.655 150.551,329.504 151.25,330.154C151.9,330.804 152.75,331.154 153.699,331.154C154.449,331.154 155.149,330.904 155.699,330.454C155.848,330.354 155.948,330.254 156.098,330.154C156.748,329.504 157.098,328.655 157.098,327.705L157.098,321.907C157.098,320.958 156.748,320.158 156.098,319.508C155.948,319.358 155.848,319.258 155.699,319.208C155.149,318.759 154.449,318.509 153.699,318.509C152.75,318.459 151.9,318.809 151.25,319.508C150.551,320.158 150.201,320.958 150.251,321.907Z" style="fill:rgb(90,34,29);fill-rule:nonzero;"/>
                <path d="M164.495,319.808C164.045,319.308 163.445,319.058 162.796,319.008C162.146,318.959 161.596,319.208 161.146,319.658C160.697,320.058 160.447,320.608 160.397,321.258C160.347,321.907 160.547,322.507 160.996,323.007C161.446,323.457 161.946,323.707 162.596,323.707C163.296,323.757 163.895,323.607 164.395,323.157C164.845,322.707 165.095,322.157 165.145,321.508C165.145,320.858 164.945,320.258 164.495,319.808Z" style="fill-rule:nonzero;"/>
                <path d="M171.042,346.348C171.592,344.598 171.892,342.799 171.892,340.9C171.892,340.45 171.892,340 171.842,339.6L133.857,339.6C133.807,340 133.757,340.45 133.757,340.9C133.757,342.799 134.057,344.598 134.657,346.348L171.042,346.348Z" style="fill:white;fill-rule:nonzero;"/>
                <path d="M161.246,351.995C162.496,353.045 163.345,354.194 163.845,355.444C164.695,354.844 165.545,354.194 166.294,353.445C168.543,351.346 170.143,348.997 171.042,346.348L134.657,346.348C135.507,348.997 137.056,351.346 139.305,353.445C140.505,354.594 141.804,355.544 143.154,356.344C143.603,354.694 144.553,353.245 146.052,351.995C148.202,350.246 150.751,349.396 153.699,349.446C154.349,349.446 155.049,349.496 155.699,349.596C157.798,349.896 159.647,350.696 161.246,351.995Z" style="fill:rgb(79,32,32);fill-rule:nonzero;"/>
                <path d="M163.845,355.444C163.345,354.194 162.496,353.045 161.246,351.995C159.647,350.696 157.798,349.896 155.699,349.596C155.049,349.496 154.349,349.446 153.699,349.446C150.751,349.396 148.202,350.246 146.052,351.995C144.553,353.245 143.603,354.694 143.154,356.344C146.002,357.943 149.251,358.743 152.85,358.743C153.799,358.743 154.749,358.693 155.699,358.543C158.697,358.143 161.396,357.093 163.845,355.444Z" style="fill:rgb(255,153,153);fill-rule:nonzero;"/>
                <path d="M190.984,318.659L190.984,336.551C191.584,336.701 192.234,336.751 192.884,336.751C193.533,336.751 194.183,336.701 194.783,336.551C195.333,336.452 195.832,336.302 196.332,336.102C197.432,335.652 198.431,334.952 199.331,334.052C201.13,332.303 202.03,330.154 202.03,327.605C202.03,325.056 201.13,322.907 199.331,321.158C198.431,320.258 197.432,319.558 196.332,319.108C195.832,318.909 195.333,318.759 194.783,318.659C194.183,318.509 193.533,318.459 192.884,318.459C192.234,318.459 191.584,318.509 190.984,318.659Z" style="fill:rgb(103,43,33);fill-rule:nonzero;"/>
                <path d="M271.502,323.507C270.403,322.207 269.203,321.507 267.854,321.458C266.704,321.408 265.655,321.857 264.705,322.707C264.655,322.757 264.655,322.757 264.605,322.807C263.655,323.657 263.106,324.656 262.906,325.906C262.656,327.255 262.956,328.405 263.705,329.454C264.055,329.904 264.405,330.354 264.705,330.804C265.954,332.553 266.804,334.103 267.304,335.352C267.754,336.402 268.054,337.551 268.303,338.751C268.303,338.801 268.303,338.851 268.303,338.901C268.154,338.851 268.004,338.851 267.854,338.901C266.754,338.901 265.705,338.951 264.705,339.101C260.257,339.65 257.058,341.4 255.209,344.348C252.96,347.897 252.41,351.196 253.559,354.145C254.359,356.144 256.258,357.143 259.207,357.143C258.008,357.193 256.958,357.893 256.108,359.343C255.059,360.942 255.009,362.641 256.008,364.391C257.758,367.339 260.257,369.588 263.605,371.088C263.955,371.238 264.355,371.388 264.705,371.538C266.204,372.087 267.804,372.487 269.503,372.737C269.753,372.737 270.053,372.737 270.353,372.787C269.903,380.334 268.753,386.982 266.804,392.629C265.555,396.278 264.005,399.577 262.106,402.475C259.907,405.824 257.258,408.673 254.159,410.922C246.412,415.97 234.817,417.669 219.323,415.92L217.374,430.364C236.566,432.363 251.41,429.565 261.856,421.968C268.803,417.369 274.151,410.872 277.8,402.475C279.149,399.427 280.249,396.178 281.148,392.629C282.798,385.982 283.747,378.485 283.897,370.138C284.947,369.589 285.946,368.989 286.946,368.289C289.695,366.29 291.844,363.991 293.343,361.342C293.943,360.192 294.443,359.043 294.893,357.843C294.893,357.693 294.893,357.593 294.943,357.494C295.942,354.745 296.792,351.196 297.542,346.848C298.242,342.5 298.691,338.351 298.841,334.403C298.891,332.703 298.441,331.354 297.492,330.404C296.642,329.555 295.493,329.105 294.143,329.105C293.893,329.055 293.593,329.055 293.343,329.105C292.344,329.255 291.494,329.605 290.745,330.205C289.695,330.954 289.195,332.004 289.195,333.303C289.195,336.052 288.895,339.451 288.295,343.399C288.246,343.549 288.246,343.699 288.196,343.849C288.196,343.899 288.196,343.949 288.196,343.999C288.046,343.899 287.946,343.799 287.796,343.749C287.846,343.599 287.846,343.499 287.896,343.349C288.745,337.002 288.096,331.004 286.046,325.456C285.447,323.807 284.547,322.708 283.297,322.108C282.198,321.608 281.048,321.558 279.849,322.008C278.699,322.358 277.8,323.007 277.15,324.007C276.45,325.057 276.25,326.256 276.55,327.506C277.55,331.804 278.05,335.902 278,339.801C278,339.851 278,339.851 278,339.901C277.85,339.851 277.75,339.851 277.65,339.801C277.25,333.303 275.201,327.856 271.502,323.507ZM273.851,353.045C274.301,354.594 274.251,356.044 273.701,357.493C273.052,359.042 271.902,360.192 270.303,360.842C268.054,361.741 266.154,361.242 264.705,359.392C264.655,359.242 264.555,359.142 264.505,359.042C263.555,357.693 261.856,357.093 259.507,357.143C261.906,356.993 263.106,355.444 263.106,352.445C263.056,350.696 263.605,349.446 264.705,348.697C265.255,348.347 265.954,348.097 266.804,347.997C268.403,347.797 269.853,348.147 271.202,349.096C272.552,350.046 273.401,351.396 273.851,353.045Z" style="fill:rgb(120,63,46);fill-rule:nonzero;"/>
                <path d="M105.569,321.158C103.769,322.907 102.87,325.056 102.87,327.605C102.87,330.154 103.769,332.303 105.569,334.052C107.318,335.852 109.467,336.751 112.016,336.751C112.666,336.751 113.316,336.701 113.915,336.551L113.915,318.659C113.316,318.509 112.666,318.459 112.016,318.459C109.467,318.459 107.318,319.358 105.569,321.158Z" style="fill:rgb(103,43,33);fill-rule:nonzero;"/>
                <path d="M126.06,403.775L124.861,403.775L124.861,560.262L162.596,560.262L162.596,426.466C161.896,426.116 161.296,425.666 160.747,425.016C160.297,424.566 159.947,424.067 159.697,423.567C159.397,423.017 159.197,422.417 159.097,421.817C159.047,421.418 158.997,421.018 158.997,420.618L159.147,410.372C159.097,410.272 159.097,410.172 159.097,410.072C159.147,409.822 159.147,409.622 159.197,409.422C159.297,408.773 159.497,408.223 159.797,407.673C159.947,407.423 160.097,407.123 160.297,406.874L160.297,406.824C160.497,406.574 160.697,406.274 160.946,406.024C161.446,405.574 161.996,405.174 162.596,404.924C163.395,404.575 164.295,404.425 165.245,404.475C166.294,404.525 167.194,404.774 168.044,405.224C168.593,405.524 169.093,405.924 169.593,406.374C169.843,406.674 170.093,406.974 170.293,407.323C171.042,408.373 171.392,409.523 171.392,410.822L171.242,421.118C171.192,422.817 170.543,424.217 169.393,425.366C168.943,425.766 168.493,426.116 168.044,426.366L168.044,560.262L194.433,560.262L194.433,429.465C194.383,428.415 194.333,427.365 194.233,426.366L194.233,426.266C194.233,426.216 194.233,426.216 194.233,426.166C194.133,426.116 194.033,426.116 193.983,426.116L193.983,425.966C193.583,419.669 190.884,413.921 185.936,408.773L185.936,408.723C186.086,408.773 186.286,408.823 186.436,408.873C186.236,408.673 186.036,408.473 185.836,408.223C183.887,406.474 181.638,404.975 179.039,403.775L168.044,403.775L162.596,403.775L126.06,403.775ZM130.159,523.277L130.159,523.227C130.159,522.277 130.509,521.428 131.158,520.778C131.808,520.128 132.608,519.778 133.557,519.828L153.1,519.828C154.049,519.778 154.899,520.128 155.549,520.778C156.198,521.428 156.498,522.277 156.498,523.227L156.498,523.277C156.498,524.227 156.198,525.026 155.549,525.676C154.899,526.326 154.049,526.626 153.1,526.676L133.557,526.676C132.608,526.626 131.808,526.326 131.158,525.676C130.509,525.026 130.159,524.227 130.159,523.277ZM150.501,404.924L150.501,404.624L151.1,404.724C150.85,404.774 150.651,404.824 150.501,404.924Z" style="fill:rgb(152,172,87);fill-rule:nonzero;"/>
                <path d="M130.159,523.227L130.159,523.277C130.159,524.226 130.509,525.026 131.158,525.676C131.808,526.326 132.608,526.625 133.557,526.675L153.1,526.675C154.049,526.626 154.899,526.326 155.549,525.676C156.198,525.026 156.498,524.227 156.498,523.277L156.498,523.227C156.498,522.277 156.198,521.428 155.549,520.778C154.899,520.128 154.049,519.778 153.1,519.828L133.557,519.828C132.608,519.778 131.808,520.128 131.158,520.778C130.509,521.428 130.159,522.277 130.159,523.227Z" style="fill:rgb(109,129,34);fill-rule:nonzero;"/>
                <path d="M150.501,404.624L150.501,404.924C150.651,404.824 150.85,404.774 151.1,404.724L150.501,404.624Z" style="fill:rgb(109,129,34);fill-rule:nonzero;"/>
                <path d="M124.861,403.775L124.261,403.775C120.912,403.825 118.164,404.424 115.914,405.524C110.916,407.923 108.417,412.821 108.417,420.168L108.417,454.304L124.861,454.304L124.861,403.775Z" style="fill:rgb(15,21,28);fill-rule:nonzero;"/>
                <path d="M126.06,382.933L126.06,403.775L162.596,403.775L162.596,382.933L136.756,382.933L126.06,382.933Z" style="fill:rgb(108,125,29);fill-rule:nonzero;"/>
                <path d="M124.861,454.304L108.417,454.304L108.417,569.258C105.269,570.208 102.97,571.408 101.57,572.857C100.771,573.657 100.171,574.556 99.721,575.606C99.621,576.056 99.521,576.555 99.421,577.005C99.171,578.055 98.971,579.154 98.771,580.204C98.771,580.254 98.771,580.354 98.771,580.404C98.721,580.554 98.721,580.754 98.771,580.954L98.721,601.396C98.721,602.445 98.971,603.395 99.421,604.245C99.671,604.694 99.971,605.094 100.371,605.494C100.721,605.894 101.12,606.244 101.57,606.494C102.42,606.993 103.419,607.243 104.519,607.293L104.719,607.293C106.318,607.243 107.668,606.644 108.717,605.494C109.567,604.644 110.117,603.695 110.367,602.595C110.317,602.445 110.317,602.245 110.317,602.095C110.367,602.095 110.417,602.095 110.467,602.145C110.417,602.295 110.417,602.445 110.367,602.595C110.467,603.995 111.016,605.194 111.966,606.144C113.016,607.243 114.365,607.843 115.914,607.893L116.314,607.893C117.914,607.893 119.263,607.293 120.313,606.144C121.212,605.294 121.762,604.295 121.962,603.095C122.012,603.095 122.062,603.095 122.112,603.095C122.212,604.445 122.762,605.594 123.711,606.544C124.861,607.693 126.26,608.243 127.91,608.243L128.06,608.243C129.659,608.243 131.008,607.693 132.058,606.544C132.208,606.344 132.408,606.144 132.558,605.944C133.407,604.944 133.807,603.795 133.857,602.445L133.807,595.548C133.707,595.448 133.607,595.348 133.507,595.298L133.807,595.298L133.807,581.954C133.807,581.454 133.757,581.004 133.657,580.554C133.607,580.354 133.557,580.154 133.507,579.955C133.408,579.655 133.308,579.405 133.258,579.155C133.208,579.105 133.158,579.005 133.158,578.955C133.108,578.905 133.058,578.805 133.058,578.755L132.958,578.605C132.958,578.455 132.958,578.355 132.908,578.205L132.058,577.206L132.808,578.005C131.059,573.307 128.41,570.608 124.861,569.859L124.861,566.86L124.861,560.263L124.861,454.305L124.861,454.304ZM110.467,580.554C110.467,580.704 110.467,580.804 110.467,580.954C110.417,581.154 110.417,581.354 110.367,581.603C110.367,581.254 110.417,580.904 110.467,580.554Z" style="fill:rgb(120,63,46);fill-rule:nonzero;"/>
                <path d="M107.368,569.258L108.417,569.258L107.368,569.258Z" style="fill:rgb(165,109,72);fill-rule:nonzero;"/>
                <path d="M124.861,566.859L124.861,569.858C128.409,570.608 131.058,573.307 132.808,578.005L132.958,578.205L133.707,578.955L145.553,578.955L145.553,566.859L124.861,566.859Z" style="fill:rgb(1,0,40);fill-rule:nonzero;"/>
                <path d="M124.861,560.262L124.861,566.859L194.483,566.859C195.183,566.809 195.783,566.609 196.332,566.21C196.482,566.11 196.582,566.01 196.682,565.86C197.332,565.21 197.682,564.46 197.682,563.561C197.682,562.661 197.332,561.861 196.682,561.212C196.582,561.062 196.482,560.962 196.332,560.862C195.783,560.412 195.183,560.212 194.433,560.262L168.044,560.262L168.044,426.366C167.244,426.815 166.394,427.015 165.495,427.065C165.445,427.065 165.345,427.065 165.295,427.115C165.145,427.115 165.045,427.115 164.995,427.115C164.095,427.065 163.296,426.815 162.596,426.466L162.596,560.262L124.861,560.262Z" style="fill:rgb(109,129,34);fill-rule:nonzero;"/>
                <path d="M116.114,607.893C116.014,607.893 115.964,607.893 115.914,607.893L115.914,614.09L124.111,614.09L124.111,694.808L130.709,694.808L130.709,694.258L141.704,694.258L141.704,694.808L149.401,694.808L149.401,614.091L188.935,614.091L188.935,578.955L185.886,578.955L185.886,566.859L182.338,566.859L182.338,578.955L175.741,578.955L157.098,578.955L149.401,578.955L149.401,566.86L145.553,566.86L145.553,578.955L133.707,578.955L143.903,589.051C144.853,590 145.353,591.1 145.503,592.349L145.503,593.999C145.353,595.048 144.953,596.048 144.303,596.898C144.153,597.048 144.053,597.148 143.903,597.297L143.803,597.347C142.654,598.497 141.254,599.097 139.605,599.097C138.206,599.097 136.956,598.597 135.856,597.647L133.807,595.548L133.857,602.446C133.807,603.795 133.407,604.945 132.558,605.944C132.408,606.144 132.208,606.344 132.058,606.544C131.008,607.693 129.659,608.243 128.06,608.243L127.91,608.243C126.26,608.243 124.861,607.693 123.711,606.544C122.762,605.594 122.212,604.445 122.112,603.095C122.062,603.095 122.012,603.095 121.962,603.095C121.762,604.295 121.212,605.294 120.313,606.144C119.263,607.294 117.914,607.893 116.314,607.893L116.114,607.893Z" style="fill:rgb(136,188,236);fill-rule:nonzero;"/>
                <path d="M217.374,430.364L219.323,415.92C212.326,415.12 204.529,413.621 195.982,411.472C192.884,410.722 189.685,409.822 186.436,408.873C186.286,408.823 186.086,408.773 185.936,408.723L185.936,408.773C190.884,413.921 193.583,419.668 193.983,425.966L193.983,426.116C194.033,426.116 194.133,426.116 194.233,426.166C194.783,426.316 195.383,426.416 195.982,426.566C203.629,428.415 210.727,429.664 217.374,430.364Z" style="fill:rgb(15,21,28);fill-rule:nonzero;"/>
                <path d="M149.701,377.185C145.053,377.135 140.705,376.386 136.756,374.836L136.756,382.933L170.243,382.933L170.243,373.987C165.795,376.036 160.946,377.135 155.699,377.185C155.549,377.185 155.349,377.185 155.199,377.185L149.701,377.185Z" style="fill:rgb(103,43,33);fill-rule:nonzero;"/>
                <path d="M170.243,382.933L168.044,382.933L168.044,403.775L179.039,403.775L179.039,382.933L170.243,382.933Z" style="fill:rgb(108,125,29);fill-rule:nonzero;"/>
                <rect x="162.596" y="382.933" width="5.448" height="20.842" style="fill:rgb(74,87,23);fill-rule:nonzero;"/>
                <path d="M159.097,410.072C159.097,410.172 159.097,410.272 159.147,410.372L158.997,420.618C158.997,421.018 159.047,421.418 159.097,421.817C159.197,422.417 159.397,423.017 159.697,423.567C159.947,424.067 160.297,424.566 160.747,425.016C161.296,425.666 161.896,426.116 162.596,426.466C163.296,426.815 164.095,427.065 164.995,427.115C165.045,427.115 165.145,427.115 165.295,427.115C165.345,427.065 165.445,427.065 165.495,427.065C166.394,427.015 167.244,426.816 168.044,426.366C168.493,426.116 168.943,425.766 169.393,425.366C170.543,424.217 171.192,422.817 171.242,421.118L171.392,410.822C171.392,409.522 171.042,408.373 170.293,407.323C170.093,406.974 169.843,406.674 169.593,406.374C169.093,405.924 168.593,405.524 168.044,405.224C167.194,404.774 166.294,404.525 165.245,404.475C164.295,404.425 163.395,404.575 162.596,404.924C161.996,405.174 161.446,405.574 160.946,406.024C160.697,406.274 160.497,406.574 160.297,406.824L160.297,406.874C160.097,407.124 159.947,407.423 159.797,407.673C159.497,408.223 159.297,408.773 159.197,409.423C159.147,409.623 159.147,409.822 159.097,410.072ZM162.596,413.021C162.346,412.571 162.196,412.071 162.196,411.521L162.146,411.421C162.196,410.872 162.346,410.422 162.596,410.022C162.696,409.822 162.846,409.622 163.046,409.422C163.545,408.873 164.245,408.573 165.095,408.623L165.095,408.723C165.944,408.723 166.644,409.022 167.294,409.622C167.844,410.172 168.094,410.872 168.044,411.671L168.044,411.721L168.094,411.721C168.044,411.821 168.044,411.921 168.044,412.071C167.994,412.721 167.694,413.321 167.244,413.771C166.594,414.32 165.894,414.57 165.095,414.52L164.995,414.57C164.195,414.52 163.545,414.221 163.046,413.621C162.846,413.421 162.696,413.221 162.596,413.021Z" style="fill:white;fill-rule:nonzero;"/>
                <path d="M162.196,411.521C162.196,412.071 162.346,412.571 162.596,413.021L162.596,410.022C162.346,410.422 162.196,410.872 162.146,411.421L162.196,411.521Z" style="fill:rgb(152,172,87);fill-rule:nonzero;"/>
                <path d="M162.596,410.022L162.596,413.021C162.696,413.221 162.846,413.421 163.046,413.621C163.545,414.22 164.195,414.52 164.995,414.57L165.095,414.52C165.894,414.57 166.594,414.32 167.244,413.771C167.694,413.321 167.994,412.721 168.044,412.071L168.044,411.721L168.044,411.671C168.094,410.872 167.844,410.172 167.294,409.622C166.644,409.023 165.944,408.723 165.095,408.723L165.095,408.623C164.245,408.573 163.545,408.873 163.046,409.422C162.846,409.622 162.696,409.822 162.596,410.022Z" style="fill:rgb(109,129,34);fill-rule:nonzero;"/>
                <path d="M168.094,411.721L168.044,411.721L168.044,412.071C168.044,411.921 168.044,411.821 168.094,411.721Z" style="fill:rgb(152,172,87);fill-rule:nonzero;"/>
                <path d="M194.233,426.266L194.233,426.366L194.233,426.266Z" style="fill:rgb(120,63,46);fill-rule:nonzero;"/>
                <rect x="185.886" y="566.859" width="3.049" height="12.095" style="fill:rgb(1,0,40);fill-rule:nonzero;"/>
                <path d="M175.741,578.954L182.338,578.954L182.338,566.859L175.741,566.859L175.741,578.955L175.741,578.954Z" style="fill:rgb(1,0,40);fill-rule:nonzero;"/>
                <path d="M175.741,578.954L175.741,566.859L157.098,566.859L157.098,578.955L175.741,578.955L175.741,578.954Z" style="fill:rgb(153,153,153);fill-rule:nonzero;"/>
                <path d="M132.958,578.205L132.808,578.005L132.058,577.205L132.908,578.205L132.958,578.205Z" style="fill:rgb(234,152,133);fill-rule:nonzero;"/>
                <path d="M132.908,578.205C132.958,578.355 132.958,578.455 132.958,578.605L133.058,578.755C133.058,578.805 133.108,578.905 133.158,578.955C133.158,579.005 133.208,579.105 133.258,579.154L133.707,578.955L132.958,578.205L132.908,578.205Z" style="fill:rgb(108,39,34);fill-rule:nonzero;"/>
                <path d="M133.258,579.154C133.308,579.404 133.407,579.654 133.507,579.954C133.557,580.154 133.607,580.354 133.657,580.554C133.757,581.004 133.807,581.453 133.807,581.953L133.807,595.548L135.856,597.647C136.956,598.597 138.206,599.097 139.605,599.097C141.254,599.097 142.654,598.497 143.803,597.347L143.903,597.297C144.053,597.147 144.153,597.047 144.303,596.897C144.953,596.048 145.353,595.048 145.503,593.999L145.503,592.349C145.353,591.1 144.853,590 143.903,589.051L133.707,578.955L133.258,579.155L133.258,579.154Z" style="fill:rgb(103,43,33);fill-rule:nonzero;"/>
                <rect x="149.401" y="566.859" width="7.697" height="12.095" style="fill:rgb(1,0,40);fill-rule:nonzero;"/>
                <path d="M133.807,595.548L133.807,595.298L133.507,595.298C133.607,595.348 133.707,595.448 133.807,595.548Z" style="fill:rgb(136,188,236);fill-rule:nonzero;"/>
                <path d="M183.437,614.09L158.198,614.09L158.198,694.808L164.795,694.808L164.795,694.258L175.741,694.258L175.741,694.808L183.437,694.808L183.437,614.09Z" style="fill:rgb(94,147,223);fill-rule:nonzero;"/>
                <path d="M164.795,694.258L164.795,732.693L175.741,732.693L175.741,694.808L175.741,694.258L164.795,694.258Z" style="fill:rgb(103,43,33);fill-rule:nonzero;"/>
                <path d="M130.709,694.258L130.709,732.693L141.704,732.693L141.704,694.808L141.704,694.258L130.709,694.258Z" style="fill:rgb(120,63,46);fill-rule:nonzero;"/>
                <path d="M141.704,732.693L130.709,732.693L130.709,745.838L141.704,745.838L141.704,745.788L141.704,732.693Z" style="fill:rgb(234,234,234);fill-rule:nonzero;"/>
                <path d="M175.741,732.693L164.795,732.693L164.795,740.39C164.345,740.34 163.845,740.34 163.395,740.34C162.596,740.34 161.796,740.39 161.046,740.49C160.946,740.49 160.846,740.49 160.747,740.54C159.897,740.64 159.047,740.79 158.248,741.04C158.148,741.09 158.048,741.09 157.998,741.14C157.298,741.34 156.598,741.59 155.948,741.889C155.399,742.139 154.849,742.439 154.299,742.789C153.599,743.189 152.95,743.639 152.35,744.139C151.7,744.638 151.05,745.188 150.401,745.788L141.704,745.788L141.704,745.838L130.709,745.838L130.709,745.788L130.709,754.734L182.038,754.734C181.088,751.736 179.489,749.037 177.34,746.638C177.09,746.338 176.79,746.038 176.54,745.788C176.29,745.538 175.99,745.288 175.741,745.088L175.741,732.693Z" style="fill:rgb(204,204,204);fill-rule:nonzero;"/>
                <path d="M216.524,756.333C216.374,755.784 216.224,755.234 216.074,754.734L182.038,754.734L130.709,754.734L130.709,759.682L217.024,759.682C216.924,758.533 216.774,757.383 216.524,756.333Z" style="fill:rgb(204,51,0);fill-rule:nonzero;"/>
                <path d="M216.074,754.734C215.125,751.735 213.525,749.036 211.376,746.637C211.126,746.338 210.826,746.038 210.577,745.788C209.977,745.238 209.377,744.688 208.777,744.188C208.727,744.188 208.727,744.188 208.677,744.138C207.528,743.289 206.378,742.589 205.179,742.039C205.029,741.939 204.929,741.889 204.779,741.839C203.28,741.19 201.73,740.74 200.081,740.54C200.031,740.54 199.981,740.54 199.931,740.54C199.131,740.39 198.282,740.34 197.432,740.34C197.082,740.34 196.682,740.34 196.332,740.39C195.882,740.39 195.483,740.44 195.083,740.49C194.983,740.49 194.883,740.49 194.833,740.54C193.933,740.64 193.084,740.79 192.284,741.04L192.284,741.09L192.234,741.04C192.184,741.09 192.134,741.09 192.084,741.14C191.534,741.29 191.034,741.44 190.585,741.64C190.385,741.69 190.185,741.79 189.985,741.89C189.435,742.139 188.885,742.439 188.335,742.789C186.986,743.589 185.687,744.588 184.437,745.788L176.54,745.788C176.79,746.038 177.09,746.338 177.34,746.638C179.489,749.037 181.088,751.736 182.038,754.734L216.074,754.734Z" style="fill:rgb(149,149,149);fill-rule:nonzero;"/>
            </g>
        </g>
    </g>
</svg>
