<?xml version="1.0" encoding="UTF-8" standalone="no"?>
<!DOCTYPE svg PUBLIC "-//W3C//DTD SVG 1.1//EN" "http://www.w3.org/Graphics/SVG/1.1/DTD/svg11.dtd">
<svg width="100%" height="100%" viewBox="0 0 212 459" version="1.1" xmlns="http://www.w3.org/2000/svg" xmlns:xlink="http://www.w3.org/1999/xlink" xml:space="preserve" style="fill-rule:evenodd;clip-rule:evenodd;stroke-linejoin:round;stroke-miterlimit:1.41421;">
    <g transform="matrix(1,0,0,1,-3622,-81)">
        <g transform="matrix(1,0,0,1,0,-162)">
            <g id="Youth-Mentor-Female-2-Laptop" transform="matrix(1,0,0,1,3276.92,-58.4595)">
                <path d="M365.814,312.311C356.368,319.258 351.67,327.605 351.72,337.451L351.72,362.091C353.619,360.842 355.768,360.192 358.217,360.242C358.517,360.192 358.817,360.192 359.067,360.242L359.067,384.632C358.817,384.632 358.517,384.632 358.217,384.632C355.768,384.632 353.619,384.033 351.72,382.783L351.72,420.118C363.066,419.468 370.163,413.621 372.962,402.525C373.311,400.726 373.511,398.827 373.611,396.827L373.611,351.945C373.561,351.796 373.511,351.196 373.411,350.246C384.357,350.246 395.253,350.246 406.198,350.246L413.645,337.701L413.645,350.246C423.241,350.246 432.838,350.246 442.434,350.246L442.434,351.746C442.484,352.995 442.484,354.295 442.434,355.644L442.434,382.683C442.084,391.43 439.085,399.077 433.337,405.624L433.337,422.367C442.784,418.919 447.732,411.122 448.281,399.077L448.181,337.451C448.181,327.605 443.483,319.259 434.087,312.312C424.641,305.364 413.295,301.916 399.951,301.916C386.606,301.916 375.261,305.364 365.814,312.312L365.814,312.311ZM366.164,350.246C366.264,350.246 366.364,350.246 366.514,350.246L366.264,350.546C366.214,350.446 366.214,350.346 366.164,350.246Z" style="fill-rule:nonzero;"/>
                <path d="M366.514,350.246C366.364,350.246 366.264,350.246 366.164,350.246C366.214,350.346 366.214,350.446 366.264,350.546L366.514,350.246Z" style="fill:rgb(255,204,153);fill-rule:nonzero;"/>
                <path d="M442.434,356.344C442.434,356.094 442.434,355.894 442.434,355.644C442.484,354.294 442.484,352.995 442.434,351.745L442.434,351.346C442.434,350.996 442.434,350.596 442.434,350.246C432.838,350.246 423.241,350.246 413.645,350.246L413.645,337.701L406.198,350.246C395.253,350.246 384.357,350.246 373.411,350.246C373.511,351.196 373.561,351.795 373.611,351.945L373.611,396.827C373.511,398.827 373.311,400.726 372.962,402.525C374.361,404.324 375.91,406.074 377.66,407.823C378.16,408.323 378.659,408.823 379.159,409.322C380.808,410.772 382.458,412.021 384.207,413.171C384.707,413.521 385.257,413.821 385.806,414.121C387.656,415.17 389.555,416.07 391.504,416.82C391.954,416.969 392.454,417.169 392.954,417.319C396.602,418.419 400.451,418.969 404.499,418.969C406.898,418.969 409.247,418.769 411.496,418.369C411.846,418.319 412.246,418.219 412.596,418.169C413.046,418.069 413.545,417.969 413.995,417.869C420.443,416.27 426.19,412.921 431.238,407.823C431.988,407.074 432.688,406.374 433.337,405.624C439.085,399.077 442.084,391.43 442.434,382.683C442.434,382.134 442.434,381.634 442.434,381.084L442.434,356.344ZM426.34,371.088C426.34,371.438 426.19,371.737 425.94,371.987C425.69,372.287 425.341,372.437 424.991,372.487L417.944,372.487C417.594,372.437 417.244,372.287 416.994,371.987C416.744,371.737 416.594,371.438 416.644,371.088C416.594,370.738 416.744,370.388 416.994,370.138C417.244,369.888 417.594,369.738 417.944,369.788L424.991,369.788C425.341,369.738 425.69,369.888 425.94,370.138C426.19,370.388 426.34,370.738 426.34,371.088ZM413.695,369.088C414.345,369.738 414.695,370.538 414.745,371.488L414.745,377.185C414.695,378.135 414.345,378.935 413.695,379.584C413.046,380.234 412.296,380.534 411.346,380.534C410.397,380.534 409.597,380.234 408.947,379.584C408.297,378.935 407.948,378.135 407.948,377.185L407.948,371.488C407.948,370.538 408.297,369.738 408.947,369.089C409.597,368.439 410.397,368.089 411.346,368.089C412.296,368.089 413.046,368.439 413.695,369.089L413.695,369.088ZM392.854,371.088C392.804,370.738 392.954,370.388 393.203,370.138C393.503,369.888 393.853,369.738 394.203,369.788L401.25,369.788C401.6,369.738 401.9,369.888 402.15,370.138C402.45,370.388 402.6,370.738 402.6,371.088C402.6,371.438 402.45,371.737 402.15,371.987C401.9,372.287 401.6,372.437 401.25,372.487L394.203,372.487C393.853,372.437 393.503,372.287 393.204,371.987C392.954,371.738 392.804,371.438 392.854,371.088ZM406.198,397.977C401.95,397.927 398.301,396.428 395.303,393.429C392.754,390.88 391.304,387.981 390.904,384.632L421.492,384.632C421.042,387.981 419.593,390.88 417.094,393.429C414.045,396.428 410.447,397.927 406.198,397.977Z" style="fill:rgb(255,203,153);fill-rule:nonzero;"/>
                <path d="M425.94,371.987C426.19,371.737 426.34,371.438 426.34,371.088C426.34,370.738 426.19,370.388 425.94,370.138C425.69,369.888 425.341,369.738 424.991,369.788L417.944,369.788C417.594,369.738 417.244,369.888 416.994,370.138C416.744,370.388 416.594,370.738 416.644,371.088C416.594,371.438 416.744,371.738 416.994,371.987C417.244,372.287 417.594,372.437 417.944,372.487L424.991,372.487C425.341,372.437 425.69,372.287 425.94,371.987Z" style="fill:rgb(75,28,2);fill-rule:nonzero;"/>
                <path d="M414.745,371.487C414.695,370.538 414.345,369.738 413.695,369.088C413.046,368.439 412.296,368.089 411.346,368.089C410.397,368.089 409.597,368.439 408.947,369.089C408.297,369.738 407.948,370.538 407.948,371.488L407.948,377.185C407.948,378.135 408.297,378.935 408.947,379.584C409.597,380.234 410.397,380.534 411.346,380.534C412.296,380.534 413.046,380.234 413.695,379.584C414.345,378.935 414.695,378.135 414.745,377.185L414.745,371.488L414.745,371.487Z" style="fill:rgb(234,152,133);fill-rule:nonzero;"/>
                <path d="M393.203,370.138C392.954,370.388 392.804,370.738 392.854,371.088C392.804,371.438 392.954,371.737 393.203,371.987C393.503,372.287 393.853,372.437 394.203,372.487L401.25,372.487C401.6,372.437 401.9,372.287 402.15,371.987C402.45,371.737 402.6,371.438 402.6,371.088C402.6,370.738 402.45,370.388 402.15,370.138C401.9,369.888 401.6,369.738 401.25,369.788L394.203,369.788C393.853,369.738 393.503,369.888 393.204,370.138L393.203,370.138Z" style="fill:rgb(75,28,2);fill-rule:nonzero;"/>
                <path d="M395.303,393.429C398.301,396.428 401.95,397.927 406.198,397.977C410.447,397.927 414.045,396.428 417.094,393.429C419.593,390.88 421.042,387.981 421.492,384.632L390.904,384.632C391.304,387.981 392.754,390.88 395.303,393.429Z" style="fill:white;fill-rule:nonzero;"/>
                <path d="M392.954,417.319L392.954,425.116L413.995,425.116L413.995,417.869C413.545,417.969 413.046,418.069 412.596,418.169C412.246,418.219 411.846,418.319 411.496,418.369C409.247,418.769 406.898,418.969 404.499,418.969C400.451,418.969 396.602,418.419 392.954,417.319Z" style="fill:rgb(234,152,133);fill-rule:nonzero;"/>
                <path d="M392.954,425.116L387.206,425.116L387.206,443.709L408.347,443.709L408.347,425.116L392.954,425.116Z" style="fill:rgb(219,94,1);fill-rule:nonzero;"/>
                <path d="M411.496,425.116L408.347,425.116L408.347,443.709L387.206,443.709L387.156,443.709L387.156,547.367L440.335,547.367L440.335,495.388C442.584,494.838 444.583,493.689 446.332,491.939C448.781,489.49 450.031,486.492 449.981,482.993C450.031,479.494 448.781,476.496 446.332,473.997L444.533,472.547C444.383,472.397 444.183,472.297 443.983,472.147C442.684,471.298 441.284,470.748 439.735,470.498L439.735,470.448C439.685,470.198 439.685,469.948 439.635,469.698C438.385,463.201 435.936,457.803 432.188,453.505C428.539,449.307 423.741,446.158 417.694,444.109C417.294,443.959 416.894,443.859 416.494,443.709L416.444,443.709L411.496,443.709L411.496,425.116ZM400.95,491.989C400.601,491.39 400.301,490.79 400.051,490.19C400.001,490.04 400.001,489.94 399.951,489.84C400.301,489.79 400.601,489.79 400.95,489.79C405.449,489.54 412.496,489.74 422.092,490.29C422.242,491.04 421.292,492.389 419.293,494.338C417.044,496.488 414.295,497.587 411.046,497.587C409.897,497.587 408.797,497.437 407.748,497.137C405.898,496.638 404.299,495.688 402.85,494.338C402.1,493.589 401.45,492.839 400.95,491.989Z" style="fill:rgb(255,116,0);fill-rule:nonzero;"/>
                <path d="M400.051,490.19C400.301,490.79 400.601,491.39 400.95,491.989C401.45,492.839 402.1,493.589 402.85,494.338C404.299,495.688 405.898,496.637 407.748,497.137C408.797,497.437 409.897,497.587 411.046,497.587C414.295,497.587 417.044,496.488 419.293,494.338C421.292,492.389 422.242,491.04 422.092,490.29C412.496,489.74 405.449,489.54 400.95,489.79L400.051,490.19Z" style="fill:rgb(219,94,1);fill-rule:nonzero;"/>
                <path d="M399.951,489.84C400.001,489.94 400.001,490.04 400.051,490.19L400.95,489.79C400.601,489.79 400.301,489.79 399.951,489.84Z" style="fill:rgb(15,21,28);fill-rule:nonzero;"/>
                <path d="M417.844,425.116L413.995,425.116L411.496,425.116L411.496,443.709L417.844,443.709L417.844,425.116Z" style="fill:rgb(219,94,1);fill-rule:nonzero;"/>
                <path d="M359.067,360.242C358.817,360.192 358.517,360.192 358.217,360.242C355.768,360.192 353.619,360.842 351.72,362.091C350.97,362.541 350.271,363.141 349.621,363.791C347.222,366.14 346.022,369.039 346.022,372.437C346.022,375.786 347.222,378.685 349.621,381.084C350.271,381.734 350.97,382.283 351.72,382.783C353.619,384.033 355.768,384.632 358.217,384.632C358.517,384.632 358.817,384.632 359.067,384.632L359.067,360.242Z" style="fill:rgb(255,203,153);fill-rule:nonzero;"/>
                <path d="M371.712,459.102L371.712,491.29L387.156,491.29L387.156,443.709C376.86,443.659 371.712,448.807 371.712,459.102Z" style="fill:rgb(219,94,1);fill-rule:nonzero;"/>
                <path d="M416.494,443.709L416.444,443.709L416.494,443.709Z" style="fill:rgb(38,55,73);fill-rule:nonzero;"/>
                <path d="M387.156,491.29L371.712,491.29L371.712,576.855L370.663,576.855L370.663,577.405C367.064,578.255 364.665,580.054 363.465,582.853C363.166,584.302 362.866,585.702 362.616,587.151C362.616,587.201 362.616,587.301 362.616,587.351C362.566,587.501 362.566,587.651 362.616,587.801L362.616,607.143C362.566,608.693 363.066,609.942 364.065,610.992C365.165,612.091 366.514,612.641 368.064,612.641L368.164,612.641C369.663,612.641 370.912,612.091 371.962,610.992C372.762,610.242 373.311,609.342 373.561,608.293C373.511,608.093 373.511,607.893 373.511,607.743C373.561,607.743 373.561,607.793 373.611,607.843C373.561,607.993 373.561,608.143 373.561,608.293C373.611,609.592 374.111,610.692 375.011,611.642C376.11,612.691 377.41,613.241 378.959,613.191L379.109,613.191C380.659,613.241 381.908,612.691 382.908,611.642L382.958,611.592C383.807,610.792 384.307,609.842 384.457,608.743C384.507,608.693 384.557,608.693 384.607,608.743C384.707,609.992 385.207,611.042 386.106,611.942C386.956,612.791 387.906,613.291 389.005,613.491C389.355,613.541 389.705,613.591 390.055,613.591L390.205,613.591C391.704,613.591 392.954,613.041 393.953,611.942C394.103,611.792 394.303,611.592 394.453,611.442C395.103,610.642 395.453,609.742 395.603,608.743C395.603,608.543 395.603,608.343 395.653,608.143L395.603,601.646C395.503,601.546 395.403,601.446 395.353,601.346L395.603,601.346L395.603,588.801C395.603,588.351 395.553,587.901 395.453,587.501C395.403,587.302 395.353,587.102 395.303,586.952C395.153,586.502 395.053,586.102 394.903,585.752L394.853,585.702C394.803,585.552 394.803,585.402 394.753,585.302L393.953,584.403L394.653,585.102C393.004,580.654 390.505,578.105 387.156,577.406L387.156,557.863L387.156,547.368L387.156,491.29ZM373.611,587.501L373.611,588.501L373.561,588.451C373.511,588.101 373.561,587.801 373.611,587.501Z" style="fill:rgb(255,204,153);fill-rule:nonzero;"/>
                <path d="M373.611,587.801C373.611,587.701 373.611,587.601 373.611,587.501C373.561,587.801 373.511,588.101 373.561,588.451L373.611,588.501L373.611,587.801Z" style="fill:rgb(77,95,109);fill-rule:nonzero;"/>
                <rect x="387.156" y="547.367" width="53.179" height="10.496" style="fill:rgb(219,94,1);fill-rule:nonzero;"/>
                <path d="M440.335,576.156L440.335,575.706L440.335,557.863L387.156,557.863L387.156,577.405C390.505,578.105 393.004,580.654 394.653,585.102L407.348,598.197C406.898,597.897 406.698,597.897 406.648,598.247L406.648,600.196C406.498,601.196 406.098,602.095 405.449,602.895C405.349,602.995 405.249,603.095 405.149,603.245L404.999,603.295C403.949,604.394 402.65,604.944 401.1,604.944C399.751,604.944 398.601,604.494 397.552,603.545L395.603,601.646L395.653,608.143C395.603,608.343 395.603,608.543 395.603,608.743C395.453,609.742 395.103,610.642 394.453,611.442C394.303,611.592 394.103,611.792 393.953,611.942C392.954,613.041 391.704,613.591 390.205,613.591L390.055,613.591C389.705,613.591 389.355,613.541 389.005,613.491C387.906,613.291 386.956,612.791 386.106,611.942C385.207,611.042 384.707,609.992 384.607,608.743C384.557,608.693 384.507,608.693 384.457,608.743C384.307,609.842 383.807,610.792 382.958,611.592C382.958,613.641 382.958,615.69 383.008,617.839L396.702,617.839L396.702,617.789L406.648,617.789L406.648,617.839L418.893,617.839L428.839,617.589L440.335,617.239L440.335,576.156Z" style="fill:rgb(204,133,201);fill-rule:nonzero;"/>
                <path d="M440.335,575.706L440.335,576.156L440.435,576.156L440.335,575.706Z" style="fill:rgb(38,55,73);fill-rule:nonzero;"/>
                <path d="M394.853,585.702L394.903,585.752C395.053,586.102 395.153,586.501 395.303,586.951C395.353,587.101 395.403,587.301 395.453,587.501C395.553,587.901 395.603,588.351 395.603,588.801L395.603,601.646L397.552,603.545C398.601,604.494 399.751,604.944 401.1,604.944C402.65,604.944 403.949,604.394 404.999,603.295L405.149,603.245C405.249,603.095 405.349,602.995 405.449,602.895C406.098,602.095 406.498,601.196 406.648,600.196L406.648,598.597L406.648,598.247C406.698,597.897 406.898,597.897 407.348,598.197L394.653,585.102L393.953,584.402L394.753,585.302C394.803,585.402 394.803,585.552 394.853,585.702Z" style="fill:rgb(234,152,133);fill-rule:nonzero;"/>
                <path d="M395.603,601.346L395.353,601.346C395.403,601.445 395.503,601.545 395.603,601.645L395.603,601.346Z" style="fill:rgb(77,95,109);fill-rule:nonzero;"/>
                <path d="M373.561,608.293C373.561,608.143 373.561,607.993 373.611,607.843C373.561,607.793 373.561,607.743 373.511,607.743C373.511,607.893 373.511,608.093 373.561,608.293Z" style="fill:rgb(77,95,109);fill-rule:nonzero;"/>
                <path d="M406.648,617.839L406.648,617.789L396.702,617.789L396.702,653.375L406.648,653.375L406.648,617.839Z" style="fill:rgb(255,189,145);fill-rule:nonzero;"/>
                <path d="M428.839,617.589L418.893,617.839L418.893,742.639C419.543,742.339 420.193,742.089 420.892,741.839C420.942,741.839 420.992,741.839 421.092,741.789L421.142,741.839L421.142,741.789C421.942,741.54 422.792,741.39 423.641,741.24C423.691,741.24 423.791,741.24 423.891,741.24C424.641,741.09 425.391,741.04 426.24,741.04C427.04,741.04 427.84,741.09 428.639,741.24C428.689,741.24 428.789,741.24 428.839,741.29L428.839,617.589Z" style="fill:rgb(234,152,133);fill-rule:nonzero;"/>
                <rect x="396.702" y="653.425" width="9.946" height="93.012" style="fill:rgb(255,189,145);fill-rule:nonzero;"/>
                <path d="M450.78,741.24C450.031,741.09 449.231,741.04 448.381,741.04C447.582,741.04 446.782,741.09 446.032,741.24C445.932,741.24 445.832,741.24 445.782,741.24C444.933,741.39 444.083,741.539 443.283,741.789L443.283,741.839L443.233,741.789C443.183,741.839 443.134,741.839 443.084,741.839C441.784,742.239 440.585,742.789 439.435,743.489C438.685,743.889 437.986,744.338 437.336,744.888C437.936,745.338 438.535,745.888 439.085,746.438C439.335,746.687 439.635,746.987 439.935,747.287C442.084,749.636 443.583,752.285 444.533,755.234L466.724,755.234C465.774,752.285 464.225,749.636 462.076,747.287C461.826,746.987 461.526,746.688 461.276,746.438C460.676,745.838 460.077,745.288 459.427,744.788C458.327,743.939 457.178,743.239 455.978,742.689C455.828,742.639 455.728,742.589 455.579,742.539C454.079,741.89 452.48,741.44 450.78,741.24Z" style="fill:rgb(30,24,52);fill-rule:nonzero;"/>
                <path d="M439.085,746.437C438.535,745.888 437.936,745.338 437.336,744.888C437.286,744.838 437.286,744.838 437.236,744.788C436.136,743.938 434.987,743.239 433.787,742.689C433.637,742.639 433.537,742.589 433.437,742.539C431.988,741.889 430.439,741.489 428.839,741.29C428.789,741.24 428.689,741.24 428.639,741.24C427.84,741.09 427.04,741.04 426.24,741.04C425.391,741.04 424.641,741.09 423.891,741.24C423.791,741.24 423.691,741.24 423.641,741.24C422.792,741.39 421.942,741.539 421.142,741.789L421.142,741.839L421.092,741.789C420.992,741.839 420.942,741.839 420.892,741.839C420.193,742.089 419.543,742.339 418.893,742.639C418.343,742.889 417.794,743.139 417.244,743.489C415.894,744.239 414.645,745.238 413.445,746.438L406.648,746.438L396.702,746.438L394.003,746.438L394.003,755.234L444.533,755.234C443.583,752.285 442.084,749.636 439.935,747.287C439.635,746.987 439.335,746.688 439.085,746.438L439.085,746.437Z" style="fill:rgb(42,34,75);fill-rule:nonzero;"/>
                <path d="M444.533,755.234C444.683,755.734 444.833,756.234 444.983,756.783C445.233,757.833 445.383,758.932 445.533,760.082L467.674,760.082C467.524,758.932 467.374,757.833 467.124,756.783C466.974,756.234 466.874,755.734 466.724,755.234L444.533,755.234Z" style="fill:rgb(219,175,2);fill-rule:nonzero;"/>
                <path d="M444.983,756.783C444.833,756.234 444.683,755.734 444.533,755.234L394.003,755.234L394.003,760.082L445.533,760.082C445.383,758.932 445.233,757.833 444.983,756.783Z" style="fill:rgb(255,255,0);fill-rule:nonzero;"/>
                <path d="M407.419,504.595C405.999,504.538 404.749,505.106 403.727,506.242C402.761,507.378 402.25,508.742 402.25,510.389L402.25,510.446C402.25,511.98 402.761,513.343 403.727,514.479C404.465,515.275 405.261,515.786 406.17,516.07L440.765,516.07L440.765,515.843L465.703,515.843C466.328,515.559 466.953,515.104 467.521,514.479C468.543,513.343 469.055,511.98 469.055,510.446L469.055,510.389C469.055,508.742 468.543,507.378 467.521,506.242C466.669,505.277 465.703,504.765 464.567,504.595C464.397,504.595 464.169,504.595 463.942,504.595C463.885,504.595 463.885,504.595 463.828,504.595L407.419,504.595Z" style="fill:rgb(115,115,117);fill-rule:nonzero;"/>
                <path d="M525.805,514.763C525.805,510.843 524.385,507.435 521.487,504.595C521.203,504.311 520.976,504.084 520.692,503.799C517.227,500.789 513.137,499.255 508.308,499.255C507.399,499.255 506.547,499.312 505.695,499.425C501.946,499.88 498.651,501.357 495.868,503.8C495.583,504.084 495.299,504.311 495.072,504.595C492.175,507.435 490.755,510.844 490.755,514.763L490.755,514.877C490.755,515.218 490.755,515.559 490.812,515.843L483.881,515.843L474.224,530.669L512.853,530.669C520.749,530.669 524.725,527.204 524.725,520.217L524.782,520.217C525.293,518.91 525.634,517.49 525.748,516.07C525.805,515.615 525.805,515.161 525.805,514.763Z" style="fill:rgb(255,204,153);fill-rule:nonzero;"/>
                <path d="M521.487,504.595C524.384,507.435 525.805,510.844 525.805,514.763C525.805,515.161 525.805,515.615 525.748,516.07L540.688,516.07C541.597,515.786 542.392,515.274 543.131,514.479C544.153,513.343 544.665,511.98 544.665,510.446L544.665,510.389C544.665,508.912 544.267,507.662 543.415,506.583C543.358,506.47 543.244,506.356 543.131,506.242C542.62,505.617 541.995,505.22 541.313,504.993C540.745,504.709 540.12,504.595 539.495,504.595L521.487,504.595Z" style="fill:rgb(22,15,66);fill-rule:nonzero;"/>
                <path d="M520.692,503.799C520.976,504.084 521.203,504.311 521.487,504.595L539.495,504.595C540.12,504.595 540.745,504.708 541.313,504.992C541.313,504.822 541.313,504.652 541.37,504.481L556.14,445.573C556.48,442.335 554.663,440.63 550.743,440.46L495.299,440.46C490.812,440.574 487.631,443.414 485.756,448.924L472.179,503.345C472.009,503.743 471.725,504.084 471.327,504.311C471.157,504.424 470.929,504.538 470.759,504.595L495.072,504.595C495.299,504.311 495.584,504.084 495.868,503.8C498.651,501.357 501.946,499.88 505.695,499.426C506.547,499.312 507.399,499.255 508.308,499.255C513.137,499.255 517.227,500.789 520.692,503.8L520.692,503.799ZM521.317,467.784C520.238,468.636 518.931,469.091 517.454,469.091C515.92,469.091 514.614,468.636 513.534,467.784C512.455,466.875 511.887,465.796 511.887,464.489C511.887,463.239 512.455,462.16 513.534,461.308C514.614,460.399 515.92,459.945 517.454,459.945C518.931,459.945 520.238,460.399 521.317,461.308C522.396,462.16 522.964,463.239 522.964,464.489C522.964,465.796 522.396,466.875 521.317,467.784Z" style="fill:rgb(36,35,77);fill-rule:nonzero;"/>
                <path d="M517.454,469.09C518.931,469.09 520.238,468.636 521.317,467.784C522.396,466.875 522.964,465.796 522.964,464.489C522.964,463.239 522.396,462.16 521.317,461.308C520.238,460.399 518.931,459.945 517.454,459.945C515.92,459.945 514.614,460.399 513.534,461.308C512.455,462.16 511.887,463.239 511.887,464.489C511.887,465.796 512.455,466.875 513.534,467.784C514.614,468.636 515.92,469.091 517.454,469.091L517.454,469.09Z" style="fill:rgb(204,204,204);fill-rule:nonzero;"/>
                <path d="M485.756,448.924C487.63,443.414 490.812,440.574 495.299,440.46L489.164,440.46C488.085,440.63 487.119,441.028 486.267,441.539C484.165,442.789 482.518,445.005 481.325,448.186L467.805,502.379C467.691,502.834 467.748,503.288 467.919,503.686C468.146,504.084 468.487,504.368 468.884,504.538C468.941,504.538 468.998,504.538 469.055,504.595L469.452,504.595C469.623,504.538 469.736,504.481 469.907,504.424C469.964,504.481 470.077,504.481 470.191,504.538C470.248,504.538 470.304,504.538 470.361,504.595L470.759,504.595C470.929,504.538 471.157,504.425 471.327,504.311C471.725,504.084 472.009,503.743 472.179,503.345L485.756,448.924Z" style="fill:rgb(115,115,117);fill-rule:nonzero;"/>
                <path d="M440.765,515.842L440.765,530.669L474.224,530.669L483.881,515.843L465.703,515.843L440.765,515.843L440.765,515.842Z" style="fill:rgb(234,152,133);fill-rule:nonzero;"/>
                <path d="M469.907,504.424C469.736,504.481 469.623,504.538 469.452,504.595L470.361,504.595C470.304,504.538 470.248,504.538 470.191,504.538C470.077,504.481 469.964,504.481 469.907,504.424Z" style="fill:rgb(36,35,77);fill-rule:nonzero;"/>
                <path d="M469.452,504.595L469.055,504.595L465.817,504.595C465.419,504.538 464.965,504.538 464.567,504.595C465.703,504.765 466.669,505.276 467.521,506.242C468.543,507.378 469.055,508.742 469.055,510.389L469.055,510.446C469.055,511.98 468.543,513.343 467.521,514.479C466.953,515.104 466.328,515.559 465.703,515.843L490.812,515.843C490.755,515.559 490.755,515.218 490.755,514.877L490.755,514.763C490.755,510.844 492.175,507.435 495.072,504.595L470.759,504.595L470.361,504.595L469.452,504.595Z" style="fill:rgb(22,15,66);fill-rule:nonzero;"/>
            </g>
        </g>
    </g>
</svg>
