<?xml version="1.0" encoding="UTF-8" standalone="no"?>
<!DOCTYPE svg PUBLIC "-//W3C//DTD SVG 1.1//EN" "http://www.w3.org/Graphics/SVG/1.1/DTD/svg11.dtd">
<svg width="100%" height="100%" viewBox="0 0 157 487" version="1.1" xmlns="http://www.w3.org/2000/svg" xmlns:xlink="http://www.w3.org/1999/xlink" xml:space="preserve" style="fill-rule:evenodd;clip-rule:evenodd;stroke-linejoin:round;stroke-miterlimit:1.41421;">
    <g transform="matrix(1,0,0,1,-2753,-53)">
        <g transform="matrix(1,0,0,1,0,-162)">
            <g id="Youth-Mentor-Female-1" transform="matrix(1,0,0,1,2183.13,-56.4495)">
                <path d="M680.516,271.627C671.964,271.627 664.618,274.671 658.584,280.757C656.538,282.803 654.806,284.955 653.389,287.316C648.3,283.486 642.318,281.597 635.445,281.649C627.679,281.649 621.068,284.063 615.611,288.837C610.154,293.612 607.426,299.384 607.426,306.152C607.426,307.726 607.583,309.248 607.898,310.717C607.006,310.612 606.114,310.56 605.222,310.56C599.503,310.56 594.571,312.606 590.478,316.646C586.438,320.686 584.392,325.619 584.392,331.39C584.339,335.168 585.231,338.579 587.015,341.674C583.395,342.724 580.142,344.717 577.256,347.603C572.639,352.221 570.33,357.782 570.382,364.236C570.33,370.69 572.639,376.252 577.256,380.869C577.518,381.131 577.833,381.446 578.148,381.708C575.052,385.119 573.478,389.159 573.478,393.881C573.478,398.761 575.21,402.959 578.673,406.474C582.188,409.989 586.438,411.773 591.423,411.773C594.256,411.773 596.827,411.196 599.188,410.042C598.663,411.669 598.401,413.452 598.401,415.289C598.349,415.551 598.349,415.814 598.401,416.076C598.454,417.388 598.611,418.594 598.978,419.749C599.555,421.953 600.657,423.999 602.179,425.835C602.494,426.203 602.809,426.517 603.176,426.885C606.481,430.19 610.364,431.817 614.929,431.817C619.494,431.817 623.324,430.19 626.525,426.885C626.892,426.517 627.207,426.202 627.574,425.835C627.994,425.31 628.414,424.786 628.833,424.209C628.886,424.051 628.991,423.894 629.096,423.736L634.448,424.209L634.448,407.681C633.975,407.523 633.503,407.366 633.031,407.208C631.09,406.526 629.253,405.634 627.469,404.637C626.945,404.323 626.42,404.008 625.948,403.693C624.269,402.591 622.642,401.332 621.068,399.915C620.596,399.443 620.071,398.971 619.599,398.499C614.614,393.514 611.413,387.795 609.892,381.446C610.102,381.236 610.312,381.026 610.521,380.869C615.139,376.251 617.447,370.69 617.447,364.236C617.447,359.146 616.031,354.634 613.197,350.699C615.663,349.702 617.867,348.18 619.913,346.134C623.954,342.041 626,337.109 626.052,331.39C626,330.655 626,329.973 625.947,329.291C628.886,330.183 632.034,330.655 635.444,330.708C637.176,330.708 638.907,330.551 640.534,330.288C642.003,334.643 644.836,338.473 649.086,341.884C655.54,347.078 663.306,349.702 672.488,349.702C675.741,349.649 678.837,349.335 681.775,348.705C682.037,348.652 682.247,348.6 682.51,348.548L682.51,348.023C682.562,348.023 682.614,348.023 682.667,348.023C685.868,350.384 689.54,351.538 693.79,351.538C698.775,351.538 703.078,349.912 706.593,346.659C710.108,343.458 711.892,339.575 711.892,335.01C711.892,333.489 711.683,332.072 711.315,330.76C711.997,330.393 712.679,329.973 713.362,329.501C714.201,328.924 714.988,328.242 715.723,327.507C718.976,324.254 720.602,320.319 720.602,315.702C720.602,311.084 718.976,307.149 715.723,303.896C714.411,302.584 712.994,301.587 711.473,300.8C711.053,293.035 708.062,286.371 702.448,280.757C696.361,274.67 689.068,271.627 680.516,271.627ZM589.062,363.921C589.009,361.14 589.954,358.832 591.895,356.89C593.836,354.949 596.145,354.005 598.926,354.057C599.451,354.057 599.975,354.109 600.553,354.162L600.553,369.273C601.759,369.221 602.756,369.64 603.648,370.532C604.54,371.424 604.96,372.474 604.96,373.681C604.96,374.887 604.54,375.884 603.648,376.776C602.756,377.668 601.759,378.088 600.553,378.088C599.346,378.088 598.296,377.668 597.404,376.776C596.512,375.884 596.093,374.887 596.145,373.68C596.145,373.575 596.145,373.471 596.145,373.418C594.571,372.946 593.154,372.106 591.895,370.847C589.954,368.906 589.009,366.597 589.062,363.921Z" style="fill:rgb(255,102,0);fill-rule:nonzero;"/>
                <path d="M591.895,356.89C589.954,358.832 589.009,361.14 589.062,363.921C589.009,366.597 589.954,368.906 591.895,370.847C593.154,372.107 594.571,372.946 596.145,373.418C596.198,372.316 596.617,371.319 597.404,370.532C598.296,369.64 599.346,369.221 600.553,369.273L600.553,354.162C599.975,354.109 599.451,354.057 598.926,354.057C596.145,354.004 593.836,354.949 591.895,356.89Z" style="fill:rgb(255,204,153);fill-rule:nonzero;"/>
                <path d="M597.404,370.532C596.617,371.32 596.198,372.316 596.145,373.418C596.145,373.471 596.145,373.576 596.145,373.681C596.093,374.887 596.512,375.884 597.404,376.776C598.296,377.668 599.346,378.088 600.553,378.088C601.759,378.088 602.756,377.668 603.648,376.776C604.54,375.884 604.96,374.887 604.96,373.681C604.96,372.474 604.54,371.424 603.648,370.532C602.756,369.64 601.759,369.221 600.553,369.273C599.346,369.221 598.296,369.64 597.404,370.532Z" style="fill:rgb(255,255,153);fill-rule:nonzero;"/>
                <path d="M625.948,329.291C626,329.974 626,330.656 626.053,331.39C626,337.109 623.954,342.042 619.914,346.134C617.867,348.18 615.664,349.702 613.198,350.699C616.031,354.634 617.448,359.147 617.448,364.236C617.448,370.69 615.139,376.252 610.522,380.869C610.312,381.026 610.102,381.236 609.892,381.446C611.413,387.795 614.614,393.514 619.599,398.499C620.071,398.971 620.596,399.443 621.068,399.915C622.642,401.332 624.268,402.591 625.947,403.693C626.42,404.008 626.944,404.323 627.469,404.638C629.253,405.635 631.089,406.526 633.031,407.209C633.503,407.366 633.975,407.523 634.447,407.681C637.963,408.783 641.688,409.36 645.676,409.36C648.037,409.307 650.293,409.097 652.444,408.73C652.812,408.678 653.126,408.573 653.494,408.52C653.966,408.415 654.386,408.31 654.858,408.206C661.102,406.684 666.716,403.431 671.648,398.499C678.889,391.31 682.509,382.6 682.509,372.474L682.509,348.548C682.247,348.6 682.037,348.653 681.775,348.705C678.836,349.335 675.741,349.65 672.488,349.702C663.305,349.702 655.54,347.079 649.086,341.884C644.836,338.474 642.003,334.643 640.534,330.288C638.907,330.551 637.176,330.708 635.444,330.708C632.033,330.656 628.885,330.183 625.947,329.291L625.948,329.291ZM634.71,361.875C634.973,361.613 635.287,361.508 635.655,361.508L642.476,361.508C642.843,361.508 643.105,361.613 643.368,361.875C643.63,362.137 643.787,362.452 643.787,362.819C643.787,363.187 643.63,363.449 643.368,363.711C643.105,363.974 642.843,364.131 642.476,364.131L635.655,364.131C635.287,364.131 634.973,363.974 634.71,363.711C634.448,363.449 634.343,363.187 634.343,362.819C634.343,362.452 634.448,362.137 634.71,361.875ZM636.704,384.489C634.238,382.023 632.821,379.19 632.454,375.937L662.204,375.937C661.784,379.19 660.368,382.023 657.902,384.489C654.963,387.428 651.448,388.897 647.303,388.897C643.158,388.897 639.642,387.428 636.704,384.489ZM665.562,361.508C665.93,361.508 666.192,361.613 666.454,361.875C666.717,362.137 666.874,362.452 666.874,362.819C666.874,363.187 666.717,363.449 666.454,363.711C666.192,363.974 665.93,364.131 665.562,364.131L658.741,364.131C658.374,364.131 658.059,363.974 657.797,363.711C657.534,363.449 657.429,363.187 657.429,362.819C657.429,362.452 657.534,362.137 657.797,361.875C658.059,361.613 658.374,361.508 658.741,361.508L665.562,361.508ZM649.034,363.187C648.982,362.295 649.297,361.508 649.979,360.878C650.608,360.196 651.396,359.881 652.287,359.881C653.179,359.881 653.966,360.196 654.596,360.878C655.226,361.508 655.541,362.295 655.593,363.187L655.593,368.749C655.541,369.64 655.226,370.375 654.596,371.057C653.966,371.687 653.179,372.002 652.287,372.002C651.395,372.002 650.608,371.687 649.979,371.057C649.297,370.375 648.982,369.64 649.034,368.748L649.034,363.187Z" style="fill:rgb(255,204,153);fill-rule:nonzero;"/>
                <path d="M635.655,361.508C635.287,361.508 634.973,361.613 634.71,361.875C634.448,362.137 634.343,362.452 634.343,362.819C634.343,363.187 634.448,363.449 634.71,363.711C634.973,363.974 635.287,364.131 635.655,364.131L642.476,364.131C642.843,364.131 643.105,363.974 643.368,363.711C643.63,363.449 643.787,363.187 643.787,362.819C643.787,362.452 643.63,362.137 643.368,361.875C643.105,361.613 642.843,361.508 642.476,361.508L635.655,361.508Z" style="fill:rgb(75,28,2);fill-rule:nonzero;"/>
                <path d="M632.454,375.937C632.821,379.19 634.238,382.023 636.704,384.489C639.642,387.428 643.158,388.897 647.303,388.897C651.448,388.897 654.963,387.428 657.902,384.489C660.368,382.023 661.784,379.19 662.204,375.937L632.454,375.937Z" style="fill:white;fill-rule:nonzero;"/>
                <path d="M666.454,361.875C666.192,361.613 665.93,361.508 665.562,361.508L658.741,361.508C658.374,361.508 658.059,361.613 657.797,361.875C657.534,362.137 657.429,362.452 657.429,362.819C657.429,363.187 657.534,363.449 657.797,363.711C658.059,363.974 658.374,364.131 658.741,364.131L665.562,364.131C665.929,364.131 666.192,363.974 666.454,363.711C666.716,363.449 666.874,363.187 666.874,362.819C666.874,362.452 666.716,362.137 666.454,361.875Z" style="fill:rgb(75,28,2);fill-rule:nonzero;"/>
                <path d="M649.979,360.878C649.297,361.508 648.982,362.295 649.034,363.187L649.034,368.749C648.982,369.64 649.297,370.375 649.979,371.057C650.608,371.687 651.396,372.002 652.287,372.002C653.179,372.002 653.966,371.687 654.596,371.057C655.226,370.375 655.541,369.64 655.593,368.748L655.593,363.187C655.541,362.295 655.226,361.508 654.596,360.878C653.966,360.196 653.179,359.881 652.287,359.881C651.395,359.881 650.608,360.196 649.979,360.878Z" style="fill:rgb(234,152,133);fill-rule:nonzero;"/>
                <path d="M711.316,330.761C711.683,332.072 711.893,333.489 711.893,335.011C711.893,339.575 710.109,343.458 706.593,346.659C703.078,349.912 698.775,351.538 693.791,351.538C689.541,351.538 685.868,350.384 682.667,348.023C682.615,348.023 682.562,348.023 682.51,348.023L682.51,372.474C682.51,382.6 678.889,391.31 671.649,398.499C666.717,403.431 661.102,406.684 654.858,408.205L654.858,423.212C655.593,423.894 656.38,424.419 657.167,424.838C660.105,426.465 663.306,426.15 666.716,423.946C674.849,430.348 680.936,428.669 684.871,418.962C685.028,419.224 685.238,419.486 685.501,419.749C685.868,420.221 686.235,420.641 686.707,421.113C689.488,423.894 692.899,425.258 696.834,425.258C700.769,425.258 704.127,423.894 706.908,421.113C707.328,420.641 707.748,420.221 708.115,419.749C709.007,418.594 709.741,417.388 710.214,416.076C710.791,414.502 711.106,412.823 711.158,410.986C711.106,408.625 710.633,406.526 709.689,404.585C712.89,403.693 715.775,402.014 718.346,399.495C722.229,395.56 724.17,390.89 724.17,385.434C724.17,379.924 722.229,375.254 718.346,371.424C715.67,368.696 712.575,366.964 709.059,366.177C713.519,365.81 717.402,363.974 720.655,360.72C724.328,356.995 726.164,352.588 726.164,347.393C726.164,342.199 724.328,337.739 720.655,334.118C718.504,331.967 716.038,330.393 713.362,329.501C712.68,329.973 711.997,330.393 711.315,330.76L711.316,330.761Z" style="fill:rgb(219,88,2);fill-rule:nonzero;"/>
                <path d="M652.445,408.73C650.294,409.098 648.037,409.307 645.676,409.36C641.689,409.36 637.963,408.783 634.448,407.681L634.448,433.286L633.188,433.286C634.08,434.65 634.972,435.962 635.969,437.221C637.701,439.425 639.485,441.156 641.216,442.416C643.525,444.095 645.834,444.934 648.142,444.934C652.13,444.934 654.858,442.363 656.38,437.221C656.747,436.014 657.062,434.703 657.219,433.338L657.219,433.286L654.858,433.286L654.858,423.212L654.858,408.206C654.386,408.31 653.966,408.415 653.494,408.52C653.127,408.573 652.812,408.678 652.445,408.73Z" style="fill:rgb(234,152,133);fill-rule:nonzero;"/>
                <path d="M657.22,433.338C657.062,434.703 656.747,436.014 656.38,437.221C654.858,442.363 652.13,444.934 648.142,444.934C645.834,444.934 643.525,444.095 641.216,442.416C639.485,441.156 637.701,439.425 635.969,437.221C634.972,435.962 634.08,434.65 633.188,433.286L628.833,433.286L628.833,561.889L680.516,561.889L680.411,561.416L680.411,483.447C682.562,482.975 684.504,481.873 686.235,480.141C688.649,477.728 689.855,474.842 689.855,471.431C689.855,468.021 688.649,465.135 686.235,462.721C684.399,460.885 682.3,459.783 679.886,459.311C679.834,459.048 679.781,458.839 679.729,458.576C677.315,445.669 669.865,437.274 657.324,433.338C657.272,433.286 657.272,433.286 657.219,433.286L657.219,433.338L657.22,433.338ZM660.001,482.45C657.797,484.549 655.121,485.598 652.025,485.598C650.923,485.598 649.821,485.441 648.825,485.178C647.041,484.706 645.466,483.762 644.05,482.45C642.686,481.138 641.741,479.722 641.269,478.095C645.519,477.833 652.707,477.938 662.729,478.515C662.886,479.302 661.942,480.614 660,482.45L660.001,482.45Z" style="fill:rgb(38,55,73);fill-rule:nonzero;"/>
                <path d="M652.025,485.598C655.121,485.598 657.797,484.549 660.001,482.45C661.942,480.613 662.886,479.302 662.729,478.515C652.707,477.938 645.519,477.833 641.269,478.095C641.741,479.722 642.686,481.138 644.05,482.45C645.466,483.762 647.04,484.706 648.824,485.178C649.821,485.441 650.923,485.598 652.025,485.598Z" style="fill:rgb(15,21,28);fill-rule:nonzero;"/>
                <path d="M628.834,433.286C618.812,433.286 613.827,438.271 613.827,448.292L613.827,479.512L628.834,479.512L628.834,433.286Z" style="fill:rgb(15,21,28);fill-rule:nonzero;"/>
                <path d="M628.834,479.512L613.827,479.512L613.827,584.608L612.83,584.608L612.83,585.185C609.315,585.972 607.006,587.756 605.852,590.432C605.537,591.849 605.275,593.213 605.012,594.63C605.012,594.682 605.012,594.787 605.012,594.84C604.96,594.997 604.96,595.154 605.012,595.312L604.96,614.043C604.96,615.513 605.432,616.772 606.429,617.769C607.478,618.818 608.738,619.343 610.259,619.343L610.417,619.343C611.886,619.343 613.093,618.818 614.089,617.769C614.876,616.982 615.349,616.09 615.611,615.093C615.559,614.935 615.559,614.778 615.559,614.621C615.611,614.621 615.611,614.621 615.663,614.673C615.611,614.83 615.611,614.935 615.611,615.093C615.663,616.405 616.188,617.454 617.08,618.346C618.13,619.395 619.389,619.92 620.858,619.92L621.015,619.92C622.484,619.92 623.691,619.395 624.688,618.346C625.528,617.559 626.052,616.667 626.21,615.565C626.262,615.513 626.262,615.513 626.315,615.565C626.42,616.772 626.892,617.821 627.784,618.713C628.833,619.763 630.092,620.287 631.614,620.287L631.771,620.287C633.241,620.287 634.447,619.763 635.444,618.713C635.602,618.556 635.759,618.346 635.916,618.189C636.651,617.297 637.018,616.195 637.071,614.988L637.018,608.692C636.966,608.587 636.861,608.482 636.756,608.429L637.018,608.429L637.018,596.204C637.018,595.732 636.966,595.312 636.913,594.945C636.861,594.787 636.808,594.577 636.756,594.42C636.598,594.053 636.494,593.685 636.336,593.318L636.284,593.213C636.284,593.056 636.284,592.951 636.231,592.793L635.444,591.901L636.126,592.636C634.5,588.333 632.034,585.867 628.833,585.185L628.833,561.889L628.833,479.512L628.834,479.512ZM615.664,595.941L615.611,595.889C615.611,595.574 615.611,595.259 615.664,594.945L615.664,595.941Z" style="fill:rgb(255,204,153);fill-rule:nonzero;"/>
                <path d="M615.611,595.889L615.664,595.941L615.664,595.312C615.664,595.154 615.664,595.049 615.664,594.945C615.611,595.259 615.611,595.574 615.611,595.889Z" style="fill:rgb(77,95,109);fill-rule:nonzero;"/>
                <path d="M628.834,585.185C632.034,585.867 634.5,588.333 636.127,592.636L646.253,602.71L647.723,602.658L659.633,602.343L669.235,602.08L680.411,601.766L680.411,561.889L628.834,561.889L628.834,585.185Z" style="fill:rgb(228,81,99);fill-rule:nonzero;"/>
                <path d="M636.127,592.636L635.445,591.901L636.232,592.793C636.284,592.951 636.284,593.056 636.284,593.213L636.337,593.318C636.494,593.685 636.599,594.053 636.757,594.42C636.809,594.577 636.861,594.787 636.914,594.945C636.966,595.312 637.019,595.732 637.019,596.204L637.019,608.692L638.121,609.741L638.908,610.58C639.905,611.472 641.059,611.892 642.371,611.892C643.84,611.892 645.099,611.368 646.201,610.318L646.253,610.266C646.358,610.108 646.463,610.003 646.621,609.898C647.25,609.111 647.618,608.219 647.722,607.275C647.775,607.013 647.775,606.75 647.775,606.488C647.775,606.225 647.775,606.016 647.722,605.753C647.617,604.599 647.145,603.602 646.253,602.71L636.127,592.636Z" style="fill:rgb(234,152,133);fill-rule:nonzero;"/>
                <path d="M647.723,602.658L646.254,602.71C647.145,603.602 647.618,604.599 647.723,605.753L647.723,602.658Z" style="fill:rgb(255,189,145);fill-rule:nonzero;"/>
                <path d="M647.723,607.275C647.618,608.219 647.25,609.111 646.621,609.898C646.463,610.003 646.358,610.108 646.254,610.266L646.201,610.318C645.099,611.368 643.84,611.892 642.371,611.892C641.059,611.892 639.905,611.472 638.908,610.58L638.121,609.741L638.121,744.85L647.723,744.85L647.723,607.275Z" style="fill:rgb(255,189,145);fill-rule:nonzero;"/>
                <path d="M669.235,602.08L659.633,602.343L659.633,741.125C660.263,740.81 660.892,740.547 661.575,740.39C661.627,740.338 661.732,740.338 661.784,740.338C662.572,740.075 663.359,739.918 664.198,739.813C664.303,739.76 664.408,739.76 664.46,739.76C665.195,739.708 665.982,739.655 666.769,739.655C667.556,739.655 668.343,739.708 669.13,739.813C669.183,739.813 669.183,739.813 669.235,739.813L669.235,602.08Z" style="fill:rgb(234,152,133);fill-rule:nonzero;"/>
                <path d="M637.019,608.692L637.019,608.429L636.756,608.429C636.861,608.482 636.966,608.587 637.019,608.692Z" style="fill:rgb(77,95,109);fill-rule:nonzero;"/>
                <path d="M615.559,614.621C615.559,614.778 615.559,614.935 615.611,615.093C615.611,614.935 615.611,614.83 615.664,614.673C615.611,614.621 615.611,614.621 615.559,614.621Z" style="fill:rgb(77,95,109);fill-rule:nonzero;"/>
                <path d="M638.121,744.85L635.497,744.85L635.497,753.35L684.556,753.35C683.612,750.517 682.09,747.946 680.044,745.689C679.781,745.375 679.519,745.112 679.257,744.85C678.68,744.273 678.102,743.801 677.525,743.328L677.473,743.276C676.371,742.436 675.269,741.754 674.115,741.23C673.957,741.177 673.852,741.125 673.747,741.072C672.331,740.442 670.809,740.023 669.235,739.813C669.183,739.813 669.183,739.813 669.13,739.813C668.343,739.708 667.556,739.655 666.769,739.655C665.982,739.655 665.195,739.708 664.46,739.76C664.408,739.76 664.303,739.76 664.198,739.813C663.358,739.918 662.571,740.075 661.784,740.338C661.732,740.338 661.627,740.338 661.574,740.39C660.892,740.547 660.263,740.81 659.633,741.125C659.056,741.387 658.531,741.649 658.006,741.964C656.695,742.751 655.488,743.696 654.334,744.85L647.722,744.85L638.12,744.85L638.121,744.85Z" style="fill:rgb(42,34,75);fill-rule:nonzero;"/>
                <path d="M635.497,753.35L635.497,758.072L685.448,758.072C685.343,756.97 685.186,755.869 684.976,754.872C684.819,754.347 684.714,753.822 684.556,753.35L635.497,753.35Z" style="fill:rgb(255,102,0);fill-rule:nonzero;"/>
                <path d="M695.627,741.23C695.47,741.177 695.365,741.125 695.26,741.072C693.791,740.39 692.269,739.97 690.643,739.813C689.856,739.708 689.069,739.655 688.282,739.655C687.494,739.655 686.707,739.708 685.973,739.76C685.92,739.76 685.815,739.76 685.71,739.813C684.871,739.918 684.084,740.075 683.297,740.338C683.244,740.338 683.139,740.338 683.087,740.39C681.828,740.757 680.621,741.282 679.519,741.964C678.837,742.331 678.155,742.804 677.525,743.328C678.102,743.801 678.679,744.273 679.257,744.85C679.519,745.112 679.781,745.375 680.044,745.689C682.09,747.946 683.611,750.517 684.556,753.35L706.068,753.35C705.124,750.517 703.602,747.946 701.556,745.689C701.294,745.375 701.031,745.112 700.769,744.85C700.192,744.273 699.562,743.748 698.985,743.276C697.883,742.436 696.781,741.754 695.627,741.23Z" style="fill:rgb(30,24,52);fill-rule:nonzero;"/>
                <path d="M684.556,753.35C684.714,753.822 684.819,754.347 684.976,754.872C685.186,755.869 685.343,756.97 685.448,758.072L706.961,758.072C706.856,756.97 706.698,755.869 706.488,754.872C706.331,754.347 706.226,753.822 706.069,753.35L684.556,753.35Z" style="fill:rgb(177,71,1);fill-rule:nonzero;"/>
            </g>
        </g>
    </g>
</svg>
