<?xml version="1.0" encoding="UTF-8" standalone="no"?>
<!DOCTYPE svg PUBLIC "-//W3C//DTD SVG 1.1//EN" "http://www.w3.org/Graphics/SVG/1.1/DTD/svg11.dtd">
<svg width="100%" height="100%" viewBox="0 0 235 489" version="1.1" xmlns="http://www.w3.org/2000/svg" xmlns:xlink="http://www.w3.org/1999/xlink" xml:space="preserve" style="fill-rule:evenodd;clip-rule:evenodd;stroke-linejoin:round;stroke-miterlimit:1.41421;">
    <g transform="matrix(1,0,0,1,-4266,-51)">
        <g transform="matrix(1,0,0,1,0,-162)">
            <g id="Youth-Mentor-Male-1-Laptop" transform="matrix(1,0,0,1,3915.94,-58.0595)">
                <path d="M365.315,306.114C365.265,306.513 365.265,306.963 365.265,307.413L365.265,341.45C365.265,351.296 368.763,359.742 375.76,366.739C379.459,370.388 383.557,373.087 388.106,374.836C392.054,376.386 396.402,377.135 401.05,377.185L407.048,377.185C412.296,377.135 417.144,376.036 421.592,373.987C425.291,372.237 428.689,369.838 431.838,366.739C438.785,359.742 442.284,351.296 442.334,341.45L442.334,336.552L442.334,318.659L442.334,307.413C442.284,306.814 442.284,306.264 442.234,305.714L432.938,305.714L432.938,295.868L373.411,295.868L373.411,306.114L365.315,306.114ZM392.554,320.708C392.554,320.058 392.804,319.558 393.303,319.108C393.753,318.659 394.353,318.459 395.003,318.459C395.653,318.509 396.202,318.809 396.652,319.258C397.102,319.758 397.302,320.358 397.252,321.008C397.202,321.658 396.952,322.157 396.452,322.607C396.002,323.057 395.403,323.257 394.753,323.207C394.103,323.207 393.553,322.957 393.154,322.457C392.704,321.957 392.504,321.358 392.554,320.708ZM407.448,319.508C408.098,320.158 408.447,320.958 408.447,321.907L408.447,327.705C408.447,328.655 408.098,329.504 407.448,330.154C407.298,330.254 407.198,330.354 407.048,330.454C406.498,330.904 405.798,331.154 405.049,331.154C404.099,331.154 403.249,330.804 402.6,330.154C401.9,329.504 401.55,328.655 401.6,327.705L401.6,321.907C401.55,320.958 401.9,320.158 402.6,319.508C403.249,318.809 404.099,318.459 405.049,318.509C405.798,318.509 406.498,318.759 407.048,319.208C407.198,319.258 407.298,319.358 407.448,319.508ZM412.346,323.007C411.896,322.507 411.696,321.907 411.746,321.258C411.796,320.608 412.046,320.058 412.496,319.658C412.946,319.208 413.495,318.959 414.145,319.009C414.795,319.059 415.395,319.308 415.844,319.808C416.294,320.258 416.494,320.858 416.494,321.508C416.444,322.157 416.194,322.707 415.744,323.157C415.245,323.607 414.645,323.757 413.945,323.707C413.295,323.707 412.796,323.457 412.346,323.007ZM417.644,353.445C416.894,354.194 416.044,354.844 415.195,355.444C412.746,357.093 410.047,358.143 407.048,358.543C406.098,358.693 405.149,358.743 404.199,358.743C400.601,358.743 397.352,357.943 394.503,356.344C393.154,355.544 391.854,354.594 390.655,353.445C388.405,351.346 386.856,348.997 386.006,346.348C385.457,344.598 385.157,342.799 385.157,340.9C385.157,340.45 385.157,340 385.207,339.6L423.192,339.6C423.242,340 423.242,340.45 423.242,340.9C423.242,342.799 422.942,344.598 422.392,346.348C421.492,348.997 419.893,351.346 417.644,353.445Z" style="fill:rgb(120,63,46);fill-rule:nonzero;"/>
                <path d="M393.303,319.108C392.804,319.558 392.554,320.058 392.554,320.708C392.504,321.358 392.704,321.957 393.154,322.457C393.553,322.957 394.103,323.207 394.753,323.207C395.403,323.257 396.002,323.057 396.452,322.607C396.952,322.157 397.202,321.658 397.252,321.008C397.302,320.358 397.102,319.758 396.652,319.259C396.202,318.809 395.653,318.509 395.003,318.459C394.353,318.459 393.753,318.659 393.304,319.109L393.303,319.108Z" style="fill-rule:nonzero;"/>
                <path d="M408.447,321.907C408.447,320.958 408.098,320.158 407.448,319.508C407.298,319.358 407.198,319.258 407.048,319.208C406.498,318.759 405.798,318.509 405.049,318.509C404.099,318.459 403.249,318.809 402.6,319.508C401.9,320.158 401.55,320.958 401.6,321.907L401.6,327.705C401.55,328.655 401.9,329.504 402.6,330.154C403.249,330.804 404.099,331.154 405.049,331.154C405.798,331.154 406.498,330.904 407.048,330.454C407.198,330.354 407.298,330.254 407.448,330.154C408.098,329.504 408.447,328.655 408.447,327.705L408.447,321.907Z" style="fill:rgb(90,34,29);fill-rule:nonzero;"/>
                <path d="M411.746,321.258C411.696,321.907 411.896,322.507 412.346,323.007C412.796,323.457 413.295,323.707 413.945,323.707C414.645,323.757 415.245,323.607 415.744,323.157C416.194,322.707 416.444,322.157 416.494,321.507C416.494,320.858 416.294,320.258 415.844,319.808C415.395,319.308 414.795,319.058 414.145,319.008C413.495,318.959 412.946,319.208 412.496,319.658C412.046,320.058 411.796,320.608 411.746,321.258Z" style="fill-rule:nonzero;"/>
                <path d="M415.195,355.444C416.044,354.844 416.894,354.194 417.644,353.445C419.893,351.346 421.492,348.997 422.392,346.348L386.006,346.348C386.856,348.997 388.405,351.346 390.655,353.445C391.854,354.594 393.154,355.544 394.503,356.344C394.953,354.694 395.902,353.245 397.402,351.995C399.551,350.246 402.1,349.396 405.049,349.446C405.699,349.446 406.398,349.496 407.048,349.596C409.147,349.896 410.996,350.696 412.596,351.995C413.845,353.045 414.695,354.195 415.195,355.444Z" style="fill:rgb(79,32,32);fill-rule:nonzero;"/>
                <path d="M422.392,346.348C422.942,344.598 423.241,342.799 423.241,340.9C423.241,340.45 423.241,340 423.191,339.6L385.207,339.6C385.157,340 385.157,340.45 385.157,340.9C385.157,342.799 385.457,344.598 386.006,346.348L422.392,346.348Z" style="fill:white;fill-rule:nonzero;"/>
                <path d="M412.596,351.995C410.996,350.696 409.147,349.896 407.048,349.596C406.398,349.496 405.698,349.446 405.049,349.446C402.1,349.396 399.551,350.246 397.402,351.995C395.902,353.245 394.953,354.694 394.503,356.344C397.352,357.943 400.601,358.743 404.199,358.743C405.149,358.743 406.098,358.693 407.048,358.543C410.047,358.143 412.746,357.093 415.195,355.444C414.695,354.195 413.845,353.045 412.596,351.995Z" style="fill:rgb(255,153,153);fill-rule:nonzero;"/>
                <path d="M363.365,336.751C364.015,336.751 364.665,336.701 365.265,336.551L365.265,318.659C364.665,318.509 364.015,318.459 363.365,318.459C360.816,318.459 358.667,319.358 356.918,321.158C355.119,322.907 354.219,325.056 354.219,327.605C354.219,330.154 355.119,332.303 356.918,334.052C358.667,335.852 360.816,336.751 363.365,336.751Z" style="fill:rgb(103,43,33);fill-rule:nonzero;"/>
                <path d="M406.548,271.677L401.05,271.677C391.154,271.627 382.708,275.126 375.761,282.123C369.063,288.771 365.565,296.767 365.315,306.114L373.411,306.114L373.411,295.868L432.938,295.868L432.938,305.714L442.234,305.714C441.884,296.567 438.385,288.671 431.838,282.123C424.991,275.276 416.694,271.777 407.048,271.677C406.898,271.677 406.698,271.677 406.548,271.677Z" style="fill:rgb(31,31,31);fill-rule:nonzero;"/>
                <path d="M446.132,318.659C445.533,318.509 444.883,318.459 444.233,318.459C443.583,318.459 442.934,318.509 442.334,318.659L442.334,336.551C442.934,336.701 443.583,336.751 444.233,336.751C444.883,336.751 445.533,336.701 446.132,336.551C446.682,336.452 447.182,336.302 447.682,336.102C448.781,335.652 449.781,334.952 450.68,334.052C452.48,332.303 453.379,330.154 453.379,327.605C453.379,325.056 452.48,322.907 450.68,321.158C449.781,320.258 448.781,319.558 447.682,319.108C447.182,318.909 446.682,318.759 446.132,318.659Z" style="fill:rgb(103,43,33);fill-rule:nonzero;"/>
                <path d="M421.592,382.933L421.592,373.986C417.144,376.036 412.296,377.135 407.048,377.185C406.898,377.185 406.698,377.185 406.548,377.185L401.05,377.185C396.402,377.135 392.054,376.386 388.106,374.836L388.106,382.933L421.592,382.933Z" style="fill:rgb(103,43,33);fill-rule:nonzero;"/>
                <rect x="413.945" y="382.933" width="5.448" height="20.842" style="fill:rgb(74,87,23);fill-rule:nonzero;"/>
                <path d="M421.592,382.933L419.393,382.933L419.393,403.775L430.389,403.775L430.389,382.933L421.592,382.933Z" style="fill:rgb(108,125,29);fill-rule:nonzero;"/>
                <path d="M388.106,382.933L377.41,382.933L377.41,403.775L413.945,403.775L413.945,382.933L388.106,382.933Z" style="fill:rgb(108,125,29);fill-rule:nonzero;"/>
                <path d="M410.497,410.372C410.447,410.272 410.447,410.172 410.447,410.072C410.497,409.822 410.497,409.622 410.547,409.422C410.647,408.773 410.846,408.223 411.146,407.673C411.296,407.423 411.446,407.123 411.646,406.873L411.646,406.823C411.846,406.574 412.046,406.274 412.296,406.024C412.796,405.574 413.345,405.174 413.945,404.924C414.745,404.574 415.645,404.424 416.594,404.474C417.644,404.524 418.543,404.774 419.393,405.224C419.943,405.524 420.443,405.924 420.942,406.374C421.192,406.674 421.442,406.973 421.642,407.323C422.392,408.373 422.742,409.522 422.742,410.822L422.592,421.118C422.542,422.817 421.892,424.217 420.742,425.366C420.293,425.766 419.843,426.116 419.393,426.366L419.393,560.262L445.782,560.262L445.782,429.465C445.732,428.415 445.682,427.365 445.583,426.366L445.583,426.266C445.133,419.619 442.334,413.621 437.186,408.223C435.237,406.474 432.988,404.974 430.389,403.775L419.393,403.775L413.945,403.775L377.41,403.775L376.21,403.775L376.21,560.262L413.945,560.262L413.945,426.466C413.245,426.116 412.646,425.666 412.096,425.016C411.646,424.567 411.296,424.067 411.046,423.567C410.746,423.017 410.547,422.418 410.447,421.818C410.397,421.418 410.347,421.018 410.347,420.618L410.497,410.372ZM401.85,404.624L402.45,404.724C402.2,404.774 402,404.824 401.85,404.924L401.85,404.624ZM381.508,523.277L381.508,523.227C381.508,522.277 381.858,521.428 382.558,520.778C383.207,520.128 384.007,519.778 384.957,519.828L404.449,519.828C405.399,519.778 406.248,520.128 406.898,520.778C407.548,521.428 407.848,522.277 407.848,523.227L407.848,523.277C407.848,524.227 407.548,525.026 406.898,525.676C406.248,526.326 405.399,526.626 404.449,526.676L384.957,526.676C384.007,526.626 383.207,526.326 382.558,525.676C381.858,525.026 381.508,524.227 381.508,523.277Z" style="fill:rgb(152,172,87);fill-rule:nonzero;"/>
                <path d="M402.45,404.724L401.85,404.624L401.85,404.924C402,404.824 402.2,404.774 402.45,404.724Z" style="fill:rgb(109,129,34);fill-rule:nonzero;"/>
                <path d="M381.508,523.227L381.508,523.277C381.508,524.226 381.858,525.026 382.558,525.676C383.207,526.326 384.007,526.625 384.957,526.675L404.449,526.675C405.399,526.626 406.248,526.326 406.898,525.676C407.548,525.026 407.848,524.227 407.848,523.277L407.848,523.227C407.848,522.277 407.548,521.428 406.898,520.778C406.248,520.128 405.399,519.778 404.449,519.828L384.957,519.828C384.007,519.778 383.207,520.128 382.558,520.778C381.858,521.428 381.508,522.277 381.508,523.227Z" style="fill:rgb(109,129,34);fill-rule:nonzero;"/>
                <path d="M410.447,410.072C410.447,410.172 410.447,410.272 410.497,410.372L410.347,420.618C410.347,421.018 410.397,421.418 410.447,421.817C410.547,422.417 410.746,423.017 411.046,423.567C411.296,424.067 411.646,424.566 412.096,425.016C412.646,425.666 413.245,426.116 413.945,426.466C414.645,426.815 415.445,427.065 416.344,427.115C416.394,427.115 416.494,427.115 416.644,427.115C416.694,427.065 416.794,427.065 416.844,427.065C417.744,427.015 418.593,426.816 419.393,426.366C419.843,426.116 420.293,425.766 420.742,425.366C421.892,424.217 422.542,422.817 422.592,421.118L422.742,410.822C422.742,409.522 422.392,408.373 421.642,407.323C421.442,406.974 421.192,406.674 420.942,406.374C420.443,405.924 419.943,405.524 419.393,405.224C418.543,404.774 417.644,404.525 416.594,404.475C415.645,404.425 414.745,404.575 413.945,404.924C413.345,405.174 412.796,405.574 412.296,406.024C412.046,406.274 411.846,406.574 411.646,406.824L411.646,406.874C411.446,407.124 411.296,407.423 411.146,407.673C410.846,408.223 410.647,408.773 410.547,409.423C410.497,409.623 410.497,409.822 410.447,410.072ZM413.545,411.521L413.495,411.421C413.545,410.872 413.695,410.422 413.945,410.022C414.045,409.822 414.195,409.622 414.395,409.422C414.895,408.873 415.595,408.573 416.444,408.623L416.444,408.723C417.294,408.723 417.994,409.022 418.643,409.622C419.193,410.172 419.443,410.872 419.393,411.671L419.393,411.721L419.443,411.721C419.393,411.821 419.393,411.921 419.393,412.071C419.343,412.721 419.043,413.321 418.593,413.771C417.944,414.32 417.244,414.57 416.444,414.52L416.344,414.57C415.545,414.52 414.895,414.221 414.395,413.621C414.195,413.421 414.045,413.221 413.945,413.021C413.695,412.571 413.545,412.071 413.545,411.522L413.545,411.521Z" style="fill:white;fill-rule:nonzero;"/>
                <path d="M413.495,411.421L413.545,411.521C413.545,412.071 413.695,412.571 413.945,413.021L413.945,410.022C413.695,410.422 413.545,410.872 413.495,411.421Z" style="fill:rgb(152,172,87);fill-rule:nonzero;"/>
                <path d="M414.395,409.422C414.195,409.622 414.045,409.822 413.945,410.022L413.945,413.021C414.045,413.221 414.195,413.421 414.395,413.621C414.895,414.22 415.545,414.52 416.344,414.57L416.444,414.52C417.244,414.57 417.944,414.32 418.593,413.771C419.043,413.321 419.343,412.721 419.393,412.071L419.393,411.721L419.393,411.671C419.443,410.872 419.193,410.172 418.643,409.622C417.994,409.023 417.294,408.723 416.444,408.723L416.444,408.623C415.595,408.573 414.895,408.873 414.395,409.422Z" style="fill:rgb(109,129,34);fill-rule:nonzero;"/>
                <path d="M419.393,411.721L419.393,412.071C419.393,411.921 419.393,411.821 419.443,411.721L419.393,411.721Z" style="fill:rgb(152,172,87);fill-rule:nonzero;"/>
                <path d="M376.21,403.775L375.611,403.775C372.262,403.825 369.513,404.424 367.264,405.524C362.266,407.923 359.767,412.821 359.767,420.168L359.767,454.304L376.21,454.304L376.21,403.775Z" style="fill:rgb(15,21,28);fill-rule:nonzero;"/>
                <path d="M419.393,426.366C418.593,426.815 417.744,427.015 416.844,427.065C416.794,427.065 416.694,427.065 416.644,427.115C416.494,427.115 416.394,427.115 416.344,427.115C415.445,427.065 414.645,426.815 413.945,426.466L413.945,560.262L376.21,560.262L376.21,566.859L445.832,566.859C446.532,566.809 447.132,566.609 447.682,566.21C447.832,566.11 447.932,566.01 448.032,565.86C448.681,565.21 449.031,564.46 449.031,563.561C449.031,562.661 448.681,561.861 448.032,561.212C447.932,561.062 447.832,560.962 447.682,560.862C447.132,560.412 446.532,560.212 445.782,560.262L419.393,560.262L419.393,426.366Z" style="fill:rgb(109,129,34);fill-rule:nonzero;"/>
                <path d="M445.583,426.366L445.583,426.266L445.583,426.366Z" style="fill:rgb(120,63,46);fill-rule:nonzero;"/>
                <path d="M376.21,454.304L359.767,454.304L359.767,569.258C356.618,570.208 354.319,571.408 352.92,572.857C352.12,573.657 351.52,574.556 351.07,575.606C350.97,576.056 350.87,576.555 350.77,577.005C350.521,578.055 350.321,579.154 350.121,580.204C350.121,580.254 350.121,580.354 350.121,580.404C350.071,580.554 350.071,580.754 350.121,580.954L350.071,601.396C350.071,602.445 350.321,603.395 350.77,604.245C351.02,604.694 351.32,605.094 351.72,605.494C352.07,605.894 352.47,606.244 352.92,606.494C353.769,606.993 354.769,607.243 355.868,607.293L356.068,607.293C357.668,607.243 359.017,606.644 360.067,605.494C360.916,604.644 361.466,603.695 361.716,602.595C361.666,602.445 361.666,602.245 361.666,602.095C361.716,602.095 361.766,602.095 361.816,602.145C361.766,602.295 361.766,602.445 361.716,602.595C361.816,603.995 362.366,605.194 363.315,606.144C364.365,607.243 365.714,607.843 367.264,607.893L367.664,607.893C369.263,607.893 370.613,607.293 371.662,606.144C372.562,605.294 373.112,604.295 373.311,603.095C373.361,603.095 373.411,603.095 373.461,603.095C373.561,604.445 374.111,605.594 375.061,606.544C376.21,607.693 377.61,608.243 379.259,608.243L379.409,608.243C381.008,608.243 382.358,607.693 383.407,606.544C383.557,606.344 383.757,606.144 383.957,605.944C384.757,604.944 385.157,603.795 385.207,602.445L385.157,595.548C385.057,595.448 384.957,595.348 384.857,595.298L385.157,595.298L385.157,581.954C385.157,581.454 385.107,581.004 385.007,580.554C384.957,580.354 384.907,580.154 384.857,579.955C384.757,579.655 384.657,579.405 384.607,579.155C384.557,579.105 384.507,579.005 384.507,578.955C384.457,578.905 384.407,578.805 384.407,578.755L384.357,578.605C384.307,578.455 384.307,578.355 384.257,578.205L383.407,577.206L384.157,578.005C382.408,573.307 379.759,570.608 376.21,569.859L376.21,566.86L376.21,560.263L376.21,454.305L376.21,454.304ZM361.716,581.603C361.716,581.254 361.766,580.904 361.816,580.554C361.816,580.704 361.816,580.804 361.816,580.954C361.766,581.154 361.766,581.354 361.716,581.603Z" style="fill:rgb(120,63,46);fill-rule:nonzero;"/>
                <rect x="427.09" y="566.859" width="6.597" height="12.095" style="fill:rgb(1,0,40);fill-rule:nonzero;"/>
                <path d="M427.09,578.954L427.09,566.859L408.447,566.859L408.447,578.955L427.09,578.955L427.09,578.954Z" style="fill:rgb(153,153,153);fill-rule:nonzero;"/>
                <path d="M433.687,566.859L433.687,578.954L427.09,578.954L408.447,578.955L400.75,578.955L400.75,566.859L396.902,566.859L396.902,578.955L385.057,578.955L395.253,589.051C396.202,590 396.702,591.1 396.852,592.349L396.852,593.999C396.702,595.048 396.302,596.048 395.653,596.897C395.503,597.047 395.403,597.147 395.253,597.297L395.153,597.347C394.003,598.497 392.604,599.097 390.954,599.097C389.555,599.097 388.305,598.597 387.206,597.647L385.157,595.548L385.207,602.445C385.157,603.795 384.757,604.944 383.957,605.944C383.757,606.144 383.557,606.344 383.407,606.544C382.358,607.693 381.008,608.243 379.409,608.243L379.259,608.243C377.61,608.243 376.21,607.693 375.061,606.544C374.111,605.594 373.561,604.445 373.461,603.095C373.411,603.095 373.361,603.095 373.312,603.095C373.112,604.295 372.562,605.294 371.662,606.144C370.613,607.293 369.263,607.893 367.664,607.893L367.464,607.893C367.364,607.893 367.314,607.893 367.264,607.893L367.264,614.091L375.461,614.091L375.461,694.809L382.058,694.809L382.058,694.259L393.054,694.259L393.054,694.809L400.751,694.809L400.751,614.091L440.285,614.091L440.285,578.955L437.236,578.955L437.236,566.86L433.687,566.86L433.687,566.859Z" style="fill:rgb(136,188,236);fill-rule:nonzero;"/>
                <rect x="437.236" y="566.859" width="3.049" height="12.095" style="fill:rgb(1,0,40);fill-rule:nonzero;"/>
                <path d="M376.21,566.859L376.21,569.858C379.759,570.608 382.408,573.307 384.157,578.005L384.307,578.205L385.057,578.955L396.902,578.955L396.902,566.859L376.21,566.859Z" style="fill:rgb(1,0,40);fill-rule:nonzero;"/>
                <path d="M384.307,578.205L384.257,578.205C384.307,578.355 384.307,578.455 384.357,578.605L384.407,578.755C384.407,578.805 384.457,578.905 384.507,578.955C384.507,579.005 384.557,579.105 384.607,579.155L385.057,578.955L384.307,578.205Z" style="fill:rgb(108,39,34);fill-rule:nonzero;"/>
                <path d="M384.257,578.205L384.307,578.205L384.157,578.005L383.407,577.205L384.257,578.205Z" style="fill:rgb(234,152,133);fill-rule:nonzero;"/>
                <path d="M384.607,579.154C384.657,579.404 384.757,579.654 384.857,579.954C384.907,580.154 384.957,580.354 385.007,580.554C385.107,581.004 385.157,581.453 385.157,581.953L385.157,595.548L387.206,597.647C388.305,598.597 389.555,599.097 390.954,599.097C392.604,599.097 394.003,598.497 395.153,597.347L395.253,597.297C395.403,597.147 395.503,597.047 395.653,596.897C396.302,596.048 396.702,595.048 396.852,593.999L396.852,592.349C396.702,591.1 396.202,590 395.253,589.051L385.057,578.955L384.607,579.155L384.607,579.154Z" style="fill:rgb(103,43,33);fill-rule:nonzero;"/>
                <path d="M400.75,578.954L408.447,578.954L408.447,566.859L400.75,566.859L400.75,578.955L400.75,578.954Z" style="fill:rgb(1,0,40);fill-rule:nonzero;"/>
                <path d="M385.157,595.298L384.857,595.298C384.957,595.348 385.057,595.448 385.157,595.548L385.157,595.298Z" style="fill:rgb(136,188,236);fill-rule:nonzero;"/>
                <path d="M434.787,614.09L409.547,614.09L409.547,694.808L416.144,694.808L416.144,694.258L427.09,694.258L427.09,694.808L434.787,694.808L434.787,614.09Z" style="fill:rgb(94,147,223);fill-rule:nonzero;"/>
                <path d="M359.767,569.258L358.717,569.258L359.767,569.258Z" style="fill:rgb(165,109,72);fill-rule:nonzero;"/>
                <path d="M393.054,694.808L393.054,694.258L382.058,694.258L382.058,732.693L393.054,732.693L393.054,694.808Z" style="fill:rgb(120,63,46);fill-rule:nonzero;"/>
                <path d="M393.054,732.693L382.058,732.693L382.058,745.838L393.054,745.838L393.054,745.788L393.054,732.693Z" style="fill:rgb(234,234,234);fill-rule:nonzero;"/>
                <path d="M416.144,694.258L416.144,732.693L427.09,732.693L427.09,694.808L427.09,694.258L416.144,694.258Z" style="fill:rgb(103,43,33);fill-rule:nonzero;"/>
                <path d="M427.09,732.693L416.144,732.693L416.144,740.39C415.694,740.34 415.195,740.34 414.745,740.34C413.945,740.34 413.146,740.39 412.396,740.49C412.296,740.49 412.196,740.49 412.096,740.54C411.246,740.64 410.397,740.79 409.597,741.04C409.497,741.09 409.397,741.09 409.347,741.14C408.647,741.34 407.948,741.59 407.298,741.889C406.748,742.139 406.198,742.439 405.649,742.789C404.949,743.189 404.299,743.639 403.699,744.139C403.05,744.638 402.4,745.188 401.75,745.788L393.054,745.788L393.054,745.838L382.058,745.838L382.058,745.788L382.058,754.734L433.387,754.734C432.438,751.736 430.838,749.037 428.689,746.638C428.439,746.338 428.14,746.038 427.89,745.788C427.64,745.538 427.34,745.288 427.09,745.088L427.09,732.693Z" style="fill:rgb(204,204,204);fill-rule:nonzero;"/>
                <path d="M451.43,740.54C451.38,740.54 451.33,740.54 451.28,740.54C450.481,740.39 449.631,740.34 448.781,740.34C448.431,740.34 448.032,740.34 447.682,740.39C447.232,740.39 446.832,740.44 446.432,740.49C446.332,740.49 446.232,740.49 446.182,740.54C445.283,740.64 444.433,740.79 443.633,741.04L443.633,741.09L443.583,741.04C443.533,741.09 443.483,741.09 443.433,741.14C442.884,741.29 442.384,741.44 441.934,741.639C441.734,741.689 441.534,741.789 441.334,741.889C440.784,742.139 440.235,742.439 439.685,742.789C438.335,743.589 437.036,744.588 435.786,745.788L427.89,745.788C428.14,746.038 428.439,746.338 428.689,746.638C430.838,749.037 432.438,751.736 433.387,754.734L467.424,754.734C466.474,751.736 464.875,749.037 462.726,746.638C462.476,746.338 462.176,746.038 461.926,745.788C461.326,745.238 460.726,744.688 460.127,744.189C460.077,744.189 460.077,744.189 460.027,744.139C458.877,743.289 457.728,742.589 456.528,742.04C456.378,741.94 456.278,741.89 456.128,741.84C454.629,741.19 453.08,740.74 451.43,740.54Z" style="fill:rgb(149,149,149);fill-rule:nonzero;"/>
                <path d="M382.058,754.734L382.058,759.682L468.373,759.682C468.273,758.533 468.124,757.383 467.874,756.333C467.724,755.784 467.574,755.234 467.424,754.734L433.387,754.734L382.058,754.734Z" style="fill:rgb(204,51,0);fill-rule:nonzero;"/>
                <path d="M520.697,382.983L514.22,382.983C513.125,383.199 512.122,383.544 511.21,384.104C508.975,385.399 507.241,387.728 506.01,391.093L491.778,447.95C491.641,448.424 491.732,448.899 491.96,449.33C492.189,449.805 492.553,450.107 492.964,450.236C493.01,450.279 493.055,450.279 493.101,450.279L493.511,450.279C493.648,450.236 493.831,450.193 494.013,450.107C494.104,450.15 494.196,450.193 494.332,450.236C494.378,450.279 494.424,450.279 494.469,450.279L494.88,450.279C495.108,450.236 495.29,450.15 495.518,450.021C495.929,449.805 496.248,449.46 496.385,448.985L510.662,391.827C512.624,386.046 515.999,383.113 520.698,382.983L520.697,382.983Z" style="fill:rgb(115,115,117);fill-rule:nonzero;"/>
                <path d="M578.855,382.983L520.697,382.983C515.999,383.112 512.624,386.046 510.662,391.826L496.385,448.985C496.248,449.46 495.929,449.805 495.518,450.021C495.29,450.15 495.108,450.236 494.88,450.279L567.087,450.279C567.771,450.279 568.41,450.409 569.003,450.711C569.003,450.538 569.003,450.366 569.049,450.193L584.558,388.332C584.922,384.924 583.007,383.156 578.856,382.983L578.855,382.983ZM548.02,411.67C546.88,412.576 545.511,413.051 543.915,413.051C542.319,413.051 540.95,412.576 539.81,411.67C538.669,410.721 538.076,409.556 538.076,408.219C538.076,406.882 538.669,405.803 539.81,404.897C540.95,403.948 542.319,403.474 543.915,403.474C545.512,403.474 546.88,403.948 548.02,404.897C549.161,405.803 549.708,406.882 549.708,408.219C549.708,409.556 549.161,410.721 548.02,411.67Z" style="fill:rgb(36,35,77);fill-rule:nonzero;"/>
                <path d="M543.915,413.051C545.511,413.051 546.88,412.576 548.02,411.67C549.161,410.721 549.708,409.556 549.708,408.219C549.708,406.882 549.161,405.803 548.02,404.897C546.88,403.948 545.512,403.474 543.915,403.474C542.319,403.474 540.95,403.948 539.81,404.897C538.669,405.803 538.077,406.882 538.077,408.219C538.077,409.556 538.67,410.721 539.81,411.67C540.95,412.576 542.319,413.051 543.915,413.051Z" style="fill:rgb(204,204,204);fill-rule:nonzero;"/>
                <path d="M570.919,460.719C571.968,459.554 572.47,458.131 572.47,456.448L572.47,456.362C572.515,454.852 572.059,453.515 571.192,452.436C571.101,452.307 571.01,452.177 570.919,452.048C570.326,451.401 569.687,450.97 569.003,450.711C568.41,450.409 567.771,450.279 567.087,450.279L494.88,450.279L494.469,450.279L493.511,450.279L493.101,450.279L489.725,450.279C489.269,450.279 488.813,450.279 488.403,450.323C489.589,450.495 490.638,451.056 491.55,452.048C492.599,453.213 493.101,454.68 493.101,456.362L493.101,456.448C493.101,458.131 492.599,459.554 491.55,460.719C490.775,461.539 489.908,462.056 488.95,462.315L568.319,462.315C569.277,462.1 570.144,461.539 570.919,460.719Z" style="fill:rgb(22,15,66);fill-rule:nonzero;"/>
                <path d="M428.374,450.279C426.869,450.279 425.592,450.883 424.542,452.048C423.493,453.213 422.992,454.68 422.992,456.362L422.992,456.448C422.992,458.131 423.493,459.554 424.542,460.719C425.318,461.539 426.185,462.099 427.142,462.315L488.95,462.315C489.908,462.056 490.774,461.539 491.55,460.719C492.599,459.554 493.101,458.131 493.101,456.448L493.101,456.362C493.101,454.68 492.599,453.213 491.55,452.048C490.638,451.056 489.589,450.495 488.403,450.323C488.175,450.28 487.992,450.28 487.764,450.28C487.718,450.28 487.718,450.28 487.673,450.28L428.374,450.28L428.374,450.279Z" style="fill:rgb(115,115,117);fill-rule:nonzero;"/>
                <path d="M493.511,450.279L494.469,450.279C494.424,450.279 494.378,450.279 494.332,450.236C494.195,450.193 494.104,450.15 494.013,450.107C493.831,450.193 493.648,450.236 493.511,450.279Z" style="fill:rgb(36,35,77);fill-rule:nonzero;"/>
                <path d="M528.843,448.48C525.205,445.319 520.911,443.709 515.842,443.709C510.773,443.709 506.419,445.319 502.781,448.48C499.203,451.64 497.414,455.517 497.414,459.99L497.414,460.109C497.414,460.467 497.414,460.825 497.474,461.123L490.198,461.123L480.059,476.688L520.613,476.688C528.903,476.688 533.077,473.05 533.077,465.715L533.137,465.715C533.853,463.926 534.21,462.017 534.21,459.99C534.21,455.517 532.421,451.64 528.843,448.48Z" style="fill:rgb(120,63,46);fill-rule:nonzero;"/>
                <path d="M444.933,476.688L480.059,476.688L490.198,461.123L444.933,461.123L444.933,476.688Z" style="fill:rgb(103,43,33);fill-rule:nonzero;"/>
            </g>
        </g>
    </g>
</svg>
