<?xml version="1.0" encoding="UTF-8" standalone="no"?>
<!DOCTYPE svg PUBLIC "-//W3C//DTD SVG 1.1//EN" "http://www.w3.org/Graphics/SVG/1.1/DTD/svg11.dtd">
<svg width="100%" height="100%" viewBox="0 0 116 489" version="1.1" xmlns="http://www.w3.org/2000/svg" xmlns:xlink="http://www.w3.org/1999/xlink" xml:space="preserve" style="fill-rule:evenodd;clip-rule:evenodd;stroke-linejoin:round;stroke-miterlimit:1.41421;">
    <g transform="matrix(1,0,0,1,-4114,-51)">
        <g transform="matrix(1,0,0,1,0,-162)">
            <g id="Youth-Mentor-Male-1" transform="matrix(1,0,0,1,3513.3,-58.0595)">
                <path d="M614.715,318.459C612.166,318.459 610.017,319.358 608.268,321.158C606.468,322.907 605.569,325.056 605.569,327.605C605.569,330.154 606.468,332.303 608.268,334.052C610.017,335.852 612.166,336.751 614.715,336.751C615.365,336.751 616.015,336.701 616.614,336.551L616.614,318.659C616.015,318.509 615.365,318.459 614.715,318.459Z" style="fill:rgb(103,43,33);fill-rule:nonzero;"/>
                <path d="M658.397,271.677C658.247,271.677 658.048,271.677 657.898,271.677L652.4,271.677C642.504,271.627 634.057,275.126 627.11,282.123C620.413,288.771 616.914,296.767 616.664,306.114L624.761,306.114L624.761,295.868L684.287,295.868L684.287,305.714L693.583,305.714C693.233,296.567 689.735,288.671 683.187,282.123C676.34,275.276 668.043,271.777 658.397,271.677Z" style="fill:rgb(31,31,31);fill-rule:nonzero;"/>
                <path d="M624.761,295.868L624.761,306.114L616.664,306.114C616.614,306.513 616.614,306.963 616.614,307.413L616.614,341.45C616.614,351.296 620.113,359.742 627.11,366.739C630.808,370.388 634.907,373.087 639.455,374.836C643.403,376.386 647.752,377.135 652.4,377.185L658.397,377.185C663.645,377.135 668.493,376.036 672.942,373.987C676.64,372.237 680.039,369.838 683.187,366.739C690.135,359.742 693.633,351.296 693.683,341.45L693.683,336.552L693.683,318.659L693.683,307.413C693.633,306.814 693.633,306.264 693.583,305.714L684.287,305.714L684.287,295.868L624.761,295.868ZM648.002,319.258C648.451,319.758 648.651,320.358 648.601,321.008C648.551,321.657 648.301,322.157 647.802,322.607C647.352,323.057 646.752,323.257 646.102,323.207C645.453,323.207 644.903,322.957 644.503,322.457C644.053,321.957 643.853,321.358 643.903,320.708C643.903,320.058 644.153,319.558 644.653,319.108C645.103,318.659 645.702,318.459 646.352,318.459C647.002,318.509 647.552,318.809 648.002,319.258ZM652.95,321.907C652.9,320.958 653.249,320.158 653.949,319.508C654.599,318.809 655.449,318.459 656.398,318.509C657.148,318.509 657.848,318.759 658.397,319.208C658.547,319.258 658.647,319.358 658.797,319.508C659.447,320.158 659.797,320.958 659.797,321.907L659.797,327.705C659.797,328.655 659.447,329.504 658.797,330.154C658.647,330.254 658.547,330.354 658.397,330.454C657.848,330.904 657.148,331.154 656.398,331.154C655.449,331.154 654.599,330.804 653.949,330.154C653.25,329.504 652.9,328.655 652.95,327.705L652.95,321.907ZM667.844,321.507C667.794,322.157 667.544,322.707 667.094,323.157C666.594,323.607 665.994,323.757 665.295,323.707C664.645,323.707 664.145,323.457 663.695,323.007C663.246,322.507 663.046,321.907 663.096,321.258C663.146,320.608 663.395,320.058 663.845,319.658C664.295,319.208 664.845,318.959 665.495,319.009C666.144,319.059 666.744,319.308 667.194,319.808C667.644,320.258 667.844,320.858 667.844,321.508L667.844,321.507ZM666.544,355.444C664.095,357.093 661.396,358.143 658.397,358.543C657.448,358.693 656.498,358.743 655.549,358.743C651.95,358.743 648.701,357.943 645.852,356.344C644.503,355.544 643.203,354.594 642.004,353.445C639.755,351.346 638.205,348.997 637.356,346.348C636.806,344.598 636.506,342.799 636.506,340.9C636.506,340.45 636.506,340 636.556,339.6L674.541,339.6C674.591,340 674.591,340.45 674.591,340.9C674.591,342.799 674.291,344.598 673.741,346.348C672.842,348.997 671.242,351.346 668.993,353.445C668.244,354.195 667.394,354.844 666.544,355.444Z" style="fill:rgb(120,63,46);fill-rule:nonzero;"/>
                <path d="M648.601,321.008C648.651,320.358 648.451,319.758 648.002,319.258C647.552,318.809 647.002,318.509 646.352,318.459C645.702,318.459 645.103,318.659 644.653,319.108C644.153,319.558 643.903,320.058 643.903,320.708C643.853,321.358 644.053,321.957 644.503,322.457C644.903,322.957 645.453,323.207 646.102,323.207C646.752,323.257 647.352,323.057 647.802,322.607C648.301,322.157 648.551,321.658 648.601,321.008Z" style="fill-rule:nonzero;"/>
                <path d="M653.949,319.508C653.249,320.158 652.9,320.958 652.95,321.907L652.95,327.705C652.9,328.655 653.249,329.504 653.949,330.154C654.599,330.804 655.449,331.154 656.398,331.154C657.148,331.154 657.848,330.904 658.397,330.454C658.547,330.354 658.647,330.254 658.797,330.154C659.447,329.504 659.797,328.655 659.797,327.705L659.797,321.907C659.797,320.958 659.447,320.158 658.797,319.508C658.647,319.358 658.547,319.258 658.397,319.208C657.848,318.759 657.148,318.509 656.398,318.509C655.449,318.459 654.599,318.809 653.949,319.508Z" style="fill:rgb(90,34,29);fill-rule:nonzero;"/>
                <path d="M667.094,323.157C667.544,322.707 667.794,322.157 667.844,321.507C667.844,320.858 667.644,320.258 667.194,319.808C666.744,319.308 666.144,319.058 665.495,319.008C664.845,318.959 664.295,319.208 663.845,319.658C663.395,320.058 663.146,320.608 663.096,321.258C663.046,321.907 663.245,322.507 663.695,323.007C664.145,323.457 664.645,323.707 665.295,323.707C665.994,323.757 666.594,323.607 667.094,323.157Z" style="fill-rule:nonzero;"/>
                <path d="M663.945,351.995C665.195,353.045 666.044,354.194 666.544,355.444C667.394,354.844 668.244,354.194 668.993,353.445C671.242,351.346 672.842,348.997 673.741,346.348L637.356,346.348C638.206,348.997 639.755,351.346 642.004,353.445C643.204,354.594 644.503,355.544 645.853,356.344C646.302,354.694 647.252,353.245 648.751,351.995C650.9,350.246 653.449,349.396 656.398,349.446C657.048,349.446 657.748,349.496 658.397,349.596C660.497,349.896 662.346,350.696 663.945,351.995Z" style="fill:rgb(79,32,32);fill-rule:nonzero;"/>
                <path d="M666.544,355.444C666.044,354.194 665.195,353.045 663.945,351.995C662.346,350.696 660.497,349.896 658.397,349.596C657.748,349.496 657.048,349.446 656.398,349.446C653.449,349.396 650.9,350.246 648.751,351.995C647.252,353.245 646.302,354.694 645.852,356.344C648.701,357.943 651.95,358.743 655.549,358.743C656.498,358.743 657.448,358.693 658.397,358.543C661.396,358.143 664.095,357.093 666.544,355.444Z" style="fill:rgb(255,153,153);fill-rule:nonzero;"/>
                <path d="M673.741,346.348C674.291,344.598 674.591,342.799 674.591,340.9C674.591,340.45 674.591,340 674.541,339.6L636.556,339.6C636.506,340 636.506,340.45 636.506,340.9C636.506,342.799 636.806,344.598 637.356,346.348L673.741,346.348Z" style="fill:white;fill-rule:nonzero;"/>
                <path d="M693.683,318.659L693.683,336.551C694.283,336.701 694.933,336.751 695.583,336.751C696.232,336.751 696.882,336.701 697.482,336.551C698.032,336.452 698.531,336.302 699.031,336.102C700.131,335.652 701.13,334.952 702.03,334.052C703.829,332.303 704.729,330.154 704.729,327.605C704.729,325.056 703.829,322.907 702.03,321.158C701.13,320.258 700.131,319.558 699.031,319.108C698.531,318.909 698.032,318.759 697.482,318.659C696.882,318.509 696.232,318.459 695.583,318.459C694.933,318.459 694.283,318.509 693.683,318.659Z" style="fill:rgb(103,43,33);fill-rule:nonzero;"/>
                <path d="M672.942,382.933L670.742,382.933L670.742,403.775L681.738,403.775L681.738,382.933L672.942,382.933Z" style="fill:rgb(108,125,29);fill-rule:nonzero;"/>
                <path d="M670.742,382.933L672.942,382.933L672.942,373.986C668.493,376.036 663.645,377.135 658.397,377.185C658.247,377.185 658.048,377.185 657.898,377.185L652.4,377.185C647.752,377.135 643.403,376.386 639.455,374.836L639.455,382.933L670.743,382.933L670.742,382.933Z" style="fill:rgb(103,43,33);fill-rule:nonzero;"/>
                <path d="M670.742,382.933L665.295,382.933L665.295,403.775L670.743,403.775L670.743,382.933L670.742,382.933Z" style="fill:rgb(74,87,23);fill-rule:nonzero;"/>
                <path d="M639.455,382.933L628.759,382.933L628.759,403.775L665.295,403.775L665.295,382.933L639.455,382.933Z" style="fill:rgb(108,125,29);fill-rule:nonzero;"/>
                <path d="M628.759,403.775L627.56,403.775L627.56,560.262L665.295,560.262L665.295,426.466C664.595,426.116 663.995,425.666 663.445,425.016C662.996,424.566 662.646,424.067 662.396,423.567C662.096,423.017 661.896,422.417 661.796,421.817C661.746,421.418 661.696,421.018 661.696,420.618L661.846,410.372C661.796,410.272 661.796,410.172 661.796,410.072C661.846,409.822 661.846,409.622 661.896,409.422C661.996,408.773 662.196,408.223 662.496,407.673C662.646,407.423 662.796,407.123 662.996,406.874L662.996,406.824C663.196,406.574 663.396,406.274 663.645,406.024C664.145,405.574 664.695,405.174 665.295,404.924C666.094,404.575 666.994,404.425 667.944,404.475C668.993,404.525 669.893,404.774 670.743,405.224C671.292,405.524 671.792,405.924 672.292,406.374C672.542,406.674 672.792,406.974 672.992,407.323C673.741,408.373 674.091,409.523 674.091,410.822L673.941,421.118C673.891,422.817 673.242,424.217 672.092,425.366C671.642,425.766 671.192,426.116 670.743,426.366L670.743,560.262L697.132,560.262L697.132,429.465C697.082,428.415 697.032,427.365 696.932,426.366L696.932,426.266C696.482,419.619 693.683,413.621 688.535,408.223C686.586,406.474 684.337,404.974 681.738,403.775L670.743,403.775L665.295,403.775L628.759,403.775ZM653.799,404.724C653.549,404.774 653.349,404.824 653.199,404.924L653.199,404.624L653.799,404.724ZM632.858,523.227C632.858,522.277 633.207,521.428 633.907,520.778C634.557,520.128 635.357,519.778 636.306,519.828L655.798,519.828C656.748,519.778 657.598,520.128 658.247,520.778C658.897,521.428 659.197,522.277 659.197,523.227L659.197,523.277C659.197,524.227 658.897,525.026 658.247,525.676C657.598,526.326 656.748,526.626 655.798,526.676L636.306,526.676C635.357,526.626 634.557,526.326 633.907,525.676C633.207,525.026 632.858,524.227 632.858,523.277L632.858,523.227Z" style="fill:rgb(152,172,87);fill-rule:nonzero;"/>
                <path d="M653.199,404.924C653.349,404.824 653.549,404.774 653.799,404.724L653.199,404.624L653.199,404.924Z" style="fill:rgb(109,129,34);fill-rule:nonzero;"/>
                <path d="M633.907,520.778C633.207,521.428 632.858,522.277 632.858,523.227L632.858,523.277C632.858,524.226 633.207,525.026 633.907,525.676C634.557,526.326 635.357,526.625 636.306,526.675L655.798,526.675C656.748,526.626 657.598,526.326 658.247,525.676C658.897,525.026 659.197,524.227 659.197,523.277L659.197,523.227C659.197,522.277 658.897,521.428 658.247,520.778C657.598,520.128 656.748,519.778 655.798,519.828L636.306,519.828C635.357,519.778 634.557,520.128 633.907,520.778Z" style="fill:rgb(109,129,34);fill-rule:nonzero;"/>
                <path d="M627.56,403.775L626.96,403.775C623.611,403.825 620.862,404.424 618.613,405.524C613.615,407.923 611.116,412.821 611.116,420.168L611.116,454.304L627.56,454.304L627.56,403.775Z" style="fill:rgb(15,21,28);fill-rule:nonzero;"/>
                <path d="M665.295,404.924C664.695,405.174 664.145,405.574 663.645,406.024C663.395,406.274 663.196,406.573 662.996,406.823L662.996,406.873C662.796,407.123 662.646,407.423 662.496,407.673C662.196,408.223 661.996,408.773 661.896,409.422C661.846,409.622 661.846,409.822 661.796,410.072C661.796,410.172 661.796,410.272 661.846,410.372L661.696,420.618C661.696,421.018 661.746,421.418 661.796,421.817C661.896,422.417 662.096,423.017 662.396,423.567C662.646,424.067 662.996,424.566 663.445,425.016C663.995,425.666 664.595,426.116 665.295,426.466C665.994,426.815 666.794,427.065 667.694,427.115C667.744,427.115 667.844,427.115 667.994,427.115C668.044,427.065 668.144,427.065 668.194,427.065C669.093,427.015 669.943,426.816 670.743,426.366C671.192,426.116 671.642,425.766 672.092,425.366C673.242,424.217 673.891,422.817 673.941,421.118L674.091,410.822C674.091,409.522 673.741,408.373 672.992,407.323C672.792,406.974 672.542,406.674 672.292,406.374C671.792,405.924 671.292,405.524 670.743,405.224C669.893,404.774 668.993,404.525 667.944,404.475C666.994,404.425 666.094,404.575 665.295,404.924ZM665.295,413.021C665.045,412.571 664.895,412.071 664.895,411.521L664.845,411.421C664.895,410.872 665.045,410.422 665.295,410.022C665.395,409.822 665.545,409.622 665.745,409.422C666.244,408.873 666.944,408.573 667.794,408.623L667.794,408.723C668.643,408.723 669.343,409.022 669.993,409.622C670.543,410.172 670.793,410.872 670.743,411.671L670.743,411.721L670.793,411.721C670.743,411.821 670.743,411.921 670.743,412.071C670.693,412.721 670.393,413.321 669.943,413.771C669.293,414.32 668.593,414.57 667.794,414.52L667.694,414.57C666.894,414.52 666.244,414.221 665.745,413.621C665.545,413.421 665.395,413.221 665.295,413.021Z" style="fill:white;fill-rule:nonzero;"/>
                <path d="M664.895,411.521C664.895,412.071 665.045,412.571 665.295,413.021L665.295,410.022C665.045,410.422 664.895,410.872 664.845,411.421L664.895,411.521Z" style="fill:rgb(152,172,87);fill-rule:nonzero;"/>
                <path d="M665.744,409.422C665.545,409.622 665.395,409.822 665.295,410.022L665.295,413.021C665.395,413.221 665.545,413.421 665.745,413.621C666.244,414.22 666.894,414.52 667.694,414.57L667.794,414.52C668.593,414.57 669.293,414.32 669.943,413.771C670.393,413.321 670.693,412.721 670.743,412.071L670.743,411.721L670.743,411.671C670.793,410.872 670.543,410.172 669.993,409.622C669.343,409.023 668.643,408.723 667.794,408.723L667.794,408.623C666.944,408.573 666.244,408.873 665.745,409.422L665.744,409.422Z" style="fill:rgb(109,129,34);fill-rule:nonzero;"/>
                <path d="M670.792,411.721L670.742,411.721L670.742,412.071C670.742,411.921 670.742,411.821 670.792,411.721Z" style="fill:rgb(152,172,87);fill-rule:nonzero;"/>
                <path d="M667.994,427.115C667.844,427.115 667.744,427.115 667.694,427.115C666.794,427.065 665.994,426.815 665.295,426.466L665.295,560.262L627.56,560.262L627.56,566.859L697.232,566.859C697.882,566.809 698.481,566.609 699.031,566.21C699.181,566.11 699.281,566.01 699.431,565.86C700.081,565.21 700.381,564.46 700.431,563.561C700.381,562.661 700.081,561.861 699.431,561.212C699.281,561.062 699.181,560.962 699.031,560.862C698.481,560.412 697.882,560.212 697.132,560.262L670.742,560.262L670.742,426.366C669.943,426.815 669.093,427.015 668.193,427.065C668.143,427.065 668.044,427.065 667.994,427.115Z" style="fill:rgb(109,129,34);fill-rule:nonzero;"/>
                <path d="M696.932,426.366L696.932,426.266L696.932,426.366Z" style="fill:rgb(120,63,46);fill-rule:nonzero;"/>
                <path d="M610.067,569.258L611.116,569.258L610.067,569.258Z" style="fill:rgb(165,109,72);fill-rule:nonzero;"/>
                <path d="M611.116,569.258C607.968,570.208 605.668,571.407 604.269,572.857C603.469,573.657 602.87,574.556 602.42,575.606C602.32,576.056 602.22,576.555 602.12,577.005C601.87,578.055 601.67,579.154 601.47,580.204C601.47,580.254 601.47,580.354 601.47,580.404C601.42,580.554 601.42,580.754 601.47,580.954L601.42,601.396C601.42,602.445 601.67,603.395 602.12,604.245C602.37,604.694 602.67,605.094 603.069,605.494C603.419,605.894 603.819,606.244 604.269,606.494C605.119,606.993 606.118,607.243 607.218,607.293L607.418,607.293C609.017,607.243 610.367,606.644 611.416,605.494C612.266,604.644 612.816,603.695 613.066,602.595C613.016,602.445 613.016,602.245 613.016,602.095C613.066,602.095 613.116,602.095 613.166,602.145C613.116,602.295 613.116,602.445 613.066,602.595C613.166,603.995 613.715,605.194 614.665,606.144C615.764,607.243 617.064,607.843 618.613,607.893L619.013,607.893C620.612,607.893 621.962,607.293 623.011,606.144C623.961,605.294 624.511,604.295 624.711,603.095C624.761,603.095 624.761,603.095 624.811,603.095C624.911,604.445 625.46,605.594 626.41,606.544C627.56,607.693 628.959,608.243 630.608,608.243L630.758,608.243C632.358,608.243 633.707,607.693 634.757,606.544C634.907,606.344 635.107,606.144 635.307,605.944C636.106,604.944 636.506,603.795 636.556,602.445L636.506,595.548C636.406,595.448 636.306,595.348 636.206,595.298L636.506,595.298L636.506,581.954C636.506,581.454 636.456,581.004 636.356,580.554C636.306,580.354 636.256,580.154 636.206,579.955C636.106,579.655 636.006,579.405 635.956,579.155C635.906,579.105 635.856,579.005 635.856,578.955C635.806,578.905 635.756,578.805 635.756,578.755L635.706,578.605C635.656,578.455 635.656,578.355 635.606,578.205L634.757,577.206L635.507,578.005C633.757,573.307 631.108,570.608 627.56,569.859L627.56,566.86L627.56,560.263L627.56,454.305L611.116,454.305L611.116,569.259L611.116,569.258ZM613.066,581.603C613.066,581.254 613.116,580.904 613.166,580.554C613.166,580.704 613.166,580.804 613.166,580.954C613.116,581.154 613.116,581.354 613.066,581.603Z" style="fill:rgb(120,63,46);fill-rule:nonzero;"/>
                <path d="M659.797,578.954L659.797,566.859L652.1,566.859L652.1,578.955L659.797,578.955L659.797,578.954Z" style="fill:rgb(1,0,40);fill-rule:nonzero;"/>
                <rect x="659.797" y="566.859" width="18.642" height="12.095" style="fill:rgb(153,153,153);fill-rule:nonzero;"/>
                <rect x="688.585" y="566.859" width="3.049" height="12.095" style="fill:rgb(1,0,40);fill-rule:nonzero;"/>
                <rect x="678.439" y="566.859" width="6.598" height="12.095" style="fill:rgb(1,0,40);fill-rule:nonzero;"/>
                <path d="M685.037,578.954L678.439,578.954L659.797,578.955L652.1,578.955L652.1,566.859L648.252,566.859L648.252,578.955L636.406,578.955L646.602,589.051C647.552,590 648.052,591.1 648.202,592.349L648.202,593.999C648.052,595.048 647.652,596.048 647.002,596.897C646.852,597.047 646.752,597.147 646.602,597.297L646.502,597.347C645.353,598.497 643.953,599.097 642.304,599.097C640.905,599.097 639.655,598.597 638.556,597.647L636.506,595.548L636.556,602.445C636.506,603.795 636.107,604.944 635.307,605.944C635.107,606.144 634.907,606.344 634.757,606.544C633.707,607.693 632.358,608.243 630.759,608.243L630.609,608.243C628.959,608.243 627.56,607.693 626.41,606.544C625.461,605.594 624.911,604.445 624.811,603.095C624.761,603.095 624.761,603.095 624.711,603.095C624.511,604.295 623.961,605.294 623.012,606.144C621.962,607.293 620.613,607.893 619.013,607.893L618.813,607.893C618.713,607.893 618.663,607.893 618.614,607.893L618.614,614.091L626.81,614.091L626.81,694.809L633.408,694.809L633.408,694.259L644.403,694.259L644.403,694.809L652.1,694.809L652.1,614.091L691.634,614.091L691.634,578.955L688.586,578.955L688.586,566.86L685.037,566.86L685.037,578.955L685.037,578.954Z" style="fill:rgb(136,188,236);fill-rule:nonzero;"/>
                <path d="M627.56,566.859L627.56,569.858C631.108,570.608 633.757,573.307 635.507,578.005L635.657,578.205L636.406,578.955L648.252,578.955L648.252,566.859L627.56,566.859Z" style="fill:rgb(1,0,40);fill-rule:nonzero;"/>
                <path d="M635.657,578.205L635.607,578.205C635.657,578.355 635.657,578.455 635.706,578.605L635.756,578.755C635.756,578.805 635.806,578.905 635.856,578.955C635.856,579.005 635.906,579.105 635.956,579.155L636.406,578.955L635.657,578.205Z" style="fill:rgb(108,39,34);fill-rule:nonzero;"/>
                <path d="M635.607,578.205L635.657,578.205L635.507,578.005L634.757,577.205L635.607,578.205Z" style="fill:rgb(234,152,133);fill-rule:nonzero;"/>
                <path d="M635.956,579.154C636.006,579.404 636.106,579.654 636.206,579.954C636.256,580.154 636.306,580.354 636.356,580.554C636.456,581.004 636.506,581.453 636.506,581.953L636.506,595.548L638.555,597.647C639.655,598.597 640.904,599.097 642.304,599.097C643.953,599.097 645.353,598.497 646.502,597.347L646.602,597.297C646.752,597.147 646.852,597.047 647.002,596.897C647.652,596.048 648.052,595.048 648.202,593.999L648.202,592.349C648.052,591.1 647.552,590 646.602,589.051L636.406,578.955L635.957,579.155L635.956,579.154Z" style="fill:rgb(103,43,33);fill-rule:nonzero;"/>
                <path d="M636.506,595.548L636.506,595.298L636.206,595.298C636.306,595.348 636.406,595.448 636.506,595.548Z" style="fill:rgb(136,188,236);fill-rule:nonzero;"/>
                <path d="M686.136,614.09L660.896,614.09L660.896,694.808L667.494,694.808L667.494,694.258L678.439,694.258L678.439,694.808L686.136,694.808L686.136,614.09Z" style="fill:rgb(94,147,223);fill-rule:nonzero;"/>
                <path d="M644.403,694.808L644.403,694.258L633.407,694.258L633.407,732.693L644.403,732.693L644.403,694.808Z" style="fill:rgb(120,63,46);fill-rule:nonzero;"/>
                <path d="M644.403,732.693L633.407,732.693L633.407,745.838L644.403,745.838L644.403,745.788L644.403,732.693Z" style="fill:rgb(234,234,234);fill-rule:nonzero;"/>
                <path d="M678.439,694.808L678.439,694.258L667.494,694.258L667.494,732.693L678.439,732.693L678.439,694.808Z" style="fill:rgb(103,43,33);fill-rule:nonzero;"/>
                <path d="M678.439,732.693L667.494,732.693L667.494,740.39C667.044,740.34 666.544,740.34 666.094,740.34C665.295,740.34 664.495,740.39 663.745,740.49C663.645,740.49 663.545,740.49 663.445,740.54C662.596,740.64 661.746,740.79 660.946,741.04C660.846,741.09 660.747,741.09 660.697,741.14C659.997,741.34 659.297,741.59 658.647,741.889C658.098,742.139 657.548,742.439 656.998,742.789C656.348,743.189 655.699,743.639 655.049,744.139C654.399,744.638 653.749,745.188 653.1,745.788L644.403,745.788L644.403,745.838L633.407,745.838L633.407,745.788L633.407,754.734L684.737,754.734C683.787,751.736 682.188,749.037 680.039,746.638C679.789,746.338 679.489,746.038 679.239,745.788C678.989,745.538 678.689,745.288 678.439,745.088L678.439,732.693Z" style="fill:rgb(204,204,204);fill-rule:nonzero;"/>
                <path d="M714.075,746.637C713.825,746.338 713.525,746.038 713.275,745.788C712.676,745.238 712.076,744.688 711.476,744.188C711.426,744.188 711.426,744.188 711.376,744.138C710.227,743.289 709.077,742.589 707.878,742.039C707.728,741.939 707.628,741.889 707.478,741.839C705.978,741.19 704.429,740.74 702.78,740.54C702.73,740.54 702.68,740.54 702.63,740.54C701.83,740.39 700.98,740.34 700.131,740.34C699.781,740.34 699.381,740.34 699.031,740.39C698.581,740.39 698.182,740.44 697.782,740.49C697.682,740.49 697.582,740.49 697.532,740.54C696.632,740.64 695.782,740.79 694.983,741.04L694.983,741.09L694.933,741.04C694.883,741.09 694.833,741.09 694.783,741.14C694.233,741.29 693.733,741.44 693.284,741.64C693.084,741.69 692.884,741.79 692.684,741.89C692.134,742.139 691.584,742.439 691.034,742.789C689.685,743.589 688.385,744.588 687.136,745.788L679.239,745.788C679.489,746.038 679.789,746.338 680.039,746.638C682.188,749.037 683.787,751.736 684.737,754.734L715.775,754.734L715.775,748.737C715.225,747.987 714.675,747.287 714.075,746.638L714.075,746.637Z" style="fill:rgb(149,149,149);fill-rule:nonzero;"/>
                <path d="M715.774,759.682L715.774,754.734L684.737,754.734L633.407,754.734L633.407,759.682L715.774,759.682Z" style="fill:rgb(204,51,0);fill-rule:nonzero;"/>
            </g>
        </g>
    </g>
</svg>
