<?xml version="1.0" encoding="UTF-8" standalone="no"?>
<!DOCTYPE svg PUBLIC "-//W3C//DTD SVG 1.1//EN" "http://www.w3.org/Graphics/SVG/1.1/DTD/svg11.dtd">
<svg width="100%" height="100%" viewBox="0 0 123 459" version="1.1" xmlns="http://www.w3.org/2000/svg" xmlns:xlink="http://www.w3.org/1999/xlink" xml:space="preserve" style="fill-rule:evenodd;clip-rule:evenodd;stroke-linejoin:round;stroke-miterlimit:1.41421;">
    <g transform="matrix(1,0,0,1,-3469,-81)">
        <g transform="matrix(1,0,0,1,0,-162)">
            <g id="Youth-Mentor-Female-2" transform="matrix(1,0,0,1,2882.73,-58.4595)">
                <path d="M606.668,312.311C597.222,319.258 592.524,327.605 592.574,337.451L592.574,362.091C594.473,360.842 596.622,360.192 599.071,360.242C599.371,360.192 599.671,360.192 599.971,360.242L599.971,384.632C599.671,384.632 599.371,384.632 599.071,384.632C596.622,384.632 594.473,384.033 592.574,382.783L592.574,420.118C603.919,419.468 611.016,413.621 613.815,402.525C614.165,400.726 614.415,398.827 614.515,396.827L614.515,351.945C614.465,351.796 614.365,351.196 614.315,350.246C625.211,350.246 636.106,350.246 647.052,350.246L654.499,337.701L654.499,350.246C664.095,350.246 673.691,350.246 683.288,350.246C683.288,350.596 683.288,350.996 683.338,351.346L683.338,381.084C683.288,381.634 683.288,382.133 683.288,382.683C682.938,391.43 679.939,399.077 674.191,405.624L674.191,422.367C683.637,418.919 688.585,411.122 689.135,399.077L689.035,337.451C689.035,327.605 684.337,319.259 674.941,312.312C665.495,305.364 654.149,301.916 640.805,301.916C627.46,301.916 616.114,305.364 606.668,312.312L606.668,312.311ZM607.118,350.546C607.068,350.446 607.068,350.346 607.068,350.246C607.168,350.246 607.268,350.246 607.368,350.246L607.118,350.546Z" style="fill-rule:nonzero;"/>
                <path d="M607.068,350.246C607.068,350.346 607.068,350.446 607.118,350.546L607.368,350.246C607.268,350.246 607.168,350.246 607.068,350.246Z" style="fill:rgb(255,204,153);fill-rule:nonzero;"/>
                <path d="M683.337,356.344L683.337,351.745L683.337,351.346C683.287,350.996 683.287,350.596 683.287,350.246C673.691,350.246 664.095,350.246 654.499,350.246L654.499,337.701L647.052,350.246C636.106,350.246 625.211,350.246 614.315,350.246C614.365,351.196 614.465,351.795 614.515,351.945L614.515,396.827C614.415,398.827 614.165,400.726 613.815,402.525C615.215,404.324 616.764,406.074 618.513,407.823C619.013,408.323 619.513,408.823 620.013,409.322C621.662,410.772 623.311,412.021 625.061,413.171C625.561,413.521 626.11,413.821 626.66,414.121C628.509,415.17 630.409,416.07 632.358,416.82C632.808,416.969 633.307,417.169 633.807,417.319C637.456,418.419 641.304,418.969 645.353,418.969C647.802,418.969 650.101,418.769 652.35,418.369C652.7,418.319 653.1,418.219 653.449,418.169C653.899,418.069 654.399,417.969 654.849,417.869C661.296,416.27 667.094,412.921 672.142,407.823C672.842,407.074 673.541,406.374 674.191,405.624C679.939,399.077 682.938,391.43 683.287,382.683C683.287,382.134 683.287,381.634 683.337,381.084L683.337,356.344ZM667.194,371.088C667.194,371.438 667.044,371.737 666.794,371.987C666.544,372.287 666.244,372.437 665.894,372.487L658.847,372.487C658.497,372.437 658.147,372.287 657.848,371.987C657.598,371.737 657.448,371.438 657.498,371.088C657.448,370.738 657.598,370.388 657.848,370.138C658.148,369.888 658.497,369.738 658.847,369.788L665.894,369.788C666.244,369.738 666.544,369.888 666.794,370.138C667.044,370.388 667.194,370.738 667.194,371.088ZM634.107,371.987C633.857,371.737 633.707,371.438 633.707,371.088C633.707,370.738 633.857,370.388 634.107,370.138C634.357,369.888 634.707,369.738 635.057,369.788L642.104,369.788C642.454,369.738 642.804,369.888 643.054,370.138C643.303,370.388 643.453,370.738 643.453,371.088C643.453,371.438 643.303,371.738 643.054,371.987C642.804,372.287 642.454,372.437 642.104,372.487L635.057,372.487C634.707,372.437 634.357,372.287 634.107,371.987ZM648.851,371.487C648.801,370.538 649.151,369.738 649.801,369.088C650.451,368.439 651.25,368.089 652.2,368.089C653.15,368.089 653.899,368.439 654.549,369.089C655.199,369.738 655.549,370.538 655.599,371.488L655.599,377.185C655.549,378.135 655.199,378.935 654.549,379.584C653.899,380.234 653.149,380.534 652.2,380.534C651.25,380.534 650.451,380.234 649.801,379.584C649.151,378.935 648.801,378.135 648.851,377.185L648.851,371.488L648.851,371.487ZM647.052,397.977C642.804,397.927 639.205,396.428 636.156,393.429C633.657,390.88 632.208,387.981 631.758,384.632L662.396,384.632C661.946,387.981 660.497,390.88 657.998,393.429C654.949,396.428 651.3,397.927 647.052,397.977Z" style="fill:rgb(255,203,153);fill-rule:nonzero;"/>
                <path d="M666.794,371.987C667.044,371.737 667.194,371.438 667.194,371.088C667.194,370.738 667.044,370.388 666.794,370.138C666.544,369.888 666.244,369.738 665.894,369.788L658.847,369.788C658.497,369.738 658.147,369.888 657.848,370.138C657.598,370.388 657.448,370.738 657.498,371.088C657.448,371.438 657.598,371.738 657.848,371.987C658.148,372.287 658.497,372.437 658.847,372.487L665.894,372.487C666.244,372.437 666.544,372.287 666.794,371.987Z" style="fill:rgb(75,28,2);fill-rule:nonzero;"/>
                <path d="M633.707,371.088C633.707,371.438 633.857,371.737 634.107,371.987C634.357,372.287 634.707,372.437 635.057,372.487L642.104,372.487C642.454,372.437 642.804,372.287 643.054,371.987C643.303,371.737 643.453,371.438 643.453,371.088C643.453,370.738 643.303,370.388 643.054,370.138C642.804,369.888 642.454,369.738 642.104,369.788L635.057,369.788C634.707,369.738 634.357,369.888 634.107,370.138C633.857,370.388 633.707,370.738 633.707,371.088Z" style="fill:rgb(75,28,2);fill-rule:nonzero;"/>
                <path d="M649.801,369.088C649.151,369.738 648.801,370.538 648.851,371.488L648.851,377.185C648.801,378.135 649.151,378.935 649.801,379.584C650.451,380.234 651.25,380.534 652.2,380.534C653.15,380.534 653.899,380.234 654.549,379.584C655.199,378.935 655.549,378.135 655.599,377.185L655.599,371.488C655.549,370.538 655.199,369.738 654.549,369.089C653.899,368.439 653.149,368.089 652.2,368.089C651.25,368.089 650.451,368.439 649.801,369.089L649.801,369.088Z" style="fill:rgb(234,152,133);fill-rule:nonzero;"/>
                <path d="M636.156,393.429C639.205,396.428 642.804,397.927 647.052,397.977C651.3,397.927 654.949,396.428 657.998,393.429C660.497,390.88 661.946,387.981 662.396,384.632L631.758,384.632C632.208,387.981 633.657,390.88 636.156,393.429Z" style="fill:white;fill-rule:nonzero;"/>
                <path d="M633.807,417.319L633.807,425.116L654.849,425.116L654.849,417.869C654.399,417.969 653.899,418.069 653.449,418.169C653.099,418.219 652.7,418.319 652.35,418.369C650.101,418.769 647.802,418.969 645.353,418.969C641.304,418.969 637.456,418.419 633.807,417.319Z" style="fill:rgb(234,152,133);fill-rule:nonzero;"/>
                <path d="M633.807,425.116L628.06,425.116L628.06,443.709L649.251,443.709L649.251,425.116L633.807,425.116Z" style="fill:rgb(219,94,1);fill-rule:nonzero;"/>
                <path d="M652.4,425.116L649.251,425.116L649.251,443.709L628.06,443.709L628.06,547.367L681.188,547.367L681.188,495.388C683.437,494.838 685.437,493.689 687.186,491.939C689.635,489.49 690.884,486.492 690.884,482.993C690.884,479.494 689.635,476.496 687.186,473.997L685.437,472.547C685.237,472.397 685.037,472.297 684.837,472.147C683.537,471.298 682.138,470.748 680.638,470.498L680.638,470.448C680.589,470.198 680.539,469.948 680.489,469.698C679.239,463.201 676.79,457.803 673.042,453.505C669.393,449.307 664.595,446.158 658.597,444.109C658.197,443.959 657.798,443.859 657.398,443.709L657.298,443.709L652.4,443.709L652.4,425.116ZM641.804,491.989C641.454,491.39 641.154,490.79 640.954,490.19C640.904,490.04 640.854,489.94 640.804,489.84C641.154,489.79 641.454,489.79 641.804,489.79C646.302,489.54 653.349,489.74 662.946,490.29C663.096,491.04 662.146,492.389 660.147,494.338C657.898,496.488 655.149,497.587 651.95,497.587C650.801,497.587 649.701,497.437 648.651,497.137C646.802,496.638 645.153,495.688 643.703,494.338C642.954,493.589 642.304,492.839 641.804,491.989Z" style="fill:rgb(255,116,0);fill-rule:nonzero;"/>
                <path d="M640.954,490.19C641.154,490.79 641.454,491.39 641.804,491.989C642.304,492.839 642.954,493.589 643.703,494.338C645.153,495.688 646.802,496.637 648.651,497.137C649.701,497.437 650.801,497.587 651.95,497.587C655.149,497.587 657.898,496.488 660.147,494.338C662.146,492.389 663.096,491.04 662.946,490.29C653.35,489.74 646.302,489.54 641.804,489.79L640.955,490.19L640.954,490.19Z" style="fill:rgb(219,94,1);fill-rule:nonzero;"/>
                <path d="M640.804,489.84C640.854,489.94 640.904,490.04 640.954,490.19L641.804,489.79C641.454,489.79 641.154,489.79 640.804,489.84Z" style="fill:rgb(15,21,28);fill-rule:nonzero;"/>
                <path d="M654.849,425.116L652.4,425.116L652.4,443.709L658.697,443.709L658.697,425.116L654.849,425.116Z" style="fill:rgb(219,94,1);fill-rule:nonzero;"/>
                <path d="M657.398,443.709C657.348,443.709 657.298,443.709 657.298,443.709L657.398,443.709Z" style="fill:rgb(38,55,73);fill-rule:nonzero;"/>
                <path d="M628.06,443.709L628.01,443.709C617.714,443.659 612.566,448.807 612.566,459.102L612.566,491.29L628.06,491.29L628.06,443.709Z" style="fill:rgb(219,94,1);fill-rule:nonzero;"/>
                <path d="M599.971,360.242C599.671,360.192 599.371,360.192 599.071,360.242C596.622,360.192 594.473,360.842 592.574,362.091C591.824,362.541 591.124,363.141 590.475,363.791C588.076,366.14 586.876,369.039 586.876,372.437C586.876,375.786 588.076,378.685 590.475,381.084C591.124,381.734 591.824,382.283 592.574,382.783C594.473,384.033 596.622,384.632 599.071,384.632C599.371,384.632 599.671,384.632 599.971,384.632L599.971,360.242Z" style="fill:rgb(255,203,153);fill-rule:nonzero;"/>
                <path d="M612.566,576.855L611.516,576.855L611.516,577.405C607.918,578.255 605.519,580.054 604.369,582.853C604.019,584.302 603.719,585.702 603.469,587.151L603.469,607.143C603.419,608.693 603.919,609.942 604.969,610.992C606.068,612.091 607.368,612.641 608.917,612.641L609.017,612.641C610.517,612.641 611.766,612.091 612.816,610.992C613.615,610.242 614.165,609.342 614.415,608.293C614.365,608.093 614.365,607.893 614.365,607.743C614.415,607.743 614.415,607.793 614.465,607.843C614.415,607.993 614.415,608.143 614.415,608.293C614.465,609.592 614.965,610.692 615.864,611.642C616.964,612.691 618.264,613.241 619.813,613.191L619.963,613.191C621.512,613.241 622.762,612.691 623.761,611.642L623.811,611.592C624.661,610.792 625.161,609.842 625.361,608.743C625.411,608.693 625.411,608.693 625.461,608.743C625.561,609.992 626.06,611.042 626.96,611.942C627.81,612.791 628.759,613.291 629.909,613.491C630.209,613.541 630.559,613.591 630.909,613.591L631.059,613.591C632.558,613.591 633.807,613.041 634.807,611.942C635.007,611.792 635.207,611.592 635.357,611.442C636.007,610.642 636.356,609.742 636.456,608.743C636.456,608.543 636.456,608.343 636.506,608.143L636.456,601.646C636.356,601.546 636.256,601.446 636.206,601.346L636.456,601.346L636.456,588.801C636.456,588.351 636.406,587.901 636.356,587.501C636.306,587.302 636.206,587.102 636.156,586.952C636.006,586.502 635.906,586.102 635.757,585.752L635.707,585.702C635.657,585.552 635.657,585.402 635.607,585.302L634.807,584.403L635.557,585.102C633.907,580.654 631.408,578.105 628.06,577.406L628.06,557.863L628.06,547.368L628.06,491.29L612.566,491.29L612.566,576.856L612.566,576.855ZM614.415,588.451C614.365,588.101 614.415,587.801 614.465,587.501L614.465,588.501L614.415,588.451Z" style="fill:rgb(255,204,153);fill-rule:nonzero;"/>
                <path d="M614.465,587.501C614.415,587.801 614.365,588.101 614.415,588.451L614.465,588.501L614.465,587.801C614.465,587.701 614.465,587.601 614.465,587.501Z" style="fill:rgb(77,95,109);fill-rule:nonzero;"/>
                <path d="M614.415,608.293C614.415,608.143 614.415,607.993 614.465,607.843C614.415,607.793 614.415,607.743 614.365,607.743C614.365,607.893 614.365,608.093 614.415,608.293Z" style="fill:rgb(77,95,109);fill-rule:nonzero;"/>
                <rect x="628.06" y="547.367" width="53.128" height="10.496" style="fill:rgb(219,94,1);fill-rule:nonzero;"/>
                <path d="M681.188,576.156L681.188,575.706L681.188,557.863L628.06,557.863L628.06,577.405C631.408,578.105 633.907,580.654 635.557,585.102L648.201,598.197C647.752,597.897 647.552,597.897 647.502,598.247L647.502,600.196C647.352,601.196 647.002,602.095 646.352,602.895C646.202,602.995 646.102,603.095 646.002,603.245L645.852,603.295C644.803,604.394 643.503,604.944 641.954,604.944C640.605,604.944 639.455,604.494 638.405,603.545L636.456,601.646L636.506,608.143C636.456,608.343 636.456,608.543 636.456,608.743C636.356,609.742 636.006,610.642 635.357,611.442C635.207,611.592 635.007,611.792 634.807,611.942C633.807,613.041 632.558,613.591 631.058,613.591L630.908,613.591C630.559,613.591 630.209,613.541 629.909,613.491C628.759,613.291 627.81,612.791 626.96,611.942C626.06,611.042 625.561,609.992 625.461,608.743C625.411,608.693 625.411,608.693 625.361,608.743C625.161,609.842 624.661,610.792 623.811,611.592C623.811,613.641 623.811,615.69 623.861,617.839L637.606,617.839L637.606,617.789L647.502,617.789L647.502,617.839L659.747,617.839L669.693,617.589L681.188,617.239L681.188,576.156Z" style="fill:rgb(204,133,201);fill-rule:nonzero;"/>
                <path d="M681.188,575.706L681.188,576.156L681.288,576.156L681.188,575.706Z" style="fill:rgb(38,55,73);fill-rule:nonzero;"/>
                <path d="M635.706,585.702L635.756,585.752C635.906,586.102 636.006,586.501 636.156,586.951C636.206,587.101 636.306,587.301 636.356,587.501C636.406,587.901 636.456,588.351 636.456,588.801L636.456,601.646L638.405,603.545C639.455,604.494 640.605,604.944 641.954,604.944C643.503,604.944 644.803,604.394 645.852,603.295L646.002,603.245C646.102,603.095 646.202,602.995 646.352,602.895C647.002,602.095 647.352,601.196 647.502,600.196L647.502,598.597L647.502,598.247C647.552,597.897 647.752,597.897 648.202,598.197L635.557,585.102L634.807,584.402L635.607,585.302C635.657,585.402 635.657,585.552 635.707,585.702L635.706,585.702Z" style="fill:rgb(234,152,133);fill-rule:nonzero;"/>
                <path d="M636.456,601.645L636.456,601.346L636.206,601.346C636.256,601.445 636.356,601.545 636.456,601.645Z" style="fill:rgb(77,95,109);fill-rule:nonzero;"/>
                <path d="M647.502,617.839L647.502,617.789L637.606,617.789L637.606,653.375L647.502,653.375L647.502,617.839Z" style="fill:rgb(255,189,145);fill-rule:nonzero;"/>
                <path d="M669.693,617.589L659.747,617.839L659.747,742.639C660.397,742.339 661.046,742.089 661.746,741.839C661.796,741.839 661.896,741.839 661.946,741.789L661.996,741.839L661.996,741.789C662.796,741.54 663.645,741.39 664.495,741.24C664.545,741.24 664.645,741.24 664.745,741.24C665.495,741.09 666.294,741.04 667.094,741.04C667.944,741.04 668.743,741.09 669.493,741.24C669.543,741.24 669.643,741.24 669.693,741.29L669.693,617.589Z" style="fill:rgb(234,152,133);fill-rule:nonzero;"/>
                <rect x="637.606" y="653.425" width="9.896" height="93.012" style="fill:rgb(255,189,145);fill-rule:nonzero;"/>
                <path d="M707.978,756.783C707.828,756.234 707.728,755.734 707.578,755.234L685.387,755.234C685.537,755.734 685.686,756.234 685.836,756.783C686.086,757.833 686.236,758.932 686.386,760.082L708.527,760.082C708.427,758.932 708.228,757.833 707.978,756.783Z" style="fill:rgb(219,175,2);fill-rule:nonzero;"/>
                <path d="M707.578,755.234C706.628,752.285 705.079,749.636 702.93,747.287C702.68,746.987 702.38,746.687 702.13,746.437C701.53,745.838 700.93,745.288 700.281,744.788C699.181,743.938 698.032,743.239 696.832,742.689C696.682,742.639 696.582,742.589 696.482,742.539C694.933,741.889 693.333,741.439 691.684,741.24C690.884,741.09 690.085,741.04 689.235,741.04C688.435,741.04 687.636,741.09 686.886,741.24C686.786,741.24 686.686,741.24 686.636,741.24C685.786,741.39 684.937,741.539 684.137,741.789L684.137,741.839L684.087,741.789C684.037,741.839 683.987,741.839 683.937,741.839C682.638,742.239 681.438,742.789 680.289,743.489C679.539,743.889 678.839,744.338 678.19,744.888C678.789,745.338 679.389,745.888 679.939,746.438C680.189,746.688 680.489,746.987 680.789,747.287C682.938,749.636 684.437,752.285 685.387,755.234L707.578,755.234Z" style="fill:rgb(30,24,52);fill-rule:nonzero;"/>
                <path d="M678.189,744.888C678.139,744.838 678.139,744.838 678.139,744.788C676.99,743.938 675.84,743.239 674.641,742.689C674.491,742.639 674.391,742.589 674.291,742.539C672.842,741.889 671.292,741.489 669.693,741.29C669.643,741.24 669.543,741.24 669.493,741.24C668.743,741.09 667.944,741.04 667.094,741.04C666.294,741.04 665.495,741.09 664.745,741.24C664.645,741.24 664.545,741.24 664.495,741.24C663.645,741.39 662.796,741.539 661.996,741.789L661.996,741.839L661.946,741.789C661.896,741.839 661.796,741.839 661.746,741.839C661.046,742.089 660.397,742.339 659.747,742.639C659.197,742.889 658.647,743.139 658.098,743.489C656.748,744.239 655.499,745.238 654.299,746.438L647.502,746.438L637.606,746.438L634.907,746.438L634.907,755.234L685.387,755.234C684.437,752.285 682.938,749.636 680.789,747.287C680.489,746.987 680.189,746.688 679.939,746.438C679.389,745.888 678.789,745.338 678.19,744.888L678.189,744.888Z" style="fill:rgb(42,34,75);fill-rule:nonzero;"/>
                <path d="M685.836,756.783C685.686,756.234 685.537,755.734 685.387,755.234L634.907,755.234L634.907,760.082L686.386,760.082C686.236,758.932 686.086,757.833 685.836,756.783Z" style="fill:rgb(255,255,0);fill-rule:nonzero;"/>
            </g>
        </g>
    </g>
</svg>
