<?xml version="1.0" encoding="UTF-8" standalone="no"?>
<!DOCTYPE svg PUBLIC "-//W3C//DTD SVG 1.1//EN" "http://www.w3.org/Graphics/SVG/1.1/DTD/svg11.dtd">
<svg width="100%" height="100%" viewBox="0 0 198 213" version="1.1" xmlns="http://www.w3.org/2000/svg" xmlns:xlink="http://www.w3.org/1999/xlink" xml:space="preserve" style="fill-rule:evenodd;clip-rule:evenodd;stroke-linejoin:round;stroke-miterlimit:1.41421;">
    <g transform="matrix(1,0,0,1,-4569,-37)">
        <g transform="matrix(1,0,0,1,0,-162)">
            <g id="Ninja-Male-3-Tablet" transform="matrix(1,0,0,1,4411.51,199.85)">
                <path d="M349.821,134.782L349.671,134.782L338.325,134.782C336.926,134.782 335.776,135.282 334.827,136.282C333.827,137.231 333.327,138.381 333.377,139.78L333.377,139.88C333.327,141.23 333.827,142.429 334.827,143.429C335.776,144.378 336.926,144.828 338.325,144.878C337.026,144.928 335.976,145.428 335.127,146.378C334.877,146.528 334.727,146.728 334.577,146.977C333.927,147.777 333.627,148.727 333.677,149.826L333.677,149.926C333.627,151.326 334.127,152.525 335.127,153.575C335.976,154.375 336.976,154.824 338.176,154.924C338.325,154.874 338.475,154.874 338.625,154.824C338.625,154.874 338.625,154.874 338.625,154.924C338.475,154.924 338.325,154.924 338.176,154.924C337.226,155.124 336.376,155.624 335.726,156.374C334.677,157.273 334.177,158.423 334.177,159.822L334.177,159.972C334.177,161.322 334.677,162.521 335.726,163.521C336.676,164.421 337.826,164.87 339.225,164.87L348.921,164.87C349.171,164.87 349.421,164.87 349.671,164.821C350.72,164.671 351.67,164.271 352.42,163.521C353.419,162.522 353.919,161.322 353.969,159.973L353.969,159.823C353.919,158.423 353.419,157.274 352.42,156.374C351.72,155.624 350.92,155.124 349.971,154.925C349.871,154.925 349.771,154.925 349.671,154.925C349.621,154.925 349.621,154.925 349.571,154.925C349.521,154.875 349.521,154.875 349.571,154.825C349.621,154.825 349.621,154.825 349.671,154.875C349.721,154.875 349.821,154.875 349.971,154.925C351.17,154.825 352.22,154.375 353.07,153.575C354.019,152.526 354.519,151.326 354.469,149.927L354.469,149.827C354.469,148.727 354.169,147.778 353.619,146.978C353.469,146.728 353.269,146.528 353.07,146.378C352.17,145.429 351.07,144.929 349.821,144.879C351.22,144.829 352.37,144.379 353.319,143.429C354.269,142.43 354.769,141.23 354.769,139.881L354.769,139.781C354.769,138.381 354.269,137.232 353.319,136.282C352.37,135.283 351.22,134.783 349.821,134.783L349.821,134.782Z" style="fill:rgb(255,203,153);fill-rule:nonzero;"/>
                <path d="M349.671,134.782L349.671,118.739C349.621,112.441 346.472,109.292 340.175,109.292L265.205,109.292C259.257,109.442 256.258,112.591 256.258,118.739L256.258,132.283L265.904,132.283L265.904,132.433C265.954,132.383 266.054,132.333 266.104,132.283L271.502,132.233C272.752,132.233 273.851,132.683 274.701,133.633C275.601,134.482 276.05,135.532 276.05,136.782L276.05,136.881C276.05,138.131 275.601,139.231 274.701,140.13C273.851,140.98 272.752,141.43 271.502,141.48C272.652,141.53 273.651,141.98 274.451,142.829C274.651,142.979 274.801,143.179 274.951,143.429C275.501,144.179 275.8,145.028 275.8,146.028L275.8,146.128C275.8,147.377 275.351,148.477 274.451,149.427C273.701,150.176 272.752,150.576 271.652,150.676C272.502,150.826 273.252,151.276 273.901,151.976C274.801,152.825 275.251,153.875 275.301,155.124L275.301,155.224C275.251,156.524 274.801,157.623 273.901,158.523C273.052,159.373 271.952,159.773 270.703,159.773L259.457,159.773L259.457,163.171C259.457,164.321 259.407,165.47 259.357,166.62C259.107,169.169 258.707,171.668 258.058,174.067C259.107,175.416 260.657,176.366 262.656,176.816C263.405,176.966 264.255,177.066 265.205,177.116L340.175,177.116C346.472,177.066 349.621,173.917 349.671,167.62L349.671,164.821C349.421,164.871 349.171,164.871 348.921,164.871L339.225,164.871C337.826,164.871 336.676,164.421 335.726,163.521C334.677,162.522 334.177,161.322 334.177,159.973L334.177,159.823C334.177,158.423 334.677,157.274 335.726,156.374C336.376,155.625 337.226,155.125 338.176,154.925C336.976,154.825 335.976,154.375 335.127,153.575C334.127,152.526 333.627,151.326 333.677,149.927L333.677,149.827C333.627,148.727 333.927,147.778 334.577,146.978C334.727,146.728 334.877,146.528 335.127,146.378C335.976,145.429 337.026,144.929 338.325,144.879C336.926,144.829 335.776,144.379 334.827,143.429C333.827,142.43 333.327,141.23 333.377,139.881L333.377,139.781C333.327,138.381 333.827,137.232 334.827,136.282C335.776,135.283 336.926,134.783 338.325,134.783L349.671,134.783L349.671,134.782ZM300.84,140.88C301.79,140.03 302.99,139.58 304.389,139.58C305.738,139.58 306.938,140.03 307.938,140.88C308.887,141.679 309.387,142.679 309.387,143.879C309.387,145.128 308.887,146.178 307.938,147.027C306.938,147.877 305.738,148.277 304.389,148.277C302.99,148.277 301.79,147.877 300.84,147.027C299.841,146.178 299.341,145.128 299.391,143.879C299.341,142.679 299.841,141.679 300.84,140.88Z" style="fill:rgb(36,35,77);fill-rule:nonzero;"/>
                <path d="M304.389,139.58C302.99,139.58 301.79,140.03 300.84,140.88C299.841,141.679 299.341,142.679 299.391,143.879C299.341,145.128 299.841,146.178 300.84,147.027C301.79,147.877 302.99,148.277 304.389,148.277C305.738,148.277 306.938,147.877 307.938,147.027C308.887,146.178 309.387,145.128 309.387,143.879C309.387,142.679 308.887,141.679 307.938,140.88C306.938,140.03 305.738,139.58 304.389,139.58Z" style="fill:rgb(115,115,117);fill-rule:nonzero;"/>
                <path d="M266.704,37.271C266.754,26.825 261.756,17.979 251.76,10.632C241.764,3.285 229.669,-0.414 215.525,-0.414C207.578,-0.414 200.331,0.736 193.733,3.035C188.485,4.834 183.637,7.383 179.189,10.632C172.592,15.48 168.194,20.978 165.994,27.175C164.795,30.324 164.195,33.723 164.195,37.271L164.195,49.616L222.872,49.616L230.019,37.571L230.019,49.616L266.804,49.616L266.704,37.271Z" style="fill-rule:nonzero;"/>
                <path d="M170.593,58.363C169.843,58.213 169.093,58.113 168.343,58.113C165.395,58.113 162.846,59.162 160.797,61.212C159.697,62.311 158.897,63.511 158.397,64.86C157.898,66.06 157.648,67.359 157.648,68.809C157.648,70.258 157.898,71.558 158.397,72.807C158.897,74.057 159.697,75.256 160.797,76.306C162.846,78.405 165.395,79.454 168.343,79.454C169.093,79.454 169.843,79.404 170.593,79.255L170.593,58.363Z" style="fill:rgb(234,152,133);fill-rule:nonzero;"/>
                <path d="M170.593,49.616L170.593,84.952C170.593,87.301 170.793,89.55 171.142,91.8C172.442,100.396 176.34,107.943 182.838,114.44C187.136,118.789 191.934,121.937 197.232,123.937C198.182,124.287 199.181,124.636 200.181,124.936C203.979,126.086 208.028,126.636 212.326,126.686L219.373,126.686C222.822,126.636 226.17,126.186 229.319,125.436C231.768,124.786 234.067,123.987 236.316,122.937C240.665,120.888 244.613,118.089 248.262,114.441C256.408,106.294 260.507,96.448 260.557,84.952L260.557,79.255L260.557,58.363L260.557,49.616L230.019,49.616L230.019,37.571L222.872,49.616L170.593,49.616ZM205.429,72.957C204.979,72.907 204.629,72.757 204.279,72.407C203.929,72.107 203.779,71.757 203.779,71.308C203.779,70.858 203.929,70.458 204.279,70.108C204.629,69.808 204.979,69.658 205.429,69.658L214.075,69.658C214.525,69.658 214.875,69.808 215.225,70.108C215.575,70.458 215.725,70.858 215.725,71.308C215.725,71.758 215.575,72.108 215.225,72.407C214.875,72.757 214.525,72.957 214.075,72.957L205.429,72.957ZM195.583,87.401C195.683,87.001 195.783,86.601 195.932,86.202L231.668,95.798C231.568,96.198 231.468,96.597 231.368,96.997C230.868,98.797 230.169,100.446 229.219,101.895C227.72,104.144 225.621,105.994 222.972,107.393C222.072,107.893 221.172,108.343 220.223,108.693C217.474,109.642 214.625,109.942 211.676,109.542C210.826,109.442 209.927,109.243 209.027,108.993C205.629,108.093 202.78,106.544 200.481,104.295C199.381,103.195 198.431,101.945 197.632,100.596C196.082,98.047 195.233,95.448 195.083,92.749C194.933,91 195.133,89.201 195.583,87.401ZM223.022,70.108C223.771,69.308 224.721,68.909 225.87,68.909C226.77,68.909 227.57,69.158 228.22,69.708C228.369,69.808 228.569,69.958 228.719,70.108C229.469,70.858 229.869,71.807 229.869,72.907L229.869,79.704C229.869,80.804 229.469,81.753 228.719,82.503C228.569,82.653 228.369,82.753 228.22,82.903C227.57,83.453 226.77,83.703 225.87,83.703C224.721,83.653 223.771,83.253 223.022,82.503C222.222,81.754 221.822,80.804 221.872,79.704L221.872,72.907C221.822,71.808 222.222,70.858 223.022,70.108ZM244.863,71.308C244.863,71.757 244.663,72.107 244.313,72.407C244.013,72.757 243.663,72.957 243.214,72.957L234.617,72.957C234.167,72.957 233.767,72.757 233.417,72.407C233.118,72.107 232.968,71.757 232.968,71.308C232.968,70.858 233.118,70.458 233.417,70.108C233.767,69.808 234.167,69.658 234.617,69.658L243.214,69.658C243.663,69.658 244.013,69.808 244.313,70.108C244.663,70.458 244.863,70.858 244.863,71.308Z" style="fill:rgb(255,203,153);fill-rule:nonzero;"/>
                <path d="M204.279,72.407C204.629,72.757 204.979,72.907 205.429,72.957L214.075,72.957C214.525,72.957 214.875,72.757 215.225,72.407C215.575,72.107 215.725,71.757 215.725,71.308C215.725,70.858 215.575,70.458 215.225,70.108C214.875,69.808 214.525,69.658 214.075,69.658L205.429,69.658C204.979,69.658 204.629,69.808 204.279,70.108C203.929,70.458 203.779,70.858 203.779,71.308C203.779,71.758 203.929,72.108 204.279,72.407Z" style="fill:rgb(75,28,2);fill-rule:nonzero;"/>
                <path d="M195.932,86.202C195.783,86.601 195.683,87.001 195.583,87.401C195.133,89.2 194.933,91 195.083,92.749L229.219,101.895C230.169,100.446 230.868,98.797 231.368,96.997C231.468,96.598 231.568,96.198 231.668,95.798L195.932,86.202Z" style="fill:white;fill-rule:nonzero;"/>
                <path d="M200.481,104.294C201.28,102.895 202.53,101.795 204.279,100.996C206.728,99.946 209.327,99.746 212.126,100.496C212.776,100.646 213.375,100.846 213.925,101.096C215.824,101.946 217.374,103.195 218.573,104.844C219.473,106.094 220.023,107.393 220.223,108.693C221.172,108.343 222.072,107.893 222.972,107.393C225.621,105.994 227.72,104.145 229.219,101.896L195.083,92.749C195.233,95.448 196.082,98.047 197.632,100.596C198.431,101.946 199.381,103.195 200.481,104.295L200.481,104.294Z" style="fill:rgb(79,32,32);fill-rule:nonzero;"/>
                <path d="M204.279,100.996C202.53,101.795 201.28,102.895 200.481,104.294C202.78,106.544 205.629,108.093 209.027,108.993C209.927,109.243 210.826,109.442 211.676,109.542C214.625,109.942 217.474,109.642 220.223,108.693C220.023,107.393 219.473,106.094 218.573,104.844C217.374,103.195 215.824,101.946 213.925,101.096C213.375,100.846 212.776,100.646 212.126,100.496C209.327,99.746 206.728,99.946 204.279,100.996Z" style="fill:rgb(255,153,153);fill-rule:nonzero;"/>
                <path d="M225.87,68.909C224.721,68.909 223.771,69.308 223.022,70.108C222.222,70.858 221.822,71.807 221.872,72.907L221.872,79.704C221.822,80.804 222.222,81.753 223.022,82.503C223.771,83.253 224.721,83.653 225.87,83.703C226.77,83.703 227.57,83.453 228.22,82.903C228.369,82.753 228.569,82.653 228.719,82.503C229.469,81.754 229.869,80.804 229.869,79.704L229.869,72.907C229.869,71.808 229.469,70.858 228.719,70.108C228.569,69.958 228.369,69.808 228.22,69.708C227.57,69.159 226.77,68.909 225.87,68.909Z" style="fill:rgb(234,152,133);fill-rule:nonzero;"/>
                <path d="M244.313,72.407C244.663,72.107 244.863,71.757 244.863,71.308C244.863,70.858 244.663,70.458 244.313,70.108C244.013,69.808 243.663,69.658 243.214,69.658L234.617,69.658C234.167,69.658 233.767,69.808 233.417,70.108C233.118,70.458 232.968,70.858 232.968,71.308C232.968,71.758 233.118,72.107 233.417,72.407C233.767,72.757 234.167,72.957 234.617,72.957L243.214,72.957C243.663,72.957 244.013,72.757 244.313,72.407Z" style="fill:rgb(75,28,2);fill-rule:nonzero;"/>
                <path d="M190.135,136.282C190.085,136.232 190.035,136.182 189.985,136.132C188.835,135.232 187.486,134.782 185.936,134.832C183.987,134.832 182.388,135.532 181.038,136.881C179.689,138.231 178.989,139.83 178.989,141.779L178.989,161.322L192.834,161.322L192.834,157.073L192.834,141.779C192.834,140.48 192.534,139.33 191.934,138.331C191.634,137.781 191.234,137.331 190.785,136.881C190.585,136.632 190.385,136.432 190.135,136.282Z" style="fill:rgb(83,18,2);fill-rule:nonzero;"/>
                <path d="M190.135,136.282C190.385,136.432 190.585,136.631 190.785,136.881C191.234,137.331 191.634,137.781 191.934,138.331C192.534,139.33 192.834,140.48 192.834,141.779L192.834,157.073L245.563,157.073L245.463,143.179C241.614,139.231 236.266,136.831 229.369,136.082L229.319,136.282L200.231,136.282L200.231,136.232L199.531,136.232L200.081,136.282C199.731,136.232 199.431,136.232 199.131,136.232L190.135,136.282ZM214.725,136.781C214.525,136.831 214.325,136.931 214.175,137.031L214.175,136.781L214.725,136.781ZM226.77,156.324L227.27,156.224C227.17,156.274 227.07,156.274 227.02,156.324C226.97,156.274 226.87,156.274 226.77,156.324Z" style="fill:rgb(131,37,3);fill-rule:nonzero;"/>
                <path d="M214.175,137.031C214.325,136.931 214.525,136.831 214.725,136.781L214.175,136.781L214.175,137.031Z" style="fill:rgb(109,129,34);fill-rule:nonzero;"/>
                <path d="M200.231,136.232L200.231,136.282L229.319,136.282L229.319,136.082L229.319,125.436C226.17,126.186 222.822,126.635 219.373,126.685C219.173,126.685 218.973,126.685 218.773,126.685L212.326,126.685C208.028,126.635 203.979,126.086 200.181,124.936L200.231,136.232Z" style="fill:rgb(234,152,133);fill-rule:nonzero;"/>
                <path d="M270.253,61.212C269.203,60.162 268.054,59.362 266.804,58.863C266.204,58.613 265.605,58.463 265.005,58.363C264.255,58.213 263.505,58.113 262.756,58.113C262.006,58.113 261.256,58.213 260.557,58.363L260.557,79.255C261.256,79.404 262.006,79.454 262.756,79.454C263.505,79.454 264.255,79.404 265.005,79.255C265.605,79.105 266.204,78.955 266.804,78.705C268.054,78.155 269.203,77.355 270.253,76.306C272.352,74.257 273.401,71.758 273.401,68.809C273.401,65.86 272.352,63.311 270.253,61.212Z" style="fill:rgb(234,152,133);fill-rule:nonzero;"/>
                <path d="M229.319,136.282L229.369,136.082L229.319,136.082L229.319,136.282Z" style="fill:rgb(153,153,204);fill-rule:nonzero;"/>
                <path d="M250.411,133.883C248.311,134.982 246.912,136.432 246.262,138.181C246.062,138.681 245.912,139.18 245.812,139.73C245.713,139.88 245.613,140.08 245.563,140.23C245.513,140.43 245.463,140.63 245.413,140.83L245.463,143.179L245.563,157.073L245.563,163.171C245.563,164.32 245.513,165.47 245.413,166.62C244.763,171.767 242.664,176.366 239.165,180.414C238.715,180.864 238.315,181.314 237.866,181.763C232.718,186.861 226.57,189.46 219.423,189.51C219.373,189.51 219.273,189.51 219.223,189.51C211.976,189.51 205.729,186.912 200.581,181.764C200.131,181.314 199.681,180.864 199.281,180.414C198.981,180.064 198.681,179.764 198.431,179.415C194.683,174.766 192.834,169.319 192.834,163.171L192.834,161.322L178.989,161.322C179.039,163.871 179.189,165.77 179.339,167.02C179.889,172.068 180.838,176.116 182.138,179.115C182.338,179.565 182.538,179.964 182.738,180.414C183.887,182.863 185.337,185.162 187.086,187.412C188.236,188.861 189.435,190.21 190.785,191.56C196.632,197.408 203.429,201.106 211.076,202.605C213.675,203.105 216.374,203.355 219.223,203.405C219.273,203.405 219.373,203.405 219.423,203.405C222.172,203.355 224.821,203.105 227.37,202.605C235.017,201.106 241.764,197.408 247.612,191.56C249.361,189.811 250.91,188.011 252.26,186.162C252.31,186.112 252.31,186.062 252.36,186.012C252.51,185.762 252.66,185.562 252.81,185.362C254.759,182.564 256.258,179.565 257.358,176.416C257.608,175.666 257.858,174.867 258.058,174.067C258.707,171.668 259.107,169.169 259.357,166.62C259.407,165.471 259.457,164.321 259.457,163.172L259.457,159.773L270.703,159.773C271.952,159.773 273.052,159.373 273.901,158.523C274.801,157.624 275.251,156.524 275.301,155.225L275.301,155.125C275.251,153.875 274.801,152.826 273.901,151.976C273.252,151.276 272.502,150.826 271.652,150.677C271.502,150.677 271.402,150.677 271.252,150.677C271.252,150.627 271.252,150.627 271.252,150.577C271.402,150.577 271.502,150.627 271.652,150.677C272.752,150.577 273.701,150.177 274.451,149.427C275.351,148.477 275.8,147.378 275.8,146.128L275.8,146.029C275.8,145.029 275.501,144.179 274.951,143.43C274.801,143.18 274.651,142.98 274.451,142.83C273.651,141.98 272.652,141.53 271.502,141.48C272.752,141.43 273.851,140.981 274.701,140.131C275.601,139.231 276.05,138.132 276.05,136.882L276.05,136.782C276.05,135.533 275.601,134.483 274.701,133.634C273.851,132.684 272.752,132.234 271.502,132.234L266.104,132.284C266.054,132.334 265.954,132.384 265.904,132.434L265.904,132.284L256.258,132.284L255.409,132.284C255.059,132.284 254.659,132.334 254.309,132.384C254.159,132.434 254.009,132.434 253.859,132.484C253.509,132.584 253.21,132.684 252.91,132.784L252.81,132.884C252.66,132.884 252.56,132.884 252.46,132.934L252.31,133.084L251.71,133.634L252.31,133.034C251.61,133.284 250.96,133.584 250.411,133.884L250.411,133.883Z" style="fill:rgb(255,203,153);fill-rule:nonzero;"/>
                <path d="M265.205,109.292L261.756,109.292C255.459,109.292 252.31,112.441 252.31,118.739L252.31,133.083L252.46,132.933C252.56,132.883 252.66,132.883 252.81,132.883L252.91,132.783C253.21,132.683 253.509,132.583 253.859,132.483C254.009,132.433 254.159,132.433 254.309,132.383C254.659,132.333 255.059,132.283 255.409,132.283L256.258,132.283L256.258,118.739C256.258,112.591 259.257,109.443 265.205,109.293L265.205,109.292Z" style="fill:rgb(115,115,117);fill-rule:nonzero;"/>
                <path d="M271.652,150.676C271.502,150.626 271.402,150.576 271.252,150.576C271.252,150.626 271.252,150.626 271.252,150.676C271.402,150.676 271.502,150.676 271.652,150.676Z" style="fill:rgb(36,35,77);fill-rule:nonzero;"/>
                <path d="M265.205,177.115C264.255,177.065 263.405,176.965 262.656,176.815C260.657,176.366 259.107,175.416 258.058,174.066C257.858,174.866 257.608,175.666 257.358,176.416C258.607,176.865 260.057,177.115 261.756,177.115L265.205,177.115Z" style="fill:rgb(115,115,117);fill-rule:nonzero;"/>
                <path d="M261.756,177.115C260.057,177.115 258.607,176.865 257.358,176.416C256.258,179.564 254.759,182.563 252.81,185.362C254.509,188.811 256.808,191.959 259.757,194.908C266.754,201.905 275.201,205.404 285.047,205.404C294.893,205.404 303.289,201.905 310.287,194.908C315.435,189.76 318.733,183.813 320.083,177.115L307.288,177.115C306.188,180.464 304.289,183.513 301.59,186.262C296.992,190.81 291.494,193.109 285.047,193.109C278.599,193.109 273.052,190.81 268.503,186.262C265.755,183.513 263.855,180.464 262.756,177.115L261.756,177.115Z" style="fill:rgb(234,152,133);fill-rule:nonzero;"/>
                <path d="M252.36,186.012C252.31,186.062 252.31,186.112 252.26,186.162C250.91,188.011 249.361,189.81 247.612,191.56C241.764,197.407 235.017,201.106 227.37,202.605L252.36,202.605L252.36,186.012Z" style="fill:rgb(131,37,3);fill-rule:nonzero;"/>
                <path d="M245.563,163.171L245.563,157.073L192.834,157.073L192.834,163.171C192.834,169.318 194.683,174.766 198.431,179.414C198.681,179.764 198.981,180.064 199.281,180.414L219.423,180.414L219.423,165.62L219.423,180.414L239.165,180.414C242.664,176.366 244.763,171.768 245.413,166.62C245.513,165.47 245.563,164.321 245.563,163.171Z" style="fill:rgb(240,90,40);fill-rule:nonzero;"/>
                <path d="M219.423,180.414L219.423,189.51C226.57,189.46 232.718,186.861 237.866,181.763C238.315,181.314 238.715,180.864 239.165,180.414L219.423,180.414Z" style="fill:rgb(131,37,3);fill-rule:nonzero;"/>
                <path d="M219.223,189.51C219.273,189.51 219.373,189.51 219.423,189.51L219.423,180.414L199.281,180.414C199.681,180.864 200.131,181.314 200.581,181.763C205.729,186.911 211.976,189.51 219.223,189.51Z" style="fill:rgb(131,37,3);fill-rule:nonzero;"/>
                <path d="M219.423,203.405L219.423,211.501L252.36,211.501L252.36,202.605L227.37,202.605C224.821,203.105 222.172,203.355 219.423,203.405Z" style="fill:rgb(240,90,40);fill-rule:nonzero;"/>
                <path d="M219.423,211.501L219.423,203.405C219.373,203.405 219.273,203.405 219.223,203.405C216.374,203.355 213.675,203.105 211.076,202.605L179.339,202.605L179.339,211.501L219.423,211.501Z" style="fill:rgb(240,90,40);fill-rule:nonzero;"/>
                <path d="M179.339,180.414L182.738,180.414C182.538,179.964 182.338,179.564 182.138,179.114C180.838,176.116 179.889,172.067 179.339,167.019L179.339,180.414Z" style="fill:rgb(240,90,40);fill-rule:nonzero;"/>
                <path d="M182.738,180.414L179.339,180.414L179.339,202.605L211.076,202.605C203.429,201.106 196.632,197.407 190.785,191.56C189.435,190.21 188.236,188.861 187.086,187.411C185.337,185.162 183.887,182.863 182.738,180.414Z" style="fill:rgb(131,37,3);fill-rule:nonzero;"/>
                <path d="M338.625,154.824C338.475,154.874 338.325,154.874 338.176,154.924C338.325,154.924 338.475,154.924 338.625,154.924C338.625,154.874 338.625,154.874 338.625,154.824Z" style="fill:rgb(36,35,77);fill-rule:nonzero;"/>
                <path d="M349.671,154.924L349.671,154.874C349.621,154.824 349.621,154.824 349.571,154.824C349.521,154.874 349.521,154.874 349.571,154.924C349.621,154.924 349.621,154.924 349.671,154.924Z" style="fill:rgb(36,35,77);fill-rule:nonzero;"/>
                <path d="M177.69,183.713L177.69,183.513L176.79,183.513L177.69,183.713Z" style="fill:rgb(165,109,72);fill-rule:nonzero;"/>
            </g>
        </g>
    </g>
</svg>
