<?xml version="1.0" encoding="UTF-8" standalone="no"?>
<!DOCTYPE svg PUBLIC "-//W3C//DTD SVG 1.1//EN" "http://www.w3.org/Graphics/SVG/1.1/DTD/svg11.dtd">
<svg width="100%" height="100%" viewBox="0 0 207 287" version="1.1" xmlns="http://www.w3.org/2000/svg" xmlns:xlink="http://www.w3.org/1999/xlink" xml:space="preserve" style="fill-rule:evenodd;clip-rule:evenodd;stroke-linejoin:round;stroke-miterlimit:1.41421;">
    <g transform="matrix(1,0,0,1,-3518,0)">
        <g transform="matrix(1,0,0,1,0,-162)">
            <g id="Ninja-Female-2-Tablet" transform="matrix(1,0,0,1,3456.69,110.335)">
                <path d="M138.405,338.451C138.355,338.401 138.355,338.401 138.405,338.401C138.106,338.351 137.806,338.351 137.556,338.401L138.405,338.451Z" style="fill:rgb(253,219,218);fill-rule:nonzero;"/>
                <path d="M80.982,140.062L80.982,125.101C75.615,125.044 71.046,126.928 67.278,130.697C63.509,134.409 61.624,138.977 61.681,144.287L61.681,236.51C72.417,233.769 80.24,228.687 85.094,221.263C87.321,217.78 88.977,213.84 89.948,209.386C90.747,205.731 91.147,201.791 91.09,197.508L91.09,195.795C90.69,195.224 90.29,194.653 89.948,194.082C87.835,190.884 86.464,187.458 85.722,183.86C85.379,182.432 85.151,180.948 85.094,179.463C85.037,178.721 85.037,178.035 85.037,177.293L84.98,177.293C91.604,170.954 93.488,167.928 90.633,168.271C87.721,168.556 84.237,168.956 80.24,169.356C76.186,169.755 74.13,168.213 74.187,164.73C74.187,161.19 75.443,158.163 77.899,155.708C78.127,155.479 78.356,155.251 78.584,155.08C78.984,154.68 79.384,154.394 79.783,154.109L79.783,140.061L80.982,140.061L80.982,140.062Z" style="fill:rgb(57,18,2);fill-rule:nonzero;"/>
                <path d="M174.118,107.227C173.605,105.628 172.919,104.087 172.177,102.602C169.722,97.805 166.238,93.408 161.613,89.468C151.848,81.017 140.085,76.791 126.323,76.791L126.209,76.791C114.502,76.791 104.281,79.818 95.487,85.87C93.888,86.955 92.346,88.155 90.861,89.468C81.097,97.919 76.243,108.141 76.243,120.133L76.243,129.098L76.3,129.098L76.414,150.397C77.785,149.541 79.269,149.027 80.925,148.798L80.925,142.974C83.381,143.202 85.722,143.202 87.835,143.031L90.747,142.631C97.828,141.089 102.282,136.635 104.109,129.212L104.109,143.43C110.676,143.887 116.33,143.716 121.069,142.916C136.544,140.347 146.138,129.554 149.964,110.424C150.991,125.157 158.415,135.95 172.177,142.745C172.234,142.802 172.291,142.802 172.348,142.859L172.291,142.916L172.291,147.142C173.719,147.313 175.089,147.77 176.288,148.455L176.288,120.132C176.231,115.564 175.546,111.281 174.118,107.226L174.118,107.227ZM104.109,84.329L104.966,83.929C104.566,84.1 104.281,84.272 104.109,84.329ZM101.311,129.441L101.254,129.441L101.254,129.384L101.311,129.441Z" style="fill:rgb(75,28,2);fill-rule:nonzero;"/>
                <path d="M177.431,149.141L176.288,148.456C175.089,147.771 173.719,147.314 172.291,147.143L172.234,147.143L172.234,172.325C174.632,171.983 176.745,171.012 178.63,169.413C178.858,169.185 179.087,168.956 179.372,168.785C181.827,166.272 183.084,163.246 183.084,159.763C183.027,156.222 181.77,153.196 179.315,150.74C179.087,150.512 178.858,150.283 178.63,150.112C178.23,149.712 177.83,149.427 177.43,149.141L177.431,149.141Z" style="fill:rgb(140,80,55);fill-rule:nonzero;"/>
                <path d="M172.291,147.143L172.291,142.917L172.348,142.86C172.291,142.803 172.234,142.803 172.177,142.746C158.415,135.95 150.992,125.158 149.964,110.425C146.138,129.555 136.544,140.347 121.069,142.917C116.33,143.716 110.676,143.888 104.109,143.431L104.109,129.212C102.282,136.635 97.828,141.089 90.747,142.631L87.835,143.031C85.722,143.202 83.381,143.202 80.925,142.974L80.925,173.981C80.982,175.637 81.154,177.293 81.439,178.892C82.696,185.573 86.293,191.569 92.175,196.765C92.232,196.765 92.232,196.765 92.289,196.765C92.632,197.051 92.974,197.394 93.374,197.736C93.888,198.136 94.459,198.593 95.03,198.992C95.315,199.221 95.658,199.449 95.944,199.678C98.628,201.619 101.54,203.218 104.623,204.474C106.051,205.045 107.479,205.559 109.02,206.016C110.22,206.359 111.419,206.644 112.675,206.873C112.961,206.93 113.189,206.987 113.474,207.044C114.788,207.329 116.101,207.501 117.472,207.672C119.413,207.843 121.412,207.957 123.41,207.957L130.034,207.957C133.689,207.957 137.172,207.615 140.542,206.987C141.17,206.815 141.855,206.701 142.54,206.53C143.225,206.358 143.911,206.13 144.653,205.959L144.71,205.959C145.795,205.616 146.823,205.273 147.851,204.874C148.136,204.759 148.422,204.645 148.765,204.531L148.765,204.36C148.993,204.245 149.221,204.131 149.45,204.074C151.905,202.875 154.246,201.561 156.474,200.02C157.33,199.391 158.187,198.706 159.043,198.078C161.841,195.794 164.24,193.395 166.181,190.826C166.581,190.255 166.923,189.684 167.266,189.113C169.379,185.915 170.807,182.489 171.549,178.891C171.834,177.463 172.063,175.979 172.177,174.494C172.177,173.752 172.177,173.066 172.177,172.324L172.234,170.497L172.234,147.141L172.291,147.141L172.291,147.143ZM104.109,155.251C104.052,154.795 104.224,154.395 104.623,154.052C104.909,153.767 105.309,153.595 105.765,153.595L114.445,153.595C114.902,153.595 115.302,153.767 115.644,154.052C115.93,154.395 116.101,154.794 116.158,155.251C116.101,155.708 115.93,156.108 115.644,156.393C115.302,156.736 114.902,156.907 114.445,156.964L105.765,156.964C105.309,156.907 104.909,156.736 104.623,156.393C104.224,156.108 104.052,155.708 104.109,155.251ZM123.582,164.616C122.839,163.931 122.497,163.132 122.497,162.161L122.497,156.165C122.497,155.194 122.839,154.338 123.582,153.71C124.21,152.967 125.066,152.625 126.037,152.682C127.008,152.625 127.807,152.967 128.55,153.71C129.178,154.338 129.521,155.194 129.521,156.165L129.521,162.161C129.521,163.132 129.178,163.931 128.55,164.616C127.807,165.302 127.008,165.644 126.037,165.644C125.066,165.644 124.21,165.301 123.582,164.616ZM136.773,154.052C137.058,153.767 137.458,153.595 137.915,153.595L146.652,153.595C147.051,153.595 147.451,153.767 147.851,154.052C148.136,154.395 148.308,154.794 148.308,155.251C148.308,155.708 148.136,156.108 147.851,156.393C147.451,156.736 147.051,156.907 146.652,156.964L137.915,156.964C137.458,156.907 137.058,156.736 136.773,156.393C136.373,156.108 136.202,155.708 136.259,155.251C136.202,154.794 136.373,154.395 136.773,154.052ZM144.253,169.527C143.796,173.011 142.426,176.094 140.199,178.892C139.742,179.406 139.285,179.92 138.828,180.434C135.06,184.203 130.548,186.087 125.295,186.087C120.441,186.087 116.273,184.489 112.675,181.348C112.389,181.062 112.047,180.72 111.761,180.434C111.247,179.92 110.733,179.406 110.334,178.892C108.05,176.094 106.679,173.011 106.279,169.527L144.253,169.527Z" style="fill:rgb(194,131,98);fill-rule:nonzero;"/>
                <path d="M104.623,154.052C104.224,154.395 104.052,154.795 104.109,155.251C104.052,155.708 104.224,156.108 104.623,156.393C104.909,156.736 105.309,156.907 105.765,156.964L114.445,156.964C114.902,156.907 115.302,156.736 115.644,156.393C115.93,156.108 116.101,155.708 116.158,155.251C116.101,154.794 115.93,154.395 115.644,154.052C115.302,153.767 114.902,153.595 114.445,153.595L105.765,153.595C105.309,153.595 104.909,153.767 104.623,154.052Z" style="fill:rgb(75,28,2);fill-rule:nonzero;"/>
                <path d="M122.497,162.161C122.497,163.132 122.839,163.931 123.582,164.616C124.21,165.302 125.066,165.644 126.037,165.644C127.008,165.644 127.807,165.302 128.55,164.616C129.178,163.931 129.521,163.132 129.521,162.161L129.521,156.165C129.521,155.194 129.178,154.338 128.55,153.709C127.807,152.967 127.008,152.624 126.037,152.682C125.066,152.624 124.21,152.967 123.582,153.709C122.839,154.337 122.497,155.194 122.497,156.165L122.497,162.161Z" style="fill:rgb(140,80,55);fill-rule:nonzero;"/>
                <path d="M137.915,153.595C137.458,153.595 137.058,153.767 136.773,154.052C136.373,154.395 136.202,154.795 136.259,155.251C136.202,155.708 136.373,156.108 136.773,156.393C137.058,156.736 137.458,156.907 137.915,156.964L146.652,156.964C147.051,156.907 147.451,156.736 147.851,156.393C148.136,156.108 148.308,155.708 148.308,155.251C148.308,154.794 148.136,154.395 147.851,154.052C147.451,153.767 147.051,153.595 146.652,153.595L137.915,153.595Z" style="fill:rgb(75,28,2);fill-rule:nonzero;"/>
                <path d="M140.199,178.892C142.426,176.094 143.796,173.011 144.253,169.527L106.279,169.527C106.679,173.011 108.05,176.094 110.334,178.892C110.733,179.406 111.247,179.92 111.761,180.434C112.047,180.72 112.389,181.062 112.675,181.348C116.273,184.488 120.441,186.087 125.295,186.087C130.548,186.087 135.06,184.203 138.828,180.434C139.285,179.92 139.742,179.406 140.199,178.892Z" style="fill:white;fill-rule:nonzero;"/>
                <path d="M76.414,150.398C75.786,150.797 75.158,151.254 74.53,151.768C74.301,151.939 74.073,152.168 73.844,152.396C71.389,154.852 70.133,157.878 70.133,161.419C70.076,164.902 71.332,167.928 73.844,170.441C74.073,170.612 74.301,170.841 74.53,171.069C76.414,172.668 78.527,173.639 80.925,173.981L80.925,148.799C79.269,149.027 77.785,149.541 76.414,150.397L76.414,150.398Z" style="fill:rgb(140,80,55);fill-rule:nonzero;"/>
                <path d="M123.41,207.958C121.412,207.958 119.413,207.844 117.472,207.673C116.101,207.501 114.788,207.33 113.474,207.044C113.189,206.987 112.96,206.93 112.675,206.873L112.675,231.085C113.075,231.485 113.474,231.827 113.931,232.227C117.415,235.082 121.697,236.51 126.665,236.51C131.633,236.51 135.859,235.082 139.399,232.227C139.799,231.884 140.142,231.542 140.542,231.256L140.542,206.987C137.172,207.615 133.689,207.958 130.034,207.958L123.41,207.958Z" style="fill:rgb(140,80,55);fill-rule:nonzero;"/>
                <path d="M144.71,206.245L144.653,205.959C143.911,206.131 143.225,206.359 142.54,206.53C141.855,206.702 141.17,206.816 140.542,206.987L140.542,243.876C141.855,241.649 143.283,240.279 144.767,239.651C147.337,238.623 150.135,240.05 153.161,243.99L153.161,220.121C153.104,218.693 152.99,217.323 152.762,216.009C152.134,211.841 150.478,208.129 147.851,204.874C146.823,205.274 145.795,205.617 144.71,205.959L144.71,206.245ZM144.71,221.149L144.71,220.521L144.767,221.149L144.767,224.632L144.71,224.632L144.71,221.149Z" style="fill:rgb(31,88,48);fill-rule:nonzero;"/>
                <path d="M144.71,221.149L144.767,221.149L144.71,220.521L144.71,221.149Z" style="fill:rgb(75,28,2);fill-rule:nonzero;"/>
                <rect x="144.71" y="221.149" width="0.057" height="3.483" style="fill:rgb(44,130,69);fill-rule:nonzero;"/>
                <path d="M144.653,205.96L144.71,206.245L144.71,205.959L144.653,205.959L144.653,205.96Z" style="fill:rgb(140,80,55);fill-rule:nonzero;"/>
                <path d="M156.645,219.208C155.446,218.008 154.132,216.923 152.762,216.01C152.99,217.323 153.104,218.694 153.161,220.121L153.161,243.99C150.135,240.05 147.337,238.623 144.767,239.651C143.283,240.279 141.855,241.649 140.542,243.876L140.542,303.378L164.525,303.378L164.468,263.234L164.354,263.234L164.354,239.993C164.354,239.707 164.354,239.479 164.354,239.251C164.297,238.28 164.24,237.366 164.068,236.51L164.354,236.452C164.011,229.771 161.441,224.061 156.645,219.207L156.645,219.208ZM140.941,267.403C140.941,267.346 140.941,267.232 140.998,267.175L141.113,267.346C141.056,267.346 140.998,267.346 140.941,267.403ZM159.443,291.901L159.386,291.9L159.386,291.387L159.443,291.9L159.443,291.901Z" style="fill:rgb(44,130,69);fill-rule:nonzero;"/>
                <path d="M159.386,291.901L159.443,291.9L159.386,291.387L159.386,291.901Z" style="fill:rgb(255,189,145);fill-rule:nonzero;"/>
                <path d="M112.675,206.873C111.419,206.645 110.22,206.359 109.02,206.017C107.479,205.56 106.051,205.046 104.623,204.475C100.969,208.758 99.084,213.783 99.027,219.55C98.97,219.721 98.97,219.95 99.027,220.121L99.027,244.333C102.396,240.164 105.823,239.079 109.249,241.135C110.391,241.82 111.533,242.905 112.675,244.333L112.675,231.085L112.675,206.873Z" style="fill:rgb(31,88,48);fill-rule:nonzero;"/>
                <path d="M99.027,219.55C98.513,219.95 97.999,220.407 97.485,220.921C93.431,224.975 91.033,229.657 90.176,235.082L90.233,235.139C90.176,235.311 90.119,235.482 90.062,235.71C90.005,235.939 89.948,236.224 89.891,236.51C89.662,237.709 89.548,238.965 89.605,240.279L89.605,263.234L89.491,263.234L89.434,303.378L112.732,303.378L112.732,268.259L112.732,263.634L112.675,244.333C111.533,242.905 110.391,241.82 109.249,241.135C105.823,239.079 102.396,240.164 99.027,244.333L99.027,220.121C98.97,219.949 98.97,219.721 99.027,219.55Z" style="fill:rgb(44,130,69);fill-rule:nonzero;"/>
                <path d="M112.675,231.085L112.675,244.333L112.732,263.634C112.846,264.148 112.96,264.719 113.132,265.29C113.246,265.633 113.36,266.032 113.474,266.432C113.703,267.231 113.931,268.088 114.217,268.945C113.703,268.716 113.189,268.488 112.732,268.259L112.732,303.378L140.542,303.378L140.542,243.876L140.542,231.256C140.142,231.541 139.799,231.884 139.399,232.227C135.859,235.082 131.633,236.509 126.665,236.509C121.697,236.509 117.415,235.082 113.931,232.227C113.474,231.827 113.075,231.484 112.675,231.085Z" style="fill:white;fill-rule:nonzero;"/>
                <path d="M172.177,172.325L172.234,172.325L172.234,170.498L172.177,172.325Z" style="fill:rgb(75,28,2);fill-rule:nonzero;"/>
                <path d="M148.65,51.665L149.507,51.78C149.45,51.723 149.45,51.723 149.507,51.665C149.221,51.665 148.936,51.665 148.65,51.665Z" style="fill:rgb(253,219,218);fill-rule:nonzero;"/>
                <path d="M223.834,265.197L236.916,265.197C236.2,274.179 232.555,281.989 225.916,288.628C218.561,295.983 209.645,299.693 199.296,299.693C188.947,299.693 180.03,295.983 172.61,288.628C165.255,281.208 161.545,272.291 161.545,261.942L161.545,233.304C161.545,231.547 162.196,229.984 163.433,228.748C164.735,227.446 166.297,226.795 168.054,226.795C169.811,226.795 171.373,227.446 172.61,228.748C173.912,229.984 174.563,231.547 174.563,233.304L174.563,261.942C174.563,268.776 176.971,274.569 181.787,279.45C186.669,284.267 192.462,286.675 199.296,286.675C206.13,286.675 211.923,284.267 216.739,279.45C220.84,275.35 223.183,270.599 223.834,265.196L223.834,265.197Z" style="fill:rgb(27,75,40);fill-rule:nonzero;"/>
                <path d="M171.303,201.755C164.989,201.951 161.865,205.27 161.8,211.714L161.8,263.328C161.865,269.771 164.989,273.156 171.303,273.351L167.658,273.351C161.019,273.286 157.699,269.967 157.634,263.328L157.634,211.714C157.699,205.075 161.019,201.755 167.658,201.755L171.303,201.755Z" style="fill:rgb(115,115,117);fill-rule:nonzero;"/>
                <path d="M161.8,211.714C161.865,205.27 164.989,201.951 171.303,201.755L250.448,201.755C257.087,201.755 260.407,205.075 260.407,211.714L260.407,263.328C260.407,269.967 257.087,273.286 250.448,273.351L171.303,273.351C164.989,273.156 161.865,269.771 161.8,263.328L161.8,211.714ZM216.343,241.589C217.449,240.677 217.97,239.571 217.905,238.269C217.97,237.033 217.449,235.926 216.343,235.08C215.301,234.169 214.065,233.713 212.633,233.713C211.201,233.713 209.964,234.169 208.858,235.08C207.816,235.926 207.296,237.033 207.296,238.269C207.296,239.571 207.816,240.677 208.858,241.589C209.964,242.5 211.201,242.956 212.633,242.956C214.065,242.956 215.301,242.5 216.343,241.589Z" style="fill:rgb(36,35,77);fill-rule:nonzero;"/>
                <path d="M217.905,238.269C217.97,239.571 217.449,240.677 216.343,241.589C215.301,242.5 214.065,242.955 212.633,242.955C211.201,242.955 209.964,242.5 208.858,241.589C207.816,240.677 207.296,239.571 207.296,238.269C207.296,237.033 207.816,235.926 208.858,235.08C209.964,234.169 211.201,233.713 212.633,233.713C214.065,233.713 215.301,234.169 216.343,235.08C217.449,235.926 217.97,237.033 217.905,238.269Z" style="fill:rgb(115,115,117);fill-rule:nonzero;"/>
                <path d="M186.342,226.131C185.371,225.16 184.229,224.646 182.858,224.646L176.863,224.646C176.805,224.703 176.691,224.818 176.634,224.875L176.634,224.646L165.099,224.646C164.699,224.646 164.3,224.703 163.9,224.76C163.729,224.818 163.557,224.875 163.386,224.932C162.986,225.046 162.644,225.16 162.358,225.274L162.244,225.331C162.073,225.331 161.958,225.389 161.844,225.446L161.045,226.131L161.73,225.503C160.931,225.788 160.188,226.074 159.56,226.474C156.591,228.015 154.935,230.185 154.535,232.869C154.478,233.04 154.364,233.269 154.307,233.44C154.249,233.669 154.135,233.897 154.078,234.125L154.307,258.68C154.307,259.993 154.249,261.25 154.078,262.506L169.439,262.506C169.496,261.25 169.553,259.993 169.553,258.68L169.553,254.968L181.945,254.968C183.372,254.968 184.514,254.511 185.485,253.598C186.456,252.57 186.97,251.371 187.027,250L187.027,249.829C186.97,248.401 186.456,247.259 185.485,246.346C184.743,245.603 183.943,245.089 182.973,244.918C182.801,244.918 182.687,244.918 182.516,244.975C182.516,244.918 182.516,244.861 182.573,244.861C182.687,244.861 182.801,244.861 182.972,244.918C184.172,244.804 185.2,244.347 186.056,243.548C187.027,242.52 187.541,241.32 187.541,239.893L187.541,239.779C187.541,238.694 187.255,237.723 186.627,236.924C186.456,236.695 186.227,236.467 186.056,236.295C185.2,235.382 184.115,234.868 182.858,234.811C184.229,234.754 185.371,234.297 186.342,233.383C187.312,232.355 187.826,231.156 187.826,229.728L187.826,229.671C187.826,228.244 187.312,227.102 186.342,226.131Z" style="fill:rgb(194,131,98);fill-rule:nonzero;"/>
                <path d="M125.241,287.689C117.246,287.689 110.394,284.833 104.741,279.18C99.03,273.47 96.175,266.617 96.232,258.68L96.232,235.153C96.175,233.04 95.433,231.213 93.948,229.728C92.463,228.244 90.693,227.501 88.58,227.501C86.467,227.501 84.64,228.244 83.213,229.728C81.671,231.213 80.928,233.04 80.928,235.153L80.928,258.68C80.928,270.843 85.268,281.293 93.948,289.973C102.628,298.653 113.078,302.992 125.241,302.992C137.404,302.992 147.854,298.653 156.534,289.973C164.3,282.207 168.582,273.07 169.439,262.506L154.078,262.506C153.279,268.844 150.538,274.441 145.798,279.18C140.088,284.833 133.235,287.689 125.241,287.689Z" style="fill:rgb(31,88,48);fill-rule:nonzero;"/>
                <path d="M250.431,224.646C248.956,224.646 247.692,225.208 246.708,226.262C245.654,227.175 245.163,228.439 245.163,229.914L245.163,229.985C245.163,231.46 245.654,232.724 246.708,233.778C247.692,234.761 248.956,235.253 250.431,235.323C249.096,235.393 247.902,235.885 246.989,236.868C246.778,237.079 246.568,237.29 246.427,237.501C245.795,238.344 245.444,239.327 245.514,240.521L245.514,240.662C245.444,242.137 245.935,243.401 246.989,244.455C247.902,245.368 248.956,245.859 250.291,245.93C250.431,245.859 250.572,245.859 250.712,245.789C250.712,245.859 250.712,245.859 250.712,245.93C250.572,245.93 250.431,245.93 250.291,245.93C249.237,246.14 248.394,246.632 247.692,247.405C246.638,248.388 246.076,249.582 246.076,251.057L246.076,251.198C246.076,252.673 246.638,253.937 247.692,254.991C248.675,255.904 249.869,256.396 251.344,256.396L261.6,256.396C263.075,256.396 264.269,255.904 265.322,254.991C266.376,253.937 266.868,252.673 266.938,251.198L266.938,251.057C266.868,249.582 266.376,248.388 265.322,247.405C264.55,246.632 263.707,246.14 262.723,245.93C262.513,245.93 262.372,245.93 262.232,245.93C262.232,245.859 262.232,245.859 262.302,245.789C262.372,245.859 262.513,245.859 262.724,245.93C263.988,245.859 265.042,245.368 265.955,244.455C267.008,243.401 267.5,242.137 267.5,240.662L267.5,240.521C267.5,239.327 267.149,238.344 266.517,237.501C266.376,237.29 266.165,237.079 265.955,236.868C265.042,235.885 263.918,235.393 262.583,235.323C264.058,235.253 265.252,234.761 266.236,233.778C267.289,232.724 267.781,231.46 267.781,229.985L267.781,229.914C267.781,228.439 267.289,227.175 266.236,226.262C265.252,225.208 264.058,224.646 262.583,224.646L250.431,224.646Z" style="fill:rgb(202,134,100);fill-rule:nonzero;"/>
            </g>
        </g>
    </g>
</svg>
