<?xml version="1.0" encoding="UTF-8" standalone="no"?>
<!DOCTYPE svg PUBLIC "-//W3C//DTD SVG 1.1//EN" "http://www.w3.org/Graphics/SVG/1.1/DTD/svg11.dtd">
<svg width="100%" height="100%" viewBox="0 0 246 185" version="1.1" xmlns="http://www.w3.org/2000/svg" xmlns:xlink="http://www.w3.org/1999/xlink" xml:space="preserve" style="fill-rule:evenodd;clip-rule:evenodd;stroke-linecap:round;stroke-linejoin:round;stroke-miterlimit:1.41421;">
    <g transform="matrix(1,0,0,1,-2508,-325)">
        <g transform="matrix(1,0,0,1,0,-162)">
            <g id="Ninja-Male-2-Laptop-Sitting" transform="matrix(1,0,0,1,2123.89,366.299)">
                <path d="M490.742,191.657C490.611,189.242 489.893,187.022 488.653,185.129C488.131,184.411 487.543,183.693 486.89,183.04C486.564,182.714 486.303,182.453 486.042,182.257C485.193,181.604 484.279,181.082 483.3,180.69C483.104,180.56 482.908,180.494 482.712,180.429C481.407,179.907 480.036,179.646 478.535,179.646L477.882,179.646L477.816,179.646C477.621,179.711 477.425,179.711 477.229,179.776L477.882,204.322C478.012,204.256 478.143,204.256 478.274,204.322C478.469,204.256 478.73,204.256 478.926,204.322C480.297,204.256 481.538,204.06 482.713,203.603C482.908,203.538 483.104,203.408 483.3,203.342C484.802,202.69 486.172,201.71 487.413,200.47C487.87,199.883 488.261,199.36 488.653,198.773C490.089,196.684 490.807,194.334 490.742,191.657Z" style="fill:rgb(217,115,72);fill-rule:nonzero;"/>
                <path d="M478.926,140.151C478.469,139.433 477.947,138.781 477.49,138.193C477.033,137.606 476.576,137.018 476.119,136.43C474.487,134.603 472.594,132.84 470.505,131.208C470.113,130.882 469.722,130.621 469.395,130.294C468.22,129.38 466.98,128.532 465.74,127.814C465.022,127.422 464.369,127.03 463.651,126.704C463.128,126.377 462.606,126.116 462.149,125.92C455.425,122.722 447.984,121.351 439.693,121.743C439.301,121.743 438.91,121.743 438.583,121.743C438.192,121.808 437.8,121.808 437.474,121.873C433.23,122.004 429.183,122.591 425.397,123.701C423.308,124.288 421.284,125.007 419.326,125.92C418.934,126.116 418.542,126.312 418.151,126.508C414.299,128.401 410.774,130.816 407.575,133.819C399.546,141.326 395.694,150.205 396.086,160.453L396.086,184.085L396.674,184.085C396.739,184.02 396.87,184.02 396.935,184.085L396.217,184.085C397.327,184.085 398.11,184.085 398.567,184.085C398.697,184.085 398.828,184.085 398.959,184.15C399.024,184.15 399.089,184.15 399.154,184.215C399.611,184.281 400.068,184.346 400.525,184.476C402.614,185.064 404.507,186.174 406.139,187.871C406.205,187.936 406.335,188.002 406.4,188.067L431.99,152.032L430.228,176.251C439.302,173.314 446.809,168.026 452.619,160.519C453.533,159.344 454.446,158.103 455.295,156.798L469.2,177.753C469.265,177.687 469.33,177.622 469.396,177.557C471.942,175.337 474.226,172.922 476.119,170.376C476.576,169.788 476.968,169.136 477.425,168.483C477.49,168.418 477.49,168.352 477.556,168.287C478.013,167.504 478.47,166.72 478.926,165.937C484.345,156.994 484.345,148.442 478.926,140.151Z" style="fill:rgb(117,76,36);fill-rule:nonzero;"/>
                <path d="M455.295,156.798C454.446,158.103 453.532,159.344 452.618,160.519C446.808,168.026 439.301,173.314 430.227,176.251L431.99,152.032L406.4,188.067C406.335,188.002 406.204,187.936 406.139,187.871C404.507,186.174 402.614,185.064 400.525,184.476C400.068,184.346 399.611,184.281 399.154,184.215C399.089,184.15 399.024,184.15 398.958,184.15C398.828,184.085 398.697,184.085 398.567,184.085C398.11,184.085 397.326,184.085 396.217,184.085C396.151,184.085 396.151,184.085 396.086,184.085C393.018,184.346 390.407,185.586 388.187,187.871C385.707,190.417 384.466,193.42 384.466,197.01C384.466,200.47 385.641,203.473 387.991,205.954C388.057,206.019 388.122,206.084 388.187,206.149C390.668,208.63 393.671,209.87 397.196,209.87C398.567,209.87 399.872,209.674 401.113,209.348C401.504,211.437 402.092,213.461 402.875,215.354C402.875,215.419 402.875,215.419 402.941,215.484C402.941,215.55 402.941,215.55 403.006,215.615C403.985,218.096 405.291,220.511 406.792,222.796C407.51,223.775 408.228,224.819 409.077,225.799C410.121,227.039 411.231,228.279 412.472,229.52L412.472,229.585C414.299,231.282 416.192,232.784 418.151,234.154C419.522,235.003 420.958,235.852 422.459,236.57C422.851,236.766 423.243,236.961 423.7,237.157C424.352,237.484 425.005,237.745 425.658,238.006C426.115,238.202 426.572,238.332 427.094,238.528L428.857,238.92L432.186,239.768C433.296,239.964 434.406,240.095 435.515,240.225L442.37,240.225C444.981,240.029 447.462,239.638 449.877,238.985C450.921,238.659 451.966,238.332 453.01,238.006C453.598,237.745 454.186,237.484 454.773,237.222C455.687,236.831 456.601,236.374 457.515,235.917C457.58,235.852 457.645,235.852 457.711,235.852C459.8,234.677 461.758,233.306 463.651,231.804C464.369,231.217 465.022,230.564 465.74,229.911C465.936,229.715 466.067,229.585 466.262,229.389C466.719,228.932 467.242,228.41 467.764,227.887C468.351,227.3 468.874,226.647 469.396,226.06C470.571,224.623 471.615,223.187 472.529,221.751C473.574,220.119 474.488,218.422 475.206,216.725C475.271,216.659 475.271,216.594 475.336,216.529C475.598,215.811 475.859,215.158 476.12,214.505C476.446,213.526 476.773,212.481 477.099,211.502C477.687,209.217 478.078,206.802 478.274,204.387L477.882,204.321L477.23,179.776C477.425,179.711 477.621,179.711 477.817,179.645L477.882,179.645L477.556,168.287C477.491,168.352 477.491,168.417 477.425,168.483C476.969,169.135 476.577,169.788 476.12,170.376C474.227,172.922 471.942,175.337 469.396,177.556C469.331,177.622 469.266,177.687 469.2,177.752L455.296,156.797L455.295,156.798ZM434.471,187.936C434.732,187.675 435.058,187.545 435.384,187.545L442.108,187.545C442.435,187.545 442.761,187.675 442.957,187.936C443.218,188.197 443.349,188.524 443.414,188.85C443.349,189.177 443.218,189.503 442.957,189.764C442.761,190.025 442.435,190.156 442.108,190.221L435.385,190.221C435.058,190.156 434.732,190.025 434.471,189.764C434.209,189.503 434.079,189.177 434.079,188.85C434.079,188.524 434.209,188.197 434.471,187.936ZM420.827,206.867C420.631,205.366 420.566,203.93 420.762,202.494C420.958,200.535 421.48,198.577 422.328,196.684C422.524,196.227 422.72,195.835 422.981,195.509L460.06,212.677C459.864,213.134 459.669,213.526 459.473,213.983C458.624,215.876 457.58,217.573 456.274,219.009C454.25,221.164 451.639,222.796 448.441,223.905C447.331,224.232 446.286,224.558 445.177,224.754C441.064,225.472 437.017,224.95 432.904,223.057C429.444,221.425 426.637,219.14 424.548,216.268C424.418,216.072 424.287,215.876 424.222,215.68C423.373,214.44 422.72,213.134 422.133,211.763C421.48,210.131 421.023,208.499 420.827,206.867ZM395.955,192.506C397.261,192.441 398.436,192.832 399.415,193.746C400.264,194.595 400.786,195.639 400.982,196.88C400.917,196.945 400.917,197.075 400.982,197.141C400.982,198.512 400.525,199.687 399.677,200.666C398.763,201.645 397.653,202.102 396.347,202.167C394.976,202.232 393.801,201.776 392.822,200.927C392.757,200.796 392.626,200.666 392.561,200.6C391.778,199.752 391.386,198.773 391.321,197.532C391.255,196.161 391.712,194.986 392.561,194.007C393.475,193.028 394.585,192.571 395.956,192.506L395.955,192.506ZM463.846,188.85C463.781,189.177 463.651,189.503 463.39,189.764C463.128,190.025 462.802,190.156 462.476,190.221L455.817,190.221C455.425,190.156 455.099,190.025 454.838,189.764C454.577,189.503 454.446,189.177 454.446,188.85C454.446,188.524 454.577,188.197 454.838,187.936C455.099,187.675 455.425,187.545 455.817,187.545L462.476,187.545C462.802,187.545 463.128,187.675 463.39,187.936C463.651,188.197 463.781,188.524 463.847,188.85L463.846,188.85ZM460.844,192.571C460.778,192.636 460.778,192.636 460.778,192.702L460.778,192.767C460.713,192.636 460.778,192.571 460.844,192.571Z" style="fill:rgb(248,156,118);fill-rule:nonzero;"/>
                <path d="M435.384,187.545C435.058,187.545 434.732,187.675 434.471,187.936C434.209,188.197 434.079,188.524 434.079,188.85C434.079,189.177 434.209,189.503 434.471,189.764C434.732,190.025 435.058,190.156 435.384,190.221L442.108,190.221C442.435,190.156 442.761,190.025 442.957,189.764C443.218,189.503 443.349,189.177 443.414,188.85C443.349,188.524 443.218,188.197 442.957,187.936C442.761,187.675 442.435,187.545 442.108,187.545L435.385,187.545L435.384,187.545Z" style="fill:rgb(75,28,2);fill-rule:nonzero;"/>
                <path d="M420.762,202.494C420.566,203.93 420.631,205.366 420.827,206.867C421.023,208.499 421.48,210.131 422.133,211.763C422.72,213.134 423.373,214.44 424.222,215.68C424.287,215.876 424.417,216.072 424.548,216.268C424.613,216.202 424.679,216.137 424.744,216.072C425.854,214.766 427.42,213.852 429.379,213.395C432.186,212.612 434.993,212.873 437.865,214.179C439.758,215.027 441.26,216.202 442.5,217.573C443.153,218.357 443.74,219.205 444.197,220.184C444.916,221.751 445.242,223.253 445.177,224.754C446.286,224.558 447.331,224.232 448.441,223.905C451.639,222.796 454.251,221.164 456.274,219.009L420.762,202.494Z" style="fill:rgb(175,74,62);fill-rule:nonzero;"/>
                <path d="M422.981,195.509C422.72,195.835 422.524,196.227 422.329,196.684C421.48,198.577 420.958,200.535 420.762,202.494L456.274,219.01C457.58,217.573 458.624,215.876 459.473,213.983C459.669,213.526 459.864,213.134 460.06,212.677L422.981,195.509Z" style="fill:white;fill-rule:nonzero;"/>
                <path d="M424.548,216.268C426.637,219.14 429.444,221.425 432.904,223.057C437.016,224.95 441.064,225.472 445.176,224.754C445.242,223.253 444.915,221.751 444.197,220.184C443.74,219.205 443.153,218.357 442.5,217.573C441.26,216.202 439.758,215.027 437.865,214.179C434.993,212.873 432.186,212.612 429.379,213.395C427.421,213.852 425.854,214.766 424.744,216.072C424.679,216.137 424.614,216.202 424.548,216.268Z" style="fill:rgb(227,121,96);fill-rule:nonzero;"/>
                <path d="M399.415,193.746C398.436,192.832 397.261,192.441 395.955,192.506C394.585,192.571 393.475,193.028 392.561,194.007C391.712,194.987 391.255,196.162 391.321,197.532C391.386,198.773 391.778,199.752 392.561,200.601C392.626,200.666 392.757,200.796 392.822,200.927C393.801,201.776 394.976,202.233 396.347,202.167C397.653,202.102 398.763,201.645 399.676,200.666C400.525,199.686 400.982,198.511 400.982,197.141C400.917,197.075 400.917,196.945 400.982,196.879C400.786,195.639 400.264,194.595 399.415,193.746Z" style="fill:rgb(217,115,72);fill-rule:nonzero;"/>
                <path d="M463.39,189.764C463.651,189.503 463.781,189.177 463.846,188.85C463.781,188.524 463.651,188.197 463.39,187.936C463.128,187.675 462.802,187.545 462.476,187.545L455.817,187.545C455.425,187.545 455.099,187.675 454.838,187.936C454.577,188.197 454.446,188.524 454.446,188.85C454.446,189.177 454.577,189.503 454.838,189.764C455.099,190.025 455.425,190.156 455.817,190.221L462.476,190.221C462.802,190.156 463.128,190.025 463.39,189.764Z" style="fill:rgb(75,28,2);fill-rule:nonzero;"/>
                <path d="M396.217,184.085L396.935,184.085C396.869,184.02 396.739,184.02 396.674,184.085L396.217,184.085Z" style="fill:rgb(248,156,118);fill-rule:nonzero;"/>
                <path d="M405.225,231.021L405.225,231.086C405.225,237.092 407.314,242.184 411.557,246.427C412.21,247.145 412.863,247.733 413.581,248.32C413.646,248.385 413.777,248.516 413.907,248.581L413.255,248.581C410.317,249.952 407.51,251.845 404.964,254.195C398.828,260.005 395.76,266.99 395.76,275.085L395.76,304.722L482.778,304.722L482.778,302.764L512.023,302.764L512.023,293.951L487.086,293.951C487.021,293.755 487.021,293.559 487.086,293.363C487.021,293.233 487.021,293.102 487.086,293.037C487.152,287.945 488.98,283.571 492.57,279.981C493.353,279.197 494.137,278.545 494.985,277.957L482.843,277.957L482.843,273.779C482.778,265.685 479.71,258.7 473.574,252.89C471.811,251.258 469.918,249.822 467.96,248.712C467.894,248.647 467.503,248.385 466.719,247.928L465.805,248.581C466.132,248.385 466.393,248.124 466.719,247.928C467.241,247.471 467.764,246.949 468.286,246.427C468.678,246.035 469.069,245.644 469.396,245.187C472.856,241.205 474.553,236.504 474.553,231.086L474.553,231.021C474.488,227.626 473.835,224.558 472.529,221.751C471.615,223.187 470.571,224.623 469.396,226.06C468.874,226.647 468.351,227.3 467.764,227.887C467.242,228.41 466.719,228.932 466.262,229.389C466.262,229.846 466.262,230.237 466.328,230.694C466.328,234.546 464.957,237.875 462.28,240.617C461.04,241.857 459.734,242.771 458.298,243.424C456.536,244.273 454.577,244.73 452.423,244.73L449.877,244.73L428.857,244.73L426.311,244.73C424.81,244.73 423.439,244.534 422.199,244.142C420.044,243.489 418.151,242.314 416.519,240.617C413.778,237.875 412.407,234.546 412.407,230.694C412.407,230.303 412.407,229.911 412.472,229.585L412.472,229.519C411.232,228.279 410.122,227.039 409.077,225.798C408.229,224.819 407.511,223.775 406.793,222.795C405.748,225.341 405.226,228.083 405.226,231.021L405.225,231.021ZM436.56,251.193L438.779,251.193L438.779,273.257C438.779,273.453 438.714,273.584 438.648,273.779C438.714,273.845 438.844,273.975 438.975,274.04C439.432,274.497 439.628,275.02 439.693,275.607C439.693,276.129 439.497,276.586 439.171,276.978C439.105,277.043 439.105,277.043 439.105,277.109C438.714,277.566 438.192,277.761 437.604,277.827C437.147,277.827 436.821,277.761 436.494,277.566C436.299,277.5 436.168,277.37 436.037,277.239C435.972,277.174 435.907,277.043 435.842,276.978C435.58,276.652 435.45,276.325 435.385,275.999C435.385,275.934 435.385,275.803 435.385,275.738C435.319,275.542 435.319,275.411 435.385,275.281C435.45,274.889 435.646,274.563 435.907,274.236C436.103,274.04 436.299,273.845 436.494,273.779C436.494,273.714 436.56,273.714 436.625,273.649C436.56,273.518 436.56,273.388 436.56,273.257L436.56,251.192L436.56,251.193ZM442.892,251.193L445.046,251.193L445.046,273.257C445.046,273.388 445.046,273.518 444.981,273.649C445.046,273.649 445.046,273.649 445.111,273.649C445.307,273.714 445.568,273.845 445.764,274.04C446.221,274.497 446.417,275.02 446.482,275.607C446.482,276.129 446.352,276.586 446.025,276.978C445.96,277.043 445.96,277.043 445.895,277.109C445.503,277.566 444.981,277.761 444.393,277.827C443.806,277.827 443.349,277.631 442.892,277.239C442.761,277.174 442.696,277.043 442.631,276.978C442.304,276.652 442.174,276.195 442.174,275.738C442.108,275.15 442.304,274.693 442.696,274.236C442.761,274.106 442.892,274.04 443.022,273.975C442.892,273.779 442.827,273.518 442.892,273.257L442.892,251.192L442.892,251.193ZM455.817,274.497C456.274,274.432 457.253,274.432 458.755,274.497C461.431,274.432 463.977,274.954 466.327,275.999C468.416,276.847 470.309,278.218 472.072,279.981C472.725,280.568 473.312,281.287 473.834,282.005C474.03,282.2 474.161,282.396 474.291,282.592C476.446,285.66 477.555,289.12 477.621,293.037L477.621,293.951L439.824,293.951L439.824,293.037C439.889,287.945 441.782,283.571 445.372,279.981C447.984,277.37 451.444,275.542 455.817,274.497ZM503.21,298.847L473.182,298.847L503.21,298.847Z" style="fill:rgb(0,147,213);fill-rule:nonzero;"/>
                <path d="M438.779,251.193L436.56,251.193L436.56,273.257C436.56,273.388 436.56,273.518 436.625,273.649C436.886,273.584 437.147,273.518 437.474,273.518C437.8,273.453 438.061,273.518 438.322,273.649C438.387,273.714 438.518,273.714 438.649,273.779C438.714,273.584 438.779,273.453 438.779,273.257L438.779,251.193Z" style="fill:white;fill-rule:nonzero;"/>
                <path d="M438.322,273.649C438.061,273.518 437.8,273.453 437.473,273.518C437.147,273.518 436.886,273.584 436.625,273.649C436.56,273.714 436.494,273.714 436.494,273.779C436.298,273.845 436.103,274.04 435.907,274.236C435.646,274.563 435.45,274.889 435.385,275.281C435.319,275.411 435.319,275.542 435.385,275.738C435.385,275.803 435.385,275.934 435.385,275.999C435.45,276.325 435.58,276.652 435.841,276.978C435.907,277.043 435.972,277.174 436.037,277.239C436.168,277.37 436.298,277.5 436.494,277.566C436.821,277.761 437.147,277.827 437.604,277.827C438.192,277.761 438.714,277.566 439.106,277.109C439.106,277.043 439.106,277.043 439.171,276.978C439.497,276.586 439.693,276.129 439.693,275.607C439.628,275.02 439.432,274.497 438.975,274.04C438.844,273.975 438.714,273.845 438.649,273.779C438.518,273.714 438.388,273.714 438.322,273.649Z" style="fill:rgb(1,78,109);fill-rule:nonzero;"/>
                <path d="M445.046,251.193L442.892,251.193L442.892,273.257C442.826,273.518 442.892,273.779 443.022,273.975C443.153,273.845 443.283,273.714 443.414,273.649C443.675,273.584 443.936,273.518 444.263,273.518C444.524,273.518 444.785,273.584 444.981,273.649C445.046,273.518 445.046,273.388 445.046,273.257L445.046,251.193Z" style="fill:white;fill-rule:nonzero;"/>
                <path d="M444.981,273.649C444.785,273.584 444.524,273.518 444.263,273.518C443.936,273.518 443.675,273.584 443.414,273.649C443.283,273.714 443.153,273.845 443.022,273.975C442.892,274.04 442.761,274.106 442.696,274.236C442.304,274.693 442.108,275.15 442.174,275.738C442.174,276.195 442.304,276.652 442.631,276.978C442.696,277.043 442.761,277.174 442.892,277.239C443.349,277.631 443.806,277.827 444.393,277.827C444.981,277.761 445.503,277.566 445.895,277.109C445.96,277.043 445.96,277.043 446.025,276.978C446.352,276.586 446.482,276.129 446.482,275.607C446.417,275.02 446.221,274.497 445.764,274.04C445.568,273.845 445.307,273.714 445.111,273.649C445.046,273.649 445.046,273.649 444.981,273.649Z" style="fill:rgb(1,78,109);fill-rule:nonzero;"/>
                <path d="M458.755,274.497C457.253,274.432 456.274,274.432 455.817,274.497C451.443,275.542 447.984,277.37 445.372,279.981C441.782,283.571 439.889,287.945 439.824,293.037L439.824,293.951L477.621,293.951L477.621,293.037C477.555,289.12 476.446,285.66 474.291,282.592C474.161,282.396 474.03,282.2 473.834,282.005C473.312,281.287 472.725,280.568 472.072,279.981C470.309,278.218 468.416,276.847 466.327,275.999C463.977,274.954 461.431,274.432 458.755,274.497Z" style="fill:rgb(248,156,118);fill-rule:nonzero;"/>
                <path d="M418.151,234.154C416.192,232.784 414.299,231.282 412.471,229.585C412.406,229.911 412.406,230.303 412.406,230.695C412.406,234.546 413.777,237.875 416.519,240.617C418.151,242.314 420.044,243.489 422.198,244.142C423.438,244.534 424.809,244.73 426.311,244.73L428.857,244.73L428.857,238.92L427.094,238.528C426.572,238.332 426.115,238.202 425.658,238.006C425.005,237.745 424.352,237.484 423.7,237.157C423.243,236.961 422.851,236.766 422.459,236.57C420.958,235.852 419.522,235.003 418.151,234.154Z" style="fill:rgb(1,78,109);fill-rule:nonzero;"/>
                <path d="M432.186,239.769L428.857,238.92L428.857,244.73L449.877,244.73L449.877,238.985C447.461,239.638 444.981,240.03 442.37,240.225L442.304,240.225L435.515,240.225C434.406,240.095 433.296,239.964 432.186,239.769Z" style="fill:rgb(217,115,72);fill-rule:nonzero;"/>
                <path d="M457.71,235.852C457.645,235.852 457.58,235.852 457.514,235.917C456.6,236.374 455.687,236.831 454.773,237.223C454.185,237.484 453.598,237.745 453.01,238.006C451.966,238.332 450.921,238.659 449.877,238.985L449.877,244.73L452.423,244.73C454.577,244.73 456.535,244.273 458.298,243.424C459.734,242.771 461.04,241.857 462.28,240.617C464.956,237.875 466.327,234.546 466.327,230.695C466.262,230.238 466.262,229.846 466.262,229.389C466.066,229.585 465.936,229.715 465.74,229.911C465.022,230.564 464.369,231.217 463.651,231.804C461.758,233.306 459.799,234.677 457.71,235.852Z" style="fill:rgb(1,78,109);fill-rule:nonzero;"/>
                <path d="M487.086,293.037C487.021,293.102 487.021,293.233 487.086,293.363C487.021,293.559 487.021,293.755 487.086,293.951L524.818,293.951C524.818,293.755 524.818,293.559 524.883,293.363C524.883,293.233 524.883,293.102 524.883,293.037C524.818,287.945 522.925,283.571 519.334,279.981C518.747,279.393 518.094,278.806 517.507,278.349C517.246,278.153 516.984,278.023 516.789,277.827C514.7,276.325 512.415,275.346 509.999,274.889L505.299,274.497C505.038,274.497 504.777,274.497 504.516,274.497C502.296,274.693 500.273,275.15 498.38,275.999C497.27,276.456 496.16,277.109 495.181,277.827C495.116,277.892 495.05,277.892 494.985,277.957C494.136,278.545 493.353,279.198 492.57,279.981C488.979,283.571 487.152,287.945 487.086,293.037Z" style="fill:rgb(217,115,72);fill-rule:nonzero;"/>
                <path d="M473.182,298.847L503.21,298.847" style="fill:none;stroke:rgb(255,181,162);stroke-width:1.31px;"/>
                <path d="M544.569,193.759L535.999,193.759C534.551,194.06 533.223,194.543 532.016,195.328C529.059,197.138 526.765,200.397 525.136,205.105L506.306,284.649C506.125,285.313 506.246,285.977 506.547,286.581C506.849,287.245 507.332,287.667 507.875,287.848C507.935,287.908 507.996,287.908 508.056,287.908L508.599,287.909C508.78,287.848 509.022,287.788 509.263,287.667C509.384,287.727 509.505,287.788 509.686,287.848C509.746,287.909 509.806,287.909 509.867,287.909L510.41,287.909C510.712,287.848 510.953,287.728 511.255,287.546C511.798,287.245 512.22,286.762 512.402,286.098L531.292,206.131C533.887,198.044 538.353,193.94 544.569,193.759Z" style="fill:rgb(115,115,117);fill-rule:nonzero;"/>
                <path d="M621.519,193.759L544.569,193.759C538.353,193.94 533.887,198.044 531.292,206.131L512.402,286.098C512.221,286.762 511.798,287.244 511.255,287.546C510.953,287.727 510.712,287.848 510.41,287.908L605.948,287.908C606.853,287.908 607.698,288.089 608.483,288.512C608.483,288.271 608.483,288.029 608.543,287.788L629.063,201.242C629.545,196.475 627.011,194 621.519,193.759ZM580.72,233.893C579.212,235.16 577.401,235.824 575.289,235.824C573.176,235.824 571.366,235.16 569.857,233.893C568.348,232.565 567.564,230.936 567.564,229.065C567.564,227.194 568.348,225.685 569.857,224.418C571.366,223.09 573.176,222.426 575.289,222.426C577.401,222.426 579.212,223.09 580.72,224.418C582.229,225.685 582.953,227.194 582.953,229.065C582.953,230.936 582.229,232.565 580.72,233.893Z" style="fill:rgb(36,35,77);fill-rule:nonzero;"/>
                <path d="M575.289,235.824C577.401,235.824 579.212,235.16 580.721,233.893C582.229,232.565 582.954,230.936 582.954,229.065C582.954,227.194 582.229,225.685 580.721,224.418C579.212,223.09 577.401,222.426 575.289,222.426C573.176,222.426 571.366,223.09 569.857,224.418C568.348,225.685 567.564,227.194 567.564,229.065C567.564,230.936 568.348,232.565 569.857,233.893C571.366,235.161 573.176,235.824 575.289,235.824Z" style="fill:rgb(204,204,204);fill-rule:nonzero;"/>
                <path d="M611.017,302.514C612.405,300.884 613.069,298.892 613.069,296.539L613.069,296.418C613.13,294.306 612.526,292.435 611.379,290.926C611.259,290.745 611.138,290.564 611.017,290.383C610.233,289.478 609.388,288.874 608.482,288.512C607.698,288.089 606.853,287.908 605.948,287.908L510.41,287.908L509.867,287.908L508.599,287.908L508.056,287.909L503.59,287.909C502.987,287.909 502.383,287.909 501.84,287.969C503.409,288.21 504.797,288.995 506.004,290.383C507.392,292.013 508.056,294.065 508.056,296.418L508.056,296.539C508.056,298.893 507.392,300.884 506.004,302.514C504.978,303.661 503.831,304.385 502.564,304.747L607.577,304.747C608.845,304.445 609.991,303.661 611.017,302.514Z" style="fill:rgb(22,15,66);fill-rule:nonzero;"/>
                <path d="M422.416,287.908C420.425,287.908 418.735,288.753 417.347,290.383C415.958,292.012 415.295,294.064 415.295,296.418L415.295,296.539C415.295,298.892 415.958,300.884 417.347,302.514C418.373,303.66 419.519,304.445 420.787,304.747L502.564,304.747C503.831,304.385 504.978,303.66 506.004,302.514C507.392,300.884 508.056,298.893 508.056,296.539L508.056,296.418C508.056,294.064 507.392,292.012 506.004,290.383C504.797,288.995 503.409,288.21 501.84,287.969C501.538,287.909 501.297,287.909 500.995,287.909C500.935,287.909 500.935,287.909 500.874,287.909L422.416,287.909L422.416,287.908Z" style="fill:rgb(115,115,117);fill-rule:nonzero;"/>
                <path d="M508.599,287.908L509.867,287.908C509.806,287.908 509.746,287.908 509.686,287.848C509.505,287.788 509.384,287.727 509.263,287.667C509.022,287.788 508.78,287.848 508.599,287.908Z" style="fill:rgb(36,35,77);fill-rule:nonzero;"/>
            </g>
        </g>
    </g>
</svg>
