<?xml version="1.0" encoding="UTF-8" standalone="no"?>
<!DOCTYPE svg PUBLIC "-//W3C//DTD SVG 1.1//EN" "http://www.w3.org/Graphics/SVG/1.1/DTD/svg11.dtd">
<svg width="100%" height="100%" viewBox="0 0 223 421" version="1.1" xmlns="http://www.w3.org/2000/svg" xmlns:xlink="http://www.w3.org/1999/xlink" xml:space="preserve" style="fill-rule:evenodd;clip-rule:evenodd;stroke-linejoin:round;stroke-miterlimit:1.41421;">
    <g transform="matrix(1,0,0,1,-2976,-77)">
        <g transform="matrix(1,0,0,1,0,-162)">
            <g id="Ninja-Female-2-Laptop" transform="matrix(1,0,0,1,2699.19,-98.537)">
                <path d="M361.366,338.451L361.366,338.401C361.116,338.351 360.816,338.351 360.567,338.401L361.366,338.451Z" style="fill:rgb(253,219,218);fill-rule:nonzero;"/>
                <path d="M387.256,404.524C387.256,400.076 386.556,395.928 385.157,391.979C384.607,390.43 384.007,388.981 383.258,387.531C380.908,382.933 377.51,378.685 373.062,374.836C363.665,366.689 352.32,362.591 338.975,362.591L338.875,362.591C327.58,362.591 317.684,365.54 309.187,371.438C307.638,372.487 306.188,373.587 304.739,374.836C295.293,383.033 290.595,392.929 290.595,404.524L290.595,413.171L290.645,413.171L290.745,433.763C292.094,432.963 293.543,432.463 295.093,432.213L295.093,426.566C297.492,426.816 299.741,426.816 301.79,426.666L304.589,426.216C311.436,424.766 315.735,420.468 317.484,413.271L317.484,427.016C323.831,427.465 329.329,427.265 333.927,426.516C348.821,424.067 358.118,413.571 361.766,395.078C362.816,409.323 369.963,419.769 383.258,426.366C383.308,426.416 383.358,426.416 383.408,426.466L383.408,430.614C385.207,430.864 386.856,431.514 388.356,432.563L388.356,418.969L387.256,418.969L387.256,404.525L387.256,404.524ZM317.484,369.938L317.484,369.888L318.333,369.488C317.934,369.688 317.634,369.838 317.484,369.938ZM314.735,413.471L314.785,413.471L314.735,413.471Z" style="fill:rgb(75,28,2);fill-rule:nonzero;"/>
                <path d="M387.256,418.968L388.355,418.969L388.355,432.563C388.755,432.813 389.155,433.113 389.505,433.463C389.755,433.663 389.955,433.863 390.155,434.063C392.554,436.462 393.753,439.36 393.803,442.759C393.753,446.158 392.554,449.057 390.205,451.506C389.955,451.706 389.755,451.905 389.505,452.105C387.706,453.655 385.657,454.554 383.357,454.904L383.308,454.904C383.308,455.604 383.308,456.304 383.258,457.003C383.158,458.453 382.958,459.902 382.658,461.302C381.908,464.8 380.559,468.099 378.559,471.148C378.21,471.698 377.86,472.247 377.46,472.797L377.46,474.447C377.41,478.595 377.81,482.443 378.559,485.942C378.859,487.391 379.259,488.741 379.709,490.09C380.059,491.09 380.459,492.09 380.909,493.039C381.558,494.589 382.358,496.038 383.258,497.387C387.956,504.585 395.503,509.533 405.849,512.182L405.849,423.067C405.849,417.919 404.049,413.571 400.451,409.922C396.802,406.274 392.404,404.475 387.256,404.525L387.256,418.969L387.256,418.968Z" style="fill:rgb(57,18,2);fill-rule:nonzero;"/>
                <path d="M383.407,426.515L383.407,426.465C383.357,426.416 383.307,426.416 383.257,426.366C369.963,419.768 362.816,409.322 361.766,395.078C358.118,413.571 348.821,424.067 333.927,426.516C329.329,427.265 323.831,427.465 317.484,427.015L317.484,413.271C315.734,420.468 311.436,424.766 304.589,426.216L301.79,426.666C299.741,426.816 297.492,426.816 295.093,426.566L295.093,456.554C295.143,458.153 295.293,459.752 295.593,461.302C296.842,467.749 300.291,473.497 305.988,478.545C306.038,478.545 306.038,478.545 306.088,478.595C306.438,478.845 306.788,479.145 307.138,479.445C307.688,479.894 308.188,480.294 308.737,480.694C309.037,480.894 309.337,481.094 309.637,481.344C312.236,483.193 315.035,484.742 317.984,485.992C319.333,486.542 320.782,487.042 322.232,487.491C323.381,487.841 324.581,488.091 325.78,488.341C326.03,488.391 326.33,488.491 326.58,488.541C327.83,488.791 329.079,488.941 330.429,489.091C332.278,489.291 334.177,489.391 336.126,489.391L342.524,489.391C346.072,489.341 349.421,489.041 352.67,488.391C353.319,488.241 353.919,488.091 354.569,487.941C355.269,487.791 355.968,487.592 356.668,487.442C356.668,487.442 356.718,487.442 356.768,487.442C357.768,487.092 358.767,486.742 359.767,486.392C360.017,486.292 360.317,486.192 360.617,486.042L360.617,485.842L360.667,485.842C360.866,485.742 361.066,485.642 361.316,485.592C363.665,484.493 365.964,483.193 368.114,481.694C368.963,481.094 369.763,480.495 370.563,479.845C373.311,477.596 375.611,475.247 377.46,472.798C377.86,472.248 378.209,471.698 378.559,471.148C380.559,468.1 381.908,464.801 382.658,461.302C382.958,459.903 383.158,458.453 383.258,457.004C383.308,456.304 383.308,455.605 383.308,454.905L383.357,453.605L383.357,430.615L383.407,430.615L383.407,426.516L383.407,426.515ZM319.083,436.861L327.48,436.861C327.93,436.861 328.279,437.011 328.629,437.311C328.929,437.661 329.079,438.011 329.129,438.461C329.079,438.861 328.929,439.21 328.629,439.51C328.279,439.86 327.93,440.01 327.48,440.06L319.083,440.06C318.633,440.01 318.283,439.86 317.984,439.51C317.634,439.211 317.434,438.861 317.484,438.461C317.434,438.011 317.634,437.661 317.984,437.311C318.283,437.011 318.633,436.862 319.083,436.862L319.083,436.861ZM336.326,436.911C336.976,436.262 337.776,435.912 338.725,435.962C339.675,435.912 340.475,436.262 341.124,436.911C341.774,437.561 342.074,438.361 342.074,439.31L342.074,445.108C342.074,446.058 341.774,446.857 341.124,447.507C340.475,448.157 339.675,448.457 338.725,448.507C337.776,448.457 336.976,448.157 336.326,447.507C335.627,446.857 335.277,446.058 335.277,445.108L335.277,439.31C335.277,438.361 335.627,437.561 336.326,436.911ZM349.071,437.311C349.371,437.011 349.771,436.861 350.221,436.861L358.617,436.861C359.017,436.861 359.417,437.011 359.767,437.311C360.067,437.661 360.217,438.011 360.217,438.461C360.217,438.861 360.067,439.21 359.767,439.51C359.417,439.86 359.017,440.01 358.617,440.06L350.221,440.06C349.771,440.01 349.371,439.86 349.071,439.51C348.721,439.211 348.571,438.861 348.571,438.461C348.571,438.011 348.721,437.661 349.071,437.311ZM351.02,462.801C347.372,466.4 343.024,468.199 337.976,468.249C333.277,468.199 329.229,466.699 325.78,463.651C325.431,463.351 325.131,463.051 324.831,462.801C324.381,462.301 323.931,461.801 323.531,461.302C321.332,458.653 320.033,455.604 319.583,452.255L356.268,452.255C355.818,455.604 354.519,458.653 352.37,461.302C351.92,461.801 351.47,462.301 351.02,462.801Z" style="fill:rgb(194,131,98);fill-rule:nonzero;"/>
                <path d="M327.48,436.861L319.083,436.861C318.633,436.861 318.283,437.011 317.984,437.311C317.634,437.661 317.434,438.011 317.484,438.461C317.434,438.861 317.634,439.21 317.984,439.51C318.283,439.86 318.633,440.01 319.083,440.06L327.48,440.06C327.93,440.01 328.279,439.86 328.629,439.51C328.929,439.211 329.079,438.861 329.129,438.461C329.079,438.011 328.929,437.661 328.629,437.311C328.279,437.011 327.93,436.862 327.48,436.862L327.48,436.861Z" style="fill:rgb(75,28,2);fill-rule:nonzero;"/>
                <path d="M338.725,435.962C337.776,435.912 336.976,436.262 336.326,436.911C335.627,437.561 335.277,438.361 335.277,439.31L335.277,445.108C335.277,446.058 335.627,446.857 336.326,447.507C336.976,448.157 337.776,448.457 338.725,448.507C339.675,448.457 340.475,448.157 341.124,447.507C341.774,446.857 342.074,446.058 342.074,445.108L342.074,439.31C342.074,438.361 341.774,437.561 341.124,436.911C340.475,436.262 339.675,435.912 338.725,435.962Z" style="fill:rgb(140,80,55);fill-rule:nonzero;"/>
                <path d="M350.221,436.861C349.771,436.861 349.371,437.011 349.071,437.311C348.721,437.661 348.571,438.011 348.571,438.461C348.571,438.861 348.721,439.21 349.071,439.51C349.371,439.86 349.771,440.01 350.221,440.06L358.617,440.06C359.017,440.01 359.417,439.86 359.767,439.51C360.067,439.21 360.217,438.861 360.217,438.461C360.217,438.011 360.067,437.661 359.767,437.311C359.417,437.011 359.017,436.861 358.617,436.861L350.221,436.861Z" style="fill:rgb(75,28,2);fill-rule:nonzero;"/>
                <path d="M337.976,468.249C343.024,468.199 347.372,466.4 351.02,462.801C351.47,462.301 351.92,461.801 352.37,461.302C354.519,458.653 355.818,455.604 356.268,452.255L319.583,452.255C320.033,455.604 321.332,458.653 323.531,461.302C323.931,461.801 324.381,462.301 324.831,462.801C325.131,463.051 325.431,463.351 325.78,463.651C329.229,466.7 333.277,468.199 337.976,468.249Z" style="fill:white;fill-rule:nonzero;"/>
                <path d="M388.355,432.563C386.856,431.513 385.207,430.864 383.407,430.614L383.357,430.614L383.357,454.904C385.657,454.554 387.706,453.655 389.505,452.105C389.755,451.905 389.955,451.705 390.205,451.506C392.554,449.057 393.753,446.158 393.803,442.759C393.753,439.36 392.554,436.462 390.155,434.063C389.955,433.863 389.755,433.663 389.505,433.463C389.155,433.113 388.755,432.813 388.355,432.563Z" style="fill:rgb(140,80,55);fill-rule:nonzero;"/>
                <path d="M359.767,486.391C358.767,486.741 357.768,487.091 356.768,487.441L356.768,487.741L356.668,487.441C355.968,487.591 355.269,487.791 354.569,487.941C353.919,488.091 353.319,488.241 352.67,488.391L352.67,524.077C353.969,521.927 355.369,520.528 356.818,519.978C359.317,518.979 362.016,520.378 364.865,524.176L364.865,501.136C364.865,500.736 364.865,500.336 364.865,499.936C364.815,498.987 364.665,498.037 364.515,497.137C364.115,494.588 363.365,492.239 362.216,490.09C361.516,488.791 360.716,487.541 359.767,486.392L359.767,486.391ZM356.718,501.485L356.818,502.085L356.818,505.484L356.768,505.484L356.718,502.085L356.718,501.486L356.718,501.485Z" style="fill:rgb(31,88,48);fill-rule:nonzero;"/>
                <path d="M356.818,502.085L356.718,501.485L356.718,502.085L356.818,502.085Z" style="fill:rgb(75,28,2);fill-rule:nonzero;"/>
                <path d="M356.818,502.085L356.718,502.085L356.768,505.484L356.818,505.484L356.818,502.085Z" style="fill:rgb(44,130,69);fill-rule:nonzero;"/>
                <path d="M325.78,488.341L325.78,511.731C326.13,512.081 326.53,512.481 326.98,512.831C330.379,515.58 334.477,516.929 339.275,516.929C344.073,516.929 348.221,515.58 351.67,512.831C352.02,512.481 352.32,512.181 352.67,511.881L352.67,488.391C349.421,489.041 346.072,489.34 342.524,489.39L336.126,489.39C334.177,489.39 332.278,489.291 330.429,489.091C329.079,488.941 327.83,488.791 326.58,488.541C326.33,488.491 326.03,488.391 325.78,488.341Z" style="fill:rgb(140,80,55);fill-rule:nonzero;"/>
                <path d="M325.78,511.731L325.78,488.341C324.581,488.091 323.381,487.841 322.232,487.491C320.782,487.041 319.333,486.542 317.984,485.992C316.884,487.241 315.934,488.641 315.185,490.09C313.585,493.039 312.736,496.338 312.586,499.936C312.536,500.136 312.536,500.336 312.536,500.586L312.536,524.476C315.834,520.428 319.133,519.428 322.482,521.428C323.581,522.077 324.681,523.127 325.78,524.476L325.78,511.732L325.78,511.731Z" style="fill:rgb(31,88,48);fill-rule:nonzero;"/>
                <path d="M312.536,501.136C312.536,500.936 312.536,500.736 312.536,500.586C312.086,500.986 311.586,501.386 311.136,501.835C307.238,505.784 304.889,510.332 304.089,515.53L304.089,515.58C304.039,515.78 304.039,515.98 303.989,516.18C303.889,516.43 303.839,516.68 303.789,516.929C303.539,518.079 303.439,519.328 303.489,520.578L303.489,542.719L303.339,542.719L303.289,590.85L303.289,613.741L325.83,613.741L325.83,606.294L325.83,547.617L325.83,543.169L325.78,524.477C324.681,523.127 323.581,522.078 322.482,521.428C319.133,519.429 315.834,520.428 312.536,524.477L312.536,501.136Z" style="fill:rgb(44,130,69);fill-rule:nonzero;"/>
                <path d="M303.789,516.929C303.14,517.479 302.49,518.029 301.89,518.629C300.041,520.378 298.341,522.227 296.742,524.176C296.642,524.276 296.542,524.376 296.442,524.476C295.493,525.626 294.543,526.825 293.693,528.075C288.345,535.422 284.097,544.118 280.948,554.214C280.299,556.364 279.649,558.613 279.099,560.912C275.95,573.257 276.6,583.353 280.948,591.15C281.398,591.899 281.848,592.649 282.348,593.349C284.197,596.498 286.746,599.246 289.895,601.595C291.044,602.445 292.244,603.245 293.593,603.995C294.893,604.744 296.292,605.444 297.792,606.094C299.541,606.843 301.34,607.493 303.289,608.093L303.289,590.85C300.641,589.5 298.491,587.901 296.792,586.052C296.442,585.602 296.092,585.152 295.743,584.702C292.894,579.704 292.494,573.057 294.593,564.76C296.692,556.364 299.591,549.017 303.339,542.719L303.489,542.719L303.489,520.578C303.439,519.329 303.539,518.079 303.789,516.93L303.789,516.929Z" style="fill:rgb(31,88,48);fill-rule:nonzero;"/>
                <path d="M325.78,511.731L325.78,524.476L325.83,543.169C325.98,543.719 326.08,544.218 326.23,544.768C326.33,545.118 326.43,545.468 326.58,545.868C326.78,546.667 326.98,547.467 327.23,548.267C326.78,548.067 326.28,547.867 325.83,547.617L325.83,606.294L352.67,606.294L352.67,524.077L352.67,511.882C352.32,512.181 352.02,512.481 351.67,512.831C348.221,515.58 344.073,516.93 339.275,516.93C334.477,516.93 330.379,515.58 326.98,512.831C326.53,512.481 326.13,512.082 325.78,511.732L325.78,511.731Z" style="fill:white;fill-rule:nonzero;"/>
                <path d="M356.668,487.441L356.768,487.741L356.768,487.441C356.718,487.441 356.668,487.441 356.668,487.441Z" style="fill:rgb(140,80,55);fill-rule:nonzero;"/>
                <path d="M372.462,505.634C371.312,503.685 369.913,501.885 368.263,500.236C368.164,500.086 368.064,499.986 367.964,499.936C366.864,498.887 365.714,497.937 364.515,497.137C364.665,498.037 364.815,498.987 364.865,499.936L364.865,524.176C362.016,520.378 359.317,518.979 356.818,519.978C355.369,520.528 353.969,521.927 352.67,524.077L352.67,613.741L375.86,613.741L375.86,588.801L375.81,542.719L375.711,542.719L375.711,520.278C375.711,520.028 375.711,519.828 375.711,519.578C375.661,518.679 375.561,517.779 375.411,516.929L375.711,516.929C375.461,512.781 374.411,509.033 372.462,505.634ZM353.269,546.717C353.219,546.767 353.12,546.767 353.07,546.817C353.12,546.717 353.12,546.667 353.12,546.617L353.269,546.717ZM370.962,570.458L370.862,570.458L370.862,569.958L370.962,570.458Z" style="fill:rgb(44,130,69);fill-rule:nonzero;"/>
                <path d="M370.862,570.458L370.962,570.458L370.862,569.958L370.862,570.458Z" style="fill:rgb(255,189,145);fill-rule:nonzero;"/>
                <path d="M383.357,454.904L383.357,453.605L383.307,454.904L383.357,454.904Z" style="fill:rgb(75,28,2);fill-rule:nonzero;"/>
                <path d="M375.71,519.578L375.71,542.719L375.81,542.719L375.86,588.801C377.91,588.001 379.759,586.751 381.458,585.052C384.607,581.903 386.206,578.155 386.206,573.707L386.206,521.677C386.206,517.229 384.607,513.381 381.458,510.232C378.859,507.633 375.86,506.084 372.462,505.634C374.411,509.033 375.461,512.781 375.71,516.929L375.411,516.929C375.561,517.779 375.661,518.679 375.71,519.578Z" style="fill:rgb(31,88,48);fill-rule:nonzero;"/>
                <path d="M295.093,456.553L295.093,432.213C293.543,432.463 292.094,432.963 290.745,433.763C290.095,434.112 289.495,434.562 288.945,435.062C288.695,435.262 288.495,435.462 288.246,435.712C285.846,438.061 284.647,440.96 284.647,444.408C284.647,447.807 285.846,450.706 288.246,453.105C288.445,453.305 288.695,453.505 288.945,453.755C290.695,455.304 292.744,456.204 295.093,456.554L295.093,456.553Z" style="fill:rgb(140,80,55);fill-rule:nonzero;"/>
                <path d="M306.438,613.741L306.438,632.833C306.438,633.083 306.488,633.283 306.538,633.533C306.838,635.282 307.488,636.831 308.537,638.231C308.887,638.731 309.337,639.23 309.787,639.68C312.186,642.029 315.035,643.229 318.383,643.229L322.632,643.229L322.632,693.259L335.826,693.259L335.826,643.229L343.623,643.229L343.623,693.259L356.818,693.259L356.818,643.229L359.517,643.229C362.816,643.229 365.665,642.029 368.014,639.68C369.763,637.931 370.912,635.882 371.362,633.533C371.412,633.283 371.412,633.083 371.462,632.833L371.462,613.741L352.67,613.741L352.67,606.294L325.83,606.294L325.83,613.741L306.438,613.741Z" style="fill:rgb(42,34,75);fill-rule:nonzero;"/>
                <path d="M322.632,693.259L320.383,693.259L320.383,702.405L338.225,702.405L338.225,693.259L335.826,693.259L322.632,693.259Z" style="fill:rgb(167,156,209);fill-rule:nonzero;"/>
                <path d="M354.569,702.405L359.067,702.405L359.067,693.259L356.818,693.259L343.623,693.259L341.274,693.259L341.274,702.405L354.569,702.405Z" style="fill:rgb(167,156,209);fill-rule:nonzero;"/>
                <rect x="345.623" y="702.405" width="8.946" height="43.783" style="fill:rgb(194,131,98);fill-rule:nonzero;"/>
                <rect x="324.931" y="702.405" width="8.946" height="43.783" style="fill:rgb(194,131,98);fill-rule:nonzero;"/>
                <path d="M389.605,758.483C389.455,757.433 389.255,756.383 389.005,755.384C388.905,754.934 388.805,754.534 388.655,754.084L343.174,754.084L343.174,758.483L389.605,758.483Z" style="fill:rgb(255,102,0);fill-rule:nonzero;"/>
                <path d="M388.655,754.084C387.806,751.435 386.456,749.086 384.557,746.987C384.107,746.487 383.707,746.038 383.257,745.588C380.109,742.739 376.41,741.34 372.212,741.34C367.764,741.34 363.915,742.939 360.667,746.188L354.569,746.188L345.623,746.188L343.174,746.188L343.174,754.084L388.655,754.084Z" style="fill:rgb(42,34,75);fill-rule:nonzero;"/>
                <path d="M336.326,758.483L336.326,754.084L290.745,754.084C290.595,754.534 290.445,755.034 290.345,755.484C290.095,756.433 289.945,757.433 289.895,758.483L336.326,758.483Z" style="fill:rgb(255,102,0);fill-rule:nonzero;"/>
                <path d="M336.326,754.084L336.326,746.188L333.877,746.188L324.931,746.188L318.783,746.188C315.535,742.939 311.736,741.34 307.288,741.34C302.44,741.34 298.341,743.239 294.893,746.987C292.944,749.086 291.594,751.435 290.745,754.084L336.326,754.084Z" style="fill:rgb(42,34,75);fill-rule:nonzero;"/>
                <path d="M424.269,485.642L416.633,485.642C415.343,485.896 414.16,486.303 413.084,486.964C410.449,488.49 408.406,491.236 406.954,495.203L390.177,562.231C390.016,562.791 390.123,563.35 390.392,563.859C390.661,564.418 391.091,564.774 391.575,564.927C391.629,564.977 391.683,564.977 391.736,564.977L392.22,564.977C392.382,564.927 392.597,564.876 392.812,564.774C392.919,564.825 393.027,564.876 393.188,564.927C393.242,564.977 393.296,564.977 393.349,564.977L393.833,564.977C394.102,564.927 394.317,564.825 394.586,564.672C395.07,564.418 395.447,564.011 395.608,563.452L412.439,496.067C414.751,489.253 418.73,485.794 424.269,485.642Z" style="fill:rgb(115,115,117);fill-rule:nonzero;"/>
                <path d="M492.829,485.642L424.269,485.642C418.73,485.794 414.751,489.253 412.439,496.067L395.608,563.452C395.447,564.011 395.07,564.418 394.586,564.672C394.317,564.825 394.102,564.927 393.833,564.977L478.956,564.977C479.763,564.977 480.515,565.13 481.214,565.486C481.214,565.283 481.214,565.079 481.268,564.876L499.551,491.948C499.981,487.93 497.723,485.845 492.829,485.642ZM456.479,519.461C455.135,520.529 453.521,521.089 451.639,521.089C449.757,521.089 448.144,520.529 446.8,519.461C445.455,518.342 444.756,516.969 444.756,515.393C444.756,513.816 445.455,512.545 446.8,511.477C448.144,510.358 449.757,509.798 451.639,509.798C453.521,509.798 455.135,510.358 456.479,511.477C457.823,512.545 458.469,513.816 458.469,515.393C458.469,516.969 457.823,518.342 456.479,519.461Z" style="fill:rgb(36,35,77);fill-rule:nonzero;"/>
                <path d="M451.639,521.089C453.521,521.089 455.135,520.529 456.479,519.461C457.823,518.342 458.469,516.969 458.469,515.393C458.469,513.816 457.823,512.545 456.479,511.477C455.135,510.358 453.521,509.798 451.639,509.798C449.757,509.798 448.144,510.358 446.8,511.477C445.455,512.545 444.756,513.816 444.756,515.393C444.756,516.969 445.455,518.342 446.8,519.461C448.144,520.529 449.757,521.089 451.639,521.089Z" style="fill:rgb(204,204,204);fill-rule:nonzero;"/>
                <path d="M483.473,577.285C484.71,575.911 485.301,574.233 485.301,572.25L485.301,572.148C485.355,570.368 484.817,568.792 483.796,567.52C483.688,567.368 483.58,567.215 483.473,567.063C482.774,566.3 482.021,565.791 481.214,565.486C480.515,565.13 479.763,564.977 478.956,564.977L393.833,564.977L393.349,564.977L392.22,564.977L391.736,564.977L387.757,564.977C387.219,564.977 386.682,564.977 386.198,565.028C387.596,565.232 388.832,565.893 389.908,567.062C391.145,568.436 391.736,570.165 391.736,572.148L391.736,572.25C391.736,574.233 391.145,575.911 389.908,577.285C388.994,578.251 387.972,578.861 386.843,579.166L480.408,579.166C481.537,578.912 482.559,578.251 483.473,577.285Z" style="fill:rgb(22,15,66);fill-rule:nonzero;"/>
                <path d="M315.432,564.977C313.658,564.977 312.152,565.689 310.915,567.062C309.679,568.436 309.087,570.165 309.087,572.148L309.087,572.25C309.087,574.233 309.679,575.911 310.915,577.285C311.83,578.251 312.851,578.912 313.981,579.166L386.843,579.166C387.972,578.861 388.994,578.251 389.908,577.285C391.145,575.911 391.736,574.233 391.736,572.25L391.736,572.148C391.736,570.165 391.145,568.436 389.908,567.063C388.833,565.893 387.596,565.232 386.198,565.028C385.929,564.977 385.714,564.977 385.445,564.977C385.391,564.977 385.391,564.977 385.337,564.977L315.432,564.977Z" style="fill:rgb(115,115,117);fill-rule:nonzero;"/>
                <path d="M392.22,564.977L393.349,564.977C393.296,564.977 393.242,564.977 393.188,564.927C393.027,564.876 392.919,564.825 392.812,564.774C392.597,564.876 392.382,564.927 392.22,564.977Z" style="fill:rgb(36,35,77);fill-rule:nonzero;"/>
                <path d="M442.247,562.311C437.326,562.311 433.178,563.858 429.733,566.881C426.288,569.904 424.53,573.63 424.53,577.919L424.53,578.06C424.53,578.411 424.53,578.692 424.6,579.044L417.64,579.044L407.938,593.949L446.817,593.949C454.762,593.879 458.769,590.363 458.769,583.403C459.472,581.645 459.824,579.817 459.824,577.919C459.824,573.63 458.137,569.904 454.692,566.881C451.247,563.858 447.099,562.311 442.247,562.311Z" style="fill:rgb(194,131,98);fill-rule:nonzero;"/>
                <path d="M374.261,593.949L407.938,593.949L417.64,579.044L374.261,579.044L374.261,593.949Z" style="fill:rgb(140,80,55);fill-rule:nonzero;"/>
            </g>
        </g>
    </g>
</svg>
