<?xml version="1.0" encoding="UTF-8" standalone="no"?>
<!DOCTYPE svg PUBLIC "-//W3C//DTD SVG 1.1//EN" "http://www.w3.org/Graphics/SVG/1.1/DTD/svg11.dtd">
<svg width="100%" height="100%" viewBox="0 0 184 201" version="1.1" xmlns="http://www.w3.org/2000/svg" xmlns:xlink="http://www.w3.org/1999/xlink" xml:space="preserve" style="fill-rule:evenodd;clip-rule:evenodd;stroke-linejoin:round;stroke-miterlimit:1.41421;">
    <g transform="matrix(1,0,0,1,-730,-54)">
        <g transform="matrix(1,0,0,1,0,-162)">
            <g id="Ninja-Male-1-Tablet" transform="matrix(1,0,0,1,581.052,102.414)">
                <path d="M281.248,164.27C280.448,163.096 279.274,162.403 277.834,162.136L251.743,157.761C252.01,161.176 251.957,164.697 251.476,168.325L276.126,172.433C277.567,172.7 278.847,172.38 280.021,171.58C281.142,170.78 281.835,169.606 282.102,168.165C282.369,166.725 282.049,165.391 281.248,164.27Z" style="fill:rgb(255,51,0);fill-rule:nonzero;"/>
                <path d="M236.43,165.818C236.377,165.978 236.377,166.191 236.377,166.351C236.324,167.632 236.377,168.859 236.537,170.086C236.697,171.42 236.964,172.754 237.444,173.981C237.924,175.368 238.618,176.649 239.525,177.876C239.792,178.249 240.058,178.676 240.325,179.05C242.246,181.344 244.594,183.051 247.368,184.118C247.902,180.757 248.435,177.342 249.022,173.981C249.342,172.007 249.662,170.086 250.036,168.165L236.43,165.818Z" style="fill:rgb(102,51,51);fill-rule:nonzero;"/>
                <path d="M236.377,166.351C236.377,166.191 236.377,165.978 236.43,165.818L234.776,175.795C233.336,175.422 232.002,174.781 230.828,173.981C229.708,173.181 228.694,172.167 227.84,170.993C227.253,170.139 226.827,169.286 226.453,168.379C225.973,167.152 225.653,165.924 225.546,164.591L225.546,164.537C225.546,164.377 225.546,164.164 225.546,163.95L212.794,161.816L176.726,155.787L166.109,154.026L164.348,164.377C163.815,164.217 163.281,164.057 162.748,163.95C159.6,163.47 156.772,164.111 154.157,165.925C151.543,167.792 149.996,170.3 149.462,173.394C149.409,173.554 149.409,173.768 149.409,173.981C149.035,176.862 149.729,179.53 151.436,181.931C152.397,183.265 153.517,184.332 154.851,185.132C156.078,185.879 157.412,186.36 158.906,186.626C159.493,186.733 160.027,186.786 160.613,186.84L160.08,189.828C159.92,190.628 159.813,191.482 159.76,192.282C158.639,202.099 161.04,211.116 166.856,219.333C167.443,220.133 168.03,220.88 168.67,221.627C169.043,222.107 169.47,222.534 169.844,223.014C170.644,223.921 171.498,224.775 172.351,225.629C172.938,226.162 173.579,226.696 174.272,227.229C174.539,227.496 174.806,227.71 175.073,227.923C175.606,228.297 176.14,228.723 176.727,229.097C177.42,229.577 178.114,230.004 178.807,230.431C179.821,231.071 180.888,231.658 182.009,232.191C182.169,232.245 182.382,232.351 182.542,232.405C182.809,232.512 183.076,232.618 183.343,232.725C186.17,233.952 189.265,234.806 192.52,235.393L198.549,236.406C199.456,236.567 200.416,236.673 201.376,236.727C201.643,236.78 201.91,236.78 202.177,236.833C204.258,236.993 206.285,236.993 208.259,236.887C208.846,236.833 209.486,236.727 210.073,236.673L210.18,236.673C210.553,236.62 210.874,236.62 211.194,236.567C211.46,236.513 211.727,236.513 211.994,236.46C212.581,236.3 213.168,236.193 213.755,236.033C214.342,235.873 214.929,235.766 215.515,235.606C216.102,235.446 216.743,235.233 217.329,235.073C220.157,234.112 222.878,232.832 225.599,231.178C226.4,230.698 227.2,230.164 228,229.577C230.775,227.603 233.176,225.416 235.257,223.015C239.898,217.733 242.833,211.33 244.06,203.914L247.368,184.119C244.594,183.052 242.246,181.345 240.325,179.051C240.059,178.677 239.792,178.25 239.525,177.877C238.618,176.65 237.924,175.369 237.444,173.982C236.964,172.755 236.697,171.421 236.537,170.087C236.377,168.86 236.324,167.633 236.377,166.352L236.377,166.351ZM179.501,192.281C179.714,190.574 180.141,188.92 180.728,187.373C181.528,185.239 182.702,183.264 184.25,181.397C184.57,181.024 184.943,180.65 185.317,180.277L222.291,210.742C221.971,211.169 221.651,211.596 221.278,212.076C219.73,213.943 218.023,215.437 216.102,216.665C214.822,217.465 213.435,218.105 211.994,218.585C210.073,219.226 207.992,219.599 205.751,219.759C204.418,219.866 203.084,219.866 201.803,219.759C197.321,219.386 193.16,217.732 189.372,214.851C188.998,214.584 188.678,214.37 188.358,214.104C184.89,211.222 182.382,207.861 180.888,203.966C180.835,203.699 180.728,203.486 180.675,203.219C180.088,201.619 179.714,199.965 179.501,198.204C179.234,196.123 179.234,194.149 179.501,192.282L179.501,192.281ZM160.987,171.046C162.161,171.206 163.121,171.793 163.815,172.807C164.081,173.181 164.295,173.554 164.455,173.981C164.722,174.621 164.775,175.315 164.668,176.062C164.455,177.289 163.868,178.196 162.854,178.89C161.841,179.583 160.773,179.85 159.6,179.69C158.372,179.477 157.412,178.89 156.665,177.876C155.972,176.915 155.758,175.848 155.972,174.675C156.025,174.408 156.078,174.194 156.132,173.981C156.398,173.074 156.932,172.327 157.732,171.74C158.746,171.046 159.813,170.833 160.987,171.046ZM224.746,179.583C225.333,179.156 225.973,178.996 226.666,179.156C227.413,179.316 228,179.743 228.374,180.383C228.747,180.97 228.907,181.664 228.801,182.411C228.641,183.105 228.214,183.638 227.573,184.012C226.987,184.385 226.293,184.438 225.599,184.225C224.852,184.118 224.319,183.798 223.945,183.211C223.572,182.624 223.519,181.931 223.679,181.184C223.785,180.49 224.159,179.957 224.746,179.583ZM213.915,177.609C214.075,177.502 214.235,177.449 214.395,177.396C215.142,176.969 215.942,176.809 216.849,176.969C217.81,177.129 218.557,177.662 219.143,178.463C219.197,178.463 219.197,178.463 219.25,178.516C219.837,179.37 220.104,180.33 219.997,181.344L218.877,187.693C218.663,188.707 218.13,189.507 217.276,190.094C216.476,190.681 215.569,190.948 214.555,190.788C213.488,190.574 212.634,190.041 211.994,189.187C211.407,188.387 211.194,187.48 211.407,186.466L212.474,180.063C212.634,178.996 213.114,178.196 213.915,177.609ZM202.764,177.075C202.817,176.809 202.924,176.595 203.084,176.435C203.244,176.062 203.511,175.795 203.884,175.581C204.471,175.155 205.165,174.995 205.858,175.101C206.605,175.261 207.192,175.688 207.565,176.275C207.939,176.862 208.046,177.556 207.886,178.356C207.726,178.996 207.352,179.476 206.765,179.85C206.178,180.277 205.485,180.437 204.738,180.277C204.044,180.117 203.511,179.743 203.137,179.103C202.924,178.783 202.817,178.463 202.764,178.089C202.71,177.769 202.71,177.449 202.764,177.075Z" style="fill:rgb(255,181,162);fill-rule:nonzero;"/>
                <path d="M180.728,187.373C180.141,188.92 179.714,190.574 179.501,192.281C179.234,194.149 179.234,196.123 179.501,198.204C179.714,199.964 180.088,201.618 180.675,203.219C180.728,203.486 180.835,203.699 180.888,203.966C180.995,203.913 181.102,203.859 181.262,203.806C182.916,202.686 184.89,202.152 187.184,202.152C190.652,202.152 193.8,203.326 196.681,205.727C198.549,207.274 199.936,208.981 200.896,210.956C201.43,211.969 201.803,213.09 202.017,214.317C202.07,214.477 202.07,214.69 202.123,214.85C202.39,216.611 202.283,218.265 201.803,219.759C203.084,219.866 204.418,219.866 205.751,219.759C207.992,219.599 210.073,219.226 211.994,218.585C213.434,218.105 214.822,217.465 216.102,216.665L180.728,187.373Z" style="fill:rgb(175,74,62);fill-rule:nonzero;"/>
                <path d="M185.317,180.277C184.943,180.65 184.57,181.024 184.25,181.397C182.702,183.265 181.528,185.239 180.728,187.373L216.102,216.665C218.023,215.437 219.73,213.943 221.278,212.076C221.651,211.596 221.971,211.169 222.291,210.742L185.317,180.277Z" style="fill:white;fill-rule:nonzero;"/>
                <path d="M181.262,203.806C181.102,203.859 180.995,203.913 180.888,203.966C182.382,207.861 184.89,211.222 188.358,214.103C188.678,214.37 188.998,214.584 189.372,214.85C193.16,217.732 197.321,219.386 201.803,219.759C202.283,218.265 202.39,216.611 202.123,214.85C202.07,214.69 202.07,214.477 202.017,214.317C201.803,213.09 201.43,211.969 200.896,210.956C199.936,208.982 198.549,207.274 196.681,205.727C193.8,203.326 190.652,202.152 187.184,202.152C184.89,202.152 182.916,202.686 181.262,203.806Z" style="fill:rgb(227,121,96);fill-rule:nonzero;"/>
                <path d="M163.815,172.807C163.121,171.793 162.161,171.206 160.987,171.046C159.813,170.833 158.746,171.046 157.732,171.74C156.932,172.327 156.398,173.074 156.132,173.981C156.078,174.194 156.025,174.408 155.972,174.674C155.758,175.848 155.972,176.915 156.665,177.876C157.412,178.89 158.372,179.476 159.6,179.69C160.773,179.85 161.841,179.583 162.854,178.89C163.868,178.196 164.455,177.289 164.668,176.062C164.775,175.315 164.722,174.621 164.455,173.981C164.295,173.554 164.081,173.181 163.815,172.807Z" style="fill:rgb(255,157,138);fill-rule:nonzero;"/>
                <path d="M226.666,179.156C225.973,178.996 225.333,179.156 224.746,179.583C224.159,179.957 223.785,180.49 223.679,181.184C223.519,181.931 223.572,182.624 223.945,183.211C224.319,183.798 224.852,184.118 225.599,184.225C226.293,184.438 226.987,184.385 227.573,184.012C228.214,183.638 228.641,183.105 228.801,182.411C228.907,181.664 228.747,180.97 228.374,180.383C228,179.743 227.413,179.316 226.666,179.156Z" style="fill-rule:nonzero;"/>
                <path d="M214.395,177.395C214.235,177.449 214.075,177.502 213.915,177.609C213.114,178.196 212.634,178.996 212.474,180.063L211.407,186.466C211.194,187.48 211.407,188.387 211.994,189.187C212.634,190.041 213.488,190.574 214.555,190.788C215.569,190.948 216.476,190.681 217.276,190.094C218.13,189.507 218.663,188.707 218.877,187.693L219.997,181.344C220.104,180.33 219.837,179.37 219.25,178.516C219.197,178.463 219.197,178.463 219.143,178.463C218.557,177.663 217.81,177.129 216.849,176.969C215.942,176.809 215.142,176.969 214.395,177.396L214.395,177.395Z" style="fill:rgb(231,140,118);fill-rule:nonzero;"/>
                <path d="M203.084,176.435C202.924,176.595 202.817,176.809 202.764,177.075C202.71,177.449 202.71,177.769 202.764,178.089C202.817,178.463 202.924,178.783 203.137,179.103C203.511,179.743 204.044,180.117 204.738,180.277C205.485,180.437 206.178,180.277 206.765,179.85C207.352,179.476 207.726,178.996 207.886,178.356C208.046,177.556 207.939,176.862 207.565,176.275C207.192,175.688 206.605,175.261 205.858,175.101C205.165,174.995 204.471,175.155 203.884,175.582C203.511,175.795 203.244,176.062 203.084,176.435Z" style="fill-rule:nonzero;"/>
                <path d="M251.743,157.761C251.37,153.333 250.356,149.118 248.702,145.009C247.421,141.915 245.767,138.927 243.793,135.992C237.604,126.869 229.441,121.053 219.304,118.492C218.023,118.119 216.689,117.852 215.355,117.638C213.861,117.372 212.421,117.158 210.98,117.051C200.683,116.305 191.132,119.186 182.435,125.695C179.608,127.776 177.153,130.123 174.966,132.631C169.79,138.553 166.322,145.596 164.668,153.759L166.109,154.026L176.726,155.787C175.339,155.52 174.219,154.827 173.419,153.706C172.618,152.532 172.351,151.252 172.618,149.811C172.832,148.371 173.525,147.197 174.752,146.397C175.446,145.916 176.193,145.596 176.993,145.49L177.047,145.276C177.847,140.634 180.088,136.953 183.876,134.178C184.143,133.965 184.356,133.752 184.623,133.592C188.945,130.764 193.693,129.75 198.975,130.657C204.204,131.564 208.366,134.018 211.46,138.073C211.62,138.34 211.834,138.607 211.994,138.874C214.662,142.769 215.622,146.984 214.822,151.572L251.743,157.761Z" style="fill:rgb(255,102,0);fill-rule:nonzero;"/>
                <path d="M250.036,168.165L251.476,168.325C251.957,164.697 252.01,161.176 251.743,157.761L214.822,151.572L214.822,151.785L212.794,161.816L225.546,163.95L236.43,165.818L250.036,168.165Z" style="fill:rgb(236,96,2);fill-rule:nonzero;"/>
                <path d="M230.828,173.981C232.002,174.781 233.336,175.421 234.776,175.795L236.43,165.818L225.546,163.95L225.546,164.591C225.653,165.924 225.973,167.152 226.453,168.379C226.827,169.286 227.253,170.139 227.84,170.993C228.694,172.167 229.708,173.181 230.828,173.981Z" style="fill:rgb(102,51,51);fill-rule:nonzero;"/>
                <path d="M212.581,114.704C211.727,115.291 211.194,116.038 210.98,117.051C212.421,117.158 213.861,117.372 215.355,117.638C216.689,117.852 218.023,118.119 219.304,118.492C219.357,117.478 219.143,116.571 218.557,115.771C217.863,114.757 216.956,114.17 215.782,113.957C214.608,113.744 213.541,114.01 212.581,114.704Z" style="fill:rgb(236,96,2);fill-rule:nonzero;"/>
                <path d="M211.994,138.873C211.834,138.607 211.62,138.34 211.46,138.073C208.366,134.018 204.204,131.564 198.975,130.657C193.693,129.75 188.945,130.764 184.623,133.591C184.356,133.751 184.143,133.965 183.876,134.178C180.088,136.953 177.847,140.634 177.047,145.276L176.993,145.489C177.527,145.383 178.06,145.383 178.647,145.489L214.555,151.519L214.822,151.572C215.622,146.983 214.662,142.768 211.994,138.874L211.994,138.873Z" style="fill:rgb(102,51,51);fill-rule:nonzero;"/>
                <path d="M214.822,151.785C214.822,151.732 214.822,151.679 214.822,151.625L214.822,151.572L214.555,151.519C214.608,151.572 214.715,151.679 214.822,151.785Z" style="fill:rgb(255,181,162);fill-rule:nonzero;"/>
                <path d="M212.794,161.816L214.822,151.785C214.715,151.679 214.608,151.572 214.555,151.518L178.647,145.489C178.06,145.383 177.527,145.383 176.993,145.489C176.193,145.596 175.446,145.916 174.752,146.397C173.525,147.197 172.832,148.371 172.618,149.811C172.351,151.252 172.618,152.532 173.418,153.706C174.219,154.827 175.339,155.52 176.726,155.787L212.794,161.816ZM196.041,152.746C196.414,152.479 196.895,152.372 197.375,152.479C197.802,152.532 198.175,152.799 198.442,153.172C198.709,153.546 198.762,153.973 198.709,154.453C198.602,154.933 198.388,155.253 198.015,155.52C197.642,155.787 197.215,155.947 196.735,155.894C196.254,155.787 195.881,155.52 195.614,155.147C195.347,154.773 195.294,154.346 195.347,153.866C195.401,153.386 195.667,153.013 196.041,152.746ZM188.091,151.412C188.358,151.785 188.411,152.265 188.358,152.746C188.304,153.226 188.038,153.599 187.664,153.866C187.291,154.133 186.864,154.186 186.384,154.08C185.904,154.026 185.53,153.759 185.263,153.386C184.996,153.012 184.943,152.639 184.996,152.159C185.05,151.679 185.317,151.252 185.69,150.985C186.064,150.718 186.544,150.665 187.024,150.718C187.504,150.772 187.824,151.038 188.091,151.412ZM204.738,155.467C204.791,154.987 205.004,154.56 205.378,154.293C205.751,154.026 206.232,153.973 206.712,154.079C207.192,154.133 207.565,154.4 207.832,154.773C208.099,155.147 208.206,155.573 208.152,156.054C208.046,156.534 207.779,156.854 207.405,157.121C207.032,157.388 206.605,157.494 206.125,157.441C205.645,157.388 205.271,157.121 205.004,156.747C204.738,156.374 204.631,155.947 204.738,155.467ZM176.3,149.438C176.46,149.331 176.62,149.278 176.78,149.224C177.047,149.118 177.313,149.064 177.634,149.118C178.114,149.171 178.487,149.438 178.754,149.811C179.021,150.238 179.074,150.665 179.021,151.145C178.914,151.625 178.701,152.052 178.327,152.319C178.007,152.479 177.687,152.586 177.313,152.532C177.207,152.532 177.1,152.532 176.993,152.532C176.513,152.479 176.14,152.212 175.873,151.839C175.606,151.465 175.553,151.038 175.659,150.558C175.713,150.078 175.926,149.705 176.3,149.438Z" style="fill:rgb(255,51,0);fill-rule:nonzero;"/>
                <path d="M197.375,152.479C196.895,152.372 196.414,152.479 196.041,152.746C195.667,153.012 195.401,153.386 195.347,153.866C195.294,154.346 195.347,154.773 195.614,155.147C195.881,155.52 196.254,155.787 196.735,155.894C197.215,155.947 197.642,155.787 198.015,155.52C198.389,155.253 198.602,154.933 198.709,154.453C198.762,153.973 198.709,153.546 198.442,153.173C198.175,152.799 197.802,152.532 197.375,152.479Z" style="fill:rgb(255,102,0);fill-rule:nonzero;"/>
                <path d="M188.358,152.746C188.411,152.265 188.358,151.785 188.091,151.412C187.824,151.038 187.504,150.772 187.024,150.718C186.544,150.665 186.064,150.718 185.69,150.985C185.317,151.252 185.05,151.679 184.996,152.159C184.943,152.639 184.996,153.013 185.263,153.386C185.53,153.76 185.903,154.026 186.384,154.08C186.864,154.186 187.291,154.133 187.664,153.866C188.038,153.6 188.304,153.226 188.358,152.746Z" style="fill:rgb(255,102,0);fill-rule:nonzero;"/>
                <path d="M205.378,154.293C205.004,154.56 204.791,154.987 204.738,155.467C204.631,155.947 204.738,156.374 205.004,156.747C205.271,157.121 205.645,157.387 206.125,157.441C206.605,157.494 207.032,157.388 207.405,157.121C207.779,156.854 208.046,156.534 208.152,156.054C208.206,155.574 208.099,155.147 207.832,154.773C207.566,154.4 207.192,154.133 206.712,154.08C206.232,153.973 205.751,154.026 205.378,154.293Z" style="fill:rgb(255,102,0);fill-rule:nonzero;"/>
                <path d="M176.78,149.224C176.62,149.278 176.46,149.331 176.3,149.438C175.926,149.704 175.713,150.078 175.659,150.558C175.553,151.038 175.606,151.465 175.873,151.839C176.14,152.212 176.513,152.479 176.993,152.532C177.1,152.532 177.207,152.532 177.313,152.532C177.687,152.586 178.007,152.479 178.327,152.319C178.701,152.052 178.914,151.625 179.021,151.145C179.074,150.665 179.021,150.238 178.754,149.811C178.487,149.438 178.114,149.171 177.634,149.118C177.313,149.065 177.047,149.118 176.78,149.225L176.78,149.224Z" style="fill:rgb(255,102,0);fill-rule:nonzero;"/>
                <path d="M210.18,236.672L210.073,236.672C209.486,236.726 208.846,236.833 208.259,236.886C206.285,236.993 204.257,236.993 202.177,236.833C201.91,236.779 201.643,236.779 201.376,236.726C200.416,236.672 199.456,236.566 198.549,236.406L192.519,235.392C189.265,234.805 186.17,233.951 183.342,232.724L183.342,236.939C183.342,238.327 183.503,239.66 183.876,240.941C184.516,243.235 185.743,245.263 187.504,247.023C188.891,248.411 190.439,249.478 192.146,250.171C193.8,250.865 195.667,251.238 197.642,251.292C199.456,251.238 201.163,250.972 202.71,250.385C204.578,249.691 206.232,248.571 207.779,247.023C209.593,245.263 210.82,243.235 211.46,240.941C211.781,239.767 211.941,238.54 211.994,237.206C211.994,237.153 211.994,237.046 211.994,236.939L211.994,236.459C211.727,236.513 211.46,236.513 211.194,236.566C210.874,236.619 210.553,236.619 210.18,236.673L210.18,236.672Z" style="fill:rgb(255,157,138);fill-rule:nonzero;"/>
                <path d="M217.276,240.941C217.329,240.567 217.436,240.247 217.489,239.874C215.729,238.753 213.915,237.9 211.994,237.206C211.941,238.54 211.781,239.767 211.46,240.941C210.82,243.235 209.593,245.263 207.779,247.023C206.232,248.571 204.578,249.691 202.71,250.385C201.163,250.972 199.456,251.238 197.642,251.292C195.667,251.238 193.8,250.865 192.146,250.171C190.439,249.478 188.891,248.411 187.504,247.023C185.743,245.263 184.516,243.235 183.876,240.941C183.503,239.661 183.342,238.327 183.342,236.939L183.342,236.833C181.368,237.42 179.448,238.273 177.687,239.34C177.74,239.874 177.794,240.408 177.954,240.941C178.701,244.676 180.515,247.984 183.342,250.812C185.957,253.426 188.891,255.133 192.146,256.04L192.146,268.205C192.146,269.646 192.68,270.926 193.693,271.94C194.707,272.954 195.988,273.487 197.428,273.487C198.869,273.488 200.149,272.954 201.163,271.94C202.177,270.926 202.71,269.646 202.71,268.205L202.71,256.147C206.125,255.24 209.166,253.48 211.78,250.812C214.662,247.984 216.476,244.676 217.276,240.941ZM197.695,269.859C196.895,269.859 196.254,269.592 195.667,269.005C195.134,268.472 194.867,267.832 194.867,267.085C194.867,266.284 195.134,265.591 195.667,265.004C196.254,264.47 196.895,264.204 197.695,264.204C198.495,264.204 199.135,264.47 199.669,265.004C200.256,265.591 200.523,266.284 200.523,267.085C200.523,267.832 200.256,268.472 199.669,269.006C199.135,269.592 198.495,269.859 197.695,269.859Z" style="fill:rgb(255,102,0);fill-rule:nonzero;"/>
                <path d="M195.667,269.005C196.254,269.592 196.895,269.859 197.695,269.859C198.495,269.859 199.135,269.592 199.669,269.005C200.256,268.472 200.523,267.832 200.523,267.085C200.523,266.284 200.256,265.591 199.669,265.004C199.135,264.47 198.495,264.204 197.695,264.204C196.895,264.204 196.254,264.47 195.667,265.004C195.134,265.591 194.867,266.284 194.867,267.085C194.867,267.832 195.134,268.472 195.667,269.006L195.667,269.005Z" style="fill:rgb(255,153,0);fill-rule:nonzero;"/>
                <path d="M217.489,239.874C217.436,240.247 217.329,240.567 217.276,240.941C216.476,244.676 214.662,247.984 211.781,250.812C209.166,253.479 206.125,255.24 202.71,256.147L202.71,268.205C202.71,269.646 202.177,270.926 201.163,271.94C200.149,272.954 198.869,273.487 197.428,273.487C195.988,273.487 194.707,272.954 193.693,271.94C192.68,270.926 192.146,269.646 192.146,268.205L192.146,256.04C188.891,255.133 185.957,253.426 183.342,250.812C180.515,247.984 178.701,244.676 177.954,240.941C177.794,240.408 177.74,239.874 177.687,239.34C176.833,239.821 175.98,240.354 175.179,240.941C173.845,241.902 172.511,243.022 171.284,244.249C170.911,244.569 170.591,244.889 170.271,245.263C170.537,245.476 170.804,245.69 171.071,245.956C172.405,247.29 173.045,248.891 173.098,250.812L173.098,271.887C173.045,279.036 175.606,285.172 180.728,290.294C185.797,295.363 191.933,297.924 199.082,297.924C206.232,297.924 212.367,295.363 217.489,290.294C221.704,286.026 224.212,281.011 224.906,275.302C225.066,274.181 225.119,273.061 225.119,271.887L224.959,249.905C225.012,249.691 225.066,249.478 225.119,249.318C225.173,249.158 225.279,248.944 225.333,248.784C225.386,248.251 225.546,247.771 225.759,247.29C225.653,247.13 225.546,246.97 225.439,246.864C225.386,246.81 225.386,246.757 225.333,246.703L225.333,246.97C224.586,246.01 223.785,245.103 222.878,244.249C221.651,243.022 220.371,241.902 219.037,240.941C218.503,240.568 217.97,240.194 217.489,239.874Z" style="fill:rgb(255,153,0);fill-rule:nonzero;"/>
                <path d="M183.342,236.939L183.342,236.833L183.342,236.939Z" style="fill:rgb(255,153,0);fill-rule:nonzero;"/>
                <path d="M153.25,244.409C153.144,244.249 153.037,244.035 152.984,243.875C153.09,245.209 153.197,246.383 153.357,247.397L153.25,244.409Z" style="fill:rgb(255,189,145);fill-rule:nonzero;"/>
                <path d="M171.071,299.951C167.336,296.216 164.508,292.108 162.534,287.68L162.534,314.464L231.682,314.464L231.682,294.616C230.348,296.483 228.801,298.244 227.147,299.951C219.357,307.688 210.02,311.582 199.082,311.582C188.144,311.582 178.807,307.688 171.071,299.951Z" style="fill:rgb(255,153,0);fill-rule:nonzero;"/>
                <path d="M235.95,297.924L236.004,297.924L235.95,297.497L235.95,297.924Z" style="fill:rgb(255,189,145);fill-rule:nonzero;"/>
                <path d="M286.968,281.368L299.191,281.368C298.522,289.76 295.117,297.058 288.914,303.261C282.042,310.133 273.71,313.599 264.041,313.599C254.372,313.599 246.04,310.133 239.107,303.261C232.235,296.328 228.769,287.997 228.769,278.327L228.769,251.569C228.769,249.927 229.377,248.468 230.533,247.313C231.749,246.096 233.208,245.488 234.85,245.488C236.492,245.488 237.952,246.096 239.107,247.313C240.324,248.468 240.932,249.927 240.932,251.569L240.932,278.327C240.932,284.713 243.182,290.125 247.682,294.686C252.243,299.187 257.656,301.437 264.041,301.437C270.426,301.437 275.839,299.187 280.339,294.686C284.17,290.855 286.36,286.416 286.968,281.368Z" style="fill:rgb(234,152,133);fill-rule:nonzero;"/>
                <path d="M244.476,218.749C238.577,218.931 235.658,222.033 235.597,228.053L235.597,276.278C235.658,282.299 238.577,285.461 244.476,285.644L241.07,285.644C234.867,285.583 231.766,282.481 231.705,276.278L231.705,228.053C231.766,221.85 234.867,218.749 241.07,218.749L244.476,218.749Z" style="fill:rgb(115,115,117);fill-rule:nonzero;"/>
                <path d="M235.597,228.053C235.658,222.033 238.577,218.931 244.476,218.749L318.425,218.749C324.628,218.749 327.73,221.85 327.73,228.053L327.73,276.278C327.73,282.481 324.628,285.583 318.425,285.644L244.476,285.644C238.577,285.461 235.658,282.299 235.597,276.278L235.597,228.053ZM286.559,255.967C287.593,255.115 288.079,254.081 288.018,252.865C288.079,251.71 287.593,250.676 286.559,249.885C285.586,249.034 284.43,248.608 283.093,248.608C281.755,248.608 280.599,249.034 279.565,249.885C278.592,250.676 278.106,251.71 278.106,252.865C278.106,254.081 278.592,255.115 279.565,255.967C280.599,256.818 281.755,257.244 283.093,257.244C284.43,257.244 285.586,256.818 286.559,255.967Z" style="fill:rgb(36,35,77);fill-rule:nonzero;"/>
                <path d="M288.018,252.865C288.079,254.081 287.593,255.115 286.559,255.967C285.586,256.818 284.43,257.244 283.093,257.244C281.755,257.244 280.599,256.818 279.565,255.967C278.592,255.115 278.106,254.081 278.106,252.865C278.106,251.71 278.592,250.676 279.565,249.885C280.599,249.034 281.755,248.608 283.093,248.608C284.43,248.608 285.586,249.034 286.559,249.885C287.593,250.676 288.079,251.71 288.018,252.865Z" style="fill:rgb(115,115,117);fill-rule:nonzero;"/>
                <path d="M254.102,252.431C253.942,252.217 253.781,252.057 253.621,251.897C252.821,251.043 251.807,250.563 250.687,250.51C251.914,250.51 252.981,250.083 253.835,249.229C254.742,248.322 255.169,247.255 255.169,245.975L255.169,245.921C255.169,244.694 254.742,243.627 253.835,242.774C252.981,241.867 251.914,241.44 250.687,241.44L245.351,241.44C245.298,241.493 245.191,241.6 245.138,241.653L245.138,241.44L234.841,241.44C234.467,241.44 234.094,241.493 233.773,241.547C233.613,241.6 233.453,241.653 233.293,241.707C232.92,241.76 232.6,241.867 232.333,241.973L232.226,242.08C232.119,242.08 232.013,242.08 231.906,242.133L231.159,242.774L231.746,242.187C231.052,242.454 230.465,242.72 229.879,243.041C227.798,244.161 226.411,245.548 225.77,247.309C225.557,247.789 225.397,248.269 225.343,248.803C225.29,248.963 225.183,249.176 225.13,249.336C225.077,249.497 225.023,249.71 224.97,249.923L225.13,271.906C225.13,273.079 225.077,274.2 224.917,275.32C224.223,281.029 221.715,286.045 217.5,290.313C212.378,295.382 206.242,297.943 199.093,297.943C191.943,297.943 185.808,295.382 180.739,290.313C179.939,289.513 179.245,288.712 178.605,287.912L167.4,295.809C168.521,297.249 169.748,298.636 171.082,299.97C178.818,307.707 188.155,311.602 199.093,311.602C210.031,311.602 219.368,307.707 227.157,299.97C228.811,298.263 230.359,296.502 231.693,294.635C235.801,288.926 238.095,282.47 238.682,275.32C238.789,274.2 238.842,273.079 238.842,271.906L238.842,268.598L249.887,268.598C251.114,268.598 252.181,268.171 253.034,267.371C253.942,266.464 254.422,265.343 254.422,264.116L254.422,264.009C254.422,262.782 253.942,261.715 253.034,260.915C252.448,260.221 251.701,259.741 250.847,259.581C250.687,259.634 250.58,259.634 250.42,259.634C250.42,259.581 250.42,259.528 250.473,259.528C250.58,259.528 250.687,259.528 250.847,259.581C251.914,259.528 252.821,259.101 253.621,258.354C254.475,257.447 254.902,256.38 254.902,255.099L254.902,254.993C254.902,253.979 254.635,253.125 254.102,252.432L254.102,252.431Z" style="fill:rgb(255,181,162);fill-rule:nonzero;"/>
                <path d="M161.425,245.975C160.091,247.309 159.397,248.909 159.397,250.83L159.397,271.905C159.397,277.614 160.464,282.843 162.545,287.698C163.772,290.526 165.426,293.247 167.4,295.808L178.605,287.912C174.923,283.323 173.056,277.988 173.109,271.905L173.109,250.83C173.056,248.909 172.416,247.309 171.082,245.975C170.815,245.708 170.548,245.495 170.281,245.281C169.108,244.374 167.774,243.948 166.28,244.001C164.359,243.948 162.758,244.641 161.425,245.975Z" style="fill:rgb(255,102,0);fill-rule:nonzero;"/>
                <path d="M316.558,243.889C315.18,243.889 313.999,244.414 313.08,245.398C312.096,246.251 311.636,247.433 311.636,248.811L311.636,248.877C311.636,250.255 312.096,251.436 313.08,252.421C313.999,253.339 315.18,253.799 316.558,253.864C315.311,253.93 314.196,254.39 313.343,255.308C313.146,255.505 312.949,255.702 312.817,255.899C312.227,256.687 311.899,257.605 311.964,258.721L311.964,258.852C311.899,260.231 312.358,261.412 313.343,262.397C314.196,263.25 315.18,263.709 316.427,263.775C316.558,263.709 316.69,263.709 316.821,263.644C316.821,263.709 316.821,263.709 316.821,263.775C316.69,263.775 316.558,263.775 316.427,263.775C315.443,263.972 314.655,264.431 313.999,265.153C313.014,266.072 312.489,267.188 312.489,268.566L312.489,268.697C312.489,270.076 313.014,271.257 313.999,272.241C314.918,273.095 316.033,273.554 317.412,273.554L326.994,273.554C328.372,273.554 329.488,273.095 330.472,272.241C331.457,271.257 331.916,270.076 331.982,268.697L331.982,268.566C331.916,267.188 331.457,266.072 330.472,265.153C329.75,264.431 328.963,263.972 328.044,263.775C327.847,263.775 327.716,263.775 327.584,263.775C327.585,263.709 327.585,263.709 327.65,263.644C327.716,263.71 327.847,263.71 328.044,263.775C329.225,263.71 330.21,263.25 331.063,262.397C332.047,261.412 332.507,260.231 332.507,258.853L332.507,258.722C332.507,257.606 332.179,256.687 331.588,255.899C331.457,255.703 331.26,255.506 331.063,255.309C330.21,254.39 329.16,253.931 327.913,253.865C329.291,253.799 330.407,253.34 331.325,252.421C332.31,251.437 332.769,250.255 332.769,248.877L332.769,248.811C332.769,247.433 332.31,246.252 331.325,245.399C330.407,244.414 329.291,243.889 327.913,243.889L316.559,243.889L316.558,243.889Z" style="fill:rgb(253,176,154);fill-rule:nonzero;"/>
            </g>
        </g>
    </g>
</svg>
