<?xml version="1.0" encoding="UTF-8" standalone="no"?>
<!DOCTYPE svg PUBLIC "-//W3C//DTD SVG 1.1//EN" "http://www.w3.org/Graphics/SVG/1.1/DTD/svg11.dtd">
<svg width="100%" height="100%" viewBox="0 0 117 284" version="1.1" xmlns="http://www.w3.org/2000/svg" xmlns:xlink="http://www.w3.org/1999/xlink" xml:space="preserve" style="fill-rule:evenodd;clip-rule:evenodd;stroke-linejoin:round;stroke-miterlimit:1.41421;">
    <g transform="matrix(1,0,0,1,-1856,-158)">
        <g transform="matrix(1,0,0,1,0,-162)">
            <g id="Ninja-Male-2" transform="matrix(1,0,0,1,1549.55,-154.683)">
                <path d="M345.273,479.444C344.823,479.644 344.423,479.844 343.973,480.044C339.775,482.093 335.926,484.692 332.428,487.941C323.681,495.988 319.533,505.534 319.983,516.48L319.983,541.869L320.633,541.869C320.683,541.819 320.782,541.819 320.882,541.869L320.133,541.869C321.382,541.869 322.232,541.869 322.682,541.869C322.832,541.869 322.932,541.869 323.082,541.919C323.132,541.919 323.231,541.919 323.281,541.919C323.781,541.969 324.281,542.069 324.781,542.219C325.331,542.369 325.93,542.569 326.48,542.819C328.08,543.469 329.579,544.469 330.928,545.818C331.028,545.918 331.128,546.018 331.228,546.068L331.228,546.118L359.067,507.433L357.118,533.423C367.014,530.274 375.161,524.627 381.508,516.58C382.558,515.28 383.507,513.931 384.457,512.581L399.551,535.022C399.601,534.972 399.701,534.873 399.801,534.823C402.6,532.473 405.049,529.875 407.148,527.126C407.598,526.476 408.098,525.776 408.547,525.076C408.597,525.027 408.597,524.927 408.647,524.877C409.197,524.027 409.697,523.227 410.147,522.378C416.094,512.831 416.094,503.585 410.147,494.739C409.697,493.989 409.197,493.289 408.647,492.59C408.148,491.94 407.648,491.34 407.148,490.74C405.349,488.741 403.299,486.842 401,485.093C400.601,484.743 400.201,484.443 399.801,484.143C398.501,483.193 397.152,482.344 395.802,481.544C395.053,481.094 394.303,480.644 393.553,480.295C393.004,479.995 392.454,479.695 391.904,479.445C384.607,476.046 376.46,474.547 367.514,474.947C367.064,474.947 366.664,474.947 366.214,474.997C365.814,475.047 365.415,475.047 365.065,475.097C360.417,475.247 356.018,475.896 351.92,477.046C349.621,477.696 347.422,478.495 345.273,479.445L345.273,479.444ZM321.532,541.819L320.982,541.869C321.032,541.819 321.082,541.819 321.132,541.819L321.532,541.819Z" style="fill:rgb(117,76,36);fill-rule:nonzero;"/>
                <path d="M320.982,541.869L321.532,541.819L321.132,541.819C321.082,541.819 321.032,541.819 320.982,541.869Z" style="fill:rgb(248,156,118);fill-rule:nonzero;"/>
                <path d="M408.647,524.876C408.597,524.926 408.597,525.026 408.547,525.076C408.098,525.776 407.598,526.476 407.148,527.125C405.049,529.874 402.6,532.473 399.801,534.822C399.701,534.872 399.601,534.972 399.551,535.022L384.457,512.581C383.507,513.931 382.558,515.28 381.508,516.58C375.161,524.626 367.014,530.274 357.118,533.423L359.067,507.433L331.228,546.118L331.228,546.068C331.128,546.018 331.028,545.918 330.928,545.818C329.579,544.469 328.08,543.469 326.48,542.819C325.93,542.569 325.331,542.369 324.781,542.219C324.281,542.07 323.781,541.97 323.281,541.92C323.231,541.92 323.132,541.92 323.082,541.92C322.932,541.87 322.832,541.87 322.682,541.87L319.983,541.87C316.634,542.12 313.785,543.419 311.336,545.818C311.236,545.918 311.136,546.018 311.086,546.068C308.737,548.517 307.488,551.416 307.338,554.765L314.885,554.765C315.085,553.915 315.485,553.115 316.134,552.466C317.084,551.416 318.333,550.866 319.833,550.816C321.282,550.766 322.532,551.216 323.581,552.166C324.331,552.915 324.881,553.765 325.131,554.765L408.797,554.765L408.297,537.222C408.547,537.172 408.747,537.172 408.997,537.122L409.047,537.122L408.647,524.877L408.647,524.876ZM366.164,546.967C366.114,547.317 365.964,547.667 365.665,547.917C365.415,548.217 365.065,548.367 364.715,548.367L357.368,548.367C357.018,548.367 356.668,548.217 356.418,547.917C356.118,547.667 355.968,547.317 355.968,546.967C355.968,546.618 356.118,546.268 356.418,545.968C356.668,545.718 357.018,545.568 357.368,545.568L364.715,545.568C365.065,545.568 365.415,545.718 365.665,545.968C365.964,546.268 366.114,546.618 366.164,546.967ZM378.609,547.917C378.309,547.667 378.16,547.317 378.16,546.967C378.16,546.617 378.309,546.268 378.609,545.968C378.909,545.718 379.259,545.568 379.659,545.568L386.906,545.568C387.256,545.568 387.606,545.718 387.906,545.968C388.205,546.268 388.355,546.618 388.355,546.967C388.355,547.317 388.206,547.667 387.906,547.917C387.606,548.217 387.256,548.367 386.906,548.367L379.659,548.367C379.259,548.367 378.909,548.217 378.609,547.917ZM390.405,551.116L390.405,551.166C390.355,551.016 390.355,550.916 390.455,550.866C390.455,550.916 390.455,551.016 390.405,551.116Z" style="fill:rgb(248,156,118);fill-rule:nonzero;"/>
                <path d="M325.131,554.764C325.181,555.014 325.181,555.264 325.231,555.514C325.231,555.614 325.231,555.714 325.231,555.864C325.281,557.313 324.831,558.563 323.881,559.612C322.882,560.662 321.682,561.212 320.233,561.262C318.733,561.312 317.484,560.862 316.434,559.912C316.284,559.812 316.184,559.712 316.134,559.612C315.285,558.663 314.835,557.563 314.785,556.264C314.735,555.714 314.785,555.214 314.885,554.764L307.338,554.764C307.288,555.064 307.288,555.364 307.288,555.664C307.288,559.412 308.537,562.611 311.086,565.26C311.136,565.26 311.136,565.26 311.186,565.31C311.236,565.36 311.286,565.41 311.336,565.46C314.035,568.159 317.284,569.508 321.132,569.508C322.632,569.508 324.081,569.309 325.431,568.909C325.681,570.258 326.03,571.608 326.48,572.907C326.73,573.757 326.98,574.556 327.33,575.356C327.38,575.406 327.38,575.506 327.43,575.556C327.48,575.606 327.48,575.606 327.48,575.656C328.529,578.355 329.929,580.904 331.578,583.353C332.328,584.453 333.178,585.552 334.077,586.602C335.227,587.951 336.476,589.301 337.826,590.6C339.775,592.449 341.824,594.099 343.973,595.498C345.473,596.448 347.022,597.347 348.671,598.147C349.121,598.397 349.571,598.597 350.071,598.797C350.72,599.097 351.42,599.397 352.17,599.647C352.67,599.846 353.17,600.046 353.719,600.196L355.669,600.696L359.217,601.546C360.417,601.746 361.666,601.896 362.916,602.046L370.363,602.046C373.211,601.846 375.91,601.396 378.559,600.746C379.709,600.396 380.808,600.047 381.958,599.647C382.608,599.397 383.207,599.147 383.807,598.897C384.857,598.447 385.856,597.947 386.856,597.448C386.956,597.398 387.056,597.398 387.106,597.348C389.355,596.098 391.504,594.649 393.553,592.949C394.303,592.3 395.053,591.65 395.802,591C395.952,590.8 396.152,590.6 396.352,590.45C396.902,589.901 397.502,589.351 398.052,588.801C398.651,588.151 399.251,587.452 399.801,586.802C401.05,585.303 402.2,583.753 403.249,582.204C404.349,580.454 405.299,578.655 406.148,576.806C406.198,576.756 406.198,576.656 406.248,576.606C406.548,575.906 406.848,575.207 407.148,574.507C407.498,573.457 407.848,572.358 408.148,571.258C408.797,568.809 409.247,566.26 409.497,563.611L409.047,563.511L408.797,554.765L325.131,554.765L325.131,554.764ZM357.168,574.006C355.818,572.657 354.719,571.208 353.869,569.658C353.719,569.408 353.619,569.208 353.519,569.008C353.469,568.959 353.469,568.909 353.469,568.859C352.42,566.659 351.82,564.26 351.72,561.711L388.705,561.711C388.605,563.961 388.156,566.11 387.356,568.109C387.156,568.509 386.956,568.909 386.756,569.308C386.706,569.408 386.606,569.508 386.556,569.658C385.707,571.208 384.657,572.657 383.307,574.007C382.658,574.606 382.058,575.156 381.408,575.656C380.958,576.006 380.459,576.356 379.959,576.706C377.11,578.455 373.911,579.354 370.363,579.404C370.313,579.404 370.313,579.404 370.263,579.404C367.614,579.405 365.165,578.905 362.916,577.955C362.066,577.605 361.266,577.155 360.517,576.706C360.017,576.356 359.517,576.006 359.067,575.656C358.417,575.156 357.768,574.607 357.168,574.007L357.168,574.006Z" style="fill:rgb(248,156,118);fill-rule:nonzero;"/>
                <path d="M386.906,548.367C387.256,548.367 387.606,548.217 387.906,547.917C388.205,547.667 388.355,547.317 388.355,546.967C388.355,546.617 388.206,546.268 387.906,545.968C387.606,545.718 387.256,545.568 386.906,545.568L379.659,545.568C379.259,545.568 378.909,545.718 378.609,545.968C378.309,546.268 378.16,546.618 378.16,546.967C378.16,547.317 378.309,547.667 378.609,547.917C378.909,548.217 379.259,548.367 379.659,548.367L386.906,548.367Z" style="fill:rgb(75,28,2);fill-rule:nonzero;"/>
                <path d="M386.556,569.658C386.606,569.508 386.706,569.408 386.756,569.308C386.956,568.909 387.156,568.509 387.356,568.109C388.156,566.11 388.605,563.961 388.705,561.711L351.72,561.711C351.82,564.26 352.42,566.659 353.469,568.859C353.469,568.909 353.469,568.959 353.519,569.008C353.619,569.208 353.719,569.408 353.869,569.658L386.556,569.658Z" style="fill:white;fill-rule:nonzero;"/>
                <path d="M379.959,576.705C380.459,576.356 380.958,576.006 381.408,575.656C382.058,575.156 382.658,574.606 383.307,574.006C384.657,572.657 385.707,571.208 386.556,569.658L353.869,569.658C354.719,571.208 355.818,572.657 357.168,574.006C357.768,574.606 358.417,575.156 359.067,575.656C359.517,576.006 360.017,576.356 360.517,576.705C361.266,577.155 362.066,577.605 362.916,577.955C365.165,578.905 367.614,579.404 370.263,579.404C370.313,579.404 370.313,579.404 370.363,579.404C373.911,579.354 377.11,578.455 379.959,576.705Z" style="fill:rgb(204,51,0);fill-rule:nonzero;"/>
                <path d="M366.164,546.967C366.114,546.617 365.964,546.268 365.665,545.968C365.415,545.718 365.065,545.568 364.715,545.568L357.368,545.568C357.018,545.568 356.668,545.718 356.418,545.968C356.118,546.268 355.968,546.618 355.968,546.967C355.968,547.317 356.118,547.667 356.418,547.917C356.668,548.217 357.018,548.367 357.368,548.367L364.715,548.367C365.065,548.367 365.415,548.217 365.665,547.917C365.964,547.667 366.114,547.317 366.164,546.967Z" style="fill:rgb(75,28,2);fill-rule:nonzero;"/>
                <path d="M314.785,556.264C314.835,557.563 315.285,558.663 316.134,559.612C316.184,559.712 316.284,559.812 316.434,559.912C317.484,560.862 318.733,561.312 320.233,561.262C321.682,561.212 322.882,560.662 323.881,559.612C324.831,558.563 325.281,557.313 325.231,555.864C325.231,555.714 325.231,555.614 325.231,555.514C325.081,554.165 324.531,553.065 323.581,552.165C322.532,551.216 321.282,550.766 319.833,550.816C318.333,550.866 317.084,551.416 316.134,552.465C315.185,553.515 314.735,554.814 314.785,556.264Z" style="fill:rgb(217,115,72);fill-rule:nonzero;"/>
                <path d="M414.945,538.171C414.745,538.071 414.545,537.971 414.345,537.921C412.896,537.371 411.346,537.121 409.747,537.121L409.047,537.121L408.997,537.121C408.747,537.171 408.547,537.171 408.297,537.221L409.047,563.511L410.197,563.511C411.646,563.461 413.046,563.261 414.345,562.811C414.545,562.711 414.745,562.611 414.945,562.561C416.594,561.861 418.094,560.812 419.443,559.362C419.943,558.813 420.393,558.213 420.793,557.613C422.342,555.364 423.042,552.815 422.992,549.966C422.892,547.367 422.142,545.018 420.793,542.969C420.243,542.169 419.593,541.42 418.843,540.72C418.543,540.42 418.244,540.12 417.894,539.87C416.944,539.171 415.994,538.621 414.945,538.171Z" style="fill:rgb(217,115,72);fill-rule:nonzero;"/>
                <path d="M398.052,588.801C397.502,589.35 396.902,589.9 396.352,590.45C396.402,590.9 396.402,591.35 396.452,591.799C396.402,595.948 394.953,599.496 392.004,602.445C390.655,603.745 389.255,604.744 387.706,605.494C385.756,606.394 383.657,606.843 381.308,606.843L378.559,606.843L355.669,606.843L352.87,606.843C351.27,606.843 349.771,606.643 348.421,606.244C346.072,605.544 344.023,604.294 342.174,602.445C339.225,599.496 337.726,595.948 337.776,591.799C337.776,591.35 337.776,590.95 337.826,590.6C336.476,589.301 335.227,587.951 334.077,586.602C333.178,585.552 332.328,584.452 331.578,583.353C330.479,586.052 329.929,589.001 329.929,592.199L329.929,592.249C329.929,598.697 332.228,604.145 336.776,608.693C338.525,610.442 340.475,611.892 342.574,612.991C342.624,613.041 342.624,613.041 342.674,613.091C341.924,613.941 341.224,614.89 340.625,615.84C339.275,617.589 337.976,619.339 336.726,621.038C335.277,623.037 333.877,624.986 332.528,626.936C330.778,629.535 329.129,632.034 327.68,634.433C327.63,634.533 327.58,634.632 327.53,634.732L364.115,634.732L364.115,612.941C364.115,612.591 364.215,612.341 364.465,612.091C364.665,611.892 364.915,611.792 365.265,611.792C365.515,611.792 365.764,611.892 366.014,612.091C366.264,612.341 366.364,612.591 366.364,612.941L366.364,634.732L370.563,634.732L370.563,612.941C370.563,612.591 370.663,612.341 370.912,612.091C371.162,611.892 371.412,611.792 371.712,611.792C371.962,611.792 372.212,611.892 372.462,612.091C372.712,612.341 372.812,612.591 372.812,612.941L372.812,634.732L398.401,634.732L398.401,634.033C398.551,634.283 398.701,634.483 398.851,634.732L409.397,634.732C409.197,634.383 408.997,634.083 408.847,633.733C407.398,631.334 405.749,628.835 403.999,626.236C402.65,624.287 401.25,622.337 399.801,620.288C398.152,618.039 396.452,615.79 394.603,613.441C394.453,613.291 394.353,613.191 394.203,613.041C394.053,612.791 393.953,612.591 393.803,612.391C395.503,611.392 397.102,610.142 398.551,608.693C399.001,608.243 399.401,607.843 399.801,607.393C400.001,607.144 400.201,606.894 400.401,606.644C403.699,602.545 405.349,597.747 405.399,592.25L405.399,592.2C405.399,588.551 404.699,585.252 403.25,582.204C402.2,583.753 401.05,585.302 399.801,586.802C399.251,587.451 398.651,588.151 398.052,588.801Z" style="fill:rgb(0,147,213);fill-rule:nonzero;"/>
                <path d="M364.165,639.58L364.215,639.48C364.165,639.38 364.115,639.28 364.115,639.13L364.115,634.732L327.53,634.732C325.381,638.231 323.631,641.529 322.182,644.678C321.982,645.128 321.782,645.628 321.582,646.078C319.133,651.626 317.784,656.574 317.534,660.872C316.934,667.119 318.283,672.167 321.582,676.016C321.782,676.266 321.982,676.466 322.182,676.715C324.231,678.865 326.98,680.614 330.379,681.963L333.627,673.417C328.629,670.968 326.23,667.019 326.43,661.522C327.03,655.074 330.479,646.877 336.726,636.931C336.776,636.881 336.776,636.881 336.826,636.831L338.176,675.016L338.176,685.162C338.176,685.612 338.176,686.062 338.225,686.512L338.725,686.512C338.725,686.762 338.725,686.962 338.775,687.161L397.602,687.161C397.802,687.161 398.002,687.161 398.201,687.211C398.251,686.762 398.301,686.262 398.351,685.812C398.351,685.362 398.351,684.912 398.401,684.463L398.401,683.513L398.401,674.317L398.401,634.732L372.812,634.732L372.812,639.131C372.812,639.281 372.812,639.381 372.762,639.481C372.812,639.481 372.812,639.481 372.862,639.481C373.112,639.581 373.312,639.731 373.561,639.93C374.011,640.38 374.211,640.88 374.261,641.53C374.311,642.08 374.161,642.529 373.811,642.979C373.761,643.029 373.761,643.029 373.711,643.079C373.262,643.529 372.762,643.729 372.162,643.779C371.562,643.829 371.012,643.629 370.563,643.229C370.463,643.129 370.363,643.029 370.313,642.979C370.063,642.629 369.913,642.18 369.913,641.68C369.863,641.08 370.013,640.58 370.413,640.13C370.513,639.98 370.613,639.881 370.763,639.831C370.613,639.581 370.563,639.381 370.563,639.131L370.563,634.733L366.364,634.733L366.364,639.131C366.364,639.331 366.314,639.531 366.214,639.681C366.364,639.731 366.464,639.831 366.564,639.931C367.014,640.38 367.264,640.88 367.314,641.53C367.314,642.08 367.164,642.53 366.814,642.979C366.764,643.029 366.764,643.029 366.714,643.079C366.264,643.529 365.765,643.729 365.115,643.779C364.715,643.829 364.365,643.729 364.015,643.529C363.865,643.429 363.715,643.329 363.565,643.229C363.465,643.129 363.366,643.029 363.316,642.98C363.066,642.68 362.966,642.33 362.916,641.98C362.866,641.88 362.866,641.78 362.866,641.68C362.816,641.53 362.866,641.33 362.916,641.18C362.966,640.78 363.166,640.431 363.465,640.131C363.615,639.881 363.815,639.731 364.015,639.631C364.065,639.581 364.115,639.581 364.165,639.581L364.165,639.58ZM348.271,659.422C348.771,658.323 349.371,657.273 350.071,656.274C352.62,652.775 355.619,651.026 359.167,651.026L378.759,651.026C382.308,651.026 385.307,652.775 387.856,656.274C389.705,658.873 390.904,661.871 391.354,665.32C391.504,666.47 391.604,667.619 391.604,668.869L391.604,670.618L346.322,670.618L346.322,668.869C346.322,665.32 346.972,662.171 348.271,659.422ZM344.923,669.568C344.923,668.319 345.023,667.169 345.173,666.02L345.173,671.318L344.923,671.318L344.923,669.568Z" style="fill:rgb(0,147,213);fill-rule:nonzero;"/>
                <path d="M414.945,645.378C414.745,644.928 414.545,644.428 414.345,643.978C412.996,641.03 411.346,637.981 409.397,634.732L398.851,634.732C399.201,635.232 399.501,635.732 399.801,636.232C406.048,646.178 409.497,654.374 410.097,660.822C410.297,666.32 407.898,670.268 402.95,672.717L406.148,681.264C409.497,679.914 412.246,678.165 414.345,676.016C414.545,675.766 414.745,675.566 414.945,675.316C418.243,671.468 419.593,666.37 418.993,660.122C418.743,655.874 417.394,650.926 414.945,645.378Z" style="fill:rgb(0,147,213);fill-rule:nonzero;"/>
                <path d="M364.465,612.091C364.215,612.341 364.115,612.591 364.115,612.941L364.115,639.13C364.115,639.28 364.165,639.38 364.215,639.48C364.465,639.43 364.715,639.38 365.015,639.43C365.365,639.38 365.665,639.38 365.914,639.48C366.014,639.53 366.114,639.63 366.214,639.68C366.314,639.53 366.364,639.33 366.364,639.13L366.364,612.941C366.364,612.591 366.264,612.341 366.014,612.091C365.764,611.891 365.515,611.791 365.265,611.791C364.915,611.792 364.665,611.891 364.465,612.091Z" style="fill:white;fill-rule:nonzero;"/>
                <path d="M364.215,639.48L364.165,639.58C364.115,639.58 364.065,639.58 364.015,639.63C363.815,639.73 363.615,639.88 363.465,640.13C363.166,640.43 362.966,640.78 362.916,641.18C362.866,641.33 362.816,641.529 362.866,641.679C362.866,641.779 362.866,641.879 362.916,641.979C362.966,642.329 363.066,642.679 363.315,642.979C363.365,643.029 363.465,643.129 363.565,643.229C363.715,643.329 363.865,643.429 364.015,643.529C364.365,643.729 364.715,643.829 365.115,643.779C365.764,643.729 366.264,643.529 366.714,643.079C366.764,643.029 366.764,643.029 366.814,642.979C367.164,642.529 367.314,642.079 367.314,641.53C367.264,640.88 367.014,640.38 366.564,639.93C366.464,639.83 366.364,639.73 366.214,639.68C366.114,639.63 366.014,639.53 365.914,639.48C365.665,639.381 365.365,639.381 365.015,639.431C364.715,639.381 364.465,639.431 364.215,639.481L364.215,639.48Z" style="fill:rgb(1,78,109);fill-rule:nonzero;"/>
                <path d="M370.912,612.091C370.663,612.341 370.563,612.591 370.563,612.941L370.563,639.13C370.563,639.38 370.613,639.58 370.762,639.83C370.912,639.68 371.012,639.63 371.162,639.58C371.412,639.43 371.712,639.38 372.012,639.43C372.262,639.38 372.512,639.43 372.762,639.48C372.812,639.38 372.812,639.28 372.812,639.13L372.812,612.941C372.812,612.591 372.712,612.341 372.462,612.091C372.212,611.891 371.962,611.791 371.712,611.791C371.412,611.792 371.162,611.891 370.912,612.091Z" style="fill:white;fill-rule:nonzero;"/>
                <path d="M370.762,639.83C370.613,639.88 370.513,639.98 370.413,640.13C370.013,640.58 369.863,641.08 369.913,641.679C369.913,642.179 370.063,642.629 370.313,642.979C370.363,643.029 370.463,643.129 370.563,643.229C371.012,643.629 371.562,643.829 372.162,643.779C372.762,643.729 373.262,643.529 373.711,643.079C373.761,643.029 373.761,643.029 373.811,642.979C374.161,642.529 374.311,642.079 374.261,641.53C374.211,640.88 374.011,640.38 373.561,639.93C373.312,639.73 373.112,639.58 372.862,639.48C372.812,639.48 372.812,639.48 372.762,639.48C372.512,639.43 372.262,639.38 372.012,639.43C371.712,639.38 371.412,639.43 371.162,639.58C371.012,639.63 370.913,639.68 370.763,639.83L370.762,639.83Z" style="fill:rgb(1,78,109);fill-rule:nonzero;"/>
                <path d="M350.071,656.274C349.371,657.273 348.771,658.323 348.271,659.422C346.972,662.171 346.322,665.32 346.322,668.869L346.322,670.618L391.604,670.618L391.604,668.869C391.604,667.619 391.504,666.469 391.354,665.32C390.904,661.871 389.705,658.873 387.856,656.274C385.307,652.775 382.308,651.026 378.759,651.026L359.167,651.026C355.619,651.026 352.62,652.775 350.071,656.274Z" style="fill:rgb(1,119,169);fill-rule:nonzero;"/>
                <path d="M345.173,671.318L345.173,666.02C345.023,667.169 344.923,668.319 344.923,669.568L344.923,671.318L345.173,671.318Z" style="fill:rgb(1,119,169);fill-rule:nonzero;"/>
                <path d="M396.452,591.799C396.402,591.35 396.402,590.9 396.352,590.45C396.152,590.6 395.952,590.8 395.802,591C395.053,591.649 394.303,592.299 393.553,592.949C391.504,594.648 389.355,596.098 387.106,597.347C387.056,597.397 386.956,597.397 386.856,597.447C385.856,597.947 384.857,598.447 383.807,598.897C383.208,599.146 382.608,599.396 381.958,599.646C380.809,600.046 379.709,600.396 378.559,600.746L378.559,606.843L381.308,606.843C383.657,606.843 385.757,606.394 387.706,605.494C389.255,604.744 390.655,603.745 392.004,602.445C394.953,599.496 396.402,595.948 396.452,591.8L396.452,591.799Z" style="fill:rgb(1,78,109);fill-rule:nonzero;"/>
                <path d="M378.559,606.843L378.559,600.746C375.91,601.395 373.211,601.845 370.363,602.045C370.313,602.045 370.313,602.045 370.263,602.045L362.916,602.045C361.666,601.895 360.417,601.745 359.217,601.545L355.669,600.696L355.669,606.843L378.559,606.843Z" style="fill:rgb(217,115,72);fill-rule:nonzero;"/>
                <path d="M320.633,541.869L320.133,541.869L320.882,541.869C320.782,541.819 320.683,541.819 320.633,541.869Z" style="fill:rgb(248,156,118);fill-rule:nonzero;"/>
                <path d="M355.669,600.696L353.719,600.196C353.17,600.046 352.67,599.846 352.17,599.646C351.42,599.396 350.72,599.096 350.071,598.797C349.571,598.597 349.121,598.397 348.671,598.147C347.022,597.347 345.473,596.448 343.973,595.498C341.824,594.099 339.775,592.449 337.826,590.6C337.776,590.95 337.776,591.35 337.776,591.799C337.726,595.948 339.225,599.496 342.174,602.445C344.023,604.294 346.072,605.544 348.421,606.244C349.771,606.644 351.27,606.843 352.87,606.843L355.669,606.843L355.669,600.696Z" style="fill:rgb(1,78,109);fill-rule:nonzero;"/>
                <path d="M336.726,683.912C337.176,684.012 337.676,684.112 338.176,684.212L338.176,675.016C337.676,674.866 337.176,674.766 336.726,674.666C335.577,674.316 334.577,673.867 333.627,673.417L330.379,681.963C332.278,682.713 334.377,683.363 336.726,683.913L336.726,683.912Z" style="fill:rgb(1,119,169);fill-rule:nonzero;"/>
                <path d="M366.414,703.805L372.062,703.805L372.062,743.539L381.608,743.539L381.608,703.805L383.607,703.805C385.956,703.755 388.006,702.905 389.705,701.206C391.454,699.506 392.304,697.457 392.354,695.058C392.304,694.758 392.304,694.508 392.254,694.258L345.073,694.258C345.023,694.508 345.023,694.758 345.023,695.058C345.023,697.457 345.872,699.506 347.522,701.206C349.271,702.905 351.32,703.755 353.719,703.805L356.868,703.805L356.868,743.539L366.414,743.539L366.414,703.805Z" style="fill:rgb(42,34,75);fill-rule:nonzero;"/>
                <path d="M338.775,687.161L338.725,687.161C338.076,687.161 337.526,687.311 337.076,687.611C336.776,687.761 336.526,687.961 336.276,688.211C335.577,688.861 335.227,689.71 335.227,690.66L335.227,690.71C335.227,691.659 335.577,692.509 336.276,693.209C336.926,693.859 337.776,694.208 338.725,694.258L397.602,694.258C398.451,694.208 399.151,693.959 399.801,693.459C399.901,693.359 400.001,693.259 400.051,693.209C400.701,692.509 401.05,691.66 401.05,690.71L401.05,690.66C401.05,689.71 400.701,688.861 400.051,688.211C400.001,688.111 399.901,688.011 399.801,687.961C399.451,687.661 399.101,687.461 398.701,687.361C398.601,687.311 398.501,687.311 398.401,687.261C398.352,687.211 398.252,687.211 398.202,687.211C398.002,687.161 397.802,687.161 397.602,687.161L338.775,687.161Z" style="fill:rgb(1,119,169);fill-rule:nonzero;"/>
                <path d="M399.801,683.213C402.15,682.663 404.249,682.013 406.148,681.264L402.95,672.717C402,673.167 400.95,673.567 399.801,673.916C399.351,674.066 398.851,674.166 398.401,674.316L398.401,683.513C398.851,683.413 399.351,683.313 399.801,683.213Z" style="fill:rgb(1,119,169);fill-rule:nonzero;"/>
                <path d="M405.349,758.483C405.299,757.833 405.149,757.183 404.999,756.533C404.449,754.134 403.349,751.985 401.7,750.136C401.1,749.486 400.451,748.886 399.801,748.387C397.752,746.887 395.453,746.138 392.854,746.088C392.804,746.088 392.754,746.088 392.704,746.088C389.505,746.088 386.756,747.237 384.407,749.586C384.207,749.736 384.007,749.936 383.857,750.136C382.808,751.286 381.958,752.585 381.358,753.935C381.158,754.384 381.008,754.834 380.858,755.334L371.762,755.334L371.762,758.483L405.349,758.483Z" style="fill:rgb(129,130,134);fill-rule:nonzero;"/>
                <rect x="373.511" y="743.539" width="6.448" height="6.047" style="fill:rgb(248,156,118);fill-rule:nonzero;"/>
                <path d="M379.959,749.586L373.511,749.586L371.762,749.586L371.762,755.334L380.858,755.334C381.008,754.834 381.158,754.384 381.358,753.934C381.958,752.585 382.808,751.286 383.857,750.136C384.007,749.936 384.207,749.736 384.407,749.586L379.959,749.586Z" style="fill:rgb(0,23,54);fill-rule:nonzero;"/>
                <path d="M357.068,753.834C357.268,754.284 357.468,754.784 357.618,755.334L366.714,755.334L366.714,749.586L364.915,749.586L358.467,749.586L354.069,749.586C354.219,749.736 354.419,749.936 354.569,750.136C355.619,751.286 356.418,752.485 357.068,753.835L357.068,753.834Z" style="fill:rgb(0,23,54);fill-rule:nonzero;"/>
                <path d="M357.618,755.334C357.468,754.784 357.268,754.284 357.068,753.835C356.418,752.485 355.619,751.286 354.569,750.136C354.419,749.936 354.219,749.736 354.069,749.586C351.72,747.237 348.921,746.088 345.722,746.088C342.224,746.088 339.225,747.437 336.776,750.136C335.177,751.885 334.127,753.835 333.577,756.084C333.327,756.833 333.178,757.633 333.128,758.483L366.714,758.483L366.714,755.334L357.618,755.334Z" style="fill:rgb(129,130,134);fill-rule:nonzero;"/>
                <rect x="358.467" y="743.539" width="6.448" height="6.047" style="fill:rgb(248,156,118);fill-rule:nonzero;"/>
            </g>
        </g>
    </g>
</svg>
