<?xml version="1.0" encoding="UTF-8" standalone="no"?>
<!DOCTYPE svg PUBLIC "-//W3C//DTD SVG 1.1//EN" "http://www.w3.org/Graphics/SVG/1.1/DTD/svg11.dtd">
<svg width="100%" height="100%" viewBox="0 0 111 322" version="1.1" xmlns="http://www.w3.org/2000/svg" xmlns:xlink="http://www.w3.org/1999/xlink" xml:space="preserve" style="fill-rule:evenodd;clip-rule:evenodd;stroke-linecap:round;stroke-linejoin:round;stroke-miterlimit:1.41421;">
    <g transform="matrix(1,0,0,1,-994,-139)">
        <g transform="matrix(1,0,0,1,0,-162)">
            <g id="Ninja-Female-1" transform="matrix(1,0,0,1,656.889,-135.042)">
                <path d="M351.97,463.451C351.97,463.351 351.97,463.251 352.02,463.151C352.07,463.051 352.17,462.951 352.22,462.851C352.27,462.901 352.37,463.001 352.47,463.101C352.52,463.251 352.52,463.351 352.57,463.451C354.869,467.399 357.868,471.198 361.516,474.946C371.362,485.092 383.307,491.59 397.302,494.338C401.35,495.138 405.249,495.538 408.997,495.588C409.747,495.588 410.497,495.588 411.246,495.538C412.096,495.488 412.996,495.438 413.845,495.388C416.644,495.138 419.343,494.638 421.892,493.939C421.942,493.939 421.942,493.939 421.992,493.939C423.341,493.539 424.641,493.089 425.94,492.589L425.94,573.257C428.989,575.056 430.539,578.405 430.539,583.353L430.539,607.393L447.782,607.393L447.782,517.579C447.232,517.729 447.182,509.782 447.632,493.839C447.682,493.839 447.732,493.839 447.782,493.889L447.782,487.391C447.682,485.992 447.482,484.593 447.232,483.243C446.782,480.694 446.082,478.145 445.133,475.696C442.684,469.449 438.635,463.401 432.988,457.603C427.84,452.306 422.092,448.007 415.844,444.759C413.595,443.609 411.346,442.56 408.997,441.66C405.249,440.21 401.35,439.061 397.302,438.261C383.307,435.512 371.362,437.262 361.516,443.509C356.268,446.858 352.42,450.956 349.971,455.804C347.822,460.103 346.722,464.951 346.722,470.398C346.722,473.047 346.972,475.646 347.472,478.245C347.872,474.597 348.721,471.098 349.971,467.849C350.521,466.35 351.22,464.901 351.97,463.451ZM435.986,486.941C436.086,486.841 436.186,486.741 436.336,486.691L436.336,486.392L436.436,486.541C436.386,486.591 436.386,486.641 436.336,486.691L436.336,486.941L435.986,486.941ZM436.386,481.344L436.336,481.344L436.386,480.944L436.386,481.344ZM441.134,499.586C443.283,501.735 444.333,504.284 444.333,507.333C444.333,510.382 443.283,512.931 441.134,515.08C438.985,517.229 436.436,518.279 433.387,518.329C432.888,518.279 432.438,518.279 431.988,518.229L431.988,496.488C432.438,496.438 432.888,496.388 433.387,496.438C436.436,496.388 438.985,497.437 441.134,499.586Z" style="fill:rgb(254,207,5);fill-rule:nonzero;"/>
                <path d="M436.336,486.691C436.186,486.741 436.086,486.841 435.986,486.941L436.336,486.941L436.336,486.691Z" style="fill:rgb(140,80,55);fill-rule:nonzero;"/>
                <path d="M436.336,486.691C436.386,486.641 436.386,486.591 436.436,486.541L436.336,486.392L436.336,486.691Z" style="fill:white;fill-rule:nonzero;"/>
                <path d="M444.333,507.333C444.333,504.284 443.283,501.735 441.134,499.586C438.985,497.437 436.436,496.388 433.387,496.437C432.888,496.388 432.438,496.437 431.988,496.487L431.988,518.229C432.438,518.279 432.888,518.279 433.387,518.329C436.436,518.279 438.985,517.229 441.134,515.08C443.283,512.931 444.333,510.382 444.333,507.333Z" style="fill:rgb(253,219,218);fill-rule:nonzero;"/>
                <path d="M352.02,463.151C351.97,463.251 351.97,463.351 351.97,463.451L352.22,463.251L352.57,463.451C352.52,463.351 352.52,463.251 352.47,463.101C352.37,463.001 352.27,462.901 352.22,462.851C352.17,462.951 352.07,463.051 352.02,463.151Z" style="fill:rgb(194,131,98);fill-rule:nonzero;"/>
                <path d="M351.97,463.451C351.22,464.9 350.521,466.35 349.971,467.849C348.721,471.098 347.872,474.596 347.472,478.245C347.272,480.044 347.172,481.893 347.172,483.843C347.122,484.292 347.122,484.792 347.172,485.242L347.272,485.242L347.172,517.079C347.122,524.626 349.671,531.324 354.719,537.171C355.519,538.071 356.368,538.971 357.318,539.82C357.668,540.17 358.018,540.47 358.367,540.82C358.817,541.27 359.317,541.67 359.817,542.069C361.566,543.519 363.465,544.818 365.415,545.968C369.463,548.367 373.811,550.116 378.559,551.166L378.459,561.162L411.246,560.512L411.246,550.516C415.944,549.417 420.293,547.667 424.341,545.318C424.891,544.968 425.391,544.669 425.94,544.319L425.94,492.589C424.641,493.089 423.341,493.539 421.992,493.939L421.892,493.939C419.343,494.639 416.644,495.138 413.845,495.388C412.996,495.438 412.096,495.488 411.246,495.538C410.497,495.588 409.747,495.588 408.997,495.588C405.249,495.538 401.35,495.138 397.302,494.339C383.307,491.59 371.362,485.093 361.516,474.947C357.868,471.198 354.869,467.4 352.57,463.451L352.22,463.251L351.97,463.451Z" style="fill:rgb(253,219,218);fill-rule:nonzero;"/>
                <path d="M421.892,493.938L421.992,493.938C421.942,493.938 421.942,493.938 421.892,493.938Z" style="fill:rgb(194,131,98);fill-rule:nonzero;"/>
                <path d="M425.94,544.318C425.391,544.668 424.891,544.968 424.341,545.318C420.293,547.667 415.944,549.416 411.246,550.516L411.246,560.512L413.046,560.512L412.996,566.46C415.495,567.809 417.844,569.558 420.043,571.658C422.392,571.807 424.391,572.307 425.94,573.257L425.94,544.318Z" style="fill:rgb(253,175,23);fill-rule:nonzero;"/>
                <path d="M425.94,573.257C424.391,572.307 422.392,571.807 420.043,571.657C419.643,571.607 419.243,571.807 418.793,572.257L418.793,638.981L430.539,638.981L430.539,607.393L430.539,583.353C430.539,578.405 428.989,575.056 425.94,573.257Z" style="fill:rgb(205,94,145);fill-rule:nonzero;"/>
                <path d="M418.793,572.257C419.243,571.807 419.643,571.607 420.043,571.657C417.844,569.558 415.495,567.809 412.996,566.459L413.046,560.512L411.246,560.512L378.459,561.162L378.459,565.56C375.061,567.109 371.912,569.258 369.013,572.107C364.465,576.556 361.566,581.703 360.217,587.451C359.667,589.85 359.367,592.349 359.417,594.948L359.367,606.943L359.267,613.491L359.217,613.491L359.217,624.836L359.267,624.836C359.517,624.786 359.817,624.736 360.117,624.736L371.812,624.736C372.662,624.736 373.411,625.036 373.961,625.586C374.561,626.186 374.861,626.935 374.911,627.785C374.861,628.435 374.711,628.985 374.411,629.484C374.261,629.634 374.111,629.834 373.961,629.984C373.411,630.584 372.662,630.884 371.812,630.884L360.117,630.884C359.767,630.834 359.467,630.784 359.217,630.734L359.117,648.877C359.367,648.777 359.617,648.727 359.867,648.727L385.706,648.727L385.906,568.659L385.706,648.727L418.193,648.727C418.393,648.677 418.593,648.577 418.793,648.527L418.793,638.981L418.793,630.884L404.749,630.884C403.849,630.884 403.1,630.584 402.5,629.984C402.35,629.834 402.2,629.635 402.1,629.485C401.8,628.985 401.65,628.435 401.65,627.785C401.6,626.936 401.9,626.186 402.5,625.586C403.1,625.036 403.849,624.737 404.749,624.737L418.793,624.737L418.793,572.258L418.793,572.257ZM387.456,568.809C387.406,568.809 387.406,568.809 387.406,568.859L387.406,566.31C387.656,566.759 387.756,567.209 387.756,567.759C387.706,568.109 387.606,568.459 387.456,568.809Z" style="fill:rgb(240,110,170);fill-rule:nonzero;"/>
                <path d="M387.406,568.859C387.406,568.809 387.406,568.809 387.456,568.809C387.606,568.459 387.706,568.109 387.756,567.759C387.756,567.209 387.656,566.759 387.406,566.31L387.406,568.859Z" style="fill:rgb(205,94,145);fill-rule:nonzero;"/>
                <path d="M378.459,561.162L378.559,551.166C373.811,550.116 369.463,548.367 365.415,545.968C363.465,544.818 361.566,543.519 359.817,542.069C359.317,541.669 358.817,541.27 358.367,540.82C358.018,540.47 357.668,540.17 357.318,539.82C356.368,538.971 355.519,538.071 354.719,537.171L354.719,606.893L359.367,606.943L359.417,594.948C359.367,592.349 359.667,589.85 360.217,587.451C361.566,581.703 364.465,576.556 369.013,572.107C371.912,569.258 375.061,567.109 378.459,565.56L378.459,561.162Z" style="fill:rgb(253,175,23);fill-rule:nonzero;"/>
                <path d="M373.961,629.984C374.111,629.834 374.261,629.634 374.411,629.484C374.711,628.984 374.861,628.435 374.911,627.785C374.861,626.935 374.561,626.186 373.961,625.586C373.411,625.036 372.662,624.736 371.812,624.736L360.117,624.736C359.817,624.736 359.517,624.786 359.267,624.836L359.217,624.836C358.717,624.986 358.267,625.236 357.918,625.586C357.318,626.186 357.018,626.935 357.068,627.785C357.018,628.635 357.318,629.384 357.918,629.984C358.267,630.334 358.717,630.584 359.217,630.734C359.467,630.784 359.767,630.834 360.117,630.884L371.812,630.884C372.662,630.884 373.411,630.584 373.961,629.984Z" style="fill:rgb(249,193,222);fill-rule:nonzero;"/>
                <path d="M402.5,629.984C403.1,630.584 403.849,630.884 404.749,630.884L418.793,630.884L418.793,624.736L404.749,624.736C403.849,624.736 403.1,625.036 402.5,625.586C401.9,626.186 401.6,626.935 401.65,627.785C401.65,628.435 401.8,628.985 402.1,629.484C402.2,629.634 402.35,629.834 402.5,629.984Z" style="fill:rgb(249,193,222);fill-rule:nonzero;"/>
                <path d="M359.867,653.325L412.096,653.325C413.445,650.726 415.345,649.276 417.694,648.926C417.844,648.876 418.044,648.777 418.193,648.727L385.706,648.727L359.867,648.727C359.617,648.727 359.367,648.777 359.117,648.877C358.817,648.927 358.517,649.126 358.267,649.376C357.818,649.826 357.568,650.326 357.568,650.976L357.568,651.026C357.568,651.675 357.818,652.225 358.267,652.675C358.717,653.125 359.217,653.325 359.867,653.325Z" style="fill:rgb(205,94,145);fill-rule:nonzero;"/>
                <path d="M367.114,653.325L367.114,685.912L421.292,685.912L421.292,676.965C421.092,676.815 420.892,676.665 420.742,676.515C419.893,675.766 419.443,674.816 419.393,673.667C419.393,674.916 418.993,675.916 418.144,676.715C417.294,677.565 416.244,678.015 414.995,678.015L414.895,678.015C413.645,678.015 412.646,677.565 411.846,676.715C410.946,675.916 410.497,674.916 410.497,673.667L410.547,668.469L408.997,670.018C408.148,670.768 407.148,671.118 406.098,671.118C404.849,671.118 403.799,670.668 402.9,669.818L402.9,669.768C402,668.869 401.6,667.819 401.65,666.67C401.6,665.42 402,664.371 402.9,663.521L411.296,655.224C411.546,654.524 411.796,653.875 412.096,653.325L367.114,653.325Z" style="fill:rgb(153,102,153);fill-rule:nonzero;"/>
                <path d="M437.036,656.823C436.786,655.674 436.536,654.524 436.286,653.375C435.387,651.326 433.637,649.926 431.088,649.176C430.888,649.126 430.688,649.026 430.539,648.976L430.539,648.877L430.539,638.98L418.793,638.98L418.793,648.527C418.593,648.577 418.393,648.677 418.193,648.727C418.044,648.777 417.844,648.877 417.694,648.927C415.345,649.276 413.445,650.726 412.096,653.325C411.796,653.875 411.546,654.524 411.296,655.224L411.846,654.574L411.296,655.224L411.196,655.324C411.146,655.424 411.146,655.524 411.146,655.674L411.096,655.774C410.946,656.024 410.846,656.324 410.746,656.624C410.696,656.774 410.696,656.973 410.647,657.123C410.597,657.473 410.547,657.823 410.547,658.173L410.547,668.269L410.746,668.269C410.647,668.319 410.597,668.419 410.547,668.469L410.497,673.667C410.497,674.916 410.946,675.916 411.846,676.716C412.646,677.565 413.645,678.015 414.895,678.015L414.995,678.015C416.244,678.015 417.294,677.565 418.144,676.716C418.993,675.916 419.393,674.916 419.393,673.667C419.443,674.817 419.893,675.766 420.742,676.516C420.892,676.666 421.092,676.816 421.292,676.966C421.992,677.515 422.842,677.765 423.791,677.765L423.841,677.765C425.091,677.765 426.14,677.365 427.04,676.516C427.79,675.766 428.189,674.817 428.239,673.767C428.189,673.617 428.189,673.517 428.14,673.417C428.189,673.367 428.239,673.367 428.289,673.367C428.289,673.517 428.289,673.617 428.239,673.767C428.439,674.617 428.889,675.316 429.539,675.966C430.339,676.816 431.338,677.266 432.538,677.316L432.688,677.316C433.887,677.266 434.937,676.816 435.786,675.966C436.636,675.116 437.036,674.117 437.036,672.867L437.036,657.374C437.036,657.224 437.036,657.124 437.036,656.974C436.986,656.924 436.986,656.874 437.036,656.824L437.036,656.823ZM428.14,657.123C428.189,657.373 428.239,657.623 428.239,657.873L428.14,657.873L428.14,657.373C428.14,657.323 428.14,657.223 428.14,657.123Z" style="fill:rgb(253,219,218);fill-rule:nonzero;"/>
                <path d="M428.239,657.873C428.239,657.623 428.189,657.373 428.14,657.123L428.14,657.873L428.239,657.873Z" style="fill:white;fill-rule:nonzero;"/>
                <path d="M431.088,649.176C430.938,649.026 430.738,648.926 430.539,648.876L430.539,648.976C430.688,649.026 430.888,649.126 431.088,649.176Z" style="fill:rgb(249,193,222);fill-rule:nonzero;"/>
                <path d="M428.14,673.417C428.189,673.517 428.189,673.617 428.239,673.767C428.289,673.617 428.289,673.517 428.289,673.367C428.239,673.367 428.189,673.367 428.14,673.417Z" style="fill:white;fill-rule:nonzero;"/>
                <path d="M411.296,655.224L411.846,654.574L411.296,655.224Z" style="fill:rgb(234,152,133);fill-rule:nonzero;"/>
                <path d="M411.296,655.224L402.9,663.521C402,664.37 401.6,665.42 401.65,666.669C401.6,667.819 402,668.869 402.9,669.768L402.9,669.818C403.799,670.668 404.849,671.118 406.098,671.118C407.148,671.118 408.148,670.768 408.997,670.018L410.547,668.469L410.547,668.269L410.547,658.173C410.547,657.823 410.597,657.473 410.647,657.123C410.696,656.973 410.696,656.774 410.746,656.624C410.846,656.324 410.946,656.024 411.096,655.774L411.146,655.674C411.146,655.524 411.146,655.424 411.196,655.324L411.296,655.224Z" style="fill:rgb(247,172,167);fill-rule:nonzero;"/>
                <path d="M410.547,668.269L410.547,668.469C410.597,668.419 410.647,668.319 410.746,668.269L410.547,668.269Z" style="fill:rgb(153,102,153);fill-rule:nonzero;"/>
                <path d="M407.698,685.912L395.503,685.912L395.503,748.337C395.902,748.637 396.302,748.986 396.702,749.386C396.852,749.536 397.002,749.736 397.152,749.886C398.052,750.836 398.751,751.885 399.301,753.035C399.401,753.285 399.501,753.585 399.601,753.885C401.65,753.985 404.349,754.134 407.598,754.334L407.698,754.334L407.698,685.912Z" style="fill:rgb(253,219,218);fill-rule:nonzero;"/>
                <path d="M393.753,685.912L381.508,685.912L381.508,748.037C381.908,748.337 382.308,748.687 382.708,749.036C384.657,747.287 386.906,746.388 389.505,746.388C391.054,746.338 392.454,746.637 393.753,747.287L393.753,685.912Z" style="fill:rgb(247,172,167);fill-rule:nonzero;"/>
                <path d="M395.503,748.337C395.453,748.287 395.453,748.287 395.403,748.287C394.853,747.887 394.303,747.537 393.753,747.287C392.454,746.637 391.054,746.338 389.505,746.388C386.906,746.388 384.657,747.287 382.708,749.036C382.408,749.286 382.108,749.536 381.808,749.886C380.459,751.386 379.509,753.085 379.059,754.984C378.909,755.534 378.759,756.134 378.709,756.783C378.659,756.883 378.659,756.983 378.659,757.083L407.598,757.083L407.598,754.334L399.751,754.334C399.701,754.184 399.651,754.035 399.601,753.885C399.501,753.585 399.401,753.285 399.301,753.035C398.751,751.885 398.052,750.836 397.152,749.886C397.002,749.736 396.852,749.536 396.702,749.386C396.302,748.987 395.902,748.637 395.503,748.337Z" style="fill:rgb(102,102,102);fill-rule:nonzero;"/>
                <path d="M399.601,753.884C399.651,754.034 399.701,754.184 399.751,754.334L407.598,754.334C404.349,754.134 401.65,753.984 399.601,753.884Z" style="fill:white;fill-rule:nonzero;"/>
                <path d="M381.508,748.037C379.759,746.737 377.81,746.088 375.561,746.138C372.562,746.138 370.013,747.287 367.864,749.636C366.514,751.086 365.565,752.785 365.115,754.734C364.915,755.384 364.765,756.034 364.715,756.783L378.709,756.783C378.759,756.134 378.909,755.534 379.059,754.984C379.509,753.085 380.459,751.386 381.808,749.886C382.108,749.536 382.408,749.286 382.708,749.037C382.308,748.687 381.908,748.337 381.508,748.037Z" style="fill:rgb(64,64,64);fill-rule:nonzero;"/>
                <path d="M340.774,499.586C338.625,501.735 337.526,504.284 337.576,507.333C337.526,509.282 337.976,511.082 338.875,512.731C339.375,513.581 340.025,514.33 340.774,515.08C342.574,516.879 344.673,517.929 347.122,518.229L347.122,496.488C344.673,496.737 342.574,497.787 340.774,499.586Z" style="fill:rgb(247,172,167);fill-rule:nonzero;"/>
                <path d="M385.906,568.659L385.706,648.727" style="fill:none;stroke:rgb(205,94,145);stroke-width:3px;"/>
                <path d="M390.479,506.245C390.197,505.521 389.795,504.877 389.232,504.314C388.186,503.308 386.938,502.785 385.49,502.785C384.041,502.785 382.794,503.308 381.788,504.314C381.184,504.877 380.782,505.521 380.54,506.245" style="fill:none;stroke:rgb(140,80,55);stroke-width:2.41px;"/>
                <path d="M372.236,506.245C371.955,505.521 371.552,504.877 370.989,504.314C369.943,503.308 368.695,502.785 367.247,502.785C365.798,502.785 364.551,503.308 363.545,504.314C362.941,504.877 362.539,505.521 362.298,506.245" style="fill:none;stroke:rgb(140,80,55);stroke-width:2.41px;"/>
                <path d="M382.696,514.219C382.354,515.1 381.864,515.883 381.179,516.569C379.906,517.792 378.389,518.429 376.626,518.429C374.864,518.429 373.347,517.792 372.123,516.569C371.389,515.883 370.899,515.1 370.605,514.219" style="fill:none;stroke:rgb(231,140,118);stroke-width:2.94px;"/>
            </g>
        </g>
    </g>
</svg>
