<?xml version="1.0" encoding="UTF-8" standalone="no"?>
<!DOCTYPE svg PUBLIC "-//W3C//DTD SVG 1.1//EN" "http://www.w3.org/Graphics/SVG/1.1/DTD/svg11.dtd">
<svg width="100%" height="100%" viewBox="0 0 227 446" version="1.1" xmlns="http://www.w3.org/2000/svg" xmlns:xlink="http://www.w3.org/1999/xlink" xml:space="preserve" style="fill-rule:evenodd;clip-rule:evenodd;stroke-linejoin:round;stroke-miterlimit:1.41421;">
    <g transform="matrix(1,0,0,1,-3996,-52)">
        <g transform="matrix(1,0,0,1,0,-162)">
            <g id="Ninja-Male-3-Laptop" transform="matrix(1,0,0,1,3670.58,-99.636)">
                <path d="M366.764,318.359C360.816,320.408 355.319,323.257 350.321,326.905C342.874,332.403 337.926,338.651 335.427,345.648C334.077,349.246 333.377,353.045 333.377,357.093L333.377,371.038L399.701,371.038L407.848,357.443L407.848,371.038L449.381,371.038L449.331,357.093C449.331,345.298 443.683,335.252 432.388,326.905C421.092,318.559 407.448,314.41 391.404,314.46C382.458,314.46 374.211,315.76 366.764,318.359Z" style="fill-rule:nonzero;"/>
                <path d="M442.334,380.934L442.334,371.038L407.848,371.038L407.848,357.443L399.701,371.038L340.625,371.038L340.625,410.972C340.625,413.621 340.824,416.22 341.224,418.719C342.674,428.465 347.072,437.011 354.419,444.358C359.317,449.207 364.765,452.805 370.762,455.104C371.862,455.504 372.962,455.904 374.111,456.254C378.409,457.503 383.008,458.153 387.856,458.153L395.752,458.153C399.701,458.103 403.449,457.653 406.998,456.754C409.747,456.054 412.446,455.104 414.995,453.955C419.843,451.656 424.341,448.457 428.489,444.359C437.686,435.112 442.284,424.017 442.334,410.972L442.334,404.575L442.334,380.934ZM395.752,393.429C395.902,393.529 396.102,393.679 396.302,393.829C397.152,394.678 397.602,395.778 397.602,397.027L397.602,404.724C397.602,405.974 397.152,407.023 396.302,407.923C396.102,408.073 395.902,408.173 395.752,408.323C395.003,408.923 394.103,409.223 393.104,409.272C391.854,409.223 390.754,408.773 389.855,407.923C389.005,407.023 388.555,405.974 388.555,404.724L388.555,397.027C388.555,395.778 389.005,394.678 389.855,393.829C390.754,392.929 391.854,392.479 393.104,392.479C394.103,392.479 395.003,392.779 395.752,393.429ZM402.95,397.077C402.4,397.077 401.95,396.877 401.6,396.477C401.25,396.128 401.1,395.678 401.1,395.228C401.1,394.728 401.25,394.278 401.6,393.879C401.95,393.529 402.4,393.379 402.95,393.379L412.696,393.379C413.146,393.379 413.595,393.529 413.945,393.879C414.345,394.278 414.545,394.728 414.545,395.228C414.545,395.678 414.345,396.128 413.945,396.478C413.595,396.877 413.146,397.077 412.696,397.077L402.95,397.077ZM379.759,393.379C380.259,393.379 380.709,393.529 381.058,393.879C381.408,394.278 381.608,394.728 381.608,395.228C381.608,395.678 381.408,396.128 381.058,396.478C380.709,396.877 380.259,397.077 379.759,397.077L369.963,397.077C369.463,397.077 369.013,396.877 368.663,396.478C368.314,396.128 368.114,395.678 368.114,395.228C368.114,394.728 368.314,394.279 368.663,393.879C369.013,393.529 369.463,393.379 369.963,393.379L379.759,393.379ZM407.748,418.918C407.748,421.018 407.448,423.017 406.848,424.916C405.848,427.815 404.099,430.414 401.6,432.713C400.75,433.513 399.851,434.262 398.951,434.912C396.252,436.761 393.253,437.911 389.955,438.361C388.905,438.511 387.856,438.561 386.806,438.561C382.858,438.561 379.259,437.661 376.11,435.912C374.611,435.062 373.211,433.963 371.912,432.713C369.463,430.414 367.764,427.815 366.814,424.916C366.164,423.017 365.864,421.018 365.814,418.919C365.814,418.419 365.864,417.919 365.914,417.469L407.698,417.469C407.748,417.919 407.748,418.419 407.748,418.919L407.748,418.918Z" style="fill:rgb(255,203,153);fill-rule:nonzero;"/>
                <path d="M396.302,393.829C396.102,393.679 395.902,393.529 395.752,393.429C395.003,392.779 394.103,392.479 393.104,392.479C391.854,392.479 390.754,392.929 389.855,393.829C389.005,394.678 388.555,395.778 388.555,397.027L388.555,404.724C388.555,405.974 389.005,407.023 389.855,407.923C390.754,408.773 391.854,409.222 393.104,409.272C394.103,409.222 395.003,408.923 395.752,408.323C395.902,408.173 396.102,408.073 396.302,407.923C397.152,407.023 397.602,405.974 397.602,404.724L397.602,397.027C397.602,395.778 397.152,394.678 396.302,393.829Z" style="fill:rgb(234,152,133);fill-rule:nonzero;"/>
                <path d="M401.6,396.477C401.95,396.877 402.4,397.077 402.95,397.077L412.696,397.077C413.146,397.077 413.595,396.877 413.945,396.478C414.345,396.128 414.545,395.678 414.545,395.228C414.545,394.728 414.345,394.278 413.945,393.879C413.595,393.529 413.146,393.379 412.696,393.379L402.95,393.379C402.4,393.379 401.95,393.529 401.6,393.879C401.25,394.279 401.1,394.728 401.1,395.228C401.1,395.678 401.25,396.128 401.6,396.478L401.6,396.477Z" style="fill:rgb(75,28,2);fill-rule:nonzero;"/>
                <path d="M381.058,393.879C380.708,393.529 380.259,393.379 379.759,393.379L369.963,393.379C369.463,393.379 369.013,393.529 368.663,393.879C368.314,394.278 368.114,394.728 368.114,395.228C368.114,395.678 368.314,396.128 368.663,396.478C369.013,396.877 369.463,397.077 369.963,397.077L379.759,397.077C380.259,397.077 380.709,396.877 381.058,396.478C381.408,396.128 381.608,395.678 381.608,395.228C381.608,394.728 381.408,394.279 381.058,393.879Z" style="fill:rgb(75,28,2);fill-rule:nonzero;"/>
                <path d="M387.756,428.315C388.505,428.315 389.205,428.365 389.955,428.465C392.254,428.815 394.303,429.714 396.052,431.164C397.402,432.263 398.401,433.513 398.951,434.912C399.851,434.262 400.75,433.513 401.6,432.713C404.099,430.414 405.848,427.815 406.848,424.916L366.814,424.916C367.764,427.815 369.463,430.414 371.912,432.713C373.211,433.963 374.611,435.062 376.11,435.912C376.56,434.162 377.66,432.563 379.309,431.164C381.658,429.264 384.457,428.315 387.756,428.315Z" style="fill:rgb(79,32,32);fill-rule:nonzero;"/>
                <path d="M389.955,428.465C389.205,428.365 388.505,428.315 387.756,428.315C384.457,428.315 381.658,429.264 379.309,431.164C377.66,432.563 376.56,434.162 376.11,435.912C379.259,437.661 382.858,438.561 386.806,438.561C387.856,438.561 388.905,438.511 389.955,438.361C393.253,437.911 396.252,436.761 398.951,434.912C398.401,433.513 397.402,432.263 396.052,431.164C394.303,429.714 392.254,428.815 389.955,428.465Z" style="fill:rgb(255,153,153);fill-rule:nonzero;"/>
                <path d="M406.848,424.916C407.448,423.017 407.748,421.018 407.748,418.919C407.748,418.419 407.748,417.919 407.698,417.469L365.914,417.469C365.864,417.919 365.814,418.419 365.814,418.919C365.864,421.018 366.164,423.017 366.814,424.916L406.848,424.916Z" style="fill:white;fill-rule:nonzero;"/>
                <path d="M444.833,380.634C443.983,380.634 443.134,380.734 442.334,380.934L442.334,404.574C443.134,404.724 443.983,404.774 444.833,404.774C445.682,404.774 446.532,404.724 447.332,404.574C448.032,404.424 448.731,404.175 449.381,403.925C450.83,403.325 452.13,402.425 453.379,401.276C455.728,398.927 456.878,396.078 456.878,392.729C456.878,389.38 455.728,386.532 453.379,384.183C452.13,382.983 450.83,382.083 449.381,381.534C448.731,381.284 448.032,381.084 447.332,380.934C446.532,380.734 445.682,380.634 444.833,380.634Z" style="fill:rgb(234,152,133);fill-rule:nonzero;"/>
                <path d="M340.625,380.934C339.775,380.734 338.925,380.634 338.076,380.634C334.727,380.634 331.878,381.833 329.529,384.182C328.329,385.432 327.43,386.781 326.88,388.281C326.33,389.63 326.03,391.13 326.03,392.729C326.03,394.328 326.33,395.828 326.88,397.227C327.43,398.677 328.329,400.026 329.529,401.276C331.878,403.625 334.727,404.774 338.076,404.774C338.925,404.774 339.775,404.724 340.625,404.574L340.625,380.934Z" style="fill:rgb(234,152,133);fill-rule:nonzero;"/>
                <path d="M372.912,468.998L364.765,469.048L364.765,492.589L432.438,492.589L432.438,492.289C429.989,478.245 421.492,470.398 407.048,468.799L407.048,469.049L374.161,469.049L374.161,468.999L373.361,468.999L373.861,469.049C373.511,468.999 373.212,468.999 372.912,468.999L372.912,468.998ZM390.555,469.648C390.305,469.698 390.105,469.798 389.955,469.898L389.955,469.598L390.555,469.648ZM404.699,491.589C404.599,491.589 404.499,491.589 404.449,491.639C404.349,491.639 404.249,491.639 404.149,491.639L404.699,491.589Z" style="fill:rgb(131,37,3);fill-rule:nonzero;"/>
                <path d="M389.955,469.898C390.105,469.798 390.305,469.698 390.555,469.648L389.955,469.598L389.955,469.898Z" style="fill:rgb(109,129,34);fill-rule:nonzero;"/>
                <path d="M364.765,469.048L364.765,468.899C362.516,468.899 361.116,468.949 360.567,469.048C358.817,469.298 357.318,469.798 355.968,470.448C351.22,472.697 348.771,477.295 348.621,484.142L348.621,502.535L364.765,502.535L364.765,492.589L364.765,469.049L364.765,469.048Z" style="fill:rgb(83,18,2);fill-rule:nonzero;"/>
                <path d="M364.765,492.589L364.765,518.929L433.088,518.929L433.088,503.235C433.038,500.686 433.038,498.487 433.038,496.737C432.988,496.438 432.988,496.138 432.938,495.888L432.938,495.738C432.838,494.638 432.688,493.589 432.538,492.589L432.438,492.589L364.765,492.589Z" style="fill:rgb(240,90,40);fill-rule:nonzero;"/>
                <path d="M348.621,522.427L347.572,522.427L348.621,522.677L348.621,522.427Z" style="fill:rgb(165,109,72);fill-rule:nonzero;"/>
                <path d="M348.621,522.427L348.621,572.657C346.672,573.257 345.073,573.957 343.823,574.706C343.373,574.956 342.974,575.256 342.624,575.556C342.374,575.756 342.124,575.956 341.924,576.206C341.274,576.855 340.724,577.605 340.275,578.455C340.225,578.605 340.125,578.755 340.075,578.905C339.975,579.354 339.875,579.804 339.775,580.304C339.525,581.354 339.325,582.353 339.175,583.403C339.175,583.453 339.175,583.553 339.175,583.603C339.125,583.753 339.125,583.953 339.175,584.153L339.125,604.245C339.075,605.294 339.325,606.194 339.775,606.993C339.925,607.243 340.075,607.493 340.275,607.743C340.425,607.893 340.575,608.093 340.724,608.243C341.074,608.593 341.474,608.943 341.924,609.193C342.174,609.343 342.374,609.443 342.624,609.542C342.974,609.692 343.373,609.842 343.823,609.892C344.123,609.942 344.473,609.942 344.823,609.942L344.973,609.942C346.522,609.942 347.872,609.393 348.921,608.243C349.771,607.393 350.271,606.444 350.521,605.344C350.471,605.194 350.471,605.044 350.521,604.894C350.571,604.894 350.571,604.894 350.621,604.944C350.571,605.094 350.571,605.194 350.521,605.344C350.621,606.744 351.17,607.943 352.12,608.893C353.17,609.942 354.469,610.542 355.968,610.592L356.368,610.592C357.918,610.592 359.267,610.042 360.317,608.893C361.216,608.043 361.766,606.994 361.966,605.844C362.016,605.844 362.016,605.844 362.066,605.844C362.166,607.194 362.666,608.293 363.615,609.243C364.765,610.392 366.114,610.942 367.764,610.942L367.914,610.942C368.463,610.942 369.013,610.842 369.563,610.692C370.413,610.442 371.162,609.943 371.812,609.243C372.012,609.043 372.212,608.843 372.362,608.693C373.162,607.693 373.561,606.544 373.561,605.244L373.561,598.447C373.461,598.347 373.361,598.247 373.311,598.197L373.561,598.197L373.561,585.103C373.511,584.653 373.461,584.203 373.411,583.753C373.361,583.553 373.311,583.353 373.261,583.153C373.162,582.903 373.062,582.604 373.012,582.354C372.962,582.304 372.912,582.204 372.912,582.154C372.862,582.104 372.862,582.004 372.812,581.954L372.762,581.854C372.712,581.704 372.712,581.554 372.712,581.404L372.562,581.254L371.812,580.504L372.562,581.254C371.762,579.105 370.763,577.356 369.563,576.056C368.214,574.557 366.614,573.607 364.765,573.257L364.765,568.559L364.765,544.119L364.765,518.929L364.765,502.536L348.621,502.536L348.621,522.428L348.621,522.427ZM350.621,584.152C350.571,584.352 350.571,584.552 350.521,584.752C350.521,584.402 350.571,584.102 350.621,583.753C350.621,583.903 350.621,584.002 350.621,584.152Z" style="fill:rgb(255,203,153);fill-rule:nonzero;"/>
                <path d="M406.998,456.753C403.449,457.653 399.701,458.103 395.752,458.153C395.503,458.153 395.303,458.153 395.103,458.153L387.856,458.153C383.008,458.153 378.409,457.503 374.111,456.254L374.161,468.999L374.161,469.049L407.048,469.049L407.048,468.799L406.998,456.754L406.998,456.753Z" style="fill:rgb(234,152,133);fill-rule:nonzero;"/>
                <path d="M407.048,468.799L407.048,469.048L407.048,468.799Z" style="fill:rgb(153,153,204);fill-rule:nonzero;"/>
                <path d="M432.438,492.289L432.438,492.589L432.538,492.589C432.488,492.439 432.488,492.339 432.438,492.289Z" style="fill:rgb(241,89,40);fill-rule:nonzero;"/>
                <path d="M433.088,518.928L364.765,518.929L364.765,544.118L433.088,544.118L433.088,518.929L433.088,518.928Z" style="fill:rgb(131,37,3);fill-rule:nonzero;"/>
                <rect x="364.765" y="544.118" width="68.323" height="24.441" style="fill:rgb(240,90,40);fill-rule:nonzero;"/>
                <path d="M373.261,583.153C373.311,583.353 373.361,583.553 373.411,583.753C373.461,584.202 373.511,584.652 373.561,585.102L373.561,598.447L375.561,600.496C376.66,601.446 377.91,601.895 379.259,601.945C380.858,601.895 382.258,601.346 383.407,600.196L383.457,600.146C383.607,599.996 383.707,599.896 383.857,599.796C384.507,598.947 384.907,597.997 385.007,596.947C385.057,596.697 385.057,596.398 385.057,596.148C385.057,595.848 385.057,595.598 385.007,595.348C384.957,594.798 384.857,594.298 384.657,593.849C384.607,593.799 384.607,593.749 384.607,593.749L384.607,593.699C384.357,593.149 383.957,592.599 383.457,592.099L373.511,582.153L373.012,582.353C373.062,582.603 373.162,582.903 373.262,583.153L373.261,583.153Z" style="fill:rgb(234,152,133);fill-rule:nonzero;"/>
                <path d="M385.057,596.148C385.057,596.397 385.057,596.697 385.007,596.947C384.907,597.997 384.507,598.946 383.857,599.796C383.707,599.896 383.607,599.996 383.457,600.146L383.407,600.196C382.258,601.346 380.858,601.895 379.259,601.945C377.91,601.895 376.66,601.446 375.561,600.496L373.561,598.447L373.561,605.244C373.561,606.544 373.162,607.693 372.362,608.693C372.212,608.843 372.012,609.043 371.812,609.242C371.162,609.942 370.413,610.442 369.563,610.692C369.013,610.842 368.463,610.942 367.914,610.942L367.764,610.942C366.114,610.942 364.765,610.392 363.615,609.243C362.666,608.293 362.166,607.193 362.066,605.844C362.016,605.844 362.016,605.844 361.966,605.844C361.766,606.994 361.216,608.043 360.317,608.893C359.267,610.042 357.918,610.592 356.368,610.592L355.968,610.592L355.968,616.69L364.065,616.69L364.065,695.908L370.513,695.908L370.513,695.358L381.308,695.358L381.308,695.908L388.855,695.908L388.855,616.69L427.69,616.69L427.69,593.699L385.107,593.699L384.657,593.849C384.857,594.299 384.957,594.799 385.007,595.348C385.057,595.598 385.057,595.848 385.057,596.148Z" style="fill:rgb(77,95,109);fill-rule:nonzero;"/>
                <path d="M384.607,593.749C384.607,593.749 384.607,593.799 384.657,593.849L385.107,593.699L384.607,593.749Z" style="fill:rgb(136,188,236);fill-rule:nonzero;"/>
                <path d="M384.607,593.749L385.107,593.699L384.607,593.699L384.607,593.749Z" style="fill:rgb(1,0,40);fill-rule:nonzero;"/>
                <path d="M384.607,593.699L433.088,593.699L433.088,568.559L364.765,568.559L364.765,573.257C366.614,573.607 368.214,574.556 369.563,576.056C370.763,577.355 371.762,579.105 372.562,581.254L372.712,581.404C372.712,581.554 372.712,581.703 372.762,581.853L372.812,581.953C372.862,582.003 372.862,582.103 372.912,582.153L373.511,582.153L383.457,592.099C383.957,592.599 384.357,593.149 384.607,593.699Z" style="fill:rgb(131,37,3);fill-rule:nonzero;"/>
                <path d="M373.561,598.447L373.561,598.197L373.311,598.197C373.361,598.247 373.461,598.347 373.561,598.447Z" style="fill:rgb(1,0,40);fill-rule:nonzero;"/>
                <path d="M422.292,616.689L397.502,616.689L397.502,695.908L403.949,695.908L403.949,695.358L414.745,695.358L414.745,695.908L422.292,695.908L422.292,616.689Z" style="fill:rgb(56,71,80);fill-rule:nonzero;"/>
                <path d="M372.562,581.254L372.712,581.404L372.562,581.254Z" style="fill:rgb(153,153,255);fill-rule:nonzero;"/>
                <path d="M372.562,581.254L371.812,580.504L372.562,581.254Z" style="fill:rgb(152,172,87);fill-rule:nonzero;"/>
                <path d="M372.912,582.153C372.912,582.203 372.962,582.303 373.012,582.353L373.511,582.153L372.912,582.153Z" style="fill:rgb(153,153,204);fill-rule:nonzero;"/>
                <path d="M370.513,695.358L370.513,719.148L370.762,719.148L370.762,733.093L381.308,733.093L381.308,695.908L381.308,695.358L370.513,695.358Z" style="fill:rgb(255,203,153);fill-rule:nonzero;"/>
                <path d="M403.949,695.358L403.949,733.093L414.745,733.093L414.745,695.908L414.745,695.358L403.949,695.358Z" style="fill:rgb(234,152,133);fill-rule:nonzero;"/>
                <path d="M414.745,733.093L403.949,733.093L403.949,740.69C403.499,740.64 403.05,740.59 402.6,740.64C401.8,740.64 401.05,740.69 400.301,740.79C400.201,740.79 400.101,740.79 400.001,740.79C399.151,740.89 398.351,741.09 397.552,741.34C397.452,741.34 397.352,741.34 397.302,741.39C396.602,741.589 395.952,741.839 395.303,742.139C394.753,742.389 394.203,742.689 393.653,742.989C393.004,743.389 392.354,743.839 391.754,744.288C391.104,744.788 390.455,745.338 389.855,745.988L381.308,745.988L370.763,745.988L370.763,754.734L409.197,754.734C409.147,754.534 409.097,754.335 409.047,754.185L420.743,754.185C419.793,751.486 418.294,749.037 416.294,746.838C416.044,746.538 415.745,746.238 415.495,745.988C415.245,745.738 414.995,745.488 414.745,745.288L414.745,733.093Z" style="fill:rgb(204,204,204);fill-rule:nonzero;"/>
                <rect x="370.762" y="733.093" width="10.546" height="12.895" style="fill:rgb(234,234,234);fill-rule:nonzero;"/>
                <path d="M449.731,746.837C449.481,746.537 449.181,746.238 448.931,745.988C448.331,745.388 447.732,744.838 447.132,744.388C447.082,744.388 447.082,744.388 447.082,744.338C445.982,743.489 444.833,742.789 443.633,742.239C443.483,742.189 443.383,742.139 443.233,742.089C441.784,741.439 440.235,741.04 438.635,740.84C438.585,740.79 438.535,740.79 438.485,740.79C437.686,740.69 436.886,740.64 436.036,740.64C435.686,740.64 435.287,740.64 434.937,740.64C434.537,740.69 434.137,740.74 433.737,740.79C433.637,740.79 433.537,740.79 433.437,740.79C432.588,740.89 431.738,741.09 430.938,741.34C430.888,741.34 430.788,741.34 430.738,741.39C430.239,741.539 429.739,741.689 429.289,741.889C429.089,741.939 428.889,742.039 428.739,742.139C428.189,742.389 427.64,742.689 427.09,742.989C425.74,743.789 424.491,744.788 423.291,745.988L415.495,745.988C415.744,746.238 416.044,746.538 416.294,746.837C418.293,749.037 419.793,751.486 420.742,754.185L409.047,754.185C409.097,754.335 409.147,754.534 409.197,754.734L454.179,754.784C447.082,754.584 443.183,754.385 442.534,754.185L454.129,754.734L454.779,754.784L454.779,754.734C453.379,751.686 451.68,749.037 449.731,746.838L449.731,746.837Z" style="fill:rgb(149,149,149);fill-rule:nonzero;"/>
                <path d="M370.762,754.734L370.762,759.582L455.828,759.582C455.728,758.433 455.529,757.333 455.279,756.284C455.129,755.734 454.929,755.234 454.779,754.734L454.779,754.784L454.129,754.734L454.179,754.784L409.197,754.734L370.763,754.734L370.762,754.734Z" style="fill:rgb(204,51,0);fill-rule:nonzero;"/>
                <path d="M433.088,473.297C432.488,474.546 432.488,475.296 433.088,475.446L433.088,473.297Z" style="fill:rgb(152,172,87);fill-rule:nonzero;"/>
                <path d="M432.888,492.189L432.888,490.89L432.888,492.189Z" style="fill:rgb(153,153,204);fill-rule:nonzero;"/>
                <path d="M479.657,458.453L472.338,458.453C471.108,458.628 469.996,459.038 469.001,459.682C466.483,461.146 464.492,463.781 463.145,467.587L447.044,531.759C446.927,532.286 446.985,532.755 447.278,533.282C447.512,533.809 447.863,534.16 448.39,534.336C448.449,534.336 448.508,534.336 448.566,534.394L449.034,534.394C449.21,534.336 449.386,534.277 449.561,534.16C449.679,534.218 449.796,534.277 449.913,534.336C449.971,534.336 450.03,534.336 450.088,534.394L450.557,534.394C450.791,534.336 451.025,534.219 451.259,534.043C451.786,533.809 452.079,533.457 452.255,532.93L468.356,468.465C470.581,461.907 474.329,458.57 479.657,458.453Z" style="fill:rgb(115,115,117);fill-rule:nonzero;"/>
                <path d="M479.657,458.453C474.329,458.57 470.582,461.907 468.357,468.465L452.255,532.93C452.079,533.457 451.786,533.809 451.259,534.043C451.025,534.218 450.791,534.336 450.557,534.394L487.386,534.394C490.138,532.696 493.299,531.818 496.871,531.818C500.443,531.818 503.605,532.696 506.356,534.394L532.002,534.394C532.763,534.394 533.466,534.57 534.169,534.862C534.169,534.687 534.169,534.453 534.227,534.277L551.675,464.484C552.085,460.678 549.977,458.628 545.293,458.453L479.657,458.453ZM510.514,490.832C509.167,491.827 507.645,492.354 505.888,492.354C504.073,492.354 502.492,491.827 501.204,490.832C499.916,489.719 499.272,488.431 499.272,486.909C499.272,485.445 499.916,484.157 501.204,483.161C502.492,482.108 504.073,481.581 505.888,481.581C507.645,481.581 509.167,482.108 510.514,483.161C511.743,484.157 512.387,485.445 512.387,486.909C512.387,488.431 511.743,489.719 510.514,490.832Z" style="fill:rgb(36,35,77);fill-rule:nonzero;"/>
                <path d="M505.888,492.354C507.645,492.354 509.167,491.827 510.514,490.832C511.743,489.719 512.387,488.431 512.387,486.909C512.387,485.445 511.743,484.157 510.514,483.161C509.167,482.108 507.645,481.581 505.888,481.581C504.073,481.581 502.492,482.108 501.204,483.161C499.916,484.157 499.272,485.445 499.272,486.909C499.272,488.431 499.916,489.719 501.204,490.832C502.492,491.827 504.073,492.354 505.888,492.354Z" style="fill:rgb(204,204,204);fill-rule:nonzero;"/>
                <path d="M496.871,531.818C493.3,531.818 490.138,532.696 487.386,534.394C486.508,534.921 485.688,535.507 484.927,536.209C481.589,539.078 479.95,542.591 479.95,546.748L479.95,546.866C479.95,547.158 480.008,547.51 480.067,547.802L473.333,547.802L464.082,562.089L501.321,562.089C508.874,562.03 512.68,558.693 512.68,551.96L512.739,551.96C513.266,550.73 513.558,549.383 513.675,547.978C513.734,547.568 513.734,547.158 513.734,546.749C513.734,542.591 512.095,539.078 508.816,536.209C508.054,535.507 507.235,534.921 506.356,534.394C503.605,532.696 500.443,531.818 496.871,531.818Z" style="fill:rgb(255,203,153);fill-rule:nonzero;"/>
                <path d="M484.927,536.209C485.688,535.507 486.508,534.921 487.386,534.394L450.557,534.394L450.088,534.394L449.035,534.394L448.566,534.394L444.76,534.394C444.233,534.394 443.706,534.394 443.238,534.453C444.585,534.628 445.814,535.272 446.809,536.385C447.98,537.732 448.566,539.312 448.566,541.245L448.566,541.303C448.566,543.177 447.98,544.758 446.809,546.104C446.048,546.866 445.287,547.451 444.409,547.802L480.067,547.802C480.008,547.51 479.95,547.158 479.95,546.866L479.95,546.749C479.95,542.591 481.589,539.078 484.927,536.209Z" style="fill:rgb(22,15,66);fill-rule:nonzero;"/>
                <path d="M513.734,546.748C513.734,547.158 513.734,547.568 513.676,547.978L533.407,547.978C534.52,547.685 535.457,547.041 536.335,546.104C537.506,544.758 538.092,543.177 538.092,541.303L538.092,541.245C538.092,539.488 537.623,538.024 536.628,536.795C536.511,536.619 536.394,536.502 536.335,536.385C535.691,535.682 534.93,535.155 534.169,534.863C533.466,534.57 532.763,534.394 532.002,534.394L506.356,534.394C507.235,534.921 508.054,535.507 508.816,536.209C512.095,539.078 513.734,542.591 513.734,546.749L513.734,546.748Z" style="fill:rgb(22,15,66);fill-rule:nonzero;"/>
                <path d="M464.082,562.089L473.333,547.802L444.409,547.802L431.82,547.802L431.82,562.089L464.082,562.089Z" style="fill:rgb(234,152,133);fill-rule:nonzero;"/>
                <path d="M375.552,534.394C373.854,534.336 372.391,535.038 371.22,536.385C370.049,537.731 369.463,539.312 369.463,541.245L369.463,541.303C369.463,543.177 370.049,544.758 371.22,546.104C372.098,547.041 373.035,547.685 374.147,547.978L431.82,547.978L431.82,547.802L444.409,547.802C445.287,547.451 446.048,546.866 446.81,546.104C447.981,544.758 448.566,543.177 448.566,541.303L448.566,541.245C448.566,539.313 447.981,537.732 446.81,536.385C445.814,535.272 444.585,534.628 443.238,534.453C443.004,534.394 442.769,534.394 442.535,534.394C442.477,534.394 442.477,534.394 442.418,534.394L375.552,534.394Z" style="fill:rgb(115,115,117);fill-rule:nonzero;"/>
                <path d="M449.913,534.336C449.796,534.277 449.679,534.218 449.562,534.16C449.386,534.277 449.21,534.336 449.035,534.394L450.088,534.394C450.03,534.336 449.971,534.336 449.913,534.336Z" style="fill:rgb(36,35,77);fill-rule:nonzero;"/>
            </g>
        </g>
    </g>
</svg>
