<?xml version="1.0" encoding="UTF-8" standalone="no"?>
<!DOCTYPE svg PUBLIC "-//W3C//DTD SVG 1.1//EN" "http://www.w3.org/Graphics/SVG/1.1/DTD/svg11.dtd">
<svg width="100%" height="100%" viewBox="0 0 230 207" version="1.1" xmlns="http://www.w3.org/2000/svg" xmlns:xlink="http://www.w3.org/1999/xlink" xml:space="preserve" style="fill-rule:evenodd;clip-rule:evenodd;stroke-linejoin:round;stroke-miterlimit:1.41421;">
    <g transform="matrix(1,0,0,1,-4569,-304)">
        <g transform="matrix(1,0,0,1,0,-162)">
            <g id="Ninja-Male-3-Laptop-Sitting" transform="matrix(1,0,0,1,4092.04,454.91)">
                <path d="M485.415,39.172C484.238,42.349 483.65,45.702 483.65,49.291L483.65,61.586L542.302,61.586L549.479,49.585L549.479,61.586L586.247,61.586L586.188,49.291C586.188,38.878 581.187,29.936 571.245,22.583C561.186,15.229 549.126,11.582 534.948,11.582C527.006,11.582 519.77,12.758 513.182,15.053C507.946,16.818 503.063,19.347 498.651,22.583C492.062,27.466 487.65,32.995 485.415,39.172Z" style="fill-rule:nonzero;"/>
                <path d="M490.062,70.351C489.297,70.175 488.591,70.116 487.827,70.116C484.826,70.057 482.297,71.116 480.238,73.234C479.179,74.293 478.414,75.469 477.885,76.822C477.355,78.058 477.12,79.352 477.12,80.823C477.12,82.234 477.355,83.529 477.885,84.764C478.414,86.058 479.179,87.235 480.238,88.294C482.297,90.353 484.826,91.412 487.827,91.471C488.591,91.471 489.297,91.412 490.062,91.235L490.062,70.351Z" style="fill:rgb(234,152,133);fill-rule:nonzero;"/>
                <path d="M490.062,61.586L490.062,96.942C490.062,99.295 490.239,101.589 490.592,103.766C491.886,112.413 495.769,119.944 502.298,126.415C506.593,130.709 511.417,133.886 516.653,135.945C517.653,136.298 518.653,136.651 519.653,136.945C523.477,138.063 527.477,138.651 531.772,138.651L538.831,138.651C542.302,138.592 545.596,138.18 548.773,137.416C551.185,136.769 553.538,135.945 555.774,134.886C560.068,132.886 564.068,130.062 567.716,126.415C575.893,118.238 579.952,108.413 580.011,96.942L580.011,91.235L580.011,70.351L580.011,61.586L549.479,61.586L549.479,49.585L542.302,61.586L490.062,61.586ZM554.891,84.117C554.597,84.47 554.185,84.646 553.773,84.646L545.184,84.646C544.714,84.646 544.302,84.47 544.008,84.117C543.714,83.823 543.537,83.411 543.537,82.999C543.537,82.529 543.714,82.117 544.008,81.764C544.302,81.47 544.714,81.352 545.184,81.352L553.773,81.352C554.185,81.352 554.597,81.47 554.891,81.764C555.244,82.117 555.42,82.529 555.42,82.999C555.42,83.411 555.244,83.823 554.891,84.117ZM539.302,81.764C540.066,82.529 540.419,83.47 540.419,84.588L540.419,91.412C540.419,92.471 540.066,93.412 539.302,94.177C539.125,94.353 539.007,94.471 538.831,94.589C538.125,95.118 537.36,95.353 536.478,95.412C535.36,95.353 534.36,94.942 533.595,94.177C532.83,93.412 532.419,92.471 532.419,91.412L532.419,84.588C532.419,83.47 532.83,82.529 533.595,81.764C534.36,80.999 535.36,80.587 536.478,80.587C537.36,80.587 538.125,80.882 538.831,81.411C539.007,81.47 539.125,81.588 539.302,81.764ZM549.361,102.648C549.42,103.06 549.42,103.53 549.42,103.942C549.42,105.766 549.126,107.531 548.596,109.237C547.714,111.766 546.185,114.061 544.008,116.12C543.243,116.826 542.419,117.473 541.655,118.061C539.243,119.708 536.595,120.708 533.654,121.12C532.772,121.238 531.83,121.297 530.889,121.297C527.418,121.297 524.241,120.532 521.418,118.943C520.065,118.179 518.829,117.237 517.711,116.12C515.535,114.061 514.064,111.766 513.24,109.237C512.652,107.531 512.358,105.766 512.358,103.942C512.358,103.531 512.358,103.06 512.417,102.648L549.361,102.648ZM516.006,84.646C515.594,84.588 515.182,84.411 514.829,84.117C514.535,83.823 514.358,83.411 514.358,82.999C514.358,82.529 514.535,82.117 514.829,81.764C515.182,81.47 515.594,81.352 516.006,81.352L524.653,81.352C525.065,81.352 525.477,81.47 525.83,81.764C526.124,82.117 526.3,82.529 526.3,82.999C526.3,83.411 526.124,83.823 525.83,84.117C525.477,84.47 525.065,84.647 524.653,84.647L516.005,84.647L516.006,84.646Z" style="fill:rgb(255,203,153);fill-rule:nonzero;"/>
                <path d="M553.773,84.646C554.185,84.646 554.597,84.47 554.891,84.117C555.244,83.823 555.421,83.411 555.421,82.999C555.421,82.529 555.244,82.117 554.891,81.764C554.597,81.47 554.185,81.352 553.773,81.352L545.184,81.352C544.714,81.352 544.302,81.47 544.008,81.764C543.714,82.117 543.537,82.529 543.537,82.999C543.537,83.411 543.714,83.823 544.008,84.117C544.302,84.47 544.714,84.647 545.184,84.647L553.773,84.647L553.773,84.646Z" style="fill:rgb(75,28,2);fill-rule:nonzero;"/>
                <path d="M540.419,84.588C540.419,83.47 540.066,82.529 539.302,81.764C539.125,81.587 539.007,81.47 538.831,81.411C538.125,80.881 537.36,80.587 536.478,80.587C535.36,80.587 534.36,80.999 533.595,81.764C532.83,82.529 532.419,83.47 532.419,84.588L532.419,91.412C532.419,92.471 532.83,93.412 533.595,94.177C534.36,94.942 535.36,95.353 536.478,95.412C537.36,95.353 538.125,95.118 538.831,94.589C539.007,94.471 539.125,94.353 539.302,94.177C540.066,93.412 540.419,92.471 540.419,91.412L540.419,84.588Z" style="fill:rgb(234,152,133);fill-rule:nonzero;"/>
                <path d="M531.713,112.296C532.36,112.237 533.007,112.296 533.654,112.413C535.713,112.708 537.478,113.472 539.066,114.767C540.302,115.767 541.125,116.826 541.655,118.061C542.419,117.473 543.243,116.826 544.008,116.12C546.184,114.061 547.714,111.766 548.596,109.237L513.24,109.237C514.064,111.767 515.535,114.061 517.711,116.12C518.829,117.238 520.064,118.179 521.418,118.944C521.829,117.355 522.829,116.002 524.3,114.767C526.359,113.061 528.83,112.237 531.713,112.296Z" style="fill:rgb(79,32,32);fill-rule:nonzero;"/>
                <path d="M533.654,112.413C533.007,112.296 532.36,112.237 531.713,112.296C528.83,112.237 526.359,113.061 524.3,114.767C522.83,116.002 521.83,117.355 521.418,118.944C524.241,120.532 527.418,121.297 530.889,121.297C531.83,121.297 532.772,121.238 533.654,121.12C536.595,120.708 539.243,119.708 541.655,118.061C541.125,116.826 540.302,115.767 539.066,114.767C537.478,113.473 535.713,112.708 533.654,112.414L533.654,112.413Z" style="fill:rgb(255,153,153);fill-rule:nonzero;"/>
                <path d="M549.42,103.942C549.42,103.53 549.42,103.06 549.361,102.648L512.417,102.648C512.358,103.06 512.358,103.53 512.358,103.942C512.358,105.766 512.652,107.531 513.241,109.237L548.596,109.237C549.126,107.531 549.42,105.766 549.42,103.942Z" style="fill:white;fill-rule:nonzero;"/>
                <path d="M514.829,84.117C515.182,84.411 515.594,84.588 516.006,84.646L524.653,84.646C525.065,84.646 525.477,84.47 525.83,84.117C526.124,83.823 526.3,83.411 526.3,82.999C526.3,82.529 526.124,82.117 525.83,81.764C525.477,81.47 525.065,81.352 524.653,81.352L516.005,81.352C515.594,81.352 515.182,81.47 514.829,81.764C514.535,82.117 514.358,82.529 514.358,82.999C514.358,83.411 514.535,83.823 514.829,84.117Z" style="fill:rgb(75,28,2);fill-rule:nonzero;"/>
                <path d="M503.652,149.534C499.475,151.534 497.298,155.594 497.122,161.653L497.122,177.89L511.417,177.89L511.417,169.065L511.417,148.299L511.417,148.181C509.417,148.122 508.181,148.181 507.652,148.299C506.181,148.534 504.828,148.946 503.652,149.534Z" style="fill:rgb(83,18,2);fill-rule:nonzero;"/>
                <path d="M511.417,148.299L511.417,169.065L571.245,169.065L571.245,168.83C569.069,156.417 561.598,149.475 548.832,148.064L548.773,148.24L519.712,148.24L519.006,148.24L519.535,148.24C519.182,148.24 518.888,148.24 518.594,148.24L511.417,148.299ZM533.654,149.005L533.654,148.769L534.183,148.769C534.007,148.828 533.83,148.946 533.654,149.005ZM546.243,168.3L546.714,168.242C546.655,168.242 546.538,168.242 546.479,168.3C546.42,168.242 546.302,168.242 546.243,168.3Z" style="fill:rgb(131,37,3);fill-rule:nonzero;"/>
                <path d="M533.654,148.769L533.654,149.005C533.83,148.946 534.007,148.828 534.183,148.769L533.654,148.769Z" style="fill:rgb(109,129,34);fill-rule:nonzero;"/>
                <path d="M519.712,148.24L548.773,148.24L548.773,148.063L548.773,137.416C545.596,138.18 542.302,138.592 538.831,138.651C538.654,138.651 538.419,138.651 538.243,138.651L531.771,138.651C527.477,138.651 523.477,138.063 519.653,136.945L519.712,148.24Z" style="fill:rgb(234,152,133);fill-rule:nonzero;"/>
                <path d="M548.773,148.24L548.832,148.063L548.773,148.063L548.773,148.24Z" style="fill:rgb(153,153,204);fill-rule:nonzero;"/>
                <path d="M571.304,169.065L571.245,169.065L511.417,169.065L511.417,192.361L532.066,192.361C532.713,191.361 533.536,190.42 534.419,189.538C536.948,186.949 540.419,185.125 544.714,184.125C545.126,184.067 546.126,184.067 547.596,184.067C550.302,184.067 552.832,184.596 555.126,185.596C557.185,186.479 559.068,187.832 560.833,189.538C561.715,190.42 562.48,191.361 563.186,192.361L571.834,192.361L571.834,178.537C571.775,176.242 571.775,174.36 571.775,172.772C571.716,172.477 571.716,172.242 571.657,172.007L571.657,171.889C571.598,170.889 571.481,169.948 571.304,169.065Z" style="fill:rgb(240,90,40);fill-rule:nonzero;"/>
                <path d="M571.245,169.065L571.304,169.065C571.304,169.006 571.304,168.889 571.245,168.83L571.245,169.065Z" style="fill:rgb(241,89,40);fill-rule:nonzero;"/>
                <path d="M560.833,189.538C559.068,187.832 557.185,186.478 555.127,185.596C552.832,184.596 550.303,184.066 547.596,184.066C546.126,184.066 545.126,184.066 544.714,184.125C540.419,185.125 536.948,186.949 534.419,189.538C533.536,190.42 532.713,191.361 532.066,192.361C530.007,195.362 528.948,198.832 528.948,202.774C528.948,202.951 528.948,203.186 528.948,203.362L566.245,203.362C566.245,203.186 566.245,202.951 566.304,202.774C566.304,198.833 565.245,195.362 563.186,192.361C562.48,191.361 561.715,190.42 560.833,189.538Z" style="fill:rgb(255,203,153);fill-rule:nonzero;"/>
                <path d="M571.834,192.361L563.186,192.361C565.245,195.362 566.304,198.832 566.304,202.774C566.245,202.951 566.245,203.186 566.245,203.362L528.948,203.362C528.948,203.186 528.948,202.951 528.948,202.774C528.948,198.833 530.007,195.362 532.066,192.361L511.417,192.361L511.417,214.599L571.834,214.599L571.834,192.361Z" style="fill:rgb(131,37,3);fill-rule:nonzero;"/>
                <rect x="511.417" y="214.598" width="60.417" height="1.824" style="fill:rgb(240,90,40);fill-rule:nonzero;"/>
                <path d="M511.417,192.361L511.417,177.89L497.122,177.89L497.122,216.422L511.417,216.422L511.417,214.599L511.417,192.361Z" style="fill:rgb(255,203,153);fill-rule:nonzero;"/>
                <path d="M496.239,195.479L497.122,195.715L497.122,195.479L496.239,195.479Z" style="fill:rgb(165,109,72);fill-rule:nonzero;"/>
                <path d="M582.188,70.116C581.423,70.116 580.658,70.175 580.011,70.351L580.011,91.235C580.658,91.412 581.423,91.471 582.188,91.471C582.952,91.471 583.717,91.412 584.423,91.235C585.07,91.118 585.658,90.941 586.247,90.706C587.482,90.176 588.659,89.353 589.718,88.294C591.777,86.235 592.835,83.705 592.894,80.823C592.835,77.823 591.777,75.293 589.718,73.234C588.659,72.175 587.482,71.41 586.247,70.881C585.658,70.645 585.07,70.469 584.423,70.351C583.717,70.175 582.952,70.116 582.187,70.116L582.188,70.116Z" style="fill:rgb(234,152,133);fill-rule:nonzero;"/>
                <path d="M571.775,153.887L571.775,152.005C571.245,153.123 571.245,153.77 571.775,153.887Z" style="fill:rgb(152,172,87);fill-rule:nonzero;"/>
                <path d="M571.657,167.595L571.598,167.595L571.657,168.771L571.657,167.595Z" style="fill:rgb(153,153,204);fill-rule:nonzero;"/>
                <path d="M575.599,202.774C575.599,202.95 575.599,203.186 575.658,203.362L612.896,203.362C612.896,203.186 612.896,202.95 612.955,202.774C612.955,197.597 611.131,193.185 607.484,189.538C606.895,188.949 606.307,188.42 605.66,187.949C605.425,187.773 605.189,187.596 604.954,187.42C602.895,185.949 600.66,185.008 598.248,184.478L593.659,184.125C589.894,184.184 586.541,185.302 583.599,187.42C582.717,188.067 581.835,188.773 581.07,189.538C577.422,193.185 575.599,197.597 575.599,202.774Z" style="fill:rgb(234,152,133);fill-rule:nonzero;"/>
                <path d="M627.724,114.24L619.748,114.24C618.4,114.521 617.164,114.971 616.041,115.701C613.288,117.386 611.154,120.419 609.637,124.8L592.112,198.832C591.944,199.45 592.056,200.068 592.337,200.63C592.618,201.248 593.067,201.641 593.573,201.809C593.629,201.866 593.685,201.866 593.741,201.866L594.247,201.866C594.415,201.809 594.64,201.753 594.864,201.641C594.977,201.697 595.089,201.753 595.258,201.809C595.314,201.866 595.37,201.866 595.426,201.866L595.932,201.866C596.212,201.809 596.437,201.697 596.718,201.529C597.223,201.248 597.617,200.798 597.785,200.181L615.366,125.755C617.782,118.229 621.938,114.409 627.724,114.24Z" style="fill:rgb(115,115,117);fill-rule:nonzero;"/>
                <path d="M699.341,114.24L627.724,114.24C621.938,114.409 617.782,118.228 615.367,125.755L597.785,200.181C597.617,200.798 597.224,201.248 596.718,201.529C596.437,201.697 596.213,201.81 595.932,201.866L684.849,201.866C685.691,201.866 686.478,202.034 687.208,202.427C687.208,202.203 687.208,201.978 687.264,201.753L706.362,121.206C706.811,116.768 704.452,114.465 699.341,114.241L699.341,114.24ZM661.37,151.593C659.966,152.773 658.28,153.391 656.315,153.391C654.349,153.391 652.663,152.773 651.259,151.593C649.855,150.358 649.125,148.841 649.125,147.1C649.125,145.359 649.855,143.954 651.259,142.775C652.663,141.539 654.348,140.921 656.314,140.921C658.28,140.921 659.965,141.539 661.37,142.775C662.774,143.954 663.448,145.359 663.448,147.1C663.448,148.841 662.774,150.358 661.37,151.593Z" style="fill:rgb(36,35,77);fill-rule:nonzero;"/>
                <path d="M656.315,153.391C658.28,153.391 659.966,152.773 661.37,151.593C662.774,150.358 663.448,148.841 663.448,147.1C663.448,145.359 662.774,143.954 661.37,142.775C659.966,141.539 658.28,140.921 656.314,140.921C654.348,140.921 652.663,141.539 651.259,142.775C649.855,143.954 649.125,145.359 649.125,147.1C649.125,148.841 649.855,150.358 651.259,151.593C652.663,152.773 654.348,153.391 656.314,153.391L656.315,153.391Z" style="fill:rgb(204,204,204);fill-rule:nonzero;"/>
                <path d="M689.567,215.459C690.859,213.942 691.477,212.089 691.477,209.898L691.477,209.786C691.533,207.82 690.971,206.078 689.904,204.674C689.792,204.506 689.679,204.337 689.567,204.169C688.837,203.326 688.05,202.764 687.208,202.427C686.478,202.034 685.691,201.866 684.849,201.866L595.931,201.866L595.426,201.866L594.246,201.866L593.741,201.866L589.584,201.866C589.022,201.866 588.461,201.866 587.955,201.922C589.416,202.147 590.707,202.877 591.831,204.169C593.123,205.685 593.741,207.595 593.741,209.786L593.741,209.898C593.741,212.089 593.123,213.942 591.831,215.459C590.876,216.526 589.809,217.2 588.629,217.537L686.365,217.537C687.544,217.256 688.612,216.526 689.567,215.459Z" style="fill:rgb(22,15,66);fill-rule:nonzero;"/>
                <path d="M514.036,201.866C512.182,201.866 510.609,202.652 509.318,204.169C508.026,205.685 507.408,207.595 507.408,209.786L507.408,209.898C507.408,212.089 508.026,213.942 509.318,215.459C510.272,216.526 511.34,217.256 512.519,217.537L588.63,217.537C589.809,217.2 590.876,216.526 591.831,215.459C593.123,213.942 593.741,212.089 593.741,209.898L593.741,209.786C593.741,207.595 593.123,205.685 591.831,204.169C590.708,202.877 589.416,202.147 587.955,201.922C587.675,201.866 587.45,201.866 587.169,201.866C587.113,201.866 587.113,201.866 587.057,201.866L514.036,201.866Z" style="fill:rgb(115,115,117);fill-rule:nonzero;"/>
                <path d="M594.247,201.866L595.426,201.866C595.37,201.866 595.314,201.866 595.258,201.809C595.089,201.753 594.977,201.697 594.864,201.641C594.64,201.753 594.415,201.809 594.246,201.866L594.247,201.866Z" style="fill:rgb(36,35,77);fill-rule:nonzero;"/>
            </g>
        </g>
    </g>
</svg>
