<?xml version="1.0" encoding="UTF-8" standalone="no"?>
<!DOCTYPE svg PUBLIC "-//W3C//DTD SVG 1.1//EN" "http://www.w3.org/Graphics/SVG/1.1/DTD/svg11.dtd">
<svg width="100%" height="100%" viewBox="0 0 212 446" version="1.1" xmlns="http://www.w3.org/2000/svg" xmlns:xlink="http://www.w3.org/1999/xlink" xml:space="preserve" style="fill-rule:evenodd;clip-rule:evenodd;stroke-linejoin:round;stroke-miterlimit:1.41421;">
    <g transform="matrix(1,0,0,1,-4296,-65)">
        <g transform="matrix(1,0,0,1,0,-162)">
            <g id="Ninja-Male-3-OK-Hand" transform="matrix(1,0,0,1,4227.68,-87.1345)">
                <path d="M174.791,326.905C163.445,318.559 149.801,314.41 133.757,314.46C124.811,314.46 116.614,315.76 109.117,318.359C103.17,320.408 97.722,323.257 92.724,326.905C85.277,332.403 80.279,338.651 77.78,345.648C76.43,349.246 75.781,353.045 75.781,357.093L75.781,371.038L142.104,371.038L150.201,357.443L150.201,371.038L191.784,371.038L191.734,357.093C191.734,345.298 186.086,335.252 174.791,326.905Z" style="fill-rule:nonzero;"/>
                <path d="M82.978,371.038L82.978,410.972C82.978,413.621 83.178,416.22 83.577,418.719C85.077,428.465 89.475,437.011 96.822,444.358C101.67,449.207 107.118,452.805 113.116,455.104C114.215,455.504 115.315,455.904 116.464,456.254C120.813,457.503 125.361,458.153 130.209,458.153L138.156,458.153C142.054,458.103 145.803,457.653 149.401,456.754C152.15,456.054 154.799,455.104 157.348,453.955C162.246,451.656 166.744,448.457 170.892,444.359C180.089,435.112 184.687,424.017 184.687,410.972L184.687,404.574L184.687,380.934L184.687,371.038L150.201,371.038L150.201,357.443L142.104,371.038L82.978,371.038ZM122.112,393.379C122.612,393.379 123.062,393.529 123.411,393.879C123.811,394.278 124.011,394.728 124.011,395.228C124.011,395.678 123.811,396.128 123.411,396.478C123.062,396.877 122.612,397.077 122.112,397.077L112.366,397.077C111.866,397.077 111.416,396.877 111.016,396.478C110.667,396.128 110.467,395.678 110.467,395.228C110.467,394.728 110.667,394.279 111.016,393.879C111.416,393.529 111.866,393.379 112.366,393.379L122.112,393.379ZM108.218,418.918C108.218,418.419 108.218,417.919 108.268,417.469L150.101,417.469C150.101,417.919 150.101,418.419 150.101,418.918C150.101,421.018 149.801,423.017 149.201,424.916C148.202,427.815 146.452,430.414 143.953,432.713C143.104,433.513 142.254,434.262 141.304,434.912C138.605,436.761 135.607,437.911 132.308,438.361C131.308,438.511 130.259,438.561 129.209,438.561C125.261,438.561 121.662,437.661 118.513,435.912C117.014,435.062 115.615,433.963 114.265,432.713C111.816,430.414 110.117,427.815 109.167,424.916C108.517,423.017 108.218,421.018 108.218,418.919L108.218,418.918ZM156.348,396.477C155.998,396.877 155.549,397.077 155.049,397.077L145.303,397.077C144.803,397.077 144.353,396.877 143.953,396.478C143.603,396.128 143.453,395.678 143.453,395.228C143.453,394.728 143.603,394.278 143.953,393.879C144.353,393.529 144.803,393.379 145.303,393.379L155.049,393.379C155.549,393.379 155.998,393.529 156.348,393.879C156.698,394.279 156.898,394.728 156.948,395.228C156.898,395.678 156.698,396.128 156.348,396.478L156.348,396.477ZM138.655,393.829C139.505,394.678 139.955,395.778 140.005,397.027L140.005,404.724C139.955,405.974 139.505,407.023 138.655,407.923C138.506,408.073 138.306,408.173 138.156,408.323C137.356,408.923 136.456,409.223 135.457,409.272C134.207,409.223 133.108,408.773 132.208,407.923C131.358,407.023 130.909,405.974 130.909,404.724L130.909,397.027C130.909,395.778 131.358,394.678 132.208,393.829C133.108,392.929 134.207,392.479 135.457,392.479C136.456,392.479 137.356,392.779 138.156,393.429C138.306,393.529 138.506,393.679 138.655,393.829Z" style="fill:rgb(255,203,153);fill-rule:nonzero;"/>
                <path d="M123.411,393.879C123.062,393.529 122.612,393.379 122.112,393.379L112.366,393.379C111.866,393.379 111.416,393.529 111.016,393.879C110.667,394.278 110.467,394.728 110.467,395.228C110.467,395.678 110.667,396.128 111.016,396.478C111.416,396.877 111.866,397.077 112.366,397.077L122.112,397.077C122.612,397.077 123.062,396.877 123.411,396.478C123.811,396.128 124.011,395.678 124.011,395.228C124.011,394.728 123.811,394.279 123.411,393.879Z" style="fill:rgb(75,28,2);fill-rule:nonzero;"/>
                <path d="M108.268,417.469C108.218,417.919 108.218,418.419 108.218,418.918C108.218,421.018 108.517,423.017 109.167,424.916L149.201,424.916C149.801,423.017 150.101,421.018 150.101,418.919C150.101,418.419 150.101,417.919 150.101,417.469L108.268,417.469Z" style="fill:white;fill-rule:nonzero;"/>
                <path d="M121.712,431.164C124.061,429.264 126.86,428.315 130.109,428.315C130.858,428.315 131.608,428.365 132.308,428.465C134.657,428.815 136.706,429.714 138.455,431.164C139.805,432.263 140.755,433.513 141.304,434.912C142.254,434.262 143.104,433.513 143.953,432.713C146.452,430.414 148.202,427.815 149.201,424.916L109.167,424.916C110.117,427.815 111.816,430.414 114.265,432.713C115.615,433.963 117.014,435.062 118.513,435.912C118.963,434.162 120.063,432.563 121.712,431.164Z" style="fill:rgb(79,32,32);fill-rule:nonzero;"/>
                <path d="M130.109,428.315C126.86,428.315 124.061,429.264 121.712,431.164C120.063,432.563 118.963,434.162 118.513,435.912C121.662,437.661 125.261,438.561 129.209,438.561C130.259,438.561 131.308,438.511 132.308,438.361C135.607,437.911 138.605,436.761 141.304,434.912C140.755,433.513 139.805,432.263 138.455,431.164C136.706,429.714 134.657,428.815 132.308,428.465C131.608,428.365 130.858,428.315 130.109,428.315Z" style="fill:rgb(255,153,153);fill-rule:nonzero;"/>
                <path d="M155.049,397.077C155.549,397.077 155.998,396.877 156.348,396.477C156.698,396.128 156.898,395.678 156.948,395.228C156.898,394.728 156.698,394.278 156.348,393.879C155.998,393.529 155.549,393.379 155.049,393.379L145.303,393.379C144.803,393.379 144.353,393.529 143.953,393.879C143.603,394.278 143.453,394.728 143.453,395.228C143.453,395.678 143.603,396.128 143.953,396.478C144.353,396.877 144.803,397.077 145.303,397.077L155.049,397.077Z" style="fill:rgb(75,28,2);fill-rule:nonzero;"/>
                <path d="M140.005,397.027C139.955,395.778 139.505,394.678 138.655,393.829C138.505,393.679 138.306,393.529 138.156,393.429C137.356,392.779 136.456,392.479 135.457,392.479C134.207,392.479 133.108,392.929 132.208,393.829C131.358,394.678 130.909,395.778 130.909,397.027L130.909,404.724C130.909,405.974 131.358,407.023 132.208,407.923C133.108,408.773 134.207,409.223 135.457,409.273C136.456,409.223 137.356,408.923 138.156,408.323C138.306,408.173 138.506,408.073 138.655,407.923C139.505,407.023 139.955,405.974 140.005,404.724L140.005,397.028L140.005,397.027Z" style="fill:rgb(234,152,133);fill-rule:nonzero;"/>
                <path d="M82.978,380.934C82.178,380.734 81.328,380.634 80.479,380.634C77.13,380.634 74.281,381.833 71.932,384.182C70.683,385.432 69.783,386.781 69.233,388.281C68.683,389.63 68.383,391.13 68.383,392.729C68.383,394.328 68.683,395.828 69.233,397.227C69.783,398.677 70.683,400.026 71.932,401.276C74.281,403.625 77.13,404.774 80.479,404.774C81.328,404.774 82.178,404.724 82.978,404.574L82.978,380.934Z" style="fill:rgb(234,152,133);fill-rule:nonzero;"/>
                <path d="M130.209,458.153C125.361,458.153 120.813,457.503 116.464,456.254L116.514,468.998L116.514,469.048L149.401,469.048L149.401,468.799L149.401,456.753C145.803,457.653 142.054,458.103 138.156,458.153C137.906,458.153 137.706,458.153 137.456,458.153L130.209,458.153Z" style="fill:rgb(234,152,133);fill-rule:nonzero;"/>
                <path d="M107.118,469.048L107.118,468.899C104.869,468.899 103.469,468.949 102.92,469.048C101.22,469.298 99.721,469.798 98.371,470.448C93.623,472.697 91.174,477.295 91.024,484.142L91.024,502.535L107.118,502.535L107.118,492.589L107.118,469.049L107.118,469.048Z" style="fill:rgb(83,18,2);fill-rule:nonzero;"/>
                <path d="M116.514,468.998L115.715,468.998L116.214,469.048C115.864,468.998 115.565,468.998 115.265,468.998L107.118,469.048L107.118,492.589L173.691,492.589L173.691,487.641C170.293,476.496 162.196,470.248 149.451,468.799L149.401,469.049L116.514,469.049L116.514,468.999L116.514,468.998ZM132.908,469.648C132.658,469.698 132.458,469.798 132.308,469.898L132.308,469.598L132.908,469.648ZM146.502,491.639L147.052,491.589C147.002,491.589 146.902,491.589 146.852,491.639C146.702,491.639 146.602,491.639 146.502,491.639Z" style="fill:rgb(131,37,3);fill-rule:nonzero;"/>
                <path d="M132.308,469.898C132.458,469.798 132.658,469.698 132.908,469.648L132.308,469.598L132.308,469.898Z" style="fill:rgb(109,129,34);fill-rule:nonzero;"/>
                <path d="M107.118,502.535L91.024,502.535L91.024,572.657C89.075,573.257 87.426,573.957 86.176,574.706C85.727,574.956 85.377,575.256 85.027,575.556C84.727,575.756 84.477,575.956 84.277,576.206C83.627,576.855 83.078,577.605 82.678,578.455C82.578,578.605 82.528,578.755 82.478,578.905C82.328,579.355 82.228,579.804 82.178,580.304C81.928,581.354 81.728,582.353 81.528,583.403C81.528,583.453 81.528,583.553 81.528,583.603C81.478,583.753 81.478,583.953 81.528,584.153L81.478,604.245C81.478,605.294 81.728,606.194 82.178,606.993C82.328,607.243 82.478,607.493 82.678,607.743C82.828,607.893 82.978,608.093 83.128,608.243C83.478,608.593 83.828,608.943 84.277,609.193C84.527,609.343 84.777,609.443 85.027,609.542C85.377,609.692 85.777,609.842 86.177,609.892C86.476,609.942 86.826,609.942 87.176,609.942L87.326,609.942C88.875,609.942 90.225,609.393 91.275,608.243C92.124,607.393 92.674,606.444 92.924,605.344C92.874,605.194 92.874,605.044 92.874,604.894C92.924,604.894 92.974,604.894 93.024,604.944C92.974,605.094 92.974,605.194 92.924,605.344C93.024,606.744 93.524,607.943 94.473,608.893C95.523,609.942 96.822,610.542 98.372,610.592L98.722,610.592C100.321,610.592 101.62,610.042 102.67,608.893C103.57,608.043 104.119,606.994 104.319,605.844C104.369,605.844 104.419,605.844 104.469,605.844C104.569,607.194 105.069,608.293 106.019,609.243C107.168,610.392 108.518,610.942 110.117,610.942L110.267,610.942C110.867,610.942 111.416,610.842 111.966,610.692C112.816,610.442 113.566,609.943 114.215,609.243C114.365,609.043 114.565,608.843 114.715,608.693C115.515,607.693 115.915,606.544 115.965,605.244L115.915,598.447C115.815,598.347 115.715,598.247 115.665,598.197L115.915,598.197L115.915,585.103C115.915,584.653 115.865,584.203 115.765,583.753C115.715,583.553 115.665,583.353 115.615,583.153C115.565,582.903 115.465,582.604 115.365,582.354C115.315,582.304 115.315,582.204 115.265,582.154C115.215,582.104 115.215,582.004 115.215,581.954L115.115,581.854C115.115,581.704 115.115,581.554 115.065,581.404L114.915,581.254L114.216,580.504L114.965,581.254C114.116,579.105 113.116,577.356 111.967,576.056C110.617,574.557 108.968,573.607 107.118,573.257L107.118,568.559L107.118,544.119L107.118,518.929L107.118,502.536L107.118,502.535ZM93.024,584.152C92.974,584.352 92.974,584.552 92.924,584.752C92.924,584.402 92.974,584.102 93.024,583.753C93.024,583.903 93.024,584.002 93.024,584.152Z" style="fill:rgb(255,203,153);fill-rule:nonzero;"/>
                <path d="M107.118,492.589L107.118,518.929L175.491,518.929L175.491,503.235C175.441,502.285 175.441,501.386 175.441,500.536C175.291,500.486 175.141,500.486 174.991,500.486L173.691,492.589L107.118,492.589Z" style="fill:rgb(240,90,40);fill-rule:nonzero;"/>
                <path d="M91.024,522.677L91.024,522.427L89.975,522.427L91.024,522.677Z" style="fill:rgb(165,109,72);fill-rule:nonzero;"/>
                <path d="M107.118,568.559L107.118,573.257C108.967,573.607 110.617,574.556 111.966,576.056C113.116,577.355 114.115,579.104 114.965,581.254L115.065,581.404C115.115,581.554 115.115,581.703 115.115,581.853L115.215,581.953C115.215,582.003 115.215,582.103 115.265,582.153L115.864,582.153L125.86,592.099C126.31,592.599 126.71,593.149 127.01,593.699L175.491,593.699L175.491,568.559L107.118,568.559Z" style="fill:rgb(131,37,3);fill-rule:nonzero;"/>
                <path d="M115.065,581.403L114.965,581.254L114.915,581.254L115.065,581.404L115.065,581.403Z" style="fill:rgb(153,153,255);fill-rule:nonzero;"/>
                <path d="M114.915,581.254L114.965,581.254L114.215,580.504L114.915,581.254Z" style="fill:rgb(152,172,87);fill-rule:nonzero;"/>
                <path d="M115.864,582.153L115.265,582.153C115.315,582.203 115.315,582.303 115.365,582.353L115.864,582.153Z" style="fill:rgb(153,153,204);fill-rule:nonzero;"/>
                <path d="M115.864,582.153L115.365,582.353C115.465,582.603 115.565,582.903 115.615,583.153C115.665,583.353 115.715,583.553 115.765,583.753C115.864,584.202 115.914,584.652 115.914,585.102L115.914,598.447L117.964,600.496C119.013,601.446 120.263,601.895 121.612,601.945C123.212,601.895 124.611,601.346 125.761,600.196L125.86,600.146C125.96,599.996 126.06,599.896 126.21,599.796C126.91,598.947 127.31,597.997 127.41,596.947L127.41,595.348C127.36,594.798 127.21,594.299 127.01,593.849C127.01,593.799 127.01,593.749 127.01,593.749L127.01,593.699C126.71,593.149 126.31,592.599 125.861,592.1L115.865,582.154L115.864,582.153Z" style="fill:rgb(234,152,133);fill-rule:nonzero;"/>
                <rect x="107.118" y="544.118" width="68.373" height="24.441" style="fill:rgb(240,90,40);fill-rule:nonzero;"/>
                <path d="M127.01,593.849C127.21,594.298 127.36,594.798 127.41,595.348L127.41,596.947C127.31,597.997 126.91,598.947 126.21,599.796C126.06,599.896 125.961,599.996 125.861,600.146L125.761,600.196C124.611,601.346 123.212,601.895 121.612,601.945C120.263,601.895 119.013,601.446 117.964,600.496L115.914,598.447L115.964,605.244C115.914,606.544 115.515,607.693 114.715,608.693C114.565,608.843 114.365,609.043 114.215,609.242C113.565,609.942 112.816,610.442 111.966,610.692C111.416,610.842 110.866,610.942 110.267,610.942L110.117,610.942C108.517,610.942 107.168,610.392 106.018,609.243C105.069,608.293 104.569,607.193 104.469,605.844C104.419,605.844 104.369,605.844 104.319,605.844C104.119,606.994 103.569,608.043 102.67,608.893C101.62,610.042 100.321,610.592 98.721,610.592L98.371,610.592L98.371,616.69L106.418,616.69L106.418,695.908L112.916,695.908L112.916,695.358L123.661,695.358L123.661,695.908L131.258,695.908L131.258,616.69L170.043,616.69L170.043,593.699L127.46,593.699L127.01,593.849Z" style="fill:rgb(77,95,109);fill-rule:nonzero;"/>
                <path d="M127.01,593.849L127.46,593.699L127.01,593.749C127.01,593.749 127.01,593.799 127.01,593.849Z" style="fill:rgb(136,188,236);fill-rule:nonzero;"/>
                <path d="M127.46,593.699L127.01,593.699L127.01,593.749L127.46,593.699Z" style="fill:rgb(1,0,40);fill-rule:nonzero;"/>
                <path d="M115.914,598.447L115.914,598.197L115.665,598.197C115.715,598.247 115.815,598.347 115.914,598.447Z" style="fill:rgb(1,0,40);fill-rule:nonzero;"/>
                <path d="M123.661,695.908L123.661,695.358L112.916,695.358L112.916,719.148L113.116,719.148L113.116,733.093L123.661,733.093L123.661,695.908Z" style="fill:rgb(255,203,153);fill-rule:nonzero;"/>
                <rect x="113.116" y="733.093" width="10.545" height="12.895" style="fill:rgb(234,234,234);fill-rule:nonzero;"/>
                <path d="M107.118,518.928L107.118,544.118L175.491,544.118L175.491,518.929L107.118,518.929L107.118,518.928Z" style="fill:rgb(131,37,3);fill-rule:nonzero;"/>
                <path d="M123.661,745.988L113.116,745.988L113.116,754.734L151.6,754.734C151.55,754.534 151.45,754.334 151.4,754.184L163.096,754.184C162.146,751.485 160.647,749.036 158.647,746.837C158.398,746.537 158.148,746.238 157.898,745.988C157.648,745.738 157.348,745.488 157.098,745.288L157.098,733.093L146.352,733.093L146.352,740.69C145.903,740.64 145.453,740.59 145.003,740.64C144.153,740.64 143.404,740.69 142.654,740.79C142.554,740.79 142.454,740.79 142.404,740.79C141.554,740.89 140.705,741.09 139.905,741.34C139.805,741.34 139.755,741.34 139.705,741.39C139.005,741.589 138.306,741.839 137.656,742.139C137.106,742.389 136.556,742.689 136.057,742.989C135.407,743.389 134.757,743.839 134.157,744.288C133.508,744.788 132.858,745.338 132.208,745.988L123.661,745.988Z" style="fill:rgb(204,204,204);fill-rule:nonzero;"/>
                <path d="M113.116,754.734L113.116,759.582L198.232,759.582C198.082,758.433 197.882,757.333 197.632,756.284C197.482,755.734 197.332,755.234 197.132,754.734L197.132,754.784L196.532,754.734L196.532,754.784L151.6,754.734L113.116,754.734Z" style="fill:rgb(204,51,0);fill-rule:nonzero;"/>
                <path d="M248.162,410.372C248.012,410.322 247.862,410.322 247.712,410.372C241.364,410.372 237.066,412.221 234.767,415.92C232.418,419.568 231.868,422.967 233.068,426.016C233.867,428.065 235.816,429.064 238.865,429.064C237.616,429.114 236.566,429.864 235.667,431.314C234.567,432.963 234.517,434.662 235.567,436.512C237.366,439.56 239.965,441.809 243.413,443.359C245.263,444.209 247.262,444.758 249.411,445.008C249.661,445.058 249.961,445.058 250.261,445.108C249.611,457.853 246.762,467.999 241.814,475.546C239.565,478.995 236.866,481.843 233.717,484.193C226.37,488.941 215.675,490.79 201.63,489.64L199.781,504.484C217.624,505.784 231.518,502.785 241.564,495.488C248.711,490.79 254.209,484.143 257.958,475.546C261.806,466.6 263.905,455.554 264.155,442.409C265.205,441.86 266.254,441.21 267.304,440.51C271.352,437.611 274.051,434.013 275.401,429.764C275.451,429.664 275.451,429.565 275.501,429.415C276.5,426.666 277.4,423.017 278.15,418.519C278.899,414.021 279.299,409.772 279.449,405.774C279.549,404.025 279.099,402.625 278.1,401.676C277.2,400.776 276.05,400.326 274.701,400.326C273.351,400.276 272.152,400.676 271.152,401.426C270.103,402.226 269.553,403.275 269.603,404.625C269.603,407.473 269.303,410.922 268.703,414.97C268.653,415.12 268.603,415.27 268.603,415.42C268.553,415.47 268.553,415.52 268.553,415.57C268.403,415.52 268.303,415.42 268.204,415.32C268.204,415.17 268.204,415.071 268.254,414.921C269.103,408.373 268.503,402.276 266.354,396.578C265.755,394.929 264.805,393.779 263.555,393.179C262.406,392.63 261.256,392.58 260.007,393.029C258.807,393.379 257.908,394.079 257.258,395.079C256.508,396.178 256.308,397.378 256.608,398.677C257.658,403.125 258.158,407.324 258.108,411.272C258.108,411.322 258.108,411.322 258.108,411.372C258.008,411.322 257.908,411.322 257.758,411.272C257.358,404.625 255.259,399.077 251.46,394.629C250.311,393.279 249.061,392.53 247.712,392.48C246.512,392.43 245.413,392.88 244.413,393.829C243.463,394.729 242.864,395.828 242.664,397.078C242.414,398.427 242.664,399.627 243.463,400.676C245.263,403.075 246.512,405.075 247.162,406.724C247.612,407.774 247.912,408.973 248.162,410.223C248.162,410.273 248.162,410.323 248.162,410.373L248.162,410.372ZM242.814,424.216C242.814,421.468 244.113,419.968 246.662,419.668C248.311,419.468 249.811,419.868 251.16,420.818C252.51,421.767 253.409,423.117 253.859,424.866C254.309,426.466 254.259,427.965 253.709,429.414C253.06,431.014 251.86,432.163 250.211,432.863C247.762,433.813 245.812,433.213 244.263,431.014C243.313,429.664 241.614,429.015 239.165,429.065C241.614,428.915 242.864,427.315 242.814,424.217L242.814,424.216Z" style="fill:rgb(255,203,153);fill-rule:nonzero;"/>
                <path d="M187.186,380.634C186.336,380.634 185.487,380.734 184.687,380.934L184.687,404.574C185.487,404.724 186.336,404.774 187.186,404.774C188.036,404.774 188.885,404.724 189.735,404.574C190.435,404.424 191.134,404.175 191.784,403.925C193.234,403.325 194.533,402.425 195.733,401.276C198.082,398.927 199.231,396.078 199.281,392.729C199.231,389.38 198.082,386.532 195.733,384.183C194.533,382.983 193.234,382.083 191.784,381.534C191.134,381.284 190.435,381.084 189.735,380.934C188.885,380.734 188.036,380.634 187.186,380.634Z" style="fill:rgb(234,152,133);fill-rule:nonzero;"/>
                <path d="M173.491,484.592C173.491,484.642 173.491,484.742 173.541,484.792L174.041,484.742C173.841,484.692 173.641,484.642 173.491,484.592Z" style="fill:rgb(120,63,46);fill-rule:nonzero;"/>
                <path d="M174.041,484.742L173.541,484.792C173.591,485.242 173.641,485.742 173.691,486.292L173.691,492.589L174.991,500.486C175.141,500.486 175.291,500.486 175.441,500.536C182.738,502.235 189.585,503.435 195.982,504.135C197.232,504.284 198.531,504.384 199.781,504.484L201.63,489.64C200.431,489.54 199.231,489.44 197.982,489.291C190.834,488.491 182.838,486.991 174.041,484.742Z" style="fill:rgb(83,18,2);fill-rule:nonzero;"/>
                <path d="M149.451,468.799L149.401,468.799L149.401,469.048L149.451,468.799Z" style="fill:rgb(153,153,204);fill-rule:nonzero;"/>
                <path d="M164.645,616.689L139.855,616.689L139.855,695.908L146.352,695.908L146.352,695.358L157.098,695.358L157.098,695.908L164.645,695.908L164.645,616.689Z" style="fill:rgb(56,71,80);fill-rule:nonzero;"/>
                <path d="M157.098,695.908L157.098,695.358L146.352,695.358L146.352,733.093L157.098,733.093L157.098,695.908Z" style="fill:rgb(234,152,133);fill-rule:nonzero;"/>
                <path d="M197.132,754.734C195.783,751.685 194.083,749.036 192.084,746.837C191.834,746.537 191.534,746.238 191.284,745.988C190.735,745.388 190.135,744.838 189.535,744.388C189.485,744.388 189.485,744.388 189.435,744.338C188.335,743.489 187.186,742.789 185.986,742.239C185.836,742.189 185.737,742.139 185.637,742.089C184.187,741.439 182.638,741.04 180.988,740.84C180.938,740.79 180.888,740.79 180.838,740.79C180.039,740.69 179.239,740.64 178.439,740.64C178.04,740.64 177.64,740.64 177.29,740.64C176.89,740.69 176.49,740.74 176.09,740.79C175.99,740.79 175.89,740.79 175.84,740.79C174.991,740.89 174.141,741.09 173.341,741.34L173.292,741.34C173.242,741.34 173.192,741.34 173.142,741.39C172.592,741.539 172.092,741.689 171.642,741.889C171.442,741.939 171.242,742.039 171.092,742.139C170.543,742.389 169.993,742.689 169.493,742.989C168.144,743.789 166.844,744.788 165.645,745.988L157.898,745.988C158.148,746.238 158.397,746.538 158.647,746.837C160.647,749.037 162.146,751.486 163.096,754.185L151.4,754.185C151.45,754.335 151.55,754.534 151.6,754.734L196.532,754.784C189.485,754.584 185.587,754.385 184.937,754.185L196.532,754.734L197.132,754.784L197.132,754.734Z" style="fill:rgb(149,149,149);fill-rule:nonzero;"/>
                <path d="M175.441,473.297C174.891,474.546 174.891,475.296 175.441,475.446L175.441,473.297Z" style="fill:rgb(152,172,87);fill-rule:nonzero;"/>
            </g>
        </g>
    </g>
</svg>
