<?xml version="1.0" encoding="UTF-8" standalone="no"?>
<!DOCTYPE svg PUBLIC "-//W3C//DTD SVG 1.1//EN" "http://www.w3.org/Graphics/SVG/1.1/DTD/svg11.dtd">
<svg width="100%" height="100%" viewBox="0 0 159 322" version="1.1" xmlns="http://www.w3.org/2000/svg" xmlns:xlink="http://www.w3.org/1999/xlink" xml:space="preserve" style="fill-rule:evenodd;clip-rule:evenodd;stroke-linecap:round;stroke-linejoin:round;stroke-miterlimit:1.41421;">
    <g transform="matrix(1,0,0,1,-1394,-139)">
        <g transform="matrix(1,0,0,1,0,-162)">
            <g id="Ninja-Female-1-OK-Hand" transform="matrix(1,0,0,1,1362.5,-135.042)">
                <path d="M190.385,487.391C190.285,485.992 190.085,484.592 189.835,483.243C189.385,480.694 188.685,478.145 187.736,475.696C185.287,469.448 181.238,463.401 175.591,457.603C170.443,452.305 164.695,448.007 158.447,444.758C156.198,443.609 153.949,442.559 151.6,441.66C147.852,440.21 143.953,439.061 139.905,438.261C125.911,435.512 113.965,437.261 104.119,443.509C98.871,446.857 95.023,450.956 92.574,455.804C90.425,460.102 89.325,464.95 89.325,470.398C89.325,473.047 89.575,475.646 90.075,478.245C90.475,474.596 91.324,471.098 92.574,467.849C93.124,466.35 93.823,464.9 94.573,463.451C94.573,463.351 94.573,463.251 94.623,463.151C94.673,463.051 94.773,462.951 94.823,462.851C94.873,462.901 94.973,463.001 95.073,463.101C95.123,463.251 95.123,463.351 95.173,463.451C97.472,467.399 100.471,471.198 104.119,474.946C113.965,485.092 125.911,491.59 139.905,494.339C143.953,495.138 147.852,495.538 151.6,495.588C152.35,495.588 153.1,495.588 153.849,495.538C154.699,495.488 155.599,495.438 156.448,495.388C159.247,495.138 161.946,494.639 164.495,493.939C164.545,493.939 164.545,493.939 164.595,493.939C165.945,493.539 167.244,493.089 168.544,492.589L168.544,573.257C171.592,575.056 173.142,578.405 173.142,583.353L173.142,607.394L190.385,607.394L190.385,517.58C189.835,517.73 189.785,509.783 190.235,493.839C190.285,493.839 190.335,493.839 190.385,493.889L190.385,487.392L190.385,487.391ZM178.989,481.344L178.939,481.344L178.989,480.944L178.989,481.344ZM178.589,486.941C178.689,486.841 178.789,486.741 178.939,486.691L178.939,486.392L179.039,486.541C178.989,486.591 178.989,486.641 178.939,486.691L178.939,486.941L178.589,486.941ZM183.737,499.586C185.886,501.735 186.936,504.284 186.936,507.333C186.936,510.382 185.886,512.931 183.737,515.08C181.588,517.229 179.039,518.279 175.99,518.329C175.491,518.279 175.041,518.279 174.591,518.229L174.591,496.488C175.041,496.438 175.491,496.388 175.99,496.438C179.039,496.388 181.588,497.437 183.737,499.586Z" style="fill:rgb(254,207,5);fill-rule:nonzero;"/>
                <path d="M178.939,486.691C178.789,486.741 178.689,486.841 178.589,486.941L178.939,486.941L178.939,486.691Z" style="fill:rgb(140,80,55);fill-rule:nonzero;"/>
                <path d="M178.939,486.691C178.989,486.641 178.989,486.591 179.039,486.541L178.939,486.392L178.939,486.691Z" style="fill:white;fill-rule:nonzero;"/>
                <path d="M186.936,507.333C186.936,504.284 185.886,501.735 183.737,499.586C181.588,497.437 179.039,496.388 175.99,496.437C175.491,496.388 175.041,496.437 174.591,496.487L174.591,518.229C175.041,518.279 175.491,518.279 175.99,518.329C179.039,518.279 181.588,517.229 183.737,515.08C185.886,512.931 186.936,510.382 186.936,507.333Z" style="fill:rgb(253,219,218);fill-rule:nonzero;"/>
                <path d="M164.595,493.938L164.495,493.938C161.946,494.638 159.247,495.138 156.448,495.388C155.599,495.438 154.699,495.488 153.849,495.538C153.1,495.588 152.35,495.588 151.6,495.588C147.852,495.538 143.953,495.138 139.905,494.338C125.911,491.589 113.965,485.092 104.119,474.946C100.471,471.198 97.472,467.399 95.173,463.451L94.823,463.251L94.573,463.451C93.823,464.9 93.124,466.35 92.574,467.849C91.324,471.098 90.475,474.596 90.075,478.245C89.875,480.044 89.775,481.893 89.775,483.843C89.725,484.292 89.725,484.792 89.775,485.242L89.875,485.242L89.775,517.079C89.725,524.626 92.274,531.324 97.322,537.171C98.122,538.071 98.971,538.971 99.921,539.82C100.271,540.17 100.621,540.47 100.971,540.82C101.42,541.27 101.92,541.67 102.42,542.069C104.169,543.519 106.069,544.818 108.018,545.968C112.066,548.367 116.414,550.116 121.162,551.166L121.063,561.162L153.849,560.512L153.849,550.516C158.548,549.417 162.896,547.667 166.944,545.318C167.494,544.968 167.994,544.669 168.544,544.319L168.544,492.589C167.244,493.089 165.945,493.539 164.595,493.939L164.595,493.938Z" style="fill:rgb(253,219,218);fill-rule:nonzero;"/>
                <path d="M164.495,493.938L164.595,493.938C164.545,493.938 164.545,493.938 164.495,493.938Z" style="fill:rgb(194,131,98);fill-rule:nonzero;"/>
                <path d="M155.649,560.512L153.849,560.512L121.062,561.162L121.062,565.56C120.962,565.61 120.862,565.66 120.813,565.71L114.765,569.358C114.465,569.608 114.165,569.808 113.915,570.058L113.965,570.058C113.166,570.708 112.366,571.358 111.616,572.107C107.918,575.756 105.269,579.854 103.719,584.402C103.369,585.402 103.07,586.402 102.82,587.451C102.27,589.85 101.97,592.349 102.02,594.948L101.92,606.943L101.87,613.491L101.82,613.491L101.82,624.836L101.87,624.836C102.12,624.786 102.42,624.736 102.72,624.736L114.415,624.736C115.265,624.736 116.014,625.036 116.564,625.586C117.164,626.186 117.464,626.935 117.514,627.785C117.464,628.435 117.314,628.985 117.014,629.484C116.864,629.634 116.714,629.834 116.564,629.984C116.014,630.584 115.265,630.884 114.415,630.884L102.72,630.884C102.37,630.834 102.07,630.784 101.82,630.734L101.72,648.877C101.97,648.777 102.22,648.727 102.47,648.727L128.31,648.727L128.509,568.659L128.31,648.727L160.797,648.727C160.996,648.677 161.196,648.577 161.396,648.527L161.396,638.981L161.396,630.884L147.352,630.884C146.452,630.884 145.703,630.584 145.103,629.984C144.953,629.834 144.803,629.635 144.703,629.485C144.403,628.985 144.253,628.435 144.253,627.785C144.203,626.936 144.503,626.186 145.103,625.586C145.703,625.036 146.452,624.737 147.352,624.737L161.396,624.737L161.396,572.258C161.846,571.808 162.246,571.608 162.646,571.658C160.447,569.559 158.098,567.809 155.599,566.46L155.649,560.512ZM130.059,568.809C130.009,568.809 130.009,568.809 130.009,568.859L130.009,566.31C130.259,566.759 130.359,567.209 130.359,567.759C130.309,568.109 130.209,568.459 130.059,568.809Z" style="fill:rgb(240,110,170);fill-rule:nonzero;"/>
                <path d="M130.009,568.859C130.009,568.809 130.009,568.809 130.059,568.809C130.209,568.459 130.309,568.109 130.359,567.759C130.359,567.209 130.259,566.759 130.009,566.31L130.009,568.859Z" style="fill:rgb(205,94,145);fill-rule:nonzero;"/>
                <path d="M153.849,560.512L155.649,560.512L155.599,566.459C158.098,567.809 160.447,569.558 162.646,571.657C164.995,571.807 166.994,572.307 168.543,573.257L168.543,544.318C167.994,544.668 167.494,544.968 166.944,545.318C162.896,547.667 158.547,549.416 153.849,550.516L153.849,560.512Z" style="fill:rgb(253,175,23);fill-rule:nonzero;"/>
                <path d="M162.646,571.657C162.246,571.607 161.846,571.807 161.396,572.257L161.396,638.98L173.142,638.98L173.142,607.393L173.142,583.353C173.142,578.405 171.592,575.056 168.543,573.257C166.994,572.307 164.995,571.807 162.646,571.657Z" style="fill:rgb(205,94,145);fill-rule:nonzero;"/>
                <path d="M145.103,629.984C145.703,630.584 146.452,630.884 147.352,630.884L161.396,630.884L161.396,624.736L147.352,624.736C146.452,624.736 145.703,625.036 145.103,625.586C144.503,626.186 144.203,626.935 144.253,627.785C144.253,628.435 144.403,628.985 144.703,629.484C144.803,629.634 144.953,629.834 145.103,629.984Z" style="fill:rgb(249,193,222);fill-rule:nonzero;"/>
                <path d="M173.142,648.976L173.142,648.877L173.142,638.98L161.396,638.98L161.396,648.527C161.196,648.577 160.996,648.677 160.797,648.727C160.647,648.777 160.447,648.877 160.297,648.927C157.948,649.276 156.048,650.726 154.699,653.325C154.399,653.875 154.149,654.524 153.899,655.224L154.449,654.574L153.899,655.224L153.799,655.324C153.749,655.424 153.749,655.524 153.749,655.674L153.699,655.774C153.549,656.024 153.449,656.324 153.349,656.624C153.3,656.774 153.3,656.973 153.25,657.123C153.2,657.473 153.15,657.823 153.15,658.173L153.15,668.269L153.349,668.269C153.25,668.319 153.2,668.419 153.15,668.469L153.1,673.667C153.1,674.916 153.549,675.916 154.449,676.716C155.249,677.565 156.248,678.015 157.498,678.015L157.598,678.015C158.847,678.015 159.897,677.565 160.747,676.716C161.596,675.916 161.996,674.916 161.996,673.667C162.046,674.817 162.496,675.766 163.345,676.516C163.495,676.666 163.695,676.816 163.895,676.966C164.595,677.515 165.445,677.765 166.394,677.765L166.444,677.765C167.694,677.765 168.743,677.365 169.643,676.516C170.393,675.766 170.793,674.817 170.842,673.767C170.793,673.617 170.793,673.517 170.743,673.417C170.793,673.367 170.842,673.367 170.892,673.367C170.892,673.517 170.892,673.617 170.842,673.767C171.042,674.617 171.492,675.316 172.142,675.966C172.942,676.816 173.941,677.266 175.141,677.316L175.291,677.316C176.49,677.266 177.54,676.816 178.389,675.966C179.239,675.116 179.639,674.117 179.639,672.867L179.639,657.374C179.639,657.224 179.639,657.124 179.639,656.974C179.589,656.924 179.589,656.874 179.639,656.824C179.389,655.674 179.139,654.525 178.889,653.375C177.99,651.326 176.24,649.927 173.691,649.177C173.491,649.127 173.292,649.027 173.142,648.977L173.142,648.976ZM170.743,657.873L170.743,657.373C170.743,657.323 170.743,657.223 170.743,657.123C170.793,657.373 170.842,657.623 170.842,657.873L170.743,657.873Z" style="fill:rgb(253,219,218);fill-rule:nonzero;"/>
                <path d="M170.743,657.373L170.743,657.873L170.842,657.873C170.842,657.623 170.793,657.373 170.743,657.123C170.743,657.223 170.743,657.323 170.743,657.373Z" style="fill:white;fill-rule:nonzero;"/>
                <path d="M173.142,648.876L173.142,648.976C173.292,649.026 173.491,649.126 173.691,649.176C173.541,649.026 173.341,648.927 173.142,648.877L173.142,648.876Z" style="fill:rgb(249,193,222);fill-rule:nonzero;"/>
                <path d="M170.842,673.767C170.892,673.617 170.892,673.517 170.892,673.367C170.842,673.367 170.793,673.367 170.743,673.417C170.793,673.517 170.793,673.617 170.842,673.767Z" style="fill:white;fill-rule:nonzero;"/>
                <path d="M153.899,655.224L154.449,654.574L153.899,655.224Z" style="fill:rgb(234,152,133);fill-rule:nonzero;"/>
                <path d="M153.899,655.224L145.503,663.521C144.603,664.37 144.203,665.42 144.253,666.669C144.203,667.819 144.603,668.869 145.503,669.768L145.503,669.818C146.402,670.668 147.452,671.118 148.701,671.118C149.751,671.118 150.751,670.768 151.6,670.018L153.15,668.469L153.15,668.269L153.15,658.173C153.15,657.823 153.2,657.473 153.25,657.123C153.3,656.973 153.3,656.774 153.349,656.624C153.449,656.324 153.549,656.024 153.699,655.774L153.749,655.674C153.749,655.524 153.749,655.424 153.799,655.324L153.899,655.224Z" style="fill:rgb(247,172,167);fill-rule:nonzero;"/>
                <path d="M153.899,655.224C154.149,654.524 154.399,653.875 154.699,653.325L109.717,653.325L109.717,685.912L163.895,685.912L163.895,676.965C163.695,676.815 163.495,676.666 163.345,676.516C162.496,675.766 162.046,674.816 161.996,673.667C161.996,674.916 161.596,675.916 160.747,676.716C159.897,677.565 158.847,678.015 157.598,678.015L157.498,678.015C156.248,678.015 155.249,677.565 154.449,676.716C153.549,675.916 153.1,674.916 153.1,673.667L153.15,668.469L151.6,670.018C150.751,670.768 149.751,671.118 148.701,671.118C147.452,671.118 146.402,670.668 145.503,669.818L145.503,669.768C144.603,668.869 144.203,667.819 144.253,666.67C144.203,665.42 144.603,664.371 145.503,663.521L153.899,655.224Z" style="fill:rgb(153,102,153);fill-rule:nonzero;"/>
                <path d="M154.699,653.325C156.048,650.726 157.948,649.276 160.297,648.926C160.447,648.876 160.647,648.777 160.797,648.727L128.31,648.727L102.47,648.727C102.22,648.727 101.97,648.777 101.72,648.877C101.42,648.927 101.12,649.126 100.87,649.376C100.421,649.826 100.171,650.326 100.171,650.976L100.171,651.026C100.171,651.675 100.421,652.225 100.87,652.675C101.32,653.125 101.82,653.325 102.47,653.325L154.699,653.325Z" style="fill:rgb(205,94,145);fill-rule:nonzero;"/>
                <path d="M153.15,668.269L153.15,668.469C153.2,668.419 153.25,668.319 153.349,668.269L153.15,668.269Z" style="fill:rgb(153,102,153);fill-rule:nonzero;"/>
                <path d="M150.301,685.912L138.106,685.912L138.106,748.337C138.505,748.637 138.905,748.986 139.305,749.386C139.455,749.536 139.605,749.736 139.755,749.886C140.655,750.836 141.354,751.885 141.904,753.035C142.004,753.285 142.104,753.585 142.204,753.885C144.253,753.985 146.952,754.134 150.201,754.334L150.301,754.334L150.301,685.912Z" style="fill:rgb(253,219,218);fill-rule:nonzero;"/>
                <path d="M138.106,748.337C138.056,748.287 138.056,748.287 138.006,748.287C137.456,747.887 136.906,747.537 136.356,747.287C135.057,746.637 133.657,746.338 132.108,746.388C129.509,746.388 127.26,747.287 125.311,749.036C125.011,749.286 124.711,749.536 124.411,749.886C123.062,751.386 122.112,753.085 121.662,754.984C121.512,755.534 121.362,756.134 121.312,756.783C121.262,756.883 121.262,756.983 121.262,757.083L150.201,757.083L150.201,754.334L142.354,754.334C142.304,754.184 142.254,754.035 142.204,753.885C142.104,753.585 142.004,753.285 141.904,753.035C141.354,751.885 140.655,750.836 139.755,749.886C139.605,749.736 139.455,749.536 139.305,749.386C138.905,748.987 138.505,748.637 138.106,748.337Z" style="fill:rgb(102,102,102);fill-rule:nonzero;"/>
                <path d="M150.201,754.334C146.952,754.134 144.253,753.984 142.204,753.884C142.254,754.034 142.304,754.184 142.354,754.334L150.201,754.334Z" style="fill:white;fill-rule:nonzero;"/>
                <path d="M132.108,746.387C133.657,746.337 135.057,746.637 136.356,747.287L136.356,685.912L124.111,685.912L124.111,748.037C124.511,748.337 124.911,748.687 125.311,749.036C127.26,747.287 129.509,746.388 132.108,746.388L132.108,746.387Z" style="fill:rgb(247,172,167);fill-rule:nonzero;"/>
                <path d="M47.892,494.738C46.892,494.388 45.942,494.388 45.043,494.838C43.993,495.338 43.194,496.238 42.744,497.587C40.995,502.235 40.495,507.183 41.194,512.531C41.194,512.581 41.194,512.681 41.244,512.831C41.144,512.881 41.044,512.981 40.945,513.031C40.895,512.981 40.895,512.931 40.895,512.931C40.895,512.781 40.895,512.681 40.845,512.531C40.345,509.282 40.095,506.484 40.095,504.135C40.095,503.085 39.695,502.185 38.845,501.536C38.046,500.936 37.096,500.636 35.997,500.636C34.847,500.686 33.947,501.036 33.248,501.736C32.398,502.535 32.048,503.635 32.098,505.084C32.248,508.333 32.598,511.732 33.148,515.38C33.748,519.029 34.447,522.027 35.297,524.277C35.347,524.327 35.347,524.427 35.397,524.527C36.546,527.975 38.746,530.874 41.994,533.223C42.794,533.823 43.644,534.323 44.543,534.772C44.643,540.27 45.143,545.318 46.043,549.866L57.038,547.317C56.389,544.119 55.989,540.67 55.789,536.972C56.039,536.922 56.239,536.922 56.489,536.922C58.238,536.672 59.837,536.222 61.387,535.572C64.135,534.323 66.235,532.474 67.734,529.975C68.584,528.525 68.534,527.126 67.634,525.776C66.884,524.627 66.035,524.027 65.035,523.977C67.484,523.927 69.084,523.127 69.733,521.478C70.683,519.029 70.233,516.28 68.384,513.331C66.485,510.332 62.986,508.833 57.838,508.783C57.738,508.783 57.638,508.783 57.488,508.783C57.488,508.733 57.488,508.733 57.488,508.683C57.688,507.634 57.988,506.684 58.338,505.834C58.838,504.535 59.837,502.886 61.337,500.936C61.936,500.087 62.136,499.087 61.986,497.987C61.786,496.988 61.287,496.138 60.537,495.389C59.687,494.639 58.788,494.239 57.838,494.289C56.738,494.339 55.739,494.889 54.839,495.988C51.74,499.637 50.041,504.135 49.691,509.533C49.591,509.583 49.491,509.583 49.441,509.633C49.391,509.583 49.391,509.583 49.441,509.533C49.391,506.334 49.791,502.936 50.641,499.337C50.891,498.287 50.691,497.288 50.141,496.388C49.591,495.539 48.842,494.989 47.892,494.739L47.892,494.738ZM61.836,520.028C61.786,522.577 62.786,523.877 64.785,523.976C62.836,523.927 61.436,524.426 60.637,525.526C59.387,527.275 57.788,527.775 55.839,527.025C54.489,526.476 53.54,525.526 52.99,524.276C52.54,523.077 52.49,521.827 52.84,520.578C53.19,519.179 53.939,518.079 55.089,517.279C56.139,516.48 57.388,516.18 58.738,516.33C60.787,516.58 61.836,517.829 61.836,520.028Z" style="fill:rgb(253,219,218);fill-rule:nonzero;"/>
                <path d="M95.173,463.451C95.123,463.351 95.123,463.251 95.073,463.101C94.973,463.001 94.873,462.901 94.823,462.851C94.773,462.951 94.673,463.051 94.623,463.151C94.573,463.251 94.573,463.351 94.573,463.451L94.823,463.251L95.173,463.451Z" style="fill:rgb(194,131,98);fill-rule:nonzero;"/>
                <path d="M121.062,561.162L121.162,551.166C116.414,550.116 112.066,548.367 108.018,545.968C106.068,544.818 104.169,543.519 102.42,542.069C101.92,541.669 101.42,541.27 100.971,540.82C100.621,540.47 100.271,540.17 99.921,539.82C98.971,538.971 98.122,538.071 97.322,537.171L97.322,572.957C97.622,572.907 97.922,572.907 98.222,572.857C103.02,572.307 108.268,571.358 113.915,570.058C114.165,569.808 114.465,569.608 114.765,569.358L120.813,565.71C120.863,565.66 120.963,565.61 121.063,565.56L121.063,561.162L121.062,561.162Z" style="fill:rgb(253,175,23);fill-rule:nonzero;"/>
                <path d="M98.222,572.857C97.922,572.907 97.622,572.907 97.322,572.957C84.877,574.206 75.531,572.807 69.233,568.709C66.684,566.809 64.485,564.46 62.636,561.661C60.087,557.713 58.188,552.965 57.038,547.317L46.042,549.866C46.892,554.214 48.042,558.113 49.591,561.662C52.64,568.659 57.038,574.057 62.836,577.855C71.083,583.853 82.578,586.252 97.322,585.102C98.172,585.052 99.021,584.952 99.871,584.902C101.121,584.752 102.37,584.552 103.72,584.402C105.269,579.854 107.918,575.756 111.616,572.107C112.366,571.358 113.166,570.708 113.965,570.058L113.915,570.058C108.268,571.358 103.02,572.307 98.222,572.857Z" style="fill:rgb(205,94,145);fill-rule:nonzero;"/>
                <path d="M99.871,584.902C99.021,584.952 98.172,585.052 97.322,585.102L97.322,606.893L101.92,606.943L102.02,594.948C101.97,592.349 102.27,589.85 102.82,587.451C103.07,586.402 103.369,585.402 103.719,584.402C102.37,584.552 101.12,584.752 99.871,584.902Z" style="fill:rgb(253,175,23);fill-rule:nonzero;"/>
                <path d="M100.521,629.984C100.87,630.334 101.32,630.584 101.82,630.734C102.07,630.784 102.37,630.834 102.72,630.884L114.415,630.884C115.265,630.884 116.014,630.584 116.564,629.984C116.714,629.834 116.864,629.634 117.014,629.484C117.314,628.985 117.464,628.435 117.514,627.785C117.464,626.935 117.164,626.186 116.564,625.586C116.014,625.036 115.265,624.736 114.415,624.736L102.72,624.736C102.42,624.736 102.12,624.786 101.87,624.836L101.82,624.836C101.32,624.986 100.87,625.236 100.521,625.586C99.921,626.186 99.621,626.935 99.671,627.785C99.621,628.635 99.921,629.384 100.521,629.984Z" style="fill:rgb(249,193,222);fill-rule:nonzero;"/>
                <path d="M125.311,749.036C124.911,748.687 124.511,748.337 124.111,748.037C122.362,746.737 120.413,746.088 118.164,746.138C115.165,746.138 112.616,747.287 110.467,749.636C109.117,751.086 108.168,752.785 107.718,754.734C107.518,755.384 107.368,756.034 107.318,756.783L121.312,756.783C121.362,756.134 121.512,755.534 121.662,754.984C122.112,753.085 123.062,751.386 124.411,749.886C124.711,749.536 125.011,749.286 125.311,749.037L125.311,749.036Z" style="fill:rgb(64,64,64);fill-rule:nonzero;"/>
                <path d="M89.725,496.487C87.276,496.737 85.177,497.787 83.377,499.586C81.228,501.735 80.179,504.284 80.179,507.333C80.129,509.282 80.579,511.082 81.478,512.731C81.978,513.581 82.628,514.33 83.377,515.08C85.177,516.879 87.276,517.929 89.725,518.229L89.725,496.488L89.725,496.487Z" style="fill:rgb(247,172,167);fill-rule:nonzero;"/>
                <path d="M128.509,568.659L128.31,648.727" style="fill:none;stroke:rgb(205,94,145);stroke-width:3px;"/>
                <path d="M133.082,506.245C132.8,505.521 132.398,504.877 131.835,504.314C130.789,503.308 129.541,502.785 128.093,502.785C126.644,502.785 125.397,503.308 124.391,504.314C123.787,504.877 123.385,505.521 123.143,506.245" style="fill:none;stroke:rgb(140,80,55);stroke-width:2.41px;"/>
                <path d="M114.839,506.245C114.558,505.521 114.155,504.877 113.592,504.314C112.546,503.308 111.298,502.785 109.85,502.785C108.401,502.785 107.154,503.308 106.148,504.314C105.544,504.877 105.142,505.521 104.901,506.245" style="fill:none;stroke:rgb(140,80,55);stroke-width:2.41px;"/>
                <path d="M125.299,514.219C124.957,515.1 124.467,515.883 123.782,516.569C122.509,517.792 120.992,518.429 119.229,518.429C117.467,518.429 115.95,517.792 114.726,516.569C113.992,515.883 113.502,515.1 113.208,514.219" style="fill:none;stroke:rgb(231,140,118);stroke-width:2.94px;"/>
            </g>
        </g>
    </g>
</svg>
