<?xml version="1.0" encoding="UTF-8" standalone="no"?>
<!DOCTYPE svg PUBLIC "-//W3C//DTD SVG 1.1//EN" "http://www.w3.org/Graphics/SVG/1.1/DTD/svg11.dtd">
<svg width="100%" height="100%" viewBox="0 0 131 446" version="1.1" xmlns="http://www.w3.org/2000/svg" xmlns:xlink="http://www.w3.org/1999/xlink" xml:space="preserve" style="fill-rule:evenodd;clip-rule:evenodd;stroke-linejoin:round;stroke-miterlimit:1.41421;">
    <g transform="matrix(1,0,0,1,-3799,-65)">
        <g transform="matrix(1,0,0,1,0,-162)">
            <g id="Ninja-Male-3" transform="matrix(1,0,0,1,3215.47,-87.1345)">
                <path d="M649.051,314.46C640.105,314.46 631.858,315.76 624.411,318.359C618.463,320.408 612.966,323.257 607.968,326.905C600.521,332.403 595.573,338.651 593.024,345.648C591.674,349.246 591.024,353.045 591.024,357.093L591.024,371.038L657.348,371.038L665.445,357.443L665.445,371.038L707.028,371.038L706.978,357.093C706.978,345.298 701.33,335.252 690.035,326.905C678.689,318.559 665.045,314.41 649.051,314.46Z" style="fill-rule:nonzero;"/>
                <path d="M702.48,380.634C701.58,380.634 700.731,380.734 699.931,380.934L699.931,404.574C700.731,404.724 701.58,404.774 702.48,404.774C703.33,404.774 704.179,404.724 704.979,404.574C705.679,404.424 706.378,404.175 707.028,403.925C708.477,403.325 709.777,402.425 710.976,401.276C713.326,398.927 714.525,396.078 714.525,392.729C714.525,389.38 713.326,386.532 710.976,384.183C709.777,382.983 708.477,382.083 707.028,381.534C706.378,381.284 705.679,381.084 704.979,380.934C704.179,380.734 703.33,380.634 702.48,380.634Z" style="fill:rgb(234,152,133);fill-rule:nonzero;"/>
                <path d="M699.931,380.934L699.931,371.038L665.445,371.038L665.445,357.443L657.348,371.038L598.221,371.038L598.221,410.972C598.221,413.621 598.421,416.22 598.871,418.719C600.321,428.465 604.719,437.011 612.066,444.358C616.964,449.207 622.412,452.805 628.359,455.104C629.459,455.504 630.609,455.904 631.758,456.254C636.056,457.503 640.605,458.153 645.453,458.153L653.399,458.153C657.348,458.103 661.096,457.653 664.645,456.754C667.394,456.054 670.043,455.104 672.592,453.955C677.49,451.656 681.988,448.457 686.136,444.359C695.333,435.112 699.931,424.017 699.931,410.972L699.931,404.575L699.931,380.934ZM647.502,393.829C648.351,392.929 649.451,392.479 650.751,392.479C651.75,392.479 652.65,392.779 653.399,393.429C653.549,393.529 653.749,393.679 653.949,393.829C654.799,394.678 655.249,395.778 655.249,397.027L655.249,404.724C655.249,405.974 654.799,407.023 653.949,407.923C653.749,408.073 653.55,408.173 653.4,408.323C652.65,408.923 651.75,409.223 650.751,409.272C649.451,409.223 648.352,408.773 647.502,407.923C646.602,407.023 646.152,405.974 646.152,404.724L646.152,397.027C646.152,395.778 646.602,394.678 647.502,393.829ZM639.255,395.228C639.255,395.678 639.055,396.128 638.655,396.478C638.305,396.877 637.856,397.077 637.406,397.077L627.61,397.077C627.11,397.077 626.66,396.877 626.31,396.478C625.91,396.128 625.71,395.678 625.71,395.228C625.71,394.728 625.91,394.279 626.31,393.879C626.66,393.529 627.11,393.379 627.61,393.379L637.406,393.379C637.856,393.379 638.305,393.529 638.655,393.879C639.055,394.279 639.255,394.728 639.255,395.228ZM623.461,418.918C623.461,418.419 623.511,417.919 623.561,417.469L665.345,417.469C665.395,417.919 665.395,418.419 665.395,418.918C665.395,421.018 665.095,423.017 664.445,424.916C663.495,427.815 661.746,430.414 659.247,432.713C658.397,433.513 657.498,434.262 656.548,434.912C653.849,436.761 650.85,437.911 647.552,438.361C646.552,438.511 645.503,438.561 644.453,438.561C640.505,438.561 636.906,437.661 633.757,435.912C632.258,435.062 630.858,433.963 629.559,432.713C627.11,430.414 625.411,427.815 624.461,424.916C623.811,423.017 623.461,421.018 623.461,418.919L623.461,418.918ZM671.592,393.879C671.992,394.278 672.192,394.728 672.192,395.228C672.192,395.678 671.992,396.128 671.592,396.478C671.242,396.877 670.792,397.077 670.343,397.077L660.597,397.077C660.047,397.077 659.597,396.877 659.247,396.478C658.897,396.128 658.697,395.678 658.747,395.228C658.697,394.728 658.897,394.279 659.247,393.879C659.597,393.529 660.047,393.379 660.597,393.379L670.343,393.379C670.792,393.379 671.242,393.529 671.592,393.879Z" style="fill:rgb(255,203,153);fill-rule:nonzero;"/>
                <path d="M650.75,392.479C649.451,392.479 648.351,392.929 647.502,393.829C646.602,394.678 646.152,395.778 646.152,397.027L646.152,404.724C646.152,405.974 646.602,407.023 647.502,407.923C648.351,408.773 649.451,409.222 650.751,409.272C651.75,409.222 652.65,408.923 653.399,408.323C653.549,408.173 653.749,408.073 653.949,407.923C654.799,407.023 655.249,405.974 655.249,404.724L655.249,397.027C655.249,395.778 654.799,394.678 653.949,393.829C653.749,393.679 653.55,393.529 653.4,393.429C652.65,392.779 651.75,392.479 650.751,392.479L650.75,392.479Z" style="fill:rgb(234,152,133);fill-rule:nonzero;"/>
                <path d="M638.655,396.477C639.055,396.128 639.255,395.678 639.255,395.228C639.255,394.728 639.055,394.278 638.655,393.879C638.305,393.529 637.856,393.379 637.406,393.379L627.61,393.379C627.11,393.379 626.66,393.529 626.31,393.879C625.91,394.278 625.71,394.728 625.71,395.228C625.71,395.678 625.91,396.128 626.31,396.478C626.66,396.877 627.11,397.077 627.61,397.077L637.406,397.077C637.856,397.077 638.305,396.878 638.655,396.478L638.655,396.477Z" style="fill:rgb(75,28,2);fill-rule:nonzero;"/>
                <path d="M623.561,417.469C623.511,417.919 623.461,418.419 623.461,418.918C623.461,421.018 623.811,423.017 624.461,424.916L664.445,424.916C665.095,423.017 665.395,421.018 665.395,418.919C665.395,418.419 665.395,417.919 665.345,417.469L623.561,417.469Z" style="fill:white;fill-rule:nonzero;"/>
                <path d="M624.461,424.916C625.411,427.815 627.11,430.414 629.559,432.713C630.858,433.963 632.258,435.062 633.757,435.912C634.207,434.162 635.307,432.563 636.956,431.164C639.305,429.264 642.104,428.315 645.403,428.315C646.152,428.315 646.852,428.365 647.552,428.465C649.901,428.815 651.95,429.714 653.699,431.164C655.049,432.263 655.998,433.513 656.548,434.912C657.498,434.263 658.397,433.513 659.247,432.713C661.746,430.414 663.495,427.815 664.445,424.916L624.461,424.916Z" style="fill:rgb(79,32,32);fill-rule:nonzero;"/>
                <path d="M653.699,431.164C651.95,429.714 649.901,428.815 647.552,428.465C646.852,428.365 646.152,428.315 645.403,428.315C642.104,428.315 639.305,429.264 636.956,431.164C635.307,432.563 634.207,434.162 633.757,435.912C636.906,437.661 640.505,438.561 644.453,438.561C645.503,438.561 646.552,438.511 647.552,438.361C650.85,437.911 653.849,436.761 656.548,434.912C655.998,433.513 655.049,432.263 653.699,431.164Z" style="fill:rgb(255,153,153);fill-rule:nonzero;"/>
                <path d="M672.192,395.228C672.192,394.728 671.992,394.278 671.592,393.879C671.242,393.529 670.792,393.379 670.343,393.379L660.597,393.379C660.047,393.379 659.597,393.529 659.247,393.879C658.897,394.278 658.697,394.728 658.747,395.228C658.697,395.678 658.897,396.128 659.247,396.478C659.597,396.877 660.047,397.077 660.597,397.077L670.343,397.077C670.792,397.077 671.242,396.877 671.592,396.478C671.992,396.128 672.192,395.678 672.192,395.228Z" style="fill:rgb(75,28,2);fill-rule:nonzero;"/>
                <path d="M664.695,468.799L664.695,469.048L664.695,468.799Z" style="fill:rgb(153,153,204);fill-rule:nonzero;"/>
                <path d="M664.695,468.799L664.695,469.048L631.758,469.048L631.758,468.999L630.958,468.999L631.408,469.049C631.108,468.999 630.808,468.999 630.559,468.999L622.412,469.049L622.412,492.589L690.085,492.589L690.085,492.289C687.636,478.245 679.139,470.398 664.695,468.799ZM647.552,469.898L647.552,469.598L648.151,469.648C647.952,469.698 647.752,469.798 647.552,469.898ZM661.796,491.639L662.346,491.589C662.246,491.589 662.146,491.589 662.096,491.639C661.996,491.639 661.896,491.639 661.796,491.639Z" style="fill:rgb(131,37,3);fill-rule:nonzero;"/>
                <path d="M647.552,469.598L647.552,469.898C647.752,469.798 647.952,469.698 648.151,469.648L647.552,469.598Z" style="fill:rgb(109,129,34);fill-rule:nonzero;"/>
                <path d="M664.695,469.048L664.695,468.799L664.645,456.753C661.096,457.653 657.348,458.103 653.399,458.153C653.149,458.153 652.95,458.153 652.75,458.153L645.453,458.153C640.605,458.153 636.056,457.503 631.758,456.254L631.758,469.049L664.695,469.049L664.695,469.048Z" style="fill:rgb(234,152,133);fill-rule:nonzero;"/>
                <path d="M622.412,469.048L622.412,468.899C620.163,468.899 618.713,468.949 618.164,469.048C616.464,469.298 614.965,469.798 613.615,470.448C608.867,472.697 606.418,477.295 606.268,484.142L606.268,502.535L622.412,502.535L622.412,492.589L622.412,469.049L622.412,469.048Z" style="fill:rgb(83,18,2);fill-rule:nonzero;"/>
                <path d="M622.412,492.589L622.412,518.929L690.734,518.929L690.734,503.235C690.684,500.686 690.684,498.487 690.684,496.737C690.634,496.438 690.634,496.138 690.585,495.888L690.585,495.738C690.435,494.638 690.285,493.589 690.135,492.589L690.085,492.589L622.412,492.589Z" style="fill:rgb(240,90,40);fill-rule:nonzero;"/>
                <path d="M622.412,518.928L622.412,502.535L606.268,502.535L606.268,572.657C604.319,573.257 602.67,573.957 601.42,574.706C600.97,574.956 600.621,575.256 600.271,575.556C600.021,575.756 599.771,575.956 599.521,576.206C598.871,576.855 598.372,577.605 597.922,578.455C597.872,578.605 597.772,578.755 597.722,578.905C597.622,579.355 597.522,579.804 597.422,580.304C597.172,581.354 596.972,582.353 596.772,583.403L596.772,604.245C596.722,605.294 596.972,606.194 597.422,606.993C597.572,607.243 597.722,607.493 597.922,607.743C598.072,607.893 598.222,608.093 598.371,608.243C598.721,608.593 599.121,608.943 599.521,609.193C599.771,609.343 600.021,609.443 600.271,609.542C600.621,609.692 601.021,609.842 601.42,609.892C601.77,609.942 602.07,609.942 602.42,609.942L602.62,609.942C604.169,609.942 605.469,609.393 606.518,608.243C607.368,607.393 607.918,606.444 608.168,605.344C608.118,605.194 608.118,605.044 608.118,604.894C608.168,604.894 608.217,604.894 608.267,604.944C608.217,605.094 608.217,605.194 608.168,605.344C608.268,606.744 608.817,607.943 609.767,608.893C610.816,609.942 612.116,610.542 613.615,610.592L614.015,610.592C615.565,610.592 616.914,610.042 617.964,608.893C618.813,608.043 619.363,606.994 619.563,605.844C619.613,605.844 619.663,605.844 619.713,605.844C619.813,607.194 620.313,608.293 621.262,609.243C622.412,610.392 623.761,610.942 625.361,610.942L625.511,610.942C626.11,610.942 626.66,610.842 627.21,610.692C628.06,610.442 628.809,609.943 629.459,609.243C629.609,609.043 629.809,608.843 629.959,608.693C630.759,607.693 631.158,606.544 631.208,605.244L631.158,598.447C631.108,598.347 631.008,598.247 630.908,598.197L631.158,598.197L631.158,585.103C631.158,584.653 631.108,584.203 631.058,583.753C631.008,583.553 630.958,583.353 630.908,583.153C630.809,582.903 630.709,582.604 630.609,582.354C630.559,582.304 630.559,582.204 630.559,582.154C630.509,582.104 630.459,582.004 630.459,581.954L630.409,581.854C630.359,581.704 630.359,581.554 630.309,581.404L630.209,581.254L629.459,580.504L630.209,581.254C629.359,579.105 628.359,577.356 627.21,576.056C625.86,574.557 624.261,573.607 622.412,573.257L622.412,568.559L622.412,544.119L622.412,518.929L622.412,518.928ZM608.267,584.152C608.217,584.352 608.217,584.552 608.168,584.752C608.168,584.402 608.218,584.102 608.268,583.753C608.268,583.903 608.268,584.002 608.268,584.152L608.267,584.152Z" style="fill:rgb(255,203,153);fill-rule:nonzero;"/>
                <path d="M690.085,492.589L690.135,492.589C690.085,492.439 690.085,492.339 690.085,492.289L690.085,492.589Z" style="fill:rgb(241,89,40);fill-rule:nonzero;"/>
                <path d="M690.734,518.928L622.412,518.929L622.412,544.118L690.734,544.118L690.734,518.929L690.734,518.928Z" style="fill:rgb(131,37,3);fill-rule:nonzero;"/>
                <path d="M595.722,380.634C592.374,380.634 589.525,381.833 587.176,384.182C585.976,385.432 585.077,386.781 584.477,388.281C583.927,389.63 583.627,391.13 583.627,392.729C583.627,394.328 583.927,395.828 584.477,397.227C585.077,398.677 585.976,400.026 587.176,401.276C589.525,403.625 592.374,404.774 595.722,404.774C596.572,404.774 597.422,404.724 598.221,404.574L598.221,380.934C597.422,380.734 596.572,380.634 595.722,380.634Z" style="fill:rgb(234,152,133);fill-rule:nonzero;"/>
                <path d="M606.268,522.427L605.219,522.427L606.268,522.677L606.268,522.427Z" style="fill:rgb(165,109,72);fill-rule:nonzero;"/>
                <path d="M614.015,610.592L613.615,610.592L613.615,616.689L621.712,616.689L621.712,695.908L628.159,695.908L628.159,695.358L638.955,695.358L638.955,695.908L646.502,695.908L646.502,616.689L685.337,616.689L685.337,593.699L642.704,593.699L642.254,593.849C642.454,594.298 642.604,594.798 642.654,595.348C642.704,595.598 642.704,595.848 642.704,596.148C642.704,596.398 642.704,596.697 642.654,596.947C642.554,597.997 642.154,598.947 641.504,599.796C641.354,599.896 641.254,599.996 641.104,600.146L641.004,600.196C639.855,601.346 638.505,601.895 636.906,601.945C635.506,601.895 634.257,601.446 633.207,600.496L631.158,598.447L631.208,605.244C631.158,606.544 630.758,607.693 629.959,608.693C629.809,608.843 629.609,609.043 629.459,609.243C628.809,609.942 628.06,610.442 627.21,610.692C626.66,610.842 626.11,610.942 625.511,610.942L625.361,610.942C623.761,610.942 622.412,610.392 621.262,609.243C620.313,608.293 619.813,607.193 619.713,605.844C619.663,605.844 619.613,605.844 619.563,605.844C619.363,606.994 618.813,608.043 617.964,608.893C616.914,610.042 615.565,610.592 614.015,610.592Z" style="fill:rgb(77,95,109);fill-rule:nonzero;"/>
                <rect x="622.412" y="544.118" width="68.322" height="24.441" style="fill:rgb(240,90,40);fill-rule:nonzero;"/>
                <path d="M622.412,568.559L622.412,573.257C624.261,573.607 625.86,574.556 627.21,576.056C628.359,577.355 629.359,579.104 630.209,581.254L630.309,581.404C630.359,581.554 630.359,581.703 630.409,581.853L630.459,581.953C630.459,582.003 630.509,582.103 630.559,582.153L631.108,582.153L641.104,592.099C641.604,592.599 642.004,593.149 642.254,593.699L690.735,593.699L690.735,568.559L622.412,568.559Z" style="fill:rgb(131,37,3);fill-rule:nonzero;"/>
                <path d="M630.309,581.403L630.209,581.254L630.309,581.404L630.309,581.403Z" style="fill:rgb(153,153,255);fill-rule:nonzero;"/>
                <path d="M630.209,581.254L629.459,580.504L630.209,581.254Z" style="fill:rgb(152,172,87);fill-rule:nonzero;"/>
                <path d="M630.609,582.353L631.108,582.153L630.558,582.153C630.558,582.203 630.558,582.303 630.608,582.353L630.609,582.353Z" style="fill:rgb(153,153,204);fill-rule:nonzero;"/>
                <path d="M631.108,582.153L630.608,582.353C630.708,582.603 630.808,582.903 630.908,583.153C630.958,583.353 631.008,583.553 631.058,583.753C631.108,584.202 631.158,584.652 631.158,585.102L631.158,598.447L633.207,600.496C634.257,601.446 635.507,601.895 636.906,601.945C638.505,601.895 639.855,601.346 641.004,600.196L641.104,600.146C641.254,599.996 641.354,599.896 641.504,599.796C642.154,598.947 642.554,597.997 642.654,596.947C642.704,596.698 642.704,596.398 642.704,596.148C642.704,595.848 642.704,595.598 642.654,595.348C642.604,594.798 642.454,594.299 642.254,593.849C642.254,593.799 642.254,593.749 642.254,593.749L642.254,593.699C642.004,593.149 641.604,592.599 641.104,592.1L631.108,582.154L631.108,582.153Z" style="fill:rgb(234,152,133);fill-rule:nonzero;"/>
                <path d="M642.704,593.699L642.254,593.699L642.254,593.749L642.704,593.699Z" style="fill:rgb(1,0,40);fill-rule:nonzero;"/>
                <path d="M642.254,593.849L642.704,593.699L642.254,593.749C642.254,593.749 642.254,593.799 642.254,593.849Z" style="fill:rgb(136,188,236);fill-rule:nonzero;"/>
                <path d="M631.158,598.447L631.158,598.197L630.908,598.197C631.008,598.247 631.108,598.347 631.158,598.447Z" style="fill:rgb(1,0,40);fill-rule:nonzero;"/>
                <path d="M679.939,616.689L655.149,616.689L655.149,695.908L661.596,695.908L661.596,695.358L672.392,695.358L672.392,695.908L679.939,695.908L679.939,616.689Z" style="fill:rgb(56,71,80);fill-rule:nonzero;"/>
                <path d="M638.955,695.908L638.955,695.358L628.16,695.358L628.16,719.148L628.359,719.148L628.359,733.093L638.955,733.093L638.955,695.908Z" style="fill:rgb(255,203,153);fill-rule:nonzero;"/>
                <rect x="628.359" y="733.093" width="10.596" height="12.895" style="fill:rgb(234,234,234);fill-rule:nonzero;"/>
                <path d="M661.596,695.358L661.596,733.093L672.392,733.093L672.392,695.908L672.392,695.358L661.596,695.358Z" style="fill:rgb(234,152,133);fill-rule:nonzero;"/>
                <path d="M672.392,733.093L661.596,733.093L661.596,740.69C661.146,740.64 660.696,740.59 660.247,740.64C659.447,740.64 658.647,740.69 657.898,740.79C657.798,740.79 657.698,740.79 657.648,740.79C656.798,740.89 655.948,741.09 655.149,741.34C655.099,741.34 654.999,741.34 654.949,741.39C654.249,741.589 653.599,741.839 652.95,742.139C652.4,742.389 651.85,742.689 651.3,742.989C650.651,743.389 650.001,743.839 649.401,744.288C648.751,744.788 648.102,745.338 647.502,745.988L638.955,745.988L628.36,745.988L628.36,754.734L666.844,754.734C666.794,754.534 666.694,754.335 666.644,754.185L678.389,754.185C677.44,751.486 675.94,749.037 673.941,746.838C673.691,746.538 673.391,746.238 673.141,745.988C672.892,745.738 672.642,745.488 672.392,745.288L672.392,733.093Z" style="fill:rgb(204,204,204);fill-rule:nonzero;"/>
                <path d="M701.23,742.239C701.13,742.189 701.03,742.139 700.88,742.089C699.431,741.439 697.882,741.04 696.282,740.84C696.232,740.79 696.182,740.79 696.132,740.79C695.333,740.69 694.533,740.64 693.683,740.64C693.333,740.64 692.934,740.64 692.584,740.64C692.134,740.69 691.734,740.74 691.334,740.79C691.234,740.79 691.134,740.79 691.084,740.79C690.235,740.89 689.385,741.09 688.585,741.34C688.535,741.34 688.435,741.34 688.385,741.39C687.886,741.539 687.386,741.689 686.936,741.889C686.736,741.939 686.536,742.039 686.386,742.139C685.836,742.389 685.287,742.689 684.737,742.989C683.387,743.789 682.088,744.788 680.938,745.988L673.141,745.988C673.391,746.238 673.691,746.538 673.941,746.837C675.94,749.037 677.44,751.486 678.389,754.184L666.644,754.184C666.694,754.334 666.794,754.534 666.844,754.734L711.826,754.784C704.729,754.584 700.83,754.384 700.181,754.184L711.776,754.734L712.376,754.784L712.376,754.734C711.026,751.685 709.327,749.037 707.378,746.837C707.078,746.538 706.778,746.238 706.528,745.988C705.978,745.388 705.379,744.838 704.779,744.388C704.729,744.388 704.729,744.388 704.679,744.338C703.579,743.489 702.43,742.789 701.23,742.239Z" style="fill:rgb(149,149,149);fill-rule:nonzero;"/>
                <path d="M711.776,754.734L711.826,754.784L666.844,754.734L628.359,754.734L628.359,759.582L713.475,759.582C713.325,758.433 713.125,757.333 712.876,756.284C712.726,755.734 712.576,755.234 712.376,754.734L712.376,754.784L711.776,754.734Z" style="fill:rgb(204,51,0);fill-rule:nonzero;"/>
                <path d="M690.684,473.297C690.135,474.546 690.135,475.296 690.684,475.446L690.684,473.297Z" style="fill:rgb(152,172,87);fill-rule:nonzero;"/>
                <path d="M690.535,492.189L690.535,490.89L690.485,490.89L690.535,492.189Z" style="fill:rgb(153,153,204);fill-rule:nonzero;"/>
            </g>
        </g>
    </g>
</svg>
