<?xml version="1.0" encoding="UTF-8" standalone="no"?>
<!DOCTYPE svg PUBLIC "-//W3C//DTD SVG 1.1//EN" "http://www.w3.org/Graphics/SVG/1.1/DTD/svg11.dtd">
<svg width="100%" height="100%" viewBox="0 0 226 394" version="1.1" xmlns="http://www.w3.org/2000/svg" xmlns:xlink="http://www.w3.org/1999/xlink" xml:space="preserve" style="fill-rule:evenodd;clip-rule:evenodd;stroke-linejoin:round;stroke-miterlimit:1.41421;">
    <g transform="matrix(1,0,0,1,-215,-103)">
        <g transform="matrix(1,0,0,1,0,-162)">
            <g id="Ninja-Male-1-Laptop" transform="matrix(1,0,0,1,99.019,-99.3615)">
                <path d="M219.223,427.065L219.223,416.12L207.278,416.12C207.328,416.32 207.378,416.519 207.428,416.719C207.428,416.769 207.428,416.769 207.428,416.819C207.728,418.169 208.278,419.468 209.027,420.668C209.577,421.518 210.227,422.367 211.026,423.117C213.325,425.416 216.074,426.715 219.223,427.065Z" style="fill:rgb(102,51,51);fill-rule:nonzero;"/>
                <path d="M219.223,416.12L219.223,427.065C216.074,426.715 213.325,425.416 211.026,423.117C210.227,422.367 209.577,421.517 209.027,420.668C208.278,419.468 207.728,418.169 207.428,416.819C207.428,416.769 207.428,416.769 207.428,416.719C207.378,416.52 207.328,416.32 207.278,416.12L193.433,416.12L153.999,416.12L142.304,416.12L142.304,455.304C142.304,464.101 144.653,471.947 149.301,478.845C150.85,481.144 152.7,483.343 154.799,485.442C155.549,486.192 156.348,486.891 157.098,487.591C160.896,490.94 165.045,493.439 169.543,495.138C170.743,495.588 171.992,496.038 173.242,496.388C173.391,496.438 173.591,496.488 173.791,496.538C177.34,497.437 181.038,497.887 184.937,497.887L191.534,497.887C195.882,497.887 199.981,497.337 203.879,496.188C204.279,496.088 204.679,495.988 205.079,495.838C206.578,495.338 208.028,494.738 209.477,494.089C212.976,492.439 216.274,490.29 219.373,487.591C220.123,486.892 220.922,486.192 221.672,485.442C227.87,479.195 231.768,472.048 233.317,463.951C233.867,461.202 234.117,458.303 234.117,455.304L234.117,449.507L234.117,433.663C231.018,433.013 228.22,431.614 225.771,429.465C225.371,429.115 225.021,428.815 224.671,428.465C222.522,426.316 220.972,423.717 220.073,420.668C219.723,419.419 219.423,418.119 219.273,416.72C219.223,416.52 219.223,416.32 219.223,416.12ZM179.539,432.813C178.939,433.363 178.24,433.663 177.44,433.613C176.69,433.563 176.04,433.263 175.541,432.663C174.991,432.113 174.741,431.414 174.791,430.614C174.841,429.864 175.141,429.214 175.691,428.715C176.24,428.165 176.94,427.915 177.74,427.965C178.489,428.015 179.139,428.315 179.689,428.915C180.239,429.464 180.489,430.164 180.489,431.014C180.439,431.764 180.139,432.363 179.539,432.813ZM185.587,432.063C185.587,430.914 185.986,429.964 186.786,429.164C187.586,428.365 188.585,427.965 189.735,428.015C190.834,427.965 191.784,428.365 192.584,429.164C193.383,429.964 193.783,430.914 193.783,432.063L193.783,439.011C193.783,440.11 193.383,441.06 192.584,441.859C191.784,442.659 190.834,443.059 189.735,443.109C188.585,443.059 187.586,442.659 186.786,441.859C185.986,441.06 185.587,440.11 185.587,439.011L185.587,432.063ZM198.631,429.364C199.181,428.815 199.831,428.515 200.631,428.515C201.43,428.565 202.08,428.915 202.58,429.514C203.13,430.064 203.43,430.764 203.38,431.613C203.33,432.363 203.03,432.963 202.43,433.513C201.83,434.063 201.13,434.262 200.331,434.212C199.581,434.213 198.931,433.913 198.432,433.313C197.932,432.763 197.682,432.063 197.732,431.214C197.782,430.464 198.082,429.864 198.631,429.364ZM188.735,474.146C183.887,474.146 179.489,473.097 175.591,470.948C173.741,469.898 172.042,468.549 170.393,466.999C169.343,466.05 168.443,465 167.594,463.951C165.994,461.901 164.795,459.652 164.045,457.253C163.246,454.954 162.846,452.505 162.846,449.906C162.846,449.306 162.846,448.707 162.896,448.157L214.625,448.157C214.625,448.707 214.625,449.307 214.625,449.906C214.625,452.505 214.225,454.954 213.475,457.253C212.676,459.652 211.476,461.901 209.877,463.951C209.027,465 208.078,466.05 207.028,466.999C205.978,467.999 204.879,468.899 203.729,469.698C199.381,472.647 194.383,474.147 188.735,474.147L188.735,474.146Z" style="fill:rgb(255,181,162);fill-rule:nonzero;"/>
                <path d="M177.44,433.613C178.24,433.663 178.939,433.363 179.539,432.813C180.139,432.363 180.439,431.763 180.489,431.014C180.489,430.164 180.239,429.464 179.689,428.915C179.139,428.315 178.489,428.015 177.74,427.965C176.94,427.915 176.24,428.165 175.691,428.715C175.141,429.214 174.841,429.864 174.791,430.614C174.741,431.414 174.991,432.113 175.541,432.663C176.04,433.263 176.69,433.563 177.44,433.613Z" style="fill-rule:nonzero;"/>
                <path d="M186.786,429.164C185.986,429.964 185.587,430.914 185.587,432.063L185.587,439.011C185.587,440.11 185.986,441.06 186.786,441.859C187.586,442.659 188.585,443.059 189.735,443.109C190.834,443.059 191.784,442.659 192.584,441.859C193.383,441.06 193.783,440.11 193.783,439.011L193.783,432.063C193.783,430.914 193.383,429.964 192.584,429.165C191.784,428.365 190.834,427.965 189.735,428.015C188.585,427.965 187.586,428.365 186.786,429.165L186.786,429.164Z" style="fill:rgb(231,140,118);fill-rule:nonzero;"/>
                <path d="M200.631,428.515C199.831,428.515 199.181,428.815 198.631,429.364C198.082,429.864 197.782,430.464 197.732,431.214C197.682,432.063 197.932,432.763 198.432,433.313C198.931,433.913 199.581,434.212 200.331,434.212C201.13,434.262 201.83,434.063 202.43,433.513C203.03,432.963 203.33,432.363 203.38,431.614C203.43,430.764 203.13,430.064 202.58,429.514C202.08,428.915 201.43,428.565 200.631,428.515Z" style="fill-rule:nonzero;"/>
                <path d="M175.591,470.948C179.489,473.097 183.887,474.146 188.735,474.146C194.383,474.146 199.381,472.647 203.729,469.698C203.08,467.999 201.88,466.45 200.231,465.05C199.731,464.65 199.231,464.3 198.681,463.951C196.132,462.301 193.234,461.502 189.885,461.502C186.536,461.502 183.587,462.301 181.038,463.951C180.489,464.3 179.989,464.65 179.539,465.05C177.49,466.799 176.14,468.749 175.591,470.948Z" style="fill:rgb(227,121,96);fill-rule:nonzero;"/>
                <path d="M179.539,465.05C179.989,464.65 180.489,464.3 181.038,463.951C183.587,462.301 186.536,461.502 189.885,461.502C193.234,461.502 196.132,462.301 198.681,463.951C199.231,464.3 199.731,464.65 200.231,465.05C201.88,466.45 203.08,467.999 203.729,469.698C204.879,468.899 205.979,467.999 207.028,466.999C208.078,466.05 209.027,465 209.877,463.951C211.476,461.901 212.676,459.652 213.476,457.253L164.045,457.253C164.795,459.652 165.995,461.901 167.594,463.951C168.444,465 169.343,466.05 170.393,466.999C172.042,468.549 173.742,469.898 175.591,470.948C176.141,468.749 177.49,466.8 179.539,465.05Z" style="fill:rgb(175,74,62);fill-rule:nonzero;"/>
                <path d="M162.896,448.157C162.846,448.707 162.846,449.306 162.846,449.906C162.846,452.505 163.246,454.954 164.045,457.253L213.475,457.253C214.225,454.954 214.625,452.505 214.625,449.906C214.625,449.306 214.625,448.707 214.625,448.157L162.896,448.157Z" style="fill:white;fill-rule:nonzero;"/>
                <path d="M224.671,428.465C225.021,428.815 225.371,429.114 225.771,429.464C228.22,431.613 231.018,433.013 234.117,433.663L234.117,428.165L234.117,416.12L219.223,416.12C219.223,416.32 219.223,416.52 219.273,416.719C219.423,418.119 219.723,419.418 220.073,420.668C220.972,423.717 222.522,426.316 224.671,428.465Z" style="fill:rgb(102,51,51);fill-rule:nonzero;"/>
                <path d="M234.117,416.12L235.617,416.12C235.467,412.171 234.967,408.423 234.067,404.824L193.783,404.824L193.783,404.874C193.733,404.924 193.733,404.974 193.783,405.024L193.433,416.12L234.117,416.12Z" style="fill:rgb(236,96,2);fill-rule:nonzero;"/>
                <path d="M244.113,431.064C242.564,429.514 240.765,428.515 238.715,428.165C238.315,428.065 237.916,428.015 237.566,428.015C237.216,427.965 236.816,427.915 236.466,427.965C235.617,427.915 234.867,428.015 234.117,428.165L234.117,449.506C234.867,449.656 235.617,449.756 236.466,449.756C236.816,449.756 237.216,449.756 237.566,449.706C237.916,449.656 238.315,449.606 238.715,449.506C240.765,449.057 242.564,448.057 244.113,446.508C246.212,444.359 247.262,441.81 247.312,438.811C247.262,435.762 246.212,433.213 244.113,431.064Z" style="fill:rgb(234,152,133);fill-rule:nonzero;"/>
                <path d="M234.067,404.824C234.967,408.423 235.467,412.171 235.617,416.12L262.606,416.12C264.155,416.12 265.505,415.57 266.604,414.47C267.654,413.371 268.204,412.021 268.254,410.472C268.204,408.873 267.654,407.523 266.604,406.474C265.505,405.374 264.155,404.824 262.606,404.824L234.067,404.824Z" style="fill:rgb(255,51,0);fill-rule:nonzero;"/>
                <path d="M234.067,404.824C232.868,400.176 231.018,395.878 228.569,391.829C226.67,388.781 224.421,385.882 221.772,383.133C213.525,374.536 203.829,369.788 192.584,368.839C191.134,368.689 189.685,368.639 188.236,368.689C186.586,368.639 184.987,368.689 183.437,368.839C172.342,369.888 162.746,374.636 154.599,383.133C152,385.882 149.751,388.781 147.902,391.829C143.453,399.027 141.054,407.123 140.755,416.12L153.999,416.12C152.45,416.07 151.15,415.52 150.101,414.47C149.001,413.371 148.451,412.021 148.501,410.472C148.451,408.873 149.001,407.523 150.101,406.474C150.751,405.824 151.55,405.324 152.4,405.074L152.4,404.874C152.4,399.826 154.149,395.478 157.698,391.83C157.898,391.58 158.148,391.33 158.397,391.08C162.446,387.331 167.344,385.432 173.092,385.432C178.789,385.432 183.637,387.331 187.686,391.08C187.936,391.33 188.186,391.58 188.435,391.83C191.984,395.478 193.733,399.776 193.783,404.824L234.067,404.824Z" style="fill:rgb(255,102,0);fill-rule:nonzero;"/>
                <path d="M183.437,368.839C184.987,368.689 186.586,368.639 188.236,368.689C189.685,368.639 191.134,368.689 192.584,368.839C192.484,367.739 192.034,366.789 191.284,366.04C190.385,365.14 189.285,364.69 188.036,364.69C186.786,364.69 185.687,365.14 184.837,366.04C183.987,366.789 183.537,367.739 183.437,368.839Z" style="fill:rgb(236,96,2);fill-rule:nonzero;"/>
                <path d="M158.397,391.08C158.148,391.33 157.898,391.579 157.698,391.829C154.149,395.478 152.4,399.826 152.4,404.874L152.4,405.074C152.95,404.924 153.499,404.824 154.149,404.824L193.783,404.824C193.733,399.776 191.984,395.478 188.436,391.829C188.186,391.58 187.936,391.33 187.686,391.08C183.637,387.331 178.789,385.432 173.092,385.432C167.344,385.432 162.446,387.331 158.398,391.08L158.397,391.08Z" style="fill:rgb(102,51,51);fill-rule:nonzero;"/>
                <path d="M154.149,404.824C153.499,404.824 152.95,404.924 152.4,405.074C151.55,405.324 150.751,405.824 150.101,406.474C149.001,407.523 148.452,408.873 148.501,410.472C148.452,412.021 149.001,413.371 150.101,414.47C151.15,415.52 152.45,416.07 153.999,416.12L193.434,416.12L193.783,405.024C193.633,404.974 193.534,404.874 193.434,404.824L154.149,404.824ZM153.699,408.922C154.199,408.922 154.649,409.072 154.999,409.422C155.349,409.822 155.549,410.272 155.549,410.822C155.549,411.322 155.349,411.721 154.999,412.071C154.699,412.321 154.349,412.521 153.999,412.621C153.899,412.621 153.799,412.621 153.699,412.621C153.15,412.621 152.7,412.421 152.35,412.071C152,411.721 151.85,411.322 151.85,410.822C151.85,410.272 152,409.822 152.35,409.422C152.5,409.272 152.65,409.172 152.85,409.122C153.1,408.973 153.349,408.923 153.699,408.923L153.699,408.922ZM162.646,409.422C162.996,409.072 163.445,408.922 163.945,408.922C164.445,408.922 164.895,409.072 165.245,409.422C165.595,409.822 165.795,410.272 165.795,410.822C165.795,411.322 165.595,411.721 165.245,412.071C164.895,412.421 164.445,412.621 163.945,412.621C163.445,412.621 162.996,412.421 162.646,412.071C162.296,411.721 162.096,411.322 162.096,410.822C162.096,410.272 162.296,409.822 162.646,409.422ZM175.241,408.922C175.741,408.922 176.19,409.072 176.54,409.422C176.89,409.822 177.09,410.272 177.14,410.822C177.09,411.322 176.89,411.721 176.54,412.071C176.19,412.421 175.741,412.621 175.241,412.621C174.691,412.621 174.241,412.421 173.891,412.071C173.541,411.721 173.391,411.322 173.441,410.822C173.391,410.272 173.541,409.822 173.891,409.422C174.241,409.072 174.691,408.922 175.241,408.922ZM185.537,408.922C186.036,408.922 186.436,409.072 186.786,409.422C187.186,409.822 187.386,410.272 187.436,410.822C187.386,411.322 187.186,411.721 186.786,412.071C186.436,412.421 186.036,412.621 185.537,412.621C184.987,412.621 184.537,412.421 184.187,412.071C183.837,411.721 183.687,411.322 183.687,410.822C183.687,410.272 183.837,409.822 184.187,409.422C184.537,409.072 184.987,408.922 185.537,408.922Z" style="fill:rgb(255,51,0);fill-rule:nonzero;"/>
                <path d="M154.999,409.422C154.649,409.072 154.199,408.922 153.699,408.922C153.349,408.922 153.1,408.972 152.85,409.122C152.65,409.172 152.5,409.272 152.35,409.422C152,409.822 151.85,410.272 151.85,410.822C151.85,411.322 152,411.721 152.35,412.071C152.7,412.421 153.15,412.621 153.699,412.621C153.799,412.621 153.899,412.621 153.999,412.621C154.349,412.521 154.699,412.321 154.999,412.071C155.349,411.722 155.549,411.322 155.549,410.822C155.549,410.272 155.349,409.822 154.999,409.422Z" style="fill:rgb(255,102,0);fill-rule:nonzero;"/>
                <path d="M163.945,408.922C163.445,408.922 162.996,409.072 162.646,409.422C162.296,409.822 162.096,410.272 162.096,410.822C162.096,411.322 162.296,411.721 162.646,412.071C162.996,412.421 163.445,412.621 163.945,412.621C164.445,412.621 164.895,412.421 165.245,412.071C165.595,411.721 165.795,411.322 165.795,410.822C165.795,410.272 165.595,409.822 165.245,409.422C164.895,409.072 164.445,408.922 163.945,408.922Z" style="fill:rgb(255,102,0);fill-rule:nonzero;"/>
                <path d="M176.54,409.422C176.19,409.072 175.741,408.922 175.241,408.922C174.691,408.922 174.241,409.072 173.891,409.422C173.541,409.822 173.391,410.272 173.441,410.822C173.391,411.322 173.541,411.721 173.891,412.071C174.241,412.421 174.691,412.621 175.241,412.621C175.741,412.621 176.19,412.421 176.54,412.071C176.89,411.721 177.09,411.322 177.14,410.822C177.09,410.272 176.89,409.822 176.54,409.422Z" style="fill:rgb(255,102,0);fill-rule:nonzero;"/>
                <path d="M186.786,409.422C186.436,409.072 186.036,408.922 185.537,408.922C184.987,408.922 184.537,409.072 184.187,409.422C183.837,409.822 183.687,410.272 183.687,410.822C183.687,411.322 183.837,411.721 184.187,412.071C184.537,412.421 184.987,412.621 185.537,412.621C186.036,412.621 186.436,412.421 186.786,412.071C187.186,411.721 187.386,411.322 187.436,410.822C187.386,410.272 187.186,409.822 186.786,409.422Z" style="fill:rgb(255,102,0);fill-rule:nonzero;"/>
                <path d="M142.304,428.165C141.554,428.015 140.805,427.915 140.055,427.965C137.056,427.915 134.507,428.965 132.358,431.064C132.208,431.214 132.108,431.364 132.008,431.514C130.109,433.563 129.159,435.962 129.159,438.811C129.159,441.659 130.109,444.108 132.008,446.158C132.108,446.258 132.208,446.358 132.358,446.508C134.507,448.657 137.056,449.706 140.055,449.756C140.805,449.756 141.554,449.656 142.304,449.506L142.304,428.165Z" style="fill:rgb(234,152,133);fill-rule:nonzero;"/>
                <path d="M193.433,404.824C193.533,404.874 193.633,404.974 193.783,405.024C193.733,404.974 193.733,404.924 193.783,404.874L193.783,404.824L193.433,404.824Z" style="fill:rgb(255,181,162);fill-rule:nonzero;"/>
                <path d="M166.894,503.535C164.345,504.984 161.996,506.783 159.797,508.982C157.148,511.581 155.099,514.43 153.549,517.529L153.549,517.329C153.499,517.379 153.499,517.479 153.449,517.529C152.85,518.329 152.25,519.179 151.7,520.028C150.85,521.278 150.051,522.527 149.301,523.777C145.753,529.624 142.704,535.872 140.055,542.619C138.206,547.267 136.556,552.115 135.207,557.263C134.507,559.712 133.857,562.261 133.308,564.91C133.158,565.46 133.058,566.06 132.958,566.61L143.803,569.558C144.703,565.31 145.753,561.212 147.002,557.263C147.952,554.115 148.951,551.116 150.101,548.217L150.101,606.344L150.251,606.544L150.101,606.644L150.101,612.791L161.146,612.791C161.146,612.741 161.146,612.641 161.096,612.541L217.024,612.541C216.974,612.641 216.974,612.741 216.974,612.791L226.97,612.791L227.02,569.259C228.17,570.158 229.569,571.058 231.118,572.008L242.014,569.109C240.465,559.663 238.266,550.816 235.467,542.619C233.368,536.472 230.919,530.674 228.17,525.226C226.17,521.478 224.021,517.879 221.772,514.431C221.172,513.581 220.573,512.731 220.023,511.932C219.973,511.882 219.923,511.782 219.923,511.732L219.923,512.032C219.073,510.982 218.174,509.933 217.224,508.983C215.325,507.084 213.326,505.484 211.176,504.135C210.477,508.783 208.378,512.881 204.879,516.33C201.93,519.279 198.532,521.278 194.733,522.228L194.733,535.672C194.733,537.272 194.183,538.671 193.034,539.821C191.884,540.97 190.485,541.52 188.835,541.52C187.236,541.52 185.887,540.97 184.737,539.821C183.587,538.671 182.988,537.272 182.988,535.672L182.988,522.128C179.339,521.128 176.09,519.179 173.242,516.33C169.593,512.682 167.494,508.433 166.894,503.535ZM231.718,568.709L231.718,568.209L231.818,568.709L231.718,568.709ZM224.121,599.746L223.571,600.646C223.521,600.746 223.521,600.846 223.521,600.946L223.521,601.146L223.222,600.946L224.121,599.746Z" style="fill:rgb(255,153,0);fill-rule:nonzero;"/>
                <path d="M231.718,568.209L231.718,568.709L231.818,568.709L231.718,568.209Z" style="fill:rgb(255,189,145);fill-rule:nonzero;"/>
                <path d="M223.571,600.646L224.121,599.746L223.222,600.946L223.521,601.146L223.521,600.946C223.521,600.846 223.521,600.746 223.571,600.646Z" style="fill:rgb(244,166,150);fill-rule:nonzero;"/>
                <path d="M200.381,512.081C203.429,509.082 204.979,505.434 205.079,501.186C205.079,501.086 205.079,500.986 205.079,500.886L205.079,495.838C204.679,495.988 204.279,496.088 203.879,496.188C199.981,497.337 195.882,497.887 191.534,497.887L184.937,497.887C181.038,497.887 177.34,497.437 173.791,496.538C173.591,496.488 173.391,496.438 173.242,496.388L173.242,500.886C173.192,505.234 174.741,508.983 177.84,512.081C179.389,513.631 181.138,514.83 182.988,515.63C184.837,516.38 186.886,516.78 189.135,516.78C191.134,516.78 192.984,516.48 194.733,515.83C196.782,515.03 198.681,513.781 200.381,512.081Z" style="fill:rgb(255,157,138);fill-rule:nonzero;"/>
                <path d="M205.079,501.186C204.979,505.434 203.429,509.082 200.381,512.081C198.681,513.781 196.782,515.03 194.733,515.83C192.984,516.479 191.134,516.779 189.135,516.779C186.886,516.779 184.837,516.38 182.988,515.63C181.138,514.83 179.389,513.631 177.84,512.081C174.741,508.983 173.192,505.234 173.242,500.886L173.192,500.786C170.992,501.436 168.893,502.385 166.894,503.535C167.494,508.433 169.593,512.681 173.242,516.33C176.09,519.179 179.339,521.128 182.988,522.127L182.988,535.672C182.988,537.271 183.587,538.671 184.737,539.82C185.886,540.97 187.236,541.52 188.835,541.52C190.485,541.52 191.884,540.97 193.034,539.82C194.183,538.671 194.733,537.271 194.733,535.672L194.733,522.227C198.531,521.278 201.93,519.279 204.879,516.33C208.377,512.881 210.477,508.783 211.176,504.135C209.227,502.935 207.228,501.936 205.079,501.186Z" style="fill:rgb(255,102,0);fill-rule:nonzero;"/>
                <path d="M173.192,500.786L173.242,500.886L173.242,500.786L173.192,500.786Z" style="fill:rgb(255,153,0);fill-rule:nonzero;"/>
                <path d="M216.974,612.791C216.974,612.741 216.974,612.641 217.024,612.541L161.096,612.541C161.146,612.641 161.146,612.741 161.146,612.791C161.196,613.041 161.246,613.241 161.296,613.441C161.796,615.49 162.796,617.339 164.295,618.988C164.645,619.438 165.045,619.788 165.495,620.138C167.244,621.637 169.243,622.487 171.492,622.737L171.492,622.787L173.242,622.787L173.242,721.547L185.986,721.547L185.986,622.787L193.483,622.787L193.483,721.547L206.328,721.547L206.328,622.787L206.478,622.787C207.028,622.737 207.578,622.687 208.078,622.637L208.228,622.637C213.226,621.887 216.124,618.589 216.974,612.791Z" style="fill:rgb(0,102,153);fill-rule:nonzero;"/>
                <path d="M143.803,569.558L132.958,566.609C132.608,568.209 132.258,569.858 132.008,571.507C131.458,574.256 131.008,577.055 130.659,579.904C130.609,580.154 130.609,580.354 130.559,580.604C130.509,580.854 130.509,581.104 130.459,581.354C130.009,584.602 129.659,587.951 129.409,591.4C129.159,593.599 128.909,595.898 128.759,598.247C128.559,600.996 128.409,603.795 128.359,606.743L128.409,606.793C128.359,607.093 128.359,607.393 128.31,607.693C128.26,608.193 128.26,608.693 128.26,609.242C128.21,609.892 128.21,610.492 128.21,611.142C128.06,612.891 128.01,614.69 127.96,616.54C127.51,616.59 127.06,616.64 126.66,616.69C125.96,616.79 125.311,616.939 124.711,617.189C122.312,618.039 120.663,619.738 119.713,622.237C119.463,622.887 119.263,623.637 119.113,624.386C119.063,624.536 119.063,624.686 119.063,624.836L116.114,642.579C115.864,643.929 116.164,645.178 116.964,646.228C117.664,647.227 118.563,647.877 119.713,648.227C119.863,648.277 120.063,648.327 120.263,648.377L120.413,648.377C121.812,648.627 123.062,648.327 124.161,647.477C124.611,647.128 125.011,646.778 125.361,646.328C125.611,645.978 125.811,645.628 125.96,645.228C125.96,645.078 125.96,644.928 126.01,644.778C126.06,644.779 126.06,644.779 126.11,644.779C126.06,644.928 126.01,645.078 125.96,645.228C125.91,645.578 125.96,645.978 126.01,646.328C126.06,646.978 126.31,647.527 126.66,648.077C126.71,648.177 126.81,648.277 126.86,648.427C127.71,649.577 128.809,650.276 130.209,650.526L130.359,650.576C131.408,650.726 132.408,650.626 133.308,650.176C133.557,650.027 133.807,649.827 134.057,649.677C134.657,649.227 135.157,648.727 135.507,648.177L135.557,647.877L135.607,647.877L135.657,647.827C135.807,647.478 135.956,647.128 136.056,646.778C136.006,647.178 135.956,647.578 136.006,647.977L136.056,647.977C135.956,649.027 136.256,650.027 136.906,650.926C137.606,651.926 138.605,652.526 139.855,652.726L139.955,652.726C141.204,652.926 142.404,652.676 143.453,651.976C144.303,651.376 144.853,650.576 145.153,649.627L145.803,649.727L147.002,642.23L146.952,642.13L147.002,642.13L147.252,642.23L149.151,630.685C149.201,630.235 149.201,629.835 149.201,629.485C149.151,629.285 149.151,629.085 149.151,628.885C149.101,628.535 149.001,628.186 148.951,627.886L148.901,627.736L148.901,627.686C148.901,627.536 148.901,627.436 148.851,627.336L148.302,626.436L148.801,627.136C148.551,625.887 148.252,624.737 147.852,623.787L147.702,623.587C146.602,621.138 144.903,619.539 142.654,618.839C142.104,618.44 141.454,618.14 140.755,617.89L139.305,617.69C139.355,617.49 139.355,617.29 139.355,617.09C139.405,615.041 139.455,613.092 139.505,611.143C139.505,610.693 139.505,610.243 139.555,609.793C139.555,609.593 139.555,609.393 139.605,609.243C139.605,608.694 139.605,608.194 139.655,607.644C139.705,604.695 139.855,601.846 140.005,599.097C140.105,597.148 140.255,595.199 140.405,593.3C140.755,588.952 141.204,584.703 141.854,580.605C141.904,580.355 141.904,580.155 141.954,579.905C142.504,576.357 143.104,572.908 143.803,569.559L143.803,569.558ZM129.159,626.186C129.109,626.286 129.109,626.385 129.109,626.435L129.009,627.135L129.009,627.035C129.009,626.735 129.059,626.435 129.159,626.186Z" style="fill:rgb(255,181,162);fill-rule:nonzero;"/>
                <path d="M129.109,626.435C129.109,626.385 129.109,626.286 129.159,626.186C129.059,626.435 129.009,626.735 129.009,627.035L129.009,627.135L129.109,626.436L129.109,626.435Z" style="fill:white;fill-rule:nonzero;"/>
                <path d="M139.655,609.142L139.655,607.643C139.605,608.193 139.605,608.693 139.605,609.242C139.555,609.392 139.555,609.592 139.555,609.792L139.605,609.792L139.655,609.142Z" style="fill:rgb(255,153,0);fill-rule:nonzero;"/>
                <path d="M150.251,606.543L150.101,606.344L149.351,605.344L149.901,606.244C149.951,606.344 149.951,606.444 149.951,606.543L149.951,606.793L150.101,606.643L150.251,606.544L150.251,606.543Z" style="fill:rgb(244,166,150);fill-rule:nonzero;"/>
                <path d="M148.202,621.288C148.152,621.188 148.102,621.088 148.052,621.038C147.902,621.987 147.802,622.837 147.702,623.587L147.852,623.787L148.202,621.288Z" style="fill:rgb(253,219,218);fill-rule:nonzero;"/>
                <path d="M149.151,628.884C149.151,629.084 149.151,629.284 149.201,629.484C149.201,629.834 149.201,630.234 149.151,630.684L147.252,642.229L147.202,642.429L148.651,644.528C149.301,645.278 150.051,645.828 150.951,646.078C151.2,646.178 151.45,646.228 151.7,646.278C151.75,646.328 151.85,646.328 151.9,646.328C152.45,646.378 152.95,646.378 153.45,646.328C153.5,646.328 153.5,646.328 153.55,646.328C154.249,646.178 154.949,645.928 155.599,645.478L155.649,645.328C156.798,644.478 157.498,643.429 157.648,642.079C157.898,640.73 157.648,639.431 156.798,638.281L149.201,627.685L148.951,627.885C149.001,628.185 149.101,628.535 149.151,628.885L149.151,628.884Z" style="fill:rgb(255,157,138);fill-rule:nonzero;"/>
                <path d="M128.31,607.693C128.359,607.393 128.359,607.093 128.409,606.793L128.359,606.743C128.31,607.043 128.31,607.343 128.31,607.693Z" style="fill:rgb(255,153,0);fill-rule:nonzero;"/>
                <path d="M125.96,645.228C126.01,645.078 126.06,644.928 126.11,644.778C126.06,644.778 126.06,644.778 126.01,644.778C125.96,644.928 125.96,645.078 125.96,645.228Z" style="fill:white;fill-rule:nonzero;"/>
                <path d="M233.817,603.545L233.817,604.194L233.867,604.194C233.817,603.445 233.817,602.745 233.817,601.995L233.767,601.995C233.767,602.295 233.767,602.645 233.767,602.995C233.767,603.145 233.767,603.345 233.817,603.545Z" style="fill:rgb(255,153,0);fill-rule:nonzero;"/>
                <path d="M245.163,602.045C245.113,601.745 245.113,601.445 245.113,601.146L245.013,601.146C245.063,601.446 245.113,601.745 245.163,602.045Z" style="fill:rgb(255,153,0);fill-rule:nonzero;"/>
                <path d="M225.721,617.939C225.671,617.189 225.571,616.389 225.471,615.44C225.371,615.54 225.271,615.64 225.221,615.74L225.621,618.189L225.721,617.939Z" style="fill:rgb(253,219,218);fill-rule:nonzero;"/>
                <path d="M244.313,620.588C244.313,620.688 244.313,620.788 244.313,620.888L244.463,621.537L244.463,621.437C244.413,621.138 244.363,620.838 244.313,620.588Z" style="fill:white;fill-rule:nonzero;"/>
                <path d="M185.986,721.597L173.242,721.597L173.242,741.19L185.986,741.19L185.986,721.597Z" style="fill:rgb(0,102,153);fill-rule:nonzero;"/>
                <rect x="175.441" y="741.19" width="8.646" height="3.898" style="fill:rgb(234,152,133);fill-rule:nonzero;"/>
                <path d="M186.386,745.088L184.087,745.088L175.441,745.088L169.493,745.088C166.344,741.739 162.646,740.04 158.347,740.04C153.699,740.04 149.701,741.989 146.402,745.938C144.553,748.137 143.204,750.636 142.404,753.385L186.386,753.385L186.386,745.088Z" style="fill:rgb(42,34,75);fill-rule:nonzero;"/>
                <path d="M186.386,758.033L186.386,753.385L142.404,753.385C142.254,753.885 142.104,754.384 141.954,754.884C141.754,755.884 141.604,756.933 141.554,758.033L186.386,758.033Z" style="fill:rgb(255,204,0);fill-rule:nonzero;"/>
                <path d="M206.328,721.597L193.483,721.597L193.483,741.19L206.328,741.19L206.328,721.597Z" style="fill:rgb(0,102,153);fill-rule:nonzero;"/>
                <path d="M238.016,758.033C237.916,756.933 237.716,755.884 237.466,754.834C237.366,754.334 237.266,753.834 237.166,753.385L193.084,753.385L193.084,758.033L238.016,758.033Z" style="fill:rgb(177,142,1);fill-rule:nonzero;"/>
                <path d="M237.166,753.385C236.416,750.936 235.317,748.737 233.817,746.687C233.617,746.438 233.417,746.188 233.218,745.938C229.869,741.989 225.87,740.04 221.222,740.04C216.874,740.04 213.176,741.739 210.027,745.088L204.129,745.088L195.483,745.088L193.084,745.088L193.084,753.385L237.166,753.385Z" style="fill:rgb(42,34,75);fill-rule:nonzero;"/>
                <rect x="195.483" y="741.19" width="8.646" height="3.898" style="fill:rgb(234,152,133);fill-rule:nonzero;"/>
                <path d="M247.462,639.63C247.462,639.48 247.462,639.28 247.462,639.13C247.412,639.13 247.362,639.13 247.312,639.18C247.362,639.33 247.412,639.48 247.462,639.63Z" style="fill:white;fill-rule:nonzero;"/>
                <path d="M270.284,483.343L263.043,483.343C261.819,483.584 260.697,483.97 259.677,484.597C257.178,486.044 255.24,488.648 253.863,492.41L237.951,555.977C237.798,556.508 237.9,557.039 238.155,557.521C238.41,558.051 238.818,558.389 239.277,558.534C239.328,558.582 239.379,558.582 239.43,558.582L239.889,558.582C240.042,558.534 240.246,558.485 240.45,558.389C240.552,558.437 240.654,558.485 240.807,558.534C240.858,558.582 240.909,558.582 240.96,558.582L241.419,558.582C241.674,558.534 241.878,558.437 242.133,558.293C242.592,558.051 242.949,557.666 243.102,557.135L259.065,493.23C261.258,486.767 265.031,483.488 270.284,483.343Z" style="fill:rgb(115,115,117);fill-rule:nonzero;"/>
                <path d="M335.307,483.343L270.284,483.343C265.031,483.487 261.258,486.767 259.065,493.23L243.102,557.135C242.949,557.665 242.592,558.051 242.133,558.292C241.878,558.437 241.674,558.534 241.419,558.582L322.149,558.582C322.914,558.582 323.628,558.727 324.291,559.064C324.291,558.871 324.291,558.678 324.342,558.485L341.682,489.323C342.09,485.513 339.948,483.536 335.307,483.343ZM300.832,515.416C299.557,516.429 298.027,516.959 296.242,516.959C294.457,516.959 292.927,516.429 291.653,515.416C290.378,514.355 289.715,513.053 289.715,511.557C289.715,510.062 290.378,508.857 291.653,507.844C292.927,506.783 294.457,506.252 296.242,506.252C298.027,506.252 299.557,506.783 300.832,507.844C302.107,508.857 302.719,510.062 302.719,511.557C302.719,513.053 302.107,514.355 300.832,515.416Z" style="fill:rgb(36,35,77);fill-rule:nonzero;"/>
                <path d="M296.242,516.959C298.027,516.959 299.557,516.429 300.832,515.416C302.107,514.355 302.719,513.053 302.719,511.557C302.719,510.062 302.107,508.857 300.832,507.844C299.557,506.783 298.027,506.252 296.242,506.252C294.457,506.252 292.927,506.783 291.653,507.844C290.378,508.857 289.715,510.062 289.715,511.557C289.715,513.053 290.378,514.355 291.653,515.416C292.927,516.429 294.457,516.959 296.242,516.959Z" style="fill:rgb(204,204,204);fill-rule:nonzero;"/>
                <path d="M326.433,570.254C327.606,568.951 328.167,567.36 328.167,565.479L328.167,565.382C328.218,563.694 327.708,562.199 326.739,560.993C326.637,560.849 326.535,560.704 326.433,560.559C325.77,559.836 325.056,559.354 324.291,559.064C323.628,558.727 322.914,558.582 322.149,558.582L241.419,558.582L240.96,558.582L239.889,558.582L239.43,558.582L235.657,558.582C235.147,558.582 234.637,558.582 234.178,558.63C235.504,558.823 236.677,559.45 237.696,560.559C238.869,561.862 239.43,563.501 239.43,565.382L239.43,565.479C239.43,567.36 238.869,568.951 237.696,570.254C236.83,571.17 235.861,571.749 234.79,572.038L323.526,572.038C324.597,571.797 325.566,571.17 326.433,570.254Z" style="fill:rgb(22,15,66);fill-rule:nonzero;"/>
                <path d="M167.064,558.582C165.381,558.582 163.953,559.257 162.78,560.559C161.607,561.862 161.046,563.501 161.046,565.382L161.046,565.479C161.046,567.36 161.607,568.951 162.78,570.254C163.647,571.17 164.616,571.797 165.687,572.038L234.79,572.038C235.861,571.749 236.83,571.17 237.697,570.254C238.869,568.951 239.43,567.36 239.43,565.479L239.43,565.382C239.43,563.501 238.869,561.862 237.696,560.559C236.677,559.45 235.504,558.823 234.178,558.63C233.923,558.582 233.719,558.582 233.464,558.582C233.413,558.582 233.413,558.582 233.362,558.582L167.064,558.582Z" style="fill:rgb(115,115,117);fill-rule:nonzero;"/>
                <path d="M239.889,558.582L240.96,558.582C240.909,558.582 240.858,558.582 240.807,558.534C240.654,558.485 240.552,558.437 240.45,558.389C240.246,558.485 240.042,558.534 239.889,558.582Z" style="fill:rgb(36,35,77);fill-rule:nonzero;"/>
                <path d="M290.745,556.164C286.078,556.164 282.144,557.63 278.877,560.497C275.61,563.364 273.943,566.898 273.943,570.965L273.943,571.099C273.943,571.432 273.943,571.699 274.01,572.032L267.409,572.032L258.208,586.167L295.079,586.167C302.613,586.101 306.413,582.767 306.413,576.166C307.08,574.499 307.414,572.766 307.414,570.965C307.414,566.898 305.813,563.364 302.546,560.497C299.279,557.63 295.345,556.164 290.745,556.164Z" style="fill:rgb(255,181,162);fill-rule:nonzero;"/>
                <path d="M226.27,586.167L258.208,586.167L267.409,572.032L226.27,572.032L226.27,586.167Z" style="fill:rgb(234,152,133);fill-rule:nonzero;"/>
            </g>
        </g>
    </g>
</svg>
