<?xml version="1.0" encoding="UTF-8" standalone="no"?>
<!DOCTYPE svg PUBLIC "-//W3C//DTD SVG 1.1//EN" "http://www.w3.org/Graphics/SVG/1.1/DTD/svg11.dtd">
<svg width="100%" height="100%" viewBox="0 0 205 199" version="1.1" xmlns="http://www.w3.org/2000/svg" xmlns:xlink="http://www.w3.org/1999/xlink" xml:space="preserve" style="fill-rule:evenodd;clip-rule:evenodd;stroke-linejoin:round;stroke-miterlimit:1.41421;">
    <g transform="matrix(1,0,0,1,-2508,-59)">
        <g transform="matrix(1,0,0,1,0,-162)">
            <g id="Ninja-Male-2-Tablet" transform="matrix(1,0,0,1,2447.97,106.633)">
                <path d="M160.017,164.046C160.077,163.985 160.137,163.925 160.197,163.865C160.738,163.025 161.218,162.185 161.638,161.345C167.52,151.922 167.52,142.859 161.638,134.156C161.158,133.436 160.678,132.716 160.137,132.056C159.657,131.395 159.177,130.795 158.637,130.255C156.896,128.274 154.856,126.414 152.635,124.673C152.215,124.373 151.855,124.073 151.435,123.773C150.174,122.813 148.854,121.912 147.534,121.132C146.753,120.712 146.033,120.352 145.313,119.932C144.773,119.632 144.173,119.391 143.632,119.091C136.49,115.73 128.448,114.23 119.625,114.65C119.205,114.65 118.785,114.65 118.365,114.71C117.944,114.77 117.584,114.77 117.224,114.83C112.603,115.01 108.281,115.61 104.26,116.751C102.04,117.411 99.819,118.191 97.718,119.091C97.298,119.271 96.878,119.511 96.458,119.692C92.317,121.672 88.535,124.253 85.114,127.434C76.472,135.416 72.39,144.779 72.871,155.583L72.871,180.55L73.471,180.55C73.531,180.49 73.651,180.49 73.711,180.55L72.991,180.55C74.191,180.55 75.031,180.55 75.511,180.55C75.631,180.55 75.751,180.55 75.871,180.61C75.931,180.61 76.052,180.61 76.112,180.67C76.592,180.73 77.072,180.79 77.612,180.97C79.833,181.51 81.873,182.711 83.614,184.511C83.674,184.571 83.794,184.631 83.914,184.691L83.914,184.751L111.342,146.7L109.422,172.267C119.145,169.146 127.127,163.625 133.429,155.642C134.449,154.382 135.41,153.122 136.31,151.741L151.195,173.828C151.255,173.768 151.375,173.708 151.435,173.648C154.196,171.307 156.596,168.786 158.637,166.086C159.117,165.425 159.597,164.705 160.017,164.045L160.017,164.046ZM73.831,180.551C73.891,180.491 73.891,180.491 73.951,180.491L74.371,180.491L73.831,180.551Z" style="fill:rgb(117,76,36);fill-rule:nonzero;"/>
                <path d="M73.951,180.491C73.891,180.491 73.891,180.491 73.831,180.551L74.371,180.491L73.951,180.491Z" style="fill:rgb(248,156,118);fill-rule:nonzero;"/>
                <path d="M160.197,163.865C160.137,163.925 160.077,163.985 160.017,164.046C159.597,164.706 159.117,165.426 158.637,166.086C156.596,168.787 154.196,171.308 151.435,173.648C151.375,173.708 151.255,173.769 151.195,173.829L136.31,151.742C135.41,153.122 134.449,154.383 133.429,155.643C127.127,163.625 119.145,169.147 109.422,172.268L111.342,146.7L83.914,184.752L83.914,184.692C83.794,184.632 83.674,184.572 83.614,184.512C81.873,182.711 79.833,181.511 77.612,180.971C77.072,180.79 76.592,180.73 76.112,180.67C76.052,180.61 75.931,180.61 75.871,180.61C75.751,180.55 75.631,180.55 75.511,180.55C75.031,180.55 74.191,180.55 72.991,180.55C72.931,180.55 72.931,180.55 72.871,180.55C69.569,180.79 66.689,182.111 64.348,184.511C61.647,187.152 60.327,190.393 60.387,194.174C60.327,197.835 61.587,201.016 64.168,203.657C64.228,203.717 64.288,203.717 64.348,203.777C66.989,206.478 70.23,207.798 74.011,207.798C75.511,207.798 76.892,207.618 78.212,207.198C78.632,209.419 79.292,211.52 80.133,213.56C80.133,213.62 80.133,213.62 80.193,213.68C80.193,213.74 80.193,213.8 80.253,213.86C81.273,216.441 82.654,218.962 84.274,221.363C85.054,222.443 85.835,223.523 86.735,224.604C87.875,225.924 89.076,227.244 90.396,228.505L90.396,228.565C92.317,230.365 94.357,231.986 96.458,233.366C97.958,234.327 99.459,235.167 101.079,235.947C101.499,236.187 101.979,236.427 102.46,236.607C103.12,236.907 103.84,237.147 104.5,237.448C105.04,237.628 105.521,237.808 106.061,237.988L107.981,238.468L111.522,239.308C112.663,239.488 113.863,239.668 115.124,239.788L122.386,239.848C122.386,239.788 122.386,239.788 122.446,239.848C125.267,239.668 127.907,239.188 130.488,238.528C131.629,238.228 132.709,237.868 133.849,237.447C134.509,237.207 135.11,236.967 135.71,236.667C136.73,236.247 137.69,235.767 138.711,235.287C138.771,235.227 138.891,235.227 138.951,235.167C141.172,233.966 143.272,232.526 145.313,230.905C146.033,230.245 146.753,229.585 147.534,228.925C147.714,228.745 147.894,228.565 148.074,228.385C148.614,227.844 149.154,227.304 149.694,226.764C150.294,226.104 150.895,225.504 151.435,224.843C152.695,223.343 153.775,221.843 154.796,220.282C155.936,218.542 156.896,216.801 157.677,215C157.737,214.94 157.737,214.82 157.797,214.76C158.097,214.1 158.337,213.38 158.637,212.66C158.997,211.639 159.357,210.559 159.657,209.479C160.317,207.018 160.798,204.557 160.978,201.976L160.558,201.856L159.777,175.988C160.017,175.928 160.257,175.928 160.497,175.868L160.557,175.868L160.197,163.865ZM108.281,185.592C108.281,185.232 108.401,184.932 108.702,184.632C109.002,184.332 109.302,184.212 109.662,184.212L116.924,184.212C117.224,184.212 117.524,184.332 117.824,184.632C118.124,184.932 118.245,185.232 118.305,185.592C118.245,185.952 118.124,186.252 117.824,186.552C117.524,186.853 117.224,186.973 116.924,186.973L109.662,186.973C109.302,186.973 109.002,186.853 108.702,186.552C108.401,186.252 108.281,185.952 108.281,185.592ZM69.029,198.016C68.189,197.116 67.769,195.975 67.709,194.715C67.649,193.275 68.069,192.074 69.029,191.054C69.99,190.034 71.19,189.433 72.69,189.373C74.071,189.313 75.331,189.793 76.352,190.754C77.312,191.654 77.852,192.734 78.032,193.995C78.032,194.115 78.032,194.235 78.032,194.355C78.092,195.735 77.612,196.996 76.652,198.016C75.691,199.036 74.491,199.576 73.111,199.636C71.61,199.696 70.35,199.216 69.329,198.316C69.209,198.196 69.089,198.076 69.029,198.016ZM105.881,207.259C105.821,207.199 105.821,207.199 105.821,207.139C104.8,204.978 104.2,202.637 104.14,200.057L140.511,200.057C140.451,202.337 139.971,204.438 139.131,206.419C138.951,206.779 138.771,207.139 138.591,207.559C138.531,207.679 138.471,207.799 138.411,207.919C137.57,209.419 136.49,210.86 135.17,212.18C134.57,212.781 133.969,213.321 133.309,213.861C132.829,214.161 132.349,214.521 131.929,214.821C129.108,216.562 125.987,217.462 122.446,217.522C122.386,217.522 122.386,217.522 122.326,217.522C119.745,217.462 117.344,216.982 115.124,216.082C114.283,215.721 113.503,215.301 112.723,214.821C112.243,214.521 111.762,214.161 111.342,213.861C110.682,213.321 110.022,212.781 109.482,212.18C108.101,210.86 107.021,209.419 106.181,207.919C106.061,207.679 105.941,207.439 105.881,207.259ZM139.731,186.552C139.431,186.853 139.131,186.973 138.771,186.973L131.569,186.973C131.209,186.973 130.848,186.853 130.548,186.552C130.248,186.252 130.128,185.952 130.128,185.592C130.128,185.232 130.248,184.932 130.548,184.632C130.848,184.332 131.209,184.212 131.569,184.212L138.771,184.212C139.131,184.212 139.431,184.332 139.731,184.632C140.031,184.932 140.151,185.232 140.151,185.592C140.151,185.952 140.031,186.252 139.731,186.552ZM142.252,189.433C142.192,189.493 142.192,189.613 142.192,189.673L142.192,189.733C142.132,189.553 142.132,189.493 142.252,189.433Z" style="fill:rgb(248,156,118);fill-rule:nonzero;"/>
                <path d="M108.702,184.632C108.401,184.932 108.281,185.232 108.281,185.592C108.281,185.952 108.401,186.252 108.702,186.552C109.002,186.853 109.302,186.973 109.662,186.973L116.924,186.973C117.224,186.973 117.524,186.853 117.824,186.552C118.124,186.252 118.245,185.952 118.305,185.592C118.245,185.232 118.124,184.932 117.824,184.632C117.524,184.332 117.224,184.212 116.924,184.212L109.662,184.212C109.302,184.212 109.002,184.332 108.702,184.632Z" style="fill:rgb(75,28,2);fill-rule:nonzero;"/>
                <path d="M67.709,194.715C67.769,195.975 68.189,197.116 69.029,198.016C69.089,198.076 69.209,198.196 69.329,198.316C70.35,199.216 71.61,199.696 73.111,199.636C74.491,199.576 75.691,199.036 76.652,198.016C77.612,196.996 78.092,195.735 78.032,194.355C78.032,194.235 78.032,194.115 78.032,193.995C77.852,192.734 77.312,191.654 76.352,190.754C75.331,189.793 74.071,189.313 72.69,189.373C71.19,189.433 69.99,190.033 69.029,191.054C68.069,192.074 67.649,193.274 67.709,194.715Z" style="fill:rgb(217,115,72);fill-rule:nonzero;"/>
                <path d="M105.821,207.139C105.821,207.199 105.821,207.199 105.881,207.259C105.941,207.439 106.061,207.679 106.181,207.919L138.411,207.919C138.471,207.799 138.531,207.679 138.591,207.559C138.771,207.139 138.951,206.779 139.131,206.419C139.971,204.438 140.451,202.337 140.511,200.057L104.14,200.057C104.2,202.637 104.8,204.978 105.821,207.139Z" style="fill:white;fill-rule:nonzero;"/>
                <path d="M109.482,212.18C110.022,212.781 110.682,213.321 111.342,213.861C111.763,214.161 112.243,214.521 112.723,214.821C113.503,215.301 114.283,215.721 115.124,216.082C117.344,216.982 119.745,217.462 122.326,217.522C122.386,217.522 122.386,217.522 122.446,217.522C125.987,217.462 129.108,216.562 131.929,214.821C132.349,214.521 132.829,214.161 133.309,213.861C133.969,213.321 134.57,212.781 135.17,212.18C136.49,210.86 137.57,209.419 138.411,207.919L106.181,207.919C107.021,209.419 108.101,210.86 109.482,212.18Z" style="fill:rgb(204,51,0);fill-rule:nonzero;"/>
                <path d="M138.771,186.973C139.131,186.973 139.431,186.853 139.731,186.552C140.031,186.252 140.151,185.952 140.151,185.592C140.151,185.232 140.031,184.932 139.731,184.632C139.431,184.332 139.131,184.212 138.771,184.212L131.569,184.212C131.209,184.212 130.848,184.332 130.548,184.632C130.248,184.932 130.128,185.232 130.128,185.592C130.128,185.952 130.248,186.252 130.548,186.552C130.848,186.853 131.209,186.973 131.569,186.973L138.771,186.973Z" style="fill:rgb(75,28,2);fill-rule:nonzero;"/>
                <path d="M172.081,181.631C171.541,180.851 170.941,180.07 170.161,179.41C169.86,179.11 169.56,178.87 169.26,178.63C168.36,177.91 167.34,177.369 166.319,176.949C166.139,176.829 165.899,176.709 165.719,176.649C164.339,176.109 162.838,175.869 161.218,175.869L160.558,175.869L160.498,175.869C160.257,175.929 160.017,175.929 159.777,175.989L160.558,201.857L161.698,201.857C163.078,201.797 164.459,201.557 165.719,201.137C165.899,201.077 166.139,200.957 166.319,200.897C167.94,200.236 169.38,199.156 170.761,197.776C171.241,197.235 171.661,196.635 172.081,196.035C173.582,193.814 174.362,191.354 174.302,188.533C174.182,185.952 173.462,183.611 172.081,181.631Z" style="fill:rgb(217,115,72);fill-rule:nonzero;"/>
                <path d="M73.471,180.551L72.991,180.551L73.711,180.551C73.651,180.491 73.531,180.491 73.471,180.551Z" style="fill:rgb(248,156,118);fill-rule:nonzero;"/>
                <path d="M82.654,230.126C82.654,236.488 84.874,241.889 89.376,246.391C91.176,248.191 93.097,249.632 95.197,250.712C94.777,251.312 94.417,251.973 94.117,252.633C93.937,252.693 92.917,253.053 91.176,253.653L91.176,312.531L150.054,312.531L150.054,255.934C148.854,254.313 147.594,252.693 146.333,251.072C146.153,250.892 146.033,250.772 145.913,250.652C145.793,250.412 145.673,250.172 145.553,249.992C147.173,249.032 148.734,247.831 150.234,246.391C150.654,245.971 151.015,245.49 151.435,245.07C155.096,240.869 156.956,235.887 156.956,230.126C156.896,226.525 156.176,223.224 154.796,220.283C153.775,221.843 152.695,223.344 151.435,224.844C150.895,225.504 150.294,226.104 149.694,226.765C149.154,227.305 148.614,227.845 148.074,228.385C148.074,228.805 148.074,229.285 148.134,229.705C148.074,233.787 146.633,237.268 143.752,240.209C142.492,241.469 141.051,242.489 139.551,243.21C137.63,244.11 135.53,244.53 133.249,244.53L130.488,244.53L107.981,244.53L105.22,244.53C103.66,244.53 102.22,244.35 100.839,243.93C98.558,243.27 96.518,242.009 94.717,240.209C91.776,237.268 90.336,233.787 90.336,229.705C90.336,229.285 90.336,228.925 90.396,228.565L90.396,228.505C89.075,227.245 87.875,225.924 86.735,224.604C85.834,223.523 85.054,222.443 84.274,221.363C83.194,224.064 82.653,226.944 82.653,230.125L82.654,230.126ZM116.324,250.532C116.264,250.232 116.384,249.932 116.624,249.692C116.864,249.512 117.104,249.392 117.404,249.392C117.704,249.392 117.944,249.512 118.184,249.692C118.365,249.932 118.485,250.232 118.545,250.532L118.545,276.34C118.485,276.52 118.425,276.7 118.365,276.88C118.485,276.94 118.605,277 118.725,277.12C119.145,277.54 119.385,278.021 119.445,278.681C119.445,279.221 119.265,279.701 118.965,280.121C118.905,280.181 118.905,280.181 118.845,280.241C118.425,280.661 117.944,280.901 117.344,280.901C116.924,280.961 116.504,280.841 116.204,280.661C116.024,280.601 115.904,280.481 115.784,280.361C115.664,280.301 115.604,280.181 115.544,280.121C115.304,279.821 115.184,279.461 115.123,279.101C115.063,279.041 115.063,278.921 115.063,278.861C115.063,278.681 115.063,278.501 115.123,278.321C115.184,277.96 115.364,277.6 115.664,277.3C115.844,277.12 116.024,276.94 116.204,276.82C116.264,276.76 116.264,276.76 116.324,276.76L116.384,276.7C116.324,276.58 116.324,276.46 116.324,276.34L116.324,250.532ZM122.686,250.532C122.626,250.232 122.746,249.932 122.986,249.692C123.166,249.512 123.466,249.392 123.766,249.392C124.066,249.392 124.306,249.512 124.546,249.692C124.727,249.932 124.847,250.232 124.847,250.532L124.847,276.34C124.847,276.46 124.847,276.58 124.787,276.7C124.847,276.7 124.847,276.7 124.907,276.7C125.147,276.76 125.387,276.94 125.627,277.12C126.047,277.54 126.287,278.021 126.287,278.681C126.347,279.221 126.167,279.701 125.867,280.121C125.807,280.181 125.747,280.181 125.747,280.241C125.327,280.661 124.787,280.901 124.246,280.901C123.646,280.961 123.106,280.781 122.686,280.361C122.566,280.301 122.506,280.181 122.446,280.121C122.146,279.761 121.966,279.341 121.966,278.861C121.906,278.261 122.086,277.72 122.506,277.3C122.566,277.18 122.686,277.06 122.806,277C122.686,276.82 122.626,276.58 122.686,276.34L122.686,250.532Z" style="fill:rgb(0,147,213);fill-rule:nonzero;"/>
                <path d="M116.624,249.692C116.384,249.932 116.264,250.232 116.324,250.532L116.324,276.34C116.324,276.46 116.324,276.58 116.384,276.7C116.624,276.64 116.864,276.58 117.164,276.58C117.464,276.52 117.764,276.58 118.064,276.7C118.184,276.76 118.305,276.82 118.365,276.88C118.425,276.7 118.485,276.52 118.545,276.34L118.545,250.532C118.485,250.232 118.365,249.932 118.184,249.692C117.944,249.512 117.704,249.392 117.404,249.392C117.104,249.392 116.864,249.512 116.624,249.692Z" style="fill:white;fill-rule:nonzero;"/>
                <path d="M116.384,276.7L116.324,276.76C116.264,276.76 116.264,276.76 116.204,276.82C116.024,276.94 115.844,277.12 115.664,277.3C115.364,277.6 115.184,277.961 115.124,278.321C115.064,278.501 115.064,278.681 115.064,278.861C115.064,278.921 115.064,279.041 115.124,279.101C115.184,279.461 115.304,279.821 115.544,280.121C115.604,280.181 115.664,280.301 115.784,280.361C115.904,280.481 116.024,280.601 116.204,280.661C116.504,280.841 116.924,280.961 117.344,280.901C117.944,280.901 118.425,280.661 118.845,280.241C118.905,280.181 118.905,280.181 118.965,280.121C119.265,279.701 119.445,279.221 119.445,278.681C119.385,278.02 119.145,277.54 118.725,277.12C118.605,277 118.485,276.94 118.365,276.88C118.305,276.82 118.184,276.76 118.064,276.7C117.764,276.58 117.464,276.52 117.164,276.58C116.864,276.58 116.624,276.64 116.384,276.7Z" style="fill:rgb(1,78,109);fill-rule:nonzero;"/>
                <path d="M122.986,249.692C122.746,249.932 122.626,250.232 122.686,250.532L122.686,276.34C122.626,276.58 122.686,276.82 122.806,277C122.926,276.88 123.046,276.82 123.226,276.76C123.466,276.64 123.766,276.58 124.066,276.58C124.306,276.58 124.546,276.64 124.787,276.7C124.847,276.58 124.847,276.46 124.847,276.34L124.847,250.532C124.847,250.232 124.726,249.932 124.546,249.692C124.306,249.512 124.066,249.392 123.766,249.392C123.466,249.392 123.166,249.512 122.986,249.692Z" style="fill:white;fill-rule:nonzero;"/>
                <path d="M122.806,277C122.686,277.06 122.566,277.18 122.506,277.3C122.086,277.72 121.906,278.261 121.966,278.861C121.966,279.341 122.146,279.761 122.446,280.121C122.506,280.181 122.566,280.301 122.686,280.361C123.106,280.781 123.646,280.961 124.246,280.901C124.787,280.901 125.327,280.661 125.747,280.241C125.747,280.181 125.807,280.181 125.867,280.121C126.167,279.701 126.347,279.221 126.287,278.681C126.287,278.02 126.047,277.54 125.627,277.12C125.387,276.94 125.147,276.76 124.907,276.7C124.847,276.7 124.847,276.7 124.787,276.7C124.546,276.64 124.306,276.58 124.066,276.58C123.766,276.58 123.466,276.64 123.226,276.76C123.046,276.82 122.926,276.88 122.806,277Z" style="fill:rgb(1,78,109);fill-rule:nonzero;"/>
                <path d="M96.458,233.367C94.357,231.986 92.317,230.366 90.396,228.565C90.336,228.925 90.336,229.286 90.336,229.706C90.336,233.787 91.776,237.268 94.717,240.209C96.518,242.01 98.558,243.27 100.839,243.93C102.22,244.35 103.66,244.53 105.22,244.53L107.981,244.53L107.981,238.468L106.061,237.988C105.521,237.808 105.04,237.628 104.5,237.448C103.84,237.148 103.12,236.908 102.46,236.608C101.979,236.428 101.499,236.187 101.079,235.947C99.459,235.167 97.958,234.327 96.458,233.367Z" style="fill:rgb(1,78,109);fill-rule:nonzero;"/>
                <path d="M148.134,229.706C148.074,229.286 148.074,228.805 148.074,228.385C147.894,228.565 147.714,228.745 147.534,228.925C146.753,229.586 146.033,230.246 145.313,230.906C143.272,232.527 141.172,233.967 138.951,235.167C138.891,235.227 138.771,235.227 138.711,235.287C137.691,235.768 136.73,236.248 135.71,236.668C135.11,236.968 134.51,237.208 133.849,237.448C132.709,237.868 131.629,238.228 130.488,238.528L130.488,244.53L133.249,244.53C135.53,244.53 137.63,244.11 139.551,243.21C141.052,242.49 142.492,241.469 143.752,240.209C146.633,237.268 148.074,233.787 148.134,229.706Z" style="fill:rgb(1,78,109);fill-rule:nonzero;"/>
                <path d="M122.446,239.849C122.386,239.789 122.386,239.789 122.386,239.849L115.124,239.789C113.863,239.669 112.663,239.489 111.522,239.309L107.981,238.468L107.981,244.53L130.488,244.53L130.488,238.528C127.907,239.189 125.267,239.669 122.446,239.849Z" style="fill:rgb(217,115,72);fill-rule:nonzero;"/>
                <path d="M162.257,203.855C155.621,204.06 152.338,207.549 152.269,214.321L152.269,268.569C152.338,275.342 155.621,278.899 162.257,279.104L158.426,279.104C151.448,279.036 147.96,275.547 147.891,268.569L147.891,214.321C147.96,207.343 151.448,203.854 158.426,203.854L162.257,203.854L162.257,203.855Z" style="fill:rgb(115,115,117);fill-rule:nonzero;"/>
                <path d="M152.269,214.321C152.338,207.549 155.621,204.06 162.257,203.854L245.442,203.854C252.42,203.854 255.908,207.343 255.908,214.321L255.908,268.569C255.908,275.547 252.42,279.036 245.442,279.104L162.257,279.104C155.621,278.899 152.338,275.341 152.269,268.569L152.269,214.321ZM209.596,245.721C210.759,244.763 211.306,243.6 211.238,242.232C211.306,240.932 210.759,239.769 209.596,238.88C208.501,237.922 207.201,237.443 205.696,237.443C204.192,237.443 202.892,237.922 201.729,238.88C200.634,239.769 200.087,240.932 200.087,242.232C200.087,243.6 200.634,244.763 201.729,245.721C202.892,246.678 204.191,247.157 205.696,247.157C207.201,247.157 208.501,246.678 209.596,245.721Z" style="fill:rgb(36,35,77);fill-rule:nonzero;"/>
                <path d="M211.238,242.232C211.306,243.6 210.759,244.763 209.596,245.721C208.501,246.678 207.201,247.157 205.696,247.157C204.192,247.157 202.892,246.678 201.729,245.721C200.634,244.763 200.087,243.6 200.087,242.232C200.087,240.932 200.634,239.769 201.729,238.88C202.892,237.922 204.191,237.443 205.696,237.443C207.201,237.443 208.501,237.922 209.596,238.88C210.759,239.769 211.306,240.932 211.238,242.232Z" style="fill:rgb(115,115,117);fill-rule:nonzero;"/>
                <path d="M174.099,246.951L174.099,246.891C174.099,245.63 173.679,244.55 172.779,243.77C171.938,242.869 170.918,242.389 169.658,242.389L164.316,242.449C164.256,242.509 164.136,242.569 164.076,242.629L164.076,242.449L153.753,242.449C153.393,242.389 153.032,242.449 152.672,242.509C152.492,242.569 152.372,242.629 152.252,242.689C151.892,242.749 151.592,242.869 151.292,242.989L151.172,243.049C151.052,243.049 150.932,243.049 150.872,243.109L150.092,243.77L150.692,243.169C150.032,243.41 149.371,243.71 148.831,244.01C146.13,245.39 144.63,247.311 144.33,249.772C144.21,249.952 144.15,250.132 144.09,250.312C144.03,250.492 143.97,250.672 143.91,250.852L144.09,272.879C144.03,274.019 143.97,275.159 143.85,276.3L157.654,276.3C157.714,275.16 157.774,274.019 157.774,272.879L157.774,269.518L168.817,269.518C170.078,269.518 171.098,269.098 171.998,268.318C172.899,267.417 173.319,266.337 173.379,265.077L173.379,264.957C173.319,263.696 172.899,262.676 171.998,261.836C171.338,261.176 170.618,260.755 169.778,260.575C169.598,260.575 169.478,260.575 169.357,260.575C169.357,260.515 169.357,260.515 169.418,260.455C169.478,260.515 169.598,260.515 169.778,260.575C170.858,260.515 171.758,260.095 172.538,259.315C173.439,258.415 173.859,257.334 173.859,256.074L173.859,255.954C173.859,254.934 173.559,254.093 173.019,253.373C172.899,253.193 172.719,253.013 172.538,252.833C171.758,251.993 170.798,251.573 169.658,251.513C170.918,251.453 171.938,251.033 172.779,250.192C173.679,249.292 174.099,248.212 174.099,246.951Z" style="fill:rgb(248,156,118);fill-rule:nonzero;"/>
                <path d="M143.85,276.3C143.189,282.001 140.729,286.983 136.467,291.244C131.366,296.346 125.244,298.867 118.102,298.867C110.959,298.867 104.838,296.346 99.736,291.244C94.634,286.143 92.054,280.021 92.114,272.879L92.114,251.812C92.054,249.892 91.393,248.271 90.073,246.951C88.753,245.63 87.132,244.97 85.272,244.97C83.351,244.97 81.73,245.63 80.41,246.951C79.09,248.271 78.429,249.892 78.429,251.812L78.429,272.879C78.429,283.742 82.331,293.105 90.073,300.847C97.815,308.59 107.178,312.491 118.102,312.551C128.965,312.491 138.328,308.59 146.13,300.847C153.032,293.945 156.874,285.723 157.654,276.3L143.85,276.3Z" style="fill:rgb(1,119,169);fill-rule:nonzero;"/>
                <path d="M249.264,242.389C248.004,242.389 246.924,242.869 246.083,243.77C245.183,244.55 244.763,245.63 244.763,246.891L244.763,246.951C244.763,248.211 245.183,249.291 246.083,250.192C246.924,251.032 248.004,251.452 249.264,251.512C248.124,251.572 247.104,251.992 246.323,252.832C246.143,253.012 245.963,253.193 245.843,253.373C245.303,254.093 245.003,254.933 245.063,255.953L245.063,256.073C245.003,257.334 245.423,258.414 246.323,259.315C247.104,260.095 248.004,260.515 249.144,260.575C249.264,260.515 249.384,260.515 249.504,260.455C249.504,260.515 249.504,260.515 249.504,260.575C249.384,260.575 249.264,260.575 249.144,260.575C248.244,260.755 247.524,261.175 246.924,261.835C246.023,262.676 245.543,263.696 245.543,264.956L245.543,265.077C245.543,266.337 246.023,267.417 246.924,268.318C247.764,269.098 248.784,269.518 250.045,269.518L258.807,269.518C260.068,269.518 261.088,269.098 261.988,268.318C262.888,267.417 263.309,266.337 263.369,265.077L263.369,264.957C263.309,263.696 262.888,262.676 261.988,261.836C261.328,261.176 260.608,260.755 259.768,260.575C259.587,260.575 259.467,260.575 259.347,260.575C259.347,260.515 259.347,260.515 259.407,260.455C259.467,260.515 259.587,260.515 259.768,260.575C260.848,260.515 261.748,260.095 262.528,259.315C263.429,258.415 263.849,257.334 263.849,256.074L263.849,255.954C263.849,254.934 263.549,254.093 263.009,253.373C262.888,253.193 262.708,253.013 262.528,252.833C261.748,251.993 260.788,251.573 259.647,251.513C260.908,251.453 261.928,251.033 262.768,250.192C263.669,249.292 264.089,248.212 264.089,246.951L264.089,246.891C264.089,245.631 263.669,244.551 262.768,243.77C261.928,242.87 260.908,242.39 259.647,242.39L249.264,242.39L249.264,242.389Z" style="fill:rgb(248,156,118);fill-rule:nonzero;"/>
            </g>
        </g>
    </g>
</svg>
