<?xml version="1.0" standalone="no"?><!DOCTYPE svg PUBLIC "-//W3C//DTD SVG 1.1//EN" "http://www.w3.org/Graphics/SVG/1.1/DTD/svg11.dtd"><svg width="100%" height="100%" viewBox="0 0 89084 89084" version="1.1" xmlns="http://www.w3.org/2000/svg" xmlns:xlink="http://www.w3.org/1999/xlink" xml:space="preserve" style="fill-rule:evenodd;clip-rule:evenodd;stroke-linejoin:round;stroke-miterlimit:1.41421;"><g id="_833871744_"><path id="path17" d="M37425,27579.2l0,-15745.8c0,-687.5 250,-1283.33 754.167,-1783.33c500,-500 1095.83,-754.167 1787.5,-754.167l8208.33,0c679.167,0 1266.67,250 1762.5,754.167c495.833,500 741.667,1095.83 741.667,1783.33l0,15745.8c0,700 -250,1295.83 -741.667,1791.67c-495.833,495.834 -1095.83,741.667 -1795.83,741.667l-8175,0c-708.334,0 -1312.5,-245.833 -1804.17,-741.667c-491.667,-495.833 -733.333,-1091.67 -733.333,-1791.67l-4.167,0ZM48079.2,27483.3l0,-15520.8l-8020.83,0l0,15520.8l8020.83,0Z" style="fill:#fff;"/><path d="M44541.7,0c24600,0 44541.7,19941.7 44541.7,44541.7c0,24600 -19941.7,44541.7 -44541.7,44541.7c-24600,0 -44541.7,-19941.7 -44541.7,-44541.7c0,-24600 19941.7,-44541.7 44541.7,-44541.7ZM44072.1,2304.18c-201.823,0.248 -403.646,4.285 -605.468,8.321c-23033.3,333.333 -41620.8,19125 -41620.8,42233.3c0,23137.5 18629.2,41941.7 41700,42233.3c-11408.3,-287.5 -20575,-9637.5 -20575,-21112.5c0,-11652.6 9453.26,-21111.6 21103.8,-21120.8l34.152,-0.013c11650.5,-9.235 21103.8,-9468.19 21103.8,-21120.8c0,-11658.3 -9462.5,-21120.8 -21120.8,-21120.8l-19.532,0.012ZM51045.8,77816.7c370.836,-0.001 679.168,-125.001 933.334,-379.167c254.166,-258.333 383.333,-570.833 383.333,-937.5l0,-6795.83c0,-366.667 -129.167,-675 -383.333,-933.334c-254.167,-254.166 -566.667,-383.333 -933.334,-383.333c-362.5,0 -675,129.167 -929.166,391.667c-254.167,262.5 -383.334,570.833 -383.334,925l0,5479.17l-2633.33,0l0,-18154.2l-6608.33,0c-366.667,0 -679.167,129.166 -933.334,383.333c-254.166,254.167 -383.333,566.667 -383.333,929.167c0,366.666 125,679.166 383.333,933.333c258.334,254.167 566.667,383.333 933.334,383.333l3975,0l0,15520.8l-4041.67,0l0,4.166c-362.5,0 -675,125 -929.167,375c-254.166,254.167 -383.333,558.334 -383.333,912.5c0,366.667 125,683.334 383.333,950c254.167,262.5 562.5,395.834 929.167,395.834l10620.8,0Z" style="fill:#fff;"/></g></svg>