<?xml version="1.0" encoding="UTF-8" standalone="no"?>
<!DOCTYPE svg PUBLIC "-//W3C//DTD SVG 1.1//EN" "http://www.w3.org/Graphics/SVG/1.1/DTD/svg11.dtd">
<svg width="100%" height="100%" viewBox="0 0 229 514" version="1.1" xmlns="http://www.w3.org/2000/svg" xmlns:xlink="http://www.w3.org/1999/xlink" xml:space="preserve" style="fill-rule:evenodd;clip-rule:evenodd;stroke-linecap:round;stroke-linejoin:round;stroke-miterlimit:1.41421;">
    <g transform="matrix(1,0,0,1,-467,-39)">
        <g transform="matrix(1,0,0,1,0,-162)">
            <g id="Female-1-OK-Hand" transform="matrix(1,0,0,1,411.764,-45.8085)">
                <path d="M102.32,282.773C102.17,282.323 102.12,281.873 102.07,281.424C102.82,300.466 97.972,311.861 87.426,315.61C87.076,315.76 86.676,315.86 86.326,315.96C85.477,313.461 84.727,311.861 84.027,311.212C81.578,308.763 78.579,307.513 75.081,307.513L74.031,307.513C73.781,307.563 73.482,307.613 73.232,307.663C73.032,307.663 72.832,307.663 72.682,307.713C70.183,308.163 67.984,309.312 66.085,311.212C63.586,313.711 62.336,316.71 62.336,320.258C62.336,323.507 63.436,326.356 65.635,328.755C65.785,328.905 65.935,329.055 66.085,329.205C68.334,331.454 70.983,332.653 74.031,332.903C74.281,332.903 74.481,332.903 74.731,332.953C74.831,332.903 74.931,332.903 75.081,332.953C76.181,332.903 77.23,332.753 78.28,332.503L78.33,332.503C80.479,337.201 83.378,341.6 87.026,345.748C87.176,345.898 87.276,346.098 87.426,346.248C88.176,346.997 88.925,347.797 89.725,348.547C93.024,351.845 96.722,354.644 100.771,356.993L100.821,356.993C101.271,357.293 101.77,357.593 102.32,357.893C107.768,361.042 113.616,363.191 119.863,364.341L119.863,374.736C119.863,375.486 119.963,376.186 120.113,376.886C120.463,378.635 121.362,380.134 122.762,381.484C124.611,383.433 126.86,384.383 129.509,384.383L129.559,384.383C132.208,384.383 134.507,383.433 136.406,381.484C137.756,380.134 138.606,378.635 139.005,376.886C139.155,376.186 139.205,375.486 139.205,374.736L139.205,370.138C139.205,369.788 139.205,369.439 139.205,369.089C139.155,368.839 139.155,368.589 139.105,368.339L139.105,366.99L139.105,364.641C141.005,364.391 142.904,363.991 144.753,363.541C150.201,362.192 155.349,359.992 160.147,356.994C164.095,354.545 167.844,351.496 171.342,347.897C172.042,347.198 172.692,346.498 173.342,345.748C176.89,341.8 179.839,337.551 182.088,333.053C183.288,330.604 184.337,328.155 185.187,325.606C185.687,324.157 186.137,322.707 186.486,321.258C187.336,317.809 187.886,314.261 188.136,310.612C188.236,309.063 188.286,307.564 188.286,306.014C188.286,305.614 188.286,305.214 188.286,304.815L145.203,304.815C145.053,304.815 144.903,304.815 144.753,304.815C131.708,304.915 121.263,302.216 113.366,296.768C107.218,292.52 103.57,287.821 102.32,282.773ZM75.481,315.66C77.03,315.66 78.28,316.16 79.329,317.209C80.379,318.309 80.928,319.608 80.928,321.158C80.928,322.657 80.379,323.907 79.329,324.956C79.079,325.206 78.779,325.406 78.529,325.606C77.78,326.156 76.98,326.456 76.03,326.556L75.981,326.556C75.831,326.556 75.631,326.556 75.481,326.556C75.231,326.556 74.981,326.556 74.731,326.506C74.481,326.456 74.281,326.406 74.031,326.356C73.632,326.256 73.232,326.106 72.882,325.956C72.732,325.856 72.582,325.756 72.432,325.656C72.132,325.406 71.832,325.206 71.582,324.956C70.533,323.907 70.033,322.657 70.033,321.158C70.033,319.608 70.533,318.309 71.582,317.209C72.132,316.66 72.732,316.31 73.382,316.06C73.482,316.01 73.582,315.96 73.682,315.91C73.782,315.86 73.881,315.86 74.031,315.86C74.281,315.81 74.481,315.76 74.731,315.71C74.981,315.66 75.231,315.66 75.481,315.66ZM116.114,311.062C116.364,310.812 116.714,310.662 117.064,310.712L123.961,310.712C124.311,310.662 124.611,310.812 124.911,311.062C125.161,311.312 125.261,311.661 125.311,312.011C125.261,312.361 125.161,312.661 124.911,312.911C124.611,313.161 124.311,313.311 123.961,313.361L117.064,313.361C116.714,313.311 116.364,313.161 116.114,312.911C115.865,312.661 115.715,312.361 115.765,312.011C115.715,311.662 115.865,311.312 116.114,311.062ZM155.249,313.361C154.899,313.311 154.599,313.161 154.349,312.911C154.049,312.661 153.899,312.361 153.949,312.011C153.899,311.661 154.049,311.312 154.349,311.062C154.599,310.812 154.899,310.662 155.249,310.712L162.146,310.712C162.496,310.662 162.846,310.812 163.096,311.062C163.345,311.312 163.445,311.661 163.445,312.011C163.445,312.361 163.345,312.661 163.096,312.911C162.846,313.161 162.496,313.311 162.146,313.361L155.249,313.361ZM139.055,314.01C139.055,313.061 139.405,312.311 140.055,311.661C140.705,311.012 141.454,310.712 142.354,310.712C143.304,310.712 144.053,311.012 144.703,311.661L144.753,311.711C145.353,312.361 145.653,313.111 145.653,314.01L145.653,319.608C145.653,320.508 145.353,321.258 144.753,321.907L144.703,321.957C144.053,322.607 143.304,322.907 142.354,322.957C141.454,322.907 140.705,322.607 140.055,321.957C139.405,321.308 139.055,320.558 139.055,319.608L139.055,314.01ZM113.915,327.705L161.596,327.705C160.946,332.953 158.697,337.501 154.799,341.45C153,343.199 151.1,344.648 149.051,345.748C147.652,346.498 146.202,347.097 144.753,347.547C142.504,348.197 140.205,348.497 137.756,348.497C133.607,348.497 129.859,347.597 126.46,345.748C124.411,344.648 122.512,343.199 120.763,341.45C116.814,337.501 114.565,332.953 113.915,327.705Z" style="fill:rgb(255,189,145);fill-rule:nonzero;"/>
                <path d="M79.329,317.209C78.28,316.16 77.03,315.66 75.481,315.66C75.231,315.66 74.981,315.66 74.731,315.71C74.481,315.76 74.281,315.81 74.031,315.86C73.881,315.86 73.781,315.86 73.681,315.91C73.581,315.96 73.482,316.01 73.382,316.06C72.732,316.31 72.132,316.659 71.582,317.209C70.533,318.309 70.033,319.608 70.033,321.158C70.033,322.657 70.533,323.907 71.582,324.956C71.832,325.206 72.132,325.406 72.432,325.656C72.582,325.756 72.732,325.856 72.882,325.956C73.232,326.106 73.632,326.256 74.031,326.356C74.281,326.406 74.481,326.456 74.731,326.506C74.981,326.556 75.231,326.556 75.481,326.556L76.031,326.556C76.98,326.456 77.78,326.156 78.53,325.606C78.78,325.406 79.079,325.206 79.329,324.956C80.379,323.907 80.929,322.657 80.929,321.158C80.929,319.609 80.379,318.309 79.329,317.209Z" style="fill:rgb(234,152,133);fill-rule:nonzero;"/>
                <path d="M117.064,310.712C116.714,310.662 116.364,310.812 116.114,311.062C115.864,311.312 115.715,311.661 115.765,312.011C115.715,312.361 115.864,312.661 116.114,312.911C116.364,313.161 116.714,313.311 117.064,313.361L123.961,313.361C124.311,313.311 124.611,313.161 124.911,312.911C125.161,312.661 125.261,312.361 125.311,312.011C125.261,311.662 125.161,311.312 124.911,311.062C124.611,310.812 124.311,310.662 123.961,310.712L117.064,310.712Z" style="fill:rgb(75,28,2);fill-rule:nonzero;"/>
                <path d="M154.349,312.911C154.599,313.161 154.899,313.311 155.249,313.361L162.146,313.361C162.496,313.311 162.846,313.161 163.096,312.911C163.345,312.661 163.445,312.361 163.445,312.011C163.445,311.661 163.345,311.312 163.096,311.062C162.846,310.812 162.496,310.662 162.146,310.712L155.249,310.712C154.899,310.662 154.599,310.812 154.349,311.062C154.049,311.312 153.899,311.661 153.949,312.011C153.899,312.361 154.049,312.661 154.349,312.911Z" style="fill:rgb(75,28,2);fill-rule:nonzero;"/>
                <path d="M140.055,311.661C139.405,312.311 139.055,313.061 139.055,314.01L139.055,319.608C139.055,320.558 139.405,321.308 140.055,321.957C140.705,322.607 141.454,322.907 142.354,322.957C143.304,322.907 144.053,322.607 144.703,321.957L144.753,321.907C145.353,321.258 145.653,320.508 145.653,319.608L145.653,314.01C145.653,313.111 145.353,312.361 144.753,311.711L144.703,311.661C144.053,311.012 143.304,310.712 142.354,310.712C141.454,310.712 140.705,311.012 140.055,311.661Z" style="fill:rgb(234,152,133);fill-rule:nonzero;"/>
                <path d="M161.596,327.705L113.915,327.705C114.565,332.953 116.814,337.501 120.763,341.45C122.512,343.199 124.411,344.648 126.46,345.748C129.859,347.597 133.607,348.497 137.756,348.497C140.205,348.497 142.504,348.197 144.753,347.547C146.202,347.097 147.652,346.498 149.051,345.748C151.1,344.648 153,343.199 154.799,341.45C158.697,337.501 160.946,332.953 161.596,327.705Z" style="fill:white;fill-rule:nonzero;"/>
                <path d="M102.07,281.424C102.12,281.873 102.17,282.323 102.32,282.773C103.569,287.821 107.218,292.519 113.365,296.767C121.262,302.215 131.708,304.914 144.753,304.814L194.283,304.814C193.583,289.37 187.686,276.126 176.64,265.03C164.795,253.185 150.501,247.287 133.757,247.287C126.16,247.287 119.063,248.537 112.516,250.986C107.368,252.835 102.57,255.484 98.122,258.833C95.673,260.682 93.274,262.731 91.024,265.03C89.775,266.23 88.625,267.479 87.576,268.729C87.526,268.779 87.476,268.779 87.426,268.829C81.028,276.276 76.78,284.622 74.731,293.869C73.731,298.217 73.232,302.815 73.232,307.663C73.482,307.613 73.781,307.563 74.031,307.513L75.081,307.513C78.58,307.513 81.578,308.763 84.027,311.212C84.727,311.861 85.477,313.461 86.326,315.96C86.676,315.86 87.076,315.76 87.426,315.61C97.972,311.861 102.82,300.466 102.07,281.424Z" style="fill:rgb(133,36,3);fill-rule:nonzero;"/>
                <path d="M74.731,332.953C74.481,332.903 74.281,332.903 74.031,332.903L74.031,346.348L55.988,346.348C55.988,351.995 58.038,356.843 62.136,360.892C65.135,363.941 68.583,365.84 72.532,366.639C72.582,366.639 72.682,366.639 72.732,366.639C73.182,366.739 73.581,366.789 74.031,366.839C74.281,366.889 74.481,366.889 74.731,366.939C75.031,366.939 75.331,366.939 75.631,366.989L119.863,366.989L119.863,364.34C113.615,363.191 107.768,361.042 102.32,357.893C101.77,357.593 101.27,357.293 100.821,356.993L100.771,356.993C96.722,354.644 93.024,351.846 89.725,348.547C88.925,347.797 88.176,346.998 87.426,346.248C87.276,346.098 87.176,345.898 87.026,345.748C83.378,341.6 80.479,337.201 78.33,332.503L78.28,332.503C77.23,332.753 76.18,332.903 75.081,332.953C74.931,332.903 74.831,332.903 74.731,332.953Z" style="fill:rgb(91,19,2);fill-rule:nonzero;"/>
                <path d="M189.935,331.054C190.185,330.854 190.485,330.654 190.735,330.404C190.984,330.154 191.284,329.904 191.584,329.654C192.134,329.005 192.634,328.405 193.084,327.755C194.333,325.856 194.983,323.707 194.983,321.358C194.983,319.458 194.583,317.709 193.783,316.11C193.234,315.01 192.534,313.961 191.584,313.011C190.535,311.961 189.385,311.162 188.136,310.612C187.886,314.261 187.336,317.809 186.486,321.258C186.136,322.707 185.687,324.157 185.187,325.606C184.337,328.155 183.288,330.604 182.088,333.053C182.438,333.103 182.838,333.103 183.238,333.103C184.387,333.053 185.437,332.903 186.486,332.653C187.736,332.303 188.885,331.804 189.935,331.054Z" style="fill:rgb(234,152,133);fill-rule:nonzero;"/>
                <path d="M186.486,332.653C185.437,332.903 184.387,333.053 183.238,333.103C182.838,333.103 182.438,333.103 182.088,333.053C179.839,337.551 176.89,341.799 173.341,345.748C172.692,346.498 172.042,347.197 171.342,347.897C167.844,351.496 164.095,354.544 160.147,356.993C155.349,359.992 150.201,362.191 144.753,363.541C142.904,363.991 141.004,364.39 139.105,364.64L139.105,366.989L184.887,366.989C185.437,366.939 185.937,366.889 186.486,366.839C186.986,366.79 187.486,366.69 187.986,366.64C191.934,365.84 195.383,363.941 198.431,360.892C202.48,356.844 204.479,351.995 204.529,346.348L186.486,346.348L186.486,332.653Z" style="fill:rgb(91,19,2);fill-rule:nonzero;"/>
                <path d="M250.96,314.41C249.761,315.06 248.911,315.96 248.361,317.159C247.712,318.409 247.662,319.708 248.162,320.958C249.311,323.907 250.011,326.256 250.261,328.055C250.411,329.254 250.411,330.504 250.361,331.803C250.311,331.853 250.311,331.953 250.311,332.003C250.161,331.953 250.011,331.853 249.861,331.804C243.513,330.154 238.665,330.854 235.317,333.953C232.018,337.001 230.569,340.25 230.968,343.649C231.218,345.898 232.868,347.397 235.966,348.247C234.717,347.947 233.417,348.397 232.068,349.646C230.519,350.996 230.069,352.745 230.619,354.844C231.618,358.393 233.617,361.392 236.616,363.841C238.266,365.19 240.165,366.29 242.214,367.139C242.464,367.239 242.764,367.339 243.064,367.439C238.915,380.084 233.367,389.48 226.42,395.728C223.222,398.577 219.723,400.726 215.924,402.225C206.528,405.274 194.083,403.825 178.639,397.777L172.642,412.121C191.884,419.469 207.928,420.668 220.773,415.72C229.219,412.921 236.466,407.723 242.564,400.076C248.861,392.129 253.959,381.634 257.808,368.489C259.007,368.239 260.207,367.839 261.406,367.389C266.254,365.54 269.953,362.691 272.502,358.793C272.552,358.693 272.602,358.593 272.652,358.493C274.401,355.944 276.25,352.545 278.25,348.247C280.149,343.899 281.748,339.751 282.998,335.752C283.547,334.003 283.448,332.553 282.698,331.304C282.048,330.204 280.998,329.455 279.649,329.055C278.3,328.655 277,328.705 275.851,329.205C274.551,329.755 273.701,330.654 273.352,332.004C272.602,334.853 271.402,338.251 269.703,342.2C269.603,342.3 269.553,342.4 269.503,342.55C269.453,342.6 269.453,342.65 269.403,342.749C269.253,342.6 269.153,342.5 269.053,342.4C269.103,342.25 269.203,342.15 269.253,342C271.902,335.652 272.902,329.355 272.302,323.057C272.152,321.208 271.502,319.809 270.403,318.859C269.403,318.01 268.254,317.66 266.904,317.76C265.605,317.81 264.505,318.209 263.555,319.059C262.506,320.009 261.956,321.158 261.906,322.558C261.756,327.256 261.156,331.604 260.057,335.553C260.057,335.603 260.057,335.653 260.007,335.702C259.907,335.603 259.807,335.503 259.707,335.453C261.056,328.705 260.457,322.558 257.858,317.06C257.058,315.411 256.008,314.361 254.659,313.911C253.46,313.561 252.21,313.711 250.961,314.411L250.96,314.41ZM250.711,352.645C249.611,354.044 248.162,354.844 246.312,355.094C243.563,355.444 241.764,354.294 240.814,351.695C240.165,350.046 238.665,348.947 236.216,348.347C238.765,348.897 240.415,347.597 241.214,344.498C241.964,341.749 243.663,340.55 246.312,340.9C248.012,341.15 249.411,341.949 250.461,343.299C251.56,344.648 252.11,346.198 252.16,348.047C252.11,349.796 251.66,351.296 250.711,352.645Z" style="fill:rgb(255,189,145);fill-rule:nonzero;"/>
                <path d="M143.353,373.437C142.754,372.487 142.054,371.637 141.254,370.838C140.605,370.188 139.905,369.588 139.205,369.088L139.205,374.736C139.205,375.486 139.155,376.186 139.005,376.885C138.605,378.635 137.756,380.134 136.406,381.484C134.507,383.433 132.208,384.382 129.559,384.382L129.509,384.382C126.86,384.382 124.611,383.433 122.762,381.484C121.362,380.134 120.463,378.635 120.113,376.886C119.963,376.186 119.863,375.486 119.863,374.736L119.863,369.688C119.413,370.038 118.963,370.388 118.563,370.838C117.714,371.638 117.014,372.487 116.464,373.437C116.214,373.787 115.964,374.187 115.765,374.587C115.315,375.336 114.965,376.086 114.715,376.886C114.465,377.635 114.265,378.435 114.115,379.235C113.915,380.184 113.815,381.134 113.815,382.184L113.815,394.729L130.509,384.633L145.902,393.379L145.902,382.184C145.902,381.084 145.803,380.035 145.603,378.985C145.403,377.935 145.103,376.986 144.753,376.036C144.503,375.536 144.303,375.037 144.053,374.587C144.003,374.537 144.003,374.487 143.953,374.437C143.753,374.087 143.553,373.737 143.353,373.437ZM140.755,378.885C140.755,378.935 140.755,378.984 140.755,379.034L140.755,378.885Z" style="fill:rgb(227,137,2);fill-rule:nonzero;"/>
                <path d="M140.755,379.034C140.755,378.984 140.755,378.935 140.755,378.885L140.755,379.034Z" style="fill:rgb(255,189,145);fill-rule:nonzero;"/>
                <path d="M146.752,378.984L145.603,378.985C145.803,380.034 145.902,381.084 145.902,382.183L145.902,393.379L130.509,384.632L113.815,394.728L113.815,382.183C113.815,381.134 113.915,380.184 114.115,379.235L105.819,379.534L105.868,460.002L105.868,478.045L153.3,478.045L153.3,427.815C156.748,427.715 159.747,426.416 162.246,423.917C162.696,423.417 163.146,422.917 163.495,422.367C165.145,420.118 165.994,417.569 166.044,414.62C166.044,412.521 165.595,410.572 164.745,408.823C164.095,407.573 163.296,406.374 162.246,405.324C159.747,402.875 156.748,401.576 153.3,401.526L153.3,385.482C153.25,385.432 153.25,385.382 153.3,385.332C153.1,381.684 150.9,379.535 146.752,378.985L146.752,378.984ZM136.206,420.968C135.607,422.117 134.807,423.217 133.807,424.216C131.358,426.665 128.459,427.865 125.011,427.865C122.062,427.865 119.463,426.965 117.214,425.166C116.864,424.866 116.514,424.566 116.214,424.216C115.165,423.217 114.365,422.117 113.815,420.968L136.206,420.968Z" style="fill:rgb(250,163,26);fill-rule:nonzero;"/>
                <path d="M133.807,424.216C134.807,423.217 135.607,422.117 136.206,420.968L113.815,420.968C114.365,422.117 115.165,423.217 116.214,424.216C116.514,424.566 116.864,424.866 117.214,425.166C119.463,426.965 122.062,427.865 125.011,427.865C128.459,427.865 131.358,426.665 133.807,424.216Z" style="fill:rgb(227,137,2);fill-rule:nonzero;"/>
                <path d="M153.3,385.332C153.25,385.382 153.25,385.432 153.3,385.482L153.3,401.526C156.748,401.576 159.747,402.875 162.246,405.324C163.296,406.374 164.095,407.573 164.745,408.823C167.444,410.022 170.093,411.122 172.642,412.121L178.639,397.777C171.642,395.028 164.045,391.38 155.799,386.782C154.949,386.282 154.149,385.782 153.3,385.332Z" style="fill:rgb(227,137,2);fill-rule:nonzero;"/>
                <path d="M147.752,587.651L177.09,587.651C180.139,542.919 172.242,506.384 153.3,478.045L105.868,478.045L105.868,534.922C106.318,535.072 106.768,535.222 107.168,535.422C110.717,535.922 113.316,538.471 115.065,543.069L125.361,553.265C126.41,554.314 126.86,555.614 126.81,557.113C126.86,558.563 126.41,559.812 125.361,560.862L125.261,560.962C124.211,562.011 122.912,562.511 121.412,562.561C120.063,562.511 118.913,562.061 117.914,561.212L116.014,559.313L116.014,565.66C116.014,567.159 115.465,568.409 114.415,569.409C113.415,570.458 112.166,571.008 110.667,571.008L110.517,571.008C109.017,571.008 107.718,570.458 106.668,569.409C105.619,568.409 105.119,567.16 105.119,565.66C105.119,565.91 105.069,566.21 105.019,566.46C104.769,567.459 104.269,568.359 103.519,569.109C102.62,570.058 101.52,570.608 100.171,570.658C100.021,570.658 99.921,570.658 99.821,570.658L99.671,570.658C98.172,570.658 96.872,570.158 95.823,569.109C94.923,568.209 94.423,567.11 94.323,565.81C94.073,566.86 93.573,567.709 92.774,568.459C91.774,569.509 90.525,570.058 89.075,570.108L88.975,570.108C88.425,570.058 87.876,570.008 87.426,569.909C86.526,569.659 85.727,569.159 85.077,568.459C84.727,568.159 84.477,567.809 84.277,567.46C83.827,566.66 83.577,565.76 83.577,564.711L83.627,545.768C83.577,545.618 83.577,545.468 83.627,545.318C83.627,545.268 83.627,545.168 83.627,545.118C80.978,558.763 80.229,570.908 81.278,581.554C81.478,583.603 81.728,585.602 81.978,587.651L147.752,587.651Z" style="fill:rgb(77,95,109);fill-rule:nonzero;"/>
                <path d="M172.992,759.982C172.892,758.932 172.692,757.883 172.442,756.933C171.742,754.084 170.393,751.535 168.343,749.286C165.145,745.738 161.296,743.988 156.798,743.988C153.399,743.988 150.401,744.988 147.752,746.937C147.202,747.337 146.602,747.837 146.052,748.387C146.502,748.737 146.952,749.186 147.402,749.686C149.451,751.935 150.801,754.484 151.55,757.383C151.8,758.233 151.95,759.083 152.05,759.982L172.992,759.982Z" style="fill:rgb(64,64,64);fill-rule:nonzero;"/>
                <path d="M147.402,749.686C146.952,749.186 146.502,748.737 146.052,748.387C143.104,745.738 139.705,744.438 135.857,744.438C133.557,744.388 131.458,744.838 129.509,745.788C128.659,746.138 127.81,746.637 127.01,747.187C126.96,747.237 126.91,747.287 126.86,747.337C126.21,747.787 125.561,748.337 125.011,748.937C124.761,749.186 124.561,749.436 124.311,749.686C122.962,751.136 121.912,752.685 121.162,754.434C120.963,754.834 120.813,755.234 120.713,755.634C120.613,755.834 120.513,756.084 120.463,756.334L108.617,756.334L108.667,760.432L152.1,760.432C152.05,760.282 152.05,760.132 152.05,759.982C151.95,759.083 151.8,758.233 151.55,757.383C150.801,754.484 149.451,751.935 147.402,749.686Z" style="fill:rgb(102,102,102);fill-rule:nonzero;"/>
                <path d="M146.052,748.387C146.602,747.837 147.202,747.337 147.752,746.937L147.752,587.651L129.509,587.651L129.509,745.788C131.458,744.838 133.557,744.388 135.856,744.438C139.705,744.438 143.104,745.738 146.052,748.387Z" style="fill:rgb(234,152,133);fill-rule:nonzero;"/>
                <path d="M105.819,379.534C96.272,379.534 91.524,384.282 91.524,393.829L91.524,460.002L105.868,460.002L105.819,379.534Z" style="fill:rgb(227,137,2);fill-rule:nonzero;"/>
                <path d="M105.819,379.534L105.868,379.534L105.819,379.534Z" style="fill:rgb(33,126,140);fill-rule:nonzero;"/>
                <path d="M105.868,460.002L91.524,460.002L91.524,535.522C89.925,535.922 88.575,536.521 87.426,537.271C86.076,538.171 85.127,539.37 84.477,540.87C84.427,541.17 84.327,541.47 84.277,541.819C84.027,542.919 83.827,544.019 83.627,545.118C83.627,545.168 83.627,545.268 83.627,545.318C83.577,545.468 83.577,545.618 83.627,545.768L83.577,564.71C83.577,565.76 83.827,566.66 84.277,567.459C84.477,567.809 84.727,568.159 85.077,568.459C85.727,569.159 86.526,569.658 87.426,569.908C87.876,570.008 88.426,570.058 88.975,570.108L89.075,570.108C90.525,570.058 91.774,569.508 92.774,568.459C93.573,567.709 94.073,566.86 94.323,565.81C94.273,565.66 94.273,565.46 94.323,565.31L94.373,565.36C94.373,565.51 94.373,565.66 94.323,565.81C94.423,567.11 94.923,568.209 95.823,569.109C96.872,570.158 98.172,570.658 99.671,570.658L100.171,570.658C101.52,570.608 102.62,570.058 103.519,569.109C104.269,568.359 104.769,567.459 105.019,566.46C105.069,566.21 105.119,565.91 105.119,565.66C105.119,567.16 105.619,568.409 106.668,569.409C107.718,570.458 109.017,571.008 110.517,571.008L110.667,571.008C112.166,571.008 113.415,570.458 114.415,569.409C115.465,568.409 116.014,567.16 116.014,565.66L116.014,559.313C115.914,559.213 115.815,559.113 115.765,559.063L116.014,559.063L116.014,546.718C115.964,546.268 115.914,545.818 115.864,545.418C115.815,545.218 115.765,545.019 115.715,544.869C115.565,544.469 115.465,544.119 115.315,543.769L115.215,543.669C115.215,543.519 115.215,543.369 115.165,543.269L114.415,542.37L115.065,543.069C113.316,538.471 110.717,535.922 107.168,535.422C106.768,535.223 106.318,535.073 105.868,534.923L105.868,478.045L105.868,460.003L105.868,460.002ZM94.323,546.368C94.323,546.018 94.323,545.718 94.373,545.418L94.373,546.418L94.323,546.368Z" style="fill:rgb(255,189,145);fill-rule:nonzero;"/>
                <path d="M94.373,545.418C94.323,545.718 94.323,546.018 94.323,546.368L94.373,546.418L94.373,545.768C94.373,545.668 94.373,545.568 94.373,545.418Z" style="fill:rgb(77,95,109);fill-rule:nonzero;"/>
                <path d="M88.725,524.376C88.675,524.426 88.675,524.426 88.675,524.476C88.376,525.476 88.076,526.475 87.826,527.475C87.676,527.875 87.576,528.275 87.426,528.725C86.276,532.873 85.327,536.921 84.477,540.87C85.127,539.37 86.076,538.171 87.426,537.271C88.575,536.522 89.925,535.922 91.524,535.522L91.524,515.18C90.525,518.329 89.575,521.378 88.725,524.376Z" style="fill:rgb(77,95,109);fill-rule:nonzero;"/>
                <path d="M115.864,545.418C115.914,545.818 115.964,546.268 116.014,546.717L116.014,559.312L117.914,561.212C118.913,562.061 120.063,562.511 121.412,562.561C122.912,562.511 124.211,562.011 125.261,560.962L125.361,560.862C126.41,559.812 126.86,558.563 126.81,557.113C126.86,555.614 126.41,554.314 125.361,553.265L115.065,543.069L114.415,542.369L115.165,543.269C115.215,543.369 115.215,543.519 115.215,543.669L115.315,543.769C115.465,544.119 115.565,544.469 115.715,544.868C115.765,545.018 115.815,545.218 115.864,545.418Z" style="fill:rgb(234,152,133);fill-rule:nonzero;"/>
                <path d="M115.765,559.062C115.815,559.112 115.914,559.212 116.014,559.312L116.014,559.062L115.765,559.062Z" style="fill:rgb(77,95,109);fill-rule:nonzero;"/>
                <path d="M94.323,565.81C94.373,565.66 94.373,565.51 94.373,565.36L94.323,565.31C94.273,565.46 94.273,565.66 94.323,565.81Z" style="fill:rgb(77,95,109);fill-rule:nonzero;"/>
                <path d="M126.86,596.697L126.86,587.651L108.617,587.651L108.617,587.701L126.86,596.697Z" style="fill:rgb(234,152,133);fill-rule:nonzero;"/>
                <path d="M126.86,596.697L108.617,587.701L108.617,756.334L120.463,756.334C120.513,756.084 120.613,755.834 120.713,755.634C120.813,755.234 120.962,754.834 121.162,754.434C121.912,752.685 122.962,751.136 124.311,749.686C124.561,749.436 124.761,749.186 125.011,748.937C125.561,748.337 126.21,747.787 126.86,747.337L126.86,596.697Z" style="fill:rgb(255,189,145);fill-rule:nonzero;"/>
                <path d="M161.596,327.705C160.946,332.953 158.697,337.501 154.799,341.45C153,343.199 151.1,344.648 149.051,345.748C147.652,346.498 146.202,347.097 144.753,347.547C142.504,348.197 140.205,348.497 137.756,348.497C133.607,348.497 129.859,347.597 126.46,345.748C124.411,344.648 122.512,343.199 120.763,341.45C116.814,337.501 114.565,332.953 113.915,327.705L161.596,327.705Z" style="fill:none;stroke:rgb(234,152,133);stroke-width:3px;"/>
            </g>
        </g>
    </g>
</svg>
