<?xml version="1.0" encoding="UTF-8" standalone="no"?>
<!DOCTYPE svg PUBLIC "-//W3C//DTD SVG 1.1//EN" "http://www.w3.org/Graphics/SVG/1.1/DTD/svg11.dtd">
<svg width="100%" height="100%" viewBox="0 0 229 533" version="1.1" xmlns="http://www.w3.org/2000/svg" xmlns:xlink="http://www.w3.org/1999/xlink" xml:space="preserve" style="fill-rule:evenodd;clip-rule:evenodd;stroke-linejoin:round;stroke-miterlimit:1.41421;">
    <g transform="matrix(1,0,0,1,-909,-39)">
        <g transform="matrix(1,0,0,1,0,-162)">
            <g id="Female-2-Laptop" transform="matrix(1,0,0,1,581.404,-26.5665)">
                <path d="M337.72,284.796C331.217,278.293 327.993,270.456 327.937,261.284C327.993,252.113 331.217,244.275 337.72,237.772C344.224,231.269 352.061,228.045 361.232,228.045C370.404,228.045 378.297,231.269 384.8,237.772C390.303,243.275 393.416,249.723 394.25,257.171C381.41,259.783 370.07,265.953 360.232,275.792C355.285,280.794 351.227,286.186 348.059,291.967C344.335,290.355 340.889,287.965 337.72,284.796Z" style="fill-rule:nonzero;"/>
                <path d="M394.249,257.171C398.863,256.226 403.699,255.781 408.646,255.781C427.544,255.781 443.664,262.452 457.06,275.792C470.455,289.188 477.126,305.307 477.07,324.206C477.126,327.596 476.903,330.876 476.459,334.1L460.395,334.1L418.818,334.1C418.651,334.1 418.54,334.1 418.373,334.1C405.811,334.211 395.695,331.598 388.08,326.318C382.243,322.26 378.686,317.758 377.463,312.811C377.352,312.422 377.241,311.977 377.185,311.588C377.241,311.977 377.241,312.422 377.241,312.866C377.741,330.487 373.072,341.048 363.122,344.55C362.789,344.661 362.455,344.772 362.066,344.883C361.233,342.493 360.51,340.937 359.843,340.325C357.453,337.935 354.562,336.712 351.172,336.712C351.061,336.712 350.95,336.712 350.838,336.712C350.616,336.712 350.394,336.712 350.171,336.768C349.893,336.768 349.671,336.768 349.393,336.823C349.226,336.879 349.06,336.879 348.893,336.935C346.503,337.324 344.335,338.491 342.501,340.325L341.945,340.381C341.278,337.435 340.778,334.433 340.5,331.376C340.277,329.042 340.166,326.652 340.166,324.206C340.166,321.816 340.277,319.426 340.5,317.147C341.334,308.086 343.89,299.693 348.059,291.967C351.228,286.186 355.285,280.795 360.232,275.792C370.071,265.954 381.41,259.784 394.25,257.171L394.249,257.171Z" style="fill:rgb(29,31,28);fill-rule:nonzero;"/>
                <path d="M377.241,312.866L377.463,312.811C378.686,317.758 382.243,322.26 388.08,326.318C395.695,331.598 405.811,334.211 418.373,334.1L460.395,334.1C460.395,334.489 460.395,334.878 460.395,335.267C460.45,336.768 460.395,338.269 460.284,339.714C460.061,343.271 459.505,346.717 458.672,349.997C458.338,351.386 457.949,352.776 457.449,354.166L457.449,354.221C456.949,355.611 456.448,356.945 455.837,358.334C455.448,359.335 454.948,360.336 454.447,361.336C451.835,366.505 448.389,371.286 444.109,375.677C440.718,379.123 437.105,382.069 433.27,384.459C428.656,387.35 423.654,389.462 418.373,390.796C416.594,391.185 414.76,391.574 412.926,391.852L412.87,391.852L412.87,412.251C412.87,414.808 411.981,416.976 410.147,418.81C408.313,420.645 406.145,421.59 403.532,421.59L403.477,421.59C400.975,421.59 398.808,420.645 396.973,418.81C395.139,416.976 394.194,414.808 394.194,412.251L394.194,406.248L394.194,391.518C388.691,390.462 383.466,388.628 378.575,385.96C378.186,385.738 377.853,385.515 377.463,385.349C376.963,385.071 376.519,384.737 376.018,384.459L375.963,384.459L375.907,384.57C370.293,381.458 365.068,377.456 360.232,372.62C356.675,369.062 353.618,365.338 351.005,361.392L351.172,361.225C351.117,361.225 351.006,361.225 350.894,361.225L350.839,361.225C350.616,361.225 350.394,361.225 350.172,361.225C347.226,360.947 344.669,359.78 342.501,357.612C342.334,357.445 342.223,357.334 342.112,357.223C341.501,356.5 340.945,355.833 340.5,355.111C339.444,353.277 338.944,351.22 338.888,348.997C338.944,346.718 339.444,344.661 340.5,342.882C340.945,342.16 341.445,341.437 342.057,340.77C342.223,340.603 342.335,340.492 342.501,340.326C344.336,338.491 346.503,337.324 348.893,336.935C349.06,336.879 349.227,336.879 349.394,336.824C349.672,336.768 349.894,336.768 350.172,336.768C350.394,336.713 350.617,336.713 350.839,336.713C350.95,336.713 351.061,336.713 351.172,336.713C354.563,336.713 357.454,337.935 359.844,340.326C360.511,340.937 361.233,342.493 362.067,344.884C362.456,344.772 362.79,344.661 363.123,344.55C373.073,341.048 377.742,330.487 377.242,312.867L377.241,312.866ZM418.373,340.77L418.373,340.714C417.762,340.103 416.983,339.769 416.094,339.769C415.205,339.769 414.427,340.103 413.815,340.714C413.204,341.326 412.926,342.104 412.87,342.993L412.87,348.44C412.926,349.274 413.204,350.052 413.815,350.664C414.427,351.275 415.205,351.609 416.094,351.609C416.983,351.609 417.762,351.275 418.373,350.664C418.985,350.052 419.318,349.274 419.318,348.44L419.318,342.993C419.318,342.104 418.985,341.381 418.373,340.77ZM411.647,376.288C414.037,376.233 416.261,375.955 418.373,375.343C421.986,374.287 425.21,372.286 428.045,369.451C431.824,365.672 434.048,361.28 434.659,356.222L388.635,356.222C389.247,361.28 391.47,365.672 395.25,369.451C399.808,373.954 405.255,376.233 411.647,376.288ZM349.56,344.939C348.948,345.161 348.337,345.55 347.781,346.05C346.836,347.106 346.336,348.329 346.336,349.83C346.336,351.275 346.836,352.498 347.781,353.554C348.059,353.832 348.337,354.054 348.615,354.221C348.782,354.277 348.893,354.388 349.059,354.499C349.449,354.666 349.782,354.833 350.171,354.888C350.394,354.944 350.616,354.999 350.838,355.055C351.116,355.055 351.338,355.055 351.561,355.111C351.728,355.055 351.894,355.055 352.061,355.055L352.117,355.055C353.062,354.999 353.84,354.666 354.507,354.166C354.785,353.999 355.063,353.777 355.285,353.554C356.341,352.498 356.841,351.275 356.841,349.83C356.841,348.329 356.341,347.107 355.285,346.05C354.285,345.05 353.062,344.55 351.561,344.605C351.339,344.55 351.116,344.55 350.838,344.605C350.616,344.661 350.394,344.716 350.171,344.772C350.116,344.772 350.005,344.772 349.838,344.828C349.782,344.883 349.671,344.883 349.56,344.939Z" style="fill:rgb(120,63,46);fill-rule:nonzero;"/>
                <path d="M418.373,340.714L418.373,340.77C418.984,341.381 419.318,342.104 419.318,342.993L419.318,348.44C419.318,349.274 418.984,350.052 418.373,350.664C417.762,351.275 416.983,351.609 416.094,351.609C415.205,351.609 414.427,351.275 413.815,350.664C413.204,350.052 412.926,349.274 412.87,348.44L412.87,342.993C412.926,342.104 413.204,341.326 413.815,340.714C414.427,340.103 415.205,339.769 416.094,339.769C416.983,339.769 417.762,340.103 418.373,340.714Z" style="fill:rgb(84,32,27);fill-rule:nonzero;"/>
                <path d="M418.373,375.343C416.261,375.955 414.037,376.232 411.647,376.288C405.255,376.233 399.808,373.954 395.25,369.451C391.47,365.672 389.247,361.28 388.635,356.222L434.659,356.222C434.048,361.28 431.824,365.672 428.045,369.451C425.21,372.286 421.986,374.287 418.373,375.343Z" style="fill:white;fill-rule:nonzero;"/>
                <path d="M347.781,346.05C348.337,345.55 348.948,345.161 349.56,344.939C349.671,344.883 349.782,344.883 349.838,344.827C350.004,344.772 350.116,344.772 350.171,344.772C350.394,344.716 350.616,344.661 350.838,344.605C351.116,344.55 351.338,344.55 351.561,344.605C353.062,344.55 354.284,345.05 355.285,346.05C356.341,347.106 356.841,348.329 356.841,349.83C356.841,351.275 356.341,352.498 355.285,353.554C355.063,353.777 354.785,353.999 354.507,354.166C353.84,354.666 353.062,355 352.117,355.055L352.061,355.055C351.894,355.055 351.728,355.055 351.561,355.111C351.339,355.055 351.116,355.055 350.838,355.055C350.616,355 350.394,354.944 350.171,354.888C349.782,354.833 349.449,354.666 349.06,354.499C348.893,354.388 348.782,354.277 348.615,354.221C348.337,354.055 348.059,353.832 347.781,353.554C346.836,352.498 346.336,351.276 346.336,349.83C346.336,348.33 346.836,347.107 347.781,346.051L347.781,346.05Z" style="fill:rgb(103,43,33);fill-rule:nonzero;"/>
                <path d="M377.463,312.811L377.241,312.866C377.241,312.422 377.241,311.977 377.185,311.588C377.241,311.977 377.352,312.422 377.463,312.811Z" style="fill:rgb(255,189,145);fill-rule:nonzero;"/>
                <path d="M375.962,384.459L375.907,384.626L375.907,384.57L375.962,384.459Z" style="fill:rgb(255,189,145);fill-rule:nonzero;"/>
                <path d="M375.907,384.626L375.962,384.459L376.018,384.459C376.518,384.737 376.963,385.07 377.463,385.348C377.852,385.515 378.186,385.737 378.575,385.96C378.186,385.793 377.797,385.571 377.407,385.404C376.907,385.126 376.407,384.904 375.907,384.626Z" style="fill:rgb(91,19,2);fill-rule:nonzero;"/>
                <path d="M342.5,340.325C342.334,340.492 342.223,340.603 342.056,340.77C342,340.659 342,340.547 341.945,340.381L342.501,340.325L342.5,340.325Z" style="fill-rule:nonzero;"/>
                <path d="M350.894,361.225C351.005,361.225 351.116,361.225 351.172,361.225L351.005,361.391C350.949,361.336 350.949,361.28 350.894,361.225Z" style="fill:rgb(91,19,2);fill-rule:nonzero;"/>
                <path d="M380.909,406.192L380.854,406.248L380.854,406.192L380.909,406.192Z" style="fill:rgb(33,126,140);fill-rule:nonzero;"/>
                <path d="M379.686,406.248C380.075,406.192 380.465,406.192 380.854,406.192L380.854,406.248L380.909,501.242L380.909,548.988C381.354,549.1 381.799,549.266 382.188,549.433C385.578,549.933 388.135,552.379 389.747,556.826L389.08,556.103L389.747,556.826L389.858,556.993C389.914,557.104 389.97,557.215 389.97,557.382L389.97,557.493C390.136,557.826 390.248,558.16 390.359,558.549C390.414,558.716 390.47,558.938 390.526,559.105C390.637,559.494 390.692,559.883 390.637,560.328L390.637,572.223L390.414,572.223C390.47,572.278 390.581,572.39 390.637,572.501L390.692,578.615C390.692,580.06 390.137,581.283 389.08,582.228C388.136,583.284 386.968,583.784 385.523,583.784L385.412,583.784C383.967,583.784 382.688,583.284 381.632,582.228C380.687,581.283 380.187,580.06 380.187,578.615C380.131,579.338 379.965,579.949 379.687,580.561C379.409,581.061 379.075,581.505 378.631,581.895C377.797,582.84 376.685,583.395 375.407,583.451C375.296,583.451 375.185,583.451 375.073,583.451L374.907,583.451C374.573,583.451 374.24,583.451 373.962,583.395C372.906,583.229 372.016,582.728 371.183,581.895C370.349,581.061 369.849,580.005 369.737,578.726C369.793,578.56 369.793,578.448 369.849,578.337C369.793,578.282 369.793,578.282 369.737,578.282C369.737,578.448 369.737,578.56 369.737,578.726C369.571,579.727 369.07,580.616 368.292,581.339C367.347,582.339 366.124,582.84 364.679,582.895L364.568,582.895C364.068,582.895 363.623,582.84 363.123,582.728C362.289,582.451 361.511,582.006 360.844,581.339C359.899,580.338 359.399,579.116 359.399,577.67L359.399,559.439C359.399,559.272 359.399,559.105 359.399,558.938C359.454,558.883 359.454,558.827 359.399,558.772C359.677,557.438 359.955,556.104 360.233,554.714C360.844,553.269 361.845,552.102 363.123,551.212C364.179,550.49 365.513,549.934 367.069,549.545L367.069,420.033C367.069,411.196 371.294,406.638 379.687,406.249L379.686,406.248ZM369.737,559.994L369.848,560.05L369.848,559.438C369.848,559.327 369.848,559.216 369.848,559.105C369.792,559.383 369.792,559.661 369.737,559.994Z" style="fill:rgb(120,63,46);fill-rule:nonzero;"/>
                <path d="M369.848,560.05L369.737,559.994C369.792,559.661 369.792,559.383 369.848,559.105L369.848,560.05Z" style="fill:rgb(77,95,109);fill-rule:nonzero;"/>
                <path d="M394.194,406.248L394.194,412.251C394.194,414.808 395.139,416.976 396.973,418.81C398.807,420.644 400.975,421.589 403.476,421.589L403.532,421.589C406.145,421.589 408.312,420.644 410.147,418.81C411.981,416.976 412.87,414.808 412.87,412.251L412.87,406.248L422.598,406.248C425.21,407.193 426.544,409.083 426.655,411.918L426.655,427.426C429.99,427.481 432.881,428.704 435.271,431.094C437.439,433.262 438.661,435.875 438.884,438.876C438.939,439.265 438.939,439.654 438.939,440.099C438.939,442.934 438.106,445.38 436.494,447.547C436.16,448.048 435.771,448.548 435.271,449.048C432.881,451.438 429.99,452.661 426.655,452.772L426.655,501.242L380.91,501.242L380.854,406.248L394.194,406.248ZM388.58,446.213C389.191,447.325 389.914,448.381 390.859,449.326C393.249,451.66 396.084,452.828 399.363,452.828C402.643,452.828 405.477,451.66 407.868,449.326C408.813,448.381 409.591,447.325 410.147,446.213L388.58,446.213Z" style="fill:rgb(254,207,7);fill-rule:nonzero;"/>
                <path d="M390.859,449.326C389.914,448.381 389.191,447.325 388.58,446.213L410.147,446.213C409.591,447.325 408.813,448.381 407.868,449.326C405.477,451.66 402.643,452.828 399.363,452.828C396.084,452.828 393.249,451.66 390.859,449.326Z" style="fill:rgb(253,175,23);fill-rule:nonzero;"/>
                <path d="M380.909,501.241L426.655,501.241L426.655,673.219L422.542,673.219L422.542,673.275L417.206,673.275L399.586,673.275L397.029,673.275L379.464,673.275L369.904,673.275L369.904,673.219L373.961,673.219L373.961,583.395C374.239,583.451 374.573,583.451 374.906,583.451L375.407,583.451C376.685,583.395 377.797,582.839 378.631,581.894C379.075,581.505 379.409,581.061 379.687,580.56C379.965,579.949 380.131,579.338 380.187,578.615C380.187,580.06 380.687,581.283 381.632,582.228C382.688,583.284 383.967,583.784 385.412,583.784L385.523,583.784C386.968,583.784 388.136,583.284 389.08,582.228C390.137,581.283 390.692,580.06 390.692,578.615L390.637,572.501L392.527,574.335C393.472,575.169 394.583,575.614 395.862,575.614C397.363,575.614 398.585,575.113 399.586,574.057L399.642,574.002C400.698,572.946 401.198,571.723 401.142,570.333C401.198,568.943 400.698,567.721 399.642,566.664L389.748,556.826C388.136,552.379 385.579,549.934 382.188,549.433C381.799,549.267 381.354,549.1 380.91,548.989L380.91,501.242L380.909,501.241Z" style="fill:rgb(58,150,173);fill-rule:nonzero;"/>
                <path d="M390.636,560.328C390.692,559.883 390.636,559.494 390.525,559.105C390.47,558.938 390.414,558.716 390.359,558.549C390.247,558.16 390.136,557.826 389.969,557.493L389.97,557.382C389.97,557.215 389.914,557.104 389.858,556.993L389.747,556.826L399.641,566.664C400.697,567.72 401.198,568.943 401.142,570.333C401.198,571.722 400.697,572.945 399.641,574.001L399.586,574.057C398.585,575.113 397.362,575.613 395.862,575.613C394.583,575.613 393.471,575.169 392.526,574.335L390.637,572.501L390.637,572.223L390.637,560.328L390.636,560.328Z" style="fill:rgb(103,43,33);fill-rule:nonzero;"/>
                <path d="M389.747,556.826L389.08,556.103L389.747,556.826Z" style="fill:rgb(234,152,133);fill-rule:nonzero;"/>
                <path d="M369.737,578.281C369.792,578.281 369.792,578.281 369.848,578.337C369.792,578.448 369.792,578.559 369.737,578.726C369.737,578.559 369.737,578.448 369.737,578.281Z" style="fill:rgb(77,95,109);fill-rule:nonzero;"/>
                <path d="M390.414,572.223L390.636,572.223L390.636,572.501C390.581,572.389 390.47,572.278 390.414,572.223Z" style="fill:rgb(77,95,109);fill-rule:nonzero;"/>
                <path d="M457.449,354.166C457.949,352.776 458.338,351.386 458.672,349.997C459.505,346.717 460.061,343.271 460.284,339.714C461.451,340.27 462.563,341.048 463.563,342.048C464.508,342.938 465.231,343.938 465.731,344.994C466.509,346.495 466.898,348.218 466.898,350.052C466.898,352.331 466.287,354.388 465.064,356.222C464.675,356.889 464.175,357.501 463.563,358.112C463.285,358.335 463.063,358.557 462.785,358.779C462.507,359.002 462.229,359.224 461.951,359.446C460.951,360.169 459.839,360.669 458.672,361.003C457.782,361.225 456.837,361.336 455.837,361.392C455.781,361.392 455.67,361.392 455.559,361.392C455.17,361.392 454.836,361.392 454.447,361.336C454.948,360.336 455.448,359.335 455.837,358.335C456.448,356.945 456.949,355.611 457.449,354.221L457.449,354.166Z" style="fill:rgb(103,43,33);fill-rule:nonzero;"/>
                <path d="M379.464,673.275L397.029,673.275L397.029,747.758C396.417,748.202 395.861,748.703 395.25,749.258C395.028,749.536 394.805,749.759 394.583,750.037C393.305,751.426 392.304,752.983 391.581,754.65C391.415,755.039 391.248,755.373 391.081,755.762C391.026,755.984 390.914,756.206 390.859,756.429L379.464,756.429L379.464,673.275Z" style="fill:rgb(120,63,46);fill-rule:nonzero;"/>
                <path d="M399.585,673.275L417.206,673.275L417.206,747.369C416.65,747.758 416.094,748.258 415.538,748.758C412.759,746.201 409.48,744.923 405.7,744.923C403.532,744.923 401.475,745.368 399.586,746.257L399.586,673.275L399.585,673.275Z" style="fill:rgb(103,43,33);fill-rule:nonzero;"/>
                <path d="M397.195,747.647C397.974,747.091 398.752,746.646 399.586,746.257C401.475,745.368 403.532,744.923 405.7,744.923C409.48,744.923 412.759,746.201 415.538,748.758C416.039,749.147 416.483,749.536 416.872,750.037C418.818,752.204 420.152,754.65 420.874,757.429C421.097,758.263 421.263,759.097 421.375,759.986L421.375,760.431L379.464,760.431L379.464,756.429L390.859,756.429C390.915,756.207 391.026,755.984 391.081,755.762C391.248,755.373 391.415,755.039 391.582,754.65C392.304,752.983 393.305,751.426 394.583,750.037C394.805,749.759 395.028,749.536 395.25,749.259C395.862,748.703 396.417,748.202 397.029,747.758C397.084,747.702 397.14,747.647 397.196,747.647L397.195,747.647Z" style="fill:rgb(115,115,117);fill-rule:nonzero;"/>
                <path d="M415.538,748.758C416.094,748.258 416.65,747.758 417.206,747.369C419.763,745.479 422.653,744.534 425.877,744.534C430.268,744.534 433.992,746.201 437.049,749.592C438.995,751.76 440.329,754.261 441.051,757.04C441.329,757.985 441.496,758.93 441.607,759.986L421.375,759.986C421.263,759.097 421.097,758.263 420.874,757.429C420.152,754.65 418.818,752.205 416.872,750.037C416.483,749.536 416.039,749.147 415.538,748.758Z" style="fill:rgb(81,81,81);fill-rule:nonzero;"/>
                <path d="M421.375,760.431L421.375,759.986C421.375,760.153 421.375,760.264 421.375,760.431Z" style="fill:rgb(153,102,153);fill-rule:nonzero;"/>
                <path d="M397.751,339.436C398.251,338.935 398.807,338.658 399.53,338.602C400.253,338.602 400.808,338.824 401.309,339.325C401.809,339.769 402.087,340.325 402.142,341.048C402.198,341.77 401.976,342.437 401.475,342.938C401.086,343.438 400.531,343.716 399.808,343.716C399.085,343.771 398.418,343.549 397.918,343.049C397.362,342.604 397.084,342.048 397.029,341.326C397.029,340.603 397.251,339.936 397.751,339.436Z" style="fill-rule:nonzero;"/>
                <path d="M429.49,339.325C429.99,339.769 430.268,340.325 430.268,340.992C430.324,341.715 430.101,342.382 429.601,342.882C429.156,343.382 428.601,343.66 427.878,343.716C427.155,343.771 426.544,343.549 426.044,343.049C425.488,342.549 425.21,341.993 425.154,341.326C425.154,340.603 425.377,339.992 425.877,339.491C426.377,338.991 426.933,338.658 427.656,338.602C428.378,338.602 428.99,338.824 429.49,339.325Z" style="fill-rule:nonzero;"/>
                <path d="M496.215,398.377L490.178,398.377C489.157,398.578 488.222,398.899 487.372,399.422C485.289,400.628 483.673,402.8 482.525,405.936L469.261,458.931C469.133,459.374 469.218,459.816 469.431,460.218C469.643,460.66 469.983,460.942 470.366,461.062C470.409,461.103 470.451,461.103 470.494,461.103L470.876,461.103C471.004,461.062 471.174,461.022 471.344,460.942C471.429,460.982 471.514,461.022 471.641,461.062C471.684,461.103 471.726,461.103 471.769,461.103L472.152,461.103C472.364,461.063 472.534,460.982 472.747,460.861C473.129,460.66 473.427,460.339 473.555,459.896L486.862,406.62C488.69,401.232 491.836,398.497 496.215,398.377Z" style="fill:rgb(115,115,117);fill-rule:nonzero;"/>
                <path d="M550.421,398.377L496.215,398.377C491.836,398.497 488.69,401.232 486.862,406.62L473.555,459.896C473.427,460.339 473.129,460.66 472.747,460.861C472.534,460.982 472.364,461.062 472.152,461.103L539.452,461.103C540.09,461.103 540.685,461.223 541.238,461.505C541.238,461.344 541.238,461.183 541.28,461.022L555.735,403.363C556.075,400.186 554.29,398.538 550.421,398.377ZM521.681,425.116C520.618,425.96 519.343,426.402 517.855,426.402C516.367,426.402 515.091,425.96 514.028,425.116C512.966,424.231 512.413,423.145 512.413,421.899C512.413,420.652 512.966,419.647 514.028,418.803C515.091,417.918 516.367,417.476 517.855,417.476C519.343,417.476 520.618,417.918 521.681,418.803C522.744,419.647 523.254,420.652 523.254,421.899C523.254,423.145 522.744,424.231 521.681,425.116Z" style="fill:rgb(36,35,77);fill-rule:nonzero;"/>
                <path d="M517.855,426.402C519.343,426.402 520.618,425.96 521.681,425.116C522.744,424.231 523.254,423.145 523.254,421.899C523.254,420.652 522.744,419.647 521.681,418.803C520.618,417.918 519.343,417.476 517.855,417.476C516.367,417.476 515.091,417.918 514.028,418.803C512.966,419.647 512.413,420.652 512.413,421.899C512.413,423.145 512.966,424.231 514.028,425.116C515.091,425.96 516.367,426.402 517.855,426.402Z" style="fill:rgb(204,204,204);fill-rule:nonzero;"/>
                <path d="M543.023,470.833C544.001,469.748 544.469,468.421 544.469,466.853L544.469,466.772C544.511,465.365 544.086,464.118 543.278,463.113C543.193,462.993 543.108,462.872 543.023,462.751C542.471,462.148 541.875,461.746 541.238,461.505C540.685,461.223 540.09,461.103 539.452,461.103L472.152,461.103L471.769,461.103L470.876,461.103L470.494,461.103L467.347,461.103C466.922,461.103 466.497,461.103 466.115,461.143C467.22,461.304 468.198,461.826 469.048,462.751C470.026,463.837 470.494,465.204 470.494,466.772L470.494,466.853C470.494,468.421 470.026,469.748 469.048,470.833C468.325,471.597 467.518,472.08 466.625,472.321L540.6,472.321C541.493,472.12 542.3,471.597 543.023,470.833Z" style="fill:rgb(22,15,66);fill-rule:nonzero;"/>
                <path d="M410.165,461.103C408.762,461.103 407.572,461.666 406.594,462.751C405.616,463.837 405.149,465.204 405.149,466.772L405.149,466.853C405.149,468.421 405.616,469.748 406.594,470.833C407.317,471.597 408.125,472.12 409.018,472.321L466.625,472.321C467.517,472.08 468.325,471.597 469.048,470.833C470.026,469.748 470.493,468.421 470.493,466.853L470.493,466.772C470.493,465.204 470.026,463.837 469.048,462.751C468.198,461.826 467.22,461.304 466.115,461.143C465.902,461.103 465.732,461.103 465.519,461.103C465.477,461.103 465.477,461.103 465.434,461.103L410.165,461.103Z" style="fill:rgb(115,115,117);fill-rule:nonzero;"/>
                <path d="M470.876,461.103L471.769,461.103C471.726,461.103 471.684,461.103 471.641,461.062C471.514,461.022 471.429,460.982 471.344,460.942C471.174,461.022 471.004,461.062 470.876,461.103Z" style="fill:rgb(36,35,77);fill-rule:nonzero;"/>
                <path d="M503.748,459.401C500.357,456.455 496.355,454.954 491.63,454.954C486.906,454.954 482.848,456.455 479.457,459.401C476.122,462.347 474.455,465.96 474.455,470.129L474.455,470.24C474.455,470.573 474.455,470.907 474.51,471.185L467.729,471.185L458.28,485.692L496.077,485.692C503.803,485.692 507.694,482.302 507.694,475.465L507.75,475.465C508.417,473.797 508.75,472.019 508.75,470.129C508.75,465.96 507.083,462.347 503.748,459.401Z" style="fill:rgb(120,63,46);fill-rule:nonzero;"/>
                <path d="M425.541,485.692L458.28,485.692L467.729,471.185L425.541,471.185L425.541,485.692Z" style="fill:rgb(103,43,33);fill-rule:nonzero;"/>
            </g>
        </g>
    </g>
</svg>
