<?xml version="1.0" encoding="UTF-8" standalone="no"?>
<!DOCTYPE svg PUBLIC "-//W3C//DTD SVG 1.1//EN" "http://www.w3.org/Graphics/SVG/1.1/DTD/svg11.dtd">
<svg width="100%" height="100%" viewBox="0 0 151 533" version="1.1" xmlns="http://www.w3.org/2000/svg" xmlns:xlink="http://www.w3.org/1999/xlink" xml:space="preserve" style="fill-rule:evenodd;clip-rule:evenodd;stroke-linejoin:round;stroke-miterlimit:1.41421;">
    <g transform="matrix(1,0,0,1,-734,-39)">
        <g transform="matrix(1,0,0,1,0,-162)">
            <g id="Female-2" transform="matrix(1,0,0,1,173.495,-26.5665)">
                <path d="M571.277,284.796C564.773,278.293 561.549,270.456 561.494,261.284C561.549,252.113 564.773,244.275 571.277,237.772C577.78,231.269 585.617,228.045 594.789,228.045C603.96,228.045 611.853,231.269 618.356,237.772C623.859,243.275 626.972,249.723 627.806,257.171C614.966,259.783 603.627,265.953 593.788,275.792C588.841,280.794 584.784,286.186 581.615,291.967C577.891,290.355 574.445,287.965 571.277,284.796Z" style="fill-rule:nonzero;"/>
                <path d="M627.806,257.171C632.419,256.226 637.255,255.781 642.202,255.781C661.101,255.781 677.22,262.452 690.616,275.792C704.012,289.188 710.682,305.307 710.626,324.206C710.682,327.596 710.46,330.876 710.015,334.1L693.951,334.1L652.374,334.1C652.207,334.1 652.096,334.1 651.929,334.1C639.367,334.211 629.251,331.598 621.636,326.318C615.8,322.26 612.242,317.758 611.019,312.811C610.908,312.422 610.797,311.977 610.741,311.588C610.797,311.977 610.797,312.422 610.797,312.866C611.297,330.487 606.628,341.048 596.678,344.55C596.345,344.661 596.011,344.772 595.622,344.883C594.789,342.493 594.066,340.937 593.399,340.325C591.009,337.935 588.118,336.712 584.728,336.712C584.617,336.712 584.505,336.712 584.394,336.712C584.172,336.712 583.949,336.712 583.727,336.768C583.449,336.768 583.227,336.768 582.949,336.823C582.782,336.879 582.615,336.879 582.449,336.935C580.059,337.324 577.891,338.491 576.056,340.325L575.501,340.381C574.834,337.435 574.333,334.433 574.055,331.376C573.833,329.042 573.722,326.652 573.722,324.206C573.722,321.816 573.833,319.426 574.055,317.147C574.889,308.086 577.446,299.693 581.615,291.967C584.783,286.186 588.841,280.795 593.788,275.792C603.626,265.954 614.965,259.784 627.805,257.171L627.806,257.171Z" style="fill:rgb(29,31,28);fill-rule:nonzero;"/>
                <path d="M610.797,312.866L611.019,312.811C612.242,317.758 615.8,322.26 621.636,326.318C629.251,331.598 639.367,334.211 651.929,334.1L693.951,334.1C693.951,334.489 693.951,334.878 693.951,335.267C694.007,336.768 693.951,338.269 693.84,339.714C693.618,343.271 693.062,346.717 692.228,349.997C691.894,351.386 691.505,352.776 691.005,354.166L691.005,354.221C690.505,355.611 690.004,356.945 689.393,358.334C689.004,359.335 688.504,360.336 688.003,361.336C685.391,366.505 681.945,371.286 677.665,375.677C674.274,379.123 670.661,382.069 666.826,384.459C662.212,387.35 657.21,389.462 651.929,390.796C650.151,391.185 648.316,391.574 646.482,391.852L646.426,391.852L646.426,412.251C646.426,414.808 645.537,416.976 643.703,418.81C641.868,420.645 639.701,421.59 637.088,421.59L637.033,421.59C634.531,421.59 632.364,420.645 630.529,418.81C628.695,416.976 627.75,414.808 627.75,412.251L627.75,406.248L627.75,391.518C622.247,390.462 617.022,388.628 612.131,385.96C611.742,385.738 611.408,385.515 611.019,385.349C610.519,385.071 610.074,384.737 609.574,384.459L609.518,384.459L609.463,384.57C603.849,381.458 598.624,377.456 593.788,372.62C590.231,369.062 587.173,365.338 584.561,361.392L584.728,361.225C584.672,361.225 584.561,361.225 584.45,361.225L584.394,361.225C584.172,361.225 583.949,361.225 583.727,361.225C580.781,360.947 578.224,359.78 576.056,357.612C575.89,357.445 575.778,357.334 575.667,357.223C575.056,356.5 574.5,355.833 574.055,355.111C572.999,353.277 572.499,351.22 572.443,348.997C572.499,346.718 572.999,344.661 574.055,342.882C574.5,342.16 575,341.437 575.611,340.77C575.778,340.603 575.889,340.492 576.056,340.326C577.89,338.491 580.058,337.324 582.448,336.935C582.615,336.879 582.782,336.879 582.948,336.824C583.226,336.768 583.449,336.768 583.727,336.768C583.949,336.713 584.171,336.713 584.394,336.713C584.505,336.713 584.616,336.713 584.727,336.713C588.118,336.713 591.008,337.935 593.398,340.326C594.065,340.937 594.788,342.493 595.622,344.884C596.011,344.772 596.344,344.661 596.678,344.55C606.627,341.048 611.296,330.487 610.796,312.867L610.797,312.866ZM651.929,340.77L651.929,340.714C651.318,340.103 650.54,339.769 649.65,339.769C648.761,339.769 647.983,340.103 647.371,340.714C646.76,341.326 646.482,342.104 646.426,342.993L646.426,348.44C646.482,349.274 646.76,350.052 647.371,350.664C647.983,351.275 648.761,351.609 649.65,351.609C650.54,351.609 651.318,351.275 651.929,350.664C652.541,350.052 652.874,349.274 652.874,348.44L652.874,342.993C652.874,342.104 652.54,341.381 651.929,340.77ZM645.204,376.288C647.594,376.233 649.817,375.955 651.929,375.343C655.542,374.287 658.766,372.286 661.601,369.451C665.381,365.672 667.604,361.28 668.216,356.222L622.192,356.222C622.803,361.28 625.027,365.672 628.806,369.451C633.364,373.954 638.811,376.233 645.204,376.288ZM583.116,344.939C582.505,345.161 581.893,345.55 581.337,346.05C580.392,347.106 579.892,348.329 579.892,349.83C579.892,351.275 580.392,352.498 581.337,353.554C581.615,353.832 581.893,354.054 582.171,354.221C582.338,354.277 582.449,354.388 582.616,354.499C583.005,354.666 583.338,354.833 583.727,354.888C583.95,354.944 584.172,354.999 584.394,355.055C584.672,355.055 584.895,355.055 585.117,355.111C585.284,355.055 585.451,355.055 585.617,355.055L585.673,355.055C586.618,354.999 587.396,354.666 588.063,354.166C588.341,353.999 588.619,353.777 588.841,353.554C589.897,352.498 590.398,351.275 590.398,349.83C590.398,348.329 589.897,347.107 588.841,346.05C587.841,345.05 586.618,344.55 585.117,344.605C584.895,344.55 584.672,344.55 584.394,344.605C584.172,344.661 583.95,344.716 583.727,344.772C583.672,344.772 583.561,344.772 583.394,344.828C583.338,344.883 583.227,344.883 583.116,344.939Z" style="fill:rgb(120,63,46);fill-rule:nonzero;"/>
                <path d="M651.929,340.714L651.929,340.77C652.541,341.381 652.874,342.104 652.874,342.993L652.874,348.44C652.874,349.274 652.541,350.052 651.929,350.664C651.318,351.275 650.54,351.609 649.65,351.609C648.761,351.609 647.983,351.275 647.371,350.664C646.76,350.052 646.482,349.274 646.426,348.44L646.426,342.993C646.482,342.104 646.76,341.326 647.371,340.714C647.983,340.103 648.761,339.769 649.65,339.769C650.54,339.769 651.318,340.103 651.929,340.714Z" style="fill:rgb(84,32,27);fill-rule:nonzero;"/>
                <path d="M651.929,375.343C649.817,375.955 647.594,376.232 645.204,376.288C638.812,376.233 633.364,373.954 628.806,369.451C625.027,365.672 622.803,361.28 622.192,356.222L668.216,356.222C667.604,361.28 665.381,365.672 661.601,369.451C658.766,372.286 655.542,374.287 651.929,375.343Z" style="fill:white;fill-rule:nonzero;"/>
                <path d="M581.337,346.05C581.893,345.55 582.505,345.161 583.116,344.939C583.227,344.883 583.338,344.883 583.394,344.827C583.561,344.772 583.672,344.772 583.728,344.772C583.95,344.716 584.172,344.661 584.395,344.605C584.672,344.55 584.895,344.55 585.117,344.605C586.618,344.55 587.841,345.05 588.841,346.05C589.897,347.106 590.398,348.329 590.398,349.83C590.398,351.275 589.897,352.498 588.841,353.554C588.619,353.777 588.341,353.999 588.063,354.166C587.396,354.666 586.618,355 585.673,355.055L585.617,355.055C585.451,355.055 585.284,355.055 585.117,355.111C584.895,355.055 584.672,355.055 584.394,355.055C584.172,355 583.95,354.944 583.727,354.888C583.338,354.833 583.005,354.666 582.616,354.499C582.449,354.388 582.338,354.277 582.171,354.221C581.893,354.055 581.615,353.832 581.337,353.554C580.392,352.498 579.892,351.276 579.892,349.83C579.892,348.33 580.392,347.107 581.337,346.051L581.337,346.05Z" style="fill:rgb(103,43,33);fill-rule:nonzero;"/>
                <path d="M611.019,312.811L610.797,312.866C610.797,312.422 610.797,311.977 610.742,311.588C610.797,311.977 610.908,312.422 611.019,312.811Z" style="fill:rgb(255,189,145);fill-rule:nonzero;"/>
                <path d="M609.519,384.459L609.463,384.626L609.463,384.57L609.519,384.459Z" style="fill:rgb(255,189,145);fill-rule:nonzero;"/>
                <path d="M609.463,384.626L609.519,384.459L609.574,384.459C610.074,384.737 610.519,385.07 611.019,385.348C611.408,385.515 611.742,385.737 612.131,385.96C611.742,385.793 611.353,385.571 610.964,385.404C610.463,385.126 609.963,384.904 609.463,384.626Z" style="fill:rgb(91,19,2);fill-rule:nonzero;"/>
                <path d="M576.057,340.325C575.89,340.492 575.779,340.603 575.612,340.77C575.557,340.659 575.557,340.547 575.501,340.381L576.057,340.325Z" style="fill-rule:nonzero;"/>
                <path d="M584.45,361.225C584.561,361.225 584.673,361.225 584.728,361.225L584.561,361.391C584.506,361.336 584.506,361.28 584.45,361.225Z" style="fill:rgb(91,19,2);fill-rule:nonzero;"/>
                <path d="M614.466,406.192L614.41,406.248L614.41,406.192L614.466,406.192Z" style="fill:rgb(33,126,140);fill-rule:nonzero;"/>
                <path d="M613.243,406.248C613.632,406.192 614.021,406.192 614.41,406.192L614.41,406.248L614.466,501.242L614.466,548.988C614.91,549.1 615.355,549.266 615.744,549.433C619.135,549.933 621.692,552.379 623.303,556.826L622.636,556.103L623.303,556.826L623.415,556.993C623.47,557.104 623.526,557.215 623.526,557.382L623.526,557.493C623.692,557.826 623.804,558.16 623.915,558.549C623.97,558.716 624.026,558.938 624.082,559.105C624.193,559.494 624.248,559.883 624.193,560.328L624.193,572.223L623.97,572.223C624.026,572.278 624.137,572.39 624.193,572.501L624.248,578.615C624.248,580.06 623.692,581.283 622.636,582.228C621.691,583.284 620.524,583.784 619.079,583.784L618.968,583.784C617.522,583.784 616.244,583.284 615.188,582.228C614.243,581.283 613.743,580.06 613.743,578.615C613.687,579.338 613.52,579.949 613.242,580.561C612.964,581.061 612.631,581.505 612.186,581.895C611.352,582.84 610.241,583.395 608.962,583.451C608.851,583.451 608.74,583.451 608.629,583.451L608.462,583.451C608.129,583.451 607.795,583.451 607.517,583.395C606.461,583.229 605.572,582.728 604.738,581.895C603.904,581.061 603.404,580.005 603.293,578.726C603.348,578.56 603.348,578.448 603.404,578.337C603.348,578.282 603.348,578.282 603.293,578.282C603.293,578.448 603.293,578.56 603.293,578.726C603.126,579.727 602.625,580.616 601.847,581.339C600.902,582.339 599.679,582.84 598.234,582.895L598.123,582.895C597.623,582.895 597.178,582.84 596.678,582.728C595.844,582.451 595.066,582.006 594.399,581.339C593.454,580.338 592.954,579.116 592.954,577.67L592.954,559.439C592.954,559.272 592.954,559.105 592.954,558.938C593.009,558.883 593.009,558.827 592.954,558.772C593.231,557.438 593.509,556.104 593.787,554.714C594.399,553.269 595.399,552.102 596.678,551.212C597.734,550.49 599.068,549.934 600.624,549.545L600.624,420.033C600.624,411.196 604.849,406.638 613.242,406.249L613.243,406.248ZM603.293,559.994L603.404,560.05L603.404,559.438C603.404,559.327 603.404,559.216 603.404,559.105C603.349,559.383 603.349,559.661 603.293,559.994Z" style="fill:rgb(120,63,46);fill-rule:nonzero;"/>
                <path d="M603.404,560.05L603.293,559.994C603.349,559.661 603.349,559.383 603.404,559.105L603.404,560.05Z" style="fill:rgb(77,95,109);fill-rule:nonzero;"/>
                <path d="M627.75,406.248L627.75,412.251C627.75,414.808 628.695,416.976 630.53,418.81C632.364,420.644 634.532,421.589 637.033,421.589L637.088,421.589C639.701,421.589 641.869,420.644 643.703,418.81C645.537,416.976 646.427,414.808 646.427,412.251L646.426,406.248L656.154,406.248C658.766,407.193 660.1,409.083 660.211,411.918L660.211,427.426C663.546,427.481 666.437,428.704 668.827,431.094C670.995,433.262 672.217,435.875 672.44,438.876C672.495,439.265 672.495,439.654 672.495,440.099C672.495,442.934 671.662,445.38 670.05,447.547C669.716,448.048 669.327,448.548 668.827,449.048C666.437,451.438 663.546,452.661 660.211,452.772L660.211,501.242L614.465,501.242L614.41,406.248L627.75,406.248ZM622.136,446.213C622.748,447.325 623.47,448.381 624.415,449.326C626.805,451.66 629.64,452.828 632.92,452.828C636.199,452.828 639.034,451.66 641.424,449.326C642.369,448.381 643.147,447.325 643.703,446.213L622.136,446.213Z" style="fill:rgb(254,207,7);fill-rule:nonzero;"/>
                <path d="M624.415,449.326C623.47,448.381 622.748,447.325 622.136,446.213L643.703,446.213C643.147,447.325 642.369,448.381 641.424,449.326C639.034,451.66 636.199,452.828 632.92,452.828C629.64,452.828 626.805,451.66 624.415,449.326Z" style="fill:rgb(253,175,23);fill-rule:nonzero;"/>
                <path d="M614.466,501.241L660.212,501.241L660.211,673.219L656.098,673.219L656.098,673.275L650.762,673.275L633.142,673.275L630.585,673.275L613.02,673.275L603.46,673.275L603.46,673.219L607.517,673.219L607.517,583.395C607.795,583.451 608.129,583.451 608.462,583.451L608.963,583.451C610.241,583.395 611.353,582.839 612.186,581.894C612.631,581.505 612.965,581.061 613.243,580.56C613.521,579.949 613.687,579.338 613.743,578.615C613.743,580.06 614.243,581.283 615.188,582.228C616.244,583.284 617.523,583.784 618.968,583.784L619.079,583.784C620.524,583.784 621.691,583.284 622.636,582.228C623.692,581.283 624.248,580.06 624.248,578.615L624.193,572.501L626.082,574.335C627.027,575.169 628.139,575.614 629.417,575.614C630.918,575.614 632.141,575.113 633.142,574.057L633.197,574.002C634.253,572.946 634.753,571.723 634.698,570.333C634.753,568.943 634.253,567.721 633.197,566.664L623.303,556.826C621.691,552.379 619.134,549.934 615.744,549.433C615.354,549.267 614.91,549.1 614.465,548.989L614.465,501.242L614.466,501.241Z" style="fill:rgb(58,150,173);fill-rule:nonzero;"/>
                <path d="M624.193,560.328C624.249,559.883 624.193,559.494 624.082,559.105C624.026,558.938 623.971,558.716 623.915,558.549C623.804,558.16 623.693,557.826 623.526,557.493L623.526,557.382C623.526,557.215 623.47,557.104 623.415,556.993L623.304,556.826L633.197,566.664C634.254,567.72 634.754,568.943 634.698,570.333C634.754,571.722 634.254,572.945 633.197,574.001L633.142,574.057C632.141,575.113 630.918,575.613 629.418,575.613C628.139,575.613 627.027,575.169 626.083,574.335L624.193,572.501L624.193,572.223L624.193,560.328Z" style="fill:rgb(103,43,33);fill-rule:nonzero;"/>
                <path d="M623.304,556.826L622.637,556.103L623.304,556.826Z" style="fill:rgb(234,152,133);fill-rule:nonzero;"/>
                <path d="M603.293,578.281C603.349,578.281 603.349,578.281 603.404,578.337C603.349,578.448 603.349,578.559 603.293,578.726C603.293,578.559 603.293,578.448 603.293,578.281Z" style="fill:rgb(77,95,109);fill-rule:nonzero;"/>
                <path d="M623.971,572.223L624.193,572.223L624.193,572.501C624.137,572.389 624.026,572.278 623.971,572.223Z" style="fill:rgb(77,95,109);fill-rule:nonzero;"/>
                <path d="M691.005,354.166C691.505,352.776 691.895,351.386 692.228,349.997C693.062,346.717 693.618,343.271 693.84,339.714C695.007,340.27 696.119,341.048 697.119,342.048C698.064,342.938 698.787,343.938 699.287,344.994C700.065,346.495 700.454,348.218 700.454,350.052C700.454,352.331 699.843,354.388 698.62,356.222C698.231,356.889 697.731,357.501 697.119,358.112C696.841,358.335 696.619,358.557 696.341,358.779C696.063,359.002 695.785,359.224 695.507,359.446C694.507,360.169 693.395,360.669 692.228,361.003C691.339,361.225 690.394,361.336 689.393,361.392C689.338,361.392 689.226,361.392 689.115,361.392C688.726,361.392 688.393,361.392 688.004,361.336C688.504,360.336 689.004,359.335 689.393,358.335C690.004,356.945 690.505,355.611 691.005,354.221L691.005,354.166Z" style="fill:rgb(103,43,33);fill-rule:nonzero;"/>
                <path d="M613.021,673.275L630.585,673.275L630.585,747.758C629.974,748.202 629.418,748.703 628.806,749.258C628.584,749.536 628.362,749.759 628.139,750.037C626.861,751.426 625.86,752.983 625.138,754.65C624.971,755.039 624.804,755.373 624.638,755.762C624.582,755.984 624.471,756.206 624.415,756.429L613.02,756.429L613.02,673.275L613.021,673.275Z" style="fill:rgb(120,63,46);fill-rule:nonzero;"/>
                <path d="M633.142,673.275L650.762,673.275L650.762,747.369C650.206,747.758 649.651,748.258 649.095,748.758C646.315,746.201 643.036,744.923 639.256,744.923C637.088,744.923 635.032,745.368 633.142,746.257L633.142,673.275Z" style="fill:rgb(103,43,33);fill-rule:nonzero;"/>
                <path d="M630.752,747.647C631.53,747.091 632.308,746.646 633.142,746.257C635.032,745.368 637.088,744.923 639.256,744.923C643.036,744.923 646.315,746.201 649.095,748.758C649.595,749.147 650.04,749.536 650.429,750.037C652.374,752.204 653.708,754.65 654.431,757.429C654.653,758.263 654.82,759.097 654.931,759.986L654.931,760.431L613.02,760.431L613.02,756.429L624.415,756.429C624.471,756.207 624.582,755.984 624.637,755.762C624.804,755.373 624.971,755.039 625.138,754.65C625.86,752.983 626.861,751.426 628.139,750.037C628.362,749.759 628.584,749.536 628.806,749.259C629.418,748.703 629.974,748.202 630.585,747.758C630.641,747.702 630.696,747.647 630.752,747.647Z" style="fill:rgb(115,115,117);fill-rule:nonzero;"/>
                <path d="M649.095,748.758C649.651,748.258 650.206,747.758 650.762,747.369C653.319,745.479 656.209,744.534 659.433,744.534C663.824,744.534 667.549,746.201 670.606,749.592C672.551,751.76 673.885,754.261 674.608,757.04C674.886,757.985 675.052,758.93 675.164,759.986L654.931,759.986C654.82,759.097 654.653,758.263 654.431,757.429C653.708,754.65 652.374,752.205 650.429,750.037C650.039,749.536 649.595,749.147 649.094,748.758L649.095,748.758Z" style="fill:rgb(81,81,81);fill-rule:nonzero;"/>
                <path d="M654.931,760.431L654.931,759.986C654.931,760.153 654.931,760.264 654.931,760.431Z" style="fill:rgb(153,102,153);fill-rule:nonzero;"/>
                <path d="M631.308,339.436C631.808,338.935 632.364,338.658 633.086,338.602C633.809,338.602 634.365,338.824 634.865,339.325C635.365,339.769 635.643,340.325 635.699,341.048C635.754,341.77 635.532,342.437 635.032,342.938C634.643,343.438 634.087,343.716 633.364,343.716C632.642,343.771 631.975,343.549 631.474,343.049C630.919,342.604 630.641,342.048 630.585,341.326C630.585,340.603 630.807,339.936 631.308,339.436Z" style="fill-rule:nonzero;"/>
                <path d="M663.046,339.325C663.547,339.769 663.825,340.325 663.825,340.992C663.88,341.715 663.658,342.382 663.158,342.882C662.713,343.382 662.157,343.66 661.434,343.716C660.712,343.771 660.1,343.549 659.6,343.049C659.044,342.549 658.766,341.993 658.711,341.326C658.711,340.603 658.933,339.992 659.433,339.491C659.934,338.991 660.489,338.658 661.212,338.602C661.935,338.602 662.546,338.824 663.046,339.325Z" style="fill-rule:nonzero;"/>
            </g>
        </g>
    </g>
</svg>
