<?xml version="1.0" encoding="UTF-8" standalone="no"?>
<!DOCTYPE svg PUBLIC "-//W3C//DTD SVG 1.1//EN" "http://www.w3.org/Graphics/SVG/1.1/DTD/svg11.dtd">
<svg width="100%" height="100%" viewBox="0 0 199 533" version="1.1" xmlns="http://www.w3.org/2000/svg" xmlns:xlink="http://www.w3.org/1999/xlink" xml:space="preserve" style="fill-rule:evenodd;clip-rule:evenodd;stroke-linejoin:round;stroke-miterlimit:1.41421;">
    <g transform="matrix(1,0,0,1,-1160,-39)">
        <g transform="matrix(1,0,0,1,0,-162)">
            <g id="Female-2-OK-Hand" transform="matrix(1,0,0,1,1098.91,-26.5665)">
                <path d="M224.971,330.554C226.67,332.853 227.82,334.802 228.469,336.352C228.869,337.351 229.169,338.451 229.419,339.65C229.419,339.7 229.419,339.7 229.419,339.75C229.269,339.75 229.119,339.75 228.969,339.75C222.972,339.8 218.873,341.55 216.674,345.048C214.475,348.497 213.925,351.695 215.075,354.594C215.824,356.544 217.674,357.493 220.573,357.543C219.423,357.593 218.373,358.293 217.524,359.642C216.474,361.242 216.474,362.891 217.474,364.59C219.173,367.489 221.622,369.638 224.871,371.088C226.62,371.887 228.519,372.437 230.569,372.687C230.818,372.737 231.118,372.737 231.418,372.787C230.769,384.882 228.07,394.478 223.421,401.626C221.272,404.874 218.673,407.623 215.675,409.872C208.128,414.77 196.832,416.37 181.788,414.72C174.941,413.971 167.394,412.521 159.047,410.372C158.897,410.322 158.697,410.322 158.547,410.272C158.647,410.722 158.697,411.272 158.747,411.872L158.747,425.016C158.847,425.066 158.947,425.066 159.047,425.116C166.494,426.866 173.391,428.115 179.839,428.815C198.531,430.764 212.976,428.015 223.172,420.618C229.919,416.17 235.117,409.823 238.665,401.626C242.364,393.129 244.363,382.633 244.613,370.188C245.613,369.639 246.612,369.039 247.562,368.389C251.41,365.64 253.959,362.242 255.259,358.193C255.309,358.093 255.309,357.993 255.359,357.843C256.308,355.194 257.158,351.746 257.908,347.498C258.557,343.249 258.957,339.201 259.107,335.402C259.157,333.753 258.757,332.454 257.808,331.504C256.958,330.654 255.858,330.255 254.559,330.255C253.26,330.205 252.16,330.554 251.26,331.304C250.211,332.054 249.711,333.053 249.761,334.303C249.761,337.052 249.461,340.301 248.861,344.149C248.811,344.299 248.811,344.449 248.811,344.599C248.761,344.649 248.761,344.649 248.761,344.699C248.611,344.649 248.511,344.549 248.411,344.499C248.461,344.349 248.461,344.249 248.461,344.099C249.311,337.902 248.711,332.104 246.712,326.706C246.112,325.157 245.213,324.057 244.013,323.457C242.964,322.957 241.814,322.908 240.665,323.307C239.515,323.657 238.665,324.307 238.066,325.257C237.366,326.306 237.166,327.456 237.416,328.705C238.415,332.904 238.915,336.902 238.865,340.65C238.865,340.7 238.865,340.7 238.865,340.75C238.715,340.7 238.615,340.7 238.515,340.65C238.116,334.303 236.116,329.055 232.518,324.807C231.418,323.557 230.219,322.858 228.969,322.808C227.82,322.758 226.82,323.207 225.87,324.107C224.921,324.957 224.371,325.956 224.171,327.156C223.921,328.405 224.221,329.555 224.971,330.555L224.971,330.554ZM232.218,349.696C233.517,350.646 234.367,351.895 234.817,353.545C235.217,355.044 235.167,356.494 234.667,357.843C234.017,359.392 232.918,360.492 231.368,361.142C229.019,362.041 227.17,361.442 225.721,359.392C224.771,358.093 223.172,357.493 220.822,357.543C223.172,357.393 224.371,355.894 224.321,352.945C224.321,350.346 225.521,348.897 227.97,348.597C229.519,348.397 230.968,348.747 232.218,349.696Z" style="fill:rgb(120,63,46);fill-rule:nonzero;"/>
                <path d="M71.027,284.796C64.524,278.293 61.3,270.456 61.244,261.284C61.3,252.113 64.524,244.275 71.027,237.772C77.53,231.269 85.368,228.045 94.539,228.045C103.71,228.045 111.603,231.269 118.107,237.772C123.61,243.275 126.722,249.723 127.556,257.171C114.716,259.783 103.377,265.953 93.539,275.792C88.592,280.794 84.534,286.186 81.366,291.967C77.641,290.355 74.195,287.965 71.027,284.796Z" style="fill-rule:nonzero;"/>
                <path d="M127.556,257.171C132.17,256.226 137.005,255.781 141.952,255.781C160.851,255.781 176.97,262.452 190.366,275.792C203.762,289.188 210.432,305.307 210.377,324.206C210.432,327.596 210.21,330.876 209.765,334.1L193.701,334.1L152.124,334.1C151.958,334.1 151.846,334.1 151.68,334.1C139.118,334.211 129.001,331.598 121.386,326.318C115.55,322.26 111.992,317.758 110.77,312.811C110.658,312.422 110.547,311.977 110.492,311.588C110.547,311.977 110.547,312.422 110.547,312.866C111.048,330.487 106.378,341.048 96.429,344.55C96.095,344.661 95.762,344.772 95.373,344.883C94.539,342.493 93.816,340.937 93.149,340.325C90.759,337.935 87.869,336.712 84.478,336.712C84.367,336.712 84.256,336.712 84.145,336.712C83.922,336.712 83.7,336.712 83.478,336.768C83.2,336.768 82.977,336.768 82.7,336.823C82.533,336.879 82.366,336.879 82.199,336.935C79.809,337.324 77.641,338.491 75.807,340.325L75.251,340.381C74.584,337.435 74.084,334.433 73.806,331.376C73.584,329.042 73.473,326.652 73.473,324.206C73.473,321.816 73.584,319.426 73.806,317.147C74.64,308.086 77.197,299.693 81.366,291.967C84.534,286.186 88.591,280.795 93.538,275.792C103.377,265.954 114.716,259.784 127.556,257.171Z" style="fill:rgb(29,31,28);fill-rule:nonzero;"/>
                <path d="M110.547,312.866L110.77,312.811C111.992,317.758 115.55,322.26 121.386,326.318C129.001,331.598 139.118,334.211 151.68,334.1L193.701,334.1C193.701,334.489 193.701,334.878 193.701,335.267C193.757,336.768 193.701,338.269 193.59,339.714C193.368,343.271 192.812,346.717 191.978,349.997C191.645,351.386 191.256,352.776 190.755,354.166L190.755,354.221C190.255,355.611 189.755,356.945 189.143,358.334C188.754,359.335 188.254,360.336 187.754,361.336C185.141,366.505 181.695,371.286 177.415,375.677C174.025,379.123 170.412,382.069 166.576,384.459C161.963,387.35 156.96,389.462 151.68,390.796C149.901,391.185 148.067,391.574 146.232,391.852L146.177,391.852L146.177,412.251C146.177,414.808 145.287,416.976 143.453,418.81C141.619,420.645 139.451,421.59 136.839,421.59L136.783,421.59C134.282,421.59 132.114,420.645 130.28,418.81C128.445,416.976 127.5,414.808 127.5,412.251L127.5,406.248L127.5,391.518C121.998,390.462 116.773,388.628 111.881,385.96C111.492,385.738 111.159,385.515 110.77,385.349C110.269,385.071 109.825,384.737 109.324,384.459L109.269,384.459L109.213,384.57C103.599,381.458 98.374,377.456 93.539,372.62C89.981,369.062 86.924,365.338 84.312,361.392L84.478,361.225C84.423,361.225 84.312,361.225 84.2,361.225L84.145,361.225C83.922,361.225 83.7,361.225 83.478,361.225C80.532,360.947 77.975,359.78 75.807,357.612C75.64,357.445 75.529,357.334 75.418,357.223C74.807,356.5 74.251,355.833 73.806,355.111C72.75,353.277 72.25,351.22 72.194,348.997C72.25,346.718 72.75,344.661 73.806,342.882C74.251,342.16 74.751,341.437 75.362,340.77C75.529,340.603 75.64,340.492 75.807,340.326C77.641,338.491 79.809,337.324 82.199,336.935C82.366,336.879 82.533,336.879 82.7,336.824C82.978,336.768 83.2,336.768 83.478,336.768C83.7,336.713 83.922,336.713 84.145,336.713C84.256,336.713 84.367,336.713 84.478,336.713C87.869,336.713 90.759,337.935 93.149,340.326C93.816,340.937 94.539,342.493 95.373,344.884C95.762,344.772 96.095,344.661 96.429,344.55C106.378,341.048 111.048,330.487 110.547,312.867L110.547,312.866ZM151.68,340.77L151.68,340.714C151.068,340.103 150.29,339.769 149.401,339.769C148.511,339.769 147.733,340.103 147.122,340.714C146.51,341.326 146.232,342.104 146.177,342.993L146.177,348.44C146.232,349.274 146.51,350.052 147.122,350.664C147.733,351.275 148.511,351.609 149.401,351.609C150.29,351.609 151.068,351.275 151.68,350.664C152.291,350.052 152.625,349.274 152.625,348.44L152.625,342.993C152.625,342.104 152.291,341.381 151.68,340.77ZM144.954,376.288C147.344,376.233 149.567,375.955 151.68,375.343C155.293,374.287 158.517,372.286 161.351,369.451C165.131,365.672 167.354,361.28 167.966,356.222L121.942,356.222C122.553,361.28 124.777,365.672 128.557,369.451C133.115,373.954 138.562,376.233 144.954,376.288ZM82.866,344.939C82.255,345.161 81.643,345.55 81.088,346.05C80.143,347.106 79.642,348.329 79.642,349.83C79.642,351.275 80.143,352.498 81.088,353.554C81.366,353.832 81.643,354.054 81.921,354.221C82.088,354.277 82.199,354.388 82.366,354.499C82.755,354.666 83.089,354.833 83.478,354.888C83.7,354.944 83.922,354.999 84.145,355.055C84.423,355.055 84.645,355.055 84.867,355.111C85.034,355.055 85.201,355.055 85.368,355.055L85.423,355.055C86.368,354.999 87.146,354.666 87.813,354.166C88.091,353.999 88.369,353.777 88.592,353.554C89.648,352.498 90.148,351.275 90.148,349.83C90.148,348.329 89.648,347.107 88.592,346.05C87.591,345.05 86.368,344.55 84.867,344.605C84.645,344.55 84.423,344.55 84.145,344.605C83.922,344.661 83.7,344.716 83.478,344.772C83.422,344.772 83.311,344.772 83.144,344.828C83.089,344.883 82.978,344.883 82.866,344.939Z" style="fill:rgb(120,63,46);fill-rule:nonzero;"/>
                <path d="M151.68,340.714L151.68,340.77C152.291,341.381 152.625,342.104 152.625,342.993L152.625,348.44C152.625,349.274 152.291,350.052 151.68,350.664C151.068,351.275 150.29,351.609 149.401,351.609C148.511,351.609 147.733,351.275 147.122,350.664C146.51,350.052 146.232,349.274 146.177,348.44L146.177,342.993C146.232,342.104 146.51,341.326 147.122,340.714C147.733,340.103 148.511,339.769 149.401,339.769C150.29,339.769 151.068,340.103 151.68,340.714Z" style="fill:rgb(84,32,27);fill-rule:nonzero;"/>
                <path d="M151.68,375.343C149.567,375.955 147.344,376.232 144.954,376.288C138.562,376.233 133.115,373.954 128.557,369.451C124.777,365.672 122.554,361.28 121.942,356.222L167.966,356.222C167.354,361.28 165.131,365.672 161.351,369.451C158.517,372.286 155.293,374.287 151.68,375.343Z" style="fill:white;fill-rule:nonzero;"/>
                <path d="M81.088,346.05C81.643,345.55 82.255,345.161 82.866,344.939C82.978,344.883 83.089,344.883 83.144,344.827C83.311,344.772 83.422,344.772 83.478,344.772C83.7,344.716 83.922,344.661 84.145,344.605C84.423,344.55 84.645,344.55 84.867,344.605C86.368,344.55 87.591,345.05 88.592,346.05C89.648,347.106 90.148,348.329 90.148,349.83C90.148,351.275 89.648,352.498 88.592,353.554C88.369,353.777 88.091,353.999 87.813,354.166C87.146,354.666 86.368,355 85.423,355.055L85.368,355.055C85.201,355.055 85.034,355.055 84.867,355.111C84.645,355.055 84.423,355.055 84.145,355.055C83.922,355 83.7,354.944 83.478,354.888C83.089,354.833 82.755,354.666 82.366,354.499C82.199,354.388 82.088,354.277 81.921,354.221C81.643,354.055 81.366,353.832 81.088,353.554C80.143,352.498 79.642,351.276 79.642,349.83C79.642,348.33 80.143,347.107 81.088,346.051L81.088,346.05Z" style="fill:rgb(103,43,33);fill-rule:nonzero;"/>
                <path d="M110.77,312.811L110.547,312.866C110.547,312.422 110.547,311.977 110.492,311.588C110.547,311.977 110.658,312.422 110.77,312.811Z" style="fill:rgb(255,189,145);fill-rule:nonzero;"/>
                <path d="M109.269,384.459L109.213,384.626L109.213,384.57L109.269,384.459Z" style="fill:rgb(255,189,145);fill-rule:nonzero;"/>
                <path d="M109.213,384.626L109.269,384.459L109.324,384.459C109.825,384.737 110.269,385.07 110.77,385.348C111.159,385.515 111.492,385.737 111.881,385.96C111.492,385.793 111.103,385.571 110.714,385.404C110.214,385.126 109.714,384.904 109.213,384.626Z" style="fill:rgb(91,19,2);fill-rule:nonzero;"/>
                <path d="M75.807,340.325C75.64,340.492 75.529,340.603 75.362,340.77C75.307,340.659 75.307,340.547 75.251,340.381L75.807,340.325Z" style="fill-rule:nonzero;"/>
                <path d="M84.2,361.225C84.312,361.225 84.423,361.225 84.478,361.225L84.312,361.391C84.256,361.336 84.256,361.28 84.2,361.225Z" style="fill:rgb(91,19,2);fill-rule:nonzero;"/>
                <path d="M114.216,406.192L114.16,406.248L114.16,406.192L114.216,406.192Z" style="fill:rgb(33,126,140);fill-rule:nonzero;"/>
                <path d="M112.993,406.248C113.382,406.192 113.771,406.192 114.16,406.192L114.16,406.248L114.216,501.242L114.216,548.988C114.661,549.1 115.105,549.266 115.494,549.433C118.885,549.933 121.442,552.379 123.054,556.826L122.387,556.103L123.054,556.826L123.165,556.993C123.22,557.104 123.276,557.215 123.276,557.382L123.276,557.493C123.443,557.826 123.554,558.16 123.665,558.549C123.721,558.716 123.776,558.938 123.832,559.105C123.943,559.494 123.999,559.883 123.943,560.328L123.943,572.223L123.721,572.223C123.776,572.278 123.888,572.39 123.943,572.501L123.999,578.615C123.999,580.06 123.443,581.283 122.387,582.228C121.442,583.284 120.275,583.784 118.829,583.784L118.718,583.784C117.273,583.784 115.995,583.284 114.938,582.228C113.994,581.283 113.493,580.06 113.493,578.615C113.438,579.338 113.271,579.949 112.993,580.561C112.715,581.061 112.382,581.505 111.937,581.895C111.103,582.84 109.991,583.395 108.713,583.451C108.602,583.451 108.491,583.451 108.38,583.451L108.213,583.451C107.879,583.451 107.546,583.451 107.268,583.395C106.212,583.229 105.322,582.728 104.489,581.895C103.655,581.061 103.155,580.005 103.043,578.726C103.099,578.56 103.099,578.448 103.155,578.337C103.099,578.282 103.099,578.282 103.043,578.282C103.043,578.448 103.043,578.56 103.043,578.726C102.877,579.727 102.376,580.616 101.598,581.339C100.653,582.339 99.43,582.84 97.985,582.895L97.874,582.895C97.374,582.895 96.929,582.84 96.429,582.728C95.595,582.451 94.817,582.006 94.15,581.339C93.205,580.338 92.705,579.116 92.705,577.67L92.705,559.439C92.705,559.272 92.705,559.105 92.705,558.938C92.76,558.883 92.76,558.827 92.705,558.772C92.983,557.438 93.261,556.104 93.539,554.714C94.15,553.269 95.15,552.102 96.429,551.212C97.485,550.49 98.819,549.934 100.375,549.545L100.375,420.033C100.375,411.196 104.6,406.638 112.993,406.249L112.993,406.248ZM103.043,559.994L103.155,560.05L103.155,559.438C103.155,559.327 103.155,559.216 103.155,559.105C103.099,559.383 103.099,559.661 103.043,559.994Z" style="fill:rgb(120,63,46);fill-rule:nonzero;"/>
                <path d="M103.155,560.05L103.043,559.994C103.099,559.661 103.099,559.383 103.155,559.105L103.155,560.05Z" style="fill:rgb(77,95,109);fill-rule:nonzero;"/>
                <path d="M127.5,406.248L127.5,412.251C127.5,414.808 128.445,416.976 130.28,418.81C132.114,420.644 134.282,421.589 136.783,421.589L136.839,421.589C139.451,421.589 141.619,420.644 143.453,418.81C145.287,416.976 146.177,414.808 146.177,412.251L146.177,406.248L155.904,406.248C158.517,407.193 159.851,409.083 159.962,411.918L159.962,427.426C163.297,427.481 166.187,428.704 168.577,431.094C170.745,433.262 171.968,435.875 172.19,438.876C172.246,439.265 172.246,439.654 172.246,440.099C172.246,442.934 171.412,445.38 169.8,447.547C169.467,448.048 169.078,448.548 168.577,449.048C166.187,451.438 163.297,452.661 159.962,452.772L159.962,501.242L114.216,501.242L114.16,406.248L127.5,406.248ZM121.886,446.213C122.498,447.325 123.221,448.381 124.165,449.326C126.556,451.66 129.39,452.828 132.67,452.828C135.949,452.828 138.784,451.66 141.174,449.326C142.119,448.381 142.897,447.325 143.453,446.213L121.887,446.213L121.886,446.213Z" style="fill:rgb(254,207,7);fill-rule:nonzero;"/>
                <path d="M124.165,449.326C123.221,448.381 122.498,447.325 121.886,446.213L143.453,446.213C142.897,447.325 142.119,448.381 141.174,449.326C138.784,451.66 135.949,452.828 132.67,452.828C129.39,452.828 126.556,451.66 124.165,449.326Z" style="fill:rgb(253,175,23);fill-rule:nonzero;"/>
                <path d="M114.216,501.241L159.962,501.241L159.962,673.219L155.848,673.219L155.848,673.275L150.512,673.275L132.892,673.275L130.335,673.275L112.771,673.275L103.21,673.275L103.21,673.219L107.268,673.219L107.268,583.395C107.546,583.451 107.879,583.451 108.213,583.451L108.713,583.451C109.991,583.395 111.103,582.839 111.937,581.894C112.382,581.505 112.715,581.061 112.993,580.56C113.271,579.949 113.438,579.338 113.493,578.615C113.493,580.06 113.993,581.283 114.938,582.228C115.995,583.284 117.273,583.784 118.718,583.784L118.829,583.784C120.275,583.784 121.442,583.284 122.387,582.228C123.443,581.283 123.999,580.06 123.999,578.615L123.943,572.501L125.833,574.335C126.778,575.169 127.89,575.614 129.168,575.614C130.669,575.614 131.892,575.113 132.892,574.057L132.948,574.002C134.004,572.946 134.504,571.723 134.448,570.333C134.504,568.943 134.004,567.721 132.948,566.664L123.054,556.826C121.442,552.379 118.885,549.934 115.494,549.433C115.105,549.267 114.66,549.1 114.216,548.989L114.216,501.242L114.216,501.241Z" style="fill:rgb(58,150,173);fill-rule:nonzero;"/>
                <path d="M123.943,560.328C123.999,559.883 123.943,559.494 123.832,559.105C123.776,558.938 123.721,558.716 123.665,558.549C123.554,558.16 123.443,557.826 123.276,557.493L123.276,557.382C123.276,557.215 123.221,557.104 123.165,556.993L123.054,556.826L132.948,566.664C134.004,567.72 134.504,568.943 134.449,570.333C134.504,571.722 134.004,572.945 132.948,574.001L132.892,574.057C131.892,575.113 130.669,575.613 129.168,575.613C127.89,575.613 126.778,575.169 125.833,574.335L123.943,572.501L123.943,572.223L123.943,560.328Z" style="fill:rgb(103,43,33);fill-rule:nonzero;"/>
                <path d="M123.054,556.826L122.387,556.103L123.054,556.826Z" style="fill:rgb(234,152,133);fill-rule:nonzero;"/>
                <path d="M103.043,578.281C103.099,578.281 103.099,578.281 103.155,578.337C103.099,578.448 103.099,578.559 103.043,578.726C103.043,578.559 103.043,578.448 103.043,578.281Z" style="fill:rgb(77,95,109);fill-rule:nonzero;"/>
                <path d="M123.721,572.223L123.943,572.223L123.943,572.501C123.888,572.389 123.776,572.278 123.721,572.223Z" style="fill:rgb(77,95,109);fill-rule:nonzero;"/>
                <path d="M190.755,354.166C191.256,352.776 191.645,351.386 191.978,349.997C192.812,346.717 193.368,343.271 193.59,339.714C194.757,340.27 195.869,341.048 196.87,342.048C197.815,342.938 198.537,343.938 199.037,344.994C199.816,346.495 200.205,348.218 200.205,350.052C200.205,352.331 199.593,354.388 198.37,356.222C197.981,356.889 197.481,357.501 196.87,358.112C196.592,358.335 196.369,358.557 196.091,358.779C195.814,359.002 195.536,359.224 195.258,359.446C194.257,360.169 193.145,360.669 191.978,361.003C191.089,361.225 190.144,361.336 189.143,361.392C189.088,361.392 188.977,361.392 188.865,361.392C188.476,361.392 188.143,361.392 187.754,361.336C188.254,360.336 188.754,359.335 189.143,358.335C189.755,356.945 190.255,355.611 190.755,354.221L190.755,354.166Z" style="fill:rgb(103,43,33);fill-rule:nonzero;"/>
                <path d="M112.771,673.275L130.335,673.275L130.335,747.758C129.724,748.202 129.168,748.703 128.557,749.258C128.334,749.536 128.112,749.759 127.89,750.037C126.611,751.426 125.611,752.983 124.888,754.65C124.721,755.039 124.555,755.373 124.388,755.762C124.332,755.984 124.221,756.206 124.165,756.429L112.771,756.429L112.771,673.275Z" style="fill:rgb(120,63,46);fill-rule:nonzero;"/>
                <path d="M132.892,673.275L150.512,673.275L150.512,747.369C149.957,747.758 149.401,748.258 148.845,748.758C146.066,746.201 142.786,744.923 139.006,744.923C136.839,744.923 134.782,745.368 132.892,746.257L132.892,673.275Z" style="fill:rgb(103,43,33);fill-rule:nonzero;"/>
                <path d="M130.502,747.647C131.28,747.091 132.058,746.646 132.892,746.257C134.782,745.368 136.839,744.923 139.006,744.923C142.786,744.923 146.066,746.201 148.845,748.758C149.345,749.147 149.79,749.536 150.179,750.037C152.124,752.204 153.458,754.65 154.181,757.429C154.403,758.263 154.57,759.097 154.681,759.986L154.681,760.431L112.771,760.431L112.771,756.429L124.165,756.429C124.221,756.207 124.332,755.984 124.388,755.762C124.555,755.373 124.721,755.039 124.888,754.65C125.611,752.983 126.611,751.426 127.89,750.037C128.112,749.759 128.334,749.536 128.557,749.259C129.168,748.703 129.724,748.202 130.335,747.758C130.391,747.702 130.446,747.647 130.502,747.647Z" style="fill:rgb(115,115,117);fill-rule:nonzero;"/>
                <path d="M148.845,748.758C149.401,748.258 149.957,747.758 150.512,747.369C153.069,745.479 155.96,744.534 159.184,744.534C163.575,744.534 167.299,746.201 170.356,749.592C172.301,751.76 173.635,754.261 174.358,757.04C174.636,757.985 174.803,758.93 174.914,759.986L154.681,759.986C154.57,759.097 154.403,758.263 154.181,757.429C153.458,754.65 152.124,752.205 150.179,750.037C149.79,749.536 149.345,749.147 148.845,748.758Z" style="fill:rgb(81,81,81);fill-rule:nonzero;"/>
                <path d="M154.681,760.431L154.681,759.986C154.681,760.153 154.681,760.264 154.681,760.431Z" style="fill:rgb(153,102,153);fill-rule:nonzero;"/>
                <path d="M131.058,339.436C131.558,338.935 132.114,338.658 132.837,338.602C133.559,338.602 134.115,338.824 134.615,339.325C135.116,339.769 135.393,340.325 135.449,341.048C135.505,341.77 135.282,342.437 134.782,342.938C134.393,343.438 133.837,343.716 133.115,343.716C132.392,343.771 131.725,343.549 131.225,343.049C130.669,342.604 130.391,342.048 130.335,341.326C130.335,340.603 130.558,339.936 131.058,339.436Z" style="fill-rule:nonzero;"/>
                <path d="M162.797,339.325C163.297,339.769 163.575,340.325 163.575,340.992C163.63,341.715 163.408,342.382 162.908,342.882C162.463,343.382 161.907,343.66 161.185,343.716C160.462,343.771 159.851,343.549 159.35,343.049C158.794,342.549 158.517,341.993 158.461,341.326C158.461,340.603 158.683,339.992 159.184,339.491C159.684,338.991 160.24,338.658 160.962,338.602C161.685,338.602 162.296,338.824 162.796,339.325L162.797,339.325Z" style="fill-rule:nonzero;"/>
            </g>
        </g>
    </g>
</svg>
