<?xml version="1.0" encoding="UTF-8" standalone="no"?>
<!DOCTYPE svg PUBLIC "-//W3C//DTD SVG 1.1//EN" "http://www.w3.org/Graphics/SVG/1.1/DTD/svg11.dtd">
<svg width="100%" height="100%" viewBox="0 0 190 498" version="1.1" xmlns="http://www.w3.org/2000/svg" xmlns:xlink="http://www.w3.org/1999/xlink" xml:space="preserve" style="fill-rule:evenodd;clip-rule:evenodd;stroke-linejoin:round;stroke-miterlimit:1.41421;">
    <g transform="matrix(1,0,0,1,-1810,-74)">
        <g transform="matrix(1,0,0,1,0,-162)">
            <g id="Female-3-OK-Hand" transform="matrix(1,0,0,1,1735.04,-25.4175)">
                <path d="M176.94,275.726C176.79,275.576 176.69,275.476 176.64,275.376C165.295,266.48 151.65,262.031 135.707,262.081L133.907,262.081C117.764,262.031 103.969,266.58 92.524,275.676C81.128,284.772 75.431,295.768 75.481,308.613L75.481,404.174L106.168,404.174C106.918,404.025 107.768,403.975 108.667,403.925C109.017,403.875 109.417,403.875 109.817,403.875L109.867,403.875L109.817,403.925L123.212,403.925L123.212,403.975L151.85,403.925C152.05,403.975 152.25,404.075 152.45,404.175L194.233,404.175L194.133,324.507C194.133,324.207 194.133,323.907 194.183,323.607L194.183,319.309C194.133,318.309 194.083,317.309 194.033,316.36L194.183,316.36L194.183,308.613C194.133,295.768 188.436,284.772 176.99,275.676L176.94,275.726ZM183.937,318.509L183.937,344.448C183.937,355.494 180.439,365.04 173.491,373.137C171.742,374.886 169.993,376.535 168.194,377.985C166.344,379.434 164.495,380.784 162.546,382.033C157.898,384.932 152.9,387.031 147.602,388.381C144.903,388.831 142.154,389.08 139.305,389.08C126.96,389.08 116.414,384.732 107.668,375.986C98.971,367.289 94.623,356.793 94.623,344.448L94.623,324.906L94.623,318.509C94.623,306.164 98.971,295.618 107.668,286.921C116.414,278.175 126.96,273.827 139.305,273.827C151.65,273.827 162.146,278.175 170.842,286.922C179.589,295.618 183.937,306.164 183.937,318.509ZM79.329,333.953L79.979,333.953L79.329,333.953ZM104.869,382.183L104.819,382.133L104.919,382.033C105.419,382.333 105.919,382.633 106.418,382.883C106.768,383.133 107.168,383.333 107.518,383.533C107.118,383.333 106.718,383.133 106.368,382.983C105.819,382.733 105.319,382.433 104.869,382.183ZM79.629,358.643L79.679,358.643C79.729,358.593 79.829,358.593 79.979,358.643L79.779,358.793L79.629,358.643Z" style="fill:rgb(29,31,28);fill-rule:nonzero;"/>
                <path d="M183.937,324.906L183.937,318.509C183.937,306.164 179.589,295.618 170.842,286.921C162.146,278.175 151.65,273.827 139.305,273.827C126.96,273.827 116.414,278.175 107.668,286.921C98.971,295.618 94.623,306.164 94.623,318.509L94.623,324.906L183.937,324.906ZM106.168,308.663C106.218,309.062 106.268,309.462 106.418,309.912L106.218,309.962C106.168,309.512 106.168,309.112 106.168,308.663Z" style="fill:rgb(0,102,153);fill-rule:nonzero;"/>
                <path d="M106.418,309.912C106.268,309.462 106.218,309.062 106.168,308.663C106.168,309.112 106.168,309.512 106.218,309.962L106.418,309.912Z" style="fill:rgb(255,189,145);fill-rule:nonzero;"/>
                <path d="M94.623,344.448C94.623,356.793 98.971,367.289 107.668,375.986C116.414,384.732 126.96,389.08 139.305,389.08C142.154,389.08 144.903,388.831 147.602,388.381C152.9,387.031 157.898,384.932 162.546,382.033C164.495,380.784 166.344,379.434 168.194,377.985C169.993,376.536 171.742,374.886 173.491,373.137C180.439,365.04 183.937,355.494 183.937,344.448L183.937,324.906L94.623,324.906L94.623,344.448ZM130.409,336.601C130.908,337.051 131.158,337.601 131.208,338.301C131.258,339.051 131.058,339.65 130.609,340.2C130.159,340.75 129.559,341 128.859,341C128.11,341.05 127.51,340.8 126.96,340.35C126.41,339.9 126.16,339.301 126.11,338.601C126.06,337.851 126.31,337.251 126.81,336.702C127.26,336.202 127.86,335.902 128.609,335.852C129.309,335.852 129.909,336.102 130.409,336.602L130.409,336.601ZM143.004,338.001C143.653,337.351 144.403,337.051 145.303,337.051C146.152,337.051 146.902,337.351 147.552,338.001L147.602,338.051C148.202,338.651 148.501,339.4 148.501,340.25L148.501,345.748C148.501,346.597 148.202,347.347 147.602,347.997L147.552,347.997C146.902,348.647 146.152,348.947 145.303,348.947C144.403,348.947 143.653,348.647 143.004,347.997C142.354,347.347 142.054,346.597 142.054,345.748L142.054,340.25C142.054,339.35 142.354,338.601 143.004,338.001ZM156.898,335.852C157.598,335.852 158.198,336.102 158.747,336.601C159.247,337.051 159.497,337.601 159.547,338.301C159.547,339.051 159.347,339.65 158.897,340.15C158.447,340.7 157.848,340.95 157.148,341C156.398,341.05 155.799,340.8 155.299,340.3C154.749,339.85 154.449,339.301 154.399,338.601C154.349,337.851 154.599,337.251 155.099,336.752C155.549,336.202 156.148,335.902 156.898,335.852ZM121.612,357.293C121.612,356.943 121.612,356.593 121.662,356.244L151.35,356.244C151.4,356.594 151.4,356.943 151.4,357.293C151.4,358.793 151.2,360.192 150.751,361.542C150.051,363.591 148.801,365.44 147.052,367.089C146.402,367.639 145.803,368.189 145.153,368.639C143.204,369.938 141.104,370.738 138.755,371.088C138.006,371.188 137.256,371.238 136.506,371.238C133.707,371.238 131.208,370.588 128.959,369.339C127.91,368.689 126.91,367.939 125.96,367.089C124.211,365.44 122.962,363.591 122.312,361.542C121.862,360.192 121.612,358.793 121.612,357.293Z" style="fill:rgb(206,153,101);fill-rule:nonzero;"/>
                <path d="M131.208,338.301C131.158,337.601 130.908,337.051 130.409,336.601C129.909,336.102 129.309,335.852 128.609,335.852C127.86,335.902 127.26,336.202 126.81,336.701C126.31,337.251 126.06,337.851 126.11,338.601C126.16,339.3 126.41,339.9 126.96,340.35C127.51,340.8 128.11,341.05 128.859,341C129.559,341 130.159,340.75 130.609,340.2C131.058,339.65 131.258,339.051 131.208,338.301Z" style="fill-rule:nonzero;"/>
                <path d="M145.303,337.051C144.403,337.051 143.653,337.351 143.004,338.001C142.354,338.601 142.054,339.35 142.054,340.25L142.054,345.748C142.054,346.597 142.354,347.347 143.004,347.997C143.653,348.647 144.403,348.947 145.303,348.947C146.152,348.947 146.902,348.647 147.552,347.997L147.602,347.997C148.202,347.347 148.501,346.597 148.501,345.748L148.501,340.25C148.501,339.4 148.202,338.651 147.602,338.051L147.552,338.001C146.902,337.351 146.152,337.051 145.303,337.051Z" style="fill:rgb(168,109,53);fill-rule:nonzero;"/>
                <path d="M158.747,336.601C158.198,336.102 157.598,335.852 156.898,335.852C156.148,335.902 155.549,336.202 155.099,336.751C154.599,337.251 154.349,337.851 154.399,338.601C154.449,339.3 154.749,339.85 155.299,340.3C155.799,340.8 156.398,341.05 157.148,341C157.848,340.95 158.447,340.7 158.897,340.15C159.347,339.65 159.547,339.051 159.547,338.301C159.497,337.601 159.247,337.051 158.747,336.602L158.747,336.601Z" style="fill-rule:nonzero;"/>
                <path d="M121.662,356.244C121.612,356.593 121.612,356.943 121.612,357.293C121.612,358.793 121.862,360.192 122.312,361.541L150.751,361.542C151.2,360.192 151.4,358.793 151.4,357.293C151.4,356.943 151.4,356.594 151.35,356.244L121.662,356.244Z" style="fill:white;fill-rule:nonzero;"/>
                <path d="M125.96,367.089C126.91,367.939 127.91,368.689 128.959,369.338C129.259,368.089 130.009,366.939 131.208,365.99C132.858,364.64 134.857,363.941 137.206,363.941C137.756,363.941 138.256,363.991 138.755,364.09C140.405,364.34 141.854,364.94 143.104,365.99C144.053,366.739 144.753,367.639 145.153,368.639C145.803,368.189 146.402,367.639 147.052,367.089C148.801,365.44 150.051,363.591 150.751,361.542L122.312,361.542C122.962,363.591 124.211,365.44 125.96,367.089Z" style="fill:rgb(79,32,32);fill-rule:nonzero;"/>
                <path d="M145.153,368.639C144.753,367.639 144.053,366.739 143.104,365.99C141.854,364.94 140.405,364.34 138.755,364.09C138.256,363.991 137.756,363.941 137.206,363.941C134.857,363.941 132.858,364.64 131.208,365.99C130.009,366.939 129.259,368.089 128.959,369.338C131.208,370.588 133.707,371.238 136.506,371.238C137.256,371.238 138.006,371.188 138.755,371.088C141.104,370.738 143.204,369.938 145.153,368.639Z" style="fill:rgb(255,153,153);fill-rule:nonzero;"/>
                <path d="M79.629,333.953C79.529,333.953 79.429,333.953 79.329,333.953L79.979,333.953C79.829,333.953 79.729,333.953 79.629,333.953Z" style="fill:rgb(120,63,46);fill-rule:nonzero;"/>
                <path d="M104.819,382.133L104.869,382.183L104.919,382.033L104.819,382.133Z" style="fill:rgb(255,189,145);fill-rule:nonzero;"/>
                <path d="M104.919,382.033L104.869,382.183C105.319,382.433 105.819,382.733 106.368,382.983C106.718,383.133 107.118,383.333 107.518,383.533C107.168,383.333 106.768,383.133 106.418,382.883C105.919,382.633 105.419,382.333 104.919,382.033Z" style="fill:rgb(91,19,2);fill-rule:nonzero;"/>
                <path d="M79.979,358.643C79.829,358.593 79.729,358.593 79.679,358.643C79.679,358.693 79.729,358.743 79.779,358.793L79.979,358.643Z" style="fill:rgb(91,19,2);fill-rule:nonzero;"/>
                <path d="M229.569,324.706C229.319,325.956 229.569,327.105 230.319,328.105C232.068,330.404 233.218,332.353 233.867,333.903C234.267,334.952 234.567,336.052 234.817,337.251C234.817,337.301 234.817,337.351 234.817,337.401C234.667,337.351 234.517,337.351 234.367,337.401C228.319,337.401 224.221,339.15 221.972,342.699C219.773,346.198 219.273,349.396 220.423,352.295C221.172,354.244 223.022,355.244 225.92,355.244C224.771,355.294 223.721,355.994 222.872,357.393C221.822,358.943 221.772,360.592 222.772,362.341C224.521,365.29 227.02,367.439 230.269,368.889C232.018,369.688 233.917,370.238 235.966,370.488C236.266,370.538 236.566,370.538 236.816,370.588C236.616,374.237 236.216,377.685 235.667,380.934L248.661,383.883C249.511,378.985 249.961,373.687 250.111,367.989C251.11,367.439 252.11,366.84 253.11,366.19C256.958,363.391 259.507,359.992 260.856,355.944C260.906,355.794 260.906,355.694 260.956,355.594C261.906,352.945 262.706,349.446 263.455,345.148C264.155,340.9 264.555,336.852 264.705,333.003C264.805,331.304 264.355,330.004 263.405,329.055C262.556,328.205 261.456,327.805 260.157,327.805C258.857,327.755 257.758,328.105 256.808,328.855C255.759,329.605 255.259,330.654 255.259,331.904C255.309,334.653 255.009,337.951 254.409,341.8C254.359,341.95 254.359,342.05 254.309,342.2C254.309,342.25 254.309,342.3 254.309,342.349C254.159,342.3 254.059,342.2 253.959,342.15C253.959,342 253.959,341.9 254.009,341.75C254.859,335.502 254.259,329.655 252.21,324.207C251.61,322.657 250.711,321.558 249.511,320.958C248.411,320.458 247.262,320.408 246.112,320.808C244.963,321.158 244.113,321.808 243.513,322.807C242.814,323.857 242.614,324.957 242.914,326.206C243.863,330.454 244.363,334.453 244.313,338.251C244.313,338.301 244.313,338.301 244.313,338.351C244.213,338.301 244.113,338.301 243.963,338.251C243.563,331.904 241.564,326.606 237.916,322.358C236.866,321.058 235.667,320.358 234.367,320.309C233.218,320.259 232.168,320.708 231.218,321.608C230.319,322.458 229.769,323.507 229.569,324.707L229.569,324.706ZM240.265,351.246C240.665,352.745 240.615,354.194 240.115,355.594C239.465,357.143 238.315,358.193 236.766,358.843C234.417,359.792 232.518,359.192 231.068,357.143C230.119,355.794 228.519,355.194 226.17,355.244C228.519,355.144 229.719,353.595 229.719,350.646C229.669,347.997 230.918,346.548 233.367,346.298C234.917,346.098 236.366,346.448 237.666,347.347C238.965,348.297 239.815,349.596 240.265,351.246Z" style="fill:rgb(206,153,101);fill-rule:nonzero;"/>
                <path d="M118.214,404.174L110.817,404.174C106.468,406.174 104.319,410.322 104.319,416.669L104.319,537.871L118.264,537.871L118.264,498.437L118.214,404.174Z" style="fill:rgb(152,31,1);fill-rule:nonzero;"/>
                <path d="M110.817,404.174L118.214,404.174L118.264,498.437L164.345,498.437L164.345,448.707C165.844,448.057 167.244,447.107 168.493,445.858C168.943,445.408 169.393,444.908 169.743,444.408C171.392,442.209 172.192,439.71 172.192,436.861C172.192,436.462 172.192,436.062 172.142,435.662C171.892,432.663 170.643,430.064 168.493,427.865C167.244,426.615 165.844,425.666 164.345,425.066L164.345,423.317C164.195,423.267 164.095,423.267 163.995,423.267C163.895,423.217 163.795,423.217 163.695,423.217L163.695,409.922C163.645,409.372 163.595,408.823 163.495,408.323C163.645,408.373 163.845,408.423 163.995,408.473C164.095,408.473 164.195,408.473 164.295,408.523C164.245,406.674 163.645,405.224 162.546,404.175L152.45,404.175C152.25,404.075 152.05,403.975 151.85,403.925L123.212,403.975L123.212,403.925L109.817,403.925L109.817,404.175L110.817,404.175L110.817,404.174ZM128.31,446.158C127.31,445.208 126.51,444.158 125.96,443.009L147.702,443.009C147.152,444.158 146.352,445.208 145.403,446.158C143.004,448.507 140.155,449.706 136.806,449.706C133.457,449.706 130.659,448.507 128.31,446.158ZM163.645,448.956L163.446,456.204L163.446,449.007C163.496,449.007 163.595,449.007 163.645,448.957L163.645,448.956Z" style="fill:rgb(204,51,0);fill-rule:nonzero;"/>
                <path d="M125.96,443.009C126.51,444.158 127.31,445.208 128.31,446.158C130.659,448.507 133.457,449.706 136.806,449.706C140.155,449.706 143.004,448.507 145.403,446.158C146.352,445.208 147.152,444.158 147.702,443.009L125.96,443.009Z" style="fill:rgb(152,31,1);fill-rule:nonzero;"/>
                <path d="M109.817,404.174L109.817,403.925L109.817,403.875C109.417,403.875 109.017,403.875 108.667,403.925C107.768,403.975 106.918,404.025 106.168,404.174L109.817,404.174Z" style="fill:rgb(152,31,1);fill-rule:nonzero;"/>
                <path d="M109.817,403.875L109.817,403.925L109.867,403.875L109.817,403.875Z" style="fill:rgb(33,126,140);fill-rule:nonzero;"/>
                <path d="M119.563,546.917C119.113,546.717 118.713,546.567 118.264,546.467L118.264,537.871L104.319,537.871L104.319,547.067C102.77,547.417 101.42,547.967 100.371,548.717C99.071,549.616 98.122,550.766 97.472,552.215C97.172,553.565 96.872,554.964 96.622,556.314L96.622,575.356C96.572,576.806 97.072,578.055 98.072,579.005C98.721,579.704 99.521,580.154 100.371,580.404C100.821,580.504 101.27,580.554 101.82,580.604L101.97,580.604C103.419,580.554 104.619,580.054 105.569,579.005C106.318,578.255 106.818,577.405 107.018,576.406C106.968,576.256 106.968,576.106 107.018,575.956C107.068,575.956 107.068,575.956 107.118,576.006C107.068,576.156 107.068,576.256 107.018,576.406C107.118,577.655 107.618,578.755 108.517,579.605C109.267,580.404 110.217,580.904 111.266,581.104C111.516,581.154 111.816,581.154 112.116,581.154L112.766,581.154C114.015,581.054 115.115,580.554 115.964,579.605C116.414,579.205 116.764,578.755 117.014,578.255C117.314,577.655 117.514,577.006 117.564,576.306C117.514,577.755 118.014,579.005 119.013,579.954C120.063,581.004 121.312,581.504 122.762,581.504L122.912,581.504C124.361,581.504 125.561,581.004 126.51,579.954C127.56,579.005 128.06,577.755 128.11,576.306L128.06,570.108C128.01,570.008 127.91,569.908 127.81,569.859L128.06,569.859L128.06,557.863C128.06,557.414 128.01,557.014 127.96,556.664C127.91,556.464 127.86,556.264 127.81,556.114C127.66,555.714 127.56,555.364 127.41,555.015L127.36,554.915C127.36,554.765 127.36,554.665 127.31,554.565L127.16,554.365L126.51,553.665L127.16,554.365C125.511,549.917 122.962,547.418 119.563,546.918L119.563,546.917ZM107.118,556.963L107.118,557.613L107.018,557.563C107.018,557.213 107.068,556.913 107.118,556.663C107.118,556.763 107.118,556.863 107.118,556.963Z" style="fill:rgb(206,153,101);fill-rule:nonzero;"/>
                <path d="M107.118,557.613L107.118,556.963C107.118,556.863 107.118,556.763 107.118,556.663C107.068,556.913 107.018,557.213 107.018,557.563L107.118,557.613Z" style="fill:rgb(77,95,109);fill-rule:nonzero;"/>
                <path d="M118.264,546.467C118.713,546.567 119.113,546.717 119.563,546.917C122.962,547.417 125.511,549.916 127.16,554.364L127.61,554.814L137.156,564.26C138.156,565.31 138.655,566.51 138.605,567.959C138.655,569.408 138.156,570.608 137.156,571.657L137.056,571.707C136.006,572.757 134.757,573.257 133.308,573.307C132.058,573.257 130.908,572.807 129.959,571.957L128.06,570.108L128.11,576.306C128.06,577.755 127.56,579.005 126.51,579.954C125.561,581.004 124.361,581.504 122.912,581.504L122.762,581.504C121.312,581.504 120.063,581.004 119.013,579.954C118.014,579.005 117.514,577.755 117.564,576.306C117.514,577.006 117.314,577.655 117.014,578.255C116.764,578.755 116.414,579.205 115.964,579.605C115.115,580.554 114.015,581.054 112.766,581.154C112.616,581.154 112.516,581.154 112.366,581.154L112.116,581.154L111.266,581.154L111.266,709.003L164.295,709.003L164.295,498.437L118.264,498.437L118.264,546.468L118.264,546.467Z" style="fill:rgb(0,51,102);fill-rule:nonzero;"/>
                <path d="M127.61,554.814L127.16,554.364L127.31,554.564C127.36,554.664 127.36,554.764 127.36,554.914L127.41,555.014L127.61,554.814Z" style="fill:rgb(103,43,33);fill-rule:nonzero;"/>
                <path d="M127.61,554.814L127.41,555.014C127.56,555.364 127.66,555.714 127.81,556.114C127.86,556.264 127.91,556.464 127.96,556.663C128.01,557.013 128.06,557.413 128.06,557.863L128.06,570.108L129.959,571.957C130.909,572.807 132.058,573.257 133.308,573.307C134.757,573.257 136.007,572.757 137.056,571.708L137.156,571.658C138.156,570.608 138.655,569.408 138.605,567.959C138.655,566.51 138.156,565.31 137.156,564.261L127.61,554.814Z" style="fill:rgb(181,119,57);fill-rule:nonzero;"/>
                <path d="M127.16,554.364L126.51,553.665L127.16,554.364Z" style="fill:rgb(234,152,133);fill-rule:nonzero;"/>
                <path d="M107.018,575.956C106.968,576.106 106.968,576.256 107.018,576.405C107.068,576.256 107.068,576.156 107.118,576.006C107.068,575.956 107.068,575.956 107.018,575.956Z" style="fill:rgb(77,95,109);fill-rule:nonzero;"/>
                <path d="M128.06,570.108L128.06,569.858L127.81,569.858C127.91,569.908 128.01,570.008 128.06,570.108Z" style="fill:rgb(77,95,109);fill-rule:nonzero;"/>
                <path d="M112.116,581.154C111.816,581.154 111.516,581.154 111.266,581.104L111.266,581.154L112.116,581.154Z" style="fill:rgb(58,150,173);fill-rule:nonzero;"/>
                <rect x="107.168" y="671.517" width="4.098" height="0.05" style="fill:rgb(58,150,173);fill-rule:nonzero;"/>
                <path d="M128.31,755.284L116.814,755.284L116.814,759.282L158.997,759.282L158.997,758.832C158.897,757.933 158.747,757.083 158.497,756.284C157.748,753.485 156.398,750.986 154.449,748.787C153.999,748.337 153.599,747.937 153.15,747.537C150.301,744.988 147.002,743.689 143.254,743.689C141.004,743.689 138.955,744.138 137.056,744.988C136.206,745.388 135.407,745.838 134.657,746.388C134.607,746.438 134.557,746.438 134.507,746.488C133.857,746.937 133.258,747.487 132.708,748.037C132.458,748.287 132.258,748.537 132.058,748.787C130.759,750.236 129.759,751.785 129.009,753.435C128.809,753.785 128.659,754.185 128.509,754.584C128.459,754.834 128.359,755.034 128.31,755.284Z" style="fill:rgb(115,115,117);fill-rule:nonzero;"/>
                <path d="M116.814,755.284L128.31,755.284C128.359,755.034 128.459,754.834 128.509,754.584C128.659,754.184 128.809,753.785 129.009,753.435C129.759,751.785 130.759,750.236 132.058,748.787C132.258,748.537 132.458,748.287 132.708,748.037C133.258,747.487 133.857,746.937 134.507,746.487L134.507,709.002L116.814,709.002L116.814,755.284Z" style="fill:rgb(206,153,101);fill-rule:nonzero;"/>
                <path d="M248.661,383.883L235.667,380.934C234.367,388.381 232.068,394.578 228.769,399.626C226.62,402.925 224.021,405.674 220.972,407.923C213.425,412.871 202.03,414.47 186.886,412.771C180.089,412.021 172.542,410.572 164.295,408.523C164.195,408.473 164.095,408.473 163.995,408.473C163.845,408.423 163.645,408.373 163.495,408.323C163.595,408.823 163.645,409.372 163.695,409.922L163.695,423.217C163.795,423.217 163.895,423.217 163.995,423.267C164.095,423.267 164.195,423.267 164.345,423.317C171.692,425.066 178.589,426.316 184.937,426.965C203.729,428.915 218.274,426.166 228.519,418.719C235.367,414.271 240.565,407.873 244.163,399.626C246.162,394.978 247.662,389.73 248.661,383.883Z" style="fill:rgb(152,31,1);fill-rule:nonzero;"/>
                <path d="M154.799,709.002L137.056,709.002L137.056,744.988C138.955,744.138 141.004,743.689 143.254,743.689C147.002,743.689 150.301,744.988 153.15,747.537C153.699,746.987 154.249,746.537 154.799,746.138L154.799,709.003L154.799,709.002Z" style="fill:rgb(181,119,57);fill-rule:nonzero;"/>
                <path d="M178.789,755.834C178.09,753.035 176.74,750.536 174.791,748.387C171.642,744.988 167.894,743.289 163.545,743.289C160.247,743.289 157.348,744.238 154.799,746.138C154.249,746.537 153.699,746.987 153.15,747.537C153.599,747.937 153.999,748.337 154.449,748.787C156.398,750.986 157.748,753.485 158.497,756.284C158.747,757.083 158.897,757.933 158.997,758.833L179.339,758.833C179.239,757.783 179.039,756.783 178.789,755.834Z" style="fill:rgb(81,81,81);fill-rule:nonzero;"/>
                <path d="M158.997,759.282C158.997,759.132 158.997,758.982 158.997,758.832L158.997,759.282Z" style="fill:rgb(153,102,153);fill-rule:nonzero;"/>
            </g>
        </g>
    </g>
</svg>
