<?xml version="1.0" encoding="UTF-8" standalone="no"?>
<!DOCTYPE svg PUBLIC "-//W3C//DTD SVG 1.1//EN" "http://www.w3.org/Graphics/SVG/1.1/DTD/svg11.dtd">
<svg width="100%" height="100%" viewBox="0 0 217 514" version="1.1" xmlns="http://www.w3.org/2000/svg" xmlns:xlink="http://www.w3.org/1999/xlink" xml:space="preserve" style="fill-rule:evenodd;clip-rule:evenodd;stroke-linecap:round;stroke-linejoin:round;stroke-miterlimit:1.41421;">
    <g transform="matrix(1,0,0,1,-231,-39)">
        <g transform="matrix(1,0,0,1,0,-162)">
            <g id="Female-1-Laptop" transform="matrix(1,0,0,1,-81.9596,-45.8085)">
                <path d="M370.013,250.986C364.865,252.835 360.067,255.484 355.619,258.833C353.17,260.682 350.77,262.731 348.521,265.03C347.272,266.23 346.122,267.479 345.073,268.729C345.023,268.779 344.973,268.779 344.923,268.829C338.525,276.276 334.277,284.622 332.228,293.869C331.228,298.217 330.728,302.815 330.728,307.663C330.978,307.613 331.278,307.563 331.528,307.513L332.578,307.513C336.076,307.513 339.075,308.763 341.524,311.212C342.174,311.861 342.974,313.461 343.823,315.96C344.173,315.86 344.573,315.76 344.923,315.61C355.469,311.861 360.317,300.466 359.567,281.424C359.617,281.873 359.667,282.323 359.817,282.773C361.066,287.821 364.715,292.519 370.862,296.767C378.759,302.215 389.205,304.914 402.25,304.814L451.78,304.814C451.08,289.37 445.183,276.126 434.137,265.03C422.292,253.185 407.998,247.287 391.254,247.287C383.657,247.287 376.56,248.537 370.013,250.986Z" style="fill:rgb(133,36,3);fill-rule:nonzero;"/>
                <path d="M359.817,282.773C359.667,282.323 359.617,281.873 359.567,281.424C360.317,300.466 355.469,311.861 344.923,315.61C344.573,315.76 344.173,315.86 343.823,315.96C342.974,313.461 342.174,311.861 341.524,311.212C339.075,308.763 336.076,307.513 332.578,307.513L331.528,307.513C331.278,307.563 330.978,307.613 330.728,307.663C330.529,307.663 330.329,307.663 330.179,307.713C327.68,308.163 325.481,309.312 323.581,311.212C321.082,313.711 319.833,316.71 319.833,320.258C319.833,323.507 320.932,326.356 323.132,328.755C323.281,328.905 323.431,329.055 323.581,329.205C325.83,331.454 328.479,332.653 331.528,332.903C331.778,332.903 331.978,332.903 332.228,332.953C332.328,332.903 332.428,332.903 332.578,332.953C333.677,332.903 334.727,332.753 335.776,332.503L335.826,332.503C337.976,337.201 340.874,341.6 344.523,345.748C344.673,345.898 344.773,346.098 344.923,346.248C345.673,346.997 346.422,347.797 347.222,348.547C350.521,351.845 354.219,354.644 358.267,356.993L358.317,356.993C358.767,357.293 359.267,357.593 359.817,357.893C365.265,361.042 371.112,363.191 377.36,364.341L377.36,374.736C377.36,375.486 377.46,376.186 377.61,376.886C377.96,378.635 378.859,380.134 380.259,381.484C382.108,383.433 384.357,384.383 387.006,384.383L387.056,384.383C389.705,384.383 392.004,383.433 393.903,381.484C395.253,380.134 396.102,378.635 396.502,376.886C396.652,376.186 396.702,375.486 396.702,374.736L396.702,370.138C396.702,369.788 396.702,369.439 396.702,369.089C396.652,368.839 396.652,368.589 396.602,368.339L396.602,366.99L396.602,364.641C398.501,364.391 400.401,363.991 402.25,363.541C407.698,362.192 412.846,359.992 417.644,356.994C421.592,354.545 425.341,351.496 428.839,347.897C429.539,347.198 430.189,346.498 430.838,345.748C434.387,341.8 437.336,337.551 439.585,333.053C440.784,330.604 441.834,328.155 442.684,325.606C443.183,324.157 443.633,322.707 443.983,321.258C444.833,317.809 445.383,314.261 445.633,310.612C445.732,309.063 445.782,307.564 445.782,306.014C445.782,305.614 445.782,305.214 445.782,304.815L402.7,304.815C402.55,304.815 402.4,304.815 402.25,304.815C389.205,304.915 378.759,302.216 370.862,296.768C364.715,292.52 361.066,287.821 359.817,282.773ZM331.528,315.86C331.778,315.81 331.978,315.76 332.228,315.71C332.478,315.66 332.728,315.66 332.978,315.66C334.477,315.66 335.776,316.16 336.826,317.209C337.876,318.309 338.425,319.608 338.425,321.158C338.425,322.657 337.876,323.907 336.826,324.956C336.576,325.206 336.276,325.406 336.026,325.606C335.277,326.156 334.477,326.456 333.527,326.556L333.477,326.556C333.327,326.556 333.128,326.556 332.978,326.556C332.728,326.556 332.478,326.556 332.228,326.506C331.978,326.456 331.778,326.406 331.528,326.356C331.128,326.256 330.728,326.106 330.379,325.956C330.229,325.856 330.079,325.756 329.929,325.656C329.629,325.406 329.329,325.206 329.079,324.956C328.03,323.907 327.53,322.657 327.53,321.158C327.53,319.608 328.03,318.309 329.079,317.209C329.629,316.66 330.229,316.31 330.878,316.06C330.978,316.01 331.078,315.96 331.178,315.91C331.278,315.86 331.378,315.86 331.528,315.86ZM402.25,311.711C402.85,312.361 403.15,313.111 403.15,314.01L403.15,319.608C403.15,320.508 402.85,321.258 402.25,321.907L402.2,321.957C401.55,322.607 400.8,322.907 399.851,322.957C398.951,322.907 398.202,322.607 397.552,321.957C396.902,321.308 396.552,320.558 396.552,319.608L396.552,314.01C396.552,313.061 396.902,312.311 397.552,311.661C398.202,311.012 398.951,310.712 399.851,310.712C400.801,310.712 401.55,311.012 402.2,311.661L402.25,311.711ZM411.846,311.062C412.096,310.812 412.396,310.662 412.746,310.712L419.643,310.712C419.993,310.662 420.343,310.812 420.593,311.062C420.842,311.312 420.942,311.661 420.942,312.011C420.942,312.361 420.842,312.661 420.593,312.911C420.343,313.161 419.993,313.311 419.643,313.361L412.746,313.361C412.396,313.311 412.096,313.161 411.846,312.911C411.546,312.661 411.396,312.361 411.446,312.011C411.396,311.662 411.546,311.312 411.846,311.062ZM373.611,312.911C373.361,312.661 373.211,312.361 373.261,312.011C373.211,311.661 373.361,311.312 373.611,311.062C373.861,310.812 374.211,310.662 374.561,310.712L381.458,310.712C381.808,310.662 382.108,310.812 382.408,311.062C382.658,311.312 382.758,311.661 382.808,312.011C382.758,312.361 382.658,312.661 382.408,312.911C382.108,313.161 381.808,313.311 381.458,313.361L374.561,313.361C374.211,313.311 373.861,313.161 373.611,312.911ZM371.412,327.705L419.093,327.705C418.443,332.953 416.194,337.501 412.296,341.45C410.497,343.199 408.597,344.648 406.548,345.748C405.149,346.498 403.699,347.097 402.25,347.547C400.001,348.197 397.702,348.497 395.253,348.497C391.104,348.497 387.356,347.597 383.957,345.748C381.908,344.648 380.009,343.199 378.26,341.45C374.311,337.501 372.062,332.953 371.412,327.705Z" style="fill:rgb(255,189,145);fill-rule:nonzero;"/>
                <path d="M332.228,315.71C331.978,315.76 331.778,315.81 331.528,315.86C331.378,315.86 331.278,315.86 331.178,315.91C331.078,315.96 330.978,316.01 330.878,316.06C330.229,316.31 329.629,316.659 329.079,317.209C328.03,318.309 327.53,319.608 327.53,321.158C327.53,322.657 328.03,323.907 329.079,324.956C329.329,325.206 329.629,325.406 329.929,325.656C330.079,325.756 330.229,325.856 330.379,325.956C330.728,326.106 331.128,326.256 331.528,326.356C331.778,326.406 331.978,326.456 332.228,326.506C332.478,326.556 332.728,326.556 332.978,326.556L333.527,326.556C334.477,326.456 335.277,326.156 336.026,325.606C336.276,325.406 336.576,325.206 336.826,324.956C337.876,323.907 338.425,322.657 338.425,321.158C338.425,319.609 337.876,318.309 336.826,317.209C335.776,316.16 334.477,315.66 332.978,315.66C332.728,315.66 332.478,315.66 332.228,315.71Z" style="fill:rgb(234,152,133);fill-rule:nonzero;"/>
                <path d="M403.15,314.01C403.15,313.111 402.85,312.361 402.25,311.711L402.2,311.661C401.55,311.012 400.8,310.712 399.851,310.712C398.951,310.712 398.202,311.012 397.552,311.661C396.902,312.311 396.552,313.061 396.552,314.01L396.552,319.608C396.552,320.558 396.902,321.308 397.552,321.957C398.202,322.607 398.951,322.907 399.851,322.957C400.801,322.907 401.55,322.607 402.2,321.957L402.25,321.907C402.85,321.258 403.15,320.508 403.15,319.608L403.15,314.01Z" style="fill:rgb(234,152,133);fill-rule:nonzero;"/>
                <path d="M412.746,310.712C412.396,310.662 412.096,310.812 411.846,311.062C411.546,311.312 411.396,311.661 411.446,312.011C411.396,312.361 411.546,312.661 411.846,312.911C412.096,313.161 412.396,313.311 412.746,313.361L419.643,313.361C419.993,313.311 420.343,313.161 420.593,312.911C420.842,312.661 420.942,312.361 420.942,312.011C420.942,311.662 420.842,311.312 420.593,311.062C420.343,310.812 419.993,310.662 419.643,310.712L412.746,310.712Z" style="fill:rgb(75,28,2);fill-rule:nonzero;"/>
                <path d="M373.261,312.011C373.211,312.361 373.361,312.661 373.611,312.911C373.861,313.161 374.211,313.311 374.561,313.361L381.458,313.361C381.808,313.311 382.108,313.161 382.408,312.911C382.658,312.661 382.758,312.361 382.808,312.011C382.758,311.662 382.658,311.312 382.408,311.062C382.108,310.812 381.808,310.662 381.458,310.712L374.561,310.712C374.211,310.662 373.861,310.812 373.611,311.062C373.361,311.312 373.211,311.662 373.261,312.011Z" style="fill:rgb(75,28,2);fill-rule:nonzero;"/>
                <path d="M419.093,327.705L371.412,327.705C372.062,332.953 374.311,337.501 378.26,341.45C380.009,343.199 381.908,344.648 383.957,345.748C387.356,347.597 391.104,348.497 395.253,348.497C397.702,348.497 400.001,348.197 402.25,347.547C403.699,347.097 405.149,346.498 406.548,345.748C408.597,344.648 410.497,343.199 412.296,341.45C416.194,337.501 418.443,332.953 419.093,327.705Z" style="fill:white;fill-rule:nonzero;"/>
                <path d="M332.578,332.953C332.428,332.903 332.328,332.903 332.228,332.953C331.978,332.903 331.778,332.903 331.528,332.903L331.528,346.348L313.485,346.348C313.485,351.995 315.535,356.843 319.633,360.892C322.632,363.941 326.08,365.84 330.029,366.639C330.079,366.639 330.179,366.639 330.229,366.639C330.679,366.739 331.078,366.789 331.528,366.839C331.778,366.889 331.978,366.889 332.228,366.939C332.528,366.939 332.828,366.939 333.128,366.989L377.36,366.989L377.36,364.34C371.112,363.191 365.265,361.042 359.817,357.893C359.267,357.593 358.767,357.293 358.317,356.993L358.267,356.993C354.219,354.644 350.521,351.846 347.222,348.547C346.422,347.797 345.673,346.998 344.923,346.248C344.773,346.098 344.673,345.898 344.523,345.748C340.874,341.6 337.976,337.201 335.826,332.503L335.776,332.503C334.727,332.753 333.677,332.903 332.578,332.953Z" style="fill:rgb(91,19,2);fill-rule:nonzero;"/>
                <path d="M449.081,313.011C448.032,311.961 446.882,311.162 445.633,310.612C445.383,314.26 444.833,317.809 443.983,321.258C443.633,322.707 443.183,324.156 442.684,325.606C441.834,328.155 440.784,330.604 439.585,333.053C439.935,333.103 440.335,333.103 440.734,333.103C441.884,333.053 442.934,332.903 443.983,332.653C445.233,332.303 446.382,331.804 447.432,331.054C447.682,330.854 447.982,330.654 448.231,330.404C448.481,330.154 448.781,329.904 449.081,329.654C449.631,329.005 450.131,328.405 450.581,327.755C451.83,325.856 452.48,323.707 452.48,321.358C452.48,319.458 452.08,317.709 451.28,316.11C450.73,315.01 450.031,313.961 449.081,313.011Z" style="fill:rgb(234,152,133);fill-rule:nonzero;"/>
                <path d="M443.983,332.653C442.934,332.903 441.884,333.053 440.734,333.103C440.335,333.103 439.935,333.103 439.585,333.053C437.336,337.551 434.387,341.799 430.838,345.748C430.189,346.498 429.539,347.197 428.839,347.897C425.341,351.496 421.592,354.544 417.644,356.993C412.846,359.992 407.698,362.191 402.25,363.541C400.401,363.991 398.501,364.39 396.602,364.64L396.602,366.989L442.384,366.989C442.934,366.939 443.433,366.889 443.983,366.839C444.483,366.79 444.983,366.69 445.483,366.64C449.431,365.84 452.88,363.941 455.928,360.892C459.977,356.844 461.976,351.995 462.026,346.348L443.983,346.348L443.983,332.653Z" style="fill:rgb(91,19,2);fill-rule:nonzero;"/>
                <path d="M373.961,373.437C373.711,373.787 373.461,374.186 373.261,374.586C372.812,375.336 372.462,376.086 372.212,376.885C371.962,377.635 371.762,378.435 371.612,379.234C371.412,380.184 371.312,381.134 371.312,382.183L371.312,394.728L388.006,384.632L403.399,393.379L403.399,382.183C403.399,381.084 403.299,380.034 403.1,378.985C402.9,377.935 402.6,376.985 402.25,376.036C402,375.536 401.8,375.036 401.55,374.586C401.3,374.187 401.1,373.787 400.85,373.437C400.251,372.487 399.551,371.638 398.751,370.838C398.102,370.188 397.402,369.589 396.702,369.089L396.702,374.736C396.702,375.486 396.652,376.186 396.502,376.886C396.102,378.635 395.253,380.134 393.903,381.484C392.004,383.433 389.705,384.383 387.056,384.383L387.006,384.383C384.357,384.383 382.108,383.433 380.259,381.484C378.859,380.134 377.96,378.635 377.61,376.886C377.46,376.186 377.36,375.486 377.36,374.737L377.36,369.689C376.91,370.038 376.46,370.388 376.06,370.838C375.211,371.638 374.511,372.488 373.961,373.437ZM398.251,379.034L398.251,378.885C398.251,378.935 398.251,378.984 398.251,379.034Z" style="fill:rgb(227,137,2);fill-rule:nonzero;"/>
                <path d="M398.251,378.885L398.251,379.034C398.251,378.984 398.251,378.935 398.251,378.885Z" style="fill:rgb(255,189,145);fill-rule:nonzero;"/>
                <path d="M403.1,378.984C403.299,380.034 403.399,381.084 403.399,382.183L403.399,393.379L388.006,384.632L371.312,394.728L371.312,382.183C371.312,381.134 371.412,380.184 371.612,379.234L363.315,379.534L363.365,460.002L363.365,478.045L410.796,478.045L410.796,427.815C414.245,427.715 417.244,426.416 419.743,423.917C420.193,423.417 420.643,422.917 420.992,422.367C422.642,420.118 423.491,417.569 423.541,414.62C423.541,410.972 422.292,407.873 419.743,405.324C417.244,402.875 414.245,401.576 410.796,401.526L410.796,385.482C410.647,381.734 408.497,379.535 404.249,378.985L403.1,378.985L403.1,378.984ZM391.304,424.216C388.855,426.665 385.956,427.865 382.508,427.865C379.059,427.865 376.16,426.665 373.711,424.216C372.662,423.217 371.862,422.117 371.312,420.968L393.703,420.968C393.104,422.117 392.304,423.217 391.304,424.216Z" style="fill:rgb(250,163,26);fill-rule:nonzero;"/>
                <path d="M382.508,427.865C385.956,427.865 388.855,426.665 391.304,424.216C392.304,423.217 393.104,422.117 393.703,420.968L371.312,420.968C371.862,422.117 372.662,423.217 373.711,424.216C376.16,426.666 379.059,427.865 382.508,427.865Z" style="fill:rgb(227,137,2);fill-rule:nonzero;"/>
                <path d="M363.315,379.534L363.365,379.534L363.315,379.534Z" style="fill:rgb(33,126,140);fill-rule:nonzero;"/>
                <path d="M363.315,379.534C353.769,379.534 349.021,384.282 349.021,393.829L349.021,460.002L363.365,460.002L363.315,379.534Z" style="fill:rgb(227,137,2);fill-rule:nonzero;"/>
                <path d="M363.365,460.002L349.021,460.002L349.021,535.522C347.422,535.922 346.072,536.521 344.923,537.271C343.573,538.171 342.624,539.37 341.974,540.87C341.924,541.17 341.824,541.47 341.774,541.819C341.524,542.919 341.324,544.019 341.124,545.118C341.124,545.168 341.124,545.268 341.124,545.318C341.074,545.468 341.074,545.618 341.124,545.768L341.074,564.71C341.074,565.76 341.324,566.66 341.774,567.459C341.974,567.809 342.224,568.159 342.574,568.459C343.223,569.159 344.023,569.658 344.923,569.908C345.373,570.008 345.922,570.058 346.472,570.108L346.572,570.108C348.022,570.058 349.271,569.508 350.271,568.459C351.07,567.709 351.57,566.86 351.82,565.81C351.77,565.66 351.77,565.46 351.82,565.31L351.87,565.36C351.87,565.51 351.87,565.66 351.82,565.81C351.92,567.11 352.42,568.209 353.319,569.109C354.369,570.158 355.669,570.658 357.168,570.658L357.668,570.658C359.017,570.608 360.117,570.058 361.016,569.109C361.766,568.359 362.266,567.459 362.516,566.46C362.566,566.21 362.616,565.91 362.616,565.66C362.616,567.16 363.116,568.409 364.165,569.409C365.215,570.458 366.514,571.008 368.014,571.008L368.164,571.008C369.663,571.008 370.912,570.458 371.912,569.409C372.962,568.409 373.511,567.16 373.511,565.66L373.511,559.313C373.411,559.213 373.311,559.113 373.262,559.063L373.511,559.063L373.511,546.718C373.461,546.268 373.411,545.818 373.361,545.418C373.312,545.218 373.262,545.019 373.212,544.869C373.062,544.469 372.962,544.119 372.812,543.769L372.712,543.669C372.712,543.519 372.712,543.369 372.662,543.269L371.912,542.37L372.562,543.069C370.813,538.471 368.214,535.922 364.665,535.422C364.265,535.223 363.815,535.073 363.366,534.923L363.366,478.045L363.366,460.003L363.365,460.002ZM351.87,545.768L351.87,546.418L351.82,546.368C351.82,546.018 351.82,545.718 351.87,545.418C351.87,545.568 351.87,545.668 351.87,545.768Z" style="fill:rgb(255,189,145);fill-rule:nonzero;"/>
                <path d="M351.87,546.417L351.87,545.768C351.87,545.668 351.87,545.568 351.87,545.418C351.82,545.718 351.82,546.018 351.82,546.368L351.87,546.418L351.87,546.417Z" style="fill:rgb(77,95,109);fill-rule:nonzero;"/>
                <path d="M349.021,535.522L349.021,515.18C348.022,518.329 347.072,521.378 346.222,524.376C346.172,524.426 346.172,524.426 346.172,524.476C345.872,525.476 345.573,526.476 345.323,527.475C345.173,527.875 345.073,528.275 344.923,528.725C343.773,532.873 342.824,536.921 341.974,540.87C342.624,539.37 343.573,538.171 344.923,537.271C346.072,536.522 347.422,535.922 349.021,535.522Z" style="fill:rgb(77,95,109);fill-rule:nonzero;"/>
                <path d="M363.365,534.922C363.815,535.072 364.265,535.222 364.665,535.422C368.213,535.922 370.812,538.471 372.562,543.069L382.858,553.265C383.907,554.314 384.357,555.614 384.307,557.113C384.357,558.563 383.907,559.812 382.858,560.862L382.758,560.962C381.708,562.011 380.409,562.511 378.909,562.561C377.56,562.511 376.41,562.061 375.411,561.212L373.511,559.312L373.511,565.66C373.511,567.159 372.962,568.409 371.912,569.408C370.912,570.458 369.663,571.008 368.164,571.008L368.014,571.008C366.514,571.008 365.215,570.458 364.165,569.408C363.116,568.409 362.616,567.159 362.616,565.66C362.616,565.91 362.566,566.21 362.516,566.46C362.266,567.459 361.766,568.359 361.016,569.109C360.117,570.058 359.017,570.608 357.668,570.658C357.518,570.658 357.418,570.658 357.318,570.658L357.168,570.658C355.669,570.658 354.369,570.158 353.319,569.109C352.42,568.209 351.92,567.109 351.82,565.81C351.57,566.859 351.07,567.709 350.271,568.459C349.271,569.508 348.022,570.058 346.572,570.108L346.472,570.108C345.922,570.058 345.373,570.008 344.923,569.908C344.023,569.658 343.223,569.159 342.574,568.459C342.224,568.159 341.974,567.809 341.774,567.459C341.324,566.66 341.074,565.76 341.074,564.71L341.124,545.768C341.074,545.618 341.074,545.468 341.124,545.318C341.124,545.268 341.124,545.168 341.124,545.118C338.475,558.763 337.726,570.908 338.775,581.554C338.975,583.603 339.225,585.602 339.475,587.651L434.537,587.651C437.586,542.919 429.689,506.384 410.796,478.045L363.365,478.045L363.365,534.923L363.365,534.922Z" style="fill:rgb(77,95,109);fill-rule:nonzero;"/>
                <path d="M373.211,544.868C373.261,545.018 373.311,545.218 373.361,545.418C373.411,545.818 373.461,546.268 373.511,546.717L373.511,559.312L375.411,561.212C376.41,562.061 377.56,562.511 378.909,562.561C380.409,562.511 381.708,562.011 382.758,560.962L382.858,560.862C383.907,559.812 384.357,558.563 384.307,557.113C384.357,555.614 383.907,554.314 382.858,553.265L372.562,543.069L371.912,542.369L372.662,543.269C372.712,543.369 372.712,543.519 372.712,543.669L372.812,543.769C372.962,544.119 373.062,544.469 373.212,544.868L373.211,544.868Z" style="fill:rgb(234,152,133);fill-rule:nonzero;"/>
                <path d="M373.261,559.062C373.311,559.112 373.411,559.212 373.511,559.312L373.511,559.062L373.262,559.062L373.261,559.062Z" style="fill:rgb(77,95,109);fill-rule:nonzero;"/>
                <path d="M384.357,596.697L384.357,587.651L366.114,587.651L366.114,587.701L384.357,596.697Z" style="fill:rgb(234,152,133);fill-rule:nonzero;"/>
                <path d="M405.249,587.651L387.006,587.651L387.006,745.788C388.955,744.838 391.054,744.388 393.353,744.438C397.202,744.438 400.601,745.738 403.549,748.387C404.099,747.837 404.699,747.337 405.249,746.937L405.249,587.651Z" style="fill:rgb(234,152,133);fill-rule:nonzero;"/>
                <path d="M351.82,565.81C351.87,565.66 351.87,565.51 351.87,565.36L351.82,565.31C351.77,565.46 351.77,565.66 351.82,565.81Z" style="fill:rgb(77,95,109);fill-rule:nonzero;"/>
                <path d="M384.357,596.697L366.114,587.701L366.114,756.334L377.96,756.334C378.01,756.084 378.11,755.834 378.21,755.634C378.309,755.234 378.459,754.834 378.659,754.434C379.409,752.685 380.459,751.136 381.808,749.686C382.058,749.436 382.258,749.186 382.508,748.937C383.058,748.337 383.707,747.787 384.357,747.337L384.357,596.697Z" style="fill:rgb(255,189,145);fill-rule:nonzero;"/>
                <path d="M429.939,756.933C429.239,754.084 427.89,751.535 425.84,749.286C422.642,745.738 418.793,743.988 414.295,743.988C410.896,743.988 407.898,744.988 405.249,746.937C404.699,747.337 404.099,747.837 403.549,748.387C403.999,748.737 404.449,749.186 404.899,749.686C406.948,751.935 408.297,754.484 409.047,757.383C409.297,758.233 409.447,759.083 409.547,759.982L430.489,759.982C430.389,758.933 430.189,757.883 429.939,756.933Z" style="fill:rgb(64,64,64);fill-rule:nonzero;"/>
                <path d="M409.047,757.383C408.297,754.484 406.948,751.935 404.899,749.686C404.449,749.186 403.999,748.737 403.549,748.387C400.601,745.738 397.202,744.438 393.353,744.438C391.054,744.388 388.955,744.838 387.006,745.788C386.156,746.138 385.307,746.637 384.507,747.187C384.457,747.237 384.407,747.287 384.357,747.337C383.707,747.787 383.058,748.337 382.508,748.937C382.258,749.186 382.058,749.436 381.808,749.686C380.459,751.136 379.409,752.685 378.659,754.434C378.459,754.834 378.31,755.234 378.21,755.634C378.11,755.834 378.01,756.084 377.96,756.334L366.114,756.334L366.164,760.432L409.597,760.432C409.547,760.282 409.547,760.132 409.547,759.982C409.447,759.083 409.297,758.233 409.047,757.383Z" style="fill:rgb(102,102,102);fill-rule:nonzero;"/>
                <path d="M419.093,327.705C418.443,332.953 416.194,337.501 412.296,341.45C410.497,343.199 408.597,344.648 406.548,345.748C405.149,346.498 403.699,347.097 402.25,347.547C400.001,348.197 397.702,348.497 395.253,348.497C391.104,348.497 387.356,347.597 383.957,345.748C381.908,344.648 380.009,343.199 378.26,341.45C374.311,337.501 372.062,332.953 371.412,327.705L419.093,327.705Z" style="fill:none;stroke:rgb(234,152,133);stroke-width:3px;"/>
                <path d="M467.646,366.19L461.389,366.19C460.332,366.398 459.362,366.731 458.481,367.273C456.322,368.523 454.647,370.774 453.458,374.024L439.71,428.95C439.578,429.409 439.666,429.867 439.886,430.284C440.106,430.742 440.459,431.034 440.855,431.159C440.899,431.201 440.944,431.201 440.988,431.201L441.384,431.201C441.516,431.159 441.693,431.117 441.869,431.034C441.957,431.076 442.045,431.117 442.177,431.159C442.221,431.201 442.265,431.201 442.309,431.201L442.706,431.201C442.926,431.159 443.103,431.076 443.323,430.951C443.719,430.742 444.028,430.409 444.16,429.95L457.952,374.733C459.847,369.148 463.107,366.314 467.646,366.189L467.646,366.19Z" style="fill:rgb(115,115,117);fill-rule:nonzero;"/>
                <path d="M523.828,366.19L467.646,366.19C463.108,366.315 459.847,369.148 457.952,374.733L444.16,429.951C444.028,430.409 443.719,430.742 443.323,430.951C443.103,431.076 442.926,431.159 442.706,431.201L512.459,431.201C513.12,431.201 513.737,431.326 514.31,431.617C514.31,431.451 514.31,431.284 514.354,431.117L529.336,371.357C529.688,368.065 527.837,366.356 523.828,366.189L523.828,366.19ZM494.041,393.903C492.939,394.778 491.617,395.236 490.075,395.236C488.533,395.236 487.211,394.778 486.109,393.903C485.007,392.986 484.435,391.861 484.435,390.569C484.435,389.277 485.007,388.235 486.109,387.36C487.211,386.443 488.533,385.985 490.075,385.985C491.617,385.985 492.939,386.443 494.041,387.36C495.142,388.235 495.671,389.277 495.671,390.569C495.671,391.861 495.142,392.986 494.041,393.903Z" style="fill:rgb(36,35,77);fill-rule:nonzero;"/>
                <path d="M490.075,395.236C491.617,395.236 492.939,394.778 494.041,393.903C495.142,392.986 495.671,391.861 495.671,390.569C495.671,389.277 495.142,388.235 494.041,387.36C492.939,386.443 491.617,385.985 490.075,385.985C488.533,385.985 487.211,386.443 486.109,387.36C485.007,388.235 484.435,389.277 484.435,390.569C484.435,391.861 485.007,392.986 486.109,393.903C487.211,394.778 488.533,395.236 490.075,395.236Z" style="fill:rgb(204,204,204);fill-rule:nonzero;"/>
                <path d="M516.161,441.286C517.174,440.161 517.659,438.785 517.659,437.16L517.659,437.077C517.703,435.618 517.262,434.326 516.425,433.284C516.337,433.159 516.249,433.034 516.161,432.909C515.588,432.284 514.971,431.868 514.31,431.617C513.737,431.326 513.12,431.201 512.459,431.201L442.706,431.201L442.309,431.201L441.384,431.201L440.988,431.201L437.727,431.201C437.286,431.201 436.846,431.201 436.449,431.242C437.595,431.409 438.608,431.951 439.489,432.909C440.503,434.034 440.987,435.451 440.987,437.077L440.987,437.16C440.987,438.785 440.503,440.161 439.489,441.286C438.74,442.077 437.903,442.578 436.978,442.828L513.649,442.828C514.574,442.619 515.411,442.077 516.16,441.286L516.161,441.286Z" style="fill:rgb(22,15,66);fill-rule:nonzero;"/>
                <path d="M378.461,431.201C377.007,431.201 375.773,431.784 374.76,432.909C373.746,434.035 373.261,435.451 373.261,437.077L373.261,437.16C373.261,438.785 373.746,440.161 374.76,441.286C375.509,442.078 376.346,442.619 377.271,442.828L436.978,442.828C437.903,442.578 438.74,442.078 439.489,441.286C440.503,440.161 440.988,438.785 440.988,437.16L440.988,437.077C440.988,435.451 440.503,434.034 439.489,432.909C438.608,431.951 437.595,431.409 436.449,431.242C436.229,431.201 436.052,431.201 435.832,431.201C435.788,431.201 435.788,431.201 435.744,431.201L378.461,431.201Z" style="fill:rgb(115,115,117);fill-rule:nonzero;"/>
                <path d="M441.384,431.201L442.31,431.201C442.265,431.201 442.221,431.201 442.177,431.159C442.045,431.117 441.957,431.076 441.869,431.034C441.693,431.117 441.516,431.159 441.384,431.201Z" style="fill:rgb(36,35,77);fill-rule:nonzero;"/>
                <path d="M409.592,457.778L409.592,442.732L453.328,442.732L443.559,457.778L409.592,457.778Z" style="fill:rgb(234,152,133);fill-rule:nonzero;"/>
                <path d="M443.559,457.778L453.328,442.732L460.342,442.732C460.292,442.378 460.292,442.024 460.292,441.626C460.292,437.289 462.046,433.571 465.502,430.518C468.959,427.465 473.168,425.916 478.077,425.916C482.987,425.916 487.195,427.465 490.652,430.518C494.109,433.571 495.862,437.289 495.862,441.626C495.862,443.617 495.512,445.431 494.76,447.157C494.76,454.238 490.752,457.778 482.736,457.778L443.559,457.778Z" style="fill:rgb(255,189,145);fill-rule:nonzero;"/>
            </g>
        </g>
    </g>
</svg>
