<?xml version="1.0" encoding="UTF-8" standalone="no"?>
<!DOCTYPE svg PUBLIC "-//W3C//DTD SVG 1.1//EN" "http://www.w3.org/Graphics/SVG/1.1/DTD/svg11.dtd">
<svg width="100%" height="100%" viewBox="0 0 135 552" version="1.1" xmlns="http://www.w3.org/2000/svg" xmlns:xlink="http://www.w3.org/1999/xlink" xml:space="preserve" style="fill-rule:evenodd;clip-rule:evenodd;stroke-linejoin:round;stroke-miterlimit:1.41421;">
    <g transform="matrix(1,0,0,1,-2045,-20)">
        <g transform="matrix(1,0,0,1,0,-162)">
            <g id="Male-1" transform="matrix(1,0,0,1,1475.62,-27.5665)">
                <path d="M595.573,238.791L590.325,238.791C586.326,238.791 582.928,240.29 580.129,243.239C577.33,246.238 575.93,249.836 575.98,254.084C575.93,258.283 577.33,261.881 580.129,264.83C580.779,265.48 581.428,266.08 582.128,266.629C582.678,265.58 583.377,264.63 584.277,263.781C586.426,261.631 588.975,260.432 591.924,260.282L591.924,259.332C592.174,247.337 598.172,241.14 609.867,240.74L668.593,240.74C669.343,240.69 670.043,240.59 670.743,240.54C673.541,240.19 676.14,239.64 678.539,238.891C680.938,243.839 682.138,249.287 682.188,255.134L682.188,259.782C684.787,260.082 687.036,261.232 688.985,263.181C690.035,264.181 690.835,265.28 691.434,266.48C692.034,265.98 692.634,265.43 693.234,264.83C695.983,261.882 697.382,258.283 697.382,254.085C697.382,249.836 695.983,246.238 693.234,243.239C690.385,240.29 686.986,238.791 683.038,238.791L678.739,238.791C690.585,234.892 697.282,225.446 698.781,210.502L623.711,210.502C609.017,211.202 600.021,218.499 596.672,232.393C596.172,234.393 595.823,236.542 595.573,238.791L595.573,238.841L595.573,238.791ZM594.723,240.74L594.623,240.74L594.673,240.74C594.723,240.69 594.723,240.69 594.723,240.74Z" style="fill:rgb(66,35,17);fill-rule:nonzero;"/>
                <path d="M591.924,259.332L591.924,296.967L609.467,296.967C609.767,294.119 610.966,291.62 613.066,289.52C615.565,287.021 618.563,285.772 622.112,285.772L631.158,285.772L631.158,284.223C631.108,282.773 631.658,281.524 632.708,280.474C633.757,279.424 634.957,278.925 636.406,278.925C637.856,278.925 639.105,279.424 640.155,280.474C641.204,281.524 641.704,282.773 641.704,284.223L641.704,285.772L651.35,285.772C654.899,285.772 657.898,287.021 660.397,289.52C662.496,291.62 663.695,294.119 664.045,296.967L682.188,296.967L682.188,288.371L682.188,283.823L682.188,259.782L682.188,255.134C682.138,249.287 680.938,243.839 678.539,238.891C676.14,239.64 673.541,240.19 670.743,240.54C670.043,240.59 669.343,240.69 668.593,240.74L609.867,240.74C598.172,241.14 592.174,247.337 591.924,259.333L591.924,259.332ZM625.361,281.224C624.811,281.723 624.161,281.973 623.411,281.923C622.662,281.873 622.062,281.573 621.612,281.024C621.112,280.474 620.862,279.824 620.912,279.024C620.912,278.325 621.162,277.725 621.712,277.275C622.262,276.775 622.912,276.525 623.661,276.525C624.411,276.575 625.061,276.875 625.561,277.425C626.06,277.975 626.31,278.625 626.26,279.424C626.21,280.124 625.91,280.724 625.361,281.224ZM650.451,278.025C650.95,278.575 651.2,279.224 651.15,280.024C651.1,280.774 650.85,281.374 650.301,281.823C649.701,282.323 649.001,282.573 648.252,282.523C647.502,282.523 646.952,282.223 646.502,281.673C646.003,281.124 645.753,280.474 645.803,279.674C645.853,278.925 646.102,278.325 646.652,277.875C647.202,277.375 647.802,277.125 648.551,277.125C649.301,277.175 649.951,277.475 650.451,278.025Z" style="fill:rgb(227,186,142);fill-rule:nonzero;"/>
                <path d="M623.411,281.923C624.161,281.973 624.811,281.723 625.361,281.224C625.91,280.724 626.21,280.124 626.26,279.424C626.31,278.625 626.06,277.975 625.561,277.425C625.061,276.875 624.411,276.575 623.661,276.525C622.912,276.525 622.262,276.775 621.712,277.275C621.162,277.725 620.912,278.325 620.912,279.024C620.863,279.824 621.112,280.474 621.612,281.024C622.062,281.573 622.662,281.873 623.411,281.923Z" style="fill-rule:nonzero;"/>
                <path d="M651.15,280.024C651.2,279.224 650.95,278.575 650.451,278.025C649.951,277.475 649.301,277.175 648.551,277.125C647.802,277.125 647.202,277.375 646.652,277.875C646.102,278.325 645.852,278.925 645.802,279.674C645.752,280.474 646.002,281.124 646.502,281.673C646.952,282.223 647.502,282.523 648.251,282.523C649.001,282.573 649.701,282.323 650.301,281.823C650.85,281.374 651.1,280.774 651.15,280.024Z" style="fill-rule:nonzero;"/>
                <path d="M591.924,260.282C588.975,260.432 586.426,261.631 584.277,263.781C583.377,264.63 582.678,265.58 582.128,266.629L582.078,266.679C581.178,268.379 580.729,270.278 580.729,272.377C580.729,275.726 581.928,278.625 584.277,281.024C586.426,283.173 588.975,284.323 591.924,284.522L591.924,260.282Z" style="fill:rgb(206,153,101);fill-rule:nonzero;"/>
                <path d="M580.728,272.377C580.728,270.278 581.178,268.379 582.078,266.679L569.833,266.679C570.383,270.928 571.432,274.526 573.081,277.525C576.68,284.222 582.978,287.871 591.924,288.471L591.924,284.522C588.975,284.322 586.426,283.173 584.277,281.024C581.928,278.625 580.728,275.726 580.728,272.377Z" style="fill:rgb(66,35,17);fill-rule:nonzero;"/>
                <path d="M609.467,296.967L591.924,296.967L591.924,316.41C591.924,323.657 593.723,330.254 597.372,336.102C598.321,337.651 599.471,339.2 600.721,340.65C601.97,342.099 603.319,343.549 604.819,344.898C606.718,346.647 608.717,348.247 610.817,349.596C613.965,351.645 617.364,353.245 620.912,354.444C621.212,354.544 621.512,354.644 621.862,354.744C626.31,356.094 631.108,356.743 636.156,356.743L639.705,356.743C644.553,356.593 649.151,355.744 653.449,354.294C654.699,353.845 655.948,353.395 657.198,352.845C660.347,351.446 663.296,349.696 666.044,347.547C667.094,346.698 668.144,345.848 669.193,344.898C672.242,342.149 674.741,339.251 676.69,336.102C680.339,330.254 682.138,323.657 682.188,316.41L682.188,296.967L664.045,296.967C663.695,294.119 662.496,291.62 660.397,289.52C657.898,287.021 654.899,285.772 651.35,285.772L641.704,285.772L641.704,291.67C641.704,293.119 641.204,294.368 640.155,295.418C639.155,296.418 637.956,296.917 636.556,296.967L636.306,296.967C634.907,296.917 633.707,296.418 632.708,295.418C631.658,294.368 631.108,293.119 631.158,291.67L631.158,285.772L622.112,285.772C618.563,285.772 615.565,287.021 613.066,289.52C610.967,291.62 609.767,294.119 609.467,296.967ZM654.299,302.665C653.849,306.563 652.15,309.962 649.251,312.861C645.752,316.31 641.554,318.059 636.656,318.059C631.758,318.059 627.56,316.31 624.111,312.861C621.162,309.962 619.463,306.564 619.013,302.665L654.299,302.665Z" style="fill:rgb(66,35,17);fill-rule:nonzero;"/>
                <path d="M649.251,312.861C652.15,309.962 653.849,306.564 654.299,302.665L619.013,302.665C619.463,306.564 621.162,309.962 624.111,312.861C627.56,316.31 631.758,318.059 636.656,318.059C641.554,318.059 645.752,316.31 649.251,312.861Z" style="fill:white;fill-rule:nonzero;"/>
                <path d="M688.985,263.181C687.036,261.232 684.787,260.082 682.188,259.782L682.188,283.823C684.787,283.473 687.036,282.323 688.985,280.374C691.334,278.025 692.534,275.126 692.584,271.777C692.534,269.928 692.184,268.229 691.484,266.679C691.434,266.63 691.434,266.53 691.434,266.48C690.834,265.28 690.035,264.181 688.985,263.181Z" style="fill:rgb(206,153,101);fill-rule:nonzero;"/>
                <path d="M688.985,280.374C687.036,282.323 684.787,283.473 682.188,283.823L682.188,288.371C694.683,287.271 701.78,280.024 703.529,266.679L691.484,266.68C692.184,268.229 692.534,269.928 692.584,271.777C692.534,275.126 691.334,278.025 688.985,280.374Z" style="fill:rgb(66,35,17);fill-rule:nonzero;"/>
                <path d="M631.158,284.222L631.158,291.669C631.108,293.119 631.658,294.368 632.708,295.418C633.707,296.418 634.907,296.917 636.306,296.967L636.556,296.967C637.956,296.917 639.155,296.418 640.155,295.418C641.204,294.368 641.704,293.119 641.704,291.67L641.704,285.772L641.704,284.223C641.704,282.773 641.204,281.524 640.155,280.474C639.105,279.424 637.856,278.925 636.406,278.925C634.957,278.925 633.757,279.424 632.708,280.474C631.658,281.524 631.108,282.773 631.158,284.223L631.158,284.222Z" style="fill:rgb(234,152,133);fill-rule:nonzero;"/>
                <path d="M661.146,361.891C662.296,361.342 663.545,360.992 664.895,360.892L653.449,360.892L653.25,373.287L653.15,373.537C652.95,374.486 652.9,374.836 653,374.686C653,374.636 653,374.586 653,374.536C653.05,374.436 653.05,374.386 653.1,374.336C653.15,374.137 653.2,373.937 653.25,373.737C653.25,373.637 653.25,373.537 653.3,373.437L653.449,372.387L653.449,372.937C653.449,372.837 653.449,372.737 653.499,372.687C653.549,372.487 653.599,372.237 653.649,371.987L653.749,371.937C655.998,366.49 658.447,363.141 661.146,361.891Z" style="fill:rgb(122,152,1);fill-rule:nonzero;"/>
                <path d="M664.895,360.892C663.545,360.992 662.296,361.342 661.146,361.891C658.447,363.141 655.998,366.49 653.749,371.937C653.699,372.087 653.649,372.187 653.649,372.337C653.599,372.387 653.599,372.487 653.549,372.587C653.499,372.637 653.499,372.637 653.499,372.687C653.449,372.737 653.449,372.837 653.449,372.937L653.449,373.037L653.399,373.037C653.35,373.287 653.3,373.487 653.25,373.737C653.2,373.937 653.15,374.137 653.1,374.337C653.05,374.487 653.05,374.586 653,374.736C652.95,374.986 652.9,375.236 652.85,375.536L652.9,375.086C652.85,375.336 652.8,375.536 652.75,375.786L650.001,385.982L638.355,428.915C639.505,429.065 640.455,429.565 641.304,430.414C642.304,431.414 642.804,432.613 642.804,434.013L642.804,442.709C642.804,444.109 642.304,445.308 641.304,446.308C640.255,447.308 639.055,447.807 637.656,447.857C636.256,447.807 635.057,447.308 634.057,446.308C633.008,445.308 632.508,444.109 632.508,442.709L632.508,434.013C632.508,432.613 633.008,431.414 634.057,430.414C634.857,429.565 635.806,429.065 636.906,428.915L625.261,385.982L622.512,375.786C622.312,374.837 622.112,373.887 621.862,373.037C621.712,372.638 621.612,372.288 621.512,371.938C619.763,366.29 616.914,362.792 613.066,361.442L607.568,360.892L600.87,360.892L600.87,372.038L596.172,372.038L596.172,372.638C596.322,372.638 596.522,372.638 596.722,372.638L596.722,521.228L676.29,521.228L676.29,454.355L676.29,372.188C676.44,372.188 676.59,372.188 676.74,372.188L676.74,372.038L674.391,372.038L674.391,360.892L664.895,360.892ZM653.649,497.587C653.649,497.037 653.849,496.537 654.249,496.138C654.649,495.738 655.099,495.538 655.648,495.588L670.093,495.588C670.642,495.538 671.092,495.738 671.492,496.138C671.892,496.538 672.092,497.037 672.092,497.587L672.092,497.637C672.092,498.187 671.892,498.637 671.492,499.037C671.092,499.436 670.642,499.636 670.093,499.636L655.648,499.636C655.099,499.636 654.649,499.436 654.249,499.037C653.849,498.637 653.649,498.187 653.649,497.637L653.649,497.587ZM618.613,495.588C619.163,495.538 619.613,495.738 620.013,496.138C620.413,496.537 620.612,497.037 620.612,497.587L620.612,497.637C620.612,498.187 620.413,498.637 620.013,499.036C619.613,499.436 619.163,499.636 618.613,499.636L604.169,499.636C603.619,499.636 603.169,499.436 602.82,499.036C602.37,498.637 602.17,498.187 602.17,497.637L602.17,497.587C602.17,497.037 602.37,496.538 602.82,496.138C603.169,495.738 603.619,495.538 604.169,495.588L618.613,495.588ZM662.896,511.531L662.696,511.531L662.696,511.332L662.896,511.531ZM667.444,506.883L667.644,507.033C667.694,507.083 667.594,507.133 667.444,507.233L667.444,506.883Z" style="fill:rgb(153,204,0);fill-rule:nonzero;"/>
                <path d="M654.249,496.138C653.849,496.537 653.649,497.037 653.649,497.587L653.649,497.637C653.649,498.187 653.849,498.637 654.249,499.036C654.649,499.436 655.099,499.636 655.648,499.636L670.093,499.636C670.642,499.636 671.092,499.436 671.492,499.036C671.892,498.637 672.092,498.187 672.092,497.637L672.092,497.587C672.092,497.037 671.892,496.538 671.492,496.138C671.092,495.738 670.642,495.538 670.093,495.588L655.648,495.588C655.099,495.538 654.649,495.738 654.249,496.138Z" style="fill:rgb(122,152,1);fill-rule:nonzero;"/>
                <path d="M620.013,496.138C619.613,495.738 619.163,495.538 618.613,495.588L604.169,495.588C603.619,495.538 603.17,495.738 602.82,496.138C602.37,496.538 602.17,497.037 602.17,497.587L602.17,497.637C602.17,498.187 602.37,498.637 602.82,499.037C603.17,499.436 603.619,499.636 604.169,499.636L618.613,499.636C619.163,499.636 619.613,499.436 620.013,499.037C620.413,498.637 620.613,498.187 620.613,497.637L620.613,497.587C620.613,497.037 620.413,496.538 620.013,496.138Z" style="fill:rgb(122,152,1);fill-rule:nonzero;"/>
                <path d="M667.644,507.033L667.444,506.883L667.444,507.233C667.594,507.133 667.694,507.083 667.644,507.033Z" style="fill:rgb(122,152,1);fill-rule:nonzero;"/>
                <path d="M676.74,372.187C676.59,372.187 676.44,372.187 676.29,372.187L676.29,454.354L690.784,454.354L690.784,386.831C690.784,377.285 686.136,372.387 676.79,372.187L676.74,372.187Z" style="fill:rgb(122,152,1);fill-rule:nonzero;"/>
                <path d="M638.355,356.743C638.205,356.743 638.106,356.743 638.006,356.743L636.156,356.743C631.108,356.743 626.31,356.094 621.862,354.744L621.862,373.037C622.112,373.887 622.312,374.836 622.512,375.786L625.261,385.982L650.001,385.982L652.75,375.786C652.8,375.536 652.85,375.336 652.9,375.086C652.95,374.936 652.95,374.836 653,374.736L653,374.686C652.9,374.836 652.95,374.486 653.15,373.537L653.25,373.287L653.449,360.892L653.449,354.295C649.151,355.744 644.553,356.594 639.705,356.744C639.255,356.744 638.805,356.744 638.356,356.744L638.355,356.743Z" style="fill:rgb(206,153,101);fill-rule:nonzero;"/>
                <path d="M621.512,371.937C621.612,372.287 621.712,372.637 621.862,373.037L621.862,360.892L607.568,360.892L613.066,361.442C616.914,362.791 619.763,366.29 621.512,371.937Z" style="fill:rgb(122,152,1);fill-rule:nonzero;"/>
                <path d="M653.749,371.937L653.649,371.987C653.599,372.237 653.549,372.487 653.499,372.687C653.499,372.637 653.499,372.637 653.549,372.587C653.599,372.487 653.599,372.387 653.649,372.337C653.649,372.187 653.699,372.087 653.749,371.937Z" style="fill:rgb(216,163,121);fill-rule:nonzero;"/>
                <path d="M653.449,372.937L653.449,372.387L653.299,373.437C653.25,373.537 653.25,373.637 653.25,373.737C653.3,373.487 653.35,373.287 653.399,373.037C653.399,372.987 653.399,372.987 653.449,372.937Z" style="fill:rgb(206,153,101);fill-rule:nonzero;"/>
                <path d="M652.9,375.086L652.85,375.536C652.9,375.236 652.95,374.986 653,374.736C652.95,374.836 652.95,374.936 652.9,375.086Z" style="fill:rgb(122,152,1);fill-rule:nonzero;"/>
                <path d="M650.001,385.982L625.261,385.982L636.906,428.914C637.156,428.865 637.406,428.865 637.656,428.865C637.906,428.865 638.106,428.865 638.355,428.914L650.001,385.982Z" style="fill:white;fill-rule:nonzero;"/>
                <path d="M634.057,430.414C633.008,431.414 632.508,432.613 632.508,434.012L632.508,442.709C632.508,444.108 633.008,445.308 634.057,446.308C635.057,447.307 636.256,447.807 637.656,447.857C639.055,447.807 640.255,447.307 641.304,446.308C642.304,445.308 642.804,444.108 642.804,442.709L642.804,434.013C642.804,432.613 642.304,431.414 641.304,430.414C640.455,429.564 639.505,429.065 638.355,428.915C638.106,428.865 637.906,428.865 637.656,428.865C637.406,428.865 637.156,428.865 636.906,428.915C635.806,429.065 634.857,429.564 634.057,430.414ZM635.257,434.262C635.207,433.563 635.457,433.013 635.906,432.563C636.356,432.063 636.956,431.813 637.656,431.863C638.355,431.813 638.955,432.063 639.405,432.563C639.855,433.013 640.105,433.563 640.105,434.262C640.105,434.962 639.855,435.562 639.405,436.012C638.955,436.462 638.355,436.711 637.656,436.711C636.956,436.712 636.356,436.462 635.906,436.012C635.456,435.562 635.207,434.962 635.257,434.263L635.257,434.262Z" style="fill:rgb(102,102,102);fill-rule:nonzero;"/>
                <path d="M635.906,432.563C635.457,433.013 635.207,433.563 635.257,434.262C635.207,434.962 635.457,435.562 635.906,436.012C636.356,436.462 636.956,436.711 637.656,436.711C638.355,436.711 638.955,436.462 639.405,436.012C639.855,435.562 640.105,434.962 640.105,434.262C640.105,433.563 639.855,433.013 639.405,432.563C638.955,432.063 638.355,431.813 637.656,431.863C636.956,431.813 636.356,432.063 635.906,432.563Z" style="fill:rgb(153,204,0);fill-rule:nonzero;"/>
                <path d="M690.784,454.354L676.29,454.354L676.29,553.065L674.791,553.065C671.192,553.615 668.493,556.214 666.744,560.912L667.444,560.162L666.644,561.062C666.594,561.212 666.594,561.362 666.544,561.512L666.494,561.612C666.344,561.961 666.194,562.311 666.094,562.711C666.044,562.911 665.994,563.111 665.944,563.311C665.844,563.711 665.794,564.161 665.794,564.61L665.794,577.205L666.094,577.205C665.944,577.305 665.844,577.405 665.794,577.455L665.745,583.953C665.795,585.502 666.344,586.802 667.444,587.851C668.443,588.901 669.693,589.45 671.242,589.45L671.392,589.45C672.942,589.45 674.241,588.901 675.341,587.851C676.34,586.802 676.84,585.502 676.89,583.953C676.94,585.352 677.49,586.552 678.539,587.501C679.539,588.551 680.789,589.101 682.338,589.101L682.488,589.101C684.037,589.101 685.337,588.551 686.436,587.501C687.336,586.552 687.836,585.452 687.936,584.103C687.886,583.953 687.886,583.853 687.836,583.703C687.886,583.653 687.936,583.603 687.986,583.603C687.986,583.753 687.986,583.953 687.936,584.103C688.186,585.152 688.685,586.102 689.485,586.852C690.485,587.951 691.734,588.501 693.284,588.501L693.433,588.501C694.983,588.501 696.282,587.951 697.382,586.852C698.381,585.802 698.881,584.553 698.881,583.003L698.881,563.661L698.881,563.011C698.581,561.562 698.282,560.112 697.982,558.663C696.732,555.864 694.333,554.065 690.785,553.215L690.785,454.355L690.784,454.354ZM687.836,564.31L687.836,563.661C687.836,563.561 687.836,563.461 687.836,563.311C687.886,563.611 687.936,563.911 687.936,564.26L687.836,564.31Z" style="fill:rgb(227,186,142);fill-rule:nonzero;"/>
                <path d="M632.508,535.572L642.204,535.572L642.204,747.887L655.499,747.887L655.499,747.737L655.499,578.155C654.949,577.305 654.699,576.306 654.749,575.256C654.699,574.157 654.949,573.157 655.499,572.307L655.499,535.572L663.345,535.572L663.345,527.525L609.617,527.525L609.617,533.323L610.267,535.572L619.213,535.572L619.213,747.887L632.508,747.887L632.508,747.737L632.508,535.572Z" style="fill:rgb(2,100,149);fill-rule:nonzero;"/>
                <path d="M663.345,527.525L676.29,527.525L676.29,521.228L596.722,521.228L596.722,527.525L663.345,527.525Z" style="fill:rgb(122,152,1);fill-rule:nonzero;"/>
                <path d="M596.722,372.637C596.522,372.637 596.322,372.637 596.172,372.637C586.826,372.837 582.178,377.685 582.228,387.231L582.228,454.804L596.722,454.804L596.722,372.637Z" style="fill:rgb(122,152,1);fill-rule:nonzero;"/>
                <path d="M596.722,454.804L582.228,454.804L582.228,553.615C578.579,554.464 576.18,556.264 574.981,559.063C574.631,560.512 574.331,561.961 574.081,563.411L574.081,583.403C574.081,584.952 574.581,586.202 575.581,587.251C576.68,588.351 578.03,588.901 579.579,588.901L579.679,588.901C581.178,588.901 582.428,588.351 583.477,587.251C584.277,586.502 584.777,585.602 585.027,584.552C584.977,584.402 584.977,584.203 585.027,584.053C585.077,584.053 585.077,584.053 585.127,584.103C585.077,584.253 585.077,584.402 585.027,584.552C585.127,585.852 585.627,586.951 586.576,587.901C587.626,588.951 588.925,589.5 590.475,589.5L590.675,589.5C592.174,589.5 593.423,588.951 594.423,587.901C595.423,586.952 595.972,585.752 596.072,584.403C596.072,585.952 596.622,587.201 597.672,588.251C598.721,589.301 600.071,589.85 601.62,589.85L601.72,589.85C603.22,589.85 604.469,589.301 605.519,588.251C606.618,587.201 607.168,585.952 607.218,584.403L607.168,577.905C607.068,577.805 606.968,577.705 606.868,577.605L607.168,577.605L607.168,565.01C607.168,564.561 607.118,564.111 607.018,563.711C606.968,563.511 606.918,563.311 606.868,563.161C606.718,562.761 606.618,562.362 606.468,562.012L606.418,561.912C606.368,561.762 606.368,561.612 606.318,561.512L605.519,560.562L606.218,561.312C604.469,556.664 601.77,554.065 598.172,553.515L596.722,553.515L596.722,527.526L596.722,521.228L596.722,454.805L596.722,454.804ZM585.127,564.71L585.027,564.66C585.027,564.31 585.077,564.01 585.127,563.711L585.127,564.71Z" style="fill:rgb(227,186,142);fill-rule:nonzero;"/>
                <path d="M606.368,561.461L606.318,561.511C606.368,561.611 606.368,561.761 606.418,561.911L606.468,562.011C606.618,562.361 606.718,562.761 606.868,563.161C606.918,563.311 606.968,563.511 607.018,563.711C607.118,564.111 607.168,564.56 607.168,565.01L607.168,577.905L609.117,579.804C610.167,580.754 611.316,581.204 612.666,581.204C614.215,581.204 615.515,580.654 616.614,579.554L616.714,579.504C617.764,578.405 618.313,577.105 618.263,575.656C618.313,574.107 617.764,572.807 616.714,571.758L606.368,561.462L606.368,561.461Z" style="fill:rgb(206,153,101);fill-rule:nonzero;"/>
                <path d="M606.318,561.511L606.368,561.461L606.218,561.312L605.519,560.562L606.318,561.512L606.318,561.511Z" style="fill:rgb(234,152,133);fill-rule:nonzero;"/>
                <path d="M666.644,561.062L666.594,561.012L656.248,571.308C655.948,571.607 655.699,571.957 655.499,572.307C654.949,573.157 654.699,574.156 654.749,575.256C654.699,576.306 654.949,577.305 655.499,578.155C655.699,578.455 655.948,578.755 656.248,579.105L656.348,579.155C657.398,580.204 658.747,580.754 660.297,580.804C661.646,580.754 662.796,580.304 663.845,579.404L665.794,577.455L665.794,577.205L665.794,564.61C665.794,564.161 665.844,563.711 665.944,563.311C665.994,563.111 666.044,562.911 666.094,562.711C666.194,562.311 666.344,561.962 666.494,561.612L666.544,561.512C666.594,561.362 666.594,561.212 666.644,561.062Z" style="fill:rgb(206,153,101);fill-rule:nonzero;"/>
                <path d="M677.04,742.539C676.99,742.539 676.99,742.539 676.94,742.539C676.14,742.389 675.341,742.339 674.491,742.389C673.691,742.339 672.892,742.389 672.142,742.489C672.042,742.489 671.942,742.489 671.842,742.539C670.992,742.639 670.193,742.839 669.393,743.089L669.343,743.089C669.293,743.089 669.193,743.089 669.143,743.139C668.443,743.339 667.744,743.589 667.094,743.889C666.544,744.138 665.994,744.388 665.445,744.738C664.095,745.538 662.796,746.538 661.646,747.737L655.499,747.737L655.499,747.887L642.204,747.887L642.204,747.737L642.204,756.534L692.834,756.534C691.884,753.585 690.385,750.986 688.236,748.637C687.986,748.287 687.686,747.987 687.436,747.737C686.836,747.187 686.236,746.638 685.637,746.188C685.587,746.138 685.587,746.138 685.537,746.088C684.437,745.238 683.288,744.538 682.088,743.989C681.938,743.939 681.838,743.889 681.738,743.839C680.239,743.189 678.689,742.789 677.04,742.539Z" style="fill:rgb(77,95,109);fill-rule:nonzero;"/>
                <path d="M693.283,758.133C693.133,757.583 692.984,757.033 692.834,756.533L642.204,756.533L642.204,761.431L693.783,761.431C693.683,760.282 693.533,759.182 693.283,758.133Z" style="fill:rgb(255,102,0);fill-rule:nonzero;"/>
                <path d="M619.213,747.887L619.213,747.737L613.765,747.737C612.566,746.537 611.316,745.538 609.967,744.738C609.417,744.388 608.817,744.138 608.268,743.889C607.618,743.589 606.918,743.339 606.268,743.139C606.218,743.089 606.118,743.089 606.068,743.089L606.018,743.089C605.219,742.839 604.369,742.639 603.519,742.539C603.419,742.489 603.32,742.489 603.27,742.489C602.52,742.389 601.72,742.339 600.92,742.389C600.071,742.339 599.271,742.389 598.471,742.539C598.421,742.539 598.421,742.539 598.372,742.539C596.722,742.789 595.123,743.189 593.673,743.839C593.573,743.889 593.473,743.939 593.324,743.989C592.124,744.538 590.974,745.238 589.875,746.088C589.825,746.138 589.825,746.138 589.775,746.188C589.175,746.638 588.575,747.187 588.026,747.737C587.726,747.987 587.426,748.287 587.176,748.637C585.027,750.986 583.527,753.585 582.578,756.534L633.208,756.534L633.208,747.737L632.508,747.737L632.508,747.887L619.213,747.887Z" style="fill:rgb(77,95,109);fill-rule:nonzero;"/>
                <path d="M633.207,761.431L633.207,756.533L582.578,756.533C582.378,757.033 582.228,757.583 582.128,758.133C581.878,759.182 581.678,760.282 581.578,761.431L633.208,761.431L633.207,761.431Z" style="fill:rgb(255,102,0);fill-rule:nonzero;"/>
                <path d="M679.089,372.187L679.089,372.037L677.34,372.037C677.94,372.087 678.539,372.137 679.089,372.187Z" style="fill:rgb(153,204,0);fill-rule:nonzero;"/>
            </g>
        </g>
    </g>
</svg>
