<?xml version="1.0" encoding="UTF-8" standalone="no"?>
<!DOCTYPE svg PUBLIC "-//W3C//DTD SVG 1.1//EN" "http://www.w3.org/Graphics/SVG/1.1/DTD/svg11.dtd">
<svg width="100%" height="100%" viewBox="0 0 237 552" version="1.1" xmlns="http://www.w3.org/2000/svg" xmlns:xlink="http://www.w3.org/1999/xlink" xml:space="preserve" style="fill-rule:evenodd;clip-rule:evenodd;stroke-linejoin:round;stroke-miterlimit:1.41421;">
    <g transform="matrix(1,0,0,1,-2221,-20)">
        <g transform="matrix(1,0,0,1,0,-162)">
            <g id="Male-1-Laptop" transform="matrix(1,0,0,1,1939.04,-27.5665)">
                <path d="M282.698,266.679C283.248,270.928 284.297,274.526 285.946,277.525C289.545,284.222 295.842,287.871 304.789,288.471L304.789,284.522C301.84,284.322 299.291,283.173 297.142,281.024C294.743,278.625 293.543,275.726 293.543,272.377C293.543,270.278 293.993,268.379 294.943,266.68L282.698,266.68L282.698,266.679Z" style="fill:rgb(66,35,17);fill-rule:nonzero;"/>
                <path d="M395.902,238.791L391.604,238.791C403.449,234.892 410.147,225.446 411.646,210.502L336.576,210.502C321.832,211.202 312.836,218.499 309.537,232.393C309.037,234.392 308.687,236.542 308.437,238.791L308.437,238.841L308.437,238.791L303.19,238.791C299.191,238.791 295.792,240.29 292.994,243.239C290.195,246.238 288.795,249.836 288.845,254.085C288.795,258.283 290.195,261.881 292.994,264.83C293.643,265.48 294.293,266.08 294.993,266.63C295.543,265.58 296.242,264.63 297.142,263.781C299.291,261.632 301.84,260.432 304.789,260.282L304.789,259.333C305.039,247.337 311.036,241.14 322.732,240.74L381.458,240.74C382.208,240.69 382.908,240.59 383.607,240.54C386.406,240.19 389.005,239.641 391.404,238.891C393.803,243.839 395.003,249.287 395.053,255.134L395.053,259.782C397.652,260.082 399.901,261.232 401.85,263.181C402.85,264.181 403.649,265.28 404.249,266.48C404.899,265.98 405.499,265.43 406.098,264.83C408.847,261.882 410.197,258.283 410.197,254.085C410.197,249.836 408.847,246.238 406.098,243.239C403.25,240.29 399.851,238.791 395.903,238.791L395.902,238.791ZM307.588,240.74L307.488,240.74C307.538,240.69 307.588,240.69 307.588,240.74Z" style="fill:rgb(66,35,17);fill-rule:nonzero;"/>
                <path d="M343.973,284.222L343.973,291.669C343.973,293.119 344.523,294.368 345.573,295.418C346.522,296.418 347.722,296.917 349.121,296.967L349.421,296.967C350.82,296.917 352.02,296.418 353.02,295.418C354.069,294.368 354.569,293.119 354.569,291.67L354.569,285.772L354.569,284.223C354.569,282.773 354.069,281.524 353.02,280.474C351.97,279.424 350.72,278.925 349.271,278.925C347.822,278.925 346.622,279.424 345.573,280.474C344.523,281.524 343.973,282.773 343.973,284.223L343.973,284.222Z" style="fill:rgb(234,152,133);fill-rule:nonzero;"/>
                <path d="M343.973,285.772L343.973,284.222C343.973,282.773 344.523,281.524 345.573,280.474C346.622,279.424 347.822,278.925 349.271,278.925C350.72,278.925 351.97,279.424 353.02,280.474C354.069,281.524 354.569,282.773 354.569,284.222L354.569,285.772L364.215,285.772C367.714,285.772 370.712,287.021 373.211,289.52C375.361,291.619 376.56,294.118 376.86,296.967L395.053,296.967L395.053,288.371L395.053,283.823L395.053,259.782L395.053,255.134C395.003,249.286 393.803,243.839 391.404,238.891C389.005,239.64 386.406,240.19 383.607,240.54C382.908,240.59 382.208,240.69 381.458,240.74L322.732,240.74C311.036,241.14 305.039,247.337 304.789,259.333L304.789,296.967L322.332,296.967C322.582,294.119 323.781,291.62 325.93,289.52C328.379,287.021 331.428,285.772 334.977,285.772L343.973,285.772ZM338.225,281.224C337.676,281.723 337.026,281.973 336.276,281.923C335.527,281.873 334.927,281.573 334.477,281.024C333.977,280.474 333.727,279.824 333.727,279.024C333.777,278.325 334.027,277.725 334.577,277.275C335.127,276.775 335.776,276.525 336.526,276.525C337.276,276.575 337.876,276.875 338.375,277.425C338.925,277.975 339.175,278.625 339.125,279.424C339.075,280.124 338.775,280.724 338.225,281.224ZM358.667,279.674C358.717,278.925 358.967,278.325 359.517,277.875C360.067,277.375 360.667,277.125 361.416,277.125C362.166,277.175 362.766,277.475 363.265,278.025C363.815,278.575 364.065,279.224 364.015,280.024C363.965,280.774 363.715,281.374 363.166,281.823C362.566,282.323 361.866,282.573 361.116,282.523C360.367,282.523 359.817,282.223 359.367,281.674C358.867,281.124 358.617,280.474 358.667,279.674Z" style="fill:rgb(227,186,142);fill-rule:nonzero;"/>
                <path d="M336.276,281.923C337.026,281.973 337.676,281.723 338.225,281.224C338.775,280.724 339.075,280.124 339.125,279.424C339.175,278.625 338.925,277.975 338.375,277.425C337.876,276.875 337.276,276.575 336.526,276.525C335.776,276.525 335.127,276.775 334.577,277.275C334.027,277.725 333.777,278.325 333.727,279.024C333.727,279.824 333.977,280.474 334.477,281.024C334.927,281.573 335.527,281.873 336.276,281.923Z" style="fill-rule:nonzero;"/>
                <path d="M359.517,277.875C358.967,278.325 358.717,278.925 358.667,279.674C358.617,280.474 358.867,281.124 359.367,281.673C359.817,282.223 360.367,282.523 361.116,282.523C361.866,282.573 362.566,282.323 363.166,281.823C363.715,281.374 363.965,280.774 364.015,280.024C364.065,279.225 363.815,278.575 363.265,278.025C362.766,277.475 362.166,277.175 361.416,277.125C360.667,277.125 360.067,277.375 359.517,277.875Z" style="fill-rule:nonzero;"/>
                <path d="M343.973,285.772L334.977,285.772C331.428,285.772 328.379,287.021 325.93,289.52C323.781,291.619 322.582,294.118 322.332,296.967L304.789,296.967L304.789,316.41C304.789,323.657 306.588,330.254 310.237,336.102C311.186,337.651 312.336,339.201 313.585,340.65C314.835,342.099 316.184,343.549 317.684,344.898C319.583,346.648 321.582,348.247 323.681,349.596C326.83,351.646 330.229,353.245 333.777,354.444C334.077,354.544 334.377,354.644 334.727,354.744C339.175,356.094 343.923,356.744 348.971,356.744L352.57,356.744C357.418,356.594 362.016,355.744 366.314,354.295C367.564,353.845 368.813,353.395 370.063,352.845C373.162,351.446 376.11,349.697 378.909,347.547C379.959,346.698 381.008,345.848 382.058,344.898C385.107,342.15 387.606,339.251 389.555,336.102C393.204,330.254 395.003,323.657 395.053,316.41L395.053,296.968L376.86,296.968C376.56,294.119 375.361,291.62 373.212,289.521C370.713,287.022 367.714,285.772 364.215,285.772L354.569,285.772L354.569,291.67C354.569,293.119 354.069,294.369 353.02,295.418C352.02,296.418 350.821,296.918 349.421,296.968L349.121,296.968C347.722,296.918 346.522,296.418 345.573,295.418C344.523,294.369 343.973,293.119 343.973,291.67L343.973,285.772ZM367.164,302.665C366.664,306.563 364.965,309.962 362.116,312.861C358.617,316.31 354.419,318.059 349.521,318.059C344.623,318.059 340.425,316.31 336.976,312.861C334.027,309.962 332.328,306.564 331.878,302.665L367.164,302.665Z" style="fill:rgb(66,35,17);fill-rule:nonzero;"/>
                <path d="M362.116,312.861C364.965,309.962 366.664,306.564 367.164,302.665L331.878,302.665C332.328,306.564 334.027,309.962 336.976,312.861C340.425,316.31 344.623,318.059 349.521,318.059C354.419,318.059 358.617,316.31 362.116,312.861Z" style="fill:white;fill-rule:nonzero;"/>
                <path d="M304.789,260.282C301.84,260.432 299.291,261.631 297.142,263.781C296.242,264.63 295.543,265.58 294.993,266.629L294.943,266.679C293.993,268.379 293.543,270.278 293.543,272.377C293.543,275.726 294.743,278.625 297.142,281.024C299.291,283.173 301.84,284.323 304.789,284.522L304.789,260.282Z" style="fill:rgb(206,153,101);fill-rule:nonzero;"/>
                <path d="M401.85,263.181C399.901,261.232 397.652,260.082 395.053,259.782L395.053,283.823C397.652,283.473 399.901,282.323 401.85,280.374C404.199,278.025 405.399,275.126 405.399,271.777C405.399,269.928 405.049,268.229 404.349,266.679C404.299,266.63 404.299,266.53 404.249,266.48C403.649,265.28 402.85,264.181 401.85,263.181Z" style="fill:rgb(206,153,101);fill-rule:nonzero;"/>
                <path d="M401.85,280.374C399.901,282.323 397.652,283.473 395.053,283.823L395.053,288.371C407.548,287.271 414.645,280.024 416.344,266.679L404.349,266.68C405.049,268.229 405.399,269.928 405.399,271.777C405.399,275.126 404.199,278.025 401.85,280.374Z" style="fill:rgb(66,35,17);fill-rule:nonzero;"/>
                <path d="M374.011,361.891C375.161,361.342 376.41,360.992 377.76,360.892L366.314,360.892L366.064,373.287L366.014,373.537C365.814,374.486 365.764,374.836 365.864,374.686C365.864,374.636 365.864,374.586 365.864,374.536C365.864,374.436 365.864,374.386 365.914,374.336C365.964,374.137 366.014,373.937 366.064,373.737C366.114,373.637 366.114,373.537 366.164,373.437L366.314,372.387L366.314,372.937C366.314,372.837 366.314,372.737 366.364,372.687C366.414,372.487 366.464,372.237 366.514,371.987L366.564,371.937L366.614,371.937C368.863,366.49 371.312,363.141 374.011,361.892L374.011,361.891Z" style="fill:rgb(122,152,1);fill-rule:nonzero;"/>
                <path d="M377.76,360.892C376.41,360.992 375.161,361.342 374.011,361.891C371.312,363.141 368.863,366.49 366.614,371.937L366.564,371.937C366.514,372.087 366.514,372.187 366.514,372.337C366.464,372.387 366.414,372.487 366.414,372.587C366.364,372.637 366.364,372.637 366.364,372.687C366.314,372.737 366.314,372.837 366.314,372.937L366.314,373.037L366.264,373.037C366.214,373.187 366.164,373.287 366.164,373.437C366.114,373.537 366.114,373.637 366.064,373.737C366.014,373.937 365.964,374.137 365.914,374.337C365.864,374.487 365.864,374.586 365.864,374.736C365.814,375.036 365.714,375.386 365.665,375.786L365.764,375.086C365.714,375.336 365.665,375.536 365.615,375.786L362.866,385.982L351.22,428.915C352.37,429.065 353.319,429.565 354.169,430.414C355.169,431.414 355.669,432.613 355.669,434.013L355.669,442.709C355.669,444.109 355.169,445.308 354.169,446.308C353.12,447.308 351.92,447.807 350.521,447.857C349.121,447.807 347.922,447.308 346.922,446.308C345.872,445.308 345.373,444.109 345.373,442.709L345.373,434.013C345.373,432.613 345.872,431.414 346.922,430.414C347.722,429.565 348.671,429.065 349.771,428.915L338.126,385.982L335.377,375.786C335.177,374.837 334.927,373.887 334.677,373.037C334.577,372.638 334.477,372.288 334.377,371.938C332.578,366.29 329.779,362.792 325.93,361.442L320.433,360.892L313.735,360.892L313.735,372.038L309.037,372.038L309.037,372.638C309.187,372.638 309.387,372.638 309.587,372.638L309.587,521.228L389.605,521.228L389.605,372.038L387.256,372.038L387.256,360.892L377.76,360.892ZM315.635,496.138C316.034,495.738 316.484,495.538 317.034,495.588L331.478,495.588C332.028,495.538 332.478,495.738 332.878,496.138C333.227,496.538 333.427,497.037 333.477,497.587L333.477,497.637C333.427,498.187 333.227,498.637 332.878,499.037C332.478,499.436 332.028,499.636 331.478,499.636L317.034,499.636C316.484,499.636 316.034,499.436 315.635,499.037C315.235,498.637 315.035,498.187 315.035,497.637L315.035,497.587C315.035,497.037 315.235,496.538 315.635,496.138ZM366.514,497.637L366.514,497.587C366.514,497.037 366.714,496.537 367.114,496.138C367.514,495.738 367.964,495.538 368.513,495.588L382.958,495.588C383.507,495.538 383.957,495.738 384.357,496.138C384.707,496.538 384.907,497.037 384.957,497.587L384.957,497.637C384.907,498.187 384.707,498.637 384.357,499.037C383.957,499.436 383.507,499.636 382.958,499.636L368.513,499.636C367.964,499.636 367.514,499.436 367.114,499.037C366.714,498.637 366.514,498.187 366.514,497.637ZM380.509,507.033C380.559,507.083 380.459,507.133 380.309,507.233L380.309,506.883L380.509,507.033ZM375.561,511.332L375.76,511.531L375.561,511.531L375.561,511.332Z" style="fill:rgb(153,204,0);fill-rule:nonzero;"/>
                <path d="M317.034,495.588C316.484,495.538 316.034,495.738 315.635,496.138C315.235,496.537 315.035,497.037 315.035,497.587L315.035,497.637C315.035,498.187 315.235,498.637 315.635,499.036C316.034,499.436 316.484,499.636 317.034,499.636L331.478,499.636C332.028,499.636 332.478,499.436 332.878,499.036C333.227,498.637 333.427,498.187 333.477,497.637L333.477,497.587C333.427,497.037 333.227,496.538 332.878,496.138C332.478,495.738 332.028,495.538 331.478,495.588L317.034,495.588Z" style="fill:rgb(122,152,1);fill-rule:nonzero;"/>
                <path d="M366.514,497.587L366.514,497.637C366.514,498.187 366.714,498.637 367.114,499.036C367.514,499.436 367.964,499.636 368.513,499.636L382.958,499.636C383.507,499.636 383.957,499.436 384.357,499.036C384.707,498.637 384.907,498.187 384.957,497.637L384.957,497.587C384.907,497.037 384.707,496.538 384.357,496.138C383.957,495.738 383.507,495.538 382.958,495.588L368.513,495.588C367.964,495.538 367.514,495.738 367.114,496.138C366.714,496.538 366.514,497.037 366.514,497.587Z" style="fill:rgb(122,152,1);fill-rule:nonzero;"/>
                <path d="M380.309,507.233C380.459,507.133 380.559,507.083 380.509,507.033L380.309,506.883L380.309,507.233Z" style="fill:rgb(122,152,1);fill-rule:nonzero;"/>
                <path d="M366.314,360.892L366.314,354.294C362.016,355.744 357.418,356.593 352.57,356.743L350.82,356.743L348.971,356.743C343.923,356.743 339.175,356.094 334.727,354.744L334.727,373.037L334.677,373.037C334.927,373.887 335.177,374.836 335.377,375.786L338.126,385.982L362.866,385.982L365.615,375.786C365.665,375.536 365.714,375.336 365.764,375.086C365.764,374.936 365.814,374.836 365.864,374.736L365.864,374.686C365.764,374.836 365.814,374.486 366.014,373.537L366.064,373.287L366.314,360.892Z" style="fill:rgb(206,153,101);fill-rule:nonzero;"/>
                <path d="M334.377,371.937C334.477,372.287 334.577,372.637 334.677,373.037L334.727,373.037L334.727,360.892L320.433,360.892L325.93,361.442C329.779,362.791 332.578,366.29 334.377,371.937Z" style="fill:rgb(122,152,1);fill-rule:nonzero;"/>
                <path d="M366.564,371.937L366.514,371.987C366.464,372.237 366.414,372.487 366.364,372.687C366.364,372.637 366.364,372.637 366.414,372.587C366.414,372.487 366.464,372.387 366.514,372.337C366.514,372.187 366.514,372.087 366.564,371.937Z" style="fill:rgb(216,163,121);fill-rule:nonzero;"/>
                <path d="M366.564,371.937L366.614,371.937L366.564,371.937Z" style="fill:rgb(206,153,101);fill-rule:nonzero;"/>
                <path d="M366.314,372.937L366.314,372.387L366.164,373.437C366.164,373.287 366.214,373.187 366.264,373.037C366.264,372.987 366.264,372.987 366.314,372.937Z" style="fill:rgb(206,153,101);fill-rule:nonzero;"/>
                <path d="M365.764,375.086L365.665,375.786C365.714,375.386 365.814,375.036 365.864,374.736C365.814,374.836 365.764,374.936 365.764,375.086Z" style="fill:rgb(122,152,1);fill-rule:nonzero;"/>
                <path d="M362.866,385.982L338.126,385.982L349.771,428.914C350.021,428.865 350.271,428.865 350.521,428.865C350.77,428.865 350.97,428.865 351.22,428.914L362.866,385.982Z" style="fill:white;fill-rule:nonzero;"/>
                <path d="M309.587,372.637C309.387,372.637 309.187,372.637 309.037,372.637C299.691,372.837 295.043,377.685 295.043,387.231L295.043,454.804L309.587,454.804L309.587,372.637Z" style="fill:rgb(122,152,1);fill-rule:nonzero;"/>
                <path d="M350.521,428.865C350.271,428.865 350.021,428.865 349.771,428.914C348.671,429.064 347.722,429.564 346.922,430.414C345.872,431.414 345.373,432.613 345.373,434.012L345.373,442.709C345.373,444.108 345.872,445.308 346.922,446.308C347.922,447.307 349.121,447.807 350.521,447.857C351.92,447.807 353.12,447.307 354.169,446.308C355.169,445.308 355.669,444.108 355.669,442.709L355.669,434.013C355.669,432.613 355.169,431.414 354.169,430.414C353.319,429.564 352.37,429.065 351.22,428.915C350.97,428.865 350.77,428.865 350.521,428.865ZM348.771,436.012C348.321,435.562 348.072,434.962 348.122,434.262C348.072,433.563 348.321,433.013 348.771,432.563C349.221,432.063 349.821,431.813 350.521,431.863C351.22,431.813 351.82,432.063 352.27,432.563C352.72,433.013 352.97,433.563 352.97,434.262C352.97,434.962 352.72,435.562 352.27,436.012C351.82,436.462 351.22,436.711 350.521,436.711C349.821,436.712 349.221,436.462 348.771,436.012Z" style="fill:rgb(102,102,102);fill-rule:nonzero;"/>
                <path d="M348.122,434.262C348.072,434.962 348.321,435.562 348.771,436.012C349.221,436.462 349.821,436.711 350.521,436.711C351.22,436.711 351.82,436.462 352.27,436.012C352.72,435.562 352.97,434.962 352.97,434.262C352.97,433.563 352.72,433.013 352.27,432.563C351.82,432.063 351.22,431.813 350.521,431.863C349.821,431.813 349.221,432.063 348.771,432.563C348.321,433.013 348.072,433.563 348.122,434.262Z" style="fill:rgb(153,204,0);fill-rule:nonzero;"/>
                <path d="M309.587,454.804L295.043,454.804L295.043,553.615C291.444,554.464 289.045,556.264 287.846,559.063C287.496,560.512 287.196,561.961 286.946,563.411C286.946,563.461 286.946,563.561 286.946,563.611C286.896,563.761 286.896,563.911 286.946,564.111L286.946,583.403C286.896,584.952 287.396,586.202 288.445,587.251C289.545,588.351 290.844,588.901 292.394,588.901L292.544,588.901C294.043,588.901 295.293,588.351 296.342,587.251C297.142,586.502 297.642,585.602 297.892,584.552C297.842,584.402 297.842,584.203 297.842,584.053C297.892,584.053 297.942,584.053 297.992,584.103C297.942,584.253 297.942,584.402 297.892,584.552C297.992,585.852 298.491,586.951 299.441,587.901C300.491,588.951 301.79,589.5 303.339,589.5L303.489,589.5C305.039,589.5 306.288,588.951 307.288,587.901C308.287,586.952 308.837,585.752 308.937,584.403C308.937,585.952 309.437,587.201 310.487,588.251C311.586,589.301 312.886,589.85 314.435,589.85L314.585,589.85C316.084,589.85 317.334,589.301 318.383,588.251C319.483,587.201 320.033,585.952 320.083,584.403L320.033,577.905C319.933,577.805 319.833,577.705 319.733,577.605L320.033,577.605L320.033,565.01C320.033,564.561 319.983,564.111 319.883,563.711C319.833,563.511 319.783,563.311 319.733,563.161C319.583,562.761 319.483,562.362 319.333,562.012L319.283,561.912C319.233,561.762 319.233,561.612 319.183,561.512L318.383,560.562L319.083,561.312C317.334,556.664 314.635,554.065 311.036,553.515L309.587,553.515L309.587,527.526L309.587,521.228L309.587,454.805L309.587,454.804ZM297.892,564.66C297.892,564.31 297.942,564.01 297.992,563.711L297.992,564.71L297.892,564.66Z" style="fill:rgb(227,186,142);fill-rule:nonzero;"/>
                <path d="M309.587,521.228L309.587,527.525L389.605,527.525L389.605,521.228L309.587,521.228Z" style="fill:rgb(122,152,1);fill-rule:nonzero;"/>
                <path d="M322.482,527.525L322.482,533.323L323.132,535.572L332.028,535.572L332.028,747.887L345.323,747.887L345.323,747.737L345.323,535.572L355.069,535.572L355.069,747.887L368.363,747.887L368.363,747.737L368.363,577.055C368.114,576.456 368.014,575.806 368.064,575.106C368.014,574.356 368.114,573.707 368.363,573.107L368.363,535.572L376.21,535.572L376.21,527.525L322.482,527.525Z" style="fill:rgb(2,100,149);fill-rule:nonzero;"/>
                <path d="M319.083,561.312L318.383,560.562L319.183,561.511L319.233,561.462L319.083,561.312Z" style="fill:rgb(234,152,133);fill-rule:nonzero;"/>
                <path d="M319.233,561.461L319.183,561.511C319.233,561.611 319.233,561.761 319.283,561.911L319.333,562.011C319.483,562.361 319.583,562.761 319.733,563.161C319.783,563.311 319.833,563.511 319.883,563.711C319.983,564.111 320.033,564.56 320.033,565.01L320.033,577.905L321.982,579.804C323.032,580.754 324.181,581.204 325.531,581.204C327.08,581.204 328.379,580.654 329.479,579.554L329.579,579.504C330.629,578.405 331.178,577.105 331.128,575.656C331.178,574.107 330.629,572.807 329.579,571.758L319.233,561.462L319.233,561.461Z" style="fill:rgb(206,153,101);fill-rule:nonzero;"/>
                <path d="M406.148,758.133C405.998,757.583 405.848,757.033 405.698,756.533L355.069,756.533L355.069,761.431L406.648,761.431C406.548,760.282 406.398,759.182 406.148,758.133Z" style="fill:rgb(255,102,0);fill-rule:nonzero;"/>
                <path d="M405.698,756.533C404.749,753.585 403.249,750.986 401.1,748.637C400.8,748.287 400.501,747.987 400.251,747.737C399.701,747.187 399.101,746.637 398.501,746.188C398.451,746.138 398.451,746.138 398.401,746.088C397.302,745.238 396.152,744.538 394.953,743.988C394.803,743.939 394.703,743.889 394.603,743.839C393.104,743.189 391.554,742.789 389.905,742.539C389.855,742.539 389.855,742.539 389.805,742.539C389.005,742.389 388.206,742.339 387.356,742.389C386.506,742.339 385.757,742.389 385.007,742.489C384.907,742.489 384.807,742.489 384.707,742.539C383.857,742.639 383.058,742.839 382.258,743.089L382.208,743.089C382.108,743.089 382.058,743.089 382.008,743.139C381.308,743.339 380.609,743.589 379.959,743.889C379.409,744.139 378.859,744.388 378.31,744.738C376.96,745.538 375.661,746.538 374.511,747.737L368.364,747.737L368.364,747.887L355.069,747.887L355.069,747.737L355.069,756.534L405.699,756.534L405.698,756.533Z" style="fill:rgb(77,95,109);fill-rule:nonzero;"/>
                <path d="M345.323,747.737L345.323,747.887L332.028,747.887L332.028,747.737L326.58,747.737C325.431,746.537 324.181,745.538 322.832,744.738C322.282,744.388 321.682,744.138 321.132,743.889C320.483,743.589 319.783,743.339 319.083,743.139C319.033,743.089 318.983,743.089 318.933,743.089L318.883,743.089C318.084,742.839 317.234,742.639 316.384,742.539C316.284,742.489 316.184,742.489 316.134,742.489C315.385,742.389 314.585,742.339 313.785,742.389C312.936,742.339 312.086,742.389 311.336,742.539C311.286,742.539 311.236,742.539 311.236,742.539C309.587,742.789 307.988,743.189 306.538,743.839C306.388,743.889 306.288,743.939 306.188,743.989C304.939,744.538 303.789,745.238 302.69,746.088C302.64,746.138 302.64,746.138 302.64,746.188C301.99,746.638 301.39,747.187 300.84,747.737C300.591,747.987 300.291,748.287 300.041,748.637C297.892,750.986 296.342,753.585 295.393,756.534L346.072,756.534L346.072,747.737L345.323,747.737Z" style="fill:rgb(77,95,109);fill-rule:nonzero;"/>
                <path d="M346.072,761.431L346.072,756.533L295.393,756.533C295.243,757.033 295.093,757.583 294.993,758.133C294.743,759.182 294.543,760.282 294.443,761.431L346.072,761.431Z" style="fill:rgb(255,102,0);fill-rule:nonzero;"/>
                <path d="M391.954,372.037L390.205,372.037C390.804,372.087 391.404,372.137 391.954,372.187L391.954,372.037Z" style="fill:rgb(153,204,0);fill-rule:nonzero;"/>
                <path d="M379.959,560.962L380.808,560.012L380.109,560.762L379.909,560.912L379.959,560.962Z" style="fill:rgb(234,152,133);fill-rule:nonzero;"/>
                <path d="M455.018,361.491L448.627,361.491C447.547,361.704 446.557,362.045 445.657,362.598C443.452,363.875 441.742,366.173 440.526,369.493L426.485,425.591C426.35,426.059 426.44,426.528 426.665,426.953C426.89,427.421 427.25,427.719 427.655,427.847C427.7,427.89 427.745,427.89 427.79,427.89L428.195,427.89C428.33,427.847 428.51,427.805 428.69,427.719C428.78,427.762 428.87,427.805 429.005,427.847C429.05,427.89 429.095,427.89 429.14,427.89L429.545,427.89C429.77,427.847 429.95,427.762 430.175,427.634C430.58,427.421 430.895,427.081 431.03,426.613L445.117,370.217C447.052,364.513 450.382,361.619 455.018,361.491Z" style="fill:rgb(115,115,117);fill-rule:nonzero;"/>
                <path d="M512.399,361.491L455.018,361.491C450.383,361.619 447.052,364.513 445.117,370.217L431.03,426.613C430.895,427.081 430.58,427.422 430.175,427.634C429.95,427.762 429.77,427.847 429.545,427.89L500.788,427.89C501.463,427.89 502.093,428.017 502.678,428.315C502.678,428.145 502.678,427.975 502.723,427.805L518.025,366.769C518.385,363.407 516.495,361.662 512.399,361.491ZM481.976,389.796C480.851,390.69 479.501,391.158 477.926,391.158C476.35,391.158 475,390.69 473.875,389.796C472.75,388.859 472.165,387.71 472.165,386.391C472.165,385.071 472.75,384.007 473.875,383.113C475,382.177 476.35,381.709 477.926,381.709C479.501,381.709 480.851,382.177 481.976,383.113C483.101,384.007 483.641,385.071 483.641,386.391C483.641,387.71 483.101,388.859 481.976,389.796Z" style="fill:rgb(36,35,77);fill-rule:nonzero;"/>
                <path d="M477.926,391.158C479.501,391.158 480.851,390.69 481.976,389.796C483.101,388.859 483.641,387.71 483.641,386.391C483.641,385.071 483.101,384.007 481.976,383.113C480.851,382.177 479.501,381.709 477.926,381.709C476.35,381.709 475,382.177 473.875,383.113C472.75,384.007 472.165,385.071 472.165,386.391C472.165,387.71 472.75,388.859 473.875,389.796C475,390.69 476.35,391.158 477.926,391.158Z" style="fill:rgb(204,204,204);fill-rule:nonzero;"/>
                <path d="M504.569,438.19C505.604,437.041 506.099,435.636 506.099,433.976L506.099,433.891C506.144,432.401 505.694,431.082 504.839,430.018C504.749,429.89 504.659,429.762 504.569,429.635C503.983,428.996 503.353,428.571 502.678,428.315C502.093,428.017 501.463,427.89 500.788,427.89L429.545,427.89L429.14,427.89L428.195,427.89L427.79,427.89L424.46,427.89C424.01,427.89 423.56,427.89 423.154,427.932C424.325,428.102 425.36,428.656 426.26,429.635C427.295,430.784 427.79,432.231 427.79,433.891L427.79,433.976C427.79,435.636 427.295,437.041 426.26,438.19C425.495,438.998 424.64,439.509 423.695,439.765L502.003,439.765C502.948,439.552 503.803,438.998 504.568,438.19L504.569,438.19Z" style="fill:rgb(22,15,66);fill-rule:nonzero;"/>
                <path d="M363.928,427.89C362.443,427.89 361.183,428.486 360.147,429.635C359.112,430.784 358.617,432.231 358.617,433.891L358.617,433.976C358.617,435.636 359.112,437.041 360.147,438.19C360.913,438.999 361.768,439.552 362.713,439.765L423.694,439.765C424.64,439.509 425.495,438.999 426.26,438.19C427.295,437.041 427.79,435.636 427.79,433.976L427.79,433.891C427.79,432.231 427.295,430.784 426.26,429.635C425.36,428.656 424.324,428.102 423.154,427.932C422.929,427.89 422.749,427.89 422.524,427.89C422.479,427.89 422.479,427.89 422.434,427.89L363.928,427.89Z" style="fill:rgb(115,115,117);fill-rule:nonzero;"/>
                <path d="M428.195,427.89L429.14,427.89C429.095,427.89 429.05,427.89 429.005,427.847C428.87,427.805 428.78,427.762 428.69,427.719C428.51,427.805 428.33,427.847 428.195,427.89Z" style="fill:rgb(36,35,77);fill-rule:nonzero;"/>
                <path d="M389.555,454.806L424.212,454.806L434.215,439.449L389.555,439.449L389.555,454.806Z" style="fill:rgb(206,153,101);fill-rule:nonzero;"/>
                <path d="M434.215,439.449L424.212,454.806L464.224,454.806C472.403,454.806 476.522,451.217 476.522,443.98L476.581,443.98C477.287,442.214 477.64,440.331 477.64,438.331C477.64,433.918 475.875,430.093 472.344,426.975C468.755,423.856 464.518,422.267 459.517,422.267C454.515,422.267 450.22,423.856 446.631,426.975C443.1,430.093 441.335,433.918 441.335,438.331L441.335,438.449C441.335,438.802 441.335,439.155 441.394,439.449L434.215,439.449Z" style="fill:rgb(227,186,142);fill-rule:nonzero;"/>
            </g>
        </g>
    </g>
</svg>
