<?xml version="1.0" encoding="UTF-8" standalone="no"?>
<!DOCTYPE svg PUBLIC "-//W3C//DTD SVG 1.1//EN" "http://www.w3.org/Graphics/SVG/1.1/DTD/svg11.dtd">
<svg width="100%" height="100%" viewBox="0 0 236 552" version="1.1" xmlns="http://www.w3.org/2000/svg" xmlns:xlink="http://www.w3.org/1999/xlink" xml:space="preserve" style="fill-rule:evenodd;clip-rule:evenodd;stroke-linejoin:round;stroke-miterlimit:1.41421;">
    <g transform="matrix(1,0,0,1,-2489,-20)">
        <g transform="matrix(1,0,0,1,0,-162)">
            <g id="Male-1-OK-Hand" transform="matrix(1,0,0,1,2489.67,-27.5665)">
                <path d="M113.465,238.791L109.167,238.791C121.012,234.892 127.71,225.446 129.209,210.502L54.139,210.502C39.395,211.202 30.399,218.499 27.1,232.393C26.6,234.392 26.25,236.542 26,238.841L26,238.791L20.753,238.791C16.754,238.791 13.356,240.29 10.557,243.239C7.758,246.238 6.358,249.836 6.408,254.085C6.358,258.283 7.758,261.881 10.557,264.83C11.206,265.48 11.856,266.08 12.556,266.63C13.106,265.58 13.805,264.63 14.705,263.781C16.854,261.632 19.403,260.432 22.352,260.282L22.352,259.333C22.602,247.337 28.599,241.14 40.295,240.74L99.021,240.74C99.771,240.69 100.471,240.59 101.17,240.54C103.969,240.19 106.568,239.641 108.967,238.891C111.366,243.839 112.566,249.287 112.616,255.134L112.616,259.782C115.215,260.082 117.464,261.232 119.413,263.181C120.413,264.181 121.212,265.28 121.812,266.48C122.462,265.98 123.062,265.43 123.661,264.83C126.41,261.882 127.76,258.283 127.76,254.085C127.76,249.836 126.41,246.238 123.661,243.239C120.813,240.29 117.414,238.791 113.466,238.791L113.465,238.791ZM25.151,240.74L25.051,240.74C25.101,240.69 25.151,240.69 25.151,240.74Z" style="fill:rgb(66,35,17);fill-rule:nonzero;"/>
                <path d="M22.352,260.282C19.403,260.432 16.854,261.631 14.705,263.781C13.805,264.63 13.106,265.58 12.556,266.629L12.506,266.679C11.556,268.379 11.106,270.278 11.106,272.377C11.106,275.726 12.306,278.625 14.705,281.024C16.854,283.173 19.403,284.323 22.352,284.522L22.352,260.282Z" style="fill:rgb(206,153,101);fill-rule:nonzero;"/>
                <path d="M22.352,259.332L22.352,296.967L39.895,296.967C40.145,294.119 41.344,291.62 43.493,289.52C45.942,287.021 48.991,285.772 52.54,285.772L61.536,285.772L61.536,284.223C61.536,282.773 62.086,281.524 63.136,280.474C64.185,279.424 65.385,278.925 66.834,278.925C68.284,278.925 69.533,279.424 70.583,280.474C71.632,281.524 72.132,282.773 72.132,284.223L72.132,285.772L81.778,285.772C85.277,285.772 88.276,287.021 90.775,289.52C92.924,291.62 94.123,294.119 94.423,296.967L112.616,296.967L112.616,288.371L112.616,283.823L112.616,259.782L112.616,255.134C112.566,249.287 111.366,243.839 108.967,238.891C106.568,239.64 103.969,240.19 101.17,240.54C100.471,240.59 99.771,240.69 99.021,240.74L40.295,240.74C28.599,241.14 22.602,247.337 22.352,259.333L22.352,259.332ZM55.938,277.425C56.488,277.975 56.738,278.625 56.688,279.424C56.638,280.124 56.338,280.724 55.789,281.224C55.239,281.723 54.589,281.973 53.839,281.923C53.09,281.873 52.49,281.573 52.04,281.024C51.54,280.474 51.29,279.824 51.29,279.024C51.34,278.325 51.59,277.725 52.14,277.275C52.69,276.775 53.34,276.525 54.089,276.525C54.839,276.575 55.439,276.875 55.939,277.425L55.938,277.425ZM78.679,282.523C77.93,282.523 77.38,282.223 76.93,281.673C76.43,281.124 76.18,280.474 76.23,279.674C76.28,278.925 76.53,278.325 77.08,277.875C77.63,277.375 78.23,277.125 78.979,277.125C79.729,277.175 80.329,277.475 80.829,278.025C81.378,278.575 81.628,279.224 81.578,280.024C81.528,280.774 81.278,281.374 80.729,281.823C80.129,282.323 79.429,282.573 78.68,282.523L78.679,282.523Z" style="fill:rgb(227,186,142);fill-rule:nonzero;"/>
                <path d="M56.688,279.424C56.738,278.625 56.488,277.975 55.938,277.425C55.439,276.875 54.839,276.575 54.089,276.525C53.34,276.525 52.69,276.775 52.14,277.275C51.59,277.725 51.34,278.325 51.29,279.024C51.29,279.824 51.54,280.474 52.04,281.024C52.49,281.573 53.09,281.873 53.839,281.923C54.589,281.973 55.239,281.723 55.789,281.224C56.338,280.724 56.638,280.124 56.688,279.424Z" style="fill-rule:nonzero;"/>
                <path d="M76.93,281.673C77.38,282.223 77.93,282.523 78.679,282.523C79.429,282.573 80.129,282.323 80.729,281.823C81.278,281.374 81.528,280.774 81.578,280.024C81.628,279.224 81.378,278.575 80.829,278.025C80.329,277.475 79.729,277.175 78.979,277.125C78.23,277.125 77.63,277.375 77.08,277.875C76.53,278.325 76.28,278.925 76.23,279.674C76.18,280.474 76.43,281.124 76.93,281.673Z" style="fill-rule:nonzero;"/>
                <path d="M11.106,272.377C11.106,270.278 11.556,268.379 12.506,266.679L0.261,266.679C0.811,270.928 1.86,274.526 3.51,277.525C7.108,284.222 13.406,287.871 22.352,288.471L22.352,284.522C19.403,284.322 16.854,283.173 14.705,281.024C12.306,278.625 11.107,275.726 11.107,272.377L11.106,272.377Z" style="fill:rgb(66,35,17);fill-rule:nonzero;"/>
                <path d="M22.352,316.41C22.352,323.657 24.151,330.254 27.8,336.102C28.749,337.651 29.899,339.2 31.148,340.65C32.398,342.099 33.747,343.549 35.247,344.898C37.146,346.647 39.145,348.247 41.244,349.596C42.194,350.146 43.094,350.696 44.043,351.246C45.893,352.245 47.792,353.145 49.741,353.895C50.291,354.044 50.791,354.244 51.34,354.444C51.64,354.544 51.94,354.644 52.29,354.744C56.738,356.094 61.486,356.743 66.534,356.743L70.133,356.743C74.981,356.593 79.579,355.744 83.877,354.294C85.127,353.845 86.376,353.395 87.626,352.845C87.776,352.795 87.976,352.695 88.126,352.595C89.025,352.145 89.925,351.696 90.825,351.246C92.774,350.196 94.673,348.947 96.472,347.547C97.522,346.698 98.572,345.848 99.621,344.898C102.67,342.149 105.169,339.251 107.118,336.102C110.767,330.254 112.566,323.657 112.616,316.41L112.616,296.967L94.423,296.967C94.123,294.119 92.924,291.62 90.775,289.52C88.276,287.021 85.277,285.772 81.778,285.772L72.132,285.772L72.132,291.67C72.132,293.119 71.632,294.368 70.583,295.418C69.583,296.418 68.384,296.917 66.984,296.967L66.684,296.967C65.285,296.917 64.085,296.418 63.136,295.418C62.086,294.368 61.536,293.119 61.536,291.67L61.536,285.772L52.54,285.772C48.991,285.772 45.943,287.021 43.494,289.52C41.344,291.62 40.145,294.119 39.895,296.967L22.352,296.967L22.352,316.41ZM84.727,302.665C84.227,306.563 82.528,309.962 79.679,312.861C76.18,316.31 71.982,318.059 67.084,318.059C62.186,318.059 57.988,316.31 54.539,312.861C51.59,309.962 49.891,306.564 49.441,302.665L84.727,302.665Z" style="fill:rgb(66,35,17);fill-rule:nonzero;"/>
                <path d="M79.679,312.861C82.528,309.962 84.227,306.564 84.727,302.665L49.441,302.665C49.891,306.564 51.59,309.962 54.539,312.861C57.988,316.31 62.186,318.059 67.084,318.059C71.982,318.059 76.18,316.31 79.679,312.861Z" style="fill:white;fill-rule:nonzero;"/>
                <path d="M119.413,263.181C117.464,261.232 115.215,260.082 112.616,259.782L112.616,283.823C115.215,283.473 117.464,282.323 119.413,280.374C121.762,278.025 122.962,275.126 122.962,271.777C122.962,269.928 122.612,268.229 121.912,266.679C121.862,266.63 121.862,266.53 121.812,266.48C121.212,265.28 120.413,264.181 119.413,263.181Z" style="fill:rgb(206,153,101);fill-rule:nonzero;"/>
                <path d="M112.616,283.823L112.616,288.371C125.111,287.271 132.208,280.024 133.907,266.679L121.912,266.68C122.612,268.229 122.962,269.928 122.962,271.777C122.962,275.126 121.762,278.025 119.413,280.374C117.464,282.323 115.215,283.473 112.616,283.823Z" style="fill:rgb(66,35,17);fill-rule:nonzero;"/>
                <path d="M61.536,284.222L61.536,291.669C61.536,293.119 62.086,294.368 63.136,295.418C64.085,296.418 65.285,296.917 66.684,296.967L66.984,296.967C68.383,296.917 69.583,296.418 70.583,295.418C71.632,294.368 72.132,293.119 72.132,291.67L72.132,285.772L72.132,284.223C72.132,282.773 71.632,281.524 70.583,280.474C69.533,279.424 68.284,278.925 66.834,278.925C65.385,278.925 64.185,279.424 63.136,280.474C62.086,281.524 61.536,282.773 61.536,284.223L61.536,284.222Z" style="fill:rgb(234,152,133);fill-rule:nonzero;"/>
                <path d="M205.429,281.174C204.229,279.724 202.93,278.975 201.48,278.925C200.231,278.875 199.081,279.324 198.032,280.274C197.982,280.324 197.982,280.324 197.932,280.374C196.932,281.324 196.332,282.473 196.082,283.823C195.832,285.272 196.082,286.522 196.932,287.621C197.332,288.171 197.682,288.671 198.032,289.121C199.381,291.07 200.331,292.719 200.88,294.119C201.33,295.268 201.68,296.468 201.93,297.817C201.93,297.867 201.93,297.917 201.93,297.967C201.78,297.917 201.63,297.917 201.48,297.967C200.231,297.967 199.081,298.017 198.032,298.167C193.134,298.767 189.685,300.666 187.636,303.915C185.187,307.813 184.587,311.362 185.836,314.61C186.686,316.76 188.785,317.859 192.034,317.909C190.685,317.959 189.585,318.709 188.635,320.258C187.436,322.058 187.386,323.907 188.485,325.856C190.435,329.105 193.234,331.504 196.882,333.153C197.232,333.303 197.632,333.503 198.032,333.653C199.681,334.253 201.38,334.653 203.23,334.902C203.579,334.952 203.879,334.952 204.179,335.002C203.729,343.249 202.48,350.496 200.331,356.694C198.981,360.692 197.232,364.291 195.183,367.439C192.784,371.088 189.885,374.187 186.536,376.686C178.09,382.184 165.395,383.983 148.452,382.084L146.302,397.927C167.244,400.076 183.488,397.028 194.933,388.731C202.53,383.733 208.328,376.636 212.376,367.44C213.825,364.141 215.025,360.542 215.975,356.694C217.824,349.447 218.823,341.25 219.023,332.104C220.173,331.504 221.273,330.804 222.322,330.055C225.371,327.905 227.67,325.356 229.319,322.508C229.969,321.258 230.519,320.009 230.969,318.659C231.019,318.509 231.019,318.409 231.069,318.259C232.118,315.31 233.068,311.412 233.917,306.614C234.667,301.866 235.117,297.318 235.267,293.069C235.367,291.22 234.867,289.721 233.817,288.671C232.868,287.721 231.668,287.272 230.219,287.272C229.869,287.272 229.569,287.272 229.319,287.322C228.22,287.422 227.27,287.821 226.47,288.471C225.321,289.321 224.771,290.42 224.771,291.87C224.821,294.919 224.471,298.567 223.821,302.916C223.772,303.065 223.722,303.215 223.722,303.365C223.672,303.415 223.672,303.465 223.672,303.515C223.522,303.415 223.422,303.315 223.272,303.265C223.322,303.115 223.322,302.965 223.322,302.816C224.271,295.868 223.572,289.321 221.322,283.273C220.673,281.524 219.673,280.325 218.324,279.675C217.124,279.125 215.875,279.025 214.575,279.475C213.326,279.825 212.326,280.574 211.626,281.674C210.877,282.824 210.627,284.123 210.927,285.522C212.026,290.221 212.576,294.669 212.526,298.917C212.526,298.967 212.526,299.017 212.526,299.067C212.376,299.017 212.276,298.967 212.176,298.917C211.726,291.87 209.477,285.922 205.429,281.174ZM196.232,312.761C196.232,310.812 196.832,309.462 198.032,308.663C198.631,308.263 199.381,308.013 200.331,307.913C202.08,307.663 203.679,308.063 205.129,309.112C206.578,310.162 207.528,311.562 208.028,313.411C208.477,315.11 208.377,316.709 207.828,318.259C207.128,319.958 205.878,321.158 204.129,321.907C201.68,322.907 199.631,322.407 198.032,320.358C197.932,320.208 197.832,320.108 197.782,320.008C196.732,318.559 194.883,317.859 192.334,317.909C194.983,317.759 196.282,316.06 196.232,312.761Z" style="fill:rgb(227,186,142);fill-rule:nonzero;"/>
                <path d="M146.302,397.927L148.451,382.083C140.805,381.234 132.258,379.634 122.912,377.285C119.363,376.386 115.715,375.386 111.966,374.286C110.317,373.937 108.717,373.587 107.168,373.287L107.168,390.58L120.713,393.229C121.462,393.379 122.162,393.579 122.912,393.779C131.258,395.778 139.055,397.177 146.302,397.927Z" style="fill:rgb(122,152,1);fill-rule:nonzero;"/>
                <path d="M91.574,361.891C92.724,361.342 93.973,360.992 95.323,360.892L83.877,360.892L83.627,373.287L83.577,373.537C83.377,374.486 83.328,374.836 83.427,374.686C83.427,374.636 83.427,374.586 83.427,374.536C83.427,374.436 83.427,374.386 83.477,374.336C83.527,374.137 83.577,373.937 83.627,373.737C83.677,373.637 83.677,373.537 83.727,373.437L83.877,372.387L83.877,372.937C83.877,372.837 83.877,372.737 83.927,372.687C83.977,372.487 84.027,372.237 84.077,371.987L84.127,371.937L84.177,371.937C86.426,366.49 88.875,363.141 91.574,361.892L91.574,361.891Z" style="fill:rgb(122,152,1);fill-rule:nonzero;"/>
                <path d="M95.323,360.892C93.973,360.992 92.724,361.342 91.574,361.891C88.875,363.141 86.426,366.49 84.177,371.937L84.127,371.937C84.077,372.087 84.077,372.187 84.077,372.337C84.027,372.387 83.977,372.487 83.977,372.587C83.927,372.637 83.927,372.637 83.927,372.687C83.877,372.737 83.877,372.837 83.877,372.937L83.877,373.037L83.827,373.037C83.777,373.187 83.727,373.287 83.727,373.437C83.677,373.537 83.677,373.637 83.627,373.737C83.578,373.937 83.528,374.137 83.478,374.337C83.428,374.487 83.428,374.586 83.428,374.736C83.378,375.036 83.278,375.386 83.228,375.786L83.328,375.086C83.278,375.336 83.228,375.536 83.178,375.786L80.429,385.982L68.783,428.915C69.933,429.065 70.883,429.565 71.732,430.414C72.732,431.414 73.232,432.613 73.232,434.013L73.232,442.709C73.232,444.109 72.732,445.308 71.732,446.308C70.683,447.308 69.483,447.807 68.084,447.857C66.684,447.807 65.485,447.308 64.485,446.308C63.436,445.308 62.936,444.109 62.936,442.709L62.936,434.013C62.936,432.613 63.436,431.414 64.485,430.414C65.285,429.565 66.235,429.065 67.334,428.915L55.689,385.982L52.94,375.786C52.74,374.837 52.49,373.887 52.24,373.037C52.14,372.638 52.04,372.288 51.94,371.938C51.291,369.989 50.591,368.339 49.741,366.89C48.092,364.141 46.043,362.292 43.494,361.442L37.996,360.892L31.299,360.892L31.299,372.038L26.601,372.038L26.601,372.638C26.75,372.638 26.95,372.638 27.15,372.638L27.15,521.228L107.168,521.228L107.168,390.581L107.168,373.287L107.168,372.038L104.819,372.038L104.819,360.892L95.323,360.892ZM32.598,497.587C32.598,497.037 32.798,496.537 33.198,496.138C33.598,495.738 34.047,495.538 34.597,495.588L49.041,495.588C49.591,495.538 50.041,495.738 50.441,496.138C50.791,496.538 50.991,497.037 51.041,497.587L51.041,497.637C50.991,498.187 50.791,498.637 50.441,499.037C50.041,499.436 49.591,499.636 49.041,499.636L34.597,499.636C34.047,499.636 33.598,499.436 33.198,499.037C32.798,498.637 32.598,498.187 32.598,497.637L32.598,497.587ZM84.077,497.587C84.077,497.037 84.277,496.537 84.677,496.138C85.077,495.738 85.527,495.538 86.076,495.588L100.521,495.588C101.07,495.538 101.52,495.738 101.92,496.138C102.27,496.538 102.47,497.037 102.52,497.587L102.52,497.637C102.47,498.187 102.27,498.637 101.92,499.037C101.52,499.436 101.07,499.636 100.521,499.636L86.076,499.636C85.527,499.636 85.077,499.436 84.677,499.037C84.277,498.637 84.077,498.187 84.077,497.637L84.077,497.587ZM97.872,507.233L97.872,506.883L98.072,507.033C98.122,507.083 98.022,507.133 97.872,507.233ZM93.124,511.332L93.324,511.531L93.124,511.531L93.124,511.332Z" style="fill:rgb(153,204,0);fill-rule:nonzero;"/>
                <path d="M33.198,496.138C32.798,496.537 32.598,497.037 32.598,497.587L32.598,497.637C32.598,498.187 32.798,498.637 33.198,499.036C33.598,499.436 34.047,499.636 34.597,499.636L49.041,499.636C49.591,499.636 50.041,499.436 50.441,499.036C50.791,498.637 50.991,498.187 51.041,497.637L51.041,497.587C50.991,497.037 50.791,496.538 50.441,496.138C50.041,495.738 49.591,495.538 49.041,495.588L34.597,495.588C34.047,495.538 33.598,495.738 33.198,496.138Z" style="fill:rgb(122,152,1);fill-rule:nonzero;"/>
                <path d="M84.677,496.138C84.277,496.537 84.077,497.037 84.077,497.587L84.077,497.637C84.077,498.187 84.277,498.637 84.677,499.036C85.077,499.436 85.527,499.636 86.076,499.636L100.521,499.636C101.07,499.636 101.52,499.436 101.92,499.036C102.27,498.637 102.47,498.187 102.52,497.637L102.52,497.587C102.47,497.037 102.27,496.538 101.92,496.138C101.52,495.738 101.07,495.538 100.521,495.588L86.076,495.588C85.527,495.538 85.077,495.738 84.677,496.138Z" style="fill:rgb(122,152,1);fill-rule:nonzero;"/>
                <path d="M97.872,506.883L97.872,507.233C98.022,507.133 98.122,507.083 98.072,507.033L97.872,506.883Z" style="fill:rgb(122,152,1);fill-rule:nonzero;"/>
                <path d="M83.877,354.294C79.579,355.744 74.981,356.593 70.133,356.743L68.383,356.743L66.534,356.743C61.486,356.743 56.738,356.094 52.29,354.744L52.29,373.037L52.24,373.037C52.49,373.887 52.74,374.836 52.94,375.786L55.689,385.982L80.429,385.982L83.178,375.786C83.228,375.536 83.278,375.336 83.328,375.086C83.328,374.936 83.378,374.836 83.428,374.736L83.428,374.686C83.328,374.836 83.378,374.486 83.578,373.537L83.627,373.287L83.877,360.892L83.877,354.295L83.877,354.294Z" style="fill:rgb(206,153,101);fill-rule:nonzero;"/>
                <path d="M49.741,366.889C50.591,368.339 51.29,369.988 51.94,371.937C52.04,372.287 52.14,372.637 52.24,373.037L52.29,373.037L52.29,360.892L37.996,360.892L43.494,361.442C46.043,362.291 48.092,364.141 49.741,366.889Z" style="fill:rgb(122,152,1);fill-rule:nonzero;"/>
                <path d="M84.127,371.937L84.077,371.987C84.027,372.237 83.977,372.487 83.927,372.687C83.927,372.637 83.927,372.637 83.977,372.587C83.977,372.487 84.027,372.387 84.077,372.337C84.077,372.187 84.077,372.087 84.127,371.937Z" style="fill:rgb(216,163,121);fill-rule:nonzero;"/>
                <path d="M84.127,371.937L84.177,371.937L84.127,371.937Z" style="fill:rgb(206,153,101);fill-rule:nonzero;"/>
                <path d="M83.827,373.037C83.827,372.987 83.827,372.987 83.877,372.937L83.877,372.387L83.727,373.437C83.727,373.287 83.777,373.187 83.827,373.037Z" style="fill:rgb(206,153,101);fill-rule:nonzero;"/>
                <path d="M83.427,374.736C83.377,374.836 83.328,374.936 83.328,375.086L83.228,375.786C83.278,375.386 83.377,375.036 83.427,374.736Z" style="fill:rgb(122,152,1);fill-rule:nonzero;"/>
                <path d="M80.429,385.982L55.689,385.982L67.334,428.914C67.584,428.865 67.834,428.865 68.084,428.865C68.334,428.865 68.533,428.865 68.783,428.914L80.429,385.982Z" style="fill:white;fill-rule:nonzero;"/>
                <path d="M68.084,428.865C67.834,428.865 67.584,428.865 67.334,428.914C66.234,429.064 65.285,429.564 64.485,430.414C63.435,431.414 62.936,432.613 62.936,434.012L62.936,442.709C62.936,444.108 63.435,445.308 64.485,446.308C65.485,447.307 66.684,447.807 68.084,447.857C69.483,447.807 70.683,447.307 71.732,446.308C72.732,445.308 73.232,444.108 73.232,442.709L73.232,434.013C73.232,432.613 72.732,431.414 71.732,430.414C70.882,429.564 69.933,429.065 68.783,428.915C68.533,428.865 68.334,428.865 68.084,428.865ZM66.584,436.212C66.484,436.162 66.384,436.062 66.334,436.012C65.885,435.562 65.635,434.962 65.685,434.262C65.635,433.563 65.885,433.013 66.334,432.563C66.784,432.063 67.384,431.813 68.084,431.863C68.783,431.813 69.383,432.063 69.833,432.563C70.283,433.013 70.533,433.563 70.533,434.262C70.533,434.962 70.283,435.562 69.833,436.012C69.733,436.062 69.633,436.162 69.583,436.212C69.133,436.562 68.633,436.711 68.084,436.711C67.484,436.712 66.984,436.562 66.584,436.212Z" style="fill:rgb(102,102,102);fill-rule:nonzero;"/>
                <path d="M66.334,436.012C66.384,436.062 66.484,436.162 66.584,436.212C66.984,436.561 67.484,436.711 68.084,436.711C68.633,436.711 69.133,436.561 69.583,436.212C69.633,436.162 69.733,436.062 69.833,436.012C70.283,435.562 70.533,434.962 70.533,434.262C70.533,433.563 70.283,433.013 69.833,432.563C69.383,432.063 68.783,431.813 68.084,431.863C67.384,431.813 66.784,432.063 66.334,432.563C65.885,433.013 65.635,433.563 65.685,434.263C65.635,434.962 65.885,435.562 66.334,436.012Z" style="fill:rgb(153,204,0);fill-rule:nonzero;"/>
                <path d="M27.15,372.637C26.95,372.637 26.75,372.637 26.6,372.637C17.254,372.837 12.606,377.685 12.606,387.231L12.606,454.804L27.15,454.804L27.15,372.637Z" style="fill:rgb(122,152,1);fill-rule:nonzero;"/>
                <path d="M27.15,454.804L12.606,454.804L12.606,553.615C9.007,554.464 6.608,556.264 5.409,559.063C5.059,560.512 4.759,561.961 4.509,563.411C4.509,563.461 4.509,563.561 4.509,563.611C4.459,563.761 4.459,563.911 4.509,564.111L4.509,583.403C4.459,584.952 4.959,586.202 6.008,587.251C7.108,588.351 8.407,588.901 9.957,588.901L10.107,588.901C11.606,588.901 12.856,588.351 13.905,587.251C14.705,586.502 15.205,585.602 15.455,584.552C15.405,584.402 15.405,584.203 15.405,584.053C15.455,584.053 15.505,584.053 15.555,584.103C15.505,584.253 15.505,584.402 15.455,584.552C15.555,585.852 16.054,586.951 17.004,587.901C18.054,588.951 19.353,589.5 20.902,589.5L21.052,589.5C22.602,589.5 23.851,588.951 24.851,587.901C25.85,586.952 26.4,585.752 26.5,584.403C26.5,585.952 27,587.201 28.05,588.251C29.149,589.301 30.449,589.85 31.998,589.85L32.148,589.85C33.647,589.85 34.897,589.301 35.946,588.251C37.046,587.201 37.596,585.952 37.646,584.403L37.596,577.905C37.496,577.805 37.396,577.705 37.296,577.605L37.596,577.605L37.596,565.01C37.596,564.561 37.546,564.111 37.446,563.711C37.396,563.511 37.346,563.311 37.296,563.161C37.146,562.761 37.046,562.362 36.896,562.012L36.846,561.912C36.796,561.762 36.796,561.612 36.746,561.512L35.947,560.562L36.646,561.312C34.897,556.664 32.198,554.065 28.599,553.515L27.15,553.515L27.15,527.526L27.15,521.228L27.15,454.805L27.15,454.804ZM15.455,564.66C15.455,564.31 15.505,564.01 15.555,563.711L15.555,564.71L15.455,564.66Z" style="fill:rgb(227,186,142);fill-rule:nonzero;"/>
                <path d="M27.15,521.228L27.15,527.525L107.168,527.525L107.168,521.228L27.15,521.228Z" style="fill:rgb(122,152,1);fill-rule:nonzero;"/>
                <path d="M40.045,527.525L40.045,533.323L40.695,535.572L49.591,535.572L49.591,747.887L62.886,747.887L62.886,747.737L62.886,535.572L72.632,535.572L72.632,747.887L85.926,747.887L85.926,747.737L85.926,577.055C85.677,576.456 85.577,575.806 85.627,575.106C85.577,574.356 85.677,573.707 85.926,573.107L85.926,535.572L93.773,535.572L93.773,527.525L40.045,527.525Z" style="fill:rgb(2,100,149);fill-rule:nonzero;"/>
                <path d="M36.646,561.312L35.946,560.562L36.746,561.511L36.796,561.462L36.646,561.312Z" style="fill:rgb(234,152,133);fill-rule:nonzero;"/>
                <path d="M36.796,561.461L36.746,561.511C36.796,561.611 36.796,561.761 36.846,561.911L36.896,562.011C37.046,562.361 37.146,562.761 37.296,563.161C37.346,563.311 37.396,563.511 37.446,563.711C37.546,564.111 37.596,564.56 37.596,565.01L37.596,577.905L39.545,579.804C40.595,580.754 41.744,581.204 43.094,581.204C44.643,581.204 45.943,580.654 47.042,579.554L47.142,579.504C48.192,578.405 48.741,577.105 48.691,575.656C48.741,574.107 48.192,572.807 47.142,571.758L36.796,561.462L36.796,561.461Z" style="fill:rgb(206,153,101);fill-rule:nonzero;"/>
                <path d="M123.711,758.133C123.561,757.583 123.411,757.033 123.262,756.533L72.632,756.533L72.632,761.431L124.211,761.431C124.111,760.282 123.961,759.182 123.711,758.133Z" style="fill:rgb(255,102,0);fill-rule:nonzero;"/>
                <path d="M123.262,756.533C122.312,753.585 120.813,750.986 118.663,748.637C118.364,748.287 118.064,747.987 117.814,747.737C117.264,747.187 116.664,746.637 116.065,746.188C116.015,746.138 116.015,746.138 115.965,746.088C114.865,745.238 113.715,744.538 112.516,743.988C112.366,743.939 112.266,743.889 112.166,743.839C110.667,743.189 109.117,742.789 107.468,742.539C107.418,742.539 107.418,742.539 107.368,742.539C106.568,742.389 105.769,742.339 104.919,742.389C104.069,742.339 103.32,742.389 102.57,742.489C102.47,742.489 102.37,742.489 102.27,742.539C101.42,742.639 100.621,742.839 99.821,743.089L99.771,743.089C99.671,743.089 99.621,743.089 99.571,743.139C98.871,743.339 98.172,743.589 97.522,743.889C96.972,744.139 96.422,744.388 95.873,744.738C94.523,745.538 93.224,746.538 92.074,747.737L85.927,747.737L85.927,747.887L72.632,747.887L72.632,747.737L72.632,756.534L123.262,756.534L123.262,756.533Z" style="fill:rgb(77,95,109);fill-rule:nonzero;"/>
                <path d="M49.591,747.887L49.591,747.737L44.143,747.737C42.994,746.537 41.744,745.538 40.395,744.738C39.845,744.388 39.245,744.138 38.695,743.889C38.046,743.589 37.346,743.339 36.646,743.139C36.596,743.089 36.546,743.089 36.496,743.089L36.446,743.089C35.647,742.839 34.797,742.639 33.947,742.539C33.847,742.489 33.747,742.489 33.697,742.489C32.948,742.389 32.148,742.339 31.348,742.389C30.499,742.339 29.649,742.389 28.899,742.539C28.849,742.539 28.799,742.539 28.799,742.539C27.15,742.789 25.551,743.189 24.101,743.839C23.951,743.889 23.851,743.939 23.751,743.989C22.502,744.538 21.352,745.238 20.253,746.088C20.203,746.138 20.203,746.138 20.203,746.188C19.553,746.638 18.953,747.187 18.404,747.737C18.154,747.987 17.854,748.287 17.604,748.637C15.455,750.986 13.905,753.585 12.956,756.534L63.635,756.534L63.635,747.737L62.886,747.737L62.886,747.887L49.591,747.887Z" style="fill:rgb(77,95,109);fill-rule:nonzero;"/>
                <path d="M63.635,761.431L63.635,756.533L12.956,756.533C12.806,757.033 12.656,757.583 12.556,758.133C12.306,759.182 12.106,760.282 12.006,761.431L63.635,761.431Z" style="fill:rgb(255,102,0);fill-rule:nonzero;"/>
                <path d="M109.517,372.037L107.768,372.037C108.367,372.087 108.967,372.137 109.517,372.187L109.517,372.037Z" style="fill:rgb(153,204,0);fill-rule:nonzero;"/>
                <path d="M97.522,560.962L98.371,560.012L97.672,560.762L97.472,560.912L97.522,560.962Z" style="fill:rgb(234,152,133);fill-rule:nonzero;"/>
            </g>
        </g>
    </g>
</svg>
